<?xml version="1.0" encoding="UTF-8" standalone="no"?>
<!DOCTYPE svg PUBLIC "-//W3C//DTD SVG 1.1//EN"
 "http://www.w3.org/Graphics/SVG/1.1/DTD/svg11.dtd">
<!-- Generated by graphviz version 2.40.1 (0)
 -->
<!-- Title: snakemake_dag Pages: 1 -->
<svg width="466pt" height="908pt"
 viewBox="0.00 0.00 465.50 908.00" xmlns="http://www.w3.org/2000/svg" xmlns:xlink="http://www.w3.org/1999/xlink">
<g id="graph0" class="graph" transform="scale(1 1) rotate(0) translate(4 904)">
<title>snakemake_dag</title>
<polygon fill="#ffffff" stroke="transparent" points="-4,4 -4,-904 461.5,-904 461.5,4 -4,4"/>
<!-- 0 -->
<g id="node1" class="node">
<title>0</title>
<path fill="none" stroke="#97d856" stroke-width="2" d="M212.5,-36C212.5,-36 182.5,-36 182.5,-36 176.5,-36 170.5,-30 170.5,-24 170.5,-24 170.5,-12 170.5,-12 170.5,-6 176.5,0 182.5,0 182.5,0 212.5,0 212.5,0 218.5,0 224.5,-6 224.5,-12 224.5,-12 224.5,-24 224.5,-24 224.5,-30 218.5,-36 212.5,-36"/>
<text text-anchor="middle" x="197.5" y="-15.5" font-family="sans" font-size="10.00" fill="#000000">all</text>
</g>
<!-- 1 -->
<g id="node2" class="node">
<title>1</title>
<path fill="none" stroke="#56a9d8" stroke-width="2" d="M89.5,-540C89.5,-540 59.5,-540 59.5,-540 53.5,-540 47.5,-534 47.5,-528 47.5,-528 47.5,-516 47.5,-516 47.5,-510 53.5,-504 59.5,-504 59.5,-504 89.5,-504 89.5,-504 95.5,-504 101.5,-510 101.5,-516 101.5,-516 101.5,-528 101.5,-528 101.5,-534 95.5,-540 89.5,-540"/>
<text text-anchor="middle" x="74.5" y="-519.5" font-family="sans" font-size="10.00" fill="#000000">multiqc</text>
</g>
<!-- 1&#45;&gt;0 -->
<g id="edge5" class="edge">
<title>1&#45;&gt;0</title>
<path fill="none" stroke="#c0c0c0" stroke-width="2" d="M69.7344,-503.9623C62.9975,-476.8344 51.5,-423.8236 51.5,-378 51.5,-378 51.5,-378 51.5,-162 51.5,-116.2416 69.2297,-104.4415 101.5,-72 118.4205,-54.9898 141.8152,-41.682 161.2736,-32.5336"/>
<polygon fill="#c0c0c0" stroke="#c0c0c0" stroke-width="2" points="162.7938,-35.6874 170.464,-28.3786 159.9101,-29.309 162.7938,-35.6874"/>
</g>
<!-- 2 -->
<g id="node3" class="node">
<title>2</title>
<path fill="none" stroke="#d6d856" stroke-width="2" d="M134.5,-612C134.5,-612 72.5,-612 72.5,-612 66.5,-612 60.5,-606 60.5,-600 60.5,-600 60.5,-588 60.5,-588 60.5,-582 66.5,-576 72.5,-576 72.5,-576 134.5,-576 134.5,-576 140.5,-576 146.5,-582 146.5,-588 146.5,-588 146.5,-600 146.5,-600 146.5,-606 140.5,-612 134.5,-612"/>
<text text-anchor="middle" x="103.5" y="-591.5" font-family="sans" font-size="10.00" fill="#000000">salmon_quant</text>
</g>
<!-- 2&#45;&gt;1 -->
<g id="edge9" class="edge">
<title>2&#45;&gt;1</title>
<path fill="none" stroke="#c0c0c0" stroke-width="2" d="M96.1821,-575.8314C93.0124,-567.9617 89.23,-558.5712 85.7187,-549.8533"/>
<polygon fill="#c0c0c0" stroke="#c0c0c0" stroke-width="2" points="88.8992,-548.3815 81.9165,-540.4133 82.4061,-550.9968 88.8992,-548.3815"/>
</g>
<!-- 18 -->
<g id="node19" class="node">
<title>18</title>
<path fill="none" stroke="#d88556" stroke-width="2" d="M239,-540C239,-540 204,-540 204,-540 198,-540 192,-534 192,-528 192,-528 192,-516 192,-516 192,-510 198,-504 204,-504 204,-504 239,-504 239,-504 245,-504 251,-510 251,-516 251,-516 251,-528 251,-528 251,-534 245,-540 239,-540"/>
<text text-anchor="middle" x="221.5" y="-519.5" font-family="sans" font-size="10.00" fill="#000000">tximport</text>
</g>
<!-- 2&#45;&gt;18 -->
<g id="edge27" class="edge">
<title>2&#45;&gt;18</title>
<path fill="none" stroke="#c0c0c0" stroke-width="2" d="M133.2764,-575.8314C148.3693,-566.6221 166.8757,-555.3301 183.0343,-545.4706"/>
<polygon fill="#c0c0c0" stroke="#c0c0c0" stroke-width="2" points="185.0198,-548.3593 191.7331,-540.1628 181.3737,-542.3838 185.0198,-548.3593"/>
</g>
<!-- 3 -->
<g id="node4" class="node">
<title>3</title>
<path fill="none" stroke="#80d856" stroke-width="2" d="M134,-684C134,-684 73,-684 73,-684 67,-684 61,-678 61,-672 61,-672 61,-660 61,-660 61,-654 67,-648 73,-648 73,-648 134,-648 134,-648 140,-648 146,-654 146,-660 146,-660 146,-672 146,-672 146,-678 140,-684 134,-684"/>
<text text-anchor="middle" x="103.5" y="-663.5" font-family="sans" font-size="10.00" fill="#000000">salmon_index</text>
</g>
<!-- 3&#45;&gt;2 -->
<g id="edge11" class="edge">
<title>3&#45;&gt;2</title>
<path fill="none" stroke="#c0c0c0" stroke-width="2" d="M103.5,-647.8314C103.5,-640.131 103.5,-630.9743 103.5,-622.4166"/>
<polygon fill="#c0c0c0" stroke="#c0c0c0" stroke-width="2" points="107.0001,-622.4132 103.5,-612.4133 100.0001,-622.4133 107.0001,-622.4132"/>
</g>
<!-- 4 -->
<g id="node5" class="node">
<title>4</title>
<path fill="none" stroke="#c6d856" stroke-width="2" d="M85,-828C85,-828 12,-828 12,-828 6,-828 0,-822 0,-816 0,-816 0,-804 0,-804 0,-798 6,-792 12,-792 12,-792 85,-792 85,-792 91,-792 97,-798 97,-804 97,-804 97,-816 97,-816 97,-822 91,-828 85,-828"/>
<text text-anchor="middle" x="48.5" y="-807.5" font-family="sans" font-size="10.00" fill="#000000">make_gentrome</text>
</g>
<!-- 4&#45;&gt;3 -->
<g id="edge12" class="edge">
<title>4&#45;&gt;3</title>
<path fill="none" stroke="#c0c0c0" stroke-width="2" d="M55.4658,-791.7623C64.9295,-766.9846 81.9311,-722.4714 92.9607,-693.5939"/>
<polygon fill="#c0c0c0" stroke="#c0c0c0" stroke-width="2" points="96.2923,-694.6803 96.5908,-684.0896 89.753,-692.1826 96.2923,-694.6803"/>
</g>
<!-- 5 -->
<g id="node6" class="node">
<title>5</title>
<path fill="none" stroke="#d85656" stroke-width="2" d="M186,-900C186,-900 127,-900 127,-900 121,-900 115,-894 115,-888 115,-888 115,-876 115,-876 115,-870 121,-864 127,-864 127,-864 186,-864 186,-864 192,-864 198,-870 198,-876 198,-876 198,-888 198,-888 198,-894 192,-900 186,-900"/>
<text text-anchor="middle" x="156.5" y="-879.5" font-family="sans" font-size="10.00" fill="#000000">load_toplevel</text>
</g>
<!-- 5&#45;&gt;4 -->
<g id="edge14" class="edge">
<title>5&#45;&gt;4</title>
<path fill="none" stroke="#c0c0c0" stroke-width="2" d="M129.247,-863.8314C115.5611,-854.7074 98.8085,-843.539 84.1173,-833.7449"/>
<polygon fill="#c0c0c0" stroke="#c0c0c0" stroke-width="2" points="86.0062,-830.7977 75.7442,-828.1628 82.1233,-836.6221 86.0062,-830.7977"/>
</g>
<!-- 8 -->
<g id="node9" class="node">
<title>8</title>
<path fill="none" stroke="#5682d8" stroke-width="2" d="M193.5,-828C193.5,-828 127.5,-828 127.5,-828 121.5,-828 115.5,-822 115.5,-816 115.5,-816 115.5,-804 115.5,-804 115.5,-798 121.5,-792 127.5,-792 127.5,-792 193.5,-792 193.5,-792 199.5,-792 205.5,-798 205.5,-804 205.5,-804 205.5,-816 205.5,-816 205.5,-822 199.5,-828 193.5,-828"/>
<text text-anchor="middle" x="160.5" y="-807.5" font-family="sans" font-size="10.00" fill="#000000">make_decoy_1</text>
</g>
<!-- 5&#45;&gt;8 -->
<g id="edge17" class="edge">
<title>5&#45;&gt;8</title>
<path fill="none" stroke="#c0c0c0" stroke-width="2" d="M157.5094,-863.8314C157.9372,-856.131 158.4459,-846.9743 158.9213,-838.4166"/>
<polygon fill="#c0c0c0" stroke="#c0c0c0" stroke-width="2" points="162.4169,-838.592 159.477,-828.4133 155.4276,-838.2037 162.4169,-838.592"/>
</g>
<!-- 6 -->
<g id="node7" class="node">
<title>6</title>
<path fill="none" stroke="#afd856" stroke-width="2" d="M81,-900C81,-900 16,-900 16,-900 10,-900 4,-894 4,-888 4,-888 4,-876 4,-876 4,-870 10,-864 16,-864 16,-864 81,-864 81,-864 87,-864 93,-870 93,-876 93,-876 93,-888 93,-888 93,-894 87,-900 81,-900"/>
<text text-anchor="middle" x="48.5" y="-879.5" font-family="sans" font-size="10.00" fill="#000000">load_transcript</text>
</g>
<!-- 6&#45;&gt;4 -->
<g id="edge15" class="edge">
<title>6&#45;&gt;4</title>
<path fill="none" stroke="#c0c0c0" stroke-width="2" d="M48.5,-863.8314C48.5,-856.131 48.5,-846.9743 48.5,-838.4166"/>
<polygon fill="#c0c0c0" stroke="#c0c0c0" stroke-width="2" points="52.0001,-838.4132 48.5,-828.4133 45.0001,-838.4133 52.0001,-838.4132"/>
</g>
<!-- 7 -->
<g id="node8" class="node">
<title>7</title>
<path fill="none" stroke="#68d856" stroke-width="2" d="M183.5,-756C183.5,-756 117.5,-756 117.5,-756 111.5,-756 105.5,-750 105.5,-744 105.5,-744 105.5,-732 105.5,-732 105.5,-726 111.5,-720 117.5,-720 117.5,-720 183.5,-720 183.5,-720 189.5,-720 195.5,-726 195.5,-732 195.5,-732 195.5,-744 195.5,-744 195.5,-750 189.5,-756 183.5,-756"/>
<text text-anchor="middle" x="150.5" y="-735.5" font-family="sans" font-size="10.00" fill="#000000">make_decoy_2</text>
</g>
<!-- 7&#45;&gt;3 -->
<g id="edge13" class="edge">
<title>7&#45;&gt;3</title>
<path fill="none" stroke="#c0c0c0" stroke-width="2" d="M138.6399,-719.8314C133.3371,-711.7079 126.9763,-701.9637 121.1327,-693.0118"/>
<polygon fill="#c0c0c0" stroke="#c0c0c0" stroke-width="2" points="123.9169,-690.8739 115.5198,-684.4133 118.0552,-694.7003 123.9169,-690.8739"/>
</g>
<!-- 8&#45;&gt;7 -->
<g id="edge16" class="edge">
<title>8&#45;&gt;7</title>
<path fill="none" stroke="#c0c0c0" stroke-width="2" d="M157.9766,-791.8314C156.9071,-784.131 155.6353,-774.9743 154.4468,-766.4166"/>
<polygon fill="#c0c0c0" stroke="#c0c0c0" stroke-width="2" points="157.8999,-765.8367 153.0574,-756.4133 150.9664,-766.7997 157.8999,-765.8367"/>
</g>
<!-- 9 -->
<g id="node10" class="node">
<title>9</title>
<path fill="none" stroke="#56d86b" stroke-width="2" d="M221.5,-612C221.5,-612 191.5,-612 191.5,-612 185.5,-612 179.5,-606 179.5,-600 179.5,-600 179.5,-588 179.5,-588 179.5,-582 185.5,-576 191.5,-576 191.5,-576 221.5,-576 221.5,-576 227.5,-576 233.5,-582 233.5,-588 233.5,-588 233.5,-600 233.5,-600 233.5,-606 227.5,-612 221.5,-612"/>
<text text-anchor="middle" x="206.5" y="-591.5" font-family="sans" font-size="10.00" fill="#000000">fastqc</text>
</g>
<!-- 9&#45;&gt;1 -->
<g id="edge10" class="edge">
<title>9&#45;&gt;1</title>
<path fill="none" stroke="#c0c0c0" stroke-width="2" d="M179.4693,-579.256C159.6699,-568.4563 132.5807,-553.6804 110.8811,-541.8442"/>
<polygon fill="#c0c0c0" stroke="#c0c0c0" stroke-width="2" points="112.4031,-538.6877 101.9482,-536.9717 109.0511,-544.8329 112.4031,-538.6877"/>
</g>
<!-- 9&#45;&gt;18 -->
<g id="edge28" class="edge">
<title>9&#45;&gt;18</title>
<path fill="none" stroke="#c0c0c0" stroke-width="2" d="M210.2851,-575.8314C211.8894,-568.131 213.797,-558.9743 215.5799,-550.4166"/>
<polygon fill="#c0c0c0" stroke="#c0c0c0" stroke-width="2" points="219.0507,-550.9169 217.6639,-540.4133 212.1979,-549.4892 219.0507,-550.9169"/>
</g>
<!-- 10 -->
<g id="node11" class="node">
<title>10</title>
<path fill="none" stroke="#569ad8" stroke-width="2" d="M255,-108C255,-108 206,-108 206,-108 200,-108 194,-102 194,-96 194,-96 194,-84 194,-84 194,-78 200,-72 206,-72 206,-72 255,-72 255,-72 261,-72 267,-78 267,-84 267,-84 267,-96 267,-96 267,-102 261,-108 255,-108"/>
<text text-anchor="middle" x="230.5" y="-87.5" font-family="sans" font-size="10.00" fill="#000000">plot_comps</text>
</g>
<!-- 10&#45;&gt;0 -->
<g id="edge4" class="edge">
<title>10&#45;&gt;0</title>
<path fill="none" stroke="#c0c0c0" stroke-width="2" d="M222.1727,-71.8314C218.527,-63.8771 214.1691,-54.369 210.1373,-45.5723"/>
<polygon fill="#c0c0c0" stroke="#c0c0c0" stroke-width="2" points="213.2877,-44.0456 205.9394,-36.4133 206.9243,-46.9622 213.2877,-44.0456"/>
</g>
<!-- 11 -->
<g id="node12" class="node">
<title>11</title>
<path fill="none" stroke="#59d856" stroke-width="2" d="M313,-252C313,-252 260,-252 260,-252 254,-252 248,-246 248,-240 248,-240 248,-228 248,-228 248,-222 254,-216 260,-216 260,-216 313,-216 313,-216 319,-216 325,-222 325,-228 325,-228 325,-240 325,-240 325,-246 319,-252 313,-252"/>
<text text-anchor="middle" x="286.5" y="-231.5" font-family="sans" font-size="10.00" fill="#000000">deconvolute</text>
</g>
<!-- 11&#45;&gt;10 -->
<g id="edge18" class="edge">
<title>11&#45;&gt;10</title>
<path fill="none" stroke="#c0c0c0" stroke-width="2" d="M271.1841,-215.5801C263.614,-205.608 254.9551,-192.7465 249.5,-180 241.0437,-160.2409 236.2274,-136.3827 233.5611,-118.1965"/>
<polygon fill="#c0c0c0" stroke="#c0c0c0" stroke-width="2" points="237.0215,-117.6666 232.2283,-108.218 230.0831,-118.5934 237.0215,-117.6666"/>
</g>
<!-- 19 -->
<g id="node20" class="node">
<title>19</title>
<path fill="none" stroke="#d8c356" stroke-width="2" d="M302.5,-180C302.5,-180 270.5,-180 270.5,-180 264.5,-180 258.5,-174 258.5,-168 258.5,-168 258.5,-156 258.5,-156 258.5,-150 264.5,-144 270.5,-144 270.5,-144 302.5,-144 302.5,-144 308.5,-144 314.5,-150 314.5,-156 314.5,-156 314.5,-168 314.5,-168 314.5,-174 308.5,-180 302.5,-180"/>
<text text-anchor="middle" x="286.5" y="-159.5" font-family="sans" font-size="10.00" fill="#000000">dirichlet</text>
</g>
<!-- 11&#45;&gt;19 -->
<g id="edge29" class="edge">
<title>11&#45;&gt;19</title>
<path fill="none" stroke="#c0c0c0" stroke-width="2" d="M286.5,-215.8314C286.5,-208.131 286.5,-198.9743 286.5,-190.4166"/>
<polygon fill="#c0c0c0" stroke="#c0c0c0" stroke-width="2" points="290.0001,-190.4132 286.5,-180.4133 283.0001,-190.4133 290.0001,-190.4132"/>
</g>
<!-- 21 -->
<g id="node22" class="node">
<title>21</title>
<path fill="none" stroke="#56d89a" stroke-width="2" d="M440,-180C440,-180 345,-180 345,-180 339,-180 333,-174 333,-168 333,-168 333,-156 333,-156 333,-150 339,-144 345,-144 345,-144 440,-144 440,-144 446,-144 452,-150 452,-156 452,-156 452,-168 452,-168 452,-174 446,-180 440,-180"/>
<text text-anchor="middle" x="392.5" y="-159.5" font-family="sans" font-size="10.00" fill="#000000">diffential_expression</text>
</g>
<!-- 11&#45;&gt;21 -->
<g id="edge31" class="edge">
<title>11&#45;&gt;21</title>
<path fill="none" stroke="#c0c0c0" stroke-width="2" d="M313.2483,-215.8314C326.5553,-206.7927 342.816,-195.7476 357.1375,-186.0198"/>
<polygon fill="#c0c0c0" stroke="#c0c0c0" stroke-width="2" points="359.4547,-188.677 365.7603,-180.1628 355.5215,-182.8864 359.4547,-188.677"/>
</g>
<!-- 12 -->
<g id="node13" class="node">
<title>12</title>
<path fill="none" stroke="#56d8c1" stroke-width="2" d="M217.5,-324C217.5,-324 167.5,-324 167.5,-324 161.5,-324 155.5,-318 155.5,-312 155.5,-312 155.5,-300 155.5,-300 155.5,-294 161.5,-288 167.5,-288 167.5,-288 217.5,-288 217.5,-288 223.5,-288 229.5,-294 229.5,-300 229.5,-300 229.5,-312 229.5,-312 229.5,-318 223.5,-324 217.5,-324"/>
<text text-anchor="middle" x="192.5" y="-303.5" font-family="sans" font-size="10.00" fill="#000000">findMarkers</text>
</g>
<!-- 12&#45;&gt;0 -->
<g id="edge8" class="edge">
<title>12&#45;&gt;0</title>
<path fill="none" stroke="#c0c0c0" stroke-width="2" d="M171.1873,-287.7308C161.6866,-278.1756 151.521,-265.6372 146.5,-252 119.8661,-179.6619 158.5571,-89.3724 181.9246,-45.0718"/>
<polygon fill="#c0c0c0" stroke="#c0c0c0" stroke-width="2" points="185.1052,-46.5484 186.789,-36.0882 178.9496,-43.2153 185.1052,-46.5484"/>
</g>
<!-- 12&#45;&gt;11 -->
<g id="edge19" class="edge">
<title>12&#45;&gt;11</title>
<path fill="none" stroke="#c0c0c0" stroke-width="2" d="M216.2202,-287.8314C227.9094,-278.8779 242.1688,-267.9558 254.7809,-258.2955"/>
<polygon fill="#c0c0c0" stroke="#c0c0c0" stroke-width="2" points="256.9769,-261.0222 262.7874,-252.1628 252.7203,-255.4651 256.9769,-261.0222"/>
</g>
<!-- 22 -->
<g id="node23" class="node">
<title>22</title>
<path fill="none" stroke="#d8ac56" stroke-width="2" d="M217.5,-252C217.5,-252 167.5,-252 167.5,-252 161.5,-252 155.5,-246 155.5,-240 155.5,-240 155.5,-228 155.5,-228 155.5,-222 161.5,-216 167.5,-216 167.5,-216 217.5,-216 217.5,-216 223.5,-216 229.5,-222 229.5,-228 229.5,-228 229.5,-240 229.5,-240 229.5,-246 223.5,-252 217.5,-252"/>
<text text-anchor="middle" x="192.5" y="-231.5" font-family="sans" font-size="10.00" fill="#000000">plotMarkers</text>
</g>
<!-- 12&#45;&gt;22 -->
<g id="edge33" class="edge">
<title>12&#45;&gt;22</title>
<path fill="none" stroke="#c0c0c0" stroke-width="2" d="M192.5,-287.8314C192.5,-280.131 192.5,-270.9743 192.5,-262.4166"/>
<polygon fill="#c0c0c0" stroke="#c0c0c0" stroke-width="2" points="196.0001,-262.4132 192.5,-252.4133 189.0001,-262.4133 196.0001,-262.4132"/>
</g>
<!-- 13 -->
<g id="node14" class="node">
<title>13</title>
<path fill="none" stroke="#d86e56" stroke-width="2" d="M204,-396C204,-396 163,-396 163,-396 157,-396 151,-390 151,-384 151,-384 151,-372 151,-372 151,-366 157,-360 163,-360 163,-360 204,-360 204,-360 210,-360 216,-366 216,-372 216,-372 216,-384 216,-384 216,-390 210,-396 204,-396"/>
<text text-anchor="middle" x="183.5" y="-375.5" font-family="sans" font-size="10.00" fill="#000000">merge_sn</text>
</g>
<!-- 13&#45;&gt;12 -->
<g id="edge21" class="edge">
<title>13&#45;&gt;12</title>
<path fill="none" stroke="#c0c0c0" stroke-width="2" d="M185.7711,-359.8314C186.7336,-352.131 187.8782,-342.9743 188.9479,-334.4166"/>
<polygon fill="#c0c0c0" stroke="#c0c0c0" stroke-width="2" points="192.4309,-334.7702 190.1983,-324.4133 185.4849,-333.9019 192.4309,-334.7702"/>
</g>
<!-- 14 -->
<g id="node15" class="node">
<title>14</title>
<path fill="none" stroke="#56d8a9" stroke-width="2" d="M215.5,-468C215.5,-468 135.5,-468 135.5,-468 129.5,-468 123.5,-462 123.5,-456 123.5,-456 123.5,-444 123.5,-444 123.5,-438 129.5,-432 135.5,-432 135.5,-432 215.5,-432 215.5,-432 221.5,-432 227.5,-438 227.5,-444 227.5,-444 227.5,-456 227.5,-456 227.5,-462 221.5,-468 215.5,-468"/>
<text text-anchor="middle" x="175.5" y="-447.5" font-family="sans" font-size="10.00" fill="#000000">ambient_doublets</text>
</g>
<!-- 14&#45;&gt;13 -->
<g id="edge23" class="edge">
<title>14&#45;&gt;13</title>
<path fill="none" stroke="#c0c0c0" stroke-width="2" d="M177.5187,-431.8314C178.3743,-424.131 179.3917,-414.9743 180.3426,-406.4166"/>
<polygon fill="#c0c0c0" stroke="#c0c0c0" stroke-width="2" points="183.8283,-406.7386 181.4541,-396.4133 176.8711,-405.9656 183.8283,-406.7386"/>
</g>
<!-- 15 -->
<g id="node16" class="node">
<title>15</title>
<path fill="none" stroke="#56d8d8" stroke-width="2" d="M161.5,-540C161.5,-540 131.5,-540 131.5,-540 125.5,-540 119.5,-534 119.5,-528 119.5,-528 119.5,-516 119.5,-516 119.5,-510 125.5,-504 131.5,-504 131.5,-504 161.5,-504 161.5,-504 167.5,-504 173.5,-510 173.5,-516 173.5,-516 173.5,-528 173.5,-528 173.5,-534 167.5,-540 161.5,-540"/>
<text text-anchor="middle" x="146.5" y="-519.5" font-family="sans" font-size="10.00" fill="#000000">load_sn</text>
</g>
<!-- 15&#45;&gt;0 -->
<g id="edge1" class="edge">
<title>15&#45;&gt;0</title>
<path fill="none" stroke="#c0c0c0" stroke-width="2" d="M134.1318,-503.8166C117.3677,-477.3548 89.5,-426.1283 89.5,-378 89.5,-378 89.5,-378 89.5,-162 89.5,-112.0854 131.5434,-68.3996 163.1658,-42.6011"/>
<polygon fill="#c0c0c0" stroke="#c0c0c0" stroke-width="2" points="165.685,-45.071 171.3562,-36.1217 161.342,-39.5811 165.685,-45.071"/>
</g>
<!-- 15&#45;&gt;14 -->
<g id="edge24" class="edge">
<title>15&#45;&gt;14</title>
<path fill="none" stroke="#c0c0c0" stroke-width="2" d="M153.8179,-503.8314C156.9876,-495.9617 160.77,-486.5712 164.2813,-477.8533"/>
<polygon fill="#c0c0c0" stroke="#c0c0c0" stroke-width="2" points="167.5939,-478.9968 168.0835,-468.4133 161.1008,-476.3815 167.5939,-478.9968"/>
</g>
<!-- 16 -->
<g id="node17" class="node">
<title>16</title>
<path fill="none" stroke="#566bd8" stroke-width="2" d="M307,-396C307,-396 262,-396 262,-396 256,-396 250,-390 250,-384 250,-384 250,-372 250,-372 250,-366 256,-360 262,-360 262,-360 307,-360 307,-360 313,-360 319,-366 319,-372 319,-372 319,-384 319,-384 319,-390 313,-396 307,-396"/>
<text text-anchor="middle" x="284.5" y="-375.5" font-family="sans" font-size="10.00" fill="#000000">clean_bulk</text>
</g>
<!-- 16&#45;&gt;11 -->
<g id="edge20" class="edge">
<title>16&#45;&gt;11</title>
<path fill="none" stroke="#c0c0c0" stroke-width="2" d="M284.7533,-359.7623C285.0944,-335.201 285.7049,-291.2474 286.1062,-262.3541"/>
<polygon fill="#c0c0c0" stroke="#c0c0c0" stroke-width="2" points="289.6094,-262.1373 286.2488,-252.0896 282.6101,-262.04 289.6094,-262.1373"/>
</g>
<!-- 16&#45;&gt;12 -->
<g id="edge22" class="edge">
<title>16&#45;&gt;12</title>
<path fill="none" stroke="#c0c0c0" stroke-width="2" d="M261.2845,-359.8314C249.953,-350.9632 236.1536,-340.1637 223.8973,-330.5718"/>
<polygon fill="#c0c0c0" stroke="#c0c0c0" stroke-width="2" points="225.7402,-327.5697 215.7081,-324.1628 221.426,-333.0822 225.7402,-327.5697"/>
</g>
<!-- 16&#45;&gt;21 -->
<g id="edge32" class="edge">
<title>16&#45;&gt;21</title>
<path fill="none" stroke="#c0c0c0" stroke-width="2" d="M293.5223,-359.9555C312.4619,-322.0762 356.4591,-234.0818 378.863,-189.274"/>
<polygon fill="#c0c0c0" stroke="#c0c0c0" stroke-width="2" points="382.0858,-190.6546 383.4275,-180.1451 375.8248,-187.5241 382.0858,-190.6546"/>
</g>
<!-- 17 -->
<g id="node18" class="node">
<title>17</title>
<path fill="none" stroke="#d89556" stroke-width="2" d="M306.5,-468C306.5,-468 260.5,-468 260.5,-468 254.5,-468 248.5,-462 248.5,-456 248.5,-456 248.5,-444 248.5,-444 248.5,-438 254.5,-432 260.5,-432 260.5,-432 306.5,-432 306.5,-432 312.5,-432 318.5,-438 318.5,-444 318.5,-444 318.5,-456 318.5,-456 318.5,-462 312.5,-468 306.5,-468"/>
<text text-anchor="middle" x="283.5" y="-447.5" font-family="sans" font-size="10.00" fill="#000000">ensb2gene</text>
</g>
<!-- 17&#45;&gt;16 -->
<g id="edge25" class="edge">
<title>17&#45;&gt;16</title>
<path fill="none" stroke="#c0c0c0" stroke-width="2" d="M283.7523,-431.8314C283.8593,-424.131 283.9865,-414.9743 284.1053,-406.4166"/>
<polygon fill="#c0c0c0" stroke="#c0c0c0" stroke-width="2" points="287.6049,-406.4609 284.2443,-396.4133 280.6056,-406.3637 287.6049,-406.4609"/>
</g>
<!-- 18&#45;&gt;17 -->
<g id="edge26" class="edge">
<title>18&#45;&gt;17</title>
<path fill="none" stroke="#c0c0c0" stroke-width="2" d="M237.1452,-503.8314C244.3591,-495.454 253.057,-485.3531 260.9605,-476.1749"/>
<polygon fill="#c0c0c0" stroke="#c0c0c0" stroke-width="2" points="263.7711,-478.2748 267.6441,-468.4133 258.4667,-473.7071 263.7711,-478.2748"/>
</g>
<!-- 19&#45;&gt;0 -->
<g id="edge6" class="edge">
<title>19&#45;&gt;0</title>
<path fill="none" stroke="#c0c0c0" stroke-width="2" d="M288.724,-143.6942C290.1414,-124.4473 289.6954,-93.967 276.5,-72 266.6314,-55.5712 249.615,-42.9835 233.8967,-34.1112"/>
<polygon fill="#c0c0c0" stroke="#c0c0c0" stroke-width="2" points="235.3301,-30.9097 224.8558,-29.3157 232.0499,-37.0936 235.3301,-30.9097"/>
</g>
<!-- 20 -->
<g id="node21" class="node">
<title>20</title>
<path fill="none" stroke="#56c1d8" stroke-width="2" d="M445.5,-108C445.5,-108 415.5,-108 415.5,-108 409.5,-108 403.5,-102 403.5,-96 403.5,-96 403.5,-84 403.5,-84 403.5,-78 409.5,-72 415.5,-72 415.5,-72 445.5,-72 445.5,-72 451.5,-72 457.5,-78 457.5,-84 457.5,-84 457.5,-96 457.5,-96 457.5,-102 451.5,-108 445.5,-108"/>
<text text-anchor="middle" x="430.5" y="-87.5" font-family="sans" font-size="10.00" fill="#000000">plot_de</text>
</g>
<!-- 20&#45;&gt;0 -->
<g id="edge3" class="edge">
<title>20&#45;&gt;0</title>
<path fill="none" stroke="#c0c0c0" stroke-width="2" d="M403.2324,-75.6739C400.3192,-74.3523 397.3714,-73.0992 394.5,-72 340.2684,-51.24 274.8147,-34.9445 234.6828,-25.8958"/>
<polygon fill="#c0c0c0" stroke="#c0c0c0" stroke-width="2" points="235.3235,-22.4528 224.8022,-23.6993 233.8044,-29.286 235.3235,-22.4528"/>
</g>
<!-- 21&#45;&gt;20 -->
<g id="edge30" class="edge">
<title>21&#45;&gt;20</title>
<path fill="none" stroke="#c0c0c0" stroke-width="2" d="M402.089,-143.8314C406.3317,-135.7925 411.4121,-126.1666 416.096,-117.2918"/>
<polygon fill="#c0c0c0" stroke="#c0c0c0" stroke-width="2" points="419.2096,-118.8908 420.7819,-108.4133 413.0189,-115.6235 419.2096,-118.8908"/>
</g>
<!-- 23 -->
<g id="node24" class="node">
<title>23</title>
<path fill="none" stroke="#56d882" stroke-width="2" d="M373.5,-108C373.5,-108 335.5,-108 335.5,-108 329.5,-108 323.5,-102 323.5,-96 323.5,-96 323.5,-84 323.5,-84 323.5,-78 329.5,-72 335.5,-72 335.5,-72 373.5,-72 373.5,-72 379.5,-72 385.5,-78 385.5,-84 385.5,-84 385.5,-96 385.5,-96 385.5,-102 379.5,-108 373.5,-108"/>
<text text-anchor="middle" x="354.5" y="-87.5" font-family="sans" font-size="10.00" fill="#000000">gene_ont</text>
</g>
<!-- 21&#45;&gt;23 -->
<g id="edge34" class="edge">
<title>21&#45;&gt;23</title>
<path fill="none" stroke="#c0c0c0" stroke-width="2" d="M382.911,-143.8314C378.6683,-135.7925 373.5879,-126.1666 368.904,-117.2918"/>
<polygon fill="#c0c0c0" stroke="#c0c0c0" stroke-width="2" points="371.9811,-115.6235 364.2181,-108.4133 365.7904,-118.8908 371.9811,-115.6235"/>
</g>
<!-- 22&#45;&gt;0 -->
<g id="edge7" class="edge">
<title>22&#45;&gt;0</title>
<path fill="none" stroke="#c0c0c0" stroke-width="2" d="M189.9345,-215.9614C186.0707,-185.9828 179.7865,-124.0487 185.5,-72 186.4284,-63.5425 188.1514,-54.4715 190.0078,-46.2246"/>
<polygon fill="#c0c0c0" stroke="#c0c0c0" stroke-width="2" points="193.4527,-46.8678 192.3809,-36.3273 186.6456,-45.2356 193.4527,-46.8678"/>
</g>
<!-- 23&#45;&gt;0 -->
<g id="edge2" class="edge">
<title>23&#45;&gt;0</title>
<path fill="none" stroke="#c0c0c0" stroke-width="2" d="M323.4819,-75.7751C297.6615,-63.9339 260.8629,-47.0581 233.6994,-34.601"/>
<polygon fill="#c0c0c0" stroke="#c0c0c0" stroke-width="2" points="235.0757,-31.3817 224.5269,-30.3945 232.1577,-37.7445 235.0757,-31.3817"/>
</g>
</g>
</svg>
