<?xml version="1.0" encoding="UTF-8" standalone="no"?>
<!DOCTYPE svg PUBLIC "-//W3C//DTD SVG 1.1//EN"
 "http://www.w3.org/Graphics/SVG/1.1/DTD/svg11.dtd">
<!-- Generated by graphviz version 2.40.1 (0)
 -->
<!-- Title: snakemake_dag Pages: 1 -->
<svg width="390pt" height="764pt"
 viewBox="0.00 0.00 390.00 764.00" xmlns="http://www.w3.org/2000/svg" xmlns:xlink="http://www.w3.org/1999/xlink">
<g id="graph0" class="graph" transform="scale(1 1) rotate(0) translate(4 760)">
<title>snakemake_dag</title>
<polygon fill="#ffffff" stroke="transparent" points="-4,4 -4,-760 386,-760 386,4 -4,4"/>
<!-- 0 -->
<g id="node1" class="node">
<title>0</title>
<path fill="none" stroke="#d85656" stroke-width="2" d="M68,-612C68,-612 36,-612 36,-612 30,-612 24,-606 24,-600 24,-600 24,-588 24,-588 24,-582 30,-576 36,-576 36,-576 68,-576 68,-576 74,-576 80,-582 80,-588 80,-588 80,-600 80,-600 80,-606 74,-612 68,-612"/>
<text text-anchor="middle" x="52" y="-591.5" font-family="sans" font-size="10.00" fill="#000000">load_gtf</text>
</g>
<!-- 1 -->
<g id="node2" class="node">
<title>1</title>
<path fill="none" stroke="#56d8a2" stroke-width="2" d="M229,-36C229,-36 199,-36 199,-36 193,-36 187,-30 187,-24 187,-24 187,-12 187,-12 187,-6 193,0 199,0 199,0 229,0 229,0 235,0 241,-6 241,-12 241,-12 241,-24 241,-24 241,-30 235,-36 229,-36"/>
<text text-anchor="middle" x="214" y="-15.5" font-family="sans" font-size="10.00" fill="#000000">all</text>
</g>
<!-- 0&#45;&gt;1 -->
<g id="edge1" class="edge">
<title>0&#45;&gt;1</title>
<path fill="none" stroke="#c0c0c0" stroke-width="2" d="M40.7168,-575.6673C25.4232,-549.0239 0,-497.5783 0,-450 0,-450 0,-450 0,-162 0,-116.0242 15.4705,-101.1794 51,-72 87.484,-42.0367 141.2073,-28.4799 176.8786,-22.4975"/>
<polygon fill="#c0c0c0" stroke="#c0c0c0" stroke-width="2" points="177.5388,-25.9369 186.8805,-20.9388 176.4608,-19.0204 177.5388,-25.9369"/>
</g>
<!-- 12 -->
<g id="node13" class="node">
<title>12</title>
<path fill="none" stroke="#56d88a" stroke-width="2" d="M171.5,-540C171.5,-540 136.5,-540 136.5,-540 130.5,-540 124.5,-534 124.5,-528 124.5,-528 124.5,-516 124.5,-516 124.5,-510 130.5,-504 136.5,-504 136.5,-504 171.5,-504 171.5,-504 177.5,-504 183.5,-510 183.5,-516 183.5,-516 183.5,-528 183.5,-528 183.5,-534 177.5,-540 171.5,-540"/>
<text text-anchor="middle" x="154" y="-519.5" font-family="sans" font-size="10.00" fill="#000000">tximport</text>
</g>
<!-- 0&#45;&gt;12 -->
<g id="edge17" class="edge">
<title>0&#45;&gt;12</title>
<path fill="none" stroke="#c0c0c0" stroke-width="2" d="M77.7389,-575.8314C90.5437,-566.7927 106.1909,-555.7476 119.9719,-546.0198"/>
<polygon fill="#c0c0c0" stroke="#c0c0c0" stroke-width="2" points="122.118,-548.7891 128.2693,-540.1628 118.0812,-543.0703 122.118,-548.7891"/>
</g>
<!-- 2 -->
<g id="node3" class="node">
<title>2</title>
<path fill="none" stroke="#d88d56" stroke-width="2" d="M200,-612C200,-612 138,-612 138,-612 132,-612 126,-606 126,-600 126,-600 126,-588 126,-588 126,-582 132,-576 138,-576 138,-576 200,-576 200,-576 206,-576 212,-582 212,-588 212,-588 212,-600 212,-600 212,-606 206,-612 200,-612"/>
<text text-anchor="middle" x="169" y="-591.5" font-family="sans" font-size="10.00" fill="#000000">salmon_quant</text>
</g>
<!-- 2&#45;&gt;12 -->
<g id="edge18" class="edge">
<title>2&#45;&gt;12</title>
<path fill="none" stroke="#c0c0c0" stroke-width="2" d="M165.2149,-575.8314C163.6106,-568.131 161.703,-558.9743 159.9201,-550.4166"/>
<polygon fill="#c0c0c0" stroke="#c0c0c0" stroke-width="2" points="163.3021,-549.4892 157.8361,-540.4133 156.4493,-550.9169 163.3021,-549.4892"/>
</g>
<!-- 14 -->
<g id="node15" class="node">
<title>14</title>
<path fill="none" stroke="#56d8d8" stroke-width="2" d="M331,-540C331,-540 301,-540 301,-540 295,-540 289,-534 289,-528 289,-528 289,-516 289,-516 289,-510 295,-504 301,-504 301,-504 331,-504 331,-504 337,-504 343,-510 343,-516 343,-516 343,-528 343,-528 343,-534 337,-540 331,-540"/>
<text text-anchor="middle" x="316" y="-519.5" font-family="sans" font-size="10.00" fill="#000000">multiqc</text>
</g>
<!-- 2&#45;&gt;14 -->
<g id="edge22" class="edge">
<title>2&#45;&gt;14</title>
<path fill="none" stroke="#c0c0c0" stroke-width="2" d="M206.3026,-575.9776C225.8441,-566.508 250.3678,-554.5805 279.6491,-540.1529"/>
<polygon fill="#c0c0c0" stroke="#c0c0c0" stroke-width="2" points="281.4691,-543.1578 288.8889,-535.595 278.3723,-536.8801 281.4691,-543.1578"/>
</g>
<!-- 3 -->
<g id="node4" class="node">
<title>3</title>
<path fill="none" stroke="#d8a456" stroke-width="2" d="M272.5,-396C272.5,-396 231.5,-396 231.5,-396 225.5,-396 219.5,-390 219.5,-384 219.5,-384 219.5,-372 219.5,-372 219.5,-366 225.5,-360 231.5,-360 231.5,-360 272.5,-360 272.5,-360 278.5,-360 284.5,-366 284.5,-372 284.5,-372 284.5,-384 284.5,-384 284.5,-390 278.5,-396 272.5,-396"/>
<text text-anchor="middle" x="252" y="-375.5" font-family="sans" font-size="10.00" fill="#000000">merge_sn</text>
</g>
<!-- 15 -->
<g id="node16" class="node">
<title>15</title>
<path fill="none" stroke="#56c1d8" stroke-width="2" d="M277,-324C277,-324 227,-324 227,-324 221,-324 215,-318 215,-312 215,-312 215,-300 215,-300 215,-294 221,-288 227,-288 227,-288 277,-288 277,-288 283,-288 289,-294 289,-300 289,-300 289,-312 289,-312 289,-318 283,-324 277,-324"/>
<text text-anchor="middle" x="252" y="-303.5" font-family="sans" font-size="10.00" fill="#000000">findMarkers</text>
</g>
<!-- 3&#45;&gt;15 -->
<g id="edge24" class="edge">
<title>3&#45;&gt;15</title>
<path fill="none" stroke="#c0c0c0" stroke-width="2" d="M252,-359.8314C252,-352.131 252,-342.9743 252,-334.4166"/>
<polygon fill="#c0c0c0" stroke="#c0c0c0" stroke-width="2" points="255.5001,-334.4132 252,-324.4133 248.5001,-334.4133 255.5001,-334.4132"/>
</g>
<!-- 4 -->
<g id="node5" class="node">
<title>4</title>
<path fill="none" stroke="#56d8c1" stroke-width="2" d="M259,-540C259,-540 229,-540 229,-540 223,-540 217,-534 217,-528 217,-528 217,-516 217,-516 217,-510 223,-504 229,-504 229,-504 259,-504 259,-504 265,-504 271,-510 271,-516 271,-516 271,-528 271,-528 271,-534 265,-540 259,-540"/>
<text text-anchor="middle" x="244" y="-519.5" font-family="sans" font-size="10.00" fill="#000000">load_sn</text>
</g>
<!-- 5 -->
<g id="node6" class="node">
<title>5</title>
<path fill="none" stroke="#d6d856" stroke-width="2" d="M292,-468C292,-468 212,-468 212,-468 206,-468 200,-462 200,-456 200,-456 200,-444 200,-444 200,-438 206,-432 212,-432 212,-432 292,-432 292,-432 298,-432 304,-438 304,-444 304,-444 304,-456 304,-456 304,-462 298,-468 292,-468"/>
<text text-anchor="middle" x="252" y="-447.5" font-family="sans" font-size="10.00" fill="#000000">ambient_doublets</text>
</g>
<!-- 4&#45;&gt;5 -->
<g id="edge10" class="edge">
<title>4&#45;&gt;5</title>
<path fill="none" stroke="#c0c0c0" stroke-width="2" d="M246.0187,-503.8314C246.8743,-496.131 247.8917,-486.9743 248.8426,-478.4166"/>
<polygon fill="#c0c0c0" stroke="#c0c0c0" stroke-width="2" points="252.3283,-478.7386 249.9541,-468.4133 245.3711,-477.9656 252.3283,-478.7386"/>
</g>
<!-- 5&#45;&gt;3 -->
<g id="edge9" class="edge">
<title>5&#45;&gt;3</title>
<path fill="none" stroke="#c0c0c0" stroke-width="2" d="M252,-431.8314C252,-424.131 252,-414.9743 252,-406.4166"/>
<polygon fill="#c0c0c0" stroke="#c0c0c0" stroke-width="2" points="255.5001,-406.4132 252,-396.4133 248.5001,-406.4133 255.5001,-406.4132"/>
</g>
<!-- 6 -->
<g id="node7" class="node">
<title>6</title>
<path fill="none" stroke="#bed856" stroke-width="2" d="M144,-108C144,-108 114,-108 114,-108 108,-108 102,-102 102,-96 102,-96 102,-84 102,-84 102,-78 108,-72 114,-72 114,-72 144,-72 144,-72 150,-72 156,-78 156,-84 156,-84 156,-96 156,-96 156,-102 150,-108 144,-108"/>
<text text-anchor="middle" x="129" y="-87.5" font-family="sans" font-size="10.00" fill="#000000">plot_de</text>
</g>
<!-- 6&#45;&gt;1 -->
<g id="edge2" class="edge">
<title>6&#45;&gt;1</title>
<path fill="none" stroke="#c0c0c0" stroke-width="2" d="M150.4491,-71.8314C160.8178,-63.0485 173.4229,-52.3712 184.6646,-42.8489"/>
<polygon fill="#c0c0c0" stroke="#c0c0c0" stroke-width="2" points="187.1895,-45.297 192.5578,-36.1628 182.6651,-39.9556 187.1895,-45.297"/>
</g>
<!-- 7 -->
<g id="node8" class="node">
<title>7</title>
<path fill="none" stroke="#a7d856" stroke-width="2" d="M304,-180C304,-180 254,-180 254,-180 248,-180 242,-174 242,-168 242,-168 242,-156 242,-156 242,-150 248,-144 254,-144 254,-144 304,-144 304,-144 310,-144 316,-150 316,-156 316,-156 316,-168 316,-168 316,-174 310,-180 304,-180"/>
<text text-anchor="middle" x="279" y="-159.5" font-family="sans" font-size="10.00" fill="#000000">plotMarkers</text>
</g>
<!-- 7&#45;&gt;1 -->
<g id="edge3" class="edge">
<title>7&#45;&gt;1</title>
<path fill="none" stroke="#c0c0c0" stroke-width="2" d="M277.8117,-143.8991C275.9887,-125.0912 271.4112,-95.2177 260,-72 255.0601,-61.949 247.8253,-52.2248 240.5493,-43.8635"/>
<polygon fill="#c0c0c0" stroke="#c0c0c0" stroke-width="2" points="242.9645,-41.3181 233.6343,-36.2983 237.7977,-46.0409 242.9645,-41.3181"/>
</g>
<!-- 8 -->
<g id="node9" class="node">
<title>8</title>
<path fill="none" stroke="#88d856" stroke-width="2" d="M231.5,-252C231.5,-252 178.5,-252 178.5,-252 172.5,-252 166.5,-246 166.5,-240 166.5,-240 166.5,-228 166.5,-228 166.5,-222 172.5,-216 178.5,-216 178.5,-216 231.5,-216 231.5,-216 237.5,-216 243.5,-222 243.5,-228 243.5,-228 243.5,-240 243.5,-240 243.5,-246 237.5,-252 231.5,-252"/>
<text text-anchor="middle" x="205" y="-231.5" font-family="sans" font-size="10.00" fill="#000000">deconvolute</text>
</g>
<!-- 13 -->
<g id="node14" class="node">
<title>13</title>
<path fill="none" stroke="#d86e56" stroke-width="2" d="M173.5,-180C173.5,-180 78.5,-180 78.5,-180 72.5,-180 66.5,-174 66.5,-168 66.5,-168 66.5,-156 66.5,-156 66.5,-150 72.5,-144 78.5,-144 78.5,-144 173.5,-144 173.5,-144 179.5,-144 185.5,-150 185.5,-156 185.5,-156 185.5,-168 185.5,-168 185.5,-174 179.5,-180 173.5,-180"/>
<text text-anchor="middle" x="126" y="-159.5" font-family="sans" font-size="10.00" fill="#000000">diffential_expression</text>
</g>
<!-- 8&#45;&gt;13 -->
<g id="edge20" class="edge">
<title>8&#45;&gt;13</title>
<path fill="none" stroke="#c0c0c0" stroke-width="2" d="M185.065,-215.8314C175.5217,-207.1337 163.9401,-196.5783 153.5694,-187.1265"/>
<polygon fill="#c0c0c0" stroke="#c0c0c0" stroke-width="2" points="155.6772,-184.3121 145.9287,-180.1628 150.962,-189.4857 155.6772,-184.3121"/>
</g>
<!-- 16 -->
<g id="node17" class="node">
<title>16</title>
<path fill="none" stroke="#56a2d8" stroke-width="2" d="M238.5,-108C238.5,-108 189.5,-108 189.5,-108 183.5,-108 177.5,-102 177.5,-96 177.5,-96 177.5,-84 177.5,-84 177.5,-78 183.5,-72 189.5,-72 189.5,-72 238.5,-72 238.5,-72 244.5,-72 250.5,-78 250.5,-84 250.5,-84 250.5,-96 250.5,-96 250.5,-102 244.5,-108 238.5,-108"/>
<text text-anchor="middle" x="214" y="-87.5" font-family="sans" font-size="10.00" fill="#000000">plot_comps</text>
</g>
<!-- 8&#45;&gt;16 -->
<g id="edge26" class="edge">
<title>8&#45;&gt;16</title>
<path fill="none" stroke="#c0c0c0" stroke-width="2" d="M206.1399,-215.7623C207.6749,-191.201 210.422,-147.2474 212.2279,-118.3541"/>
<polygon fill="#c0c0c0" stroke="#c0c0c0" stroke-width="2" points="215.7387,-118.2885 212.8694,-108.0896 208.7523,-117.8518 215.7387,-118.2885"/>
</g>
<!-- 9 -->
<g id="node10" class="node">
<title>9</title>
<path fill="none" stroke="#70d856" stroke-width="2" d="M192,-756C192,-756 146,-756 146,-756 140,-756 134,-750 134,-744 134,-744 134,-732 134,-732 134,-726 140,-720 146,-720 146,-720 192,-720 192,-720 198,-720 204,-726 204,-732 204,-732 204,-744 204,-744 204,-750 198,-756 192,-756"/>
<text text-anchor="middle" x="169" y="-735.5" font-family="sans" font-size="10.00" fill="#000000">load_index</text>
</g>
<!-- 10 -->
<g id="node11" class="node">
<title>10</title>
<path fill="none" stroke="#59d856" stroke-width="2" d="M199.5,-684C199.5,-684 138.5,-684 138.5,-684 132.5,-684 126.5,-678 126.5,-672 126.5,-672 126.5,-660 126.5,-660 126.5,-654 132.5,-648 138.5,-648 138.5,-648 199.5,-648 199.5,-648 205.5,-648 211.5,-654 211.5,-660 211.5,-660 211.5,-672 211.5,-672 211.5,-678 205.5,-684 199.5,-684"/>
<text text-anchor="middle" x="169" y="-663.5" font-family="sans" font-size="10.00" fill="#000000">salmon_index</text>
</g>
<!-- 9&#45;&gt;10 -->
<g id="edge15" class="edge">
<title>9&#45;&gt;10</title>
<path fill="none" stroke="#c0c0c0" stroke-width="2" d="M169,-719.8314C169,-712.131 169,-702.9743 169,-694.4166"/>
<polygon fill="#c0c0c0" stroke="#c0c0c0" stroke-width="2" points="172.5001,-694.4132 169,-684.4133 165.5001,-694.4133 172.5001,-694.4132"/>
</g>
<!-- 10&#45;&gt;2 -->
<g id="edge8" class="edge">
<title>10&#45;&gt;2</title>
<path fill="none" stroke="#c0c0c0" stroke-width="2" d="M169,-647.8314C169,-640.131 169,-630.9743 169,-622.4166"/>
<polygon fill="#c0c0c0" stroke="#c0c0c0" stroke-width="2" points="172.5001,-622.4132 169,-612.4133 165.5001,-622.4133 172.5001,-622.4132"/>
</g>
<!-- 11 -->
<g id="node12" class="node">
<title>11</title>
<path fill="none" stroke="#56d873" stroke-width="2" d="M170,-468C170,-468 124,-468 124,-468 118,-468 112,-462 112,-456 112,-456 112,-444 112,-444 112,-438 118,-432 124,-432 124,-432 170,-432 170,-432 176,-432 182,-438 182,-444 182,-444 182,-456 182,-456 182,-462 176,-468 170,-468"/>
<text text-anchor="middle" x="147" y="-447.5" font-family="sans" font-size="10.00" fill="#000000">ensb2gene</text>
</g>
<!-- 17 -->
<g id="node18" class="node">
<title>17</title>
<path fill="none" stroke="#568ad8" stroke-width="2" d="M169.5,-396C169.5,-396 124.5,-396 124.5,-396 118.5,-396 112.5,-390 112.5,-384 112.5,-384 112.5,-372 112.5,-372 112.5,-366 118.5,-360 124.5,-360 124.5,-360 169.5,-360 169.5,-360 175.5,-360 181.5,-366 181.5,-372 181.5,-372 181.5,-384 181.5,-384 181.5,-390 175.5,-396 169.5,-396"/>
<text text-anchor="middle" x="147" y="-375.5" font-family="sans" font-size="10.00" fill="#000000">clean_bulk</text>
</g>
<!-- 11&#45;&gt;17 -->
<g id="edge27" class="edge">
<title>11&#45;&gt;17</title>
<path fill="none" stroke="#c0c0c0" stroke-width="2" d="M147,-431.8314C147,-424.131 147,-414.9743 147,-406.4166"/>
<polygon fill="#c0c0c0" stroke="#c0c0c0" stroke-width="2" points="150.5001,-406.4132 147,-396.4133 143.5001,-406.4133 150.5001,-406.4132"/>
</g>
<!-- 12&#45;&gt;11 -->
<g id="edge16" class="edge">
<title>12&#45;&gt;11</title>
<path fill="none" stroke="#c0c0c0" stroke-width="2" d="M152.2336,-503.8314C151.485,-496.131 150.5947,-486.9743 149.7627,-478.4166"/>
<polygon fill="#c0c0c0" stroke="#c0c0c0" stroke-width="2" points="153.2415,-478.0276 148.7902,-468.4133 146.2744,-478.7051 153.2415,-478.0276"/>
</g>
<!-- 13&#45;&gt;6 -->
<g id="edge11" class="edge">
<title>13&#45;&gt;6</title>
<path fill="none" stroke="#c0c0c0" stroke-width="2" d="M126.757,-143.8314C127.0779,-136.131 127.4594,-126.9743 127.816,-118.4166"/>
<polygon fill="#c0c0c0" stroke="#c0c0c0" stroke-width="2" points="131.3133,-118.5503 128.2328,-108.4133 124.3194,-118.2589 131.3133,-118.5503"/>
</g>
<!-- 14&#45;&gt;1 -->
<g id="edge4" class="edge">
<title>14&#45;&gt;1</title>
<path fill="none" stroke="#c0c0c0" stroke-width="2" d="M330.6475,-503.6749C350.0917,-477.4479 382,-426.9514 382,-378 382,-378 382,-378 382,-162 382,-93.3936 300.2361,-50.4278 250.7904,-30.7173"/>
<polygon fill="#c0c0c0" stroke="#c0c0c0" stroke-width="2" points="251.9557,-27.4155 241.366,-27.0846 249.438,-33.9471 251.9557,-27.4155"/>
</g>
<!-- 15&#45;&gt;1 -->
<g id="edge5" class="edge">
<title>15&#45;&gt;1</title>
<path fill="none" stroke="#c0c0c0" stroke-width="2" d="M269.7885,-287.7126C296.0902,-258.3805 340.6481,-198.5618 325,-144 312.7842,-101.4061 275.9445,-64.9735 248.0273,-42.4011"/>
<polygon fill="#c0c0c0" stroke="#c0c0c0" stroke-width="2" points="250.077,-39.5603 240.0531,-36.1292 245.7494,-45.0624 250.077,-39.5603"/>
</g>
<!-- 15&#45;&gt;7 -->
<g id="edge12" class="edge">
<title>15&#45;&gt;7</title>
<path fill="none" stroke="#c0c0c0" stroke-width="2" d="M255.4196,-287.7623C260.0451,-263.0928 268.3388,-218.8598 273.755,-189.9731"/>
<polygon fill="#c0c0c0" stroke="#c0c0c0" stroke-width="2" points="277.2053,-190.5634 275.6082,-180.0896 270.3252,-189.2733 277.2053,-190.5634"/>
</g>
<!-- 15&#45;&gt;8 -->
<g id="edge13" class="edge">
<title>15&#45;&gt;8</title>
<path fill="none" stroke="#c0c0c0" stroke-width="2" d="M240.1399,-287.8314C234.8371,-279.7079 228.4763,-269.9637 222.6327,-261.0118"/>
<polygon fill="#c0c0c0" stroke="#c0c0c0" stroke-width="2" points="225.4169,-258.8739 217.0198,-252.4133 219.5552,-262.7003 225.4169,-258.8739"/>
</g>
<!-- 16&#45;&gt;1 -->
<g id="edge6" class="edge">
<title>16&#45;&gt;1</title>
<path fill="none" stroke="#c0c0c0" stroke-width="2" d="M214,-71.8314C214,-64.131 214,-54.9743 214,-46.4166"/>
<polygon fill="#c0c0c0" stroke="#c0c0c0" stroke-width="2" points="217.5001,-46.4132 214,-36.4133 210.5001,-46.4133 217.5001,-46.4132"/>
</g>
<!-- 17&#45;&gt;1 -->
<g id="edge7" class="edge">
<title>17&#45;&gt;1</title>
<path fill="none" stroke="#c0c0c0" stroke-width="2" d="M120.6141,-359.9342C88.3553,-335.4749 38,-288.5568 38,-234 38,-234 38,-234 38,-162 38,-115.1222 57.788,-102.9458 93,-72 117.2545,-50.6841 151.2889,-36.5089 177.0864,-28.0523"/>
<polygon fill="#c0c0c0" stroke="#c0c0c0" stroke-width="2" points="178.3858,-31.313 186.8822,-24.9835 176.2931,-24.6331 178.3858,-31.313"/>
</g>
<!-- 17&#45;&gt;8 -->
<g id="edge14" class="edge">
<title>17&#45;&gt;8</title>
<path fill="none" stroke="#c0c0c0" stroke-width="2" d="M154.3457,-359.7623C164.3256,-334.9846 182.2546,-290.4714 193.8858,-261.5939"/>
<polygon fill="#c0c0c0" stroke="#c0c0c0" stroke-width="2" points="197.2243,-262.6731 197.7139,-252.0896 190.7312,-260.0578 197.2243,-262.6731"/>
</g>
<!-- 17&#45;&gt;13 -->
<g id="edge21" class="edge">
<title>17&#45;&gt;13</title>
<path fill="none" stroke="#c0c0c0" stroke-width="2" d="M145.2457,-359.9555C141.5861,-322.3144 133.1154,-235.1867 128.7343,-190.1246"/>
<polygon fill="#c0c0c0" stroke="#c0c0c0" stroke-width="2" points="132.2154,-189.7594 127.7641,-180.1451 125.2483,-190.4369 132.2154,-189.7594"/>
</g>
<!-- 17&#45;&gt;15 -->
<g id="edge25" class="edge">
<title>17&#45;&gt;15</title>
<path fill="none" stroke="#c0c0c0" stroke-width="2" d="M173.4959,-359.8314C186.6774,-350.7927 202.7847,-339.7476 216.9711,-330.0198"/>
<polygon fill="#c0c0c0" stroke="#c0c0c0" stroke-width="2" points="219.2446,-332.7047 225.5125,-324.1628 215.2859,-326.9316 219.2446,-332.7047"/>
</g>
<!-- 18 -->
<g id="node19" class="node">
<title>18</title>
<path fill="none" stroke="#5673d8" stroke-width="2" d="M301,-612C301,-612 271,-612 271,-612 265,-612 259,-606 259,-600 259,-600 259,-588 259,-588 259,-582 265,-576 271,-576 271,-576 301,-576 301,-576 307,-576 313,-582 313,-588 313,-588 313,-600 313,-600 313,-606 307,-612 301,-612"/>
<text text-anchor="middle" x="286" y="-591.5" font-family="sans" font-size="10.00" fill="#000000">fastqc</text>
</g>
<!-- 18&#45;&gt;12 -->
<g id="edge19" class="edge">
<title>18&#45;&gt;12</title>
<path fill="none" stroke="#c0c0c0" stroke-width="2" d="M258.9693,-579.256C239.8298,-568.8163 213.8786,-554.661 192.5685,-543.0374"/>
<polygon fill="#c0c0c0" stroke="#c0c0c0" stroke-width="2" points="194.2082,-539.945 183.7532,-538.229 190.8562,-546.0902 194.2082,-539.945"/>
</g>
<!-- 18&#45;&gt;14 -->
<g id="edge23" class="edge">
<title>18&#45;&gt;14</title>
<path fill="none" stroke="#c0c0c0" stroke-width="2" d="M293.5703,-575.8314C296.8493,-567.9617 300.762,-558.5712 304.3945,-549.8533"/>
<polygon fill="#c0c0c0" stroke="#c0c0c0" stroke-width="2" points="307.7124,-550.9902 308.3278,-540.4133 301.2508,-548.2979 307.7124,-550.9902"/>
</g>
</g>
</svg>
