<?xml version="1.0" encoding="UTF-8" standalone="no"?>
<!DOCTYPE svg PUBLIC "-//W3C//DTD SVG 1.1//EN"
 "http://www.w3.org/Graphics/SVG/1.1/DTD/svg11.dtd">
<!-- Generated by graphviz version 2.40.1 (0)
 -->
<!-- Title: snakemake_dag Pages: 1 -->
<svg width="489pt" height="548pt"
 viewBox="0.00 0.00 489.00 548.00" xmlns="http://www.w3.org/2000/svg" xmlns:xlink="http://www.w3.org/1999/xlink">
<g id="graph0" class="graph" transform="scale(1 1) rotate(0) translate(4 544)">
<title>snakemake_dag</title>
<polygon fill="#ffffff" stroke="transparent" points="-4,4 -4,-544 485,-544 485,4 -4,4"/>
<!-- 0 -->
<g id="node1" class="node">
<title>0</title>
<path fill="none" stroke="#d85656" stroke-width="2" d="M209.5,-252C209.5,-252 156.5,-252 156.5,-252 150.5,-252 144.5,-246 144.5,-240 144.5,-240 144.5,-228 144.5,-228 144.5,-222 150.5,-216 156.5,-216 156.5,-216 209.5,-216 209.5,-216 215.5,-216 221.5,-222 221.5,-228 221.5,-228 221.5,-240 221.5,-240 221.5,-246 215.5,-252 209.5,-252"/>
<text text-anchor="middle" x="183" y="-231.5" font-family="sans" font-size="10.00" fill="#000000">deconvolute</text>
</g>
<!-- 5 -->
<g id="node6" class="node">
<title>5</title>
<path fill="none" stroke="#9fd856" stroke-width="2" d="M142.5,-180C142.5,-180 47.5,-180 47.5,-180 41.5,-180 35.5,-174 35.5,-168 35.5,-168 35.5,-156 35.5,-156 35.5,-150 41.5,-144 47.5,-144 47.5,-144 142.5,-144 142.5,-144 148.5,-144 154.5,-150 154.5,-156 154.5,-156 154.5,-168 154.5,-168 154.5,-174 148.5,-180 142.5,-180"/>
<text text-anchor="middle" x="95" y="-159.5" font-family="sans" font-size="10.00" fill="#000000">diffential_expression</text>
</g>
<!-- 0&#45;&gt;5 -->
<g id="edge5" class="edge">
<title>0&#45;&gt;5</title>
<path fill="none" stroke="#c0c0c0" stroke-width="2" d="M160.7939,-215.8314C149.955,-206.9632 136.7556,-196.1637 125.0322,-186.5718"/>
<polygon fill="#c0c0c0" stroke="#c0c0c0" stroke-width="2" points="127.155,-183.7864 117.199,-180.1628 122.7223,-189.2041 127.155,-183.7864"/>
</g>
<!-- 8 -->
<g id="node9" class="node">
<title>8</title>
<path fill="none" stroke="#56d8a2" stroke-width="2" d="M207.5,-108C207.5,-108 158.5,-108 158.5,-108 152.5,-108 146.5,-102 146.5,-96 146.5,-96 146.5,-84 146.5,-84 146.5,-78 152.5,-72 158.5,-72 158.5,-72 207.5,-72 207.5,-72 213.5,-72 219.5,-78 219.5,-84 219.5,-84 219.5,-96 219.5,-96 219.5,-102 213.5,-108 207.5,-108"/>
<text text-anchor="middle" x="183" y="-87.5" font-family="sans" font-size="10.00" fill="#000000">plot_comps</text>
</g>
<!-- 0&#45;&gt;8 -->
<g id="edge9" class="edge">
<title>0&#45;&gt;8</title>
<path fill="none" stroke="#c0c0c0" stroke-width="2" d="M183,-215.7623C183,-191.201 183,-147.2474 183,-118.3541"/>
<polygon fill="#c0c0c0" stroke="#c0c0c0" stroke-width="2" points="186.5001,-118.0896 183,-108.0896 179.5001,-118.0897 186.5001,-118.0896"/>
</g>
<!-- 15 -->
<g id="node16" class="node">
<title>15</title>
<path fill="none" stroke="#5692d8" stroke-width="2" d="M255,-180C255,-180 223,-180 223,-180 217,-180 211,-174 211,-168 211,-168 211,-156 211,-156 211,-150 217,-144 223,-144 223,-144 255,-144 255,-144 261,-144 267,-150 267,-156 267,-156 267,-168 267,-168 267,-174 261,-180 255,-180"/>
<text text-anchor="middle" x="239" y="-159.5" font-family="sans" font-size="10.00" fill="#000000">dirichlet</text>
</g>
<!-- 0&#45;&gt;15 -->
<g id="edge20" class="edge">
<title>0&#45;&gt;15</title>
<path fill="none" stroke="#c0c0c0" stroke-width="2" d="M197.1312,-215.8314C203.5811,-207.5386 211.3445,-197.557 218.4252,-188.4533"/>
<polygon fill="#c0c0c0" stroke="#c0c0c0" stroke-width="2" points="221.3019,-190.4556 224.6786,-180.4133 215.7764,-186.158 221.3019,-190.4556"/>
</g>
<!-- 1 -->
<g id="node2" class="node">
<title>1</title>
<path fill="none" stroke="#d8b456" stroke-width="2" d="M159.5,-396C159.5,-396 114.5,-396 114.5,-396 108.5,-396 102.5,-390 102.5,-384 102.5,-384 102.5,-372 102.5,-372 102.5,-366 108.5,-360 114.5,-360 114.5,-360 159.5,-360 159.5,-360 165.5,-360 171.5,-366 171.5,-372 171.5,-372 171.5,-384 171.5,-384 171.5,-390 165.5,-396 159.5,-396"/>
<text text-anchor="middle" x="137" y="-375.5" font-family="sans" font-size="10.00" fill="#000000">clean_bulk</text>
</g>
<!-- 1&#45;&gt;0 -->
<g id="edge1" class="edge">
<title>1&#45;&gt;0</title>
<path fill="none" stroke="#c0c0c0" stroke-width="2" d="M139.4591,-359.7005C142.2624,-341.2489 147.5791,-312.1235 156,-288 159.1122,-279.0844 163.378,-269.7559 167.5998,-261.4095"/>
<polygon fill="#c0c0c0" stroke="#c0c0c0" stroke-width="2" points="170.7391,-262.9594 172.284,-252.4778 164.5399,-259.7083 170.7391,-262.9594"/>
</g>
<!-- 1&#45;&gt;5 -->
<g id="edge6" class="edge">
<title>1&#45;&gt;5</title>
<path fill="none" stroke="#c0c0c0" stroke-width="2" d="M133.4913,-359.9555C126.1722,-322.3144 109.2307,-235.1867 100.4687,-190.1246"/>
<polygon fill="#c0c0c0" stroke="#c0c0c0" stroke-width="2" points="103.8726,-189.2932 98.5282,-180.1451 97.0013,-190.6293 103.8726,-189.2932"/>
</g>
<!-- 9 -->
<g id="node10" class="node">
<title>9</title>
<path fill="none" stroke="#56d8c1" stroke-width="2" d="M227,-324C227,-324 177,-324 177,-324 171,-324 165,-318 165,-312 165,-312 165,-300 165,-300 165,-294 171,-288 177,-288 177,-288 227,-288 227,-288 233,-288 239,-294 239,-300 239,-300 239,-312 239,-312 239,-318 233,-324 227,-324"/>
<text text-anchor="middle" x="202" y="-303.5" font-family="sans" font-size="10.00" fill="#000000">findMarkers</text>
</g>
<!-- 1&#45;&gt;9 -->
<g id="edge10" class="edge">
<title>1&#45;&gt;9</title>
<path fill="none" stroke="#c0c0c0" stroke-width="2" d="M153.4022,-359.8314C161.0415,-351.3694 170.2683,-341.1489 178.6207,-331.8971"/>
<polygon fill="#c0c0c0" stroke="#c0c0c0" stroke-width="2" points="181.2738,-334.1813 185.3769,-324.4133 176.0779,-329.4906 181.2738,-334.1813"/>
</g>
<!-- 2 -->
<g id="node3" class="node">
<title>2</title>
<path fill="none" stroke="#d89556" stroke-width="2" d="M397,-180C397,-180 335,-180 335,-180 329,-180 323,-174 323,-168 323,-168 323,-156 323,-156 323,-150 329,-144 335,-144 335,-144 397,-144 397,-144 403,-144 409,-150 409,-156 409,-156 409,-168 409,-168 409,-174 403,-180 397,-180"/>
<text text-anchor="middle" x="366" y="-159.5" font-family="sans" font-size="10.00" fill="#000000">salmon_quant</text>
</g>
<!-- 6 -->
<g id="node7" class="node">
<title>6</title>
<path fill="none" stroke="#88d856" stroke-width="2" d="M381,-108C381,-108 351,-108 351,-108 345,-108 339,-102 339,-96 339,-96 339,-84 339,-84 339,-78 345,-72 351,-72 351,-72 381,-72 381,-72 387,-72 393,-78 393,-84 393,-84 393,-96 393,-96 393,-102 387,-108 381,-108"/>
<text text-anchor="middle" x="366" y="-87.5" font-family="sans" font-size="10.00" fill="#000000">multiqc</text>
</g>
<!-- 2&#45;&gt;6 -->
<g id="edge8" class="edge">
<title>2&#45;&gt;6</title>
<path fill="none" stroke="#c0c0c0" stroke-width="2" d="M366,-143.8314C366,-136.131 366,-126.9743 366,-118.4166"/>
<polygon fill="#c0c0c0" stroke="#c0c0c0" stroke-width="2" points="369.5001,-118.4132 366,-108.4133 362.5001,-118.4133 369.5001,-118.4132"/>
</g>
<!-- 3 -->
<g id="node4" class="node">
<title>3</title>
<path fill="none" stroke="#d8d356" stroke-width="2" d="M44,-108C44,-108 12,-108 12,-108 6,-108 0,-102 0,-96 0,-96 0,-84 0,-84 0,-78 6,-72 12,-72 12,-72 44,-72 44,-72 50,-72 56,-78 56,-84 56,-84 56,-96 56,-96 56,-102 50,-108 44,-108"/>
<text text-anchor="middle" x="28" y="-87.5" font-family="sans" font-size="10.00" fill="#000000">load_gtf</text>
</g>
<!-- 10 -->
<g id="node11" class="node">
<title>10</title>
<path fill="none" stroke="#56d0d8" stroke-width="2" d="M230,-36C230,-36 200,-36 200,-36 194,-36 188,-30 188,-24 188,-24 188,-12 188,-12 188,-6 194,0 200,0 200,0 230,0 230,0 236,0 242,-6 242,-12 242,-12 242,-24 242,-24 242,-30 236,-36 230,-36"/>
<text text-anchor="middle" x="215" y="-15.5" font-family="sans" font-size="10.00" fill="#000000">all</text>
</g>
<!-- 3&#45;&gt;10 -->
<g id="edge12" class="edge">
<title>3&#45;&gt;10</title>
<path fill="none" stroke="#c0c0c0" stroke-width="2" d="M56.1385,-75.9257C59.1105,-74.555 62.104,-73.2216 65,-72 102.9191,-56.0053 147.3932,-40.3735 178.0154,-30.079"/>
<polygon fill="#c0c0c0" stroke="#c0c0c0" stroke-width="2" points="179.4625,-33.2859 187.8397,-26.7996 177.246,-26.646 179.4625,-33.2859"/>
</g>
<!-- 4 -->
<g id="node5" class="node">
<title>4</title>
<path fill="none" stroke="#bed856" stroke-width="2" d="M300,-468C300,-468 220,-468 220,-468 214,-468 208,-462 208,-456 208,-456 208,-444 208,-444 208,-438 214,-432 220,-432 220,-432 300,-432 300,-432 306,-432 312,-438 312,-444 312,-444 312,-456 312,-456 312,-462 306,-468 300,-468"/>
<text text-anchor="middle" x="260" y="-447.5" font-family="sans" font-size="10.00" fill="#000000">ambient_doublets</text>
</g>
<!-- 4&#45;&gt;10 -->
<g id="edge13" class="edge">
<title>4&#45;&gt;10</title>
<path fill="none" stroke="#c0c0c0" stroke-width="2" d="M267.4226,-431.7059C277.6965,-404.6881 295,-352.3101 295,-306 295,-306 295,-306 295,-162 295,-115.9277 263.3198,-70.8164 239.8312,-43.7014"/>
<polygon fill="#c0c0c0" stroke="#c0c0c0" stroke-width="2" points="242.4215,-41.3474 233.1532,-36.2141 237.1975,-46.0067 242.4215,-41.3474"/>
</g>
<!-- 12 -->
<g id="node13" class="node">
<title>12</title>
<path fill="none" stroke="#68d856" stroke-width="2" d="M250.5,-396C250.5,-396 209.5,-396 209.5,-396 203.5,-396 197.5,-390 197.5,-384 197.5,-384 197.5,-372 197.5,-372 197.5,-366 203.5,-360 209.5,-360 209.5,-360 250.5,-360 250.5,-360 256.5,-360 262.5,-366 262.5,-372 262.5,-372 262.5,-384 262.5,-384 262.5,-390 256.5,-396 250.5,-396"/>
<text text-anchor="middle" x="230" y="-375.5" font-family="sans" font-size="10.00" fill="#000000">merge_sn</text>
</g>
<!-- 4&#45;&gt;12 -->
<g id="edge18" class="edge">
<title>4&#45;&gt;12</title>
<path fill="none" stroke="#c0c0c0" stroke-width="2" d="M252.4297,-431.8314C249.1507,-423.9617 245.238,-414.5712 241.6055,-405.8533"/>
<polygon fill="#c0c0c0" stroke="#c0c0c0" stroke-width="2" points="244.7492,-404.2979 237.6722,-396.4133 238.2876,-406.9902 244.7492,-404.2979"/>
</g>
<!-- 16 -->
<g id="node17" class="node">
<title>16</title>
<path fill="none" stroke="#5673d8" stroke-width="2" d="M116,-108C116,-108 86,-108 86,-108 80,-108 74,-102 74,-96 74,-96 74,-84 74,-84 74,-78 80,-72 86,-72 86,-72 116,-72 116,-72 122,-72 128,-78 128,-84 128,-84 128,-96 128,-96 128,-102 122,-108 116,-108"/>
<text text-anchor="middle" x="101" y="-87.5" font-family="sans" font-size="10.00" fill="#000000">plot_de</text>
</g>
<!-- 5&#45;&gt;16 -->
<g id="edge21" class="edge">
<title>5&#45;&gt;16</title>
<path fill="none" stroke="#c0c0c0" stroke-width="2" d="M96.5141,-143.8314C97.1558,-136.131 97.9188,-126.9743 98.6319,-118.4166"/>
<polygon fill="#c0c0c0" stroke="#c0c0c0" stroke-width="2" points="102.1229,-118.6694 99.4656,-108.4133 95.1471,-118.088 102.1229,-118.6694"/>
</g>
<!-- 6&#45;&gt;10 -->
<g id="edge14" class="edge">
<title>6&#45;&gt;10</title>
<path fill="none" stroke="#c0c0c0" stroke-width="2" d="M338.655,-76.9613C314.1751,-65.2888 278.103,-48.0888 251.2294,-35.2749"/>
<polygon fill="#c0c0c0" stroke="#c0c0c0" stroke-width="2" points="252.6743,-32.0864 242.1415,-30.9417 249.6615,-38.4049 252.6743,-32.0864"/>
</g>
<!-- 7 -->
<g id="node8" class="node">
<title>7</title>
<path fill="none" stroke="#56d882" stroke-width="2" d="M275,-540C275,-540 245,-540 245,-540 239,-540 233,-534 233,-528 233,-528 233,-516 233,-516 233,-510 239,-504 245,-504 245,-504 275,-504 275,-504 281,-504 287,-510 287,-516 287,-516 287,-528 287,-528 287,-534 281,-540 275,-540"/>
<text text-anchor="middle" x="260" y="-519.5" font-family="sans" font-size="10.00" fill="#000000">load_sn</text>
</g>
<!-- 7&#45;&gt;4 -->
<g id="edge4" class="edge">
<title>7&#45;&gt;4</title>
<path fill="none" stroke="#c0c0c0" stroke-width="2" d="M260,-503.8314C260,-496.131 260,-486.9743 260,-478.4166"/>
<polygon fill="#c0c0c0" stroke="#c0c0c0" stroke-width="2" points="263.5001,-478.4132 260,-468.4133 256.5001,-478.4133 263.5001,-478.4132"/>
</g>
<!-- 8&#45;&gt;10 -->
<g id="edge15" class="edge">
<title>8&#45;&gt;10</title>
<path fill="none" stroke="#c0c0c0" stroke-width="2" d="M191.075,-71.8314C194.6102,-63.8771 198.836,-54.369 202.7456,-45.5723"/>
<polygon fill="#c0c0c0" stroke="#c0c0c0" stroke-width="2" points="205.9532,-46.9729 206.8163,-36.4133 199.5565,-44.1299 205.9532,-46.9729"/>
</g>
<!-- 9&#45;&gt;0 -->
<g id="edge2" class="edge">
<title>9&#45;&gt;0</title>
<path fill="none" stroke="#c0c0c0" stroke-width="2" d="M197.2055,-287.8314C195.1511,-280.0463 192.704,-270.7729 190.4244,-262.1347"/>
<polygon fill="#c0c0c0" stroke="#c0c0c0" stroke-width="2" points="193.7948,-261.1892 187.8591,-252.4133 187.0265,-262.9753 193.7948,-261.1892"/>
</g>
<!-- 11 -->
<g id="node12" class="node">
<title>11</title>
<path fill="none" stroke="#56b1d8" stroke-width="2" d="M469,-180C469,-180 439,-180 439,-180 433,-180 427,-174 427,-168 427,-168 427,-156 427,-156 427,-150 433,-144 439,-144 439,-144 469,-144 469,-144 475,-144 481,-150 481,-156 481,-156 481,-168 481,-168 481,-174 475,-180 469,-180"/>
<text text-anchor="middle" x="454" y="-159.5" font-family="sans" font-size="10.00" fill="#000000">fastqc</text>
</g>
<!-- 11&#45;&gt;6 -->
<g id="edge7" class="edge">
<title>11&#45;&gt;6</title>
<path fill="none" stroke="#c0c0c0" stroke-width="2" d="M431.7939,-143.8314C420.955,-134.9632 407.7556,-124.1637 396.0322,-114.5718"/>
<polygon fill="#c0c0c0" stroke="#c0c0c0" stroke-width="2" points="398.155,-111.7864 388.199,-108.1628 393.7223,-117.2041 398.155,-111.7864"/>
</g>
<!-- 12&#45;&gt;9 -->
<g id="edge11" class="edge">
<title>12&#45;&gt;9</title>
<path fill="none" stroke="#c0c0c0" stroke-width="2" d="M222.9344,-359.8314C219.874,-351.9617 216.2221,-342.5712 212.8318,-333.8533"/>
<polygon fill="#c0c0c0" stroke="#c0c0c0" stroke-width="2" points="216.0473,-332.4647 209.1607,-324.4133 209.5232,-335.0019 216.0473,-332.4647"/>
</g>
<!-- 13 -->
<g id="node14" class="node">
<title>13</title>
<path fill="none" stroke="#d87556" stroke-width="2" d="M396.5,-252C396.5,-252 335.5,-252 335.5,-252 329.5,-252 323.5,-246 323.5,-240 323.5,-240 323.5,-228 323.5,-228 323.5,-222 329.5,-216 335.5,-216 335.5,-216 396.5,-216 396.5,-216 402.5,-216 408.5,-222 408.5,-228 408.5,-228 408.5,-240 408.5,-240 408.5,-246 402.5,-252 396.5,-252"/>
<text text-anchor="middle" x="366" y="-231.5" font-family="sans" font-size="10.00" fill="#000000">salmon_index</text>
</g>
<!-- 13&#45;&gt;2 -->
<g id="edge3" class="edge">
<title>13&#45;&gt;2</title>
<path fill="none" stroke="#c0c0c0" stroke-width="2" d="M366,-215.8314C366,-208.131 366,-198.9743 366,-190.4166"/>
<polygon fill="#c0c0c0" stroke="#c0c0c0" stroke-width="2" points="369.5001,-190.4132 366,-180.4133 362.5001,-190.4133 369.5001,-190.4132"/>
</g>
<!-- 14 -->
<g id="node15" class="node">
<title>14</title>
<path fill="none" stroke="#56d863" stroke-width="2" d="M389,-324C389,-324 343,-324 343,-324 337,-324 331,-318 331,-312 331,-312 331,-300 331,-300 331,-294 337,-288 343,-288 343,-288 389,-288 389,-288 395,-288 401,-294 401,-300 401,-300 401,-312 401,-312 401,-318 395,-324 389,-324"/>
<text text-anchor="middle" x="366" y="-303.5" font-family="sans" font-size="10.00" fill="#000000">load_index</text>
</g>
<!-- 14&#45;&gt;13 -->
<g id="edge19" class="edge">
<title>14&#45;&gt;13</title>
<path fill="none" stroke="#c0c0c0" stroke-width="2" d="M366,-287.8314C366,-280.131 366,-270.9743 366,-262.4166"/>
<polygon fill="#c0c0c0" stroke="#c0c0c0" stroke-width="2" points="369.5001,-262.4132 366,-252.4133 362.5001,-262.4133 369.5001,-262.4132"/>
</g>
<!-- 15&#45;&gt;10 -->
<g id="edge16" class="edge">
<title>15&#45;&gt;10</title>
<path fill="none" stroke="#c0c0c0" stroke-width="2" d="M237.7584,-143.9596C236.3239,-125.7095 233.5569,-96.7376 229,-72 227.4456,-63.5617 225.2904,-54.4966 223.1363,-46.2492"/>
<polygon fill="#c0c0c0" stroke="#c0c0c0" stroke-width="2" points="226.4472,-45.0851 220.4538,-36.3484 219.6908,-46.9158 226.4472,-45.0851"/>
</g>
<!-- 16&#45;&gt;10 -->
<g id="edge17" class="edge">
<title>16&#45;&gt;10</title>
<path fill="none" stroke="#c0c0c0" stroke-width="2" d="M128.0164,-72.937C143.2384,-63.3231 162.4485,-51.1904 178.9417,-40.7737"/>
<polygon fill="#c0c0c0" stroke="#c0c0c0" stroke-width="2" points="181.1965,-43.4892 187.7824,-35.19 177.4586,-37.5708 181.1965,-43.4892"/>
</g>
</g>
</svg>
