<?xml version="1.0" encoding="UTF-8" standalone="no"?>
<!DOCTYPE svg PUBLIC "-//W3C//DTD SVG 1.1//EN"
 "http://www.w3.org/Graphics/SVG/1.1/DTD/svg11.dtd">
<!-- Generated by graphviz version 2.40.1 (0)
 -->
<!-- Title: snakemake_dag Pages: 1 -->
<svg width="521pt" height="908pt"
 viewBox="0.00 0.00 520.50 908.00" xmlns="http://www.w3.org/2000/svg" xmlns:xlink="http://www.w3.org/1999/xlink">
<g id="graph0" class="graph" transform="scale(1 1) rotate(0) translate(4 904)">
<title>snakemake_dag</title>
<polygon fill="#ffffff" stroke="transparent" points="-4,4 -4,-904 516.5,-904 516.5,4 -4,4"/>
<!-- 0 -->
<g id="node1" class="node">
<title>0</title>
<path fill="none" stroke="#56a2d8" stroke-width="2" d="M225.5,-36C225.5,-36 195.5,-36 195.5,-36 189.5,-36 183.5,-30 183.5,-24 183.5,-24 183.5,-12 183.5,-12 183.5,-6 189.5,0 195.5,0 195.5,0 225.5,0 225.5,0 231.5,0 237.5,-6 237.5,-12 237.5,-12 237.5,-24 237.5,-24 237.5,-30 231.5,-36 225.5,-36"/>
<text text-anchor="middle" x="210.5" y="-15.5" font-family="sans" font-size="10.00" fill="#000000">all</text>
</g>
<!-- 1 -->
<g id="node2" class="node">
<title>1</title>
<path fill="none" stroke="#d8a456" stroke-width="2" d="M89.5,-540C89.5,-540 59.5,-540 59.5,-540 53.5,-540 47.5,-534 47.5,-528 47.5,-528 47.5,-516 47.5,-516 47.5,-510 53.5,-504 59.5,-504 59.5,-504 89.5,-504 89.5,-504 95.5,-504 101.5,-510 101.5,-516 101.5,-516 101.5,-528 101.5,-528 101.5,-534 95.5,-540 89.5,-540"/>
<text text-anchor="middle" x="74.5" y="-519.5" font-family="sans" font-size="10.00" fill="#000000">multiqc</text>
</g>
<!-- 1&#45;&gt;0 -->
<g id="edge5" class="edge">
<title>1&#45;&gt;0</title>
<path fill="none" stroke="#c0c0c0" stroke-width="2" d="M68.3498,-503.5984C59.8372,-476.4466 45.5,-423.9035 45.5,-378 45.5,-378 45.5,-378 45.5,-162 45.5,-94.4165 125.0504,-51.2606 173.6794,-31.1932"/>
<polygon fill="#c0c0c0" stroke="#c0c0c0" stroke-width="2" points="175.2621,-34.3301 183.2536,-27.374 172.6685,-27.8283 175.2621,-34.3301"/>
</g>
<!-- 2 -->
<g id="node3" class="node">
<title>2</title>
<path fill="none" stroke="#d86656" stroke-width="2" d="M134.5,-612C134.5,-612 72.5,-612 72.5,-612 66.5,-612 60.5,-606 60.5,-600 60.5,-600 60.5,-588 60.5,-588 60.5,-582 66.5,-576 72.5,-576 72.5,-576 134.5,-576 134.5,-576 140.5,-576 146.5,-582 146.5,-588 146.5,-588 146.5,-600 146.5,-600 146.5,-606 140.5,-612 134.5,-612"/>
<text text-anchor="middle" x="103.5" y="-591.5" font-family="sans" font-size="10.00" fill="#000000">salmon_quant</text>
</g>
<!-- 2&#45;&gt;1 -->
<g id="edge9" class="edge">
<title>2&#45;&gt;1</title>
<path fill="none" stroke="#c0c0c0" stroke-width="2" d="M96.1821,-575.8314C93.0124,-567.9617 89.23,-558.5712 85.7187,-549.8533"/>
<polygon fill="#c0c0c0" stroke="#c0c0c0" stroke-width="2" points="88.8992,-548.3815 81.9165,-540.4133 82.4061,-550.9968 88.8992,-548.3815"/>
</g>
<!-- 18 -->
<g id="node19" class="node">
<title>18</title>
<path fill="none" stroke="#56b9d8" stroke-width="2" d="M239,-540C239,-540 204,-540 204,-540 198,-540 192,-534 192,-528 192,-528 192,-516 192,-516 192,-510 198,-504 204,-504 204,-504 239,-504 239,-504 245,-504 251,-510 251,-516 251,-516 251,-528 251,-528 251,-534 245,-540 239,-540"/>
<text text-anchor="middle" x="221.5" y="-519.5" font-family="sans" font-size="10.00" fill="#000000">tximport</text>
</g>
<!-- 2&#45;&gt;18 -->
<g id="edge27" class="edge">
<title>2&#45;&gt;18</title>
<path fill="none" stroke="#c0c0c0" stroke-width="2" d="M133.2764,-575.8314C148.3693,-566.6221 166.8757,-555.3301 183.0343,-545.4706"/>
<polygon fill="#c0c0c0" stroke="#c0c0c0" stroke-width="2" points="185.0198,-548.3593 191.7331,-540.1628 181.3737,-542.3838 185.0198,-548.3593"/>
</g>
<!-- 3 -->
<g id="node4" class="node">
<title>3</title>
<path fill="none" stroke="#d8b456" stroke-width="2" d="M134,-684C134,-684 73,-684 73,-684 67,-684 61,-678 61,-672 61,-672 61,-660 61,-660 61,-654 67,-648 73,-648 73,-648 134,-648 134,-648 140,-648 146,-654 146,-660 146,-660 146,-672 146,-672 146,-678 140,-684 134,-684"/>
<text text-anchor="middle" x="103.5" y="-663.5" font-family="sans" font-size="10.00" fill="#000000">salmon_index</text>
</g>
<!-- 3&#45;&gt;2 -->
<g id="edge10" class="edge">
<title>3&#45;&gt;2</title>
<path fill="none" stroke="#c0c0c0" stroke-width="2" d="M103.5,-647.8314C103.5,-640.131 103.5,-630.9743 103.5,-622.4166"/>
<polygon fill="#c0c0c0" stroke="#c0c0c0" stroke-width="2" points="107.0001,-622.4132 103.5,-612.4133 100.0001,-622.4133 107.0001,-622.4132"/>
</g>
<!-- 4 -->
<g id="node5" class="node">
<title>4</title>
<path fill="none" stroke="#56c9d8" stroke-width="2" d="M85,-828C85,-828 12,-828 12,-828 6,-828 0,-822 0,-816 0,-816 0,-804 0,-804 0,-798 6,-792 12,-792 12,-792 85,-792 85,-792 91,-792 97,-798 97,-804 97,-804 97,-816 97,-816 97,-822 91,-828 85,-828"/>
<text text-anchor="middle" x="48.5" y="-807.5" font-family="sans" font-size="10.00" fill="#000000">make_gentrome</text>
</g>
<!-- 4&#45;&gt;3 -->
<g id="edge11" class="edge">
<title>4&#45;&gt;3</title>
<path fill="none" stroke="#c0c0c0" stroke-width="2" d="M55.4658,-791.7623C64.9295,-766.9846 81.9311,-722.4714 92.9607,-693.5939"/>
<polygon fill="#c0c0c0" stroke="#c0c0c0" stroke-width="2" points="96.2923,-694.6803 96.5908,-684.0896 89.753,-692.1826 96.2923,-694.6803"/>
</g>
<!-- 5 -->
<g id="node6" class="node">
<title>5</title>
<path fill="none" stroke="#70d856" stroke-width="2" d="M186,-900C186,-900 127,-900 127,-900 121,-900 115,-894 115,-888 115,-888 115,-876 115,-876 115,-870 121,-864 127,-864 127,-864 186,-864 186,-864 192,-864 198,-870 198,-876 198,-876 198,-888 198,-888 198,-894 192,-900 186,-900"/>
<text text-anchor="middle" x="156.5" y="-879.5" font-family="sans" font-size="10.00" fill="#000000">load_toplevel</text>
</g>
<!-- 5&#45;&gt;4 -->
<g id="edge14" class="edge">
<title>5&#45;&gt;4</title>
<path fill="none" stroke="#c0c0c0" stroke-width="2" d="M129.247,-863.8314C115.5611,-854.7074 98.8085,-843.539 84.1173,-833.7449"/>
<polygon fill="#c0c0c0" stroke="#c0c0c0" stroke-width="2" points="86.0062,-830.7977 75.7442,-828.1628 82.1233,-836.6221 86.0062,-830.7977"/>
</g>
<!-- 8 -->
<g id="node9" class="node">
<title>8</title>
<path fill="none" stroke="#56d8c1" stroke-width="2" d="M193.5,-828C193.5,-828 127.5,-828 127.5,-828 121.5,-828 115.5,-822 115.5,-816 115.5,-816 115.5,-804 115.5,-804 115.5,-798 121.5,-792 127.5,-792 127.5,-792 193.5,-792 193.5,-792 199.5,-792 205.5,-798 205.5,-804 205.5,-804 205.5,-816 205.5,-816 205.5,-822 199.5,-828 193.5,-828"/>
<text text-anchor="middle" x="160.5" y="-807.5" font-family="sans" font-size="10.00" fill="#000000">make_decoy_1</text>
</g>
<!-- 5&#45;&gt;8 -->
<g id="edge16" class="edge">
<title>5&#45;&gt;8</title>
<path fill="none" stroke="#c0c0c0" stroke-width="2" d="M157.5094,-863.8314C157.9372,-856.131 158.4459,-846.9743 158.9213,-838.4166"/>
<polygon fill="#c0c0c0" stroke="#c0c0c0" stroke-width="2" points="162.4169,-838.592 159.477,-828.4133 155.4276,-838.2037 162.4169,-838.592"/>
</g>
<!-- 6 -->
<g id="node7" class="node">
<title>6</title>
<path fill="none" stroke="#bed856" stroke-width="2" d="M81,-900C81,-900 16,-900 16,-900 10,-900 4,-894 4,-888 4,-888 4,-876 4,-876 4,-870 10,-864 16,-864 16,-864 81,-864 81,-864 87,-864 93,-870 93,-876 93,-876 93,-888 93,-888 93,-894 87,-900 81,-900"/>
<text text-anchor="middle" x="48.5" y="-879.5" font-family="sans" font-size="10.00" fill="#000000">load_transcript</text>
</g>
<!-- 6&#45;&gt;4 -->
<g id="edge13" class="edge">
<title>6&#45;&gt;4</title>
<path fill="none" stroke="#c0c0c0" stroke-width="2" d="M48.5,-863.8314C48.5,-856.131 48.5,-846.9743 48.5,-838.4166"/>
<polygon fill="#c0c0c0" stroke="#c0c0c0" stroke-width="2" points="52.0001,-838.4132 48.5,-828.4133 45.0001,-838.4133 52.0001,-838.4132"/>
</g>
<!-- 7 -->
<g id="node8" class="node">
<title>7</title>
<path fill="none" stroke="#61d856" stroke-width="2" d="M183.5,-756C183.5,-756 117.5,-756 117.5,-756 111.5,-756 105.5,-750 105.5,-744 105.5,-744 105.5,-732 105.5,-732 105.5,-726 111.5,-720 117.5,-720 117.5,-720 183.5,-720 183.5,-720 189.5,-720 195.5,-726 195.5,-732 195.5,-732 195.5,-744 195.5,-744 195.5,-750 189.5,-756 183.5,-756"/>
<text text-anchor="middle" x="150.5" y="-735.5" font-family="sans" font-size="10.00" fill="#000000">make_decoy_2</text>
</g>
<!-- 7&#45;&gt;3 -->
<g id="edge12" class="edge">
<title>7&#45;&gt;3</title>
<path fill="none" stroke="#c0c0c0" stroke-width="2" d="M138.6399,-719.8314C133.3371,-711.7079 126.9763,-701.9637 121.1327,-693.0118"/>
<polygon fill="#c0c0c0" stroke="#c0c0c0" stroke-width="2" points="123.9169,-690.8739 115.5198,-684.4133 118.0552,-694.7003 123.9169,-690.8739"/>
</g>
<!-- 8&#45;&gt;7 -->
<g id="edge15" class="edge">
<title>8&#45;&gt;7</title>
<path fill="none" stroke="#c0c0c0" stroke-width="2" d="M157.9766,-791.8314C156.9071,-784.131 155.6353,-774.9743 154.4468,-766.4166"/>
<polygon fill="#c0c0c0" stroke="#c0c0c0" stroke-width="2" points="157.8999,-765.8367 153.0574,-756.4133 150.9664,-766.7997 157.8999,-765.8367"/>
</g>
<!-- 9 -->
<g id="node10" class="node">
<title>9</title>
<path fill="none" stroke="#56d8a9" stroke-width="2" d="M221.5,-612C221.5,-612 191.5,-612 191.5,-612 185.5,-612 179.5,-606 179.5,-600 179.5,-600 179.5,-588 179.5,-588 179.5,-582 185.5,-576 191.5,-576 191.5,-576 221.5,-576 221.5,-576 227.5,-576 233.5,-582 233.5,-588 233.5,-588 233.5,-600 233.5,-600 233.5,-606 227.5,-612 221.5,-612"/>
<text text-anchor="middle" x="206.5" y="-591.5" font-family="sans" font-size="10.00" fill="#000000">fastqc</text>
</g>
<!-- 9&#45;&gt;1 -->
<g id="edge8" class="edge">
<title>9&#45;&gt;1</title>
<path fill="none" stroke="#c0c0c0" stroke-width="2" d="M179.4693,-579.256C159.6699,-568.4563 132.5807,-553.6804 110.8811,-541.8442"/>
<polygon fill="#c0c0c0" stroke="#c0c0c0" stroke-width="2" points="112.4031,-538.6877 101.9482,-536.9717 109.0511,-544.8329 112.4031,-538.6877"/>
</g>
<!-- 9&#45;&gt;18 -->
<g id="edge26" class="edge">
<title>9&#45;&gt;18</title>
<path fill="none" stroke="#c0c0c0" stroke-width="2" d="M210.2851,-575.8314C211.8894,-568.131 213.797,-558.9743 215.5799,-550.4166"/>
<polygon fill="#c0c0c0" stroke="#c0c0c0" stroke-width="2" points="219.0507,-550.9169 217.6639,-540.4133 212.1979,-549.4892 219.0507,-550.9169"/>
</g>
<!-- 10 -->
<g id="node11" class="node">
<title>10</title>
<path fill="none" stroke="#56d88a" stroke-width="2" d="M300,-108C300,-108 251,-108 251,-108 245,-108 239,-102 239,-96 239,-96 239,-84 239,-84 239,-78 245,-72 251,-72 251,-72 300,-72 300,-72 306,-72 312,-78 312,-84 312,-84 312,-96 312,-96 312,-102 306,-108 300,-108"/>
<text text-anchor="middle" x="275.5" y="-87.5" font-family="sans" font-size="10.00" fill="#000000">plot_comps</text>
</g>
<!-- 10&#45;&gt;0 -->
<g id="edge3" class="edge">
<title>10&#45;&gt;0</title>
<path fill="none" stroke="#c0c0c0" stroke-width="2" d="M259.0978,-71.8314C251.4585,-63.3694 242.2317,-53.1489 233.8793,-43.8971"/>
<polygon fill="#c0c0c0" stroke="#c0c0c0" stroke-width="2" points="236.4221,-41.4906 227.1231,-36.4133 231.2262,-46.1813 236.4221,-41.4906"/>
</g>
<!-- 11 -->
<g id="node12" class="node">
<title>11</title>
<path fill="none" stroke="#d6d856" stroke-width="2" d="M278,-252C278,-252 225,-252 225,-252 219,-252 213,-246 213,-240 213,-240 213,-228 213,-228 213,-222 219,-216 225,-216 225,-216 278,-216 278,-216 284,-216 290,-222 290,-228 290,-228 290,-240 290,-240 290,-246 284,-252 278,-252"/>
<text text-anchor="middle" x="251.5" y="-231.5" font-family="sans" font-size="10.00" fill="#000000">deconvolute</text>
</g>
<!-- 11&#45;&gt;10 -->
<g id="edge17" class="edge">
<title>11&#45;&gt;10</title>
<path fill="none" stroke="#c0c0c0" stroke-width="2" d="M255.0566,-215.529C257.0288,-205.1092 259.4828,-191.8428 261.5,-180 264.9962,-159.4745 268.5996,-136.2539 271.275,-118.5406"/>
<polygon fill="#c0c0c0" stroke="#c0c0c0" stroke-width="2" points="274.7894,-118.7052 272.8116,-108.2966 267.8668,-117.6667 274.7894,-118.7052"/>
</g>
<!-- 19 -->
<g id="node20" class="node">
<title>19</title>
<path fill="none" stroke="#56d89a" stroke-width="2" d="M240.5,-180C240.5,-180 208.5,-180 208.5,-180 202.5,-180 196.5,-174 196.5,-168 196.5,-168 196.5,-156 196.5,-156 196.5,-150 202.5,-144 208.5,-144 208.5,-144 240.5,-144 240.5,-144 246.5,-144 252.5,-150 252.5,-156 252.5,-156 252.5,-168 252.5,-168 252.5,-174 246.5,-180 240.5,-180"/>
<text text-anchor="middle" x="224.5" y="-159.5" font-family="sans" font-size="10.00" fill="#000000">dirichlet</text>
</g>
<!-- 11&#45;&gt;19 -->
<g id="edge28" class="edge">
<title>11&#45;&gt;19</title>
<path fill="none" stroke="#c0c0c0" stroke-width="2" d="M244.6868,-215.8314C241.7356,-207.9617 238.2142,-198.5712 234.945,-189.8533"/>
<polygon fill="#c0c0c0" stroke="#c0c0c0" stroke-width="2" points="238.1934,-188.5476 231.405,-180.4133 231.6391,-191.0055 238.1934,-188.5476"/>
</g>
<!-- 21 -->
<g id="node22" class="node">
<title>21</title>
<path fill="none" stroke="#d87d56" stroke-width="2" d="M416,-180C416,-180 321,-180 321,-180 315,-180 309,-174 309,-168 309,-168 309,-156 309,-156 309,-150 315,-144 321,-144 321,-144 416,-144 416,-144 422,-144 428,-150 428,-156 428,-156 428,-168 428,-168 428,-174 422,-180 416,-180"/>
<text text-anchor="middle" x="368.5" y="-159.5" font-family="sans" font-size="10.00" fill="#000000">diffential_expression</text>
</g>
<!-- 11&#45;&gt;21 -->
<g id="edge30" class="edge">
<title>11&#45;&gt;21</title>
<path fill="none" stroke="#c0c0c0" stroke-width="2" d="M281.024,-215.8314C295.9891,-206.6221 314.3386,-195.3301 330.3603,-185.4706"/>
<polygon fill="#c0c0c0" stroke="#c0c0c0" stroke-width="2" points="332.3032,-188.3847 338.9854,-180.1628 328.6345,-182.423 332.3032,-188.3847"/>
</g>
<!-- 12 -->
<g id="node13" class="node">
<title>12</title>
<path fill="none" stroke="#d8cb56" stroke-width="2" d="M200.5,-324C200.5,-324 150.5,-324 150.5,-324 144.5,-324 138.5,-318 138.5,-312 138.5,-312 138.5,-300 138.5,-300 138.5,-294 144.5,-288 150.5,-288 150.5,-288 200.5,-288 200.5,-288 206.5,-288 212.5,-294 212.5,-300 212.5,-300 212.5,-312 212.5,-312 212.5,-318 206.5,-324 200.5,-324"/>
<text text-anchor="middle" x="175.5" y="-303.5" font-family="sans" font-size="10.00" fill="#000000">findMarkers</text>
</g>
<!-- 12&#45;&gt;0 -->
<g id="edge1" class="edge">
<title>12&#45;&gt;0</title>
<path fill="none" stroke="#c0c0c0" stroke-width="2" d="M176.2078,-287.9576C177.5249,-257.9735 180.8432,-196.0317 187.5,-144 191.821,-110.2257 199.2017,-71.7753 204.4359,-46.3265"/>
<polygon fill="#c0c0c0" stroke="#c0c0c0" stroke-width="2" points="207.9183,-46.7712 206.5325,-36.2674 201.0656,-45.3428 207.9183,-46.7712"/>
</g>
<!-- 12&#45;&gt;11 -->
<g id="edge18" class="edge">
<title>12&#45;&gt;11</title>
<path fill="none" stroke="#c0c0c0" stroke-width="2" d="M194.678,-287.8314C203.8588,-279.1337 215.0006,-268.5783 224.9776,-259.1265"/>
<polygon fill="#c0c0c0" stroke="#c0c0c0" stroke-width="2" points="227.4757,-261.5811 232.3281,-252.1628 222.6615,-256.4995 227.4757,-261.5811"/>
</g>
<!-- 22 -->
<g id="node23" class="node">
<title>22</title>
<path fill="none" stroke="#88d856" stroke-width="2" d="M135.5,-252C135.5,-252 85.5,-252 85.5,-252 79.5,-252 73.5,-246 73.5,-240 73.5,-240 73.5,-228 73.5,-228 73.5,-222 79.5,-216 85.5,-216 85.5,-216 135.5,-216 135.5,-216 141.5,-216 147.5,-222 147.5,-228 147.5,-228 147.5,-240 147.5,-240 147.5,-246 141.5,-252 135.5,-252"/>
<text text-anchor="middle" x="110.5" y="-231.5" font-family="sans" font-size="10.00" fill="#000000">plotMarkers</text>
</g>
<!-- 12&#45;&gt;22 -->
<g id="edge32" class="edge">
<title>12&#45;&gt;22</title>
<path fill="none" stroke="#c0c0c0" stroke-width="2" d="M159.0978,-287.8314C151.4585,-279.3694 142.2317,-269.1489 133.8793,-259.8971"/>
<polygon fill="#c0c0c0" stroke="#c0c0c0" stroke-width="2" points="136.4221,-257.4906 127.1231,-252.4133 131.2262,-262.1813 136.4221,-257.4906"/>
</g>
<!-- 13 -->
<g id="node14" class="node">
<title>13</title>
<path fill="none" stroke="#5692d8" stroke-width="2" d="M177,-396C177,-396 136,-396 136,-396 130,-396 124,-390 124,-384 124,-384 124,-372 124,-372 124,-366 130,-360 136,-360 136,-360 177,-360 177,-360 183,-360 189,-366 189,-372 189,-372 189,-384 189,-384 189,-390 183,-396 177,-396"/>
<text text-anchor="middle" x="156.5" y="-375.5" font-family="sans" font-size="10.00" fill="#000000">merge_sn</text>
</g>
<!-- 13&#45;&gt;12 -->
<g id="edge21" class="edge">
<title>13&#45;&gt;12</title>
<path fill="none" stroke="#c0c0c0" stroke-width="2" d="M161.2945,-359.8314C163.3489,-352.0463 165.796,-342.7729 168.0756,-334.1347"/>
<polygon fill="#c0c0c0" stroke="#c0c0c0" stroke-width="2" points="171.4735,-334.9753 170.6409,-324.4133 164.7052,-333.1892 171.4735,-334.9753"/>
</g>
<!-- 14 -->
<g id="node15" class="node">
<title>14</title>
<path fill="none" stroke="#56d8d0" stroke-width="2" d="M186.5,-468C186.5,-468 106.5,-468 106.5,-468 100.5,-468 94.5,-462 94.5,-456 94.5,-456 94.5,-444 94.5,-444 94.5,-438 100.5,-432 106.5,-432 106.5,-432 186.5,-432 186.5,-432 192.5,-432 198.5,-438 198.5,-444 198.5,-444 198.5,-456 198.5,-456 198.5,-462 192.5,-468 186.5,-468"/>
<text text-anchor="middle" x="146.5" y="-447.5" font-family="sans" font-size="10.00" fill="#000000">ambient_doublets</text>
</g>
<!-- 14&#45;&gt;13 -->
<g id="edge22" class="edge">
<title>14&#45;&gt;13</title>
<path fill="none" stroke="#c0c0c0" stroke-width="2" d="M149.0234,-431.8314C150.0929,-424.131 151.3647,-414.9743 152.5532,-406.4166"/>
<polygon fill="#c0c0c0" stroke="#c0c0c0" stroke-width="2" points="156.0336,-406.7997 153.9426,-396.4133 149.1001,-405.8367 156.0336,-406.7997"/>
</g>
<!-- 15 -->
<g id="node16" class="node">
<title>15</title>
<path fill="none" stroke="#97d856" stroke-width="2" d="M161.5,-540C161.5,-540 131.5,-540 131.5,-540 125.5,-540 119.5,-534 119.5,-528 119.5,-528 119.5,-516 119.5,-516 119.5,-510 125.5,-504 131.5,-504 131.5,-504 161.5,-504 161.5,-504 167.5,-504 173.5,-510 173.5,-516 173.5,-516 173.5,-528 173.5,-528 173.5,-534 167.5,-540 161.5,-540"/>
<text text-anchor="middle" x="146.5" y="-519.5" font-family="sans" font-size="10.00" fill="#000000">load_sn</text>
</g>
<!-- 15&#45;&gt;14 -->
<g id="edge23" class="edge">
<title>15&#45;&gt;14</title>
<path fill="none" stroke="#c0c0c0" stroke-width="2" d="M146.5,-503.8314C146.5,-496.131 146.5,-486.9743 146.5,-478.4166"/>
<polygon fill="#c0c0c0" stroke="#c0c0c0" stroke-width="2" points="150.0001,-478.4132 146.5,-468.4133 143.0001,-478.4133 150.0001,-478.4132"/>
</g>
<!-- 16 -->
<g id="node17" class="node">
<title>16</title>
<path fill="none" stroke="#566bd8" stroke-width="2" d="M274,-396C274,-396 229,-396 229,-396 223,-396 217,-390 217,-384 217,-384 217,-372 217,-372 217,-366 223,-360 229,-360 229,-360 274,-360 274,-360 280,-360 286,-366 286,-372 286,-372 286,-384 286,-384 286,-390 280,-396 274,-396"/>
<text text-anchor="middle" x="251.5" y="-375.5" font-family="sans" font-size="10.00" fill="#000000">clean_bulk</text>
</g>
<!-- 16&#45;&gt;11 -->
<g id="edge19" class="edge">
<title>16&#45;&gt;11</title>
<path fill="none" stroke="#c0c0c0" stroke-width="2" d="M251.5,-359.7623C251.5,-335.201 251.5,-291.2474 251.5,-262.3541"/>
<polygon fill="#c0c0c0" stroke="#c0c0c0" stroke-width="2" points="255.0001,-262.0896 251.5,-252.0896 248.0001,-262.0897 255.0001,-262.0896"/>
</g>
<!-- 16&#45;&gt;12 -->
<g id="edge20" class="edge">
<title>16&#45;&gt;12</title>
<path fill="none" stroke="#c0c0c0" stroke-width="2" d="M232.322,-359.8314C223.1412,-351.1337 211.9994,-340.5783 202.0224,-331.1265"/>
<polygon fill="#c0c0c0" stroke="#c0c0c0" stroke-width="2" points="204.3385,-328.4995 194.6719,-324.1628 199.5243,-333.5811 204.3385,-328.4995"/>
</g>
<!-- 16&#45;&gt;21 -->
<g id="edge31" class="edge">
<title>16&#45;&gt;21</title>
<path fill="none" stroke="#c0c0c0" stroke-width="2" d="M261.2741,-359.9555C281.8351,-321.9967 329.6556,-233.7127 353.8789,-188.9928"/>
<polygon fill="#c0c0c0" stroke="#c0c0c0" stroke-width="2" points="356.9861,-190.605 358.6714,-180.1451 350.831,-187.271 356.9861,-190.605"/>
</g>
<!-- 17 -->
<g id="node18" class="node">
<title>17</title>
<path fill="none" stroke="#56d863" stroke-width="2" d="M274.5,-468C274.5,-468 228.5,-468 228.5,-468 222.5,-468 216.5,-462 216.5,-456 216.5,-456 216.5,-444 216.5,-444 216.5,-438 222.5,-432 228.5,-432 228.5,-432 274.5,-432 274.5,-432 280.5,-432 286.5,-438 286.5,-444 286.5,-444 286.5,-456 286.5,-456 286.5,-462 280.5,-468 274.5,-468"/>
<text text-anchor="middle" x="251.5" y="-447.5" font-family="sans" font-size="10.00" fill="#000000">ensb2gene</text>
</g>
<!-- 17&#45;&gt;16 -->
<g id="edge24" class="edge">
<title>17&#45;&gt;16</title>
<path fill="none" stroke="#c0c0c0" stroke-width="2" d="M251.5,-431.8314C251.5,-424.131 251.5,-414.9743 251.5,-406.4166"/>
<polygon fill="#c0c0c0" stroke="#c0c0c0" stroke-width="2" points="255.0001,-406.4132 251.5,-396.4133 248.0001,-406.4133 255.0001,-406.4132"/>
</g>
<!-- 18&#45;&gt;17 -->
<g id="edge25" class="edge">
<title>18&#45;&gt;17</title>
<path fill="none" stroke="#c0c0c0" stroke-width="2" d="M229.0703,-503.8314C232.3493,-495.9617 236.262,-486.5712 239.8945,-477.8533"/>
<polygon fill="#c0c0c0" stroke="#c0c0c0" stroke-width="2" points="243.2124,-478.9902 243.8278,-468.4133 236.7508,-476.2979 243.2124,-478.9902"/>
</g>
<!-- 19&#45;&gt;0 -->
<g id="edge6" class="edge">
<title>19&#45;&gt;0</title>
<path fill="none" stroke="#c0c0c0" stroke-width="2" d="M222.7269,-143.7623C220.339,-119.201 216.0657,-75.2474 213.2566,-46.3541"/>
<polygon fill="#c0c0c0" stroke="#c0c0c0" stroke-width="2" points="216.71,-45.704 212.2587,-36.0896 209.7429,-46.3814 216.71,-45.704"/>
</g>
<!-- 20 -->
<g id="node21" class="node">
<title>20</title>
<path fill="none" stroke="#56d873" stroke-width="2" d="M372.5,-108C372.5,-108 342.5,-108 342.5,-108 336.5,-108 330.5,-102 330.5,-96 330.5,-96 330.5,-84 330.5,-84 330.5,-78 336.5,-72 342.5,-72 342.5,-72 372.5,-72 372.5,-72 378.5,-72 384.5,-78 384.5,-84 384.5,-84 384.5,-96 384.5,-96 384.5,-102 378.5,-108 372.5,-108"/>
<text text-anchor="middle" x="357.5" y="-87.5" font-family="sans" font-size="10.00" fill="#000000">plot_de</text>
</g>
<!-- 20&#45;&gt;0 -->
<g id="edge2" class="edge">
<title>20&#45;&gt;0</title>
<path fill="none" stroke="#c0c0c0" stroke-width="2" d="M330.3889,-76.405C327.3919,-74.9139 324.3828,-73.4219 321.5,-72 296.7217,-59.7787 268.749,-46.1716 247.0835,-35.6739"/>
<polygon fill="#c0c0c0" stroke="#c0c0c0" stroke-width="2" points="248.436,-32.4402 237.9102,-31.2324 245.3854,-38.7405 248.436,-32.4402"/>
</g>
<!-- 21&#45;&gt;20 -->
<g id="edge29" class="edge">
<title>21&#45;&gt;20</title>
<path fill="none" stroke="#c0c0c0" stroke-width="2" d="M365.7242,-143.8314C364.5478,-136.131 363.1489,-126.9743 361.8414,-118.4166"/>
<polygon fill="#c0c0c0" stroke="#c0c0c0" stroke-width="2" points="365.2833,-117.7699 360.3131,-108.4133 358.3636,-118.8272 365.2833,-117.7699"/>
</g>
<!-- 22&#45;&gt;0 -->
<g id="edge7" class="edge">
<title>22&#45;&gt;0</title>
<path fill="none" stroke="#c0c0c0" stroke-width="2" d="M112.2574,-215.7623C115.9455,-184.4169 126.5942,-119.1516 154.5,-72 160.8414,-61.2851 169.8776,-51.2846 178.8454,-42.8735"/>
<polygon fill="#c0c0c0" stroke="#c0c0c0" stroke-width="2" points="181.1836,-45.478 186.3016,-36.2013 176.5156,-40.2616 181.1836,-45.478"/>
</g>
<!-- 23 -->
<g id="node24" class="node">
<title>23</title>
<path fill="none" stroke="#d88d56" stroke-width="2" d="M500.5,-108C500.5,-108 414.5,-108 414.5,-108 408.5,-108 402.5,-102 402.5,-96 402.5,-96 402.5,-84 402.5,-84 402.5,-78 408.5,-72 414.5,-72 414.5,-72 500.5,-72 500.5,-72 506.5,-72 512.5,-78 512.5,-84 512.5,-84 512.5,-96 512.5,-96 512.5,-102 506.5,-108 500.5,-108"/>
<text text-anchor="middle" x="457.5" y="-87.5" font-family="sans" font-size="10.00" fill="#000000">download_sra_files</text>
</g>
<!-- 23&#45;&gt;0 -->
<g id="edge4" class="edge">
<title>23&#45;&gt;0</title>
<path fill="none" stroke="#c0c0c0" stroke-width="2" d="M402.3758,-73.9314C355.1896,-60.1767 288.5574,-40.7536 247.5143,-28.7896"/>
<polygon fill="#c0c0c0" stroke="#c0c0c0" stroke-width="2" points="248.2383,-25.355 237.6584,-25.9166 246.2793,-32.0753 248.2383,-25.355"/>
</g>
</g>
</svg>
