<?xml version="1.0" encoding="UTF-8" standalone="no"?>
<!DOCTYPE svg PUBLIC "-//W3C//DTD SVG 1.1//EN"
 "http://www.w3.org/Graphics/SVG/1.1/DTD/svg11.dtd">
<!-- Generated by graphviz version 2.40.1 (0)
 -->
<!-- Title: snakemake_dag Pages: 1 -->
<svg width="770pt" height="1052pt"
 viewBox="0.00 0.00 770.00 1052.00" xmlns="http://www.w3.org/2000/svg" xmlns:xlink="http://www.w3.org/1999/xlink">
<g id="graph0" class="graph" transform="scale(1 1) rotate(0) translate(4 1048)">
<title>snakemake_dag</title>
<polygon fill="#ffffff" stroke="transparent" points="-4,4 -4,-1048 766,-1048 766,4 -4,4"/>
<!-- 0 -->
<g id="node1" class="node">
<title>0</title>
<path fill="none" stroke="#d86656" stroke-width="2" d="M263,-36C263,-36 233,-36 233,-36 227,-36 221,-30 221,-24 221,-24 221,-12 221,-12 221,-6 227,0 233,0 233,0 263,0 263,0 269,0 275,-6 275,-12 275,-12 275,-24 275,-24 275,-30 269,-36 263,-36"/>
<text text-anchor="middle" x="248" y="-15.5" font-family="sans" font-size="10.00" fill="#000000">all</text>
</g>
<!-- 1 -->
<g id="node2" class="node">
<title>1</title>
<path fill="none" stroke="#61d856" stroke-width="2" d="M44,-684C44,-684 14,-684 14,-684 8,-684 2,-678 2,-672 2,-672 2,-660 2,-660 2,-654 8,-648 14,-648 14,-648 44,-648 44,-648 50,-648 56,-654 56,-660 56,-660 56,-672 56,-672 56,-678 50,-684 44,-684"/>
<text text-anchor="middle" x="29" y="-663.5" font-family="sans" font-size="10.00" fill="#000000">multiqc</text>
</g>
<!-- 1&#45;&gt;0 -->
<g id="edge9" class="edge">
<title>1&#45;&gt;0</title>
<path fill="none" stroke="#c0c0c0" stroke-width="2" d="M22.8498,-647.5984C14.3372,-620.4466 0,-567.9035 0,-522 0,-522 0,-522 0,-162 0,-114.8889 18.3304,-100.2923 56,-72 102.0709,-37.3977 169.3687,-24.9634 210.8341,-20.4982"/>
<polygon fill="#c0c0c0" stroke="#c0c0c0" stroke-width="2" points="211.1784,-23.9813 220.7909,-19.526 210.4981,-17.0144 211.1784,-23.9813"/>
</g>
<!-- 2 -->
<g id="node3" class="node">
<title>2</title>
<path fill="none" stroke="#569ad8" stroke-width="2" d="M192,-756C192,-756 130,-756 130,-756 124,-756 118,-750 118,-744 118,-744 118,-732 118,-732 118,-726 124,-720 130,-720 130,-720 192,-720 192,-720 198,-720 204,-726 204,-732 204,-732 204,-744 204,-744 204,-750 198,-756 192,-756"/>
<text text-anchor="middle" x="161" y="-735.5" font-family="sans" font-size="10.00" fill="#000000">salmon_quant</text>
</g>
<!-- 2&#45;&gt;1 -->
<g id="edge12" class="edge">
<title>2&#45;&gt;1</title>
<path fill="none" stroke="#c0c0c0" stroke-width="2" d="M127.6908,-719.8314C108.5703,-709.402 84.5524,-696.3013 64.9981,-685.6353"/>
<polygon fill="#c0c0c0" stroke="#c0c0c0" stroke-width="2" points="66.5355,-682.4872 56.0806,-680.7712 63.1835,-688.6324 66.5355,-682.4872"/>
</g>
<!-- 18 -->
<g id="node19" class="node">
<title>18</title>
<path fill="none" stroke="#d6d856" stroke-width="2" d="M193.5,-684C193.5,-684 158.5,-684 158.5,-684 152.5,-684 146.5,-678 146.5,-672 146.5,-672 146.5,-660 146.5,-660 146.5,-654 152.5,-648 158.5,-648 158.5,-648 193.5,-648 193.5,-648 199.5,-648 205.5,-654 205.5,-660 205.5,-660 205.5,-672 205.5,-672 205.5,-678 199.5,-684 193.5,-684"/>
<text text-anchor="middle" x="176" y="-663.5" font-family="sans" font-size="10.00" fill="#000000">tximport</text>
</g>
<!-- 2&#45;&gt;18 -->
<g id="edge30" class="edge">
<title>2&#45;&gt;18</title>
<path fill="none" stroke="#c0c0c0" stroke-width="2" d="M164.7851,-719.8314C166.3894,-712.131 168.297,-702.9743 170.0799,-694.4166"/>
<polygon fill="#c0c0c0" stroke="#c0c0c0" stroke-width="2" points="173.5507,-694.9169 172.1639,-684.4133 166.6979,-693.4892 173.5507,-694.9169"/>
</g>
<!-- 3 -->
<g id="node4" class="node">
<title>3</title>
<path fill="none" stroke="#afd856" stroke-width="2" d="M191.5,-828C191.5,-828 130.5,-828 130.5,-828 124.5,-828 118.5,-822 118.5,-816 118.5,-816 118.5,-804 118.5,-804 118.5,-798 124.5,-792 130.5,-792 130.5,-792 191.5,-792 191.5,-792 197.5,-792 203.5,-798 203.5,-804 203.5,-804 203.5,-816 203.5,-816 203.5,-822 197.5,-828 191.5,-828"/>
<text text-anchor="middle" x="161" y="-807.5" font-family="sans" font-size="10.00" fill="#000000">salmon_index</text>
</g>
<!-- 3&#45;&gt;2 -->
<g id="edge14" class="edge">
<title>3&#45;&gt;2</title>
<path fill="none" stroke="#c0c0c0" stroke-width="2" d="M161,-791.8314C161,-784.131 161,-774.9743 161,-766.4166"/>
<polygon fill="#c0c0c0" stroke="#c0c0c0" stroke-width="2" points="164.5001,-766.4132 161,-756.4133 157.5001,-766.4133 164.5001,-766.4132"/>
</g>
<!-- 4 -->
<g id="node5" class="node">
<title>4</title>
<path fill="none" stroke="#d85656" stroke-width="2" d="M142.5,-972C142.5,-972 69.5,-972 69.5,-972 63.5,-972 57.5,-966 57.5,-960 57.5,-960 57.5,-948 57.5,-948 57.5,-942 63.5,-936 69.5,-936 69.5,-936 142.5,-936 142.5,-936 148.5,-936 154.5,-942 154.5,-948 154.5,-948 154.5,-960 154.5,-960 154.5,-966 148.5,-972 142.5,-972"/>
<text text-anchor="middle" x="106" y="-951.5" font-family="sans" font-size="10.00" fill="#000000">make_gentrome</text>
</g>
<!-- 4&#45;&gt;3 -->
<g id="edge16" class="edge">
<title>4&#45;&gt;3</title>
<path fill="none" stroke="#c0c0c0" stroke-width="2" d="M112.9658,-935.7623C122.4295,-910.9846 139.4311,-866.4714 150.4607,-837.5939"/>
<polygon fill="#c0c0c0" stroke="#c0c0c0" stroke-width="2" points="153.7923,-838.6803 154.0908,-828.0896 147.253,-836.1826 153.7923,-838.6803"/>
</g>
<!-- 5 -->
<g id="node6" class="node">
<title>5</title>
<path fill="none" stroke="#56d8c1" stroke-width="2" d="M243.5,-1044C243.5,-1044 184.5,-1044 184.5,-1044 178.5,-1044 172.5,-1038 172.5,-1032 172.5,-1032 172.5,-1020 172.5,-1020 172.5,-1014 178.5,-1008 184.5,-1008 184.5,-1008 243.5,-1008 243.5,-1008 249.5,-1008 255.5,-1014 255.5,-1020 255.5,-1020 255.5,-1032 255.5,-1032 255.5,-1038 249.5,-1044 243.5,-1044"/>
<text text-anchor="middle" x="214" y="-1023.5" font-family="sans" font-size="10.00" fill="#000000">load_toplevel</text>
</g>
<!-- 5&#45;&gt;4 -->
<g id="edge17" class="edge">
<title>5&#45;&gt;4</title>
<path fill="none" stroke="#c0c0c0" stroke-width="2" d="M186.747,-1007.8314C173.0611,-998.7074 156.3085,-987.539 141.6173,-977.7449"/>
<polygon fill="#c0c0c0" stroke="#c0c0c0" stroke-width="2" points="143.5062,-974.7977 133.2442,-972.1628 139.6233,-980.6221 143.5062,-974.7977"/>
</g>
<!-- 8 -->
<g id="node9" class="node">
<title>8</title>
<path fill="none" stroke="#56d882" stroke-width="2" d="M251,-972C251,-972 185,-972 185,-972 179,-972 173,-966 173,-960 173,-960 173,-948 173,-948 173,-942 179,-936 185,-936 185,-936 251,-936 251,-936 257,-936 263,-942 263,-948 263,-948 263,-960 263,-960 263,-966 257,-972 251,-972"/>
<text text-anchor="middle" x="218" y="-951.5" font-family="sans" font-size="10.00" fill="#000000">make_decoy_1</text>
</g>
<!-- 5&#45;&gt;8 -->
<g id="edge20" class="edge">
<title>5&#45;&gt;8</title>
<path fill="none" stroke="#c0c0c0" stroke-width="2" d="M215.0094,-1007.8314C215.4372,-1000.131 215.9459,-990.9743 216.4213,-982.4166"/>
<polygon fill="#c0c0c0" stroke="#c0c0c0" stroke-width="2" points="219.9169,-982.592 216.977,-972.4133 212.9276,-982.2037 219.9169,-982.592"/>
</g>
<!-- 6 -->
<g id="node7" class="node">
<title>6</title>
<path fill="none" stroke="#d8bc56" stroke-width="2" d="M138.5,-1044C138.5,-1044 73.5,-1044 73.5,-1044 67.5,-1044 61.5,-1038 61.5,-1032 61.5,-1032 61.5,-1020 61.5,-1020 61.5,-1014 67.5,-1008 73.5,-1008 73.5,-1008 138.5,-1008 138.5,-1008 144.5,-1008 150.5,-1014 150.5,-1020 150.5,-1020 150.5,-1032 150.5,-1032 150.5,-1038 144.5,-1044 138.5,-1044"/>
<text text-anchor="middle" x="106" y="-1023.5" font-family="sans" font-size="10.00" fill="#000000">load_transcript</text>
</g>
<!-- 6&#45;&gt;4 -->
<g id="edge18" class="edge">
<title>6&#45;&gt;4</title>
<path fill="none" stroke="#c0c0c0" stroke-width="2" d="M106,-1007.8314C106,-1000.131 106,-990.9743 106,-982.4166"/>
<polygon fill="#c0c0c0" stroke="#c0c0c0" stroke-width="2" points="109.5001,-982.4132 106,-972.4133 102.5001,-982.4133 109.5001,-982.4132"/>
</g>
<!-- 7 -->
<g id="node8" class="node">
<title>7</title>
<path fill="none" stroke="#56a9d8" stroke-width="2" d="M241,-900C241,-900 175,-900 175,-900 169,-900 163,-894 163,-888 163,-888 163,-876 163,-876 163,-870 169,-864 175,-864 175,-864 241,-864 241,-864 247,-864 253,-870 253,-876 253,-876 253,-888 253,-888 253,-894 247,-900 241,-900"/>
<text text-anchor="middle" x="208" y="-879.5" font-family="sans" font-size="10.00" fill="#000000">make_decoy_2</text>
</g>
<!-- 7&#45;&gt;3 -->
<g id="edge15" class="edge">
<title>7&#45;&gt;3</title>
<path fill="none" stroke="#c0c0c0" stroke-width="2" d="M196.1399,-863.8314C190.8371,-855.7079 184.4763,-845.9637 178.6327,-837.0118"/>
<polygon fill="#c0c0c0" stroke="#c0c0c0" stroke-width="2" points="181.4169,-834.8739 173.0198,-828.4133 175.5552,-838.7003 181.4169,-834.8739"/>
</g>
<!-- 8&#45;&gt;7 -->
<g id="edge19" class="edge">
<title>8&#45;&gt;7</title>
<path fill="none" stroke="#c0c0c0" stroke-width="2" d="M215.4766,-935.8314C214.4071,-928.131 213.1353,-918.9743 211.9468,-910.4166"/>
<polygon fill="#c0c0c0" stroke="#c0c0c0" stroke-width="2" points="215.3999,-909.8367 210.5574,-900.4133 208.4664,-910.7997 215.3999,-909.8367"/>
</g>
<!-- 9 -->
<g id="node10" class="node">
<title>9</title>
<path fill="none" stroke="#d8cb56" stroke-width="2" d="M73,-756C73,-756 43,-756 43,-756 37,-756 31,-750 31,-744 31,-744 31,-732 31,-732 31,-726 37,-720 43,-720 43,-720 73,-720 73,-720 79,-720 85,-726 85,-732 85,-732 85,-744 85,-744 85,-750 79,-756 73,-756"/>
<text text-anchor="middle" x="58" y="-735.5" font-family="sans" font-size="10.00" fill="#000000">fastqc</text>
</g>
<!-- 9&#45;&gt;1 -->
<g id="edge13" class="edge">
<title>9&#45;&gt;1</title>
<path fill="none" stroke="#c0c0c0" stroke-width="2" d="M50.6821,-719.8314C47.5124,-711.9617 43.73,-702.5712 40.2187,-693.8533"/>
<polygon fill="#c0c0c0" stroke="#c0c0c0" stroke-width="2" points="43.3992,-692.3815 36.4165,-684.4133 36.9061,-694.9968 43.3992,-692.3815"/>
</g>
<!-- 9&#45;&gt;18 -->
<g id="edge31" class="edge">
<title>9&#45;&gt;18</title>
<path fill="none" stroke="#c0c0c0" stroke-width="2" d="M85.0716,-721.4817C100.6001,-712.0067 120.3513,-699.9552 137.4754,-689.5065"/>
<polygon fill="#c0c0c0" stroke="#c0c0c0" stroke-width="2" points="139.4412,-692.4072 146.1545,-684.2108 135.7951,-686.4317 139.4412,-692.4072"/>
</g>
<!-- 10 -->
<g id="node11" class="node">
<title>10</title>
<path fill="none" stroke="#8fd856" stroke-width="2" d="M230.5,-252C230.5,-252 181.5,-252 181.5,-252 175.5,-252 169.5,-246 169.5,-240 169.5,-240 169.5,-228 169.5,-228 169.5,-222 175.5,-216 181.5,-216 181.5,-216 230.5,-216 230.5,-216 236.5,-216 242.5,-222 242.5,-228 242.5,-228 242.5,-240 242.5,-240 242.5,-246 236.5,-252 230.5,-252"/>
<text text-anchor="middle" x="206" y="-231.5" font-family="sans" font-size="10.00" fill="#000000">plot_comps</text>
</g>
<!-- 10&#45;&gt;0 -->
<g id="edge1" class="edge">
<title>10&#45;&gt;0</title>
<path fill="none" stroke="#c0c0c0" stroke-width="2" d="M208.6252,-215.927C213.0984,-185.8988 222.8081,-123.895 234,-72 235.8089,-63.6126 238.0424,-54.5632 240.1901,-46.3145"/>
<polygon fill="#c0c0c0" stroke="#c0c0c0" stroke-width="2" points="243.6379,-46.9681 242.8262,-36.4044 236.8731,-45.1686 243.6379,-46.9681"/>
</g>
<!-- 11 -->
<g id="node12" class="node">
<title>11</title>
<path fill="none" stroke="#5663d8" stroke-width="2" d="M261.5,-396C261.5,-396 208.5,-396 208.5,-396 202.5,-396 196.5,-390 196.5,-384 196.5,-384 196.5,-372 196.5,-372 196.5,-366 202.5,-360 208.5,-360 208.5,-360 261.5,-360 261.5,-360 267.5,-360 273.5,-366 273.5,-372 273.5,-372 273.5,-384 273.5,-384 273.5,-390 267.5,-396 261.5,-396"/>
<text text-anchor="middle" x="235" y="-375.5" font-family="sans" font-size="10.00" fill="#000000">deconvolute</text>
</g>
<!-- 11&#45;&gt;10 -->
<g id="edge21" class="edge">
<title>11&#45;&gt;10</title>
<path fill="none" stroke="#c0c0c0" stroke-width="2" d="M224.8186,-359.5982C219.7093,-349.4221 213.9851,-336.3662 211,-324 206.1115,-303.7488 204.9551,-280.2218 204.9713,-262.3023"/>
<polygon fill="#c0c0c0" stroke="#c0c0c0" stroke-width="2" points="208.4721,-262.2533 205.1034,-252.2084 201.4727,-262.1617 208.4721,-262.2533"/>
</g>
<!-- 19 -->
<g id="node20" class="node">
<title>19</title>
<path fill="none" stroke="#56c9d8" stroke-width="2" d="M264,-324C264,-324 232,-324 232,-324 226,-324 220,-318 220,-312 220,-312 220,-300 220,-300 220,-294 226,-288 232,-288 232,-288 264,-288 264,-288 270,-288 276,-294 276,-300 276,-300 276,-312 276,-312 276,-318 270,-324 264,-324"/>
<text text-anchor="middle" x="248" y="-303.5" font-family="sans" font-size="10.00" fill="#000000">dirichlet</text>
</g>
<!-- 11&#45;&gt;19 -->
<g id="edge32" class="edge">
<title>11&#45;&gt;19</title>
<path fill="none" stroke="#c0c0c0" stroke-width="2" d="M238.2804,-359.8314C239.6708,-352.131 241.3241,-342.9743 242.8692,-334.4166"/>
<polygon fill="#c0c0c0" stroke="#c0c0c0" stroke-width="2" points="246.3428,-334.8761 244.6754,-324.4133 239.4542,-333.6322 246.3428,-334.8761"/>
</g>
<!-- 22 -->
<g id="node23" class="node">
<title>22</title>
<path fill="none" stroke="#d87556" stroke-width="2" d="M401.5,-324C401.5,-324 306.5,-324 306.5,-324 300.5,-324 294.5,-318 294.5,-312 294.5,-312 294.5,-300 294.5,-300 294.5,-294 300.5,-288 306.5,-288 306.5,-288 401.5,-288 401.5,-288 407.5,-288 413.5,-294 413.5,-300 413.5,-300 413.5,-312 413.5,-312 413.5,-318 407.5,-324 401.5,-324"/>
<text text-anchor="middle" x="354" y="-303.5" font-family="sans" font-size="10.00" fill="#000000">diffential_expression</text>
</g>
<!-- 11&#45;&gt;22 -->
<g id="edge36" class="edge">
<title>11&#45;&gt;22</title>
<path fill="none" stroke="#c0c0c0" stroke-width="2" d="M265.0287,-359.8314C280.2496,-350.6221 298.9128,-339.3301 315.2083,-329.4706"/>
<polygon fill="#c0c0c0" stroke="#c0c0c0" stroke-width="2" points="317.2369,-332.3341 323.9809,-324.1628 313.6132,-326.345 317.2369,-332.3341"/>
</g>
<!-- 12 -->
<g id="node13" class="node">
<title>12</title>
<path fill="none" stroke="#80d856" stroke-width="2" d="M193,-468C193,-468 143,-468 143,-468 137,-468 131,-462 131,-456 131,-456 131,-444 131,-444 131,-438 137,-432 143,-432 143,-432 193,-432 193,-432 199,-432 205,-438 205,-444 205,-444 205,-456 205,-456 205,-462 199,-468 193,-468"/>
<text text-anchor="middle" x="168" y="-447.5" font-family="sans" font-size="10.00" fill="#000000">findMarkers</text>
</g>
<!-- 12&#45;&gt;0 -->
<g id="edge4" class="edge">
<title>12&#45;&gt;0</title>
<path fill="none" stroke="#c0c0c0" stroke-width="2" d="M164.5051,-431.8481C157.4922,-392.1881 143.7103,-295.0263 160,-216 173.3721,-151.1283 209.9801,-81.8257 231.5344,-44.8767"/>
<polygon fill="#c0c0c0" stroke="#c0c0c0" stroke-width="2" points="234.5868,-46.591 236.6667,-36.2023 228.5623,-43.0265 234.5868,-46.591"/>
</g>
<!-- 12&#45;&gt;11 -->
<g id="edge23" class="edge">
<title>12&#45;&gt;11</title>
<path fill="none" stroke="#c0c0c0" stroke-width="2" d="M184.9069,-431.8314C192.7813,-423.3694 202.292,-413.1489 210.9013,-403.8971"/>
<polygon fill="#c0c0c0" stroke="#c0c0c0" stroke-width="2" points="213.6153,-406.1183 217.8654,-396.4133 208.4908,-401.3497 213.6153,-406.1183"/>
</g>
<!-- 20 -->
<g id="node21" class="node">
<title>20</title>
<path fill="none" stroke="#56d873" stroke-width="2" d="M128,-396C128,-396 78,-396 78,-396 72,-396 66,-390 66,-384 66,-384 66,-372 66,-372 66,-366 72,-360 78,-360 78,-360 128,-360 128,-360 134,-360 140,-366 140,-372 140,-372 140,-384 140,-384 140,-390 134,-396 128,-396"/>
<text text-anchor="middle" x="103" y="-375.5" font-family="sans" font-size="10.00" fill="#000000">plotMarkers</text>
</g>
<!-- 12&#45;&gt;20 -->
<g id="edge33" class="edge">
<title>12&#45;&gt;20</title>
<path fill="none" stroke="#c0c0c0" stroke-width="2" d="M151.5978,-431.8314C143.9585,-423.3694 134.7317,-413.1489 126.3793,-403.8971"/>
<polygon fill="#c0c0c0" stroke="#c0c0c0" stroke-width="2" points="128.9221,-401.4906 119.6231,-396.4133 123.7262,-406.1813 128.9221,-401.4906"/>
</g>
<!-- 13 -->
<g id="node14" class="node">
<title>13</title>
<path fill="none" stroke="#56d8d0" stroke-width="2" d="M154.5,-540C154.5,-540 113.5,-540 113.5,-540 107.5,-540 101.5,-534 101.5,-528 101.5,-528 101.5,-516 101.5,-516 101.5,-510 107.5,-504 113.5,-504 113.5,-504 154.5,-504 154.5,-504 160.5,-504 166.5,-510 166.5,-516 166.5,-516 166.5,-528 166.5,-528 166.5,-534 160.5,-540 154.5,-540"/>
<text text-anchor="middle" x="134" y="-519.5" font-family="sans" font-size="10.00" fill="#000000">merge_sn</text>
</g>
<!-- 13&#45;&gt;12 -->
<g id="edge25" class="edge">
<title>13&#45;&gt;12</title>
<path fill="none" stroke="#c0c0c0" stroke-width="2" d="M142.5796,-503.8314C146.3358,-495.8771 150.8257,-486.369 154.9798,-477.5723"/>
<polygon fill="#c0c0c0" stroke="#c0c0c0" stroke-width="2" points="158.1996,-478.9503 159.3048,-468.4133 151.8699,-475.9612 158.1996,-478.9503"/>
</g>
<!-- 14 -->
<g id="node15" class="node">
<title>14</title>
<path fill="none" stroke="#d8ac56" stroke-width="2" d="M160,-612C160,-612 80,-612 80,-612 74,-612 68,-606 68,-600 68,-600 68,-588 68,-588 68,-582 74,-576 80,-576 80,-576 160,-576 160,-576 166,-576 172,-582 172,-588 172,-588 172,-600 172,-600 172,-606 166,-612 160,-612"/>
<text text-anchor="middle" x="120" y="-591.5" font-family="sans" font-size="10.00" fill="#000000">ambient_doublets</text>
</g>
<!-- 14&#45;&gt;13 -->
<g id="edge26" class="edge">
<title>14&#45;&gt;13</title>
<path fill="none" stroke="#c0c0c0" stroke-width="2" d="M123.5328,-575.8314C125.0301,-568.131 126.8105,-558.9743 128.4745,-550.4166"/>
<polygon fill="#c0c0c0" stroke="#c0c0c0" stroke-width="2" points="131.9465,-550.8975 130.4196,-540.4133 125.0752,-549.5614 131.9465,-550.8975"/>
</g>
<!-- 15 -->
<g id="node16" class="node">
<title>15</title>
<path fill="none" stroke="#d89c56" stroke-width="2" d="M116,-684C116,-684 86,-684 86,-684 80,-684 74,-678 74,-672 74,-672 74,-660 74,-660 74,-654 80,-648 86,-648 86,-648 116,-648 116,-648 122,-648 128,-654 128,-660 128,-660 128,-672 128,-672 128,-678 122,-684 116,-684"/>
<text text-anchor="middle" x="101" y="-663.5" font-family="sans" font-size="10.00" fill="#000000">load_sn</text>
</g>
<!-- 15&#45;&gt;0 -->
<g id="edge11" class="edge">
<title>15&#45;&gt;0</title>
<path fill="none" stroke="#c0c0c0" stroke-width="2" d="M83.6527,-647.8523C75.0702,-637.9548 65.239,-625.0777 59,-612 41.3141,-574.9282 38,-563.0745 38,-522 38,-522 38,-522 38,-162 38,-79.049 150.8265,-40.3352 211.0789,-25.575"/>
<polygon fill="#c0c0c0" stroke="#c0c0c0" stroke-width="2" points="212.0416,-28.9442 220.9761,-23.2499 210.4406,-22.1298 212.0416,-28.9442"/>
</g>
<!-- 15&#45;&gt;14 -->
<g id="edge27" class="edge">
<title>15&#45;&gt;14</title>
<path fill="none" stroke="#c0c0c0" stroke-width="2" d="M105.7945,-647.8314C107.8489,-640.0463 110.296,-630.7729 112.5756,-622.1347"/>
<polygon fill="#c0c0c0" stroke="#c0c0c0" stroke-width="2" points="115.9735,-622.9753 115.1409,-612.4133 109.2052,-621.1892 115.9735,-622.9753"/>
</g>
<!-- 16 -->
<g id="node17" class="node">
<title>16</title>
<path fill="none" stroke="#56d85b" stroke-width="2" d="M255.5,-540C255.5,-540 210.5,-540 210.5,-540 204.5,-540 198.5,-534 198.5,-528 198.5,-528 198.5,-516 198.5,-516 198.5,-510 204.5,-504 210.5,-504 210.5,-504 255.5,-504 255.5,-504 261.5,-504 267.5,-510 267.5,-516 267.5,-516 267.5,-528 267.5,-528 267.5,-534 261.5,-540 255.5,-540"/>
<text text-anchor="middle" x="233" y="-519.5" font-family="sans" font-size="10.00" fill="#000000">clean_bulk</text>
</g>
<!-- 16&#45;&gt;11 -->
<g id="edge22" class="edge">
<title>16&#45;&gt;11</title>
<path fill="none" stroke="#c0c0c0" stroke-width="2" d="M233.2533,-503.7623C233.5944,-479.201 234.2049,-435.2474 234.6062,-406.3541"/>
<polygon fill="#c0c0c0" stroke="#c0c0c0" stroke-width="2" points="238.1094,-406.1373 234.7488,-396.0896 231.1101,-406.04 238.1094,-406.1373"/>
</g>
<!-- 16&#45;&gt;12 -->
<g id="edge24" class="edge">
<title>16&#45;&gt;12</title>
<path fill="none" stroke="#c0c0c0" stroke-width="2" d="M216.5978,-503.8314C208.9585,-495.3694 199.7317,-485.1489 191.3793,-475.8971"/>
<polygon fill="#c0c0c0" stroke="#c0c0c0" stroke-width="2" points="193.9221,-473.4906 184.6231,-468.4133 188.7262,-478.1813 193.9221,-473.4906"/>
</g>
<!-- 16&#45;&gt;22 -->
<g id="edge35" class="edge">
<title>16&#45;&gt;22</title>
<path fill="none" stroke="#c0c0c0" stroke-width="2" d="M243.1083,-503.9555C264.3722,-465.9967 313.8276,-377.7127 338.879,-332.9928"/>
<polygon fill="#c0c0c0" stroke="#c0c0c0" stroke-width="2" points="342.0016,-334.58 343.8354,-324.1451 335.8946,-331.1589 342.0016,-334.58"/>
</g>
<!-- 17 -->
<g id="node18" class="node">
<title>17</title>
<path fill="none" stroke="#56b9d8" stroke-width="2" d="M254,-612C254,-612 208,-612 208,-612 202,-612 196,-606 196,-600 196,-600 196,-588 196,-588 196,-582 202,-576 208,-576 208,-576 254,-576 254,-576 260,-576 266,-582 266,-588 266,-588 266,-600 266,-600 266,-606 260,-612 254,-612"/>
<text text-anchor="middle" x="231" y="-591.5" font-family="sans" font-size="10.00" fill="#000000">ensb2gene</text>
</g>
<!-- 17&#45;&gt;16 -->
<g id="edge28" class="edge">
<title>17&#45;&gt;16</title>
<path fill="none" stroke="#c0c0c0" stroke-width="2" d="M231.5047,-575.8314C231.7186,-568.131 231.9729,-558.9743 232.2106,-550.4166"/>
<polygon fill="#c0c0c0" stroke="#c0c0c0" stroke-width="2" points="235.7094,-550.5066 232.4885,-540.4133 228.7121,-550.3122 235.7094,-550.5066"/>
</g>
<!-- 18&#45;&gt;17 -->
<g id="edge29" class="edge">
<title>18&#45;&gt;17</title>
<path fill="none" stroke="#c0c0c0" stroke-width="2" d="M189.8788,-647.8314C196.2136,-639.5386 203.8384,-629.557 210.7926,-620.4533"/>
<polygon fill="#c0c0c0" stroke="#c0c0c0" stroke-width="2" points="213.6452,-622.4847 216.9343,-612.4133 208.0825,-618.2353 213.6452,-622.4847"/>
</g>
<!-- 19&#45;&gt;0 -->
<g id="edge7" class="edge">
<title>19&#45;&gt;0</title>
<path fill="none" stroke="#c0c0c0" stroke-width="2" d="M249.7082,-287.5244C250.5864,-277.1031 251.5622,-263.8368 252,-252 254.7412,-177.8865 251.5398,-90.4982 249.4766,-46.4436"/>
<polygon fill="#c0c0c0" stroke="#c0c0c0" stroke-width="2" points="252.9607,-46.0302 248.9808,-36.2114 245.9689,-46.369 252.9607,-46.0302"/>
</g>
<!-- 20&#45;&gt;0 -->
<g id="edge2" class="edge">
<title>20&#45;&gt;0</title>
<path fill="none" stroke="#c0c0c0" stroke-width="2" d="M103,-359.8146C103,-332.4983 103,-279.25 103,-234 103,-234 103,-234 103,-162 103,-120.6022 100.147,-103.507 127,-72 148.4348,-46.8503 183.9128,-32.9223 210.9249,-25.5411"/>
<polygon fill="#c0c0c0" stroke="#c0c0c0" stroke-width="2" points="211.9887,-28.882 220.8161,-23.0231 210.2617,-22.0984 211.9887,-28.882"/>
</g>
<!-- 21 -->
<g id="node22" class="node">
<title>21</title>
<path fill="none" stroke="#567bd8" stroke-width="2" d="M326,-180C326,-180 288,-180 288,-180 282,-180 276,-174 276,-168 276,-168 276,-156 276,-156 276,-150 282,-144 288,-144 288,-144 326,-144 326,-144 332,-144 338,-150 338,-156 338,-156 338,-168 338,-168 338,-174 332,-180 326,-180"/>
<text text-anchor="middle" x="307" y="-159.5" font-family="sans" font-size="10.00" fill="#000000">gene_ont</text>
</g>
<!-- 21&#45;&gt;0 -->
<g id="edge10" class="edge">
<title>21&#45;&gt;0</title>
<path fill="none" stroke="#c0c0c0" stroke-width="2" d="M299.5276,-143.7623C289.3757,-118.9846 271.1376,-74.4714 259.3058,-45.5939"/>
<polygon fill="#c0c0c0" stroke="#c0c0c0" stroke-width="2" points="262.4418,-44.0161 255.4117,-36.0896 255.9644,-46.67 262.4418,-44.0161"/>
</g>
<!-- 22&#45;&gt;21 -->
<g id="edge34" class="edge">
<title>22&#45;&gt;21</title>
<path fill="none" stroke="#c0c0c0" stroke-width="2" d="M344.0679,-287.9326C338.7261,-277.639 332.3595,-264.3644 328,-252 320.8641,-231.7614 315.4524,-208.1036 311.9111,-190.1239"/>
<polygon fill="#c0c0c0" stroke="#c0c0c0" stroke-width="2" points="315.3432,-189.4366 310.0432,-180.2627 308.4655,-190.7394 315.3432,-189.4366"/>
</g>
<!-- 26 -->
<g id="node27" class="node">
<title>26</title>
<path fill="none" stroke="#56d8a2" stroke-width="2" d="M445,-252C445,-252 349,-252 349,-252 343,-252 337,-246 337,-240 337,-240 337,-228 337,-228 337,-222 343,-216 349,-216 349,-216 445,-216 445,-216 451,-216 457,-222 457,-228 457,-228 457,-240 457,-240 457,-246 451,-252 445,-252"/>
<text text-anchor="middle" x="397" y="-231.5" font-family="sans" font-size="10.00" fill="#000000">DEGS_most_changed</text>
</g>
<!-- 22&#45;&gt;26 -->
<g id="edge38" class="edge">
<title>22&#45;&gt;26</title>
<path fill="none" stroke="#c0c0c0" stroke-width="2" d="M364.8507,-287.8314C369.7023,-279.7079 375.5217,-269.9637 380.868,-261.0118"/>
<polygon fill="#c0c0c0" stroke="#c0c0c0" stroke-width="2" points="383.8806,-262.7933 386.0032,-252.4133 377.8708,-259.2041 383.8806,-262.7933"/>
</g>
<!-- 23 -->
<g id="node24" class="node">
<title>23</title>
<path fill="none" stroke="#568ad8" stroke-width="2" d="M638,-108C638,-108 568,-108 568,-108 562,-108 556,-102 556,-96 556,-96 556,-84 556,-84 556,-78 562,-72 568,-72 568,-72 638,-72 638,-72 644,-72 650,-78 650,-84 650,-84 650,-96 650,-96 650,-102 644,-108 638,-108"/>
<text text-anchor="middle" x="603" y="-87.5" font-family="sans" font-size="10.00" fill="#000000">simulate_deseq</text>
</g>
<!-- 23&#45;&gt;0 -->
<g id="edge8" class="edge">
<title>23&#45;&gt;0</title>
<path fill="none" stroke="#c0c0c0" stroke-width="2" d="M555.7704,-74.3339C552.8141,-73.5041 549.8732,-72.7179 547,-72 453.7761,-48.708 341.8295,-31.2219 285.0075,-23.0725"/>
<polygon fill="#c0c0c0" stroke="#c0c0c0" stroke-width="2" points="285.4487,-19.6001 275.0561,-21.6602 284.465,-26.5307 285.4487,-19.6001"/>
</g>
<!-- 24 -->
<g id="node25" class="node">
<title>24</title>
<path fill="none" stroke="#9fd856" stroke-width="2" d="M733.5,-108C733.5,-108 680.5,-108 680.5,-108 674.5,-108 668.5,-102 668.5,-96 668.5,-96 668.5,-84 668.5,-84 668.5,-78 674.5,-72 680.5,-72 680.5,-72 733.5,-72 733.5,-72 739.5,-72 745.5,-78 745.5,-84 745.5,-84 745.5,-96 745.5,-96 745.5,-102 739.5,-108 733.5,-108"/>
<text text-anchor="middle" x="707" y="-87.5" font-family="sans" font-size="10.00" fill="#000000">sra_to_fastq</text>
</g>
<!-- 24&#45;&gt;0 -->
<g id="edge3" class="edge">
<title>24&#45;&gt;0</title>
<path fill="none" stroke="#c0c0c0" stroke-width="2" d="M668.4679,-74.6876C665.292,-73.6901 662.1086,-72.7762 659,-72 523.9026,-38.265 358.242,-24.6772 285.3893,-20.0527"/>
<polygon fill="#c0c0c0" stroke="#c0c0c0" stroke-width="2" points="285.5246,-16.5545 275.3286,-19.4341 285.0949,-23.5413 285.5246,-16.5545"/>
</g>
<!-- 25 -->
<g id="node26" class="node">
<title>25</title>
<path fill="none" stroke="#70d856" stroke-width="2" d="M750,-180C750,-180 664,-180 664,-180 658,-180 652,-174 652,-168 652,-168 652,-156 652,-156 652,-150 658,-144 664,-144 664,-144 750,-144 750,-144 756,-144 762,-150 762,-156 762,-156 762,-168 762,-168 762,-174 756,-180 750,-180"/>
<text text-anchor="middle" x="707" y="-159.5" font-family="sans" font-size="10.00" fill="#000000">download_sra_files</text>
</g>
<!-- 25&#45;&gt;24 -->
<g id="edge37" class="edge">
<title>25&#45;&gt;24</title>
<path fill="none" stroke="#c0c0c0" stroke-width="2" d="M707,-143.8314C707,-136.131 707,-126.9743 707,-118.4166"/>
<polygon fill="#c0c0c0" stroke="#c0c0c0" stroke-width="2" points="710.5001,-118.4132 707,-108.4133 703.5001,-118.4133 710.5001,-118.4132"/>
</g>
<!-- 26&#45;&gt;0 -->
<g id="edge5" class="edge">
<title>26&#45;&gt;0</title>
<path fill="none" stroke="#c0c0c0" stroke-width="2" d="M388.0096,-215.9349C378.5537,-197.4148 362.8687,-168.0071 347,-144 324.6455,-110.1809 316.0714,-103.8572 291,-72 283.9231,-63.0077 276.1433,-53.211 269.1694,-44.461"/>
<polygon fill="#c0c0c0" stroke="#c0c0c0" stroke-width="2" points="271.7524,-42.0864 262.7794,-36.4529 266.2808,-46.4524 271.7524,-42.0864"/>
</g>
<!-- 28 -->
<g id="node29" class="node">
<title>28</title>
<path fill="none" stroke="#d88556" stroke-width="2" d="M507.5,-180C507.5,-180 406.5,-180 406.5,-180 400.5,-180 394.5,-174 394.5,-168 394.5,-168 394.5,-156 394.5,-156 394.5,-150 400.5,-144 406.5,-144 406.5,-144 507.5,-144 507.5,-144 513.5,-144 519.5,-150 519.5,-156 519.5,-156 519.5,-168 519.5,-168 519.5,-174 513.5,-180 507.5,-180"/>
<text text-anchor="middle" x="457" y="-159.5" font-family="sans" font-size="10.00" fill="#000000">gene_ont_supplement</text>
</g>
<!-- 26&#45;&gt;28 -->
<g id="edge40" class="edge">
<title>26&#45;&gt;28</title>
<path fill="none" stroke="#c0c0c0" stroke-width="2" d="M412.1405,-215.8314C419.1217,-207.454 427.5391,-197.3531 435.1876,-188.1749"/>
<polygon fill="#c0c0c0" stroke="#c0c0c0" stroke-width="2" points="437.9425,-190.3362 441.6556,-180.4133 432.5649,-185.8548 437.9425,-190.3362"/>
</g>
<!-- 27 -->
<g id="node28" class="node">
<title>27</title>
<path fill="none" stroke="#56d8b1" stroke-width="2" d="M525.5,-108C525.5,-108 388.5,-108 388.5,-108 382.5,-108 376.5,-102 376.5,-96 376.5,-96 376.5,-84 376.5,-84 376.5,-78 382.5,-72 388.5,-72 388.5,-72 525.5,-72 525.5,-72 531.5,-72 537.5,-78 537.5,-84 537.5,-84 537.5,-96 537.5,-96 537.5,-102 531.5,-108 525.5,-108"/>
<text text-anchor="middle" x="457" y="-87.5" font-family="sans" font-size="10.00" fill="#000000">merge_gene_ont_supplement</text>
</g>
<!-- 27&#45;&gt;0 -->
<g id="edge6" class="edge">
<title>27&#45;&gt;0</title>
<path fill="none" stroke="#c0c0c0" stroke-width="2" d="M404.5302,-71.9243C367.2725,-59.0891 318.1679,-42.1727 284.9692,-30.7358"/>
<polygon fill="#c0c0c0" stroke="#c0c0c0" stroke-width="2" points="285.8022,-27.321 275.2075,-27.3729 283.5222,-33.9393 285.8022,-27.321"/>
</g>
<!-- 28&#45;&gt;27 -->
<g id="edge39" class="edge">
<title>28&#45;&gt;27</title>
<path fill="none" stroke="#c0c0c0" stroke-width="2" d="M457,-143.8314C457,-136.131 457,-126.9743 457,-118.4166"/>
<polygon fill="#c0c0c0" stroke="#c0c0c0" stroke-width="2" points="460.5001,-118.4132 457,-108.4133 453.5001,-118.4133 460.5001,-118.4132"/>
</g>
</g>
</svg>
