<?xml version="1.0" encoding="UTF-8" standalone="no"?>
<!DOCTYPE svg PUBLIC "-//W3C//DTD SVG 1.1//EN"
 "http://www.w3.org/Graphics/SVG/1.1/DTD/svg11.dtd">
<!-- Generated by graphviz version 2.40.1 (0)
 -->
<!-- Title: snakemake_dag Pages: 1 -->
<svg width="471pt" height="548pt"
 viewBox="0.00 0.00 470.50 548.00" xmlns="http://www.w3.org/2000/svg" xmlns:xlink="http://www.w3.org/1999/xlink">
<g id="graph0" class="graph" transform="scale(1 1) rotate(0) translate(4 544)">
<title>snakemake_dag</title>
<polygon fill="#ffffff" stroke="transparent" points="-4,4 -4,-544 466.5,-544 466.5,4 -4,4"/>
<!-- 0 -->
<g id="node1" class="node">
<title>0</title>
<path fill="none" stroke="#56d8b9" stroke-width="2" d="M107,-180C107,-180 12,-180 12,-180 6,-180 0,-174 0,-168 0,-168 0,-156 0,-156 0,-150 6,-144 12,-144 12,-144 107,-144 107,-144 113,-144 119,-150 119,-156 119,-156 119,-168 119,-168 119,-174 113,-180 107,-180"/>
<text text-anchor="middle" x="59.5" y="-159.5" font-family="sans" font-size="10.00" fill="#000000">diffential_expression</text>
</g>
<!-- 7 -->
<g id="node8" class="node">
<title>7</title>
<path fill="none" stroke="#d6d856" stroke-width="2" d="M70.5,-108C70.5,-108 40.5,-108 40.5,-108 34.5,-108 28.5,-102 28.5,-96 28.5,-96 28.5,-84 28.5,-84 28.5,-78 34.5,-72 40.5,-72 40.5,-72 70.5,-72 70.5,-72 76.5,-72 82.5,-78 82.5,-84 82.5,-84 82.5,-96 82.5,-96 82.5,-102 76.5,-108 70.5,-108"/>
<text text-anchor="middle" x="55.5" y="-87.5" font-family="sans" font-size="10.00" fill="#000000">plot_de</text>
</g>
<!-- 0&#45;&gt;7 -->
<g id="edge13" class="edge">
<title>0&#45;&gt;7</title>
<path fill="none" stroke="#c0c0c0" stroke-width="2" d="M58.4906,-143.8314C58.0628,-136.131 57.5541,-126.9743 57.0787,-118.4166"/>
<polygon fill="#c0c0c0" stroke="#c0c0c0" stroke-width="2" points="60.5724,-118.2037 56.523,-108.4133 53.5831,-118.592 60.5724,-118.2037"/>
</g>
<!-- 1 -->
<g id="node2" class="node">
<title>1</title>
<path fill="none" stroke="#97d856" stroke-width="2" d="M235.5,-36C235.5,-36 205.5,-36 205.5,-36 199.5,-36 193.5,-30 193.5,-24 193.5,-24 193.5,-12 193.5,-12 193.5,-6 199.5,0 205.5,0 205.5,0 235.5,0 235.5,0 241.5,0 247.5,-6 247.5,-12 247.5,-12 247.5,-24 247.5,-24 247.5,-30 241.5,-36 235.5,-36"/>
<text text-anchor="middle" x="220.5" y="-15.5" font-family="sans" font-size="10.00" fill="#000000">all</text>
</g>
<!-- 2 -->
<g id="node3" class="node">
<title>2</title>
<path fill="none" stroke="#d87556" stroke-width="2" d="M162,-108C162,-108 113,-108 113,-108 107,-108 101,-102 101,-96 101,-96 101,-84 101,-84 101,-78 107,-72 113,-72 113,-72 162,-72 162,-72 168,-72 174,-78 174,-84 174,-84 174,-96 174,-96 174,-102 168,-108 162,-108"/>
<text text-anchor="middle" x="137.5" y="-87.5" font-family="sans" font-size="10.00" fill="#000000">plot_comps</text>
</g>
<!-- 2&#45;&gt;1 -->
<g id="edge5" class="edge">
<title>2&#45;&gt;1</title>
<path fill="none" stroke="#c0c0c0" stroke-width="2" d="M158.4444,-71.8314C168.5691,-63.0485 180.8777,-52.3712 191.8548,-42.8489"/>
<polygon fill="#c0c0c0" stroke="#c0c0c0" stroke-width="2" points="194.3019,-45.3595 199.5623,-36.1628 189.7149,-40.0718 194.3019,-45.3595"/>
</g>
<!-- 3 -->
<g id="node4" class="node">
<title>3</title>
<path fill="none" stroke="#d89556" stroke-width="2" d="M282.5,-468C282.5,-468 202.5,-468 202.5,-468 196.5,-468 190.5,-462 190.5,-456 190.5,-456 190.5,-444 190.5,-444 190.5,-438 196.5,-432 202.5,-432 202.5,-432 282.5,-432 282.5,-432 288.5,-432 294.5,-438 294.5,-444 294.5,-444 294.5,-456 294.5,-456 294.5,-462 288.5,-468 282.5,-468"/>
<text text-anchor="middle" x="242.5" y="-447.5" font-family="sans" font-size="10.00" fill="#000000">ambient_doublets</text>
</g>
<!-- 3&#45;&gt;1 -->
<g id="edge6" class="edge">
<title>3&#45;&gt;1</title>
<path fill="none" stroke="#c0c0c0" stroke-width="2" d="M249.7105,-431.6867C259.6909,-404.6448 276.5,-352.2373 276.5,-306 276.5,-306 276.5,-306 276.5,-162 276.5,-121.1184 273.585,-109.5843 257.5,-72 253.4513,-62.5397 247.6378,-53.016 241.8145,-44.6574"/>
<polygon fill="#c0c0c0" stroke="#c0c0c0" stroke-width="2" points="244.5319,-42.4434 235.8159,-36.4199 238.8733,-46.5641 244.5319,-42.4434"/>
</g>
<!-- 13 -->
<g id="node14" class="node">
<title>13</title>
<path fill="none" stroke="#56b9d8" stroke-width="2" d="M229,-396C229,-396 188,-396 188,-396 182,-396 176,-390 176,-384 176,-384 176,-372 176,-372 176,-366 182,-360 188,-360 188,-360 229,-360 229,-360 235,-360 241,-366 241,-372 241,-372 241,-384 241,-384 241,-390 235,-396 229,-396"/>
<text text-anchor="middle" x="208.5" y="-375.5" font-family="sans" font-size="10.00" fill="#000000">merge_sn</text>
</g>
<!-- 3&#45;&gt;13 -->
<g id="edge20" class="edge">
<title>3&#45;&gt;13</title>
<path fill="none" stroke="#c0c0c0" stroke-width="2" d="M233.9204,-431.8314C230.1642,-423.8771 225.6743,-414.369 221.5202,-405.5723"/>
<polygon fill="#c0c0c0" stroke="#c0c0c0" stroke-width="2" points="224.6301,-403.9612 217.1952,-396.4133 218.3004,-406.9503 224.6301,-403.9612"/>
</g>
<!-- 4 -->
<g id="node5" class="node">
<title>4</title>
<path fill="none" stroke="#d8b456" stroke-width="2" d="M174,-252C174,-252 121,-252 121,-252 115,-252 109,-246 109,-240 109,-240 109,-228 109,-228 109,-222 115,-216 121,-216 121,-216 174,-216 174,-216 180,-216 186,-222 186,-228 186,-228 186,-240 186,-240 186,-246 180,-252 174,-252"/>
<text text-anchor="middle" x="147.5" y="-231.5" font-family="sans" font-size="10.00" fill="#000000">deconvolute</text>
</g>
<!-- 4&#45;&gt;0 -->
<g id="edge2" class="edge">
<title>4&#45;&gt;0</title>
<path fill="none" stroke="#c0c0c0" stroke-width="2" d="M125.2939,-215.8314C114.455,-206.9632 101.2556,-196.1637 89.5322,-186.5718"/>
<polygon fill="#c0c0c0" stroke="#c0c0c0" stroke-width="2" points="91.655,-183.7864 81.699,-180.1628 87.2223,-189.2041 91.655,-183.7864"/>
</g>
<!-- 4&#45;&gt;2 -->
<g id="edge8" class="edge">
<title>4&#45;&gt;2</title>
<path fill="none" stroke="#c0c0c0" stroke-width="2" d="M146.2335,-215.7623C144.5279,-191.201 141.4755,-147.2474 139.469,-118.3541"/>
<polygon fill="#c0c0c0" stroke="#c0c0c0" stroke-width="2" points="142.9407,-117.8231 138.7562,-108.0896 135.9575,-118.3081 142.9407,-117.8231"/>
</g>
<!-- 12 -->
<g id="node13" class="node">
<title>12</title>
<path fill="none" stroke="#d85656" stroke-width="2" d="M236.5,-108C236.5,-108 204.5,-108 204.5,-108 198.5,-108 192.5,-102 192.5,-96 192.5,-96 192.5,-84 192.5,-84 192.5,-78 198.5,-72 204.5,-72 204.5,-72 236.5,-72 236.5,-72 242.5,-72 248.5,-78 248.5,-84 248.5,-84 248.5,-96 248.5,-96 248.5,-102 242.5,-108 236.5,-108"/>
<text text-anchor="middle" x="220.5" y="-87.5" font-family="sans" font-size="10.00" fill="#000000">dirichlet</text>
</g>
<!-- 4&#45;&gt;12 -->
<g id="edge19" class="edge">
<title>4&#45;&gt;12</title>
<path fill="none" stroke="#c0c0c0" stroke-width="2" d="M156.7455,-215.7623C169.3612,-190.8764 192.0694,-146.0822 206.7028,-117.2165"/>
<polygon fill="#c0c0c0" stroke="#c0c0c0" stroke-width="2" points="209.9297,-118.5916 211.3296,-108.0896 203.6861,-115.4264 209.9297,-118.5916"/>
</g>
<!-- 5 -->
<g id="node6" class="node">
<title>5</title>
<path fill="none" stroke="#b6d856" stroke-width="2" d="M346.5,-180C346.5,-180 316.5,-180 316.5,-180 310.5,-180 304.5,-174 304.5,-168 304.5,-168 304.5,-156 304.5,-156 304.5,-150 310.5,-144 316.5,-144 316.5,-144 346.5,-144 346.5,-144 352.5,-144 358.5,-150 358.5,-156 358.5,-156 358.5,-168 358.5,-168 358.5,-174 352.5,-180 346.5,-180"/>
<text text-anchor="middle" x="331.5" y="-159.5" font-family="sans" font-size="10.00" fill="#000000">fastqc</text>
</g>
<!-- 10 -->
<g id="node11" class="node">
<title>10</title>
<path fill="none" stroke="#56d89a" stroke-width="2" d="M346.5,-108C346.5,-108 316.5,-108 316.5,-108 310.5,-108 304.5,-102 304.5,-96 304.5,-96 304.5,-84 304.5,-84 304.5,-78 310.5,-72 316.5,-72 316.5,-72 346.5,-72 346.5,-72 352.5,-72 358.5,-78 358.5,-84 358.5,-84 358.5,-96 358.5,-96 358.5,-102 352.5,-108 346.5,-108"/>
<text text-anchor="middle" x="331.5" y="-87.5" font-family="sans" font-size="10.00" fill="#000000">multiqc</text>
</g>
<!-- 5&#45;&gt;10 -->
<g id="edge17" class="edge">
<title>5&#45;&gt;10</title>
<path fill="none" stroke="#c0c0c0" stroke-width="2" d="M331.5,-143.8314C331.5,-136.131 331.5,-126.9743 331.5,-118.4166"/>
<polygon fill="#c0c0c0" stroke="#c0c0c0" stroke-width="2" points="335.0001,-118.4132 331.5,-108.4133 328.0001,-118.4133 335.0001,-118.4132"/>
</g>
<!-- 6 -->
<g id="node7" class="node">
<title>6</title>
<path fill="none" stroke="#78d856" stroke-width="2" d="M450.5,-180C450.5,-180 388.5,-180 388.5,-180 382.5,-180 376.5,-174 376.5,-168 376.5,-168 376.5,-156 376.5,-156 376.5,-150 382.5,-144 388.5,-144 388.5,-144 450.5,-144 450.5,-144 456.5,-144 462.5,-150 462.5,-156 462.5,-156 462.5,-168 462.5,-168 462.5,-174 456.5,-180 450.5,-180"/>
<text text-anchor="middle" x="419.5" y="-159.5" font-family="sans" font-size="10.00" fill="#000000">salmon_quant</text>
</g>
<!-- 6&#45;&gt;10 -->
<g id="edge18" class="edge">
<title>6&#45;&gt;10</title>
<path fill="none" stroke="#c0c0c0" stroke-width="2" d="M397.2939,-143.8314C386.455,-134.9632 373.2556,-124.1637 361.5322,-114.5718"/>
<polygon fill="#c0c0c0" stroke="#c0c0c0" stroke-width="2" points="363.655,-111.7864 353.699,-108.1628 359.2223,-117.2041 363.655,-111.7864"/>
</g>
<!-- 7&#45;&gt;1 -->
<g id="edge7" class="edge">
<title>7&#45;&gt;1</title>
<path fill="none" stroke="#c0c0c0" stroke-width="2" d="M82.5326,-76.24C85.5443,-74.7798 88.5783,-73.3401 91.5,-72 122.3201,-57.8636 157.9052,-43.08 183.8838,-32.5625"/>
<polygon fill="#c0c0c0" stroke="#c0c0c0" stroke-width="2" points="185.3737,-35.7357 193.34,-28.7507 182.7566,-29.2433 185.3737,-35.7357"/>
</g>
<!-- 8 -->
<g id="node9" class="node">
<title>8</title>
<path fill="none" stroke="#59d856" stroke-width="2" d="M200.5,-324C200.5,-324 150.5,-324 150.5,-324 144.5,-324 138.5,-318 138.5,-312 138.5,-312 138.5,-300 138.5,-300 138.5,-294 144.5,-288 150.5,-288 150.5,-288 200.5,-288 200.5,-288 206.5,-288 212.5,-294 212.5,-300 212.5,-300 212.5,-312 212.5,-312 212.5,-318 206.5,-324 200.5,-324"/>
<text text-anchor="middle" x="175.5" y="-303.5" font-family="sans" font-size="10.00" fill="#000000">findMarkers</text>
</g>
<!-- 8&#45;&gt;4 -->
<g id="edge11" class="edge">
<title>8&#45;&gt;4</title>
<path fill="none" stroke="#c0c0c0" stroke-width="2" d="M168.4344,-287.8314C165.374,-279.9617 161.7221,-270.5712 158.3318,-261.8533"/>
<polygon fill="#c0c0c0" stroke="#c0c0c0" stroke-width="2" points="161.5473,-260.4647 154.6607,-252.4133 155.0232,-263.0019 161.5473,-260.4647"/>
</g>
<!-- 9 -->
<g id="node10" class="node">
<title>9</title>
<path fill="none" stroke="#56d87b" stroke-width="2" d="M450,-252C450,-252 389,-252 389,-252 383,-252 377,-246 377,-240 377,-240 377,-228 377,-228 377,-222 383,-216 389,-216 389,-216 450,-216 450,-216 456,-216 462,-222 462,-228 462,-228 462,-240 462,-240 462,-246 456,-252 450,-252"/>
<text text-anchor="middle" x="419.5" y="-231.5" font-family="sans" font-size="10.00" fill="#000000">salmon_index</text>
</g>
<!-- 9&#45;&gt;6 -->
<g id="edge12" class="edge">
<title>9&#45;&gt;6</title>
<path fill="none" stroke="#c0c0c0" stroke-width="2" d="M419.5,-215.8314C419.5,-208.131 419.5,-198.9743 419.5,-190.4166"/>
<polygon fill="#c0c0c0" stroke="#c0c0c0" stroke-width="2" points="423.0001,-190.4132 419.5,-180.4133 416.0001,-190.4133 423.0001,-190.4132"/>
</g>
<!-- 10&#45;&gt;1 -->
<g id="edge3" class="edge">
<title>10&#45;&gt;1</title>
<path fill="none" stroke="#c0c0c0" stroke-width="2" d="M304.3463,-72.3868C289.8331,-62.9728 271.7848,-51.2658 256.1548,-41.1274"/>
<polygon fill="#c0c0c0" stroke="#c0c0c0" stroke-width="2" points="258.0523,-38.1865 247.758,-35.6809 254.243,-44.0592 258.0523,-38.1865"/>
</g>
<!-- 11 -->
<g id="node12" class="node">
<title>11</title>
<path fill="none" stroke="#56d8d8" stroke-width="2" d="M133,-396C133,-396 88,-396 88,-396 82,-396 76,-390 76,-384 76,-384 76,-372 76,-372 76,-366 82,-360 88,-360 88,-360 133,-360 133,-360 139,-360 145,-366 145,-372 145,-372 145,-384 145,-384 145,-390 139,-396 133,-396"/>
<text text-anchor="middle" x="110.5" y="-375.5" font-family="sans" font-size="10.00" fill="#000000">clean_bulk</text>
</g>
<!-- 11&#45;&gt;0 -->
<g id="edge1" class="edge">
<title>11&#45;&gt;0</title>
<path fill="none" stroke="#c0c0c0" stroke-width="2" d="M106.2395,-359.9555C97.352,-322.3144 76.7802,-235.1867 66.1405,-190.1246"/>
<polygon fill="#c0c0c0" stroke="#c0c0c0" stroke-width="2" points="69.4886,-189.0732 63.7843,-180.1451 62.6759,-190.6818 69.4886,-189.0732"/>
</g>
<!-- 11&#45;&gt;4 -->
<g id="edge10" class="edge">
<title>11&#45;&gt;4</title>
<path fill="none" stroke="#c0c0c0" stroke-width="2" d="M113.6895,-359.9268C117.0609,-341.6511 122.8103,-312.6598 129.5,-288 131.8177,-279.4566 134.7173,-270.2803 137.5078,-261.9602"/>
<polygon fill="#c0c0c0" stroke="#c0c0c0" stroke-width="2" points="140.875,-262.9307 140.8111,-252.3361 134.2542,-260.6582 140.875,-262.9307"/>
</g>
<!-- 11&#45;&gt;8 -->
<g id="edge14" class="edge">
<title>11&#45;&gt;8</title>
<path fill="none" stroke="#c0c0c0" stroke-width="2" d="M126.9022,-359.8314C134.5415,-351.3694 143.7683,-341.1489 152.1207,-331.8971"/>
<polygon fill="#c0c0c0" stroke="#c0c0c0" stroke-width="2" points="154.7738,-334.1813 158.8769,-324.4133 149.5779,-329.4906 154.7738,-334.1813"/>
</g>
<!-- 12&#45;&gt;1 -->
<g id="edge4" class="edge">
<title>12&#45;&gt;1</title>
<path fill="none" stroke="#c0c0c0" stroke-width="2" d="M220.5,-71.8314C220.5,-64.131 220.5,-54.9743 220.5,-46.4166"/>
<polygon fill="#c0c0c0" stroke="#c0c0c0" stroke-width="2" points="224.0001,-46.4132 220.5,-36.4133 217.0001,-46.4133 224.0001,-46.4132"/>
</g>
<!-- 13&#45;&gt;8 -->
<g id="edge15" class="edge">
<title>13&#45;&gt;8</title>
<path fill="none" stroke="#c0c0c0" stroke-width="2" d="M200.1727,-359.8314C196.527,-351.8771 192.1691,-342.369 188.1373,-333.5723"/>
<polygon fill="#c0c0c0" stroke="#c0c0c0" stroke-width="2" points="191.2877,-332.0456 183.9394,-324.4133 184.9243,-334.9622 191.2877,-332.0456"/>
</g>
<!-- 14 -->
<g id="node15" class="node">
<title>14</title>
<path fill="none" stroke="#569ad8" stroke-width="2" d="M442.5,-324C442.5,-324 396.5,-324 396.5,-324 390.5,-324 384.5,-318 384.5,-312 384.5,-312 384.5,-300 384.5,-300 384.5,-294 390.5,-288 396.5,-288 396.5,-288 442.5,-288 442.5,-288 448.5,-288 454.5,-294 454.5,-300 454.5,-300 454.5,-312 454.5,-312 454.5,-318 448.5,-324 442.5,-324"/>
<text text-anchor="middle" x="419.5" y="-303.5" font-family="sans" font-size="10.00" fill="#000000">load_index</text>
</g>
<!-- 14&#45;&gt;9 -->
<g id="edge16" class="edge">
<title>14&#45;&gt;9</title>
<path fill="none" stroke="#c0c0c0" stroke-width="2" d="M419.5,-287.8314C419.5,-280.131 419.5,-270.9743 419.5,-262.4166"/>
<polygon fill="#c0c0c0" stroke="#c0c0c0" stroke-width="2" points="423.0001,-262.4132 419.5,-252.4133 416.0001,-262.4133 423.0001,-262.4132"/>
</g>
<!-- 15 -->
<g id="node16" class="node">
<title>15</title>
<path fill="none" stroke="#567bd8" stroke-width="2" d="M257.5,-540C257.5,-540 227.5,-540 227.5,-540 221.5,-540 215.5,-534 215.5,-528 215.5,-528 215.5,-516 215.5,-516 215.5,-510 221.5,-504 227.5,-504 227.5,-504 257.5,-504 257.5,-504 263.5,-504 269.5,-510 269.5,-516 269.5,-516 269.5,-528 269.5,-528 269.5,-534 263.5,-540 257.5,-540"/>
<text text-anchor="middle" x="242.5" y="-519.5" font-family="sans" font-size="10.00" fill="#000000">load_sn</text>
</g>
<!-- 15&#45;&gt;3 -->
<g id="edge9" class="edge">
<title>15&#45;&gt;3</title>
<path fill="none" stroke="#c0c0c0" stroke-width="2" d="M242.5,-503.8314C242.5,-496.131 242.5,-486.9743 242.5,-478.4166"/>
<polygon fill="#c0c0c0" stroke="#c0c0c0" stroke-width="2" points="246.0001,-478.4132 242.5,-468.4133 239.0001,-478.4133 246.0001,-478.4132"/>
</g>
</g>
</svg>
