<?xml version="1.0" encoding="UTF-8" standalone="no"?>
<!DOCTYPE svg PUBLIC "-//W3C//DTD SVG 1.1//EN"
 "http://www.w3.org/Graphics/SVG/1.1/DTD/svg11.dtd">
<!-- Generated by graphviz version 2.40.1 (0)
 -->
<!-- Title: snakemake_dag Pages: 1 -->
<svg width="360pt" height="764pt"
 viewBox="0.00 0.00 360.00 764.00" xmlns="http://www.w3.org/2000/svg" xmlns:xlink="http://www.w3.org/1999/xlink">
<g id="graph0" class="graph" transform="scale(1 1) rotate(0) translate(4 760)">
<title>snakemake_dag</title>
<polygon fill="#ffffff" stroke="transparent" points="-4,4 -4,-760 356,-760 356,4 -4,4"/>
<!-- 0 -->
<g id="node1" class="node">
<title>0</title>
<path fill="none" stroke="#d85656" stroke-width="2" d="M177,-36C177,-36 147,-36 147,-36 141,-36 135,-30 135,-24 135,-24 135,-12 135,-12 135,-6 141,0 147,0 147,0 177,0 177,0 183,0 189,-6 189,-12 189,-12 189,-24 189,-24 189,-30 183,-36 177,-36"/>
<text text-anchor="middle" x="162" y="-15.5" font-family="sans" font-size="10.00" fill="#000000">all</text>
</g>
<!-- 1 -->
<g id="node2" class="node">
<title>1</title>
<path fill="none" stroke="#d88d56" stroke-width="2" d="M155,-324C155,-324 105,-324 105,-324 99,-324 93,-318 93,-312 93,-312 93,-300 93,-300 93,-294 99,-288 105,-288 105,-288 155,-288 155,-288 161,-288 167,-294 167,-300 167,-300 167,-312 167,-312 167,-318 161,-324 155,-324"/>
<text text-anchor="middle" x="130" y="-303.5" font-family="sans" font-size="10.00" fill="#000000">findMarkers</text>
</g>
<!-- 1&#45;&gt;0 -->
<g id="edge1" class="edge">
<title>1&#45;&gt;0</title>
<path fill="none" stroke="#c0c0c0" stroke-width="2" d="M130.7194,-287.9958C132.4716,-248.6263 137.748,-152.0019 150,-72 151.288,-63.5898 153.1217,-54.5333 154.9691,-46.2852"/>
<polygon fill="#c0c0c0" stroke="#c0c0c0" stroke-width="2" points="158.4166,-46.9126 157.2765,-36.3793 151.5991,-45.3246 158.4166,-46.9126"/>
</g>
<!-- 6 -->
<g id="node7" class="node">
<title>6</title>
<path fill="none" stroke="#88d856" stroke-width="2" d="M223.5,-252C223.5,-252 170.5,-252 170.5,-252 164.5,-252 158.5,-246 158.5,-240 158.5,-240 158.5,-228 158.5,-228 158.5,-222 164.5,-216 170.5,-216 170.5,-216 223.5,-216 223.5,-216 229.5,-216 235.5,-222 235.5,-228 235.5,-228 235.5,-240 235.5,-240 235.5,-246 229.5,-252 223.5,-252"/>
<text text-anchor="middle" x="197" y="-231.5" font-family="sans" font-size="10.00" fill="#000000">deconvolute</text>
</g>
<!-- 1&#45;&gt;6 -->
<g id="edge13" class="edge">
<title>1&#45;&gt;6</title>
<path fill="none" stroke="#c0c0c0" stroke-width="2" d="M146.9069,-287.8314C154.7813,-279.3694 164.292,-269.1489 172.9013,-259.8971"/>
<polygon fill="#c0c0c0" stroke="#c0c0c0" stroke-width="2" points="175.6153,-262.1183 179.8654,-252.4133 170.4908,-257.3497 175.6153,-262.1183"/>
</g>
<!-- 7 -->
<g id="node8" class="node">
<title>7</title>
<path fill="none" stroke="#59d856" stroke-width="2" d="M90,-180C90,-180 40,-180 40,-180 34,-180 28,-174 28,-168 28,-168 28,-156 28,-156 28,-150 34,-144 40,-144 40,-144 90,-144 90,-144 96,-144 102,-150 102,-156 102,-156 102,-168 102,-168 102,-174 96,-180 90,-180"/>
<text text-anchor="middle" x="65" y="-159.5" font-family="sans" font-size="10.00" fill="#000000">plotMarkers</text>
</g>
<!-- 1&#45;&gt;7 -->
<g id="edge15" class="edge">
<title>1&#45;&gt;7</title>
<path fill="none" stroke="#c0c0c0" stroke-width="2" d="M121.7677,-287.7623C110.5345,-262.8764 90.3149,-218.0822 77.2852,-189.2165"/>
<polygon fill="#c0c0c0" stroke="#c0c0c0" stroke-width="2" points="80.4698,-187.7641 73.1655,-180.0896 74.0896,-190.6441 80.4698,-187.7641"/>
</g>
<!-- 2 -->
<g id="node3" class="node">
<title>2</title>
<path fill="none" stroke="#d86e56" stroke-width="2" d="M227.5,-684C227.5,-684 166.5,-684 166.5,-684 160.5,-684 154.5,-678 154.5,-672 154.5,-672 154.5,-660 154.5,-660 154.5,-654 160.5,-648 166.5,-648 166.5,-648 227.5,-648 227.5,-648 233.5,-648 239.5,-654 239.5,-660 239.5,-660 239.5,-672 239.5,-672 239.5,-678 233.5,-684 227.5,-684"/>
<text text-anchor="middle" x="197" y="-663.5" font-family="sans" font-size="10.00" fill="#000000">salmon_index</text>
</g>
<!-- 12 -->
<g id="node13" class="node">
<title>12</title>
<path fill="none" stroke="#56d8d8" stroke-width="2" d="M228,-612C228,-612 166,-612 166,-612 160,-612 154,-606 154,-600 154,-600 154,-588 154,-588 154,-582 160,-576 166,-576 166,-576 228,-576 228,-576 234,-576 240,-582 240,-588 240,-588 240,-600 240,-600 240,-606 234,-612 228,-612"/>
<text text-anchor="middle" x="197" y="-591.5" font-family="sans" font-size="10.00" fill="#000000">salmon_quant</text>
</g>
<!-- 2&#45;&gt;12 -->
<g id="edge23" class="edge">
<title>2&#45;&gt;12</title>
<path fill="none" stroke="#c0c0c0" stroke-width="2" d="M197,-647.8314C197,-640.131 197,-630.9743 197,-622.4166"/>
<polygon fill="#c0c0c0" stroke="#c0c0c0" stroke-width="2" points="200.5001,-622.4132 197,-612.4133 193.5001,-622.4133 200.5001,-622.4132"/>
</g>
<!-- 3 -->
<g id="node4" class="node">
<title>3</title>
<path fill="none" stroke="#d8a456" stroke-width="2" d="M149,-468C149,-468 69,-468 69,-468 63,-468 57,-462 57,-456 57,-456 57,-444 57,-444 57,-438 63,-432 69,-432 69,-432 149,-432 149,-432 155,-432 161,-438 161,-444 161,-444 161,-456 161,-456 161,-462 155,-468 149,-468"/>
<text text-anchor="middle" x="109" y="-447.5" font-family="sans" font-size="10.00" fill="#000000">ambient_doublets</text>
</g>
<!-- 9 -->
<g id="node10" class="node">
<title>9</title>
<path fill="none" stroke="#56d88a" stroke-width="2" d="M131.5,-396C131.5,-396 90.5,-396 90.5,-396 84.5,-396 78.5,-390 78.5,-384 78.5,-384 78.5,-372 78.5,-372 78.5,-366 84.5,-360 90.5,-360 90.5,-360 131.5,-360 131.5,-360 137.5,-360 143.5,-366 143.5,-372 143.5,-372 143.5,-384 143.5,-384 143.5,-390 137.5,-396 131.5,-396"/>
<text text-anchor="middle" x="111" y="-375.5" font-family="sans" font-size="10.00" fill="#000000">merge_sn</text>
</g>
<!-- 3&#45;&gt;9 -->
<g id="edge17" class="edge">
<title>3&#45;&gt;9</title>
<path fill="none" stroke="#c0c0c0" stroke-width="2" d="M109.5047,-431.8314C109.7186,-424.131 109.9729,-414.9743 110.2106,-406.4166"/>
<polygon fill="#c0c0c0" stroke="#c0c0c0" stroke-width="2" points="113.7094,-406.5066 110.4885,-396.4133 106.7121,-406.3122 113.7094,-406.5066"/>
</g>
<!-- 4 -->
<g id="node5" class="node">
<title>4</title>
<path fill="none" stroke="#d6d856" stroke-width="2" d="M58,-540C58,-540 28,-540 28,-540 22,-540 16,-534 16,-528 16,-528 16,-516 16,-516 16,-510 22,-504 28,-504 28,-504 58,-504 58,-504 64,-504 70,-510 70,-516 70,-516 70,-528 70,-528 70,-534 64,-540 58,-540"/>
<text text-anchor="middle" x="43" y="-519.5" font-family="sans" font-size="10.00" fill="#000000">multiqc</text>
</g>
<!-- 4&#45;&gt;0 -->
<g id="edge2" class="edge">
<title>4&#45;&gt;0</title>
<path fill="none" stroke="#c0c0c0" stroke-width="2" d="M33.8808,-503.8786C21.2585,-477.076 0,-424.9635 0,-378 0,-378 0,-378 0,-162 0,-95.2873 77.6935,-51.914 125.4713,-31.5486"/>
<polygon fill="#c0c0c0" stroke="#c0c0c0" stroke-width="2" points="126.9742,-34.7148 134.8848,-27.667 124.3057,-28.2434 126.9742,-34.7148"/>
</g>
<!-- 5 -->
<g id="node6" class="node">
<title>5</title>
<path fill="none" stroke="#bed856" stroke-width="2" d="M327,-612C327,-612 295,-612 295,-612 289,-612 283,-606 283,-600 283,-600 283,-588 283,-588 283,-582 289,-576 295,-576 295,-576 327,-576 327,-576 333,-576 339,-582 339,-588 339,-588 339,-600 339,-600 339,-606 333,-612 327,-612"/>
<text text-anchor="middle" x="311" y="-591.5" font-family="sans" font-size="10.00" fill="#000000">load_gtf</text>
</g>
<!-- 5&#45;&gt;0 -->
<g id="edge3" class="edge">
<title>5&#45;&gt;0</title>
<path fill="none" stroke="#c0c0c0" stroke-width="2" d="M319.695,-575.8324C331.7302,-548.9721 352,-496.7885 352,-450 352,-450 352,-450 352,-162 352,-118.4059 344.818,-101.8004 313,-72 281.4176,-42.4203 232.5264,-28.8534 198.9843,-22.7588"/>
<polygon fill="#c0c0c0" stroke="#c0c0c0" stroke-width="2" points="199.5455,-19.3041 189.1036,-21.0978 198.385,-26.2072 199.5455,-19.3041"/>
</g>
<!-- 11 -->
<g id="node12" class="node">
<title>11</title>
<path fill="none" stroke="#70d856" stroke-width="2" d="M220.5,-540C220.5,-540 185.5,-540 185.5,-540 179.5,-540 173.5,-534 173.5,-528 173.5,-528 173.5,-516 173.5,-516 173.5,-510 179.5,-504 185.5,-504 185.5,-504 220.5,-504 220.5,-504 226.5,-504 232.5,-510 232.5,-516 232.5,-516 232.5,-528 232.5,-528 232.5,-534 226.5,-540 220.5,-540"/>
<text text-anchor="middle" x="203" y="-519.5" font-family="sans" font-size="10.00" fill="#000000">tximport</text>
</g>
<!-- 5&#45;&gt;11 -->
<g id="edge21" class="edge">
<title>5&#45;&gt;11</title>
<path fill="none" stroke="#c0c0c0" stroke-width="2" d="M283.747,-575.8314C270.0611,-566.7074 253.3085,-555.539 238.6173,-545.7449"/>
<polygon fill="#c0c0c0" stroke="#c0c0c0" stroke-width="2" points="240.5062,-542.7977 230.2442,-540.1628 236.6233,-548.6221 240.5062,-542.7977"/>
</g>
<!-- 10 -->
<g id="node11" class="node">
<title>10</title>
<path fill="none" stroke="#56d8c1" stroke-width="2" d="M311.5,-180C311.5,-180 216.5,-180 216.5,-180 210.5,-180 204.5,-174 204.5,-168 204.5,-168 204.5,-156 204.5,-156 204.5,-150 210.5,-144 216.5,-144 216.5,-144 311.5,-144 311.5,-144 317.5,-144 323.5,-150 323.5,-156 323.5,-156 323.5,-168 323.5,-168 323.5,-174 317.5,-180 311.5,-180"/>
<text text-anchor="middle" x="264" y="-159.5" font-family="sans" font-size="10.00" fill="#000000">diffential_expression</text>
</g>
<!-- 6&#45;&gt;10 -->
<g id="edge18" class="edge">
<title>6&#45;&gt;10</title>
<path fill="none" stroke="#c0c0c0" stroke-width="2" d="M213.9069,-215.8314C221.7813,-207.3694 231.292,-197.1489 239.9013,-187.8971"/>
<polygon fill="#c0c0c0" stroke="#c0c0c0" stroke-width="2" points="242.6153,-190.1183 246.8654,-180.4133 237.4908,-185.3497 242.6153,-190.1183"/>
</g>
<!-- 14 -->
<g id="node15" class="node">
<title>14</title>
<path fill="none" stroke="#d8bc56" stroke-width="2" d="M219.5,-108C219.5,-108 170.5,-108 170.5,-108 164.5,-108 158.5,-102 158.5,-96 158.5,-96 158.5,-84 158.5,-84 158.5,-78 164.5,-72 170.5,-72 170.5,-72 219.5,-72 219.5,-72 225.5,-72 231.5,-78 231.5,-84 231.5,-84 231.5,-96 231.5,-96 231.5,-102 225.5,-108 219.5,-108"/>
<text text-anchor="middle" x="195" y="-87.5" font-family="sans" font-size="10.00" fill="#000000">plot_comps</text>
</g>
<!-- 6&#45;&gt;14 -->
<g id="edge24" class="edge">
<title>6&#45;&gt;14</title>
<path fill="none" stroke="#c0c0c0" stroke-width="2" d="M196.6237,-215.5062C196.42,-205.0792 196.175,-191.8132 196,-180 195.6952,-159.4273 195.4394,-136.208 195.2628,-118.5072"/>
<polygon fill="#c0c0c0" stroke="#c0c0c0" stroke-width="2" points="198.7605,-118.2375 195.1634,-108.272 191.7608,-118.3056 198.7605,-118.2375"/>
</g>
<!-- 7&#45;&gt;0 -->
<g id="edge4" class="edge">
<title>7&#45;&gt;0</title>
<path fill="none" stroke="#c0c0c0" stroke-width="2" d="M74.0085,-143.8041C83.5248,-125.1798 99.4226,-95.6905 116,-72 122.7033,-62.4205 130.7611,-52.5195 138.2469,-43.8529"/>
<polygon fill="#c0c0c0" stroke="#c0c0c0" stroke-width="2" points="140.9272,-46.1051 144.9055,-36.2855 135.672,-41.481 140.9272,-46.1051"/>
</g>
<!-- 8 -->
<g id="node9" class="node">
<title>8</title>
<path fill="none" stroke="#56d8a2" stroke-width="2" d="M292,-108C292,-108 262,-108 262,-108 256,-108 250,-102 250,-96 250,-96 250,-84 250,-84 250,-78 256,-72 262,-72 262,-72 292,-72 292,-72 298,-72 304,-78 304,-84 304,-84 304,-96 304,-96 304,-102 298,-108 292,-108"/>
<text text-anchor="middle" x="277" y="-87.5" font-family="sans" font-size="10.00" fill="#000000">plot_de</text>
</g>
<!-- 8&#45;&gt;0 -->
<g id="edge5" class="edge">
<title>8&#45;&gt;0</title>
<path fill="none" stroke="#c0c0c0" stroke-width="2" d="M249.7466,-72.937C234.1358,-63.1633 214.367,-50.7863 197.547,-40.2555"/>
<polygon fill="#c0c0c0" stroke="#c0c0c0" stroke-width="2" points="199.391,-37.2806 189.0578,-34.9405 195.6763,-43.2137 199.391,-37.2806"/>
</g>
<!-- 9&#45;&gt;1 -->
<g id="edge7" class="edge">
<title>9&#45;&gt;1</title>
<path fill="none" stroke="#c0c0c0" stroke-width="2" d="M115.7945,-359.8314C117.8489,-352.0463 120.296,-342.7729 122.5756,-334.1347"/>
<polygon fill="#c0c0c0" stroke="#c0c0c0" stroke-width="2" points="125.9735,-334.9753 125.1409,-324.4133 119.2052,-333.1892 125.9735,-334.9753"/>
</g>
<!-- 10&#45;&gt;8 -->
<g id="edge16" class="edge">
<title>10&#45;&gt;8</title>
<path fill="none" stroke="#c0c0c0" stroke-width="2" d="M267.2804,-143.8314C268.6708,-136.131 270.3241,-126.9743 271.8692,-118.4166"/>
<polygon fill="#c0c0c0" stroke="#c0c0c0" stroke-width="2" points="275.3428,-118.8761 273.6754,-108.4133 268.4542,-117.6322 275.3428,-118.8761"/>
</g>
<!-- 17 -->
<g id="node18" class="node">
<title>17</title>
<path fill="none" stroke="#568ad8" stroke-width="2" d="M237,-468C237,-468 191,-468 191,-468 185,-468 179,-462 179,-456 179,-456 179,-444 179,-444 179,-438 185,-432 191,-432 191,-432 237,-432 237,-432 243,-432 249,-438 249,-444 249,-444 249,-456 249,-456 249,-462 243,-468 237,-468"/>
<text text-anchor="middle" x="214" y="-447.5" font-family="sans" font-size="10.00" fill="#000000">ensb2gene</text>
</g>
<!-- 11&#45;&gt;17 -->
<g id="edge25" class="edge">
<title>11&#45;&gt;17</title>
<path fill="none" stroke="#c0c0c0" stroke-width="2" d="M205.7758,-503.8314C206.9522,-496.131 208.3511,-486.9743 209.6586,-478.4166"/>
<polygon fill="#c0c0c0" stroke="#c0c0c0" stroke-width="2" points="213.1364,-478.8272 211.1869,-468.4133 206.2167,-477.7699 213.1364,-478.8272"/>
</g>
<!-- 12&#45;&gt;4 -->
<g id="edge12" class="edge">
<title>12&#45;&gt;4</title>
<path fill="none" stroke="#c0c0c0" stroke-width="2" d="M156.6975,-575.9711C135.8759,-566.5626 109.8878,-554.6752 79.2772,-540.069"/>
<polygon fill="#c0c0c0" stroke="#c0c0c0" stroke-width="2" points="80.6086,-536.826 70.0776,-535.6638 77.5853,-543.1395 80.6086,-536.826"/>
</g>
<!-- 12&#45;&gt;11 -->
<g id="edge22" class="edge">
<title>12&#45;&gt;11</title>
<path fill="none" stroke="#c0c0c0" stroke-width="2" d="M198.5141,-575.8314C199.1558,-568.131 199.9188,-558.9743 200.6319,-550.4166"/>
<polygon fill="#c0c0c0" stroke="#c0c0c0" stroke-width="2" points="204.1229,-550.6694 201.4656,-540.4133 197.1471,-550.088 204.1229,-550.6694"/>
</g>
<!-- 13 -->
<g id="node14" class="node">
<title>13</title>
<path fill="none" stroke="#56c1d8" stroke-width="2" d="M102,-612C102,-612 72,-612 72,-612 66,-612 60,-606 60,-600 60,-600 60,-588 60,-588 60,-582 66,-576 72,-576 72,-576 102,-576 102,-576 108,-576 114,-582 114,-588 114,-588 114,-600 114,-600 114,-606 108,-612 102,-612"/>
<text text-anchor="middle" x="87" y="-591.5" font-family="sans" font-size="10.00" fill="#000000">fastqc</text>
</g>
<!-- 13&#45;&gt;4 -->
<g id="edge11" class="edge">
<title>13&#45;&gt;4</title>
<path fill="none" stroke="#c0c0c0" stroke-width="2" d="M75.8969,-575.8314C70.9326,-567.7079 64.9778,-557.9637 59.5072,-549.0118"/>
<polygon fill="#c0c0c0" stroke="#c0c0c0" stroke-width="2" points="62.4536,-547.121 54.2526,-540.4133 56.4806,-550.7712 62.4536,-547.121"/>
</g>
<!-- 13&#45;&gt;11 -->
<g id="edge20" class="edge">
<title>13&#45;&gt;11</title>
<path fill="none" stroke="#c0c0c0" stroke-width="2" d="M114.1968,-577.1192C129.3393,-567.7204 148.4279,-555.8723 165.0235,-545.5716"/>
<polygon fill="#c0c0c0" stroke="#c0c0c0" stroke-width="2" points="167.2952,-548.2811 173.9458,-540.0336 163.6036,-542.3336 167.2952,-548.2811"/>
</g>
<!-- 14&#45;&gt;0 -->
<g id="edge6" class="edge">
<title>14&#45;&gt;0</title>
<path fill="none" stroke="#c0c0c0" stroke-width="2" d="M186.6727,-71.8314C183.027,-63.8771 178.6691,-54.369 174.6373,-45.5723"/>
<polygon fill="#c0c0c0" stroke="#c0c0c0" stroke-width="2" points="177.7877,-44.0456 170.4394,-36.4133 171.4243,-46.9622 177.7877,-44.0456"/>
</g>
<!-- 15 -->
<g id="node16" class="node">
<title>15</title>
<path fill="none" stroke="#5673d8" stroke-width="2" d="M220,-756C220,-756 174,-756 174,-756 168,-756 162,-750 162,-744 162,-744 162,-732 162,-732 162,-726 168,-720 174,-720 174,-720 220,-720 220,-720 226,-720 232,-726 232,-732 232,-732 232,-744 232,-744 232,-750 226,-756 220,-756"/>
<text text-anchor="middle" x="197" y="-735.5" font-family="sans" font-size="10.00" fill="#000000">load_index</text>
</g>
<!-- 15&#45;&gt;2 -->
<g id="edge9" class="edge">
<title>15&#45;&gt;2</title>
<path fill="none" stroke="#c0c0c0" stroke-width="2" d="M197,-719.8314C197,-712.131 197,-702.9743 197,-694.4166"/>
<polygon fill="#c0c0c0" stroke="#c0c0c0" stroke-width="2" points="200.5001,-694.4132 197,-684.4133 193.5001,-694.4133 200.5001,-694.4132"/>
</g>
<!-- 16 -->
<g id="node17" class="node">
<title>16</title>
<path fill="none" stroke="#56d873" stroke-width="2" d="M130,-540C130,-540 100,-540 100,-540 94,-540 88,-534 88,-528 88,-528 88,-516 88,-516 88,-510 94,-504 100,-504 100,-504 130,-504 130,-504 136,-504 142,-510 142,-516 142,-516 142,-528 142,-528 142,-534 136,-540 130,-540"/>
<text text-anchor="middle" x="115" y="-519.5" font-family="sans" font-size="10.00" fill="#000000">load_sn</text>
</g>
<!-- 16&#45;&gt;3 -->
<g id="edge10" class="edge">
<title>16&#45;&gt;3</title>
<path fill="none" stroke="#c0c0c0" stroke-width="2" d="M113.4859,-503.8314C112.8442,-496.131 112.0812,-486.9743 111.3681,-478.4166"/>
<polygon fill="#c0c0c0" stroke="#c0c0c0" stroke-width="2" points="114.8529,-478.088 110.5344,-468.4133 107.8771,-478.6694 114.8529,-478.088"/>
</g>
<!-- 18 -->
<g id="node19" class="node">
<title>18</title>
<path fill="none" stroke="#56a2d8" stroke-width="2" d="M227.5,-396C227.5,-396 182.5,-396 182.5,-396 176.5,-396 170.5,-390 170.5,-384 170.5,-384 170.5,-372 170.5,-372 170.5,-366 176.5,-360 182.5,-360 182.5,-360 227.5,-360 227.5,-360 233.5,-360 239.5,-366 239.5,-372 239.5,-372 239.5,-384 239.5,-384 239.5,-390 233.5,-396 227.5,-396"/>
<text text-anchor="middle" x="205" y="-375.5" font-family="sans" font-size="10.00" fill="#000000">clean_bulk</text>
</g>
<!-- 17&#45;&gt;18 -->
<g id="edge26" class="edge">
<title>17&#45;&gt;18</title>
<path fill="none" stroke="#c0c0c0" stroke-width="2" d="M211.7289,-431.8314C210.7664,-424.131 209.6218,-414.9743 208.5521,-406.4166"/>
<polygon fill="#c0c0c0" stroke="#c0c0c0" stroke-width="2" points="212.0151,-405.9019 207.3017,-396.4133 205.0691,-406.7702 212.0151,-405.9019"/>
</g>
<!-- 18&#45;&gt;1 -->
<g id="edge8" class="edge">
<title>18&#45;&gt;1</title>
<path fill="none" stroke="#c0c0c0" stroke-width="2" d="M186.0743,-359.8314C177.0143,-351.1337 166.0191,-340.5783 156.1735,-331.1265"/>
<polygon fill="#c0c0c0" stroke="#c0c0c0" stroke-width="2" points="158.5574,-328.5633 148.9196,-324.1628 153.7096,-333.613 158.5574,-328.5633"/>
</g>
<!-- 18&#45;&gt;6 -->
<g id="edge14" class="edge">
<title>18&#45;&gt;6</title>
<path fill="none" stroke="#c0c0c0" stroke-width="2" d="M203.9868,-359.7623C202.6223,-335.201 200.1804,-291.2474 198.5752,-262.3541"/>
<polygon fill="#c0c0c0" stroke="#c0c0c0" stroke-width="2" points="202.0544,-261.88 198.005,-252.0896 195.0652,-262.2684 202.0544,-261.88"/>
</g>
<!-- 18&#45;&gt;10 -->
<g id="edge19" class="edge">
<title>18&#45;&gt;10</title>
<path fill="none" stroke="#c0c0c0" stroke-width="2" d="M211.4048,-359.8041C219.8298,-335.4567 234.7629,-290.8374 245,-252 250.4186,-231.4429 255.3397,-207.9282 258.8153,-190.0909"/>
<polygon fill="#c0c0c0" stroke="#c0c0c0" stroke-width="2" points="262.2942,-190.5328 260.7358,-180.0532 255.4189,-189.2174 262.2942,-190.5328"/>
</g>
</g>
</svg>
