<?xml version="1.0" encoding="UTF-8" standalone="no"?>
<!DOCTYPE svg PUBLIC "-//W3C//DTD SVG 1.1//EN"
 "http://www.w3.org/Graphics/SVG/1.1/DTD/svg11.dtd">
<!-- Generated by graphviz version 2.40.1 (0)
 -->
<!-- Title: snakemake_dag Pages: 1 -->
<svg width="537pt" height="908pt"
 viewBox="0.00 0.00 536.51 908.00" xmlns="http://www.w3.org/2000/svg" xmlns:xlink="http://www.w3.org/1999/xlink">
<g id="graph0" class="graph" transform="scale(1 1) rotate(0) translate(4 904)">
<title>snakemake_dag</title>
<polygon fill="#ffffff" stroke="transparent" points="-4,4 -4,-904 532.5102,-904 532.5102,4 -4,4"/>
<!-- 0 -->
<g id="node1" class="node">
<title>0</title>
<path fill="none" stroke="#56d8a2" stroke-width="2" d="M304.5102,-36C304.5102,-36 274.5102,-36 274.5102,-36 268.5102,-36 262.5102,-30 262.5102,-24 262.5102,-24 262.5102,-12 262.5102,-12 262.5102,-6 268.5102,0 274.5102,0 274.5102,0 304.5102,0 304.5102,0 310.5102,0 316.5102,-6 316.5102,-12 316.5102,-12 316.5102,-24 316.5102,-24 316.5102,-30 310.5102,-36 304.5102,-36"/>
<text text-anchor="middle" x="289.5102" y="-15.5" font-family="sans" font-size="10.00" fill="#000000">all</text>
</g>
<!-- 1 -->
<g id="node2" class="node">
<title>1</title>
<path fill="none" stroke="#d8bc56" stroke-width="2" d="M337.5102,-540C337.5102,-540 307.5102,-540 307.5102,-540 301.5102,-540 295.5102,-534 295.5102,-528 295.5102,-528 295.5102,-516 295.5102,-516 295.5102,-510 301.5102,-504 307.5102,-504 307.5102,-504 337.5102,-504 337.5102,-504 343.5102,-504 349.5102,-510 349.5102,-516 349.5102,-516 349.5102,-528 349.5102,-528 349.5102,-534 343.5102,-540 337.5102,-540"/>
<text text-anchor="middle" x="322.5102" y="-519.5" font-family="sans" font-size="10.00" fill="#000000">multiqc</text>
</g>
<!-- 1&#45;&gt;0 -->
<g id="edge3" class="edge">
<title>1&#45;&gt;0</title>
<path fill="none" stroke="#c0c0c0" stroke-width="2" d="M322.5102,-503.8146C322.5102,-476.4983 322.5102,-423.25 322.5102,-378 322.5102,-378 322.5102,-378 322.5102,-162 322.5102,-120.8829 309.5692,-74.7926 299.895,-46.082"/>
<polygon fill="#c0c0c0" stroke="#c0c0c0" stroke-width="2" points="303.0959,-44.6302 296.5086,-36.3321 296.4834,-46.9269 303.0959,-44.6302"/>
</g>
<!-- 2 -->
<g id="node3" class="node">
<title>2</title>
<path fill="none" stroke="#9fd856" stroke-width="2" d="M272.5102,-612C272.5102,-612 210.5102,-612 210.5102,-612 204.5102,-612 198.5102,-606 198.5102,-600 198.5102,-600 198.5102,-588 198.5102,-588 198.5102,-582 204.5102,-576 210.5102,-576 210.5102,-576 272.5102,-576 272.5102,-576 278.5102,-576 284.5102,-582 284.5102,-588 284.5102,-588 284.5102,-600 284.5102,-600 284.5102,-606 278.5102,-612 272.5102,-612"/>
<text text-anchor="middle" x="241.5102" y="-591.5" font-family="sans" font-size="10.00" fill="#000000">salmon_quant</text>
</g>
<!-- 2&#45;&gt;1 -->
<g id="edge12" class="edge">
<title>2&#45;&gt;1</title>
<path fill="none" stroke="#c0c0c0" stroke-width="2" d="M261.9499,-575.8314C271.8307,-567.0485 283.8426,-556.3712 294.5552,-546.8489"/>
<polygon fill="#c0c0c0" stroke="#c0c0c0" stroke-width="2" points="296.9282,-549.4224 302.077,-540.1628 292.2776,-544.1906 296.9282,-549.4224"/>
</g>
<!-- 18 -->
<g id="node19" class="node">
<title>18</title>
<path fill="none" stroke="#5692d8" stroke-width="2" d="M259.0102,-540C259.0102,-540 224.0102,-540 224.0102,-540 218.0102,-540 212.0102,-534 212.0102,-528 212.0102,-528 212.0102,-516 212.0102,-516 212.0102,-510 218.0102,-504 224.0102,-504 224.0102,-504 259.0102,-504 259.0102,-504 265.0102,-504 271.0102,-510 271.0102,-516 271.0102,-516 271.0102,-528 271.0102,-528 271.0102,-534 265.0102,-540 259.0102,-540"/>
<text text-anchor="middle" x="241.5102" y="-519.5" font-family="sans" font-size="10.00" fill="#000000">tximport</text>
</g>
<!-- 2&#45;&gt;18 -->
<g id="edge30" class="edge">
<title>2&#45;&gt;18</title>
<path fill="none" stroke="#c0c0c0" stroke-width="2" d="M241.5102,-575.8314C241.5102,-568.131 241.5102,-558.9743 241.5102,-550.4166"/>
<polygon fill="#c0c0c0" stroke="#c0c0c0" stroke-width="2" points="245.0103,-550.4132 241.5102,-540.4133 238.0103,-550.4133 245.0103,-550.4132"/>
</g>
<!-- 3 -->
<g id="node4" class="node">
<title>3</title>
<path fill="none" stroke="#566bd8" stroke-width="2" d="M360.0102,-684C360.0102,-684 299.0102,-684 299.0102,-684 293.0102,-684 287.0102,-678 287.0102,-672 287.0102,-672 287.0102,-660 287.0102,-660 287.0102,-654 293.0102,-648 299.0102,-648 299.0102,-648 360.0102,-648 360.0102,-648 366.0102,-648 372.0102,-654 372.0102,-660 372.0102,-660 372.0102,-672 372.0102,-672 372.0102,-678 366.0102,-684 360.0102,-684"/>
<text text-anchor="middle" x="329.5102" y="-663.5" font-family="sans" font-size="10.00" fill="#000000">salmon_index</text>
</g>
<!-- 3&#45;&gt;2 -->
<g id="edge13" class="edge">
<title>3&#45;&gt;2</title>
<path fill="none" stroke="#c0c0c0" stroke-width="2" d="M307.3041,-647.8314C296.4652,-638.9632 283.2658,-628.1637 271.5424,-618.5718"/>
<polygon fill="#c0c0c0" stroke="#c0c0c0" stroke-width="2" points="273.6651,-615.7864 263.7092,-612.1628 269.2324,-621.2041 273.6651,-615.7864"/>
</g>
<!-- 4 -->
<g id="node5" class="node">
<title>4</title>
<path fill="none" stroke="#56d8b1" stroke-width="2" d="M366.0102,-828C366.0102,-828 293.0102,-828 293.0102,-828 287.0102,-828 281.0102,-822 281.0102,-816 281.0102,-816 281.0102,-804 281.0102,-804 281.0102,-798 287.0102,-792 293.0102,-792 293.0102,-792 366.0102,-792 366.0102,-792 372.0102,-792 378.0102,-798 378.0102,-804 378.0102,-804 378.0102,-816 378.0102,-816 378.0102,-822 372.0102,-828 366.0102,-828"/>
<text text-anchor="middle" x="329.5102" y="-807.5" font-family="sans" font-size="10.00" fill="#000000">make_gentrome</text>
</g>
<!-- 4&#45;&gt;3 -->
<g id="edge14" class="edge">
<title>4&#45;&gt;3</title>
<path fill="none" stroke="#c0c0c0" stroke-width="2" d="M329.5102,-791.7623C329.5102,-767.201 329.5102,-723.2474 329.5102,-694.3541"/>
<polygon fill="#c0c0c0" stroke="#c0c0c0" stroke-width="2" points="333.0103,-694.0896 329.5102,-684.0896 326.0103,-694.0897 333.0103,-694.0896"/>
</g>
<!-- 5 -->
<g id="node6" class="node">
<title>5</title>
<path fill="none" stroke="#d85656" stroke-width="2" d="M467.0102,-900C467.0102,-900 408.0102,-900 408.0102,-900 402.0102,-900 396.0102,-894 396.0102,-888 396.0102,-888 396.0102,-876 396.0102,-876 396.0102,-870 402.0102,-864 408.0102,-864 408.0102,-864 467.0102,-864 467.0102,-864 473.0102,-864 479.0102,-870 479.0102,-876 479.0102,-876 479.0102,-888 479.0102,-888 479.0102,-894 473.0102,-900 467.0102,-900"/>
<text text-anchor="middle" x="437.5102" y="-879.5" font-family="sans" font-size="10.00" fill="#000000">load_toplevel</text>
</g>
<!-- 5&#45;&gt;4 -->
<g id="edge16" class="edge">
<title>5&#45;&gt;4</title>
<path fill="none" stroke="#c0c0c0" stroke-width="2" d="M410.2572,-863.8314C396.5713,-854.7074 379.8187,-843.539 365.1275,-833.7449"/>
<polygon fill="#c0c0c0" stroke="#c0c0c0" stroke-width="2" points="367.0164,-830.7977 356.7544,-828.1628 363.1335,-836.6221 367.0164,-830.7977"/>
</g>
<!-- 8 -->
<g id="node9" class="node">
<title>8</title>
<path fill="none" stroke="#d8ac56" stroke-width="2" d="M474.5102,-828C474.5102,-828 408.5102,-828 408.5102,-828 402.5102,-828 396.5102,-822 396.5102,-816 396.5102,-816 396.5102,-804 396.5102,-804 396.5102,-798 402.5102,-792 408.5102,-792 408.5102,-792 474.5102,-792 474.5102,-792 480.5102,-792 486.5102,-798 486.5102,-804 486.5102,-804 486.5102,-816 486.5102,-816 486.5102,-822 480.5102,-828 474.5102,-828"/>
<text text-anchor="middle" x="441.5102" y="-807.5" font-family="sans" font-size="10.00" fill="#000000">make_decoy_1</text>
</g>
<!-- 5&#45;&gt;8 -->
<g id="edge19" class="edge">
<title>5&#45;&gt;8</title>
<path fill="none" stroke="#c0c0c0" stroke-width="2" d="M438.5196,-863.8314C438.9474,-856.131 439.4561,-846.9743 439.9315,-838.4166"/>
<polygon fill="#c0c0c0" stroke="#c0c0c0" stroke-width="2" points="443.427,-838.592 440.4872,-828.4133 436.4378,-838.2037 443.427,-838.592"/>
</g>
<!-- 6 -->
<g id="node7" class="node">
<title>6</title>
<path fill="none" stroke="#d8d356" stroke-width="2" d="M362.0102,-900C362.0102,-900 297.0102,-900 297.0102,-900 291.0102,-900 285.0102,-894 285.0102,-888 285.0102,-888 285.0102,-876 285.0102,-876 285.0102,-870 291.0102,-864 297.0102,-864 297.0102,-864 362.0102,-864 362.0102,-864 368.0102,-864 374.0102,-870 374.0102,-876 374.0102,-876 374.0102,-888 374.0102,-888 374.0102,-894 368.0102,-900 362.0102,-900"/>
<text text-anchor="middle" x="329.5102" y="-879.5" font-family="sans" font-size="10.00" fill="#000000">load_transcript</text>
</g>
<!-- 6&#45;&gt;4 -->
<g id="edge17" class="edge">
<title>6&#45;&gt;4</title>
<path fill="none" stroke="#c0c0c0" stroke-width="2" d="M329.5102,-863.8314C329.5102,-856.131 329.5102,-846.9743 329.5102,-838.4166"/>
<polygon fill="#c0c0c0" stroke="#c0c0c0" stroke-width="2" points="333.0103,-838.4132 329.5102,-828.4133 326.0103,-838.4133 333.0103,-838.4132"/>
</g>
<!-- 7 -->
<g id="node8" class="node">
<title>7</title>
<path fill="none" stroke="#56d863" stroke-width="2" d="M474.5102,-756C474.5102,-756 408.5102,-756 408.5102,-756 402.5102,-756 396.5102,-750 396.5102,-744 396.5102,-744 396.5102,-732 396.5102,-732 396.5102,-726 402.5102,-720 408.5102,-720 408.5102,-720 474.5102,-720 474.5102,-720 480.5102,-720 486.5102,-726 486.5102,-732 486.5102,-732 486.5102,-744 486.5102,-744 486.5102,-750 480.5102,-756 474.5102,-756"/>
<text text-anchor="middle" x="441.5102" y="-735.5" font-family="sans" font-size="10.00" fill="#000000">make_decoy_2</text>
</g>
<!-- 7&#45;&gt;0 -->
<g id="edge8" class="edge">
<title>7&#45;&gt;0</title>
<path fill="none" stroke="#c0c0c0" stroke-width="2" d="M461.6884,-719.6622C487.3891,-694.1918 528.5102,-645.4069 528.5102,-594 528.5102,-594 528.5102,-594 528.5102,-162 528.5102,-69.1153 394.4335,-34.588 327.1251,-23.1069"/>
<polygon fill="#c0c0c0" stroke="#c0c0c0" stroke-width="2" points="327.3572,-19.599 316.9265,-21.4567 326.2391,-26.5091 327.3572,-19.599"/>
</g>
<!-- 7&#45;&gt;3 -->
<g id="edge15" class="edge">
<title>7&#45;&gt;3</title>
<path fill="none" stroke="#c0c0c0" stroke-width="2" d="M413.2479,-719.8314C399.055,-710.7074 381.682,-699.539 366.4466,-689.7449"/>
<polygon fill="#c0c0c0" stroke="#c0c0c0" stroke-width="2" points="368.0679,-686.6263 357.7635,-684.1628 364.2826,-692.5146 368.0679,-686.6263"/>
</g>
<!-- 8&#45;&gt;7 -->
<g id="edge18" class="edge">
<title>8&#45;&gt;7</title>
<path fill="none" stroke="#c0c0c0" stroke-width="2" d="M441.5102,-791.8314C441.5102,-784.131 441.5102,-774.9743 441.5102,-766.4166"/>
<polygon fill="#c0c0c0" stroke="#c0c0c0" stroke-width="2" points="445.0103,-766.4132 441.5102,-756.4133 438.0103,-766.4133 445.0103,-766.4132"/>
</g>
<!-- 9 -->
<g id="node10" class="node">
<title>9</title>
<path fill="none" stroke="#61d856" stroke-width="2" d="M344.5102,-612C344.5102,-612 314.5102,-612 314.5102,-612 308.5102,-612 302.5102,-606 302.5102,-600 302.5102,-600 302.5102,-588 302.5102,-588 302.5102,-582 308.5102,-576 314.5102,-576 314.5102,-576 344.5102,-576 344.5102,-576 350.5102,-576 356.5102,-582 356.5102,-588 356.5102,-588 356.5102,-600 356.5102,-600 356.5102,-606 350.5102,-612 344.5102,-612"/>
<text text-anchor="middle" x="329.5102" y="-591.5" font-family="sans" font-size="10.00" fill="#000000">fastqc</text>
</g>
<!-- 9&#45;&gt;1 -->
<g id="edge11" class="edge">
<title>9&#45;&gt;1</title>
<path fill="none" stroke="#c0c0c0" stroke-width="2" d="M327.7438,-575.8314C326.9951,-568.131 326.1049,-558.9743 325.2729,-550.4166"/>
<polygon fill="#c0c0c0" stroke="#c0c0c0" stroke-width="2" points="328.7517,-550.0276 324.3004,-540.4133 321.7845,-550.7051 328.7517,-550.0276"/>
</g>
<!-- 9&#45;&gt;18 -->
<g id="edge29" class="edge">
<title>9&#45;&gt;18</title>
<path fill="none" stroke="#c0c0c0" stroke-width="2" d="M307.3041,-575.8314C296.4652,-566.9632 283.2658,-556.1637 271.5424,-546.5718"/>
<polygon fill="#c0c0c0" stroke="#c0c0c0" stroke-width="2" points="273.6651,-543.7864 263.7092,-540.1628 269.2324,-549.2041 273.6651,-543.7864"/>
</g>
<!-- 10 -->
<g id="node11" class="node">
<title>10</title>
<path fill="none" stroke="#56d873" stroke-width="2" d="M282.0102,-108C282.0102,-108 233.0102,-108 233.0102,-108 227.0102,-108 221.0102,-102 221.0102,-96 221.0102,-96 221.0102,-84 221.0102,-84 221.0102,-78 227.0102,-72 233.0102,-72 233.0102,-72 282.0102,-72 282.0102,-72 288.0102,-72 294.0102,-78 294.0102,-84 294.0102,-84 294.0102,-96 294.0102,-96 294.0102,-102 288.0102,-108 282.0102,-108"/>
<text text-anchor="middle" x="257.5102" y="-87.5" font-family="sans" font-size="10.00" fill="#000000">plot_comps</text>
</g>
<!-- 10&#45;&gt;0 -->
<g id="edge9" class="edge">
<title>10&#45;&gt;0</title>
<path fill="none" stroke="#c0c0c0" stroke-width="2" d="M265.5851,-71.8314C269.1204,-63.8771 273.3462,-54.369 277.2558,-45.5723"/>
<polygon fill="#c0c0c0" stroke="#c0c0c0" stroke-width="2" points="280.4634,-46.9729 281.3265,-36.4133 274.0667,-44.1299 280.4634,-46.9729"/>
</g>
<!-- 11 -->
<g id="node12" class="node">
<title>11</title>
<path fill="none" stroke="#56d88a" stroke-width="2" d="M239.0102,-252C239.0102,-252 186.0102,-252 186.0102,-252 180.0102,-252 174.0102,-246 174.0102,-240 174.0102,-240 174.0102,-228 174.0102,-228 174.0102,-222 180.0102,-216 186.0102,-216 186.0102,-216 239.0102,-216 239.0102,-216 245.0102,-216 251.0102,-222 251.0102,-228 251.0102,-228 251.0102,-240 251.0102,-240 251.0102,-246 245.0102,-252 239.0102,-252"/>
<text text-anchor="middle" x="212.5102" y="-231.5" font-family="sans" font-size="10.00" fill="#000000">deconvolute</text>
</g>
<!-- 11&#45;&gt;10 -->
<g id="edge20" class="edge">
<title>11&#45;&gt;10</title>
<path fill="none" stroke="#c0c0c0" stroke-width="2" d="M224.7146,-215.7482C230.9483,-205.6161 238.1239,-192.5543 242.5102,-180 249.509,-159.9679 253.2905,-136.2572 255.3053,-118.2027"/>
<polygon fill="#c0c0c0" stroke="#c0c0c0" stroke-width="2" points="258.8094,-118.3352 256.3215,-108.0366 251.8441,-117.6389 258.8094,-118.3352"/>
</g>
<!-- 19 -->
<g id="node20" class="node">
<title>19</title>
<path fill="none" stroke="#c6d856" stroke-width="2" d="M221.5102,-180C221.5102,-180 189.5102,-180 189.5102,-180 183.5102,-180 177.5102,-174 177.5102,-168 177.5102,-168 177.5102,-156 177.5102,-156 177.5102,-150 183.5102,-144 189.5102,-144 189.5102,-144 221.5102,-144 221.5102,-144 227.5102,-144 233.5102,-150 233.5102,-156 233.5102,-156 233.5102,-168 233.5102,-168 233.5102,-174 227.5102,-180 221.5102,-180"/>
<text text-anchor="middle" x="205.5102" y="-159.5" font-family="sans" font-size="10.00" fill="#000000">dirichlet</text>
</g>
<!-- 11&#45;&gt;19 -->
<g id="edge31" class="edge">
<title>11&#45;&gt;19</title>
<path fill="none" stroke="#c0c0c0" stroke-width="2" d="M210.7438,-215.8314C209.9951,-208.131 209.1049,-198.9743 208.2729,-190.4166"/>
<polygon fill="#c0c0c0" stroke="#c0c0c0" stroke-width="2" points="211.7517,-190.0276 207.3004,-180.4133 204.7845,-190.7051 211.7517,-190.0276"/>
</g>
<!-- 21 -->
<g id="node22" class="node">
<title>21</title>
<path fill="none" stroke="#56a9d8" stroke-width="2" d="M147.0102,-180C147.0102,-180 52.0102,-180 52.0102,-180 46.0102,-180 40.0102,-174 40.0102,-168 40.0102,-168 40.0102,-156 40.0102,-156 40.0102,-150 46.0102,-144 52.0102,-144 52.0102,-144 147.0102,-144 147.0102,-144 153.0102,-144 159.0102,-150 159.0102,-156 159.0102,-156 159.0102,-168 159.0102,-168 159.0102,-174 153.0102,-180 147.0102,-180"/>
<text text-anchor="middle" x="99.5102" y="-159.5" font-family="sans" font-size="10.00" fill="#000000">diffential_expression</text>
</g>
<!-- 11&#45;&gt;21 -->
<g id="edge33" class="edge">
<title>11&#45;&gt;21</title>
<path fill="none" stroke="#c0c0c0" stroke-width="2" d="M183.9955,-215.8314C169.6759,-206.7074 152.1478,-195.539 136.7764,-185.7449"/>
<polygon fill="#c0c0c0" stroke="#c0c0c0" stroke-width="2" points="138.3301,-182.5847 128.0157,-180.1628 134.5685,-188.4882 138.3301,-182.5847"/>
</g>
<!-- 12 -->
<g id="node13" class="node">
<title>12</title>
<path fill="none" stroke="#d87d56" stroke-width="2" d="M412.5102,-324C412.5102,-324 362.5102,-324 362.5102,-324 356.5102,-324 350.5102,-318 350.5102,-312 350.5102,-312 350.5102,-300 350.5102,-300 350.5102,-294 356.5102,-288 362.5102,-288 362.5102,-288 412.5102,-288 412.5102,-288 418.5102,-288 424.5102,-294 424.5102,-300 424.5102,-300 424.5102,-312 424.5102,-312 424.5102,-318 418.5102,-324 412.5102,-324"/>
<text text-anchor="middle" x="387.5102" y="-303.5" font-family="sans" font-size="10.00" fill="#000000">findMarkers</text>
</g>
<!-- 12&#45;&gt;0 -->
<g id="edge7" class="edge">
<title>12&#45;&gt;0</title>
<path fill="none" stroke="#c0c0c0" stroke-width="2" d="M384.7427,-287.7899C377.2483,-239.7166 355.8229,-110.457 336.5102,-72 331.438,-61.8998 324.0386,-52.1613 316.6055,-43.802"/>
<polygon fill="#c0c0c0" stroke="#c0c0c0" stroke-width="2" points="318.9278,-41.1609 309.5434,-36.2433 313.8129,-45.9398 318.9278,-41.1609"/>
</g>
<!-- 12&#45;&gt;11 -->
<g id="edge21" class="edge">
<title>12&#45;&gt;11</title>
<path fill="none" stroke="#c0c0c0" stroke-width="2" d="M350.3972,-290.7307C324.166,-279.9384 288.7701,-265.3755 260.409,-253.7069"/>
<polygon fill="#c0c0c0" stroke="#c0c0c0" stroke-width="2" points="261.6635,-250.4385 251.0839,-249.8703 259.0001,-256.912 261.6635,-250.4385"/>
</g>
<!-- 22 -->
<g id="node23" class="node">
<title>22</title>
<path fill="none" stroke="#56d8c9" stroke-width="2" d="M450.5102,-252C450.5102,-252 400.5102,-252 400.5102,-252 394.5102,-252 388.5102,-246 388.5102,-240 388.5102,-240 388.5102,-228 388.5102,-228 388.5102,-222 394.5102,-216 400.5102,-216 400.5102,-216 450.5102,-216 450.5102,-216 456.5102,-216 462.5102,-222 462.5102,-228 462.5102,-228 462.5102,-240 462.5102,-240 462.5102,-246 456.5102,-252 450.5102,-252"/>
<text text-anchor="middle" x="425.5102" y="-231.5" font-family="sans" font-size="10.00" fill="#000000">plotMarkers</text>
</g>
<!-- 12&#45;&gt;22 -->
<g id="edge35" class="edge">
<title>12&#45;&gt;22</title>
<path fill="none" stroke="#c0c0c0" stroke-width="2" d="M397.0992,-287.8314C401.3419,-279.7925 406.4223,-270.1666 411.1062,-261.2918"/>
<polygon fill="#c0c0c0" stroke="#c0c0c0" stroke-width="2" points="414.2198,-262.8908 415.7921,-252.4133 408.0291,-259.6235 414.2198,-262.8908"/>
</g>
<!-- 13 -->
<g id="node14" class="node">
<title>13</title>
<path fill="none" stroke="#56c1d8" stroke-width="2" d="M417.0102,-396C417.0102,-396 376.0102,-396 376.0102,-396 370.0102,-396 364.0102,-390 364.0102,-384 364.0102,-384 364.0102,-372 364.0102,-372 364.0102,-366 370.0102,-360 376.0102,-360 376.0102,-360 417.0102,-360 417.0102,-360 423.0102,-360 429.0102,-366 429.0102,-372 429.0102,-372 429.0102,-384 429.0102,-384 429.0102,-390 423.0102,-396 417.0102,-396"/>
<text text-anchor="middle" x="396.5102" y="-375.5" font-family="sans" font-size="10.00" fill="#000000">merge_sn</text>
</g>
<!-- 13&#45;&gt;12 -->
<g id="edge23" class="edge">
<title>13&#45;&gt;12</title>
<path fill="none" stroke="#c0c0c0" stroke-width="2" d="M394.2391,-359.8314C393.2766,-352.131 392.132,-342.9743 391.0623,-334.4166"/>
<polygon fill="#c0c0c0" stroke="#c0c0c0" stroke-width="2" points="394.5252,-333.9019 389.8118,-324.4133 387.5793,-334.7702 394.5252,-333.9019"/>
</g>
<!-- 14 -->
<g id="node15" class="node">
<title>14</title>
<path fill="none" stroke="#88d856" stroke-width="2" d="M446.5102,-468C446.5102,-468 366.5102,-468 366.5102,-468 360.5102,-468 354.5102,-462 354.5102,-456 354.5102,-456 354.5102,-444 354.5102,-444 354.5102,-438 360.5102,-432 366.5102,-432 366.5102,-432 446.5102,-432 446.5102,-432 452.5102,-432 458.5102,-438 458.5102,-444 458.5102,-444 458.5102,-456 458.5102,-456 458.5102,-462 452.5102,-468 446.5102,-468"/>
<text text-anchor="middle" x="406.5102" y="-447.5" font-family="sans" font-size="10.00" fill="#000000">ambient_doublets</text>
</g>
<!-- 14&#45;&gt;13 -->
<g id="edge25" class="edge">
<title>14&#45;&gt;13</title>
<path fill="none" stroke="#c0c0c0" stroke-width="2" d="M403.9868,-431.8314C402.9173,-424.131 401.6455,-414.9743 400.4569,-406.4166"/>
<polygon fill="#c0c0c0" stroke="#c0c0c0" stroke-width="2" points="403.9101,-405.8367 399.0676,-396.4133 396.9766,-406.7997 403.9101,-405.8367"/>
</g>
<!-- 15 -->
<g id="node16" class="node">
<title>15</title>
<path fill="none" stroke="#5682d8" stroke-width="2" d="M454.5102,-540C454.5102,-540 424.5102,-540 424.5102,-540 418.5102,-540 412.5102,-534 412.5102,-528 412.5102,-528 412.5102,-516 412.5102,-516 412.5102,-510 418.5102,-504 424.5102,-504 424.5102,-504 454.5102,-504 454.5102,-504 460.5102,-504 466.5102,-510 466.5102,-516 466.5102,-516 466.5102,-528 466.5102,-528 466.5102,-534 460.5102,-540 454.5102,-540"/>
<text text-anchor="middle" x="439.5102" y="-519.5" font-family="sans" font-size="10.00" fill="#000000">load_sn</text>
</g>
<!-- 15&#45;&gt;0 -->
<g id="edge10" class="edge">
<title>15&#45;&gt;0</title>
<path fill="none" stroke="#c0c0c0" stroke-width="2" d="M450.5764,-503.6389C465.5759,-476.961 490.5102,-425.4737 490.5102,-378 490.5102,-378 490.5102,-378 490.5102,-162 490.5102,-82.2239 384.5841,-42.3865 326.5248,-26.5429"/>
<polygon fill="#c0c0c0" stroke="#c0c0c0" stroke-width="2" points="327.1787,-23.0961 316.6179,-23.9451 325.4031,-29.8671 327.1787,-23.0961"/>
</g>
<!-- 15&#45;&gt;14 -->
<g id="edge26" class="edge">
<title>15&#45;&gt;14</title>
<path fill="none" stroke="#c0c0c0" stroke-width="2" d="M431.1829,-503.8314C427.5372,-495.8771 423.1793,-486.369 419.1475,-477.5723"/>
<polygon fill="#c0c0c0" stroke="#c0c0c0" stroke-width="2" points="422.2979,-476.0456 414.9496,-468.4133 415.9345,-478.9622 422.2979,-476.0456"/>
</g>
<!-- 16 -->
<g id="node17" class="node">
<title>16</title>
<path fill="none" stroke="#d86e56" stroke-width="2" d="M235.0102,-396C235.0102,-396 190.0102,-396 190.0102,-396 184.0102,-396 178.0102,-390 178.0102,-384 178.0102,-384 178.0102,-372 178.0102,-372 178.0102,-366 184.0102,-360 190.0102,-360 190.0102,-360 235.0102,-360 235.0102,-360 241.0102,-360 247.0102,-366 247.0102,-372 247.0102,-372 247.0102,-384 247.0102,-384 247.0102,-390 241.0102,-396 235.0102,-396"/>
<text text-anchor="middle" x="212.5102" y="-375.5" font-family="sans" font-size="10.00" fill="#000000">clean_bulk</text>
</g>
<!-- 16&#45;&gt;0 -->
<g id="edge2" class="edge">
<title>16&#45;&gt;0</title>
<path fill="none" stroke="#c0c0c0" stroke-width="2" d="M177.833,-370.9695C118.1871,-356.6298 2.5102,-317.9923 2.5102,-234 2.5102,-234 2.5102,-234 2.5102,-162 2.5102,-121.1184 -7.5305,-100.774 21.5102,-72 53.6077,-40.1973 186.2086,-25.8302 252.0586,-20.5554"/>
<polygon fill="#c0c0c0" stroke="#c0c0c0" stroke-width="2" points="252.7054,-24.016 262.4067,-19.7576 252.1672,-17.0367 252.7054,-24.016"/>
</g>
<!-- 16&#45;&gt;11 -->
<g id="edge22" class="edge">
<title>16&#45;&gt;11</title>
<path fill="none" stroke="#c0c0c0" stroke-width="2" d="M212.5102,-359.7623C212.5102,-335.201 212.5102,-291.2474 212.5102,-262.3541"/>
<polygon fill="#c0c0c0" stroke="#c0c0c0" stroke-width="2" points="216.0103,-262.0896 212.5102,-252.0896 209.0103,-262.0897 216.0103,-262.0896"/>
</g>
<!-- 16&#45;&gt;12 -->
<g id="edge24" class="edge">
<title>16&#45;&gt;12</title>
<path fill="none" stroke="#c0c0c0" stroke-width="2" d="M247.0846,-363.7751C273.9594,-352.718 311.5042,-337.271 341.0111,-325.1311"/>
<polygon fill="#c0c0c0" stroke="#c0c0c0" stroke-width="2" points="342.3689,-328.3571 350.2851,-321.3155 339.7055,-321.8836 342.3689,-328.3571"/>
</g>
<!-- 16&#45;&gt;21 -->
<g id="edge34" class="edge">
<title>16&#45;&gt;21</title>
<path fill="none" stroke="#c0c0c0" stroke-width="2" d="M203.0702,-359.9555C183.2537,-322.0762 137.2197,-234.0818 113.7785,-189.274"/>
<polygon fill="#c0c0c0" stroke="#c0c0c0" stroke-width="2" points="116.7395,-187.3834 109.0027,-180.1451 110.537,-190.6282 116.7395,-187.3834"/>
</g>
<!-- 17 -->
<g id="node18" class="node">
<title>17</title>
<path fill="none" stroke="#56d0d8" stroke-width="2" d="M243.5102,-468C243.5102,-468 197.5102,-468 197.5102,-468 191.5102,-468 185.5102,-462 185.5102,-456 185.5102,-456 185.5102,-444 185.5102,-444 185.5102,-438 191.5102,-432 197.5102,-432 197.5102,-432 243.5102,-432 243.5102,-432 249.5102,-432 255.5102,-438 255.5102,-444 255.5102,-444 255.5102,-456 255.5102,-456 255.5102,-462 249.5102,-468 243.5102,-468"/>
<text text-anchor="middle" x="220.5102" y="-447.5" font-family="sans" font-size="10.00" fill="#000000">ensb2gene</text>
</g>
<!-- 17&#45;&gt;16 -->
<g id="edge27" class="edge">
<title>17&#45;&gt;16</title>
<path fill="none" stroke="#c0c0c0" stroke-width="2" d="M218.4914,-431.8314C217.6358,-424.131 216.6184,-414.9743 215.6676,-406.4166"/>
<polygon fill="#c0c0c0" stroke="#c0c0c0" stroke-width="2" points="219.1391,-405.9656 214.5561,-396.4133 212.1819,-406.7386 219.1391,-405.9656"/>
</g>
<!-- 18&#45;&gt;17 -->
<g id="edge28" class="edge">
<title>18&#45;&gt;17</title>
<path fill="none" stroke="#c0c0c0" stroke-width="2" d="M236.211,-503.8314C233.9404,-496.0463 231.2356,-486.7729 228.7161,-478.1347"/>
<polygon fill="#c0c0c0" stroke="#c0c0c0" stroke-width="2" points="232.0408,-477.0332 225.8807,-468.4133 225.3208,-478.9933 232.0408,-477.0332"/>
</g>
<!-- 19&#45;&gt;0 -->
<g id="edge6" class="edge">
<title>19&#45;&gt;0</title>
<path fill="none" stroke="#c0c0c0" stroke-width="2" d="M202.3248,-143.7876C199.9286,-124.6189 198.9179,-94.203 211.5102,-72 220.8833,-55.473 237.6477,-42.8756 253.2387,-34.0223"/>
<polygon fill="#c0c0c0" stroke="#c0c0c0" stroke-width="2" points="255.0365,-37.0303 262.2181,-29.2408 251.7464,-30.8517 255.0365,-37.0303"/>
</g>
<!-- 20 -->
<g id="node21" class="node">
<title>20</title>
<path fill="none" stroke="#78d856" stroke-width="2" d="M152.5102,-108C152.5102,-108 122.5102,-108 122.5102,-108 116.5102,-108 110.5102,-102 110.5102,-96 110.5102,-96 110.5102,-84 110.5102,-84 110.5102,-78 116.5102,-72 122.5102,-72 122.5102,-72 152.5102,-72 152.5102,-72 158.5102,-72 164.5102,-78 164.5102,-84 164.5102,-84 164.5102,-96 164.5102,-96 164.5102,-102 158.5102,-108 152.5102,-108"/>
<text text-anchor="middle" x="137.5102" y="-87.5" font-family="sans" font-size="10.00" fill="#000000">plot_de</text>
</g>
<!-- 20&#45;&gt;0 -->
<g id="edge5" class="edge">
<title>20&#45;&gt;0</title>
<path fill="none" stroke="#c0c0c0" stroke-width="2" d="M164.6847,-77.1278C189.3573,-65.4408 225.9353,-48.1144 253.1244,-35.2354"/>
<polygon fill="#c0c0c0" stroke="#c0c0c0" stroke-width="2" points="254.776,-38.3259 262.3151,-30.8819 251.7794,-31.9997 254.776,-38.3259"/>
</g>
<!-- 21&#45;&gt;20 -->
<g id="edge32" class="edge">
<title>21&#45;&gt;20</title>
<path fill="none" stroke="#c0c0c0" stroke-width="2" d="M109.0992,-143.8314C113.3419,-135.7925 118.4223,-126.1666 123.1062,-117.2918"/>
<polygon fill="#c0c0c0" stroke="#c0c0c0" stroke-width="2" points="126.2198,-118.8908 127.7921,-108.4133 120.0291,-115.6235 126.2198,-118.8908"/>
</g>
<!-- 23 -->
<g id="node24" class="node">
<title>23</title>
<path fill="none" stroke="#b6d856" stroke-width="2" d="M80.5102,-108C80.5102,-108 42.5102,-108 42.5102,-108 36.5102,-108 30.5102,-102 30.5102,-96 30.5102,-96 30.5102,-84 30.5102,-84 30.5102,-78 36.5102,-72 42.5102,-72 42.5102,-72 80.5102,-72 80.5102,-72 86.5102,-72 92.5102,-78 92.5102,-84 92.5102,-84 92.5102,-96 92.5102,-96 92.5102,-102 86.5102,-108 80.5102,-108"/>
<text text-anchor="middle" x="61.5102" y="-87.5" font-family="sans" font-size="10.00" fill="#000000">gene_ont</text>
</g>
<!-- 21&#45;&gt;23 -->
<g id="edge36" class="edge">
<title>21&#45;&gt;23</title>
<path fill="none" stroke="#c0c0c0" stroke-width="2" d="M89.9212,-143.8314C85.6784,-135.7925 80.5981,-126.1666 75.9142,-117.2918"/>
<polygon fill="#c0c0c0" stroke="#c0c0c0" stroke-width="2" points="78.9913,-115.6235 71.2283,-108.4133 72.8006,-118.8908 78.9913,-115.6235"/>
</g>
<!-- 22&#45;&gt;0 -->
<g id="edge4" class="edge">
<title>22&#45;&gt;0</title>
<path fill="none" stroke="#c0c0c0" stroke-width="2" d="M423.8634,-215.8557C420.1368,-183.7905 408.5433,-116.3151 374.5102,-72 361.9314,-55.6209 342.8633,-42.86 325.9727,-33.8655"/>
<polygon fill="#c0c0c0" stroke="#c0c0c0" stroke-width="2" points="327.371,-30.6504 316.8682,-29.257 324.2096,-36.8959 327.371,-30.6504"/>
</g>
<!-- 23&#45;&gt;0 -->
<g id="edge1" class="edge">
<title>23&#45;&gt;0</title>
<path fill="none" stroke="#c0c0c0" stroke-width="2" d="M92.7773,-75.4196C95.7073,-74.2082 98.6501,-73.0482 101.5102,-72 152.805,-53.2016 213.8736,-36.7046 252.1751,-27.0402"/>
<polygon fill="#c0c0c0" stroke="#c0c0c0" stroke-width="2" points="253.4936,-30.3184 262.3473,-24.4993 251.7972,-23.5271 253.4936,-30.3184"/>
</g>
</g>
</svg>
