<?xml version="1.0" encoding="UTF-8" standalone="no"?>
<!DOCTYPE svg PUBLIC "-//W3C//DTD SVG 1.1//EN"
 "http://www.w3.org/Graphics/SVG/1.1/DTD/svg11.dtd">
<!-- Generated by graphviz version 2.40.1 (0)
 -->
<!-- Title: snakemake_dag Pages: 1 -->
<svg width="427pt" height="692pt"
 viewBox="0.00 0.00 427.00 692.00" xmlns="http://www.w3.org/2000/svg" xmlns:xlink="http://www.w3.org/1999/xlink">
<g id="graph0" class="graph" transform="scale(1 1) rotate(0) translate(4 688)">
<title>snakemake_dag</title>
<polygon fill="#ffffff" stroke="transparent" points="-4,4 -4,-688 423,-688 423,4 -4,4"/>
<!-- 0 -->
<g id="node1" class="node">
<title>0</title>
<path fill="none" stroke="#d88556" stroke-width="2" d="M184,-36C184,-36 154,-36 154,-36 148,-36 142,-30 142,-24 142,-24 142,-12 142,-12 142,-6 148,0 154,0 154,0 184,0 184,0 190,0 196,-6 196,-12 196,-12 196,-24 196,-24 196,-30 190,-36 184,-36"/>
<text text-anchor="middle" x="169" y="-15.5" font-family="sans" font-size="10.00" fill="#000000">all</text>
</g>
<!-- 1 -->
<g id="node2" class="node">
<title>1</title>
<path fill="none" stroke="#9fd856" stroke-width="2" d="M68,-540C68,-540 38,-540 38,-540 32,-540 26,-534 26,-528 26,-528 26,-516 26,-516 26,-510 32,-504 38,-504 38,-504 68,-504 68,-504 74,-504 80,-510 80,-516 80,-516 80,-528 80,-528 80,-534 74,-540 68,-540"/>
<text text-anchor="middle" x="53" y="-519.5" font-family="sans" font-size="10.00" fill="#000000">multiqc</text>
</g>
<!-- 1&#45;&gt;0 -->
<g id="edge5" class="edge">
<title>1&#45;&gt;0</title>
<path fill="none" stroke="#c0c0c0" stroke-width="2" d="M41.4998,-503.6962C25.9121,-477.088 0,-425.6848 0,-378 0,-378 0,-378 0,-162 0,-115.3524 19.3857,-103.2706 54,-72 76.4407,-51.7271 107.8314,-37.68 132.148,-29.005"/>
<polygon fill="#c0c0c0" stroke="#c0c0c0" stroke-width="2" points="133.4227,-32.2682 141.7541,-25.7231 131.1596,-25.6442 133.4227,-32.2682"/>
</g>
<!-- 2 -->
<g id="node3" class="node">
<title>2</title>
<path fill="none" stroke="#d89c56" stroke-width="2" d="M95,-612C95,-612 33,-612 33,-612 27,-612 21,-606 21,-600 21,-600 21,-588 21,-588 21,-582 27,-576 33,-576 33,-576 95,-576 95,-576 101,-576 107,-582 107,-588 107,-588 107,-600 107,-600 107,-606 101,-612 95,-612"/>
<text text-anchor="middle" x="64" y="-591.5" font-family="sans" font-size="10.00" fill="#000000">salmon_quant</text>
</g>
<!-- 2&#45;&gt;1 -->
<g id="edge10" class="edge">
<title>2&#45;&gt;1</title>
<path fill="none" stroke="#c0c0c0" stroke-width="2" d="M61.2242,-575.8314C60.0478,-568.131 58.6489,-558.9743 57.3414,-550.4166"/>
<polygon fill="#c0c0c0" stroke="#c0c0c0" stroke-width="2" points="60.7833,-549.7699 55.8131,-540.4133 53.8636,-550.8272 60.7833,-549.7699"/>
</g>
<!-- 13 -->
<g id="node14" class="node">
<title>13</title>
<path fill="none" stroke="#d8cb56" stroke-width="2" d="M239.5,-540C239.5,-540 204.5,-540 204.5,-540 198.5,-540 192.5,-534 192.5,-528 192.5,-528 192.5,-516 192.5,-516 192.5,-510 198.5,-504 204.5,-504 204.5,-504 239.5,-504 239.5,-504 245.5,-504 251.5,-510 251.5,-516 251.5,-516 251.5,-528 251.5,-528 251.5,-534 245.5,-540 239.5,-540"/>
<text text-anchor="middle" x="222" y="-519.5" font-family="sans" font-size="10.00" fill="#000000">tximport</text>
</g>
<!-- 2&#45;&gt;13 -->
<g id="edge22" class="edge">
<title>2&#45;&gt;13</title>
<path fill="none" stroke="#c0c0c0" stroke-width="2" d="M103.8701,-575.8314C128.0817,-564.7982 158.8534,-550.7757 182.9202,-539.8085"/>
<polygon fill="#c0c0c0" stroke="#c0c0c0" stroke-width="2" points="184.4705,-542.9484 192.1189,-535.6167 181.5678,-536.5786 184.4705,-542.9484"/>
</g>
<!-- 3 -->
<g id="node4" class="node">
<title>3</title>
<path fill="none" stroke="#59d856" stroke-width="2" d="M94.5,-684C94.5,-684 33.5,-684 33.5,-684 27.5,-684 21.5,-678 21.5,-672 21.5,-672 21.5,-660 21.5,-660 21.5,-654 27.5,-648 33.5,-648 33.5,-648 94.5,-648 94.5,-648 100.5,-648 106.5,-654 106.5,-660 106.5,-660 106.5,-672 106.5,-672 106.5,-678 100.5,-684 94.5,-684"/>
<text text-anchor="middle" x="64" y="-663.5" font-family="sans" font-size="10.00" fill="#000000">salmon_index</text>
</g>
<!-- 3&#45;&gt;2 -->
<g id="edge12" class="edge">
<title>3&#45;&gt;2</title>
<path fill="none" stroke="#c0c0c0" stroke-width="2" d="M64,-647.8314C64,-640.131 64,-630.9743 64,-622.4166"/>
<polygon fill="#c0c0c0" stroke="#c0c0c0" stroke-width="2" points="67.5001,-622.4132 64,-612.4133 60.5001,-622.4133 67.5001,-622.4132"/>
</g>
<!-- 4 -->
<g id="node5" class="node">
<title>4</title>
<path fill="none" stroke="#56b1d8" stroke-width="2" d="M189,-612C189,-612 159,-612 159,-612 153,-612 147,-606 147,-600 147,-600 147,-588 147,-588 147,-582 153,-576 159,-576 159,-576 189,-576 189,-576 195,-576 201,-582 201,-588 201,-588 201,-600 201,-600 201,-606 195,-612 189,-612"/>
<text text-anchor="middle" x="174" y="-591.5" font-family="sans" font-size="10.00" fill="#000000">fastqc</text>
</g>
<!-- 4&#45;&gt;1 -->
<g id="edge11" class="edge">
<title>4&#45;&gt;1</title>
<path fill="none" stroke="#c0c0c0" stroke-width="2" d="M146.8452,-577.8418C129.7198,-567.6515 107.4106,-554.3765 88.8407,-543.3267"/>
<polygon fill="#c0c0c0" stroke="#c0c0c0" stroke-width="2" points="90.4476,-540.2101 80.0641,-538.1043 86.868,-546.2257 90.4476,-540.2101"/>
</g>
<!-- 4&#45;&gt;13 -->
<g id="edge23" class="edge">
<title>4&#45;&gt;13</title>
<path fill="none" stroke="#c0c0c0" stroke-width="2" d="M186.1124,-575.8314C191.5281,-567.7079 198.0242,-557.9637 203.9921,-549.0118"/>
<polygon fill="#c0c0c0" stroke="#c0c0c0" stroke-width="2" points="207.0896,-550.6753 209.7245,-540.4133 201.2653,-546.7923 207.0896,-550.6753"/>
</g>
<!-- 5 -->
<g id="node6" class="node">
<title>5</title>
<path fill="none" stroke="#56d8b1" stroke-width="2" d="M340.5,-180C340.5,-180 291.5,-180 291.5,-180 285.5,-180 279.5,-174 279.5,-168 279.5,-168 279.5,-156 279.5,-156 279.5,-150 285.5,-144 291.5,-144 291.5,-144 340.5,-144 340.5,-144 346.5,-144 352.5,-150 352.5,-156 352.5,-156 352.5,-168 352.5,-168 352.5,-174 346.5,-180 340.5,-180"/>
<text text-anchor="middle" x="316" y="-159.5" font-family="sans" font-size="10.00" fill="#000000">plot_comps</text>
</g>
<!-- 5&#45;&gt;0 -->
<g id="edge8" class="edge">
<title>5&#45;&gt;0</title>
<path fill="none" stroke="#c0c0c0" stroke-width="2" d="M313.9529,-143.6472C310.855,-123.7893 303.2533,-92.257 285,-72 264.1269,-48.8357 231.269,-34.839 205.8445,-26.9208"/>
<polygon fill="#c0c0c0" stroke="#c0c0c0" stroke-width="2" points="206.7388,-23.5358 196.158,-24.0817 204.7698,-30.2532 206.7388,-23.5358"/>
</g>
<!-- 6 -->
<g id="node7" class="node">
<title>6</title>
<path fill="none" stroke="#88d856" stroke-width="2" d="M299.5,-252C299.5,-252 246.5,-252 246.5,-252 240.5,-252 234.5,-246 234.5,-240 234.5,-240 234.5,-228 234.5,-228 234.5,-222 240.5,-216 246.5,-216 246.5,-216 299.5,-216 299.5,-216 305.5,-216 311.5,-222 311.5,-228 311.5,-228 311.5,-240 311.5,-240 311.5,-246 305.5,-252 299.5,-252"/>
<text text-anchor="middle" x="273" y="-231.5" font-family="sans" font-size="10.00" fill="#000000">deconvolute</text>
</g>
<!-- 6&#45;&gt;5 -->
<g id="edge13" class="edge">
<title>6&#45;&gt;5</title>
<path fill="none" stroke="#c0c0c0" stroke-width="2" d="M283.8507,-215.8314C288.7023,-207.7079 294.5217,-197.9637 299.868,-189.0118"/>
<polygon fill="#c0c0c0" stroke="#c0c0c0" stroke-width="2" points="302.8806,-190.7933 305.0032,-180.4133 296.8708,-187.2041 302.8806,-190.7933"/>
</g>
<!-- 16 -->
<g id="node17" class="node">
<title>16</title>
<path fill="none" stroke="#d86e56" stroke-width="2" d="M249.5,-180C249.5,-180 154.5,-180 154.5,-180 148.5,-180 142.5,-174 142.5,-168 142.5,-168 142.5,-156 142.5,-156 142.5,-150 148.5,-144 154.5,-144 154.5,-144 249.5,-144 249.5,-144 255.5,-144 261.5,-150 261.5,-156 261.5,-156 261.5,-168 261.5,-168 261.5,-174 255.5,-180 249.5,-180"/>
<text text-anchor="middle" x="202" y="-159.5" font-family="sans" font-size="10.00" fill="#000000">diffential_expression</text>
</g>
<!-- 6&#45;&gt;16 -->
<g id="edge27" class="edge">
<title>6&#45;&gt;16</title>
<path fill="none" stroke="#c0c0c0" stroke-width="2" d="M255.0837,-215.8314C246.6558,-207.2848 236.459,-196.9443 227.264,-187.6198"/>
<polygon fill="#c0c0c0" stroke="#c0c0c0" stroke-width="2" points="229.6711,-185.0761 220.1575,-180.4133 224.6869,-189.9912 229.6711,-185.0761"/>
</g>
<!-- 7 -->
<g id="node8" class="node">
<title>7</title>
<path fill="none" stroke="#56d86b" stroke-width="2" d="M166,-324C166,-324 116,-324 116,-324 110,-324 104,-318 104,-312 104,-312 104,-300 104,-300 104,-294 110,-288 116,-288 116,-288 166,-288 166,-288 172,-288 178,-294 178,-300 178,-300 178,-312 178,-312 178,-318 172,-324 166,-324"/>
<text text-anchor="middle" x="141" y="-303.5" font-family="sans" font-size="10.00" fill="#000000">findMarkers</text>
</g>
<!-- 7&#45;&gt;0 -->
<g id="edge2" class="edge">
<title>7&#45;&gt;0</title>
<path fill="none" stroke="#c0c0c0" stroke-width="2" d="M119.6873,-287.7308C110.1866,-278.1756 100.021,-265.6372 95,-252 89.4718,-236.9854 93.466,-231.9263 95,-216 101.251,-151.1017 94.7108,-130.7417 123,-72 127.8593,-61.9098 135.0708,-52.1742 142.3502,-43.8146"/>
<polygon fill="#c0c0c0" stroke="#c0c0c0" stroke-width="2" points="145.1016,-45.9925 149.2757,-36.2545 139.94,-41.2641 145.1016,-45.9925"/>
</g>
<!-- 7&#45;&gt;6 -->
<g id="edge15" class="edge">
<title>7&#45;&gt;6</title>
<path fill="none" stroke="#c0c0c0" stroke-width="2" d="M174.3092,-287.8314C191.4273,-278.4942 212.4706,-267.016 230.7222,-257.0606"/>
<polygon fill="#c0c0c0" stroke="#c0c0c0" stroke-width="2" points="232.5985,-260.024 239.7015,-252.1628 229.2465,-253.8788 232.5985,-260.024"/>
</g>
<!-- 17 -->
<g id="node18" class="node">
<title>17</title>
<path fill="none" stroke="#56c9d8" stroke-width="2" d="M166,-252C166,-252 116,-252 116,-252 110,-252 104,-246 104,-240 104,-240 104,-228 104,-228 104,-222 110,-216 116,-216 116,-216 166,-216 166,-216 172,-216 178,-222 178,-228 178,-228 178,-240 178,-240 178,-246 172,-252 166,-252"/>
<text text-anchor="middle" x="141" y="-231.5" font-family="sans" font-size="10.00" fill="#000000">plotMarkers</text>
</g>
<!-- 7&#45;&gt;17 -->
<g id="edge28" class="edge">
<title>7&#45;&gt;17</title>
<path fill="none" stroke="#c0c0c0" stroke-width="2" d="M141,-287.8314C141,-280.131 141,-270.9743 141,-262.4166"/>
<polygon fill="#c0c0c0" stroke="#c0c0c0" stroke-width="2" points="144.5001,-262.4132 141,-252.4133 137.5001,-262.4133 144.5001,-262.4132"/>
</g>
<!-- 8 -->
<g id="node9" class="node">
<title>8</title>
<path fill="none" stroke="#d8b456" stroke-width="2" d="M155.5,-396C155.5,-396 114.5,-396 114.5,-396 108.5,-396 102.5,-390 102.5,-384 102.5,-384 102.5,-372 102.5,-372 102.5,-366 108.5,-360 114.5,-360 114.5,-360 155.5,-360 155.5,-360 161.5,-360 167.5,-366 167.5,-372 167.5,-372 167.5,-384 167.5,-384 167.5,-390 161.5,-396 155.5,-396"/>
<text text-anchor="middle" x="135" y="-375.5" font-family="sans" font-size="10.00" fill="#000000">merge_sn</text>
</g>
<!-- 8&#45;&gt;7 -->
<g id="edge16" class="edge">
<title>8&#45;&gt;7</title>
<path fill="none" stroke="#c0c0c0" stroke-width="2" d="M136.5141,-359.8314C137.1558,-352.131 137.9188,-342.9743 138.6319,-334.4166"/>
<polygon fill="#c0c0c0" stroke="#c0c0c0" stroke-width="2" points="142.1229,-334.6694 139.4656,-324.4133 135.1471,-334.088 142.1229,-334.6694"/>
</g>
<!-- 9 -->
<g id="node10" class="node">
<title>9</title>
<path fill="none" stroke="#b6d856" stroke-width="2" d="M165,-468C165,-468 85,-468 85,-468 79,-468 73,-462 73,-456 73,-456 73,-444 73,-444 73,-438 79,-432 85,-432 85,-432 165,-432 165,-432 171,-432 177,-438 177,-444 177,-444 177,-456 177,-456 177,-462 171,-468 165,-468"/>
<text text-anchor="middle" x="125" y="-447.5" font-family="sans" font-size="10.00" fill="#000000">ambient_doublets</text>
</g>
<!-- 9&#45;&gt;8 -->
<g id="edge18" class="edge">
<title>9&#45;&gt;8</title>
<path fill="none" stroke="#c0c0c0" stroke-width="2" d="M127.5234,-431.8314C128.5929,-424.131 129.8647,-414.9743 131.0532,-406.4166"/>
<polygon fill="#c0c0c0" stroke="#c0c0c0" stroke-width="2" points="134.5336,-406.7997 132.4426,-396.4133 127.6001,-405.8367 134.5336,-406.7997"/>
</g>
<!-- 10 -->
<g id="node11" class="node">
<title>10</title>
<path fill="none" stroke="#5682d8" stroke-width="2" d="M140,-540C140,-540 110,-540 110,-540 104,-540 98,-534 98,-528 98,-528 98,-516 98,-516 98,-510 104,-504 110,-504 110,-504 140,-504 140,-504 146,-504 152,-510 152,-516 152,-516 152,-528 152,-528 152,-534 146,-540 140,-540"/>
<text text-anchor="middle" x="125" y="-519.5" font-family="sans" font-size="10.00" fill="#000000">load_sn</text>
</g>
<!-- 10&#45;&gt;0 -->
<g id="edge6" class="edge">
<title>10&#45;&gt;0</title>
<path fill="none" stroke="#c0c0c0" stroke-width="2" d="M98.3984,-503.8995C86.3435,-494.4692 72.8421,-481.9878 64,-468 41.7529,-432.8063 38,-419.6357 38,-378 38,-378 38,-378 38,-162 38,-105.3673 94.1262,-61.1773 132.903,-37.405"/>
<polygon fill="#c0c0c0" stroke="#c0c0c0" stroke-width="2" points="135.0473,-40.2022 141.8567,-32.0854 131.4718,-34.1842 135.0473,-40.2022"/>
</g>
<!-- 10&#45;&gt;9 -->
<g id="edge19" class="edge">
<title>10&#45;&gt;9</title>
<path fill="none" stroke="#c0c0c0" stroke-width="2" d="M125,-503.8314C125,-496.131 125,-486.9743 125,-478.4166"/>
<polygon fill="#c0c0c0" stroke="#c0c0c0" stroke-width="2" points="128.5001,-478.4132 125,-468.4133 121.5001,-478.4133 128.5001,-478.4132"/>
</g>
<!-- 11 -->
<g id="node12" class="node">
<title>11</title>
<path fill="none" stroke="#569ad8" stroke-width="2" d="M252.5,-396C252.5,-396 207.5,-396 207.5,-396 201.5,-396 195.5,-390 195.5,-384 195.5,-384 195.5,-372 195.5,-372 195.5,-366 201.5,-360 207.5,-360 207.5,-360 252.5,-360 252.5,-360 258.5,-360 264.5,-366 264.5,-372 264.5,-372 264.5,-384 264.5,-384 264.5,-390 258.5,-396 252.5,-396"/>
<text text-anchor="middle" x="230" y="-375.5" font-family="sans" font-size="10.00" fill="#000000">clean_bulk</text>
</g>
<!-- 11&#45;&gt;0 -->
<g id="edge4" class="edge">
<title>11&#45;&gt;0</title>
<path fill="none" stroke="#c0c0c0" stroke-width="2" d="M264.6425,-363.4616C309.2228,-342.1606 381,-297.9369 381,-234 381,-234 381,-234 381,-162 381,-78.5109 267.0989,-40.0478 206.2727,-25.4599"/>
<polygon fill="#c0c0c0" stroke="#c0c0c0" stroke-width="2" points="206.8112,-21.9925 196.2813,-23.1638 205.2433,-28.8147 206.8112,-21.9925"/>
</g>
<!-- 11&#45;&gt;6 -->
<g id="edge14" class="edge">
<title>11&#45;&gt;6</title>
<path fill="none" stroke="#c0c0c0" stroke-width="2" d="M235.446,-359.7623C242.8126,-335.0928 256.021,-290.8598 264.6469,-261.9731"/>
<polygon fill="#c0c0c0" stroke="#c0c0c0" stroke-width="2" points="268.0906,-262.673 267.5982,-252.0896 261.3832,-260.6701 268.0906,-262.673"/>
</g>
<!-- 11&#45;&gt;7 -->
<g id="edge17" class="edge">
<title>11&#45;&gt;7</title>
<path fill="none" stroke="#c0c0c0" stroke-width="2" d="M207.5415,-359.8314C196.5795,-350.9632 183.2301,-340.1637 171.3735,-330.5718"/>
<polygon fill="#c0c0c0" stroke="#c0c0c0" stroke-width="2" points="173.4271,-327.7313 163.4513,-324.1628 169.0245,-333.1734 173.4271,-327.7313"/>
</g>
<!-- 11&#45;&gt;16 -->
<g id="edge26" class="edge">
<title>11&#45;&gt;16</title>
<path fill="none" stroke="#c0c0c0" stroke-width="2" d="M227.6609,-359.9555C222.7815,-322.3144 211.4872,-235.1867 205.6458,-190.1246"/>
<polygon fill="#c0c0c0" stroke="#c0c0c0" stroke-width="2" points="209.1087,-189.6121 204.3521,-180.1451 202.1668,-190.5121 209.1087,-189.6121"/>
</g>
<!-- 12 -->
<g id="node13" class="node">
<title>12</title>
<path fill="none" stroke="#56d882" stroke-width="2" d="M253,-468C253,-468 207,-468 207,-468 201,-468 195,-462 195,-456 195,-456 195,-444 195,-444 195,-438 201,-432 207,-432 207,-432 253,-432 253,-432 259,-432 265,-438 265,-444 265,-444 265,-456 265,-456 265,-462 259,-468 253,-468"/>
<text text-anchor="middle" x="230" y="-447.5" font-family="sans" font-size="10.00" fill="#000000">ensb2gene</text>
</g>
<!-- 12&#45;&gt;11 -->
<g id="edge20" class="edge">
<title>12&#45;&gt;11</title>
<path fill="none" stroke="#c0c0c0" stroke-width="2" d="M230,-431.8314C230,-424.131 230,-414.9743 230,-406.4166"/>
<polygon fill="#c0c0c0" stroke="#c0c0c0" stroke-width="2" points="233.5001,-406.4132 230,-396.4133 226.5001,-406.4133 233.5001,-406.4132"/>
</g>
<!-- 13&#45;&gt;12 -->
<g id="edge21" class="edge">
<title>13&#45;&gt;12</title>
<path fill="none" stroke="#c0c0c0" stroke-width="2" d="M224.0187,-503.8314C224.8743,-496.131 225.8917,-486.9743 226.8426,-478.4166"/>
<polygon fill="#c0c0c0" stroke="#c0c0c0" stroke-width="2" points="230.3283,-478.7386 227.9541,-468.4133 223.3711,-477.9656 230.3283,-478.7386"/>
</g>
<!-- 14 -->
<g id="node15" class="node">
<title>14</title>
<path fill="none" stroke="#d85656" stroke-width="2" d="M274,-612C274,-612 242,-612 242,-612 236,-612 230,-606 230,-600 230,-600 230,-588 230,-588 230,-582 236,-576 242,-576 242,-576 274,-576 274,-576 280,-576 286,-582 286,-588 286,-588 286,-600 286,-600 286,-606 280,-612 274,-612"/>
<text text-anchor="middle" x="258" y="-591.5" font-family="sans" font-size="10.00" fill="#000000">load_gtf</text>
</g>
<!-- 14&#45;&gt;0 -->
<g id="edge3" class="edge">
<title>14&#45;&gt;0</title>
<path fill="none" stroke="#c0c0c0" stroke-width="2" d="M286.0441,-583.84C332.1716,-565.1137 419,-520.5008 419,-450 419,-450 419,-450 419,-162 419,-65.0481 276.0754,-32.3837 206.3589,-22.2176"/>
<polygon fill="#c0c0c0" stroke="#c0c0c0" stroke-width="2" points="206.614,-18.7198 196.2303,-20.8242 205.6599,-25.6545 206.614,-18.7198"/>
</g>
<!-- 14&#45;&gt;13 -->
<g id="edge24" class="edge">
<title>14&#45;&gt;13</title>
<path fill="none" stroke="#c0c0c0" stroke-width="2" d="M248.9157,-575.8314C244.9385,-567.8771 240.1845,-558.369 235.7861,-549.5723"/>
<polygon fill="#c0c0c0" stroke="#c0c0c0" stroke-width="2" points="238.8093,-547.7923 231.2066,-540.4133 232.5483,-550.9228 238.8093,-547.7923"/>
</g>
<!-- 15 -->
<g id="node16" class="node">
<title>15</title>
<path fill="none" stroke="#56d89a" stroke-width="2" d="M184,-108C184,-108 154,-108 154,-108 148,-108 142,-102 142,-96 142,-96 142,-84 142,-84 142,-78 148,-72 154,-72 154,-72 184,-72 184,-72 190,-72 196,-78 196,-84 196,-84 196,-96 196,-96 196,-102 190,-108 184,-108"/>
<text text-anchor="middle" x="169" y="-87.5" font-family="sans" font-size="10.00" fill="#000000">plot_de</text>
</g>
<!-- 15&#45;&gt;0 -->
<g id="edge7" class="edge">
<title>15&#45;&gt;0</title>
<path fill="none" stroke="#c0c0c0" stroke-width="2" d="M169,-71.8314C169,-64.131 169,-54.9743 169,-46.4166"/>
<polygon fill="#c0c0c0" stroke="#c0c0c0" stroke-width="2" points="172.5001,-46.4132 169,-36.4133 165.5001,-46.4133 172.5001,-46.4132"/>
</g>
<!-- 16&#45;&gt;15 -->
<g id="edge25" class="edge">
<title>16&#45;&gt;15</title>
<path fill="none" stroke="#c0c0c0" stroke-width="2" d="M193.6727,-143.8314C190.027,-135.8771 185.6691,-126.369 181.6373,-117.5723"/>
<polygon fill="#c0c0c0" stroke="#c0c0c0" stroke-width="2" points="184.7877,-116.0456 177.4394,-108.4133 178.4243,-118.9622 184.7877,-116.0456"/>
</g>
<!-- 18 -->
<g id="node19" class="node">
<title>18</title>
<path fill="none" stroke="#ced856" stroke-width="2" d="M264,-108C264,-108 226,-108 226,-108 220,-108 214,-102 214,-96 214,-96 214,-84 214,-84 214,-78 220,-72 226,-72 226,-72 264,-72 264,-72 270,-72 276,-78 276,-84 276,-84 276,-96 276,-96 276,-102 270,-108 264,-108"/>
<text text-anchor="middle" x="245" y="-87.5" font-family="sans" font-size="10.00" fill="#000000">gene_ont</text>
</g>
<!-- 16&#45;&gt;18 -->
<g id="edge29" class="edge">
<title>16&#45;&gt;18</title>
<path fill="none" stroke="#c0c0c0" stroke-width="2" d="M212.8507,-143.8314C217.7023,-135.7079 223.5217,-125.9637 228.868,-117.0118"/>
<polygon fill="#c0c0c0" stroke="#c0c0c0" stroke-width="2" points="231.8806,-118.7933 234.0032,-108.4133 225.8708,-115.2041 231.8806,-118.7933"/>
</g>
<!-- 17&#45;&gt;0 -->
<g id="edge1" class="edge">
<title>17&#45;&gt;0</title>
<path fill="none" stroke="#c0c0c0" stroke-width="2" d="M136.1282,-215.5308C128.9228,-184.9329 117.8222,-122.1289 133,-72 135.9564,-62.2355 141.3252,-52.6229 147.03,-44.2762"/>
<polygon fill="#c0c0c0" stroke="#c0c0c0" stroke-width="2" points="149.9414,-46.2239 153.0095,-36.0831 144.2871,-42.0973 149.9414,-46.2239"/>
</g>
<!-- 18&#45;&gt;0 -->
<g id="edge9" class="edge">
<title>18&#45;&gt;0</title>
<path fill="none" stroke="#c0c0c0" stroke-width="2" d="M225.822,-71.8314C216.6412,-63.1337 205.4994,-52.5783 195.5224,-43.1265"/>
<polygon fill="#c0c0c0" stroke="#c0c0c0" stroke-width="2" points="197.8385,-40.4995 188.1719,-36.1628 193.0243,-45.5811 197.8385,-40.4995"/>
</g>
</g>
</svg>
