<?xml version="1.0" encoding="UTF-8" standalone="no"?>
<!DOCTYPE svg PUBLIC "-//W3C//DTD SVG 1.1//EN"
 "http://www.w3.org/Graphics/SVG/1.1/DTD/svg11.dtd">
<!-- Generated by graphviz version 2.40.1 (0)
 -->
<!-- Title: snakemake_dag Pages: 1 -->
<svg width="480pt" height="692pt"
 viewBox="0.00 0.00 480.00 692.00" xmlns="http://www.w3.org/2000/svg" xmlns:xlink="http://www.w3.org/1999/xlink">
<g id="graph0" class="graph" transform="scale(1 1) rotate(0) translate(4 688)">
<title>snakemake_dag</title>
<polygon fill="#ffffff" stroke="transparent" points="-4,4 -4,-688 476,-688 476,4 -4,4"/>
<!-- 0 -->
<g id="node1" class="node">
<title>0</title>
<path fill="none" stroke="#59d856" stroke-width="2" d="M222,-36C222,-36 192,-36 192,-36 186,-36 180,-30 180,-24 180,-24 180,-12 180,-12 180,-6 186,0 192,0 192,0 222,0 222,0 228,0 234,-6 234,-12 234,-12 234,-24 234,-24 234,-30 228,-36 222,-36"/>
<text text-anchor="middle" x="207" y="-15.5" font-family="sans" font-size="10.00" fill="#000000">all</text>
</g>
<!-- 1 -->
<g id="node2" class="node">
<title>1</title>
<path fill="none" stroke="#566bd8" stroke-width="2" d="M75,-540C75,-540 45,-540 45,-540 39,-540 33,-534 33,-528 33,-528 33,-516 33,-516 33,-510 39,-504 45,-504 45,-504 75,-504 75,-504 81,-504 87,-510 87,-516 87,-516 87,-528 87,-528 87,-534 81,-540 75,-540"/>
<text text-anchor="middle" x="60" y="-519.5" font-family="sans" font-size="10.00" fill="#000000">multiqc</text>
</g>
<!-- 1&#45;&gt;0 -->
<g id="edge10" class="edge">
<title>1&#45;&gt;0</title>
<path fill="none" stroke="#c0c0c0" stroke-width="2" d="M46.9809,-503.9118C29.3344,-477.5658 0,-426.4792 0,-378 0,-378 0,-378 0,-162 0,-115.1222 18.6022,-101.5421 55,-72 88.453,-44.8481 136.5951,-30.8282 169.6886,-23.9627"/>
<polygon fill="#c0c0c0" stroke="#c0c0c0" stroke-width="2" points="170.7217,-27.3273 179.8667,-21.9775 169.3816,-20.4567 170.7217,-27.3273"/>
</g>
<!-- 2 -->
<g id="node3" class="node">
<title>2</title>
<path fill="none" stroke="#d8cb56" stroke-width="2" d="M223,-612C223,-612 161,-612 161,-612 155,-612 149,-606 149,-600 149,-600 149,-588 149,-588 149,-582 155,-576 161,-576 161,-576 223,-576 223,-576 229,-576 235,-582 235,-588 235,-588 235,-600 235,-600 235,-606 229,-612 223,-612"/>
<text text-anchor="middle" x="192" y="-591.5" font-family="sans" font-size="10.00" fill="#000000">salmon_quant</text>
</g>
<!-- 2&#45;&gt;1 -->
<g id="edge12" class="edge">
<title>2&#45;&gt;1</title>
<path fill="none" stroke="#c0c0c0" stroke-width="2" d="M158.6908,-575.8314C139.5703,-565.402 115.5524,-552.3013 95.9981,-541.6353"/>
<polygon fill="#c0c0c0" stroke="#c0c0c0" stroke-width="2" points="97.5355,-538.4872 87.0806,-536.7712 94.1835,-544.6324 97.5355,-538.4872"/>
</g>
<!-- 13 -->
<g id="node14" class="node">
<title>13</title>
<path fill="none" stroke="#88d856" stroke-width="2" d="M254.5,-540C254.5,-540 219.5,-540 219.5,-540 213.5,-540 207.5,-534 207.5,-528 207.5,-528 207.5,-516 207.5,-516 207.5,-510 213.5,-504 219.5,-504 219.5,-504 254.5,-504 254.5,-504 260.5,-504 266.5,-510 266.5,-516 266.5,-516 266.5,-528 266.5,-528 266.5,-534 260.5,-540 254.5,-540"/>
<text text-anchor="middle" x="237" y="-519.5" font-family="sans" font-size="10.00" fill="#000000">tximport</text>
</g>
<!-- 2&#45;&gt;13 -->
<g id="edge24" class="edge">
<title>2&#45;&gt;13</title>
<path fill="none" stroke="#c0c0c0" stroke-width="2" d="M203.3554,-575.8314C208.4326,-567.7079 214.5227,-557.9637 220.1176,-549.0118"/>
<polygon fill="#c0c0c0" stroke="#c0c0c0" stroke-width="2" points="223.1597,-550.7483 225.4917,-540.4133 217.2237,-547.0383 223.1597,-550.7483"/>
</g>
<!-- 3 -->
<g id="node4" class="node">
<title>3</title>
<path fill="none" stroke="#56d8c9" stroke-width="2" d="M222.5,-684C222.5,-684 161.5,-684 161.5,-684 155.5,-684 149.5,-678 149.5,-672 149.5,-672 149.5,-660 149.5,-660 149.5,-654 155.5,-648 161.5,-648 161.5,-648 222.5,-648 222.5,-648 228.5,-648 234.5,-654 234.5,-660 234.5,-660 234.5,-672 234.5,-672 234.5,-678 228.5,-684 222.5,-684"/>
<text text-anchor="middle" x="192" y="-663.5" font-family="sans" font-size="10.00" fill="#000000">salmon_index</text>
</g>
<!-- 3&#45;&gt;2 -->
<g id="edge13" class="edge">
<title>3&#45;&gt;2</title>
<path fill="none" stroke="#c0c0c0" stroke-width="2" d="M192,-647.8314C192,-640.131 192,-630.9743 192,-622.4166"/>
<polygon fill="#c0c0c0" stroke="#c0c0c0" stroke-width="2" points="195.5001,-622.4132 192,-612.4133 188.5001,-622.4133 195.5001,-622.4132"/>
</g>
<!-- 4 -->
<g id="node5" class="node">
<title>4</title>
<path fill="none" stroke="#70d856" stroke-width="2" d="M119,-612C119,-612 89,-612 89,-612 83,-612 77,-606 77,-600 77,-600 77,-588 77,-588 77,-582 83,-576 89,-576 89,-576 119,-576 119,-576 125,-576 131,-582 131,-588 131,-588 131,-600 131,-600 131,-606 125,-612 119,-612"/>
<text text-anchor="middle" x="104" y="-591.5" font-family="sans" font-size="10.00" fill="#000000">fastqc</text>
</g>
<!-- 4&#45;&gt;1 -->
<g id="edge11" class="edge">
<title>4&#45;&gt;1</title>
<path fill="none" stroke="#c0c0c0" stroke-width="2" d="M92.8969,-575.8314C87.9326,-567.7079 81.9778,-557.9637 76.5072,-549.0118"/>
<polygon fill="#c0c0c0" stroke="#c0c0c0" stroke-width="2" points="79.4536,-547.121 71.2526,-540.4133 73.4806,-550.7712 79.4536,-547.121"/>
</g>
<!-- 4&#45;&gt;13 -->
<g id="edge23" class="edge">
<title>4&#45;&gt;13</title>
<path fill="none" stroke="#c0c0c0" stroke-width="2" d="M131.2355,-579.256C150.6529,-568.7443 177.0288,-554.4656 198.5828,-542.7973"/>
<polygon fill="#c0c0c0" stroke="#c0c0c0" stroke-width="2" points="200.3629,-545.8136 207.4907,-537.9749 197.0304,-539.6578 200.3629,-545.8136"/>
</g>
<!-- 5 -->
<g id="node6" class="node">
<title>5</title>
<path fill="none" stroke="#56d89a" stroke-width="2" d="M355.5,-108C355.5,-108 306.5,-108 306.5,-108 300.5,-108 294.5,-102 294.5,-96 294.5,-96 294.5,-84 294.5,-84 294.5,-78 300.5,-72 306.5,-72 306.5,-72 355.5,-72 355.5,-72 361.5,-72 367.5,-78 367.5,-84 367.5,-84 367.5,-96 367.5,-96 367.5,-102 361.5,-108 355.5,-108"/>
<text text-anchor="middle" x="331" y="-87.5" font-family="sans" font-size="10.00" fill="#000000">plot_comps</text>
</g>
<!-- 5&#45;&gt;0 -->
<g id="edge1" class="edge">
<title>5&#45;&gt;0</title>
<path fill="none" stroke="#c0c0c0" stroke-width="2" d="M299.7096,-71.8314C282.4804,-61.8273 261.0184,-49.3655 243.0844,-38.9522"/>
<polygon fill="#c0c0c0" stroke="#c0c0c0" stroke-width="2" points="244.4741,-35.7119 234.0687,-33.7173 240.9591,-41.7655 244.4741,-35.7119"/>
</g>
<!-- 6 -->
<g id="node7" class="node">
<title>6</title>
<path fill="none" stroke="#56d86b" stroke-width="2" d="M327.5,-252C327.5,-252 274.5,-252 274.5,-252 268.5,-252 262.5,-246 262.5,-240 262.5,-240 262.5,-228 262.5,-228 262.5,-222 268.5,-216 274.5,-216 274.5,-216 327.5,-216 327.5,-216 333.5,-216 339.5,-222 339.5,-228 339.5,-228 339.5,-240 339.5,-240 339.5,-246 333.5,-252 327.5,-252"/>
<text text-anchor="middle" x="301" y="-231.5" font-family="sans" font-size="10.00" fill="#000000">deconvolute</text>
</g>
<!-- 6&#45;&gt;5 -->
<g id="edge14" class="edge">
<title>6&#45;&gt;5</title>
<path fill="none" stroke="#c0c0c0" stroke-width="2" d="M304.7995,-215.7623C309.939,-191.0928 319.1542,-146.8598 325.1723,-117.9731"/>
<polygon fill="#c0c0c0" stroke="#c0c0c0" stroke-width="2" points="328.6181,-118.5933 327.2313,-108.0896 321.7653,-117.1656 328.6181,-118.5933"/>
</g>
<!-- 15 -->
<g id="node16" class="node">
<title>15</title>
<path fill="none" stroke="#56d8b1" stroke-width="2" d="M394,-180C394,-180 362,-180 362,-180 356,-180 350,-174 350,-168 350,-168 350,-156 350,-156 350,-150 356,-144 362,-144 362,-144 394,-144 394,-144 400,-144 406,-150 406,-156 406,-156 406,-168 406,-168 406,-174 400,-180 394,-180"/>
<text text-anchor="middle" x="378" y="-159.5" font-family="sans" font-size="10.00" fill="#000000">dirichlet</text>
</g>
<!-- 6&#45;&gt;15 -->
<g id="edge26" class="edge">
<title>6&#45;&gt;15</title>
<path fill="none" stroke="#c0c0c0" stroke-width="2" d="M320.4304,-215.8314C329.732,-207.1337 341.0204,-196.5783 351.1286,-187.1265"/>
<polygon fill="#c0c0c0" stroke="#c0c0c0" stroke-width="2" points="353.6621,-189.5493 358.5759,-180.1628 348.8811,-184.4363 353.6621,-189.5493"/>
</g>
<!-- 17 -->
<g id="node18" class="node">
<title>17</title>
<path fill="none" stroke="#56c9d8" stroke-width="2" d="M281.5,-180C281.5,-180 186.5,-180 186.5,-180 180.5,-180 174.5,-174 174.5,-168 174.5,-168 174.5,-156 174.5,-156 174.5,-150 180.5,-144 186.5,-144 186.5,-144 281.5,-144 281.5,-144 287.5,-144 293.5,-150 293.5,-156 293.5,-156 293.5,-168 293.5,-168 293.5,-174 287.5,-180 281.5,-180"/>
<text text-anchor="middle" x="234" y="-159.5" font-family="sans" font-size="10.00" fill="#000000">diffential_expression</text>
</g>
<!-- 6&#45;&gt;17 -->
<g id="edge28" class="edge">
<title>6&#45;&gt;17</title>
<path fill="none" stroke="#c0c0c0" stroke-width="2" d="M284.0931,-215.8314C276.2187,-207.3694 266.708,-197.1489 258.0987,-187.8971"/>
<polygon fill="#c0c0c0" stroke="#c0c0c0" stroke-width="2" points="260.5092,-185.3497 251.1346,-180.4133 255.3847,-190.1183 260.5092,-185.3497"/>
</g>
<!-- 7 -->
<g id="node8" class="node">
<title>7</title>
<path fill="none" stroke="#d85656" stroke-width="2" d="M166,-324C166,-324 116,-324 116,-324 110,-324 104,-318 104,-312 104,-312 104,-300 104,-300 104,-294 110,-288 116,-288 116,-288 166,-288 166,-288 172,-288 178,-294 178,-300 178,-300 178,-312 178,-312 178,-318 172,-324 166,-324"/>
<text text-anchor="middle" x="141" y="-303.5" font-family="sans" font-size="10.00" fill="#000000">findMarkers</text>
</g>
<!-- 7&#45;&gt;0 -->
<g id="edge4" class="edge">
<title>7&#45;&gt;0</title>
<path fill="none" stroke="#c0c0c0" stroke-width="2" d="M119.6873,-287.7308C110.1866,-278.1756 100.021,-265.6372 95,-252 77.4669,-204.3798 80.1687,-128.2694 118,-72 130.5945,-53.2672 152.0845,-39.9596 170.7921,-31.2424"/>
<polygon fill="#c0c0c0" stroke="#c0c0c0" stroke-width="2" points="172.2272,-34.4349 179.9795,-27.2132 169.4157,-28.0243 172.2272,-34.4349"/>
</g>
<!-- 7&#45;&gt;6 -->
<g id="edge15" class="edge">
<title>7&#45;&gt;6</title>
<path fill="none" stroke="#c0c0c0" stroke-width="2" d="M178.1094,-289.3008C200.4397,-279.2521 229.0998,-266.3551 253.1247,-255.5439"/>
<polygon fill="#c0c0c0" stroke="#c0c0c0" stroke-width="2" points="254.7385,-258.6558 262.4214,-251.3603 251.8659,-252.2723 254.7385,-258.6558"/>
</g>
<!-- 18 -->
<g id="node19" class="node">
<title>18</title>
<path fill="none" stroke="#56d882" stroke-width="2" d="M166,-252C166,-252 116,-252 116,-252 110,-252 104,-246 104,-240 104,-240 104,-228 104,-228 104,-222 110,-216 116,-216 116,-216 166,-216 166,-216 172,-216 178,-222 178,-228 178,-228 178,-240 178,-240 178,-246 172,-252 166,-252"/>
<text text-anchor="middle" x="141" y="-231.5" font-family="sans" font-size="10.00" fill="#000000">plotMarkers</text>
</g>
<!-- 7&#45;&gt;18 -->
<g id="edge30" class="edge">
<title>7&#45;&gt;18</title>
<path fill="none" stroke="#c0c0c0" stroke-width="2" d="M141,-287.8314C141,-280.131 141,-270.9743 141,-262.4166"/>
<polygon fill="#c0c0c0" stroke="#c0c0c0" stroke-width="2" points="144.5001,-262.4132 141,-252.4133 137.5001,-262.4133 144.5001,-262.4132"/>
</g>
<!-- 8 -->
<g id="node9" class="node">
<title>8</title>
<path fill="none" stroke="#5682d8" stroke-width="2" d="M155.5,-396C155.5,-396 114.5,-396 114.5,-396 108.5,-396 102.5,-390 102.5,-384 102.5,-384 102.5,-372 102.5,-372 102.5,-366 108.5,-360 114.5,-360 114.5,-360 155.5,-360 155.5,-360 161.5,-360 167.5,-366 167.5,-372 167.5,-372 167.5,-384 167.5,-384 167.5,-390 161.5,-396 155.5,-396"/>
<text text-anchor="middle" x="135" y="-375.5" font-family="sans" font-size="10.00" fill="#000000">merge_sn</text>
</g>
<!-- 8&#45;&gt;7 -->
<g id="edge17" class="edge">
<title>8&#45;&gt;7</title>
<path fill="none" stroke="#c0c0c0" stroke-width="2" d="M136.5141,-359.8314C137.1558,-352.131 137.9188,-342.9743 138.6319,-334.4166"/>
<polygon fill="#c0c0c0" stroke="#c0c0c0" stroke-width="2" points="142.1229,-334.6694 139.4656,-324.4133 135.1471,-334.088 142.1229,-334.6694"/>
</g>
<!-- 9 -->
<g id="node10" class="node">
<title>9</title>
<path fill="none" stroke="#d8b456" stroke-width="2" d="M172,-468C172,-468 92,-468 92,-468 86,-468 80,-462 80,-456 80,-456 80,-444 80,-444 80,-438 86,-432 92,-432 92,-432 172,-432 172,-432 178,-432 184,-438 184,-444 184,-444 184,-456 184,-456 184,-462 178,-468 172,-468"/>
<text text-anchor="middle" x="132" y="-447.5" font-family="sans" font-size="10.00" fill="#000000">ambient_doublets</text>
</g>
<!-- 9&#45;&gt;8 -->
<g id="edge19" class="edge">
<title>9&#45;&gt;8</title>
<path fill="none" stroke="#c0c0c0" stroke-width="2" d="M132.757,-431.8314C133.0779,-424.131 133.4594,-414.9743 133.816,-406.4166"/>
<polygon fill="#c0c0c0" stroke="#c0c0c0" stroke-width="2" points="137.3133,-406.5503 134.2328,-396.4133 130.3194,-406.2589 137.3133,-406.5503"/>
</g>
<!-- 10 -->
<g id="node11" class="node">
<title>10</title>
<path fill="none" stroke="#569ad8" stroke-width="2" d="M147,-540C147,-540 117,-540 117,-540 111,-540 105,-534 105,-528 105,-528 105,-516 105,-516 105,-510 111,-504 117,-504 117,-504 147,-504 147,-504 153,-504 159,-510 159,-516 159,-516 159,-528 159,-528 159,-534 153,-540 147,-540"/>
<text text-anchor="middle" x="132" y="-519.5" font-family="sans" font-size="10.00" fill="#000000">load_sn</text>
</g>
<!-- 10&#45;&gt;0 -->
<g id="edge8" class="edge">
<title>10&#45;&gt;0</title>
<path fill="none" stroke="#c0c0c0" stroke-width="2" d="M106.1341,-503.8602C94.1026,-494.3357 80.4074,-481.7856 71,-468 46.9855,-432.8089 38,-420.6041 38,-378 38,-378 38,-378 38,-162 38,-92.9772 120.683,-50.0604 170.3816,-30.4986"/>
<polygon fill="#c0c0c0" stroke="#c0c0c0" stroke-width="2" points="171.7457,-33.7244 179.8472,-26.8968 169.2562,-27.182 171.7457,-33.7244"/>
</g>
<!-- 10&#45;&gt;9 -->
<g id="edge20" class="edge">
<title>10&#45;&gt;9</title>
<path fill="none" stroke="#c0c0c0" stroke-width="2" d="M132,-503.8314C132,-496.131 132,-486.9743 132,-478.4166"/>
<polygon fill="#c0c0c0" stroke="#c0c0c0" stroke-width="2" points="135.5001,-478.4132 132,-468.4133 128.5001,-478.4133 135.5001,-478.4132"/>
</g>
<!-- 11 -->
<g id="node12" class="node">
<title>11</title>
<path fill="none" stroke="#d88556" stroke-width="2" d="M259.5,-396C259.5,-396 214.5,-396 214.5,-396 208.5,-396 202.5,-390 202.5,-384 202.5,-384 202.5,-372 202.5,-372 202.5,-366 208.5,-360 214.5,-360 214.5,-360 259.5,-360 259.5,-360 265.5,-360 271.5,-366 271.5,-372 271.5,-372 271.5,-384 271.5,-384 271.5,-390 265.5,-396 259.5,-396"/>
<text text-anchor="middle" x="237" y="-375.5" font-family="sans" font-size="10.00" fill="#000000">clean_bulk</text>
</g>
<!-- 11&#45;&gt;0 -->
<g id="edge5" class="edge">
<title>11&#45;&gt;0</title>
<path fill="none" stroke="#c0c0c0" stroke-width="2" d="M271.7662,-369.6489C328.321,-353.7567 434,-313.4331 434,-234 434,-234 434,-234 434,-162 434,-118.5807 428.5054,-100.7861 396,-72 373.5078,-52.0814 292.5431,-34.0167 244.1829,-24.6788"/>
<polygon fill="#c0c0c0" stroke="#c0c0c0" stroke-width="2" points="244.5772,-21.1913 234.1002,-22.767 243.2731,-28.0687 244.5772,-21.1913"/>
</g>
<!-- 11&#45;&gt;6 -->
<g id="edge16" class="edge">
<title>11&#45;&gt;6</title>
<path fill="none" stroke="#c0c0c0" stroke-width="2" d="M245.1056,-359.7623C256.1179,-334.9846 275.9016,-290.4714 288.7361,-261.5939"/>
<polygon fill="#c0c0c0" stroke="#c0c0c0" stroke-width="2" points="292.0971,-262.6492 292.9602,-252.0896 285.7004,-259.8062 292.0971,-262.6492"/>
</g>
<!-- 11&#45;&gt;7 -->
<g id="edge18" class="edge">
<title>11&#45;&gt;7</title>
<path fill="none" stroke="#c0c0c0" stroke-width="2" d="M212.7751,-359.8314C200.8372,-350.8779 186.2744,-339.9558 173.394,-330.2955"/>
<polygon fill="#c0c0c0" stroke="#c0c0c0" stroke-width="2" points="175.3171,-327.3629 165.2171,-324.1628 171.1171,-332.9629 175.3171,-327.3629"/>
</g>
<!-- 11&#45;&gt;17 -->
<g id="edge29" class="edge">
<title>11&#45;&gt;17</title>
<path fill="none" stroke="#c0c0c0" stroke-width="2" d="M236.7494,-359.9555C236.2277,-322.3938 235.0216,-235.5541 234.3946,-190.4103"/>
<polygon fill="#c0c0c0" stroke="#c0c0c0" stroke-width="2" points="237.8906,-190.0955 234.252,-180.1451 230.8913,-190.1927 237.8906,-190.0955"/>
</g>
<!-- 12 -->
<g id="node13" class="node">
<title>12</title>
<path fill="none" stroke="#b6d856" stroke-width="2" d="M260,-468C260,-468 214,-468 214,-468 208,-468 202,-462 202,-456 202,-456 202,-444 202,-444 202,-438 208,-432 214,-432 214,-432 260,-432 260,-432 266,-432 272,-438 272,-444 272,-444 272,-456 272,-456 272,-462 266,-468 260,-468"/>
<text text-anchor="middle" x="237" y="-447.5" font-family="sans" font-size="10.00" fill="#000000">ensb2gene</text>
</g>
<!-- 12&#45;&gt;11 -->
<g id="edge21" class="edge">
<title>12&#45;&gt;11</title>
<path fill="none" stroke="#c0c0c0" stroke-width="2" d="M237,-431.8314C237,-424.131 237,-414.9743 237,-406.4166"/>
<polygon fill="#c0c0c0" stroke="#c0c0c0" stroke-width="2" points="240.5001,-406.4132 237,-396.4133 233.5001,-406.4133 240.5001,-406.4132"/>
</g>
<!-- 13&#45;&gt;12 -->
<g id="edge22" class="edge">
<title>13&#45;&gt;12</title>
<path fill="none" stroke="#c0c0c0" stroke-width="2" d="M237,-503.8314C237,-496.131 237,-486.9743 237,-478.4166"/>
<polygon fill="#c0c0c0" stroke="#c0c0c0" stroke-width="2" points="240.5001,-478.4132 237,-468.4133 233.5001,-478.4133 240.5001,-478.4132"/>
</g>
<!-- 14 -->
<g id="node15" class="node">
<title>14</title>
<path fill="none" stroke="#9fd856" stroke-width="2" d="M297,-612C297,-612 265,-612 265,-612 259,-612 253,-606 253,-600 253,-600 253,-588 253,-588 253,-582 259,-576 265,-576 265,-576 297,-576 297,-576 303,-576 309,-582 309,-588 309,-588 309,-600 309,-600 309,-606 303,-612 297,-612"/>
<text text-anchor="middle" x="281" y="-591.5" font-family="sans" font-size="10.00" fill="#000000">load_gtf</text>
</g>
<!-- 14&#45;&gt;0 -->
<g id="edge2" class="edge">
<title>14&#45;&gt;0</title>
<path fill="none" stroke="#c0c0c0" stroke-width="2" d="M309.1827,-586.9287C362.3126,-571.7195 472,-530.5641 472,-450 472,-450 472,-450 472,-162 472,-116.6667 459.7471,-99.8793 424,-72 396.1751,-50.2993 298.448,-32.189 244.1233,-23.5124"/>
<polygon fill="#c0c0c0" stroke="#c0c0c0" stroke-width="2" points="244.6127,-20.0464 234.1909,-21.9539 243.5275,-26.9618 244.6127,-20.0464"/>
</g>
<!-- 14&#45;&gt;13 -->
<g id="edge25" class="edge">
<title>14&#45;&gt;13</title>
<path fill="none" stroke="#c0c0c0" stroke-width="2" d="M269.8969,-575.8314C264.9326,-567.7079 258.9778,-557.9637 253.5072,-549.0118"/>
<polygon fill="#c0c0c0" stroke="#c0c0c0" stroke-width="2" points="256.4536,-547.121 248.2526,-540.4133 250.4806,-550.7712 256.4536,-547.121"/>
</g>
<!-- 15&#45;&gt;0 -->
<g id="edge3" class="edge">
<title>15&#45;&gt;0</title>
<path fill="none" stroke="#c0c0c0" stroke-width="2" d="M383.5253,-143.8241C388.3204,-124.1212 392.3388,-92.7238 377,-72 361.1047,-50.5244 289.3981,-33.4653 244.3423,-24.6263"/>
<polygon fill="#c0c0c0" stroke="#c0c0c0" stroke-width="2" points="244.8171,-21.1537 234.3375,-22.7121 243.5017,-28.029 244.8171,-21.1537"/>
</g>
<!-- 16 -->
<g id="node17" class="node">
<title>16</title>
<path fill="none" stroke="#56b1d8" stroke-width="2" d="M184,-108C184,-108 154,-108 154,-108 148,-108 142,-102 142,-96 142,-96 142,-84 142,-84 142,-78 148,-72 154,-72 154,-72 184,-72 184,-72 190,-72 196,-78 196,-84 196,-84 196,-96 196,-96 196,-102 190,-108 184,-108"/>
<text text-anchor="middle" x="169" y="-87.5" font-family="sans" font-size="10.00" fill="#000000">plot_de</text>
</g>
<!-- 16&#45;&gt;0 -->
<g id="edge7" class="edge">
<title>16&#45;&gt;0</title>
<path fill="none" stroke="#c0c0c0" stroke-width="2" d="M178.589,-71.8314C182.8317,-63.7925 187.9121,-54.1666 192.596,-45.2918"/>
<polygon fill="#c0c0c0" stroke="#c0c0c0" stroke-width="2" points="195.7096,-46.8908 197.2819,-36.4133 189.5189,-43.6235 195.7096,-46.8908"/>
</g>
<!-- 17&#45;&gt;16 -->
<g id="edge27" class="edge">
<title>17&#45;&gt;16</title>
<path fill="none" stroke="#c0c0c0" stroke-width="2" d="M217.5978,-143.8314C209.9585,-135.3694 200.7317,-125.1489 192.3793,-115.8971"/>
<polygon fill="#c0c0c0" stroke="#c0c0c0" stroke-width="2" points="194.9221,-113.4906 185.6231,-108.4133 189.7262,-118.1813 194.9221,-113.4906"/>
</g>
<!-- 19 -->
<g id="node20" class="node">
<title>19</title>
<path fill="none" stroke="#d89c56" stroke-width="2" d="M264,-108C264,-108 226,-108 226,-108 220,-108 214,-102 214,-96 214,-96 214,-84 214,-84 214,-78 220,-72 226,-72 226,-72 264,-72 264,-72 270,-72 276,-78 276,-84 276,-84 276,-96 276,-96 276,-102 270,-108 264,-108"/>
<text text-anchor="middle" x="245" y="-87.5" font-family="sans" font-size="10.00" fill="#000000">gene_ont</text>
</g>
<!-- 17&#45;&gt;19 -->
<g id="edge31" class="edge">
<title>17&#45;&gt;19</title>
<path fill="none" stroke="#c0c0c0" stroke-width="2" d="M236.7758,-143.8314C237.9522,-136.131 239.3511,-126.9743 240.6586,-118.4166"/>
<polygon fill="#c0c0c0" stroke="#c0c0c0" stroke-width="2" points="244.1364,-118.8272 242.1869,-108.4133 237.2167,-117.7699 244.1364,-118.8272"/>
</g>
<!-- 18&#45;&gt;0 -->
<g id="edge9" class="edge">
<title>18&#45;&gt;0</title>
<path fill="none" stroke="#c0c0c0" stroke-width="2" d="M134.5296,-215.7714C124.5725,-184.4397 109.0151,-119.1944 133,-72 141.1153,-56.0318 156.4126,-43.6621 171.002,-34.8153"/>
<polygon fill="#c0c0c0" stroke="#c0c0c0" stroke-width="2" points="172.9479,-37.7356 179.9239,-29.7615 169.4978,-31.6449 172.9479,-37.7356"/>
</g>
<!-- 19&#45;&gt;0 -->
<g id="edge6" class="edge">
<title>19&#45;&gt;0</title>
<path fill="none" stroke="#c0c0c0" stroke-width="2" d="M235.411,-71.8314C231.1683,-63.7925 226.0879,-54.1666 221.404,-45.2918"/>
<polygon fill="#c0c0c0" stroke="#c0c0c0" stroke-width="2" points="224.4811,-43.6235 216.7181,-36.4133 218.2904,-46.8908 224.4811,-43.6235"/>
</g>
</g>
</svg>
