<?xml version="1.0" encoding="UTF-8" standalone="no"?>
<!DOCTYPE svg PUBLIC "-//W3C//DTD SVG 1.1//EN"
 "http://www.w3.org/Graphics/SVG/1.1/DTD/svg11.dtd">
<!-- Generated by graphviz version 2.40.1 (0)
 -->
<!-- Title: snakemake_dag Pages: 1 -->
<svg width="351pt" height="764pt"
 viewBox="0.00 0.00 351.00 764.00" xmlns="http://www.w3.org/2000/svg" xmlns:xlink="http://www.w3.org/1999/xlink">
<g id="graph0" class="graph" transform="scale(1 1) rotate(0) translate(4 760)">
<title>snakemake_dag</title>
<polygon fill="#ffffff" stroke="transparent" points="-4,4 -4,-760 347,-760 347,4 -4,4"/>
<!-- 0 -->
<g id="node1" class="node">
<title>0</title>
<path fill="none" stroke="#d85656" stroke-width="2" d="M105,-324C105,-324 55,-324 55,-324 49,-324 43,-318 43,-312 43,-312 43,-300 43,-300 43,-294 49,-288 55,-288 55,-288 105,-288 105,-288 111,-288 117,-294 117,-300 117,-300 117,-312 117,-312 117,-318 111,-324 105,-324"/>
<text text-anchor="middle" x="80" y="-303.5" font-family="sans" font-size="10.00" fill="#000000">findMarkers</text>
</g>
<!-- 1 -->
<g id="node2" class="node">
<title>1</title>
<path fill="none" stroke="#d86e56" stroke-width="2" d="M128,-108C128,-108 78,-108 78,-108 72,-108 66,-102 66,-96 66,-96 66,-84 66,-84 66,-78 72,-72 78,-72 78,-72 128,-72 128,-72 134,-72 140,-78 140,-84 140,-84 140,-96 140,-96 140,-102 134,-108 128,-108"/>
<text text-anchor="middle" x="103" y="-87.5" font-family="sans" font-size="10.00" fill="#000000">plotMarkers</text>
</g>
<!-- 0&#45;&gt;1 -->
<g id="edge3" class="edge">
<title>0&#45;&gt;1</title>
<path fill="none" stroke="#c0c0c0" stroke-width="2" d="M81.6409,-287.5162C84.3545,-257.4159 90.0692,-195.9469 96,-144 96.95,-135.6789 98.0808,-126.6499 99.1536,-118.3995"/>
<polygon fill="#c0c0c0" stroke="#c0c0c0" stroke-width="2" points="102.6244,-118.8494 100.4633,-108.4774 95.6846,-117.9333 102.6244,-118.8494"/>
</g>
<!-- 2 -->
<g id="node3" class="node">
<title>2</title>
<path fill="none" stroke="#d88d56" stroke-width="2" d="M150,-36C150,-36 120,-36 120,-36 114,-36 108,-30 108,-24 108,-24 108,-12 108,-12 108,-6 114,0 120,0 120,0 150,0 150,0 156,0 162,-6 162,-12 162,-12 162,-24 162,-24 162,-30 156,-36 150,-36"/>
<text text-anchor="middle" x="135" y="-15.5" font-family="sans" font-size="10.00" fill="#000000">all</text>
</g>
<!-- 0&#45;&gt;2 -->
<g id="edge4" class="edge">
<title>0&#45;&gt;2</title>
<path fill="none" stroke="#c0c0c0" stroke-width="2" d="M71.8697,-287.9964C54.6383,-246.9716 19.0149,-144.4972 57,-72 65.8819,-55.0483 82.7701,-42.3602 98.5669,-33.5576"/>
<polygon fill="#c0c0c0" stroke="#c0c0c0" stroke-width="2" points="100.4166,-36.5407 107.673,-28.8208 97.1863,-30.3306 100.4166,-36.5407"/>
</g>
<!-- 10 -->
<g id="node11" class="node">
<title>10</title>
<path fill="none" stroke="#88d856" stroke-width="2" d="M181.5,-252C181.5,-252 128.5,-252 128.5,-252 122.5,-252 116.5,-246 116.5,-240 116.5,-240 116.5,-228 116.5,-228 116.5,-222 122.5,-216 128.5,-216 128.5,-216 181.5,-216 181.5,-216 187.5,-216 193.5,-222 193.5,-228 193.5,-228 193.5,-240 193.5,-240 193.5,-246 187.5,-252 181.5,-252"/>
<text text-anchor="middle" x="155" y="-231.5" font-family="sans" font-size="10.00" fill="#000000">deconvolute</text>
</g>
<!-- 0&#45;&gt;10 -->
<g id="edge14" class="edge">
<title>0&#45;&gt;10</title>
<path fill="none" stroke="#c0c0c0" stroke-width="2" d="M98.9257,-287.8314C107.9857,-279.1337 118.9809,-268.5783 128.8265,-259.1265"/>
<polygon fill="#c0c0c0" stroke="#c0c0c0" stroke-width="2" points="131.2904,-261.613 136.0804,-252.1628 126.4426,-256.5633 131.2904,-261.613"/>
</g>
<!-- 1&#45;&gt;2 -->
<g id="edge5" class="edge">
<title>1&#45;&gt;2</title>
<path fill="none" stroke="#c0c0c0" stroke-width="2" d="M111.075,-71.8314C114.6102,-63.8771 118.836,-54.369 122.7456,-45.5723"/>
<polygon fill="#c0c0c0" stroke="#c0c0c0" stroke-width="2" points="125.9532,-46.9729 126.8163,-36.4133 119.5565,-44.1299 125.9532,-46.9729"/>
</g>
<!-- 3 -->
<g id="node4" class="node">
<title>3</title>
<path fill="none" stroke="#70d856" stroke-width="2" d="M208,-468C208,-468 162,-468 162,-468 156,-468 150,-462 150,-456 150,-456 150,-444 150,-444 150,-438 156,-432 162,-432 162,-432 208,-432 208,-432 214,-432 220,-438 220,-444 220,-444 220,-456 220,-456 220,-462 214,-468 208,-468"/>
<text text-anchor="middle" x="185" y="-447.5" font-family="sans" font-size="10.00" fill="#000000">ensb2gene</text>
</g>
<!-- 17 -->
<g id="node18" class="node">
<title>17</title>
<path fill="none" stroke="#568ad8" stroke-width="2" d="M197.5,-396C197.5,-396 152.5,-396 152.5,-396 146.5,-396 140.5,-390 140.5,-384 140.5,-384 140.5,-372 140.5,-372 140.5,-366 146.5,-360 152.5,-360 152.5,-360 197.5,-360 197.5,-360 203.5,-360 209.5,-366 209.5,-372 209.5,-372 209.5,-384 209.5,-384 209.5,-390 203.5,-396 197.5,-396"/>
<text text-anchor="middle" x="175" y="-375.5" font-family="sans" font-size="10.00" fill="#000000">clean_bulk</text>
</g>
<!-- 3&#45;&gt;17 -->
<g id="edge26" class="edge">
<title>3&#45;&gt;17</title>
<path fill="none" stroke="#c0c0c0" stroke-width="2" d="M182.4766,-431.8314C181.4071,-424.131 180.1353,-414.9743 178.9468,-406.4166"/>
<polygon fill="#c0c0c0" stroke="#c0c0c0" stroke-width="2" points="182.3999,-405.8367 177.5574,-396.4133 175.4664,-406.7997 182.3999,-405.8367"/>
</g>
<!-- 4 -->
<g id="node5" class="node">
<title>4</title>
<path fill="none" stroke="#56a2d8" stroke-width="2" d="M296,-756C296,-756 250,-756 250,-756 244,-756 238,-750 238,-744 238,-744 238,-732 238,-732 238,-726 244,-720 250,-720 250,-720 296,-720 296,-720 302,-720 308,-726 308,-732 308,-732 308,-744 308,-744 308,-750 302,-756 296,-756"/>
<text text-anchor="middle" x="273" y="-735.5" font-family="sans" font-size="10.00" fill="#000000">load_index</text>
</g>
<!-- 8 -->
<g id="node9" class="node">
<title>8</title>
<path fill="none" stroke="#d8a456" stroke-width="2" d="M303.5,-684C303.5,-684 242.5,-684 242.5,-684 236.5,-684 230.5,-678 230.5,-672 230.5,-672 230.5,-660 230.5,-660 230.5,-654 236.5,-648 242.5,-648 242.5,-648 303.5,-648 303.5,-648 309.5,-648 315.5,-654 315.5,-660 315.5,-660 315.5,-672 315.5,-672 315.5,-678 309.5,-684 303.5,-684"/>
<text text-anchor="middle" x="273" y="-663.5" font-family="sans" font-size="10.00" fill="#000000">salmon_index</text>
</g>
<!-- 4&#45;&gt;8 -->
<g id="edge12" class="edge">
<title>4&#45;&gt;8</title>
<path fill="none" stroke="#c0c0c0" stroke-width="2" d="M273,-719.8314C273,-712.131 273,-702.9743 273,-694.4166"/>
<polygon fill="#c0c0c0" stroke="#c0c0c0" stroke-width="2" points="276.5001,-694.4132 273,-684.4133 269.5001,-694.4133 276.5001,-694.4132"/>
</g>
<!-- 5 -->
<g id="node6" class="node">
<title>5</title>
<path fill="none" stroke="#56d8c1" stroke-width="2" d="M95,-540C95,-540 65,-540 65,-540 59,-540 53,-534 53,-528 53,-528 53,-516 53,-516 53,-510 59,-504 65,-504 65,-504 95,-504 95,-504 101,-504 107,-510 107,-516 107,-516 107,-528 107,-528 107,-534 101,-540 95,-540"/>
<text text-anchor="middle" x="80" y="-519.5" font-family="sans" font-size="10.00" fill="#000000">load_sn</text>
</g>
<!-- 6 -->
<g id="node7" class="node">
<title>6</title>
<path fill="none" stroke="#bed856" stroke-width="2" d="M120,-468C120,-468 40,-468 40,-468 34,-468 28,-462 28,-456 28,-456 28,-444 28,-444 28,-438 34,-432 40,-432 40,-432 120,-432 120,-432 126,-432 132,-438 132,-444 132,-444 132,-456 132,-456 132,-462 126,-468 120,-468"/>
<text text-anchor="middle" x="80" y="-447.5" font-family="sans" font-size="10.00" fill="#000000">ambient_doublets</text>
</g>
<!-- 5&#45;&gt;6 -->
<g id="edge11" class="edge">
<title>5&#45;&gt;6</title>
<path fill="none" stroke="#c0c0c0" stroke-width="2" d="M80,-503.8314C80,-496.131 80,-486.9743 80,-478.4166"/>
<polygon fill="#c0c0c0" stroke="#c0c0c0" stroke-width="2" points="83.5001,-478.4132 80,-468.4133 76.5001,-478.4133 83.5001,-478.4132"/>
</g>
<!-- 16 -->
<g id="node17" class="node">
<title>16</title>
<path fill="none" stroke="#56d873" stroke-width="2" d="M100.5,-396C100.5,-396 59.5,-396 59.5,-396 53.5,-396 47.5,-390 47.5,-384 47.5,-384 47.5,-372 47.5,-372 47.5,-366 53.5,-360 59.5,-360 59.5,-360 100.5,-360 100.5,-360 106.5,-360 112.5,-366 112.5,-372 112.5,-372 112.5,-384 112.5,-384 112.5,-390 106.5,-396 100.5,-396"/>
<text text-anchor="middle" x="80" y="-375.5" font-family="sans" font-size="10.00" fill="#000000">merge_sn</text>
</g>
<!-- 6&#45;&gt;16 -->
<g id="edge25" class="edge">
<title>6&#45;&gt;16</title>
<path fill="none" stroke="#c0c0c0" stroke-width="2" d="M80,-431.8314C80,-424.131 80,-414.9743 80,-406.4166"/>
<polygon fill="#c0c0c0" stroke="#c0c0c0" stroke-width="2" points="83.5001,-406.4132 80,-396.4133 76.5001,-406.4133 83.5001,-406.4132"/>
</g>
<!-- 7 -->
<g id="node8" class="node">
<title>7</title>
<path fill="none" stroke="#d6d856" stroke-width="2" d="M72,-612C72,-612 40,-612 40,-612 34,-612 28,-606 28,-600 28,-600 28,-588 28,-588 28,-582 34,-576 40,-576 40,-576 72,-576 72,-576 78,-576 84,-582 84,-588 84,-588 84,-600 84,-600 84,-606 78,-612 72,-612"/>
<text text-anchor="middle" x="56" y="-591.5" font-family="sans" font-size="10.00" fill="#000000">load_gtf</text>
</g>
<!-- 7&#45;&gt;2 -->
<g id="edge6" class="edge">
<title>7&#45;&gt;2</title>
<path fill="none" stroke="#c0c0c0" stroke-width="2" d="M43.8488,-575.7857C27.3788,-549.2865 0,-498.0148 0,-450 0,-450 0,-450 0,-162 0,-118.0449 11.4132,-104.5064 41,-72 56.7143,-54.735 79.2696,-41.5231 98.3469,-32.4899"/>
<polygon fill="#c0c0c0" stroke="#c0c0c0" stroke-width="2" points="100.0022,-35.5826 107.6687,-28.2699 97.1152,-29.2056 100.0022,-35.5826"/>
</g>
<!-- 14 -->
<g id="node15" class="node">
<title>14</title>
<path fill="none" stroke="#d8bc56" stroke-width="2" d="M202.5,-540C202.5,-540 167.5,-540 167.5,-540 161.5,-540 155.5,-534 155.5,-528 155.5,-528 155.5,-516 155.5,-516 155.5,-510 161.5,-504 167.5,-504 167.5,-504 202.5,-504 202.5,-504 208.5,-504 214.5,-510 214.5,-516 214.5,-516 214.5,-528 214.5,-528 214.5,-534 208.5,-540 202.5,-540"/>
<text text-anchor="middle" x="185" y="-519.5" font-family="sans" font-size="10.00" fill="#000000">tximport</text>
</g>
<!-- 7&#45;&gt;14 -->
<g id="edge20" class="edge">
<title>7&#45;&gt;14</title>
<path fill="none" stroke="#c0c0c0" stroke-width="2" d="M84.3096,-578.1993C102.5754,-568.0044 126.5664,-554.6141 146.5485,-543.4613"/>
<polygon fill="#c0c0c0" stroke="#c0c0c0" stroke-width="2" points="148.3862,-546.4439 155.4124,-538.514 144.9746,-540.3315 148.3862,-546.4439"/>
</g>
<!-- 12 -->
<g id="node13" class="node">
<title>12</title>
<path fill="none" stroke="#56d88a" stroke-width="2" d="M304,-612C304,-612 242,-612 242,-612 236,-612 230,-606 230,-600 230,-600 230,-588 230,-588 230,-582 236,-576 242,-576 242,-576 304,-576 304,-576 310,-576 316,-582 316,-588 316,-588 316,-600 316,-600 316,-606 310,-612 304,-612"/>
<text text-anchor="middle" x="273" y="-591.5" font-family="sans" font-size="10.00" fill="#000000">salmon_quant</text>
</g>
<!-- 8&#45;&gt;12 -->
<g id="edge17" class="edge">
<title>8&#45;&gt;12</title>
<path fill="none" stroke="#c0c0c0" stroke-width="2" d="M273,-647.8314C273,-640.131 273,-630.9743 273,-622.4166"/>
<polygon fill="#c0c0c0" stroke="#c0c0c0" stroke-width="2" points="276.5001,-622.4132 273,-612.4133 269.5001,-622.4133 276.5001,-622.4132"/>
</g>
<!-- 9 -->
<g id="node10" class="node">
<title>9</title>
<path fill="none" stroke="#a7d856" stroke-width="2" d="M165.5,-180C165.5,-180 116.5,-180 116.5,-180 110.5,-180 104.5,-174 104.5,-168 104.5,-168 104.5,-156 104.5,-156 104.5,-150 110.5,-144 116.5,-144 116.5,-144 165.5,-144 165.5,-144 171.5,-144 177.5,-150 177.5,-156 177.5,-156 177.5,-168 177.5,-168 177.5,-174 171.5,-180 165.5,-180"/>
<text text-anchor="middle" x="141" y="-159.5" font-family="sans" font-size="10.00" fill="#000000">plot_comps</text>
</g>
<!-- 9&#45;&gt;2 -->
<g id="edge7" class="edge">
<title>9&#45;&gt;2</title>
<path fill="none" stroke="#c0c0c0" stroke-width="2" d="M144.9342,-143.6844C148.3049,-125.4675 152.1551,-96.7413 149,-72 147.9146,-63.4887 145.9038,-54.4011 143.738,-46.1555"/>
<polygon fill="#c0c0c0" stroke="#c0c0c0" stroke-width="2" points="147.0363,-44.9542 140.9698,-36.2681 140.2955,-46.8414 147.0363,-44.9542"/>
</g>
<!-- 10&#45;&gt;9 -->
<g id="edge13" class="edge">
<title>10&#45;&gt;9</title>
<path fill="none" stroke="#c0c0c0" stroke-width="2" d="M151.4672,-215.8314C149.9699,-208.131 148.1895,-198.9743 146.5255,-190.4166"/>
<polygon fill="#c0c0c0" stroke="#c0c0c0" stroke-width="2" points="149.9248,-189.5614 144.5804,-180.4133 143.0535,-190.8975 149.9248,-189.5614"/>
</g>
<!-- 13 -->
<g id="node14" class="node">
<title>13</title>
<path fill="none" stroke="#56d8d8" stroke-width="2" d="M302.5,-180C302.5,-180 207.5,-180 207.5,-180 201.5,-180 195.5,-174 195.5,-168 195.5,-168 195.5,-156 195.5,-156 195.5,-150 201.5,-144 207.5,-144 207.5,-144 302.5,-144 302.5,-144 308.5,-144 314.5,-150 314.5,-156 314.5,-156 314.5,-168 314.5,-168 314.5,-174 308.5,-180 302.5,-180"/>
<text text-anchor="middle" x="255" y="-159.5" font-family="sans" font-size="10.00" fill="#000000">diffential_expression</text>
</g>
<!-- 10&#45;&gt;13 -->
<g id="edge19" class="edge">
<title>10&#45;&gt;13</title>
<path fill="none" stroke="#c0c0c0" stroke-width="2" d="M180.2342,-215.8314C192.788,-206.7927 208.1283,-195.7476 221.6391,-186.0198"/>
<polygon fill="#c0c0c0" stroke="#c0c0c0" stroke-width="2" points="223.7036,-188.8463 229.7739,-180.1628 219.6134,-183.1655 223.7036,-188.8463"/>
</g>
<!-- 11 -->
<g id="node12" class="node">
<title>11</title>
<path fill="none" stroke="#56d8a2" stroke-width="2" d="M254,-108C254,-108 224,-108 224,-108 218,-108 212,-102 212,-96 212,-96 212,-84 212,-84 212,-78 218,-72 224,-72 224,-72 254,-72 254,-72 260,-72 266,-78 266,-84 266,-84 266,-96 266,-96 266,-102 260,-108 254,-108"/>
<text text-anchor="middle" x="239" y="-87.5" font-family="sans" font-size="10.00" fill="#000000">plot_de</text>
</g>
<!-- 11&#45;&gt;2 -->
<g id="edge8" class="edge">
<title>11&#45;&gt;2</title>
<path fill="none" stroke="#c0c0c0" stroke-width="2" d="M212.7564,-71.8314C199.7005,-62.7927 183.7465,-51.7476 169.6953,-42.0198"/>
<polygon fill="#c0c0c0" stroke="#c0c0c0" stroke-width="2" points="171.4494,-38.9773 161.2352,-36.1628 167.4649,-44.7326 171.4494,-38.9773"/>
</g>
<!-- 12&#45;&gt;14 -->
<g id="edge21" class="edge">
<title>12&#45;&gt;14</title>
<path fill="none" stroke="#c0c0c0" stroke-width="2" d="M250.7939,-575.8314C239.955,-566.9632 226.7556,-556.1637 215.0322,-546.5718"/>
<polygon fill="#c0c0c0" stroke="#c0c0c0" stroke-width="2" points="217.155,-543.7864 207.199,-540.1628 212.7223,-549.2041 217.155,-543.7864"/>
</g>
<!-- 15 -->
<g id="node16" class="node">
<title>15</title>
<path fill="none" stroke="#56c1d8" stroke-width="2" d="M288,-540C288,-540 258,-540 258,-540 252,-540 246,-534 246,-528 246,-528 246,-516 246,-516 246,-510 252,-504 258,-504 258,-504 288,-504 288,-504 294,-504 300,-510 300,-516 300,-516 300,-528 300,-528 300,-534 294,-540 288,-540"/>
<text text-anchor="middle" x="273" y="-519.5" font-family="sans" font-size="10.00" fill="#000000">multiqc</text>
</g>
<!-- 12&#45;&gt;15 -->
<g id="edge23" class="edge">
<title>12&#45;&gt;15</title>
<path fill="none" stroke="#c0c0c0" stroke-width="2" d="M273,-575.8314C273,-568.131 273,-558.9743 273,-550.4166"/>
<polygon fill="#c0c0c0" stroke="#c0c0c0" stroke-width="2" points="276.5001,-550.4132 273,-540.4133 269.5001,-550.4133 276.5001,-550.4132"/>
</g>
<!-- 13&#45;&gt;11 -->
<g id="edge16" class="edge">
<title>13&#45;&gt;11</title>
<path fill="none" stroke="#c0c0c0" stroke-width="2" d="M250.9625,-143.8314C249.2513,-136.131 247.2165,-126.9743 245.3148,-118.4166"/>
<polygon fill="#c0c0c0" stroke="#c0c0c0" stroke-width="2" points="248.6779,-117.4159 243.0918,-108.4133 241.8446,-118.9344 248.6779,-117.4159"/>
</g>
<!-- 14&#45;&gt;3 -->
<g id="edge10" class="edge">
<title>14&#45;&gt;3</title>
<path fill="none" stroke="#c0c0c0" stroke-width="2" d="M185,-503.8314C185,-496.131 185,-486.9743 185,-478.4166"/>
<polygon fill="#c0c0c0" stroke="#c0c0c0" stroke-width="2" points="188.5001,-478.4132 185,-468.4133 181.5001,-478.4133 188.5001,-478.4132"/>
</g>
<!-- 15&#45;&gt;2 -->
<g id="edge9" class="edge">
<title>15&#45;&gt;2</title>
<path fill="none" stroke="#c0c0c0" stroke-width="2" d="M288.5353,-503.8219C309.1578,-477.7696 343,-427.4792 343,-378 343,-378 343,-378 343,-162 343,-79.7931 231.8103,-40.8183 172.0214,-25.8031"/>
<polygon fill="#c0c0c0" stroke="#c0c0c0" stroke-width="2" points="172.7341,-22.3747 162.1924,-23.434 171.0938,-29.1798 172.7341,-22.3747"/>
</g>
<!-- 16&#45;&gt;0 -->
<g id="edge2" class="edge">
<title>16&#45;&gt;0</title>
<path fill="none" stroke="#c0c0c0" stroke-width="2" d="M80,-359.8314C80,-352.131 80,-342.9743 80,-334.4166"/>
<polygon fill="#c0c0c0" stroke="#c0c0c0" stroke-width="2" points="83.5001,-334.4132 80,-324.4133 76.5001,-334.4133 83.5001,-334.4132"/>
</g>
<!-- 17&#45;&gt;0 -->
<g id="edge1" class="edge">
<title>17&#45;&gt;0</title>
<path fill="none" stroke="#c0c0c0" stroke-width="2" d="M151.0275,-359.8314C139.2139,-350.8779 124.8028,-339.9558 112.0565,-330.2955"/>
<polygon fill="#c0c0c0" stroke="#c0c0c0" stroke-width="2" points="114.0486,-327.4137 103.9648,-324.1628 109.8205,-332.9925 114.0486,-327.4137"/>
</g>
<!-- 17&#45;&gt;10 -->
<g id="edge15" class="edge">
<title>17&#45;&gt;10</title>
<path fill="none" stroke="#c0c0c0" stroke-width="2" d="M172.467,-359.7623C169.0557,-335.201 162.951,-291.2474 158.9381,-262.3541"/>
<polygon fill="#c0c0c0" stroke="#c0c0c0" stroke-width="2" points="162.3549,-261.513 157.5124,-252.0896 155.4215,-262.4761 162.3549,-261.513"/>
</g>
<!-- 17&#45;&gt;13 -->
<g id="edge18" class="edge">
<title>17&#45;&gt;13</title>
<path fill="none" stroke="#c0c0c0" stroke-width="2" d="M181.6832,-359.9555C195.6831,-322.1556 228.1665,-234.4506 244.7939,-189.5564"/>
<polygon fill="#c0c0c0" stroke="#c0c0c0" stroke-width="2" points="248.0885,-190.7382 248.2796,-180.1451 241.5243,-188.3069 248.0885,-190.7382"/>
</g>
<!-- 18 -->
<g id="node19" class="node">
<title>18</title>
<path fill="none" stroke="#5673d8" stroke-width="2" d="M200,-612C200,-612 170,-612 170,-612 164,-612 158,-606 158,-600 158,-600 158,-588 158,-588 158,-582 164,-576 170,-576 170,-576 200,-576 200,-576 206,-576 212,-582 212,-588 212,-588 212,-600 212,-600 212,-606 206,-612 200,-612"/>
<text text-anchor="middle" x="185" y="-591.5" font-family="sans" font-size="10.00" fill="#000000">fastqc</text>
</g>
<!-- 18&#45;&gt;14 -->
<g id="edge22" class="edge">
<title>18&#45;&gt;14</title>
<path fill="none" stroke="#c0c0c0" stroke-width="2" d="M185,-575.8314C185,-568.131 185,-558.9743 185,-550.4166"/>
<polygon fill="#c0c0c0" stroke="#c0c0c0" stroke-width="2" points="188.5001,-550.4132 185,-540.4133 181.5001,-550.4133 188.5001,-550.4132"/>
</g>
<!-- 18&#45;&gt;15 -->
<g id="edge24" class="edge">
<title>18&#45;&gt;15</title>
<path fill="none" stroke="#c0c0c0" stroke-width="2" d="M207.2061,-575.8314C218.045,-566.9632 231.2444,-556.1637 242.9678,-546.5718"/>
<polygon fill="#c0c0c0" stroke="#c0c0c0" stroke-width="2" points="245.2777,-549.2041 250.801,-540.1628 240.845,-543.7864 245.2777,-549.2041"/>
</g>
</g>
</svg>
