<?xml version="1.0" encoding="UTF-8" standalone="no"?>
<!DOCTYPE svg PUBLIC "-//W3C//DTD SVG 1.1//EN"
 "http://www.w3.org/Graphics/SVG/1.1/DTD/svg11.dtd">
<!-- Generated by graphviz version 2.40.1 (0)
 -->
<!-- Title: snakemake_dag Pages: 1 -->
<svg width="410pt" height="764pt"
 viewBox="0.00 0.00 409.50 764.00" xmlns="http://www.w3.org/2000/svg" xmlns:xlink="http://www.w3.org/1999/xlink">
<g id="graph0" class="graph" transform="scale(1 1) rotate(0) translate(4 760)">
<title>snakemake_dag</title>
<polygon fill="#ffffff" stroke="transparent" points="-4,4 -4,-760 405.5,-760 405.5,4 -4,4"/>
<!-- 0 -->
<g id="node1" class="node">
<title>0</title>
<path fill="none" stroke="#d87556" stroke-width="2" d="M144,-756C144,-756 98,-756 98,-756 92,-756 86,-750 86,-744 86,-744 86,-732 86,-732 86,-726 92,-720 98,-720 98,-720 144,-720 144,-720 150,-720 156,-726 156,-732 156,-732 156,-744 156,-744 156,-750 150,-756 144,-756"/>
<text text-anchor="middle" x="121" y="-735.5" font-family="sans" font-size="10.00" fill="#000000">load_index</text>
</g>
<!-- 14 -->
<g id="node15" class="node">
<title>14</title>
<path fill="none" stroke="#56d882" stroke-width="2" d="M151.5,-684C151.5,-684 90.5,-684 90.5,-684 84.5,-684 78.5,-678 78.5,-672 78.5,-672 78.5,-660 78.5,-660 78.5,-654 84.5,-648 90.5,-648 90.5,-648 151.5,-648 151.5,-648 157.5,-648 163.5,-654 163.5,-660 163.5,-660 163.5,-672 163.5,-672 163.5,-678 157.5,-684 151.5,-684"/>
<text text-anchor="middle" x="121" y="-663.5" font-family="sans" font-size="10.00" fill="#000000">salmon_index</text>
</g>
<!-- 0&#45;&gt;14 -->
<g id="edge21" class="edge">
<title>0&#45;&gt;14</title>
<path fill="none" stroke="#c0c0c0" stroke-width="2" d="M121,-719.8314C121,-712.131 121,-702.9743 121,-694.4166"/>
<polygon fill="#c0c0c0" stroke="#c0c0c0" stroke-width="2" points="124.5001,-694.4132 121,-684.4133 117.5001,-694.4133 124.5001,-694.4132"/>
</g>
<!-- 1 -->
<g id="node2" class="node">
<title>1</title>
<path fill="none" stroke="#d88d56" stroke-width="2" d="M44,-108C44,-108 12,-108 12,-108 6,-108 0,-102 0,-96 0,-96 0,-84 0,-84 0,-78 6,-72 12,-72 12,-72 44,-72 44,-72 50,-72 56,-78 56,-84 56,-84 56,-96 56,-96 56,-102 50,-108 44,-108"/>
<text text-anchor="middle" x="28" y="-87.5" font-family="sans" font-size="10.00" fill="#000000">load_gtf</text>
</g>
<!-- 11 -->
<g id="node12" class="node">
<title>11</title>
<path fill="none" stroke="#56d8b9" stroke-width="2" d="M169,-36C169,-36 139,-36 139,-36 133,-36 127,-30 127,-24 127,-24 127,-12 127,-12 127,-6 133,0 139,0 139,0 169,0 169,0 175,0 181,-6 181,-12 181,-12 181,-24 181,-24 181,-30 175,-36 169,-36"/>
<text text-anchor="middle" x="154" y="-15.5" font-family="sans" font-size="10.00" fill="#000000">all</text>
</g>
<!-- 1&#45;&gt;11 -->
<g id="edge14" class="edge">
<title>1&#45;&gt;11</title>
<path fill="none" stroke="#c0c0c0" stroke-width="2" d="M56.2769,-73.8418C74.4415,-63.462 98.2069,-49.8818 117.7529,-38.7126"/>
<polygon fill="#c0c0c0" stroke="#c0c0c0" stroke-width="2" points="119.737,-41.6101 126.6829,-33.6098 116.264,-35.5323 119.737,-41.6101"/>
</g>
<!-- 2 -->
<g id="node3" class="node">
<title>2</title>
<path fill="none" stroke="#d8ac56" stroke-width="2" d="M211.5,-108C211.5,-108 162.5,-108 162.5,-108 156.5,-108 150.5,-102 150.5,-96 150.5,-96 150.5,-84 150.5,-84 150.5,-78 156.5,-72 162.5,-72 162.5,-72 211.5,-72 211.5,-72 217.5,-72 223.5,-78 223.5,-84 223.5,-84 223.5,-96 223.5,-96 223.5,-102 217.5,-108 211.5,-108"/>
<text text-anchor="middle" x="187" y="-87.5" font-family="sans" font-size="10.00" fill="#000000">plot_comps</text>
</g>
<!-- 2&#45;&gt;11 -->
<g id="edge15" class="edge">
<title>2&#45;&gt;11</title>
<path fill="none" stroke="#c0c0c0" stroke-width="2" d="M178.6727,-71.8314C175.027,-63.8771 170.6691,-54.369 166.6373,-45.5723"/>
<polygon fill="#c0c0c0" stroke="#c0c0c0" stroke-width="2" points="169.7877,-44.0456 162.4394,-36.4133 163.4243,-46.9622 169.7877,-44.0456"/>
</g>
<!-- 3 -->
<g id="node4" class="node">
<title>3</title>
<path fill="none" stroke="#80d856" stroke-width="2" d="M204.5,-396C204.5,-396 163.5,-396 163.5,-396 157.5,-396 151.5,-390 151.5,-384 151.5,-384 151.5,-372 151.5,-372 151.5,-366 157.5,-360 163.5,-360 163.5,-360 204.5,-360 204.5,-360 210.5,-360 216.5,-366 216.5,-372 216.5,-372 216.5,-384 216.5,-384 216.5,-390 210.5,-396 204.5,-396"/>
<text text-anchor="middle" x="184" y="-375.5" font-family="sans" font-size="10.00" fill="#000000">merge_sn</text>
</g>
<!-- 7 -->
<g id="node8" class="node">
<title>7</title>
<path fill="none" stroke="#d85656" stroke-width="2" d="M229,-324C229,-324 179,-324 179,-324 173,-324 167,-318 167,-312 167,-312 167,-300 167,-300 167,-294 173,-288 179,-288 179,-288 229,-288 229,-288 235,-288 241,-294 241,-300 241,-300 241,-312 241,-312 241,-318 235,-324 229,-324"/>
<text text-anchor="middle" x="204" y="-303.5" font-family="sans" font-size="10.00" fill="#000000">findMarkers</text>
</g>
<!-- 3&#45;&gt;7 -->
<g id="edge9" class="edge">
<title>3&#45;&gt;7</title>
<path fill="none" stroke="#c0c0c0" stroke-width="2" d="M189.0468,-359.8314C191.2094,-352.0463 193.7853,-342.7729 196.1848,-334.1347"/>
<polygon fill="#c0c0c0" stroke="#c0c0c0" stroke-width="2" points="199.581,-334.9852 198.8852,-324.4133 192.8364,-333.1117 199.581,-334.9852"/>
</g>
<!-- 4 -->
<g id="node5" class="node">
<title>4</title>
<path fill="none" stroke="#ced856" stroke-width="2" d="M292,-468C292,-468 246,-468 246,-468 240,-468 234,-462 234,-456 234,-456 234,-444 234,-444 234,-438 240,-432 246,-432 246,-432 292,-432 292,-432 298,-432 304,-438 304,-444 304,-444 304,-456 304,-456 304,-462 298,-468 292,-468"/>
<text text-anchor="middle" x="269" y="-447.5" font-family="sans" font-size="10.00" fill="#000000">ensb2gene</text>
</g>
<!-- 17 -->
<g id="node18" class="node">
<title>17</title>
<path fill="none" stroke="#5673d8" stroke-width="2" d="M291.5,-396C291.5,-396 246.5,-396 246.5,-396 240.5,-396 234.5,-390 234.5,-384 234.5,-384 234.5,-372 234.5,-372 234.5,-366 240.5,-360 246.5,-360 246.5,-360 291.5,-360 291.5,-360 297.5,-360 303.5,-366 303.5,-372 303.5,-372 303.5,-384 303.5,-384 303.5,-390 297.5,-396 291.5,-396"/>
<text text-anchor="middle" x="269" y="-375.5" font-family="sans" font-size="10.00" fill="#000000">clean_bulk</text>
</g>
<!-- 4&#45;&gt;17 -->
<g id="edge23" class="edge">
<title>4&#45;&gt;17</title>
<path fill="none" stroke="#c0c0c0" stroke-width="2" d="M269,-431.8314C269,-424.131 269,-414.9743 269,-406.4166"/>
<polygon fill="#c0c0c0" stroke="#c0c0c0" stroke-width="2" points="272.5001,-406.4132 269,-396.4133 265.5001,-406.4133 272.5001,-406.4132"/>
</g>
<!-- 5 -->
<g id="node6" class="node">
<title>5</title>
<path fill="none" stroke="#61d856" stroke-width="2" d="M262.5,-252C262.5,-252 209.5,-252 209.5,-252 203.5,-252 197.5,-246 197.5,-240 197.5,-240 197.5,-228 197.5,-228 197.5,-222 203.5,-216 209.5,-216 209.5,-216 262.5,-216 262.5,-216 268.5,-216 274.5,-222 274.5,-228 274.5,-228 274.5,-240 274.5,-240 274.5,-246 268.5,-252 262.5,-252"/>
<text text-anchor="middle" x="236" y="-231.5" font-family="sans" font-size="10.00" fill="#000000">deconvolute</text>
</g>
<!-- 5&#45;&gt;2 -->
<g id="edge1" class="edge">
<title>5&#45;&gt;2</title>
<path fill="none" stroke="#c0c0c0" stroke-width="2" d="M220.2854,-215.7418C212.6063,-205.8141 203.9702,-192.9433 199,-180 191.4305,-160.2874 188.497,-136.5618 187.4204,-118.4205"/>
<polygon fill="#c0c0c0" stroke="#c0c0c0" stroke-width="2" points="190.9069,-118.0325 186.9726,-108.1952 183.9136,-118.3388 190.9069,-118.0325"/>
</g>
<!-- 9 -->
<g id="node10" class="node">
<title>9</title>
<path fill="none" stroke="#56d863" stroke-width="2" d="M389.5,-180C389.5,-180 294.5,-180 294.5,-180 288.5,-180 282.5,-174 282.5,-168 282.5,-168 282.5,-156 282.5,-156 282.5,-150 288.5,-144 294.5,-144 294.5,-144 389.5,-144 389.5,-144 395.5,-144 401.5,-150 401.5,-156 401.5,-156 401.5,-168 401.5,-168 401.5,-174 395.5,-180 389.5,-180"/>
<text text-anchor="middle" x="342" y="-159.5" font-family="sans" font-size="10.00" fill="#000000">diffential_expression</text>
</g>
<!-- 5&#45;&gt;9 -->
<g id="edge12" class="edge">
<title>5&#45;&gt;9</title>
<path fill="none" stroke="#c0c0c0" stroke-width="2" d="M262.7483,-215.8314C276.0553,-206.7927 292.316,-195.7476 306.6375,-186.0198"/>
<polygon fill="#c0c0c0" stroke="#c0c0c0" stroke-width="2" points="308.9547,-188.677 315.2603,-180.1628 305.0215,-182.8864 308.9547,-188.677"/>
</g>
<!-- 15 -->
<g id="node16" class="node">
<title>15</title>
<path fill="none" stroke="#56a9d8" stroke-width="2" d="M252,-180C252,-180 220,-180 220,-180 214,-180 208,-174 208,-168 208,-168 208,-156 208,-156 208,-150 214,-144 220,-144 220,-144 252,-144 252,-144 258,-144 264,-150 264,-156 264,-156 264,-168 264,-168 264,-174 258,-180 252,-180"/>
<text text-anchor="middle" x="236" y="-159.5" font-family="sans" font-size="10.00" fill="#000000">dirichlet</text>
</g>
<!-- 5&#45;&gt;15 -->
<g id="edge22" class="edge">
<title>5&#45;&gt;15</title>
<path fill="none" stroke="#c0c0c0" stroke-width="2" d="M236,-215.8314C236,-208.131 236,-198.9743 236,-190.4166"/>
<polygon fill="#c0c0c0" stroke="#c0c0c0" stroke-width="2" points="239.5001,-190.4132 236,-180.4133 232.5001,-190.4133 239.5001,-190.4132"/>
</g>
<!-- 6 -->
<g id="node7" class="node">
<title>6</title>
<path fill="none" stroke="#97d856" stroke-width="2" d="M107,-540C107,-540 77,-540 77,-540 71,-540 65,-534 65,-528 65,-528 65,-516 65,-516 65,-510 71,-504 77,-504 77,-504 107,-504 107,-504 113,-504 119,-510 119,-516 119,-516 119,-528 119,-528 119,-534 113,-540 107,-540"/>
<text text-anchor="middle" x="92" y="-519.5" font-family="sans" font-size="10.00" fill="#000000">multiqc</text>
</g>
<!-- 6&#45;&gt;11 -->
<g id="edge16" class="edge">
<title>6&#45;&gt;11</title>
<path fill="none" stroke="#c0c0c0" stroke-width="2" d="M90.3424,-503.8326C87.9991,-476.5392 84,-423.3198 84,-378 84,-378 84,-378 84,-162 84,-117.1595 111.7942,-71.6528 132.3548,-44.1238"/>
<polygon fill="#c0c0c0" stroke="#c0c0c0" stroke-width="2" points="135.1435,-46.239 138.4647,-36.1781 129.5944,-41.9719 135.1435,-46.239"/>
</g>
<!-- 7&#45;&gt;5 -->
<g id="edge5" class="edge">
<title>7&#45;&gt;5</title>
<path fill="none" stroke="#c0c0c0" stroke-width="2" d="M212.075,-287.8314C215.6102,-279.8771 219.836,-270.369 223.7456,-261.5723"/>
<polygon fill="#c0c0c0" stroke="#c0c0c0" stroke-width="2" points="226.9532,-262.9729 227.8163,-252.4133 220.5565,-260.1299 226.9532,-262.9729"/>
</g>
<!-- 8 -->
<g id="node9" class="node">
<title>8</title>
<path fill="none" stroke="#b6d856" stroke-width="2" d="M152,-612C152,-612 90,-612 90,-612 84,-612 78,-606 78,-600 78,-600 78,-588 78,-588 78,-582 84,-576 90,-576 90,-576 152,-576 152,-576 158,-576 164,-582 164,-588 164,-588 164,-600 164,-600 164,-606 158,-612 152,-612"/>
<text text-anchor="middle" x="121" y="-591.5" font-family="sans" font-size="10.00" fill="#000000">salmon_quant</text>
</g>
<!-- 8&#45;&gt;6 -->
<g id="edge7" class="edge">
<title>8&#45;&gt;6</title>
<path fill="none" stroke="#c0c0c0" stroke-width="2" d="M113.6821,-575.8314C110.5124,-567.9617 106.73,-558.5712 103.2187,-549.8533"/>
<polygon fill="#c0c0c0" stroke="#c0c0c0" stroke-width="2" points="106.3992,-548.3815 99.4165,-540.4133 99.9061,-550.9968 106.3992,-548.3815"/>
</g>
<!-- 18 -->
<g id="node19" class="node">
<title>18</title>
<path fill="none" stroke="#d8c356" stroke-width="2" d="M256.5,-540C256.5,-540 221.5,-540 221.5,-540 215.5,-540 209.5,-534 209.5,-528 209.5,-528 209.5,-516 209.5,-516 209.5,-510 215.5,-504 221.5,-504 221.5,-504 256.5,-504 256.5,-504 262.5,-504 268.5,-510 268.5,-516 268.5,-516 268.5,-528 268.5,-528 268.5,-534 262.5,-540 256.5,-540"/>
<text text-anchor="middle" x="239" y="-519.5" font-family="sans" font-size="10.00" fill="#000000">tximport</text>
</g>
<!-- 8&#45;&gt;18 -->
<g id="edge25" class="edge">
<title>8&#45;&gt;18</title>
<path fill="none" stroke="#c0c0c0" stroke-width="2" d="M150.7764,-575.8314C165.8693,-566.6221 184.3757,-555.3301 200.5343,-545.4706"/>
<polygon fill="#c0c0c0" stroke="#c0c0c0" stroke-width="2" points="202.5198,-548.3593 209.2331,-540.1628 198.8737,-542.3838 202.5198,-548.3593"/>
</g>
<!-- 12 -->
<g id="node13" class="node">
<title>12</title>
<path fill="none" stroke="#56d8d0" stroke-width="2" d="M341,-108C341,-108 311,-108 311,-108 305,-108 299,-102 299,-96 299,-96 299,-84 299,-84 299,-78 305,-72 311,-72 311,-72 341,-72 341,-72 347,-72 353,-78 353,-84 353,-84 353,-96 353,-96 353,-102 347,-108 341,-108"/>
<text text-anchor="middle" x="326" y="-87.5" font-family="sans" font-size="10.00" fill="#000000">plot_de</text>
</g>
<!-- 9&#45;&gt;12 -->
<g id="edge20" class="edge">
<title>9&#45;&gt;12</title>
<path fill="none" stroke="#c0c0c0" stroke-width="2" d="M337.9625,-143.8314C336.2513,-136.131 334.2165,-126.9743 332.3148,-118.4166"/>
<polygon fill="#c0c0c0" stroke="#c0c0c0" stroke-width="2" points="335.6779,-117.4159 330.0918,-108.4133 328.8446,-118.9344 335.6779,-117.4159"/>
</g>
<!-- 10 -->
<g id="node11" class="node">
<title>10</title>
<path fill="none" stroke="#56d89a" stroke-width="2" d="M204,-468C204,-468 124,-468 124,-468 118,-468 112,-462 112,-456 112,-456 112,-444 112,-444 112,-438 118,-432 124,-432 124,-432 204,-432 204,-432 210,-432 216,-438 216,-444 216,-444 216,-456 216,-456 216,-462 210,-468 204,-468"/>
<text text-anchor="middle" x="164" y="-447.5" font-family="sans" font-size="10.00" fill="#000000">ambient_doublets</text>
</g>
<!-- 10&#45;&gt;3 -->
<g id="edge2" class="edge">
<title>10&#45;&gt;3</title>
<path fill="none" stroke="#c0c0c0" stroke-width="2" d="M169.0468,-431.8314C171.2094,-424.0463 173.7853,-414.7729 176.1848,-406.1347"/>
<polygon fill="#c0c0c0" stroke="#c0c0c0" stroke-width="2" points="179.581,-406.9852 178.8852,-396.4133 172.8364,-405.1117 179.581,-406.9852"/>
</g>
<!-- 10&#45;&gt;11 -->
<g id="edge17" class="edge">
<title>10&#45;&gt;11</title>
<path fill="none" stroke="#c0c0c0" stroke-width="2" d="M155.0929,-431.8553C142.7642,-405.0234 122,-352.875 122,-306 122,-306 122,-306 122,-162 122,-120.9442 134.5489,-74.8385 143.9299,-46.1076"/>
<polygon fill="#c0c0c0" stroke="#c0c0c0" stroke-width="2" points="147.3411,-46.9443 147.2136,-36.3503 140.7068,-44.7116 147.3411,-46.9443"/>
</g>
<!-- 12&#45;&gt;11 -->
<g id="edge18" class="edge">
<title>12&#45;&gt;11</title>
<path fill="none" stroke="#c0c0c0" stroke-width="2" d="M298.7461,-78.5914C269.5589,-66.3735 223.0789,-46.9167 190.6907,-33.3589"/>
<polygon fill="#c0c0c0" stroke="#c0c0c0" stroke-width="2" points="191.7023,-29.9881 181.1264,-29.3552 188.9993,-36.4452 191.7023,-29.9881"/>
</g>
<!-- 13 -->
<g id="node14" class="node">
<title>13</title>
<path fill="none" stroke="#56c1d8" stroke-width="2" d="M179,-540C179,-540 149,-540 149,-540 143,-540 137,-534 137,-528 137,-528 137,-516 137,-516 137,-510 143,-504 149,-504 149,-504 179,-504 179,-504 185,-504 191,-510 191,-516 191,-516 191,-528 191,-528 191,-534 185,-540 179,-540"/>
<text text-anchor="middle" x="164" y="-519.5" font-family="sans" font-size="10.00" fill="#000000">load_sn</text>
</g>
<!-- 13&#45;&gt;10 -->
<g id="edge13" class="edge">
<title>13&#45;&gt;10</title>
<path fill="none" stroke="#c0c0c0" stroke-width="2" d="M164,-503.8314C164,-496.131 164,-486.9743 164,-478.4166"/>
<polygon fill="#c0c0c0" stroke="#c0c0c0" stroke-width="2" points="167.5001,-478.4132 164,-468.4133 160.5001,-478.4133 167.5001,-478.4132"/>
</g>
<!-- 14&#45;&gt;8 -->
<g id="edge10" class="edge">
<title>14&#45;&gt;8</title>
<path fill="none" stroke="#c0c0c0" stroke-width="2" d="M121,-647.8314C121,-640.131 121,-630.9743 121,-622.4166"/>
<polygon fill="#c0c0c0" stroke="#c0c0c0" stroke-width="2" points="124.5001,-622.4132 121,-612.4133 117.5001,-622.4133 124.5001,-622.4132"/>
</g>
<!-- 15&#45;&gt;11 -->
<g id="edge19" class="edge">
<title>15&#45;&gt;11</title>
<path fill="none" stroke="#c0c0c0" stroke-width="2" d="M239.6817,-143.8315C242.5805,-124.6992 244.3304,-94.3137 232,-72 222.7439,-55.2497 205.8211,-42.5802 190.0982,-33.7378"/>
<polygon fill="#c0c0c0" stroke="#c0c0c0" stroke-width="2" points="191.5256,-30.5338 181.0465,-28.9718 188.2643,-36.7277 191.5256,-30.5338"/>
</g>
<!-- 16 -->
<g id="node17" class="node">
<title>16</title>
<path fill="none" stroke="#568ad8" stroke-width="2" d="M239,-612C239,-612 209,-612 209,-612 203,-612 197,-606 197,-600 197,-600 197,-588 197,-588 197,-582 203,-576 209,-576 209,-576 239,-576 239,-576 245,-576 251,-582 251,-588 251,-588 251,-600 251,-600 251,-606 245,-612 239,-612"/>
<text text-anchor="middle" x="224" y="-591.5" font-family="sans" font-size="10.00" fill="#000000">fastqc</text>
</g>
<!-- 16&#45;&gt;6 -->
<g id="edge6" class="edge">
<title>16&#45;&gt;6</title>
<path fill="none" stroke="#c0c0c0" stroke-width="2" d="M196.9693,-579.256C177.1699,-568.4563 150.0807,-553.6804 128.3811,-541.8442"/>
<polygon fill="#c0c0c0" stroke="#c0c0c0" stroke-width="2" points="129.9031,-538.6877 119.4482,-536.9717 126.5511,-544.8329 129.9031,-538.6877"/>
</g>
<!-- 16&#45;&gt;18 -->
<g id="edge24" class="edge">
<title>16&#45;&gt;18</title>
<path fill="none" stroke="#c0c0c0" stroke-width="2" d="M227.7851,-575.8314C229.3894,-568.131 231.297,-558.9743 233.0799,-550.4166"/>
<polygon fill="#c0c0c0" stroke="#c0c0c0" stroke-width="2" points="236.5507,-550.9169 235.1639,-540.4133 229.6979,-549.4892 236.5507,-550.9169"/>
</g>
<!-- 17&#45;&gt;5 -->
<g id="edge4" class="edge">
<title>17&#45;&gt;5</title>
<path fill="none" stroke="#c0c0c0" stroke-width="2" d="M265.3861,-359.6742C261.7323,-341.4495 255.81,-312.7177 250,-288 248.0367,-279.6474 245.7555,-270.6087 243.6117,-262.3591"/>
<polygon fill="#c0c0c0" stroke="#c0c0c0" stroke-width="2" points="246.9322,-261.2237 241.0039,-252.4427 240.1624,-263.0041 246.9322,-261.2237"/>
</g>
<!-- 17&#45;&gt;7 -->
<g id="edge8" class="edge">
<title>17&#45;&gt;7</title>
<path fill="none" stroke="#c0c0c0" stroke-width="2" d="M252.5978,-359.8314C244.9585,-351.3694 235.7317,-341.1489 227.3793,-331.8971"/>
<polygon fill="#c0c0c0" stroke="#c0c0c0" stroke-width="2" points="229.9221,-329.4906 220.6231,-324.4133 224.7262,-334.1813 229.9221,-329.4906"/>
</g>
<!-- 17&#45;&gt;9 -->
<g id="edge11" class="edge">
<title>17&#45;&gt;9</title>
<path fill="none" stroke="#c0c0c0" stroke-width="2" d="M275.0984,-359.9555C287.8465,-322.235 317.3899,-234.8188 332.5911,-189.8399"/>
<polygon fill="#c0c0c0" stroke="#c0c0c0" stroke-width="2" points="335.9816,-190.7393 335.8676,-180.1451 329.3501,-188.498 335.9816,-190.7393"/>
</g>
<!-- 18&#45;&gt;4 -->
<g id="edge3" class="edge">
<title>18&#45;&gt;4</title>
<path fill="none" stroke="#c0c0c0" stroke-width="2" d="M246.5703,-503.8314C249.8493,-495.9617 253.762,-486.5712 257.3945,-477.8533"/>
<polygon fill="#c0c0c0" stroke="#c0c0c0" stroke-width="2" points="260.7124,-478.9902 261.3278,-468.4133 254.2508,-476.2979 260.7124,-478.9902"/>
</g>
</g>
</svg>
