<?xml version="1.0" encoding="UTF-8" standalone="no"?>
<!DOCTYPE svg PUBLIC "-//W3C//DTD SVG 1.1//EN"
 "http://www.w3.org/Graphics/SVG/1.1/DTD/svg11.dtd">
<!-- Generated by graphviz version 2.40.1 (0)
 -->
<!-- Title: snakemake_dag Pages: 1 -->
<svg width="14578pt" height="548pt"
 viewBox="0.00 0.00 14577.50 548.00" xmlns="http://www.w3.org/2000/svg" xmlns:xlink="http://www.w3.org/1999/xlink">
<g id="graph0" class="graph" transform="scale(1 1) rotate(0) translate(4 544)">
<title>snakemake_dag</title>
<polygon fill="#ffffff" stroke="transparent" points="-4,4 -4,-544 14573.5,-544 14573.5,4 -4,4"/>
<!-- 0 -->
<g id="node1" class="node">
<title>0</title>
<path fill="none" stroke="#d8c356" stroke-width="2" stroke-dasharray="5,2" d="M4300.5,-540C4300.5,-540 4237.5,-540 4237.5,-540 4231.5,-540 4225.5,-534 4225.5,-528 4225.5,-528 4225.5,-516 4225.5,-516 4225.5,-510 4231.5,-504 4237.5,-504 4237.5,-504 4300.5,-504 4300.5,-504 4306.5,-504 4312.5,-510 4312.5,-516 4312.5,-516 4312.5,-528 4312.5,-528 4312.5,-534 4306.5,-540 4300.5,-540"/>
<text text-anchor="middle" x="4269" y="-525" font-family="sans" font-size="10.00" fill="#000000">load_sn</text>
<text text-anchor="middle" x="4269" y="-514" font-family="sans" font-size="10.00" fill="#000000">samples: b6_1</text>
</g>
<!-- 8 -->
<g id="node9" class="node">
<title>8</title>
<path fill="none" stroke="#78d856" stroke-width="2" stroke-dasharray="5,2" d="M4309,-468C4309,-468 4229,-468 4229,-468 4223,-468 4217,-462 4217,-456 4217,-456 4217,-444 4217,-444 4217,-438 4223,-432 4229,-432 4229,-432 4309,-432 4309,-432 4315,-432 4321,-438 4321,-444 4321,-444 4321,-456 4321,-456 4321,-462 4315,-468 4309,-468"/>
<text text-anchor="middle" x="4269" y="-447.5" font-family="sans" font-size="10.00" fill="#000000">ambient_doublets</text>
</g>
<!-- 0&#45;&gt;8 -->
<g id="edge2" class="edge">
<title>0&#45;&gt;8</title>
<path fill="none" stroke="#c0c0c0" stroke-width="2" d="M4269,-503.8314C4269,-496.131 4269,-486.9743 4269,-478.4166"/>
<polygon fill="#c0c0c0" stroke="#c0c0c0" stroke-width="2" points="4272.5001,-478.4132 4269,-468.4133 4265.5001,-478.4133 4272.5001,-478.4132"/>
</g>
<!-- 1 -->
<g id="node2" class="node">
<title>1</title>
<path fill="none" stroke="#c6d856" stroke-width="2" stroke-dasharray="5,2" d="M408,-108C408,-108 12,-108 12,-108 6,-108 0,-102 0,-96 0,-96 0,-84 0,-84 0,-78 6,-72 12,-72 12,-72 408,-72 408,-72 414,-72 420,-78 420,-84 420,-84 420,-96 420,-96 420,-102 414,-108 408,-108"/>
<text text-anchor="middle" x="210" y="-93" font-family="sans" font-size="10.00" fill="#000000">fastqc</text>
<text text-anchor="middle" x="210" y="-82" font-family="sans" font-size="10.00" fill="#000000">sample_path: data/raw/fastq/B6_M_Fib_RNA_2/B6_M_Fib_RNA_2_S21_L002_R1_001</text>
</g>
<!-- 34 -->
<g id="node35" class="node">
<title>34</title>
<path fill="none" stroke="#9fd856" stroke-width="2" stroke-dasharray="5,2" d="M6707,-36C6707,-36 6677,-36 6677,-36 6671,-36 6665,-30 6665,-24 6665,-24 6665,-12 6665,-12 6665,-6 6671,0 6677,0 6677,0 6707,0 6707,0 6713,0 6719,-6 6719,-12 6719,-12 6719,-24 6719,-24 6719,-30 6713,-36 6707,-36"/>
<text text-anchor="middle" x="6692" y="-15.5" font-family="sans" font-size="10.00" fill="#000000">all</text>
</g>
<!-- 1&#45;&gt;34 -->
<g id="edge14" class="edge">
<title>1&#45;&gt;34</title>
<path fill="none" stroke="#c0c0c0" stroke-width="2" d="M420.0778,-72.4263C423.0711,-72.2762 426.0465,-72.1339 429,-72 1090.809,-41.9898 6168.3841,-20.1799 6654.6221,-18.1541"/>
<polygon fill="#c0c0c0" stroke="#c0c0c0" stroke-width="2" points="6654.956,-21.6528 6664.9413,-18.1112 6654.9268,-14.6529 6654.956,-21.6528"/>
</g>
<!-- 2 -->
<g id="node3" class="node">
<title>2</title>
<path fill="none" stroke="#c6d856" stroke-width="2" stroke-dasharray="5,2" d="M840,-108C840,-108 450,-108 450,-108 444,-108 438,-102 438,-96 438,-96 438,-84 438,-84 438,-78 444,-72 450,-72 450,-72 840,-72 840,-72 846,-72 852,-78 852,-84 852,-84 852,-96 852,-96 852,-102 846,-108 840,-108"/>
<text text-anchor="middle" x="645" y="-93" font-family="sans" font-size="10.00" fill="#000000">fastqc</text>
<text text-anchor="middle" x="645" y="-82" font-family="sans" font-size="10.00" fill="#000000">sample_path: data/raw/fastq/B6_M_Fib_RNA_3/B6_M_Fib_RNA_3_S3_L002_R1_001</text>
</g>
<!-- 2&#45;&gt;34 -->
<g id="edge15" class="edge">
<title>2&#45;&gt;34</title>
<path fill="none" stroke="#c0c0c0" stroke-width="2" d="M852.1996,-72.4285C855.152,-72.2777 858.0868,-72.1347 861,-72 1476.046,-43.5641 6187.7515,-20.4085 6654.7523,-18.1763"/>
<polygon fill="#c0c0c0" stroke="#c0c0c0" stroke-width="2" points="6655.0071,-21.6752 6664.9903,-18.1275 6654.9736,-14.6753 6655.0071,-21.6752"/>
</g>
<!-- 3 -->
<g id="node4" class="node">
<title>3</title>
<path fill="none" stroke="#c6d856" stroke-width="2" stroke-dasharray="5,2" d="M1275.5,-108C1275.5,-108 882.5,-108 882.5,-108 876.5,-108 870.5,-102 870.5,-96 870.5,-96 870.5,-84 870.5,-84 870.5,-78 876.5,-72 882.5,-72 882.5,-72 1275.5,-72 1275.5,-72 1281.5,-72 1287.5,-78 1287.5,-84 1287.5,-84 1287.5,-96 1287.5,-96 1287.5,-102 1281.5,-108 1275.5,-108"/>
<text text-anchor="middle" x="1079" y="-93" font-family="sans" font-size="10.00" fill="#000000">fastqc</text>
<text text-anchor="middle" x="1079" y="-82" font-family="sans" font-size="10.00" fill="#000000">sample_path: data/raw/fastq/B6_F_CM_RNA_1/B6_F_CM_RNA_1_S32_L002_R2_001</text>
</g>
<!-- 3&#45;&gt;34 -->
<g id="edge17" class="edge">
<title>3&#45;&gt;34</title>
<path fill="none" stroke="#c0c0c0" stroke-width="2" d="M1287.5895,-72.7055C1292.4379,-72.4514 1297.2468,-72.2154 1302,-72 1869.259,-46.2966 6206.0082,-20.7912 6654.5493,-18.2135"/>
<polygon fill="#c0c0c0" stroke="#c0c0c0" stroke-width="2" points="6654.7253,-21.7126 6664.705,-18.1552 6654.685,-14.7127 6654.7253,-21.7126"/>
</g>
<!-- 4 -->
<g id="node5" class="node">
<title>4</title>
<path fill="none" stroke="#59d856" stroke-width="2" stroke-dasharray="5,2" d="M5297,-180C5297,-180 5265,-180 5265,-180 5259,-180 5253,-174 5253,-168 5253,-168 5253,-156 5253,-156 5253,-150 5259,-144 5265,-144 5265,-144 5297,-144 5297,-144 5303,-144 5309,-150 5309,-156 5309,-156 5309,-168 5309,-168 5309,-174 5303,-180 5297,-180"/>
<text text-anchor="middle" x="5281" y="-159.5" font-family="sans" font-size="10.00" fill="#000000">dirichlet</text>
</g>
<!-- 4&#45;&gt;34 -->
<g id="edge19" class="edge">
<title>4&#45;&gt;34</title>
<path fill="none" stroke="#c0c0c0" stroke-width="2" d="M5290.9168,-143.8839C5303.8511,-122.3184 5328.6924,-87.3027 5361,-72 5421.0254,-43.5686 6445.3919,-22.675 6654.7942,-18.6898"/>
<polygon fill="#c0c0c0" stroke="#c0c0c0" stroke-width="2" points="6655.0364,-22.186 6664.9684,-18.4973 6654.9039,-15.1872 6655.0364,-22.186"/>
</g>
<!-- 5 -->
<g id="node6" class="node">
<title>5</title>
<path fill="none" stroke="#c6d856" stroke-width="2" stroke-dasharray="5,2" d="M1746,-108C1746,-108 1356,-108 1356,-108 1350,-108 1344,-102 1344,-96 1344,-96 1344,-84 1344,-84 1344,-78 1350,-72 1356,-72 1356,-72 1746,-72 1746,-72 1752,-72 1758,-78 1758,-84 1758,-84 1758,-96 1758,-96 1758,-102 1752,-108 1746,-108"/>
<text text-anchor="middle" x="1551" y="-93" font-family="sans" font-size="10.00" fill="#000000">fastqc</text>
<text text-anchor="middle" x="1551" y="-82" font-family="sans" font-size="10.00" fill="#000000">sample_path: data/raw/fastq/B6_F_Fib_RNA_1/B6_F_Fib_RNA_1_S23_L002_R2_001</text>
</g>
<!-- 5&#45;&gt;34 -->
<g id="edge23" class="edge">
<title>5&#45;&gt;34</title>
<path fill="none" stroke="#c0c0c0" stroke-width="2" d="M1758.1999,-72.4355C1761.1522,-72.2825 1764.0869,-72.1372 1767,-72 2796.9923,-23.5004 6257.439,-18.4559 6654.7338,-18.0344"/>
<polygon fill="#c0c0c0" stroke="#c0c0c0" stroke-width="2" points="6654.8344,-21.5344 6664.8307,-18.024 6654.8271,-14.5344 6654.8344,-21.5344"/>
</g>
<!-- 6 -->
<g id="node7" class="node">
<title>6</title>
<path fill="none" stroke="#c6d856" stroke-width="2" stroke-dasharray="5,2" d="M2172,-108C2172,-108 1788,-108 1788,-108 1782,-108 1776,-102 1776,-96 1776,-96 1776,-84 1776,-84 1776,-78 1782,-72 1788,-72 1788,-72 2172,-72 2172,-72 2178,-72 2184,-78 2184,-84 2184,-84 2184,-96 2184,-96 2184,-102 2178,-108 2172,-108"/>
<text text-anchor="middle" x="1980" y="-93" font-family="sans" font-size="10.00" fill="#000000">fastqc</text>
<text text-anchor="middle" x="1980" y="-82" font-family="sans" font-size="10.00" fill="#000000">sample_path: data/raw/fastq/B6_F_Fib_RNA_4/B6_F_Fib_RNA_4_S7_L002_R1_001</text>
</g>
<!-- 6&#45;&gt;34 -->
<g id="edge22" class="edge">
<title>6&#45;&gt;34</title>
<path fill="none" stroke="#c0c0c0" stroke-width="2" d="M2184.04,-72.454C2187.0465,-72.2945 2190.0346,-72.1429 2193,-72 3131.2254,-26.7854 6277.3199,-18.8659 6654.8392,-18.0726"/>
<polygon fill="#c0c0c0" stroke="#c0c0c0" stroke-width="2" points="6654.9619,-21.5725 6664.9546,-18.0517 6654.9473,-14.5725 6654.9619,-21.5725"/>
</g>
<!-- 7 -->
<g id="node8" class="node">
<title>7</title>
<path fill="none" stroke="#c6d856" stroke-width="2" stroke-dasharray="5,2" d="M2604,-108C2604,-108 2214,-108 2214,-108 2208,-108 2202,-102 2202,-96 2202,-96 2202,-84 2202,-84 2202,-78 2208,-72 2214,-72 2214,-72 2604,-72 2604,-72 2610,-72 2616,-78 2616,-84 2616,-84 2616,-96 2616,-96 2616,-102 2610,-108 2604,-108"/>
<text text-anchor="middle" x="2409" y="-93" font-family="sans" font-size="10.00" fill="#000000">fastqc</text>
<text text-anchor="middle" x="2409" y="-82" font-family="sans" font-size="10.00" fill="#000000">sample_path: data/raw/fastq/B6_M_Fib_RNA_3/B6_M_Fib_RNA_3_S3_L002_R2_001</text>
</g>
<!-- 7&#45;&gt;34 -->
<g id="edge37" class="edge">
<title>7&#45;&gt;34</title>
<path fill="none" stroke="#c0c0c0" stroke-width="2" d="M2616.2004,-72.445C2619.1525,-72.2891 2622.0871,-72.1405 2625,-72 3470.3288,-31.2159 6298.2604,-19.4639 6654.9228,-18.1328"/>
<polygon fill="#c0c0c0" stroke="#c0c0c0" stroke-width="2" points="6654.9919,-21.6327 6664.9789,-18.0956 6654.9659,-14.6328 6654.9919,-21.6327"/>
</g>
<!-- 13 -->
<g id="node14" class="node">
<title>13</title>
<path fill="none" stroke="#56a2d8" stroke-width="2" stroke-dasharray="5,2" d="M5310.5,-396C5310.5,-396 5269.5,-396 5269.5,-396 5263.5,-396 5257.5,-390 5257.5,-384 5257.5,-384 5257.5,-372 5257.5,-372 5257.5,-366 5263.5,-360 5269.5,-360 5269.5,-360 5310.5,-360 5310.5,-360 5316.5,-360 5322.5,-366 5322.5,-372 5322.5,-372 5322.5,-384 5322.5,-384 5322.5,-390 5316.5,-396 5310.5,-396"/>
<text text-anchor="middle" x="5290" y="-375.5" font-family="sans" font-size="10.00" fill="#000000">merge_sn</text>
</g>
<!-- 8&#45;&gt;13 -->
<g id="edge4" class="edge">
<title>8&#45;&gt;13</title>
<path fill="none" stroke="#c0c0c0" stroke-width="2" d="M4321.0395,-449.5162C4494.0813,-447.5414 5049.8677,-438.1667 5247.3808,-395.5283"/>
<polygon fill="#c0c0c0" stroke="#c0c0c0" stroke-width="2" points="5248.3722,-398.8926 5257.3545,-393.2739 5246.8289,-392.0648 5248.3722,-398.8926"/>
</g>
<!-- 8&#45;&gt;34 -->
<g id="edge25" class="edge">
<title>8&#45;&gt;34</title>
<path fill="none" stroke="#c0c0c0" stroke-width="2" d="M4216.8065,-448.8661C3821.6313,-440.1155 1316,-381.6491 1316,-306 1316,-306 1316,-306 1316,-162 1316,-121.1184 1303.377,-97.9093 1335,-72 1389.7212,-27.1659 6182.7925,-18.7718 6654.7077,-18.0538"/>
<polygon fill="#c0c0c0" stroke="#c0c0c0" stroke-width="2" points="6654.7516,-21.5538 6664.7463,-18.0387 6654.741,-14.5538 6654.7516,-21.5538"/>
</g>
<!-- 9 -->
<g id="node10" class="node">
<title>9</title>
<path fill="none" stroke="#c6d856" stroke-width="2" stroke-dasharray="5,2" d="M3108,-108C3108,-108 2718,-108 2718,-108 2712,-108 2706,-102 2706,-96 2706,-96 2706,-84 2706,-84 2706,-78 2712,-72 2718,-72 2718,-72 3108,-72 3108,-72 3114,-72 3120,-78 3120,-84 3120,-84 3120,-96 3120,-96 3120,-102 3114,-108 3108,-108"/>
<text text-anchor="middle" x="2913" y="-93" font-family="sans" font-size="10.00" fill="#000000">fastqc</text>
<text text-anchor="middle" x="2913" y="-82" font-family="sans" font-size="10.00" fill="#000000">sample_path: data/raw/fastq/B6_F_Fib_RNA_2/B6_F_Fib_RNA_2_S24_L002_R2_001</text>
</g>
<!-- 9&#45;&gt;34 -->
<g id="edge27" class="edge">
<title>9&#45;&gt;34</title>
<path fill="none" stroke="#c0c0c0" stroke-width="2" d="M3120.2008,-72.4527C3123.1528,-72.2944 3126.0872,-72.1433 3129,-72 3865.9537,-35.7511 6322.9784,-20.1707 6654.8018,-18.2136"/>
<polygon fill="#c0c0c0" stroke="#c0c0c0" stroke-width="2" points="6654.8755,-21.7133 6664.8547,-18.1546 6654.8344,-14.7134 6654.8755,-21.7133"/>
</g>
<!-- 10 -->
<g id="node11" class="node">
<title>10</title>
<path fill="none" stroke="#c6d856" stroke-width="2" stroke-dasharray="5,2" d="M3543.5,-108C3543.5,-108 3150.5,-108 3150.5,-108 3144.5,-108 3138.5,-102 3138.5,-96 3138.5,-96 3138.5,-84 3138.5,-84 3138.5,-78 3144.5,-72 3150.5,-72 3150.5,-72 3543.5,-72 3543.5,-72 3549.5,-72 3555.5,-78 3555.5,-84 3555.5,-84 3555.5,-96 3555.5,-96 3555.5,-102 3549.5,-108 3543.5,-108"/>
<text text-anchor="middle" x="3347" y="-93" font-family="sans" font-size="10.00" fill="#000000">fastqc</text>
<text text-anchor="middle" x="3347" y="-82" font-family="sans" font-size="10.00" fill="#000000">sample_path: data/raw/fastq/B6_F_CM_RNA_4/B6_F_CM_RNA_4_S35_L002_R1_001</text>
</g>
<!-- 10&#45;&gt;34 -->
<g id="edge34" class="edge">
<title>10&#45;&gt;34</title>
<path fill="none" stroke="#c0c0c0" stroke-width="2" d="M3555.5433,-72.4933C3558.717,-72.3207 3561.8709,-72.156 3565,-72 4208.4559,-39.9135 6346.0493,-20.9117 6654.7248,-18.3083"/>
<polygon fill="#c0c0c0" stroke="#c0c0c0" stroke-width="2" points="6654.9581,-21.8066 6664.9283,-18.2227 6654.8992,-14.8069 6654.9581,-21.8066"/>
</g>
<!-- 11 -->
<g id="node12" class="node">
<title>11</title>
<path fill="none" stroke="#c6d856" stroke-width="2" stroke-dasharray="5,2" d="M3982,-108C3982,-108 3586,-108 3586,-108 3580,-108 3574,-102 3574,-96 3574,-96 3574,-84 3574,-84 3574,-78 3580,-72 3586,-72 3586,-72 3982,-72 3982,-72 3988,-72 3994,-78 3994,-84 3994,-84 3994,-96 3994,-96 3994,-102 3988,-108 3982,-108"/>
<text text-anchor="middle" x="3784" y="-93" font-family="sans" font-size="10.00" fill="#000000">fastqc</text>
<text text-anchor="middle" x="3784" y="-82" font-family="sans" font-size="10.00" fill="#000000">sample_path: data/raw/fastq/B6_M_Fib_RNA_2/B6_M_Fib_RNA_2_S21_L002_R2_001</text>
</g>
<!-- 11&#45;&gt;34 -->
<g id="edge36" class="edge">
<title>11&#45;&gt;34</title>
<path fill="none" stroke="#c0c0c0" stroke-width="2" d="M3994.0801,-72.474C3997.0727,-72.3091 4000.0473,-72.1508 4003,-72 4552.8975,-43.907 6371.8036,-21.7451 6654.8377,-18.4292"/>
<polygon fill="#c0c0c0" stroke="#c0c0c0" stroke-width="2" points="6655.0297,-21.9272 6664.9881,-18.3106 6654.9479,-14.9277 6655.0297,-21.9272"/>
</g>
<!-- 12 -->
<g id="node13" class="node">
<title>12</title>
<path fill="none" stroke="#c6d856" stroke-width="2" stroke-dasharray="5,2" d="M4423.5,-108C4423.5,-108 4024.5,-108 4024.5,-108 4018.5,-108 4012.5,-102 4012.5,-96 4012.5,-96 4012.5,-84 4012.5,-84 4012.5,-78 4018.5,-72 4024.5,-72 4024.5,-72 4423.5,-72 4423.5,-72 4429.5,-72 4435.5,-78 4435.5,-84 4435.5,-84 4435.5,-96 4435.5,-96 4435.5,-102 4429.5,-108 4423.5,-108"/>
<text text-anchor="middle" x="4224" y="-93" font-family="sans" font-size="10.00" fill="#000000">fastqc</text>
<text text-anchor="middle" x="4224" y="-82" font-family="sans" font-size="10.00" fill="#000000">sample_path: data/raw/fastq/B6_M_CM_RNA_4/B6_M_CM_RNA_4_S11_L002_R1_001</text>
</g>
<!-- 12&#45;&gt;34 -->
<g id="edge39" class="edge">
<title>12&#45;&gt;34</title>
<path fill="none" stroke="#c0c0c0" stroke-width="2" d="M4435.7076,-72.5079C4438.8257,-72.3316 4441.9247,-72.1621 4445,-72 5341.2251,-24.7719 6440.7341,-18.8186 6654.8879,-18.0964"/>
<polygon fill="#c0c0c0" stroke="#c0c0c0" stroke-width="2" points="6654.9829,-21.5962 6664.9716,-18.0642 6654.9605,-14.5963 6654.9829,-21.5962"/>
</g>
<!-- 37 -->
<g id="node38" class="node">
<title>37</title>
<path fill="none" stroke="#56d8a2" stroke-width="2" stroke-dasharray="5,2" d="M5305,-324C5305,-324 5255,-324 5255,-324 5249,-324 5243,-318 5243,-312 5243,-312 5243,-300 5243,-300 5243,-294 5249,-288 5255,-288 5255,-288 5305,-288 5305,-288 5311,-288 5317,-294 5317,-300 5317,-300 5317,-312 5317,-312 5317,-318 5311,-324 5305,-324"/>
<text text-anchor="middle" x="5280" y="-303.5" font-family="sans" font-size="10.00" fill="#000000">findMarkers</text>
</g>
<!-- 13&#45;&gt;37 -->
<g id="edge51" class="edge">
<title>13&#45;&gt;37</title>
<path fill="none" stroke="#c0c0c0" stroke-width="2" d="M5287.4766,-359.8314C5286.4071,-352.131 5285.1353,-342.9743 5283.9468,-334.4166"/>
<polygon fill="#c0c0c0" stroke="#c0c0c0" stroke-width="2" points="5287.3999,-333.8367 5282.5574,-324.4133 5280.4664,-334.7997 5287.3999,-333.8367"/>
</g>
<!-- 14 -->
<g id="node15" class="node">
<title>14</title>
<path fill="none" stroke="#c6d856" stroke-width="2" stroke-dasharray="5,2" d="M4850,-108C4850,-108 4466,-108 4466,-108 4460,-108 4454,-102 4454,-96 4454,-96 4454,-84 4454,-84 4454,-78 4460,-72 4466,-72 4466,-72 4850,-72 4850,-72 4856,-72 4862,-78 4862,-84 4862,-84 4862,-96 4862,-96 4862,-102 4856,-108 4850,-108"/>
<text text-anchor="middle" x="4658" y="-93" font-family="sans" font-size="10.00" fill="#000000">fastqc</text>
<text text-anchor="middle" x="4658" y="-82" font-family="sans" font-size="10.00" fill="#000000">sample_path: data/raw/fastq/B6_F_Fib_RNA_5/B6_F_Fib_RNA_5_S8_L002_R2_001</text>
</g>
<!-- 14&#45;&gt;34 -->
<g id="edge43" class="edge">
<title>14&#45;&gt;34</title>
<path fill="none" stroke="#c0c0c0" stroke-width="2" d="M4862.0439,-72.5276C4865.0491,-72.3451 4868.0359,-72.1691 4871,-72 5587.7034,-31.1208 6464.9581,-20.2814 6654.7071,-18.3487"/>
<polygon fill="#c0c0c0" stroke="#c0c0c0" stroke-width="2" points="6655.0098,-21.8459 6664.9743,-18.2461 6654.9397,-14.8463 6655.0098,-21.8459"/>
</g>
<!-- 15 -->
<g id="node16" class="node">
<title>15</title>
<path fill="none" stroke="#c6d856" stroke-width="2" stroke-dasharray="5,2" d="M5285.5,-108C5285.5,-108 4892.5,-108 4892.5,-108 4886.5,-108 4880.5,-102 4880.5,-96 4880.5,-96 4880.5,-84 4880.5,-84 4880.5,-78 4886.5,-72 4892.5,-72 4892.5,-72 5285.5,-72 5285.5,-72 5291.5,-72 5297.5,-78 5297.5,-84 5297.5,-84 5297.5,-96 5297.5,-96 5297.5,-102 5291.5,-108 5285.5,-108"/>
<text text-anchor="middle" x="5089" y="-93" font-family="sans" font-size="10.00" fill="#000000">fastqc</text>
<text text-anchor="middle" x="5089" y="-82" font-family="sans" font-size="10.00" fill="#000000">sample_path: data/raw/fastq/B6_F_CM_RNA_4/B6_F_CM_RNA_4_S35_L002_R2_001</text>
</g>
<!-- 15&#45;&gt;34 -->
<g id="edge45" class="edge">
<title>15&#45;&gt;34</title>
<path fill="none" stroke="#c0c0c0" stroke-width="2" d="M5297.5994,-72.8934C5302.4449,-72.583 5307.2505,-72.2845 5312,-72 5844.2635,-40.1184 6493.1905,-22.877 6654.4093,-18.8993"/>
<polygon fill="#c0c0c0" stroke="#c0c0c0" stroke-width="2" points="6654.8313,-22.3901 6664.7425,-18.6461 6654.6598,-15.3922 6654.8313,-22.3901"/>
</g>
<!-- 16 -->
<g id="node17" class="node">
<title>16</title>
<path fill="none" stroke="#78d856" stroke-width="2" stroke-dasharray="5,2" d="M6351,-468C6351,-468 6271,-468 6271,-468 6265,-468 6259,-462 6259,-456 6259,-456 6259,-444 6259,-444 6259,-438 6265,-432 6271,-432 6271,-432 6351,-432 6351,-432 6357,-432 6363,-438 6363,-444 6363,-444 6363,-456 6363,-456 6363,-462 6357,-468 6351,-468"/>
<text text-anchor="middle" x="6311" y="-447.5" font-family="sans" font-size="10.00" fill="#000000">ambient_doublets</text>
</g>
<!-- 16&#45;&gt;13 -->
<g id="edge3" class="edge">
<title>16&#45;&gt;13</title>
<path fill="none" stroke="#c0c0c0" stroke-width="2" d="M6258.9648,-446.3305C6080.6248,-433.7541 5496.0999,-392.534 5332.7479,-381.0145"/>
<polygon fill="#c0c0c0" stroke="#c0c0c0" stroke-width="2" points="5332.8275,-377.5116 5322.606,-380.2993 5332.335,-384.4942 5332.8275,-377.5116"/>
</g>
<!-- 16&#45;&gt;34 -->
<g id="edge10" class="edge">
<title>16&#45;&gt;34</title>
<path fill="none" stroke="#c0c0c0" stroke-width="2" d="M6363.0663,-449.2349C6794.1798,-442.7353 9757,-394.8355 9757,-306 9757,-306 9757,-306 9757,-162 9757,-121.1184 9769.5237,-98.03 9738,-72 9677.057,-21.6777 7073.0982,-18.2502 6729.3245,-18.017"/>
<polygon fill="#c0c0c0" stroke="#c0c0c0" stroke-width="2" points="6729.1539,-14.517 6719.1517,-18.0106 6729.1495,-21.517 6729.1539,-14.517"/>
</g>
<!-- 17 -->
<g id="node18" class="node">
<title>17</title>
<path fill="none" stroke="#d87d56" stroke-width="2" stroke-dasharray="5,2" d="M2676,-108C2676,-108 2646,-108 2646,-108 2640,-108 2634,-102 2634,-96 2634,-96 2634,-84 2634,-84 2634,-78 2640,-72 2646,-72 2646,-72 2676,-72 2676,-72 2682,-72 2688,-78 2688,-84 2688,-84 2688,-96 2688,-96 2688,-102 2682,-108 2676,-108"/>
<text text-anchor="middle" x="2661" y="-87.5" font-family="sans" font-size="10.00" fill="#000000">plot_de</text>
</g>
<!-- 17&#45;&gt;34 -->
<g id="edge11" class="edge">
<title>17&#45;&gt;34</title>
<path fill="none" stroke="#c0c0c0" stroke-width="2" d="M2688.0287,-74.9073C2690.9885,-73.7352 2694.0125,-72.7266 2697,-72 2900.0344,-22.6192 6261.1582,-18.356 6654.5185,-18.0259"/>
<polygon fill="#c0c0c0" stroke="#c0c0c0" stroke-width="2" points="6654.7861,-21.5257 6664.7832,-18.0176 6654.7804,-14.5257 6654.7861,-21.5257"/>
</g>
<!-- 18 -->
<g id="node19" class="node">
<title>18</title>
<path fill="none" stroke="#c6d856" stroke-width="2" stroke-dasharray="5,2" d="M5794,-108C5794,-108 5404,-108 5404,-108 5398,-108 5392,-102 5392,-96 5392,-96 5392,-84 5392,-84 5392,-78 5398,-72 5404,-72 5404,-72 5794,-72 5794,-72 5800,-72 5806,-78 5806,-84 5806,-84 5806,-96 5806,-96 5806,-102 5800,-108 5794,-108"/>
<text text-anchor="middle" x="5599" y="-93" font-family="sans" font-size="10.00" fill="#000000">fastqc</text>
<text text-anchor="middle" x="5599" y="-82" font-family="sans" font-size="10.00" fill="#000000">sample_path: data/raw/fastq/B6_F_Fib_RNA_1/B6_F_Fib_RNA_1_S23_L002_R1_001</text>
</g>
<!-- 18&#45;&gt;34 -->
<g id="edge12" class="edge">
<title>18&#45;&gt;34</title>
<path fill="none" stroke="#c0c0c0" stroke-width="2" d="M5806.2123,-72.643C5809.1608,-72.4252 5812.0913,-72.2107 5815,-72 6139.9161,-48.4615 6533.0358,-26.6167 6654.4638,-20.0199"/>
<polygon fill="#c0c0c0" stroke="#c0c0c0" stroke-width="2" points="6654.9106,-23.5009 6664.7065,-19.4647 6654.5316,-16.5112 6654.9106,-23.5009"/>
</g>
<!-- 19 -->
<g id="node20" class="node">
<title>19</title>
<path fill="none" stroke="#c6d856" stroke-width="2" stroke-dasharray="5,2" d="M6232,-108C6232,-108 5836,-108 5836,-108 5830,-108 5824,-102 5824,-96 5824,-96 5824,-84 5824,-84 5824,-78 5830,-72 5836,-72 5836,-72 6232,-72 6232,-72 6238,-72 6244,-78 6244,-84 6244,-84 6244,-96 6244,-96 6244,-102 6238,-108 6232,-108"/>
<text text-anchor="middle" x="6034" y="-93" font-family="sans" font-size="10.00" fill="#000000">fastqc</text>
<text text-anchor="middle" x="6034" y="-82" font-family="sans" font-size="10.00" fill="#000000">sample_path: data/raw/fastq/B6_M_Fib_RNA_1/B6_M_Fib_RNA_1_S20_L002_R2_001</text>
</g>
<!-- 19&#45;&gt;34 -->
<g id="edge13" class="edge">
<title>19&#45;&gt;34</title>
<path fill="none" stroke="#c0c0c0" stroke-width="2" d="M6198.7677,-71.9707C6351.8829,-55.2165 6568.8271,-31.4779 6654.817,-22.0687"/>
<polygon fill="#c0c0c0" stroke="#c0c0c0" stroke-width="2" points="6655.3192,-25.5347 6664.8791,-20.9676 6654.5577,-18.5762 6655.3192,-25.5347"/>
</g>
<!-- 20 -->
<g id="node21" class="node">
<title>20</title>
<path fill="none" stroke="#d8c356" stroke-width="2" stroke-dasharray="5,2" d="M6342.5,-540C6342.5,-540 6279.5,-540 6279.5,-540 6273.5,-540 6267.5,-534 6267.5,-528 6267.5,-528 6267.5,-516 6267.5,-516 6267.5,-510 6273.5,-504 6279.5,-504 6279.5,-504 6342.5,-504 6342.5,-504 6348.5,-504 6354.5,-510 6354.5,-516 6354.5,-516 6354.5,-528 6354.5,-528 6354.5,-534 6348.5,-540 6342.5,-540"/>
<text text-anchor="middle" x="6311" y="-525" font-family="sans" font-size="10.00" fill="#000000">load_sn</text>
<text text-anchor="middle" x="6311" y="-514" font-family="sans" font-size="10.00" fill="#000000">samples: b6_2</text>
</g>
<!-- 20&#45;&gt;16 -->
<g id="edge5" class="edge">
<title>20&#45;&gt;16</title>
<path fill="none" stroke="#c0c0c0" stroke-width="2" d="M6311,-503.8314C6311,-496.131 6311,-486.9743 6311,-478.4166"/>
<polygon fill="#c0c0c0" stroke="#c0c0c0" stroke-width="2" points="6314.5001,-478.4132 6311,-468.4133 6307.5001,-478.4133 6314.5001,-478.4132"/>
</g>
<!-- 21 -->
<g id="node22" class="node">
<title>21</title>
<path fill="none" stroke="#c6d856" stroke-width="2" stroke-dasharray="5,2" d="M6670,-108C6670,-108 6274,-108 6274,-108 6268,-108 6262,-102 6262,-96 6262,-96 6262,-84 6262,-84 6262,-78 6268,-72 6274,-72 6274,-72 6670,-72 6670,-72 6676,-72 6682,-78 6682,-84 6682,-84 6682,-96 6682,-96 6682,-102 6676,-108 6670,-108"/>
<text text-anchor="middle" x="6472" y="-93" font-family="sans" font-size="10.00" fill="#000000">fastqc</text>
<text text-anchor="middle" x="6472" y="-82" font-family="sans" font-size="10.00" fill="#000000">sample_path: data/raw/fastq/B6_M_Fib_RNA_1/B6_M_Fib_RNA_1_S20_L002_R1_001</text>
</g>
<!-- 21&#45;&gt;34 -->
<g id="edge18" class="edge">
<title>21&#45;&gt;34</title>
<path fill="none" stroke="#c0c0c0" stroke-width="2" d="M6527.2313,-71.9243C6567.1983,-58.8442 6620.116,-41.5257 6655.0668,-30.0872"/>
<polygon fill="#c0c0c0" stroke="#c0c0c0" stroke-width="2" points="6656.4468,-33.3183 6664.8621,-26.8815 6654.2695,-26.6655 6656.4468,-33.3183"/>
</g>
<!-- 22 -->
<g id="node23" class="node">
<title>22</title>
<path fill="none" stroke="#c6d856" stroke-width="2" stroke-dasharray="5,2" d="M7111.5,-108C7111.5,-108 6712.5,-108 6712.5,-108 6706.5,-108 6700.5,-102 6700.5,-96 6700.5,-96 6700.5,-84 6700.5,-84 6700.5,-78 6706.5,-72 6712.5,-72 6712.5,-72 7111.5,-72 7111.5,-72 7117.5,-72 7123.5,-78 7123.5,-84 7123.5,-84 7123.5,-96 7123.5,-96 7123.5,-102 7117.5,-108 7111.5,-108"/>
<text text-anchor="middle" x="6912" y="-93" font-family="sans" font-size="10.00" fill="#000000">fastqc</text>
<text text-anchor="middle" x="6912" y="-82" font-family="sans" font-size="10.00" fill="#000000">sample_path: data/raw/fastq/B6_M_CM_RNA_3/B6_M_CM_RNA_3_S10_L002_R2_001</text>
</g>
<!-- 22&#45;&gt;34 -->
<g id="edge44" class="edge">
<title>22&#45;&gt;34</title>
<path fill="none" stroke="#c0c0c0" stroke-width="2" d="M6856.7687,-71.9243C6816.8017,-58.8442 6763.884,-41.5257 6728.9332,-30.0872"/>
<polygon fill="#c0c0c0" stroke="#c0c0c0" stroke-width="2" points="6729.7305,-26.6655 6719.1379,-26.8815 6727.5532,-33.3183 6729.7305,-26.6655"/>
</g>
<!-- 23 -->
<g id="node24" class="node">
<title>23</title>
<path fill="none" stroke="#c6d856" stroke-width="2" stroke-dasharray="5,2" d="M7546.5,-108C7546.5,-108 7153.5,-108 7153.5,-108 7147.5,-108 7141.5,-102 7141.5,-96 7141.5,-96 7141.5,-84 7141.5,-84 7141.5,-78 7147.5,-72 7153.5,-72 7153.5,-72 7546.5,-72 7546.5,-72 7552.5,-72 7558.5,-78 7558.5,-84 7558.5,-84 7558.5,-96 7558.5,-96 7558.5,-102 7552.5,-108 7546.5,-108"/>
<text text-anchor="middle" x="7350" y="-93" font-family="sans" font-size="10.00" fill="#000000">fastqc</text>
<text text-anchor="middle" x="7350" y="-82" font-family="sans" font-size="10.00" fill="#000000">sample_path: data/raw/fastq/B6_F_CM_RNA_5/B6_F_CM_RNA_5_S36_L002_R1_001</text>
</g>
<!-- 23&#45;&gt;34 -->
<g id="edge20" class="edge">
<title>23&#45;&gt;34</title>
<path fill="none" stroke="#c0c0c0" stroke-width="2" d="M7185.2323,-71.9707C7032.1171,-55.2165 6815.1729,-31.4779 6729.183,-22.0687"/>
<polygon fill="#c0c0c0" stroke="#c0c0c0" stroke-width="2" points="6729.4423,-18.5762 6719.1209,-20.9676 6728.6808,-25.5347 6729.4423,-18.5762"/>
</g>
<!-- 24 -->
<g id="node25" class="node">
<title>24</title>
<path fill="none" stroke="#c6d856" stroke-width="2" stroke-dasharray="5,2" d="M7979,-108C7979,-108 7589,-108 7589,-108 7583,-108 7577,-102 7577,-96 7577,-96 7577,-84 7577,-84 7577,-78 7583,-72 7589,-72 7589,-72 7979,-72 7979,-72 7985,-72 7991,-78 7991,-84 7991,-84 7991,-96 7991,-96 7991,-102 7985,-108 7979,-108"/>
<text text-anchor="middle" x="7784" y="-93" font-family="sans" font-size="10.00" fill="#000000">fastqc</text>
<text text-anchor="middle" x="7784" y="-82" font-family="sans" font-size="10.00" fill="#000000">sample_path: data/raw/fastq/B6_F_Fib_RNA_3/B6_F_Fib_RNA_3_S25_L002_R1_001</text>
</g>
<!-- 24&#45;&gt;34 -->
<g id="edge21" class="edge">
<title>24&#45;&gt;34</title>
<path fill="none" stroke="#c0c0c0" stroke-width="2" d="M7576.9756,-72.7294C7573.6263,-72.4819 7570.2991,-72.2386 7567,-72 7242.8192,-48.5541 6850.5998,-26.6474 6729.4502,-20.0276"/>
<polygon fill="#c0c0c0" stroke="#c0c0c0" stroke-width="2" points="6729.4067,-16.5201 6719.2309,-19.4703 6729.0255,-23.5097 6729.4067,-16.5201"/>
</g>
<!-- 25 -->
<g id="node26" class="node">
<title>25</title>
<path fill="none" stroke="#567bd8" stroke-width="2" stroke-dasharray="5,2" d="M5306.5,-252C5306.5,-252 5253.5,-252 5253.5,-252 5247.5,-252 5241.5,-246 5241.5,-240 5241.5,-240 5241.5,-228 5241.5,-228 5241.5,-222 5247.5,-216 5253.5,-216 5253.5,-216 5306.5,-216 5306.5,-216 5312.5,-216 5318.5,-222 5318.5,-228 5318.5,-228 5318.5,-240 5318.5,-240 5318.5,-246 5312.5,-252 5306.5,-252"/>
<text text-anchor="middle" x="5280" y="-231.5" font-family="sans" font-size="10.00" fill="#000000">deconvolute</text>
</g>
<!-- 25&#45;&gt;4 -->
<g id="edge1" class="edge">
<title>25&#45;&gt;4</title>
<path fill="none" stroke="#c0c0c0" stroke-width="2" d="M5280.2523,-215.8314C5280.3593,-208.131 5280.4865,-198.9743 5280.6053,-190.4166"/>
<polygon fill="#c0c0c0" stroke="#c0c0c0" stroke-width="2" points="5284.1049,-190.4609 5280.7443,-180.4133 5277.1056,-190.3637 5284.1049,-190.4609"/>
</g>
<!-- 30 -->
<g id="node31" class="node">
<title>30</title>
<path fill="none" stroke="#d85656" stroke-width="2" stroke-dasharray="5,2" d="M5388.5,-180C5388.5,-180 5339.5,-180 5339.5,-180 5333.5,-180 5327.5,-174 5327.5,-168 5327.5,-168 5327.5,-156 5327.5,-156 5327.5,-150 5333.5,-144 5339.5,-144 5339.5,-144 5388.5,-144 5388.5,-144 5394.5,-144 5400.5,-150 5400.5,-156 5400.5,-156 5400.5,-168 5400.5,-168 5400.5,-174 5394.5,-180 5388.5,-180"/>
<text text-anchor="middle" x="5364" y="-159.5" font-family="sans" font-size="10.00" fill="#000000">plot_comps</text>
</g>
<!-- 25&#45;&gt;30 -->
<g id="edge9" class="edge">
<title>25&#45;&gt;30</title>
<path fill="none" stroke="#c0c0c0" stroke-width="2" d="M5301.1967,-215.8314C5311.4434,-207.0485 5323.9003,-196.3712 5335.0097,-186.8489"/>
<polygon fill="#c0c0c0" stroke="#c0c0c0" stroke-width="2" points="5337.4952,-189.3282 5342.81,-180.1628 5332.9397,-184.0134 5337.4952,-189.3282"/>
</g>
<!-- 36 -->
<g id="node37" class="node">
<title>36</title>
<path fill="none" stroke="#56d87b" stroke-width="2" stroke-dasharray="5,2" d="M5222.5,-180C5222.5,-180 5127.5,-180 5127.5,-180 5121.5,-180 5115.5,-174 5115.5,-168 5115.5,-168 5115.5,-156 5115.5,-156 5115.5,-150 5121.5,-144 5127.5,-144 5127.5,-144 5222.5,-144 5222.5,-144 5228.5,-144 5234.5,-150 5234.5,-156 5234.5,-156 5234.5,-168 5234.5,-168 5234.5,-174 5228.5,-180 5222.5,-180"/>
<text text-anchor="middle" x="5175" y="-159.5" font-family="sans" font-size="10.00" fill="#000000">diffential_expression</text>
</g>
<!-- 25&#45;&gt;36 -->
<g id="edge49" class="edge">
<title>25&#45;&gt;36</title>
<path fill="none" stroke="#c0c0c0" stroke-width="2" d="M5253.5041,-215.8314C5240.3226,-206.7927 5224.2153,-195.7476 5210.0289,-186.0198"/>
<polygon fill="#c0c0c0" stroke="#c0c0c0" stroke-width="2" points="5211.7141,-182.9316 5201.4875,-180.1628 5207.7554,-188.7047 5211.7141,-182.9316"/>
</g>
<!-- 26 -->
<g id="node27" class="node">
<title>26</title>
<path fill="none" stroke="#c6d856" stroke-width="2" stroke-dasharray="5,2" d="M8420.5,-108C8420.5,-108 8021.5,-108 8021.5,-108 8015.5,-108 8009.5,-102 8009.5,-96 8009.5,-96 8009.5,-84 8009.5,-84 8009.5,-78 8015.5,-72 8021.5,-72 8021.5,-72 8420.5,-72 8420.5,-72 8426.5,-72 8432.5,-78 8432.5,-84 8432.5,-84 8432.5,-96 8432.5,-96 8432.5,-102 8426.5,-108 8420.5,-108"/>
<text text-anchor="middle" x="8221" y="-93" font-family="sans" font-size="10.00" fill="#000000">fastqc</text>
<text text-anchor="middle" x="8221" y="-82" font-family="sans" font-size="10.00" fill="#000000">sample_path: data/raw/fastq/B6_M_CM_RNA_1/B6_M_CM_RNA_1_S28_L002_R1_001</text>
</g>
<!-- 26&#45;&gt;34 -->
<g id="edge24" class="edge">
<title>26&#45;&gt;34</title>
<path fill="none" stroke="#c0c0c0" stroke-width="2" d="M8009.2881,-72.5825C8006.1714,-72.3829 8003.0738,-72.1886 8000,-72 7497.6726,-41.1865 6885.7152,-23.2767 6729.6227,-19.0022"/>
<polygon fill="#c0c0c0" stroke="#c0c0c0" stroke-width="2" points="6729.2711,-15.4915 6719.1796,-18.718 6729.0806,-22.4889 6729.2711,-15.4915"/>
</g>
<!-- 27 -->
<g id="node28" class="node">
<title>27</title>
<path fill="none" stroke="#c6d856" stroke-width="2" stroke-dasharray="5,2" d="M8855.5,-108C8855.5,-108 8462.5,-108 8462.5,-108 8456.5,-108 8450.5,-102 8450.5,-96 8450.5,-96 8450.5,-84 8450.5,-84 8450.5,-78 8456.5,-72 8462.5,-72 8462.5,-72 8855.5,-72 8855.5,-72 8861.5,-72 8867.5,-78 8867.5,-84 8867.5,-84 8867.5,-96 8867.5,-96 8867.5,-102 8861.5,-108 8855.5,-108"/>
<text text-anchor="middle" x="8659" y="-93" font-family="sans" font-size="10.00" fill="#000000">fastqc</text>
<text text-anchor="middle" x="8659" y="-82" font-family="sans" font-size="10.00" fill="#000000">sample_path: data/raw/fastq/B6_F_CM_RNA_2/B6_F_CM_RNA_2_S33_L002_R1_001</text>
</g>
<!-- 27&#45;&gt;34 -->
<g id="edge26" class="edge">
<title>27&#45;&gt;34</title>
<path fill="none" stroke="#c0c0c0" stroke-width="2" d="M8450.2628,-72.4832C8447.4917,-72.3168 8444.7363,-72.1556 8442,-72 7754.6972,-32.9167 6913.8252,-20.7222 6729.029,-18.4295"/>
<polygon fill="#c0c0c0" stroke="#c0c0c0" stroke-width="2" points="6729.0566,-14.9297 6719.0145,-18.307 6728.9709,-21.9291 6729.0566,-14.9297"/>
</g>
<!-- 28 -->
<g id="node29" class="node">
<title>28</title>
<path fill="none" stroke="#c6d856" stroke-width="2" stroke-dasharray="5,2" d="M9290.5,-108C9290.5,-108 8897.5,-108 8897.5,-108 8891.5,-108 8885.5,-102 8885.5,-96 8885.5,-96 8885.5,-84 8885.5,-84 8885.5,-78 8891.5,-72 8897.5,-72 8897.5,-72 9290.5,-72 9290.5,-72 9296.5,-72 9302.5,-78 9302.5,-84 9302.5,-84 9302.5,-96 9302.5,-96 9302.5,-102 9296.5,-108 9290.5,-108"/>
<text text-anchor="middle" x="9094" y="-93" font-family="sans" font-size="10.00" fill="#000000">fastqc</text>
<text text-anchor="middle" x="9094" y="-82" font-family="sans" font-size="10.00" fill="#000000">sample_path: data/raw/fastq/B6_F_CM_RNA_5/B6_F_CM_RNA_5_S36_L002_R2_001</text>
</g>
<!-- 28&#45;&gt;34 -->
<g id="edge28" class="edge">
<title>28&#45;&gt;34</title>
<path fill="none" stroke="#c0c0c0" stroke-width="2" d="M8885.2641,-72.4594C8882.4926,-72.3005 8879.7368,-72.1472 8877,-72 8007.3691,-25.2259 6940.8282,-18.9172 6729.412,-18.1125"/>
<polygon fill="#c0c0c0" stroke="#c0c0c0" stroke-width="2" points="6729.1781,-14.6117 6719.1654,-18.0753 6729.1526,-21.6116 6729.1781,-14.6117"/>
</g>
<!-- 29 -->
<g id="node30" class="node">
<title>29</title>
<path fill="none" stroke="#c6d856" stroke-width="2" stroke-dasharray="5,2" d="M9717,-108C9717,-108 9333,-108 9333,-108 9327,-108 9321,-102 9321,-96 9321,-96 9321,-84 9321,-84 9321,-78 9327,-72 9333,-72 9333,-72 9717,-72 9717,-72 9723,-72 9729,-78 9729,-84 9729,-84 9729,-96 9729,-96 9729,-102 9723,-108 9717,-108"/>
<text text-anchor="middle" x="9525" y="-93" font-family="sans" font-size="10.00" fill="#000000">fastqc</text>
<text text-anchor="middle" x="9525" y="-82" font-family="sans" font-size="10.00" fill="#000000">sample_path: data/raw/fastq/B6_F_Fib_RNA_4/B6_F_Fib_RNA_4_S7_L002_R2_001</text>
</g>
<!-- 29&#45;&gt;34 -->
<g id="edge29" class="edge">
<title>29&#45;&gt;34</title>
<path fill="none" stroke="#c0c0c0" stroke-width="2" d="M9320.9582,-72.4899C9317.9523,-72.3192 9314.9648,-72.1557 9312,-72 8776.8071,-43.8995 7007.6936,-21.7856 6729.0801,-18.4389"/>
<polygon fill="#c0c0c0" stroke="#c0c0c0" stroke-width="2" points="6729.1187,-14.9392 6719.0775,-18.3192 6729.0349,-21.9387 6729.1187,-14.9392"/>
</g>
<!-- 30&#45;&gt;34 -->
<g id="edge30" class="edge">
<title>30&#45;&gt;34</title>
<path fill="none" stroke="#c0c0c0" stroke-width="2" d="M5361.9516,-143.9199C5360.7132,-123.0677 5362.3928,-89.4273 5383,-72 5432.851,-29.8417 6446.5059,-19.8665 6654.7869,-18.2589"/>
<polygon fill="#c0c0c0" stroke="#c0c0c0" stroke-width="2" points="6654.938,-21.7579 6664.9113,-18.1825 6654.8851,-14.7581 6654.938,-21.7579"/>
</g>
<!-- 31 -->
<g id="node32" class="node">
<title>31</title>
<path fill="none" stroke="#c6d856" stroke-width="2" stroke-dasharray="5,2" d="M10190.5,-108C10190.5,-108 9797.5,-108 9797.5,-108 9791.5,-108 9785.5,-102 9785.5,-96 9785.5,-96 9785.5,-84 9785.5,-84 9785.5,-78 9791.5,-72 9797.5,-72 9797.5,-72 10190.5,-72 10190.5,-72 10196.5,-72 10202.5,-78 10202.5,-84 10202.5,-84 10202.5,-96 10202.5,-96 10202.5,-102 10196.5,-108 10190.5,-108"/>
<text text-anchor="middle" x="9994" y="-93" font-family="sans" font-size="10.00" fill="#000000">fastqc</text>
<text text-anchor="middle" x="9994" y="-82" font-family="sans" font-size="10.00" fill="#000000">sample_path: data/raw/fastq/B6_F_CM_RNA_3/B6_F_CM_RNA_3_S34_L002_R1_001</text>
</g>
<!-- 31&#45;&gt;34 -->
<g id="edge31" class="edge">
<title>31&#45;&gt;34</title>
<path fill="none" stroke="#c0c0c0" stroke-width="2" d="M9785.4082,-72.7541C9780.5605,-72.4854 9775.7523,-72.2332 9771,-72 9137.7235,-40.9194 7034.8271,-21.0769 6729.1787,-18.3285"/>
<polygon fill="#c0c0c0" stroke="#c0c0c0" stroke-width="2" points="6729.1004,-14.8277 6719.0694,-18.2379 6729.0376,-21.8274 6729.1004,-14.8277"/>
</g>
<!-- 32 -->
<g id="node33" class="node">
<title>32</title>
<path fill="none" stroke="#c6d856" stroke-width="2" stroke-dasharray="5,2" d="M10617,-108C10617,-108 10233,-108 10233,-108 10227,-108 10221,-102 10221,-96 10221,-96 10221,-84 10221,-84 10221,-78 10227,-72 10233,-72 10233,-72 10617,-72 10617,-72 10623,-72 10629,-78 10629,-84 10629,-84 10629,-96 10629,-96 10629,-102 10623,-108 10617,-108"/>
<text text-anchor="middle" x="10425" y="-93" font-family="sans" font-size="10.00" fill="#000000">fastqc</text>
<text text-anchor="middle" x="10425" y="-82" font-family="sans" font-size="10.00" fill="#000000">sample_path: data/raw/fastq/B6_F_Fib_RNA_5/B6_F_Fib_RNA_5_S8_L002_R1_001</text>
</g>
<!-- 32&#45;&gt;34 -->
<g id="edge32" class="edge">
<title>32&#45;&gt;34</title>
<path fill="none" stroke="#c0c0c0" stroke-width="2" d="M10220.9593,-72.4679C10217.9531,-72.3041 10214.9652,-72.1479 10212,-72 9484.6991,-35.7335 7061.4811,-20.1948 6729.751,-18.2188"/>
<polygon fill="#c0c0c0" stroke="#c0c0c0" stroke-width="2" points="6729.2832,-14.716 6719.2626,-18.1567 6729.2417,-21.7159 6729.2832,-14.716"/>
</g>
<!-- 33 -->
<g id="node34" class="node">
<title>33</title>
<path fill="none" stroke="#c6d856" stroke-width="2" stroke-dasharray="5,2" d="M11058.5,-108C11058.5,-108 10659.5,-108 10659.5,-108 10653.5,-108 10647.5,-102 10647.5,-96 10647.5,-96 10647.5,-84 10647.5,-84 10647.5,-78 10653.5,-72 10659.5,-72 10659.5,-72 11058.5,-72 11058.5,-72 11064.5,-72 11070.5,-78 11070.5,-84 11070.5,-84 11070.5,-96 11070.5,-96 11070.5,-102 11064.5,-108 11058.5,-108"/>
<text text-anchor="middle" x="10859" y="-93" font-family="sans" font-size="10.00" fill="#000000">fastqc</text>
<text text-anchor="middle" x="10859" y="-82" font-family="sans" font-size="10.00" fill="#000000">sample_path: data/raw/fastq/B6_M_CM_RNA_5/B6_M_CM_RNA_5_S31_L002_R1_001</text>
</g>
<!-- 33&#45;&gt;34 -->
<g id="edge33" class="edge">
<title>33&#45;&gt;34</title>
<path fill="none" stroke="#c0c0c0" stroke-width="2" d="M10647.2946,-72.4631C10644.1758,-72.3008 10641.0761,-72.1462 10638,-72 9818.8368,-33.08 7081.0357,-19.7291 6729.3131,-18.1609"/>
<polygon fill="#c0c0c0" stroke="#c0c0c0" stroke-width="2" points="6729.17,-14.6603 6719.1545,-18.1159 6729.1389,-21.6602 6729.17,-14.6603"/>
</g>
<!-- 35 -->
<g id="node36" class="node">
<title>35</title>
<path fill="none" stroke="#c6d856" stroke-width="2" stroke-dasharray="5,2" d="M11493.5,-108C11493.5,-108 11100.5,-108 11100.5,-108 11094.5,-108 11088.5,-102 11088.5,-96 11088.5,-96 11088.5,-84 11088.5,-84 11088.5,-78 11094.5,-72 11100.5,-72 11100.5,-72 11493.5,-72 11493.5,-72 11499.5,-72 11505.5,-78 11505.5,-84 11505.5,-84 11505.5,-96 11505.5,-96 11505.5,-102 11499.5,-108 11493.5,-108"/>
<text text-anchor="middle" x="11297" y="-93" font-family="sans" font-size="10.00" fill="#000000">fastqc</text>
<text text-anchor="middle" x="11297" y="-82" font-family="sans" font-size="10.00" fill="#000000">sample_path: data/raw/fastq/B6_F_CM_RNA_3/B6_F_CM_RNA_3_S34_L002_R2_001</text>
</g>
<!-- 35&#45;&gt;34 -->
<g id="edge35" class="edge">
<title>35&#45;&gt;34</title>
<path fill="none" stroke="#c0c0c0" stroke-width="2" d="M11088.2665,-72.4114C11085.4942,-72.2675 11082.7376,-72.1302 11080,-72 10165.8241,-28.5139 7102.6935,-19.089 6729.377,-18.0942"/>
<polygon fill="#c0c0c0" stroke="#c0c0c0" stroke-width="2" points="6729.1308,-14.5936 6719.1216,-18.0672 6729.1123,-21.5936 6729.1308,-14.5936"/>
</g>
<!-- 36&#45;&gt;17 -->
<g id="edge6" class="edge">
<title>36&#45;&gt;17</title>
<path fill="none" stroke="#c0c0c0" stroke-width="2" d="M5115.468,-161.4418C4756.9758,-157.9898 2894.6843,-138.7448 2697.9779,-107.0267"/>
<polygon fill="#c0c0c0" stroke="#c0c0c0" stroke-width="2" points="2698.523,-103.5669 2688.035,-105.0673 2697.1695,-110.4348 2698.523,-103.5669"/>
</g>
<!-- 37&#45;&gt;25 -->
<g id="edge7" class="edge">
<title>37&#45;&gt;25</title>
<path fill="none" stroke="#c0c0c0" stroke-width="2" d="M5280,-287.8314C5280,-280.131 5280,-270.9743 5280,-262.4166"/>
<polygon fill="#c0c0c0" stroke="#c0c0c0" stroke-width="2" points="5283.5001,-262.4132 5280,-252.4133 5276.5001,-262.4133 5283.5001,-262.4132"/>
</g>
<!-- 38 -->
<g id="node39" class="node">
<title>38</title>
<path fill="none" stroke="#56d8c9" stroke-width="2" stroke-dasharray="5,2" d="M5227.5,-396C5227.5,-396 5182.5,-396 5182.5,-396 5176.5,-396 5170.5,-390 5170.5,-384 5170.5,-384 5170.5,-372 5170.5,-372 5170.5,-366 5176.5,-360 5182.5,-360 5182.5,-360 5227.5,-360 5227.5,-360 5233.5,-360 5239.5,-366 5239.5,-372 5239.5,-372 5239.5,-384 5239.5,-384 5239.5,-390 5233.5,-396 5227.5,-396"/>
<text text-anchor="middle" x="5205" y="-375.5" font-family="sans" font-size="10.00" fill="#000000">clean_bulk</text>
</g>
<!-- 38&#45;&gt;25 -->
<g id="edge8" class="edge">
<title>38&#45;&gt;25</title>
<path fill="none" stroke="#c0c0c0" stroke-width="2" d="M5208.6201,-359.903C5212.8759,-341.0983 5221.0489,-311.2275 5234,-288 5239.602,-277.9529 5247.24,-268.0486 5254.6824,-259.5204"/>
<polygon fill="#c0c0c0" stroke="#c0c0c0" stroke-width="2" points="5257.2759,-261.8707 5261.3982,-252.1107 5252.0893,-257.1697 5257.2759,-261.8707"/>
</g>
<!-- 38&#45;&gt;36 -->
<g id="edge48" class="edge">
<title>38&#45;&gt;36</title>
<path fill="none" stroke="#c0c0c0" stroke-width="2" d="M5202.4938,-359.9555C5197.2659,-322.3144 5185.1648,-235.1867 5178.9062,-190.1246"/>
<polygon fill="#c0c0c0" stroke="#c0c0c0" stroke-width="2" points="5182.3626,-189.5685 5177.5201,-180.1451 5175.4292,-190.5315 5182.3626,-189.5685"/>
</g>
<!-- 38&#45;&gt;37 -->
<g id="edge50" class="edge">
<title>38&#45;&gt;37</title>
<path fill="none" stroke="#c0c0c0" stroke-width="2" d="M5223.9257,-359.8314C5232.9857,-351.1337 5243.9809,-340.5783 5253.8265,-331.1265"/>
<polygon fill="#c0c0c0" stroke="#c0c0c0" stroke-width="2" points="5256.2904,-333.613 5261.0804,-324.1628 5251.4426,-328.5633 5256.2904,-333.613"/>
</g>
<!-- 39 -->
<g id="node40" class="node">
<title>39</title>
<path fill="none" stroke="#c6d856" stroke-width="2" stroke-dasharray="5,2" d="M11926,-108C11926,-108 11536,-108 11536,-108 11530,-108 11524,-102 11524,-96 11524,-96 11524,-84 11524,-84 11524,-78 11530,-72 11536,-72 11536,-72 11926,-72 11926,-72 11932,-72 11938,-78 11938,-84 11938,-84 11938,-96 11938,-96 11938,-102 11932,-108 11926,-108"/>
<text text-anchor="middle" x="11731" y="-93" font-family="sans" font-size="10.00" fill="#000000">fastqc</text>
<text text-anchor="middle" x="11731" y="-82" font-family="sans" font-size="10.00" fill="#000000">sample_path: data/raw/fastq/B6_F_Fib_RNA_3/B6_F_Fib_RNA_3_S25_L002_R2_001</text>
</g>
<!-- 39&#45;&gt;34 -->
<g id="edge40" class="edge">
<title>39&#45;&gt;34</title>
<path fill="none" stroke="#c0c0c0" stroke-width="2" d="M11523.8,-72.4364C11520.8477,-72.2832 11517.9131,-72.1375 11515,-72 10507.1088,-24.4239 7122.7099,-18.5676 6729.3865,-18.0445"/>
<polygon fill="#c0c0c0" stroke="#c0c0c0" stroke-width="2" points="6729.1329,-14.5442 6719.1283,-18.0311 6729.1237,-21.5442 6729.1329,-14.5442"/>
</g>
<!-- 40 -->
<g id="node41" class="node">
<title>40</title>
<path fill="none" stroke="#c6d856" stroke-width="2" stroke-dasharray="5,2" d="M12358,-108C12358,-108 11968,-108 11968,-108 11962,-108 11956,-102 11956,-96 11956,-96 11956,-84 11956,-84 11956,-78 11962,-72 11968,-72 11968,-72 12358,-72 12358,-72 12364,-72 12370,-78 12370,-84 12370,-84 12370,-96 12370,-96 12370,-102 12364,-108 12358,-108"/>
<text text-anchor="middle" x="12163" y="-93" font-family="sans" font-size="10.00" fill="#000000">fastqc</text>
<text text-anchor="middle" x="12163" y="-82" font-family="sans" font-size="10.00" fill="#000000">sample_path: data/raw/fastq/B6_F_Fib_RNA_2/B6_F_Fib_RNA_2_S24_L002_R1_001</text>
</g>
<!-- 40&#45;&gt;34 -->
<g id="edge41" class="edge">
<title>40&#45;&gt;34</title>
<path fill="none" stroke="#c0c0c0" stroke-width="2" d="M11955.8002,-72.4326C11952.8479,-72.2806 11949.9131,-72.1362 11947,-72 11394.4023,-46.1703 7172.2212,-20.8145 6729.5124,-18.2182"/>
<polygon fill="#c0c0c0" stroke="#c0c0c0" stroke-width="2" points="6729.2148,-14.7165 6719.1944,-18.1578 6729.1737,-21.7163 6729.2148,-14.7165"/>
</g>
<!-- 41 -->
<g id="node42" class="node">
<title>41</title>
<path fill="none" stroke="#c6d856" stroke-width="2" stroke-dasharray="5,2" d="M12799.5,-108C12799.5,-108 12400.5,-108 12400.5,-108 12394.5,-108 12388.5,-102 12388.5,-96 12388.5,-96 12388.5,-84 12388.5,-84 12388.5,-78 12394.5,-72 12400.5,-72 12400.5,-72 12799.5,-72 12799.5,-72 12805.5,-72 12811.5,-78 12811.5,-84 12811.5,-84 12811.5,-96 12811.5,-96 12811.5,-102 12805.5,-108 12799.5,-108"/>
<text text-anchor="middle" x="12600" y="-93" font-family="sans" font-size="10.00" fill="#000000">fastqc</text>
<text text-anchor="middle" x="12600" y="-82" font-family="sans" font-size="10.00" fill="#000000">sample_path: data/raw/fastq/B6_M_CM_RNA_1/B6_M_CM_RNA_1_S28_L002_R2_001</text>
</g>
<!-- 41&#45;&gt;34 -->
<g id="edge42" class="edge">
<title>41&#45;&gt;34</title>
<path fill="none" stroke="#c0c0c0" stroke-width="2" d="M12388.2955,-72.445C12385.1764,-72.2883 12382.0764,-72.1397 12379,-72 11779.5778,-44.7784 7190.8194,-20.5643 6729.3798,-18.1906"/>
<polygon fill="#c0c0c0" stroke="#c0c0c0" stroke-width="2" points="6729.2692,-14.6901 6719.2513,-18.1386 6729.2332,-21.69 6729.2692,-14.6901"/>
</g>
<!-- 42 -->
<g id="node43" class="node">
<title>42</title>
<path fill="none" stroke="#c6d856" stroke-width="2" stroke-dasharray="5,2" d="M13234.5,-108C13234.5,-108 12841.5,-108 12841.5,-108 12835.5,-108 12829.5,-102 12829.5,-96 12829.5,-96 12829.5,-84 12829.5,-84 12829.5,-78 12835.5,-72 12841.5,-72 12841.5,-72 13234.5,-72 13234.5,-72 13240.5,-72 13246.5,-78 13246.5,-84 13246.5,-84 13246.5,-96 13246.5,-96 13246.5,-102 13240.5,-108 13234.5,-108"/>
<text text-anchor="middle" x="13038" y="-93" font-family="sans" font-size="10.00" fill="#000000">fastqc</text>
<text text-anchor="middle" x="13038" y="-82" font-family="sans" font-size="10.00" fill="#000000">sample_path: data/raw/fastq/B6_F_CM_RNA_2/B6_F_CM_RNA_2_S33_L002_R2_001</text>
</g>
<!-- 42&#45;&gt;34 -->
<g id="edge16" class="edge">
<title>42&#45;&gt;34</title>
<path fill="none" stroke="#c0c0c0" stroke-width="2" d="M12829.2672,-72.3978C12826.4947,-72.2582 12823.7378,-72.1254 12821,-72 12173.6932,-42.3423 7209.4717,-20.2349 6729.3084,-18.1596"/>
<polygon fill="#c0c0c0" stroke="#c0c0c0" stroke-width="2" points="6729.1244,-14.6588 6719.1094,-18.1156 6729.0942,-21.6588 6729.1244,-14.6588"/>
</g>
<!-- 43 -->
<g id="node44" class="node">
<title>43</title>
<path fill="none" stroke="#c6d856" stroke-width="2" stroke-dasharray="5,2" d="M13675.5,-108C13675.5,-108 13276.5,-108 13276.5,-108 13270.5,-108 13264.5,-102 13264.5,-96 13264.5,-96 13264.5,-84 13264.5,-84 13264.5,-78 13270.5,-72 13276.5,-72 13276.5,-72 13675.5,-72 13675.5,-72 13681.5,-72 13687.5,-78 13687.5,-84 13687.5,-84 13687.5,-96 13687.5,-96 13687.5,-102 13681.5,-108 13675.5,-108"/>
<text text-anchor="middle" x="13476" y="-93" font-family="sans" font-size="10.00" fill="#000000">fastqc</text>
<text text-anchor="middle" x="13476" y="-82" font-family="sans" font-size="10.00" fill="#000000">sample_path: data/raw/fastq/B6_M_CM_RNA_4/B6_M_CM_RNA_4_S11_L002_R2_001</text>
</g>
<!-- 43&#45;&gt;34 -->
<g id="edge38" class="edge">
<title>43&#45;&gt;34</title>
<path fill="none" stroke="#c0c0c0" stroke-width="2" d="M13264.381,-72.396C13261.5703,-72.257 13258.7755,-72.1248 13256,-72 12561.4978,-40.774 7227.3161,-20.0145 6729.2644,-18.1387"/>
<polygon fill="#c0c0c0" stroke="#c0c0c0" stroke-width="2" points="6729.0469,-14.638 6719.0338,-18.1003 6729.0205,-21.6379 6729.0469,-14.638"/>
</g>
<!-- 44 -->
<g id="node45" class="node">
<title>44</title>
<path fill="none" stroke="#c6d856" stroke-width="2" stroke-dasharray="5,2" d="M14116.5,-108C14116.5,-108 13717.5,-108 13717.5,-108 13711.5,-108 13705.5,-102 13705.5,-96 13705.5,-96 13705.5,-84 13705.5,-84 13705.5,-78 13711.5,-72 13717.5,-72 13717.5,-72 14116.5,-72 14116.5,-72 14122.5,-72 14128.5,-78 14128.5,-84 14128.5,-84 14128.5,-96 14128.5,-96 14128.5,-102 14122.5,-108 14116.5,-108"/>
<text text-anchor="middle" x="13917" y="-93" font-family="sans" font-size="10.00" fill="#000000">fastqc</text>
<text text-anchor="middle" x="13917" y="-82" font-family="sans" font-size="10.00" fill="#000000">sample_path: data/raw/fastq/B6_M_CM_RNA_5/B6_M_CM_RNA_5_S31_L002_R2_001</text>
</g>
<!-- 44&#45;&gt;34 -->
<g id="edge46" class="edge">
<title>44&#45;&gt;34</title>
<path fill="none" stroke="#c0c0c0" stroke-width="2" d="M13705.3811,-72.3939C13702.5704,-72.2556 13699.7756,-72.1241 13697,-72 12954.7076,-38.8179 7245.9918,-19.7783 6729.3839,-18.1185"/>
<polygon fill="#c0c0c0" stroke="#c0c0c0" stroke-width="2" points="6729.1396,-14.6178 6719.1284,-18.0857 6729.1171,-21.6178 6729.1396,-14.6178"/>
</g>
<!-- 45 -->
<g id="node46" class="node">
<title>45</title>
<path fill="none" stroke="#c6d856" stroke-width="2" stroke-dasharray="5,2" d="M14557.5,-108C14557.5,-108 14158.5,-108 14158.5,-108 14152.5,-108 14146.5,-102 14146.5,-96 14146.5,-96 14146.5,-84 14146.5,-84 14146.5,-78 14152.5,-72 14158.5,-72 14158.5,-72 14557.5,-72 14557.5,-72 14563.5,-72 14569.5,-78 14569.5,-84 14569.5,-84 14569.5,-96 14569.5,-96 14569.5,-102 14563.5,-108 14557.5,-108"/>
<text text-anchor="middle" x="14358" y="-93" font-family="sans" font-size="10.00" fill="#000000">fastqc</text>
<text text-anchor="middle" x="14358" y="-82" font-family="sans" font-size="10.00" fill="#000000">sample_path: data/raw/fastq/B6_M_CM_RNA_3/B6_M_CM_RNA_3_S10_L002_R1_001</text>
</g>
<!-- 45&#45;&gt;34 -->
<g id="edge47" class="edge">
<title>45&#45;&gt;34</title>
<path fill="none" stroke="#c0c0c0" stroke-width="2" d="M14146.3812,-72.3921C14143.5705,-72.2543 14140.7756,-72.1234 14138,-72 13347.7751,-36.8559 7262.4588,-19.5526 6729.2782,-18.1"/>
<polygon fill="#c0c0c0" stroke="#c0c0c0" stroke-width="2" points="6729.0707,-14.5996 6719.0612,-18.0723 6729.0516,-21.5995 6729.0707,-14.5996"/>
</g>
</g>
</svg>
