<?xml version="1.0" encoding="UTF-8" standalone="no"?>
<!DOCTYPE svg PUBLIC "-//W3C//DTD SVG 1.1//EN"
 "http://www.w3.org/Graphics/SVG/1.1/DTD/svg11.dtd">
<!-- Generated by graphviz version 2.40.1 (0)
 -->
<!-- Title: snakemake_dag Pages: 1 -->
<svg width="334pt" height="692pt"
 viewBox="0.00 0.00 334.00 692.00" xmlns="http://www.w3.org/2000/svg" xmlns:xlink="http://www.w3.org/1999/xlink">
<g id="graph0" class="graph" transform="scale(1 1) rotate(0) translate(4 688)">
<title>snakemake_dag</title>
<polygon fill="#ffffff" stroke="transparent" points="-4,4 -4,-688 330.0031,-688 330.0031,4 -4,4"/>
<!-- 0 -->
<g id="node1" class="node">
<title>0</title>
<path fill="none" stroke="#d85656" stroke-width="2" d="M259.5031,-324C259.5031,-324 218.5031,-324 218.5031,-324 212.5031,-324 206.5031,-318 206.5031,-312 206.5031,-312 206.5031,-300 206.5031,-300 206.5031,-294 212.5031,-288 218.5031,-288 218.5031,-288 259.5031,-288 259.5031,-288 265.5031,-288 271.5031,-294 271.5031,-300 271.5031,-300 271.5031,-312 271.5031,-312 271.5031,-318 265.5031,-324 259.5031,-324"/>
<text text-anchor="middle" x="239.0031" y="-303.5" font-family="sans" font-size="10.00" fill="#000000">merge_sn</text>
</g>
<!-- 18 -->
<g id="node19" class="node">
<title>18</title>
<path fill="none" stroke="#568ad8" stroke-width="2" d="M268.0031,-252C268.0031,-252 218.0031,-252 218.0031,-252 212.0031,-252 206.0031,-246 206.0031,-240 206.0031,-240 206.0031,-228 206.0031,-228 206.0031,-222 212.0031,-216 218.0031,-216 218.0031,-216 268.0031,-216 268.0031,-216 274.0031,-216 280.0031,-222 280.0031,-228 280.0031,-228 280.0031,-240 280.0031,-240 280.0031,-246 274.0031,-252 268.0031,-252"/>
<text text-anchor="middle" x="243.0031" y="-231.5" font-family="sans" font-size="10.00" fill="#000000">findMarkers</text>
</g>
<!-- 0&#45;&gt;18 -->
<g id="edge23" class="edge">
<title>0&#45;&gt;18</title>
<path fill="none" stroke="#c0c0c0" stroke-width="2" d="M240.0124,-287.8314C240.4402,-280.131 240.9489,-270.9743 241.4244,-262.4166"/>
<polygon fill="#c0c0c0" stroke="#c0c0c0" stroke-width="2" points="244.9199,-262.592 241.9801,-252.4133 237.9307,-262.2037 244.9199,-262.592"/>
</g>
<!-- 1 -->
<g id="node2" class="node">
<title>1</title>
<path fill="none" stroke="#d86e56" stroke-width="2" d="M300.0031,-540C300.0031,-540 238.0031,-540 238.0031,-540 232.0031,-540 226.0031,-534 226.0031,-528 226.0031,-528 226.0031,-516 226.0031,-516 226.0031,-510 232.0031,-504 238.0031,-504 238.0031,-504 300.0031,-504 300.0031,-504 306.0031,-504 312.0031,-510 312.0031,-516 312.0031,-516 312.0031,-528 312.0031,-528 312.0031,-534 306.0031,-540 300.0031,-540"/>
<text text-anchor="middle" x="269.0031" y="-519.5" font-family="sans" font-size="10.00" fill="#000000">salmon_quant</text>
</g>
<!-- 10 -->
<g id="node11" class="node">
<title>10</title>
<path fill="none" stroke="#56c1d8" stroke-width="2" d="M154.5031,-468C154.5031,-468 119.5031,-468 119.5031,-468 113.5031,-468 107.5031,-462 107.5031,-456 107.5031,-456 107.5031,-444 107.5031,-444 107.5031,-438 113.5031,-432 119.5031,-432 119.5031,-432 154.5031,-432 154.5031,-432 160.5031,-432 166.5031,-438 166.5031,-444 166.5031,-444 166.5031,-456 166.5031,-456 166.5031,-462 160.5031,-468 154.5031,-468"/>
<text text-anchor="middle" x="137.0031" y="-447.5" font-family="sans" font-size="10.00" fill="#000000">tximport</text>
</g>
<!-- 1&#45;&gt;10 -->
<g id="edge9" class="edge">
<title>1&#45;&gt;10</title>
<path fill="none" stroke="#c0c0c0" stroke-width="2" d="M235.6939,-503.8314C217.4475,-493.8788 194.7413,-481.4936 175.7101,-471.1129"/>
<polygon fill="#c0c0c0" stroke="#c0c0c0" stroke-width="2" points="177.1534,-467.9134 166.6984,-466.1975 173.8014,-474.0587 177.1534,-467.9134"/>
</g>
<!-- 13 -->
<g id="node14" class="node">
<title>13</title>
<path fill="none" stroke="#56d8d8" stroke-width="2" d="M314.0031,-468C314.0031,-468 284.0031,-468 284.0031,-468 278.0031,-468 272.0031,-462 272.0031,-456 272.0031,-456 272.0031,-444 272.0031,-444 272.0031,-438 278.0031,-432 284.0031,-432 284.0031,-432 314.0031,-432 314.0031,-432 320.0031,-432 326.0031,-438 326.0031,-444 326.0031,-444 326.0031,-456 326.0031,-456 326.0031,-462 320.0031,-468 314.0031,-468"/>
<text text-anchor="middle" x="299.0031" y="-447.5" font-family="sans" font-size="10.00" fill="#000000">multiqc</text>
</g>
<!-- 1&#45;&gt;13 -->
<g id="edge14" class="edge">
<title>1&#45;&gt;13</title>
<path fill="none" stroke="#c0c0c0" stroke-width="2" d="M276.5733,-503.8314C279.8523,-495.9617 283.7651,-486.5712 287.3975,-477.8533"/>
<polygon fill="#c0c0c0" stroke="#c0c0c0" stroke-width="2" points="290.7154,-478.9902 291.3309,-468.4133 284.2539,-476.2979 290.7154,-478.9902"/>
</g>
<!-- 2 -->
<g id="node3" class="node">
<title>2</title>
<path fill="none" stroke="#d88d56" stroke-width="2" d="M299.5031,-612C299.5031,-612 238.5031,-612 238.5031,-612 232.5031,-612 226.5031,-606 226.5031,-600 226.5031,-600 226.5031,-588 226.5031,-588 226.5031,-582 232.5031,-576 238.5031,-576 238.5031,-576 299.5031,-576 299.5031,-576 305.5031,-576 311.5031,-582 311.5031,-588 311.5031,-588 311.5031,-600 311.5031,-600 311.5031,-606 305.5031,-612 299.5031,-612"/>
<text text-anchor="middle" x="269.0031" y="-591.5" font-family="sans" font-size="10.00" fill="#000000">salmon_index</text>
</g>
<!-- 2&#45;&gt;1 -->
<g id="edge2" class="edge">
<title>2&#45;&gt;1</title>
<path fill="none" stroke="#c0c0c0" stroke-width="2" d="M269.0031,-575.8314C269.0031,-568.131 269.0031,-558.9743 269.0031,-550.4166"/>
<polygon fill="#c0c0c0" stroke="#c0c0c0" stroke-width="2" points="272.5032,-550.4132 269.0031,-540.4133 265.5032,-550.4133 272.5032,-550.4132"/>
</g>
<!-- 3 -->
<g id="node4" class="node">
<title>3</title>
<path fill="none" stroke="#d8a456" stroke-width="2" d="M228.5031,-180C228.5031,-180 179.5031,-180 179.5031,-180 173.5031,-180 167.5031,-174 167.5031,-168 167.5031,-168 167.5031,-156 167.5031,-156 167.5031,-150 173.5031,-144 179.5031,-144 179.5031,-144 228.5031,-144 228.5031,-144 234.5031,-144 240.5031,-150 240.5031,-156 240.5031,-156 240.5031,-168 240.5031,-168 240.5031,-174 234.5031,-180 228.5031,-180"/>
<text text-anchor="middle" x="204.0031" y="-159.5" font-family="sans" font-size="10.00" fill="#000000">plot_comps</text>
</g>
<!-- 17 -->
<g id="node18" class="node">
<title>17</title>
<path fill="none" stroke="#56a2d8" stroke-width="2" d="M191.0031,-36C191.0031,-36 161.0031,-36 161.0031,-36 155.0031,-36 149.0031,-30 149.0031,-24 149.0031,-24 149.0031,-12 149.0031,-12 149.0031,-6 155.0031,0 161.0031,0 161.0031,0 191.0031,0 191.0031,0 197.0031,0 203.0031,-6 203.0031,-12 203.0031,-12 203.0031,-24 203.0031,-24 203.0031,-30 197.0031,-36 191.0031,-36"/>
<text text-anchor="middle" x="176.0031" y="-15.5" font-family="sans" font-size="10.00" fill="#000000">all</text>
</g>
<!-- 3&#45;&gt;17 -->
<g id="edge17" class="edge">
<title>3&#45;&gt;17</title>
<path fill="none" stroke="#c0c0c0" stroke-width="2" d="M200.4568,-143.7623C195.66,-119.0928 187.0591,-74.8598 181.4423,-45.9731"/>
<polygon fill="#c0c0c0" stroke="#c0c0c0" stroke-width="2" points="184.8649,-45.2377 179.5205,-36.0896 177.9936,-46.5738 184.8649,-45.2377"/>
</g>
<!-- 4 -->
<g id="node5" class="node">
<title>4</title>
<path fill="none" stroke="#d8bc56" stroke-width="2" d="M92.0031,-108C92.0031,-108 42.0031,-108 42.0031,-108 36.0031,-108 30.0031,-102 30.0031,-96 30.0031,-96 30.0031,-84 30.0031,-84 30.0031,-78 36.0031,-72 42.0031,-72 42.0031,-72 92.0031,-72 92.0031,-72 98.0031,-72 104.0031,-78 104.0031,-84 104.0031,-84 104.0031,-96 104.0031,-96 104.0031,-102 98.0031,-108 92.0031,-108"/>
<text text-anchor="middle" x="67.0031" y="-87.5" font-family="sans" font-size="10.00" fill="#000000">plotMarkers</text>
</g>
<!-- 4&#45;&gt;17 -->
<g id="edge18" class="edge">
<title>4&#45;&gt;17</title>
<path fill="none" stroke="#c0c0c0" stroke-width="2" d="M94.5084,-71.8314C108.4265,-62.6377 125.487,-51.3684 140.3952,-41.5208"/>
<polygon fill="#c0c0c0" stroke="#c0c0c0" stroke-width="2" points="142.4692,-44.3455 148.8841,-35.9134 138.6111,-38.5047 142.4692,-44.3455"/>
</g>
<!-- 5 -->
<g id="node6" class="node">
<title>5</title>
<path fill="none" stroke="#d6d856" stroke-width="2" d="M167.0031,-540C167.0031,-540 137.0031,-540 137.0031,-540 131.0031,-540 125.0031,-534 125.0031,-528 125.0031,-528 125.0031,-516 125.0031,-516 125.0031,-510 131.0031,-504 137.0031,-504 137.0031,-504 167.0031,-504 167.0031,-504 173.0031,-504 179.0031,-510 179.0031,-516 179.0031,-516 179.0031,-528 179.0031,-528 179.0031,-534 173.0031,-540 167.0031,-540"/>
<text text-anchor="middle" x="152.0031" y="-519.5" font-family="sans" font-size="10.00" fill="#000000">fastqc</text>
</g>
<!-- 5&#45;&gt;10 -->
<g id="edge8" class="edge">
<title>5&#45;&gt;10</title>
<path fill="none" stroke="#c0c0c0" stroke-width="2" d="M148.2179,-503.8314C146.6137,-496.131 144.706,-486.9743 142.9232,-478.4166"/>
<polygon fill="#c0c0c0" stroke="#c0c0c0" stroke-width="2" points="146.3052,-477.4892 140.8392,-468.4133 139.4523,-478.9169 146.3052,-477.4892"/>
</g>
<!-- 5&#45;&gt;13 -->
<g id="edge13" class="edge">
<title>5&#45;&gt;13</title>
<path fill="none" stroke="#c0c0c0" stroke-width="2" d="M179.4133,-508.7676C200.0583,-498.7786 229.269,-484.5977 262.8018,-468.0783"/>
<polygon fill="#c0c0c0" stroke="#c0c0c0" stroke-width="2" points="264.4716,-471.1573 271.892,-463.595 261.3753,-464.8794 264.4716,-471.1573"/>
</g>
<!-- 6 -->
<g id="node7" class="node">
<title>6</title>
<path fill="none" stroke="#a7d856" stroke-width="2" d="M292.0031,-684C292.0031,-684 246.0031,-684 246.0031,-684 240.0031,-684 234.0031,-678 234.0031,-672 234.0031,-672 234.0031,-660 234.0031,-660 234.0031,-654 240.0031,-648 246.0031,-648 246.0031,-648 292.0031,-648 292.0031,-648 298.0031,-648 304.0031,-654 304.0031,-660 304.0031,-660 304.0031,-672 304.0031,-672 304.0031,-678 298.0031,-684 292.0031,-684"/>
<text text-anchor="middle" x="269.0031" y="-663.5" font-family="sans" font-size="10.00" fill="#000000">load_index</text>
</g>
<!-- 6&#45;&gt;2 -->
<g id="edge3" class="edge">
<title>6&#45;&gt;2</title>
<path fill="none" stroke="#c0c0c0" stroke-width="2" d="M269.0031,-647.8314C269.0031,-640.131 269.0031,-630.9743 269.0031,-622.4166"/>
<polygon fill="#c0c0c0" stroke="#c0c0c0" stroke-width="2" points="272.5032,-622.4132 269.0031,-612.4133 265.5032,-622.4133 272.5032,-622.4132"/>
</g>
<!-- 7 -->
<g id="node8" class="node">
<title>7</title>
<path fill="none" stroke="#88d856" stroke-width="2" d="M164.0031,-108C164.0031,-108 134.0031,-108 134.0031,-108 128.0031,-108 122.0031,-102 122.0031,-96 122.0031,-96 122.0031,-84 122.0031,-84 122.0031,-78 128.0031,-72 134.0031,-72 134.0031,-72 164.0031,-72 164.0031,-72 170.0031,-72 176.0031,-78 176.0031,-84 176.0031,-84 176.0031,-96 176.0031,-96 176.0031,-102 170.0031,-108 164.0031,-108"/>
<text text-anchor="middle" x="149.0031" y="-87.5" font-family="sans" font-size="10.00" fill="#000000">plot_de</text>
</g>
<!-- 7&#45;&gt;17 -->
<g id="edge19" class="edge">
<title>7&#45;&gt;17</title>
<path fill="none" stroke="#c0c0c0" stroke-width="2" d="M155.8163,-71.8314C158.7674,-63.9617 162.2889,-54.5712 165.5581,-45.8533"/>
<polygon fill="#c0c0c0" stroke="#c0c0c0" stroke-width="2" points="168.8639,-47.0055 169.0981,-36.4133 162.3096,-44.5476 168.8639,-47.0055"/>
</g>
<!-- 8 -->
<g id="node9" class="node">
<title>8</title>
<path fill="none" stroke="#56d873" stroke-width="2" d="M175.5031,-252C175.5031,-252 122.5031,-252 122.5031,-252 116.5031,-252 110.5031,-246 110.5031,-240 110.5031,-240 110.5031,-228 110.5031,-228 110.5031,-222 116.5031,-216 122.5031,-216 122.5031,-216 175.5031,-216 175.5031,-216 181.5031,-216 187.5031,-222 187.5031,-228 187.5031,-228 187.5031,-240 187.5031,-240 187.5031,-246 181.5031,-252 175.5031,-252"/>
<text text-anchor="middle" x="149.0031" y="-231.5" font-family="sans" font-size="10.00" fill="#000000">deconvolute</text>
</g>
<!-- 8&#45;&gt;3 -->
<g id="edge4" class="edge">
<title>8&#45;&gt;3</title>
<path fill="none" stroke="#c0c0c0" stroke-width="2" d="M162.8819,-215.8314C169.2166,-207.5386 176.8414,-197.557 183.7956,-188.4533"/>
<polygon fill="#c0c0c0" stroke="#c0c0c0" stroke-width="2" points="186.6483,-190.4847 189.9374,-180.4133 181.0856,-186.2353 186.6483,-190.4847"/>
</g>
<!-- 11 -->
<g id="node12" class="node">
<title>11</title>
<path fill="none" stroke="#56d8c1" stroke-width="2" d="M137.5031,-180C137.5031,-180 42.5031,-180 42.5031,-180 36.5031,-180 30.5031,-174 30.5031,-168 30.5031,-168 30.5031,-156 30.5031,-156 30.5031,-150 36.5031,-144 42.5031,-144 42.5031,-144 137.5031,-144 137.5031,-144 143.5031,-144 149.5031,-150 149.5031,-156 149.5031,-156 149.5031,-168 149.5031,-168 149.5031,-174 143.5031,-180 137.5031,-180"/>
<text text-anchor="middle" x="90.0031" y="-159.5" font-family="sans" font-size="10.00" fill="#000000">diffential_expression</text>
</g>
<!-- 8&#45;&gt;11 -->
<g id="edge11" class="edge">
<title>8&#45;&gt;11</title>
<path fill="none" stroke="#c0c0c0" stroke-width="2" d="M134.1149,-215.8314C127.2501,-207.454 118.973,-197.3531 111.452,-188.1749"/>
<polygon fill="#c0c0c0" stroke="#c0c0c0" stroke-width="2" points="114.1372,-185.9297 105.0917,-180.4133 108.7228,-190.3665 114.1372,-185.9297"/>
</g>
<!-- 9 -->
<g id="node10" class="node">
<title>9</title>
<path fill="none" stroke="#bed856" stroke-width="2" d="M153.0031,-396C153.0031,-396 107.0031,-396 107.0031,-396 101.0031,-396 95.0031,-390 95.0031,-384 95.0031,-384 95.0031,-372 95.0031,-372 95.0031,-366 101.0031,-360 107.0031,-360 107.0031,-360 153.0031,-360 153.0031,-360 159.0031,-360 165.0031,-366 165.0031,-372 165.0031,-372 165.0031,-384 165.0031,-384 165.0031,-390 159.0031,-396 153.0031,-396"/>
<text text-anchor="middle" x="130.0031" y="-375.5" font-family="sans" font-size="10.00" fill="#000000">ensb2gene</text>
</g>
<!-- 14 -->
<g id="node15" class="node">
<title>14</title>
<path fill="none" stroke="#59d856" stroke-width="2" d="M166.5031,-324C166.5031,-324 121.5031,-324 121.5031,-324 115.5031,-324 109.5031,-318 109.5031,-312 109.5031,-312 109.5031,-300 109.5031,-300 109.5031,-294 115.5031,-288 121.5031,-288 121.5031,-288 166.5031,-288 166.5031,-288 172.5031,-288 178.5031,-294 178.5031,-300 178.5031,-300 178.5031,-312 178.5031,-312 178.5031,-318 172.5031,-324 166.5031,-324"/>
<text text-anchor="middle" x="144.0031" y="-303.5" font-family="sans" font-size="10.00" fill="#000000">clean_bulk</text>
</g>
<!-- 9&#45;&gt;14 -->
<g id="edge15" class="edge">
<title>9&#45;&gt;14</title>
<path fill="none" stroke="#c0c0c0" stroke-width="2" d="M133.5359,-359.8314C135.0332,-352.131 136.8136,-342.9743 138.4776,-334.4166"/>
<polygon fill="#c0c0c0" stroke="#c0c0c0" stroke-width="2" points="141.9496,-334.8975 140.4227,-324.4133 135.0783,-333.5614 141.9496,-334.8975"/>
</g>
<!-- 10&#45;&gt;9 -->
<g id="edge7" class="edge">
<title>10&#45;&gt;9</title>
<path fill="none" stroke="#c0c0c0" stroke-width="2" d="M135.2367,-431.8314C134.488,-424.131 133.5978,-414.9743 132.7658,-406.4166"/>
<polygon fill="#c0c0c0" stroke="#c0c0c0" stroke-width="2" points="136.2446,-406.0276 131.7932,-396.4133 129.2774,-406.7051 136.2446,-406.0276"/>
</g>
<!-- 11&#45;&gt;7 -->
<g id="edge5" class="edge">
<title>11&#45;&gt;7</title>
<path fill="none" stroke="#c0c0c0" stroke-width="2" d="M104.8913,-143.8314C111.756,-135.454 120.0331,-125.3531 127.5542,-116.1749"/>
<polygon fill="#c0c0c0" stroke="#c0c0c0" stroke-width="2" points="130.2833,-118.3665 133.9144,-108.4133 124.869,-113.9297 130.2833,-118.3665"/>
</g>
<!-- 12 -->
<g id="node13" class="node">
<title>12</title>
<path fill="none" stroke="#56d8a2" stroke-width="2" d="M72.0031,-540C72.0031,-540 40.0031,-540 40.0031,-540 34.0031,-540 28.0031,-534 28.0031,-528 28.0031,-528 28.0031,-516 28.0031,-516 28.0031,-510 34.0031,-504 40.0031,-504 40.0031,-504 72.0031,-504 72.0031,-504 78.0031,-504 84.0031,-510 84.0031,-516 84.0031,-516 84.0031,-528 84.0031,-528 84.0031,-534 78.0031,-540 72.0031,-540"/>
<text text-anchor="middle" x="56.0031" y="-519.5" font-family="sans" font-size="10.00" fill="#000000">load_gtf</text>
</g>
<!-- 12&#45;&gt;10 -->
<g id="edge10" class="edge">
<title>12&#45;&gt;10</title>
<path fill="none" stroke="#c0c0c0" stroke-width="2" d="M76.4428,-503.8314C86.3235,-495.0485 98.3355,-484.3712 109.0481,-474.8489"/>
<polygon fill="#c0c0c0" stroke="#c0c0c0" stroke-width="2" points="111.421,-477.4224 116.5699,-468.1628 106.7705,-472.1906 111.421,-477.4224"/>
</g>
<!-- 12&#45;&gt;17 -->
<g id="edge20" class="edge">
<title>12&#45;&gt;17</title>
<path fill="none" stroke="#c0c0c0" stroke-width="2" d="M44.2859,-503.7256C28.404,-477.1531 2.0031,-425.793 2.0031,-378 2.0031,-378 2.0031,-378 2.0031,-162 2.0031,-121.1184 -6.0092,-102.6863 21.0031,-72 36.7984,-54.0562 98.4686,-36.4377 139.0965,-26.4256"/>
<polygon fill="#c0c0c0" stroke="#c0c0c0" stroke-width="2" points="140.0337,-29.8 148.9315,-24.0485 138.3891,-22.9959 140.0337,-29.8"/>
</g>
<!-- 13&#45;&gt;17 -->
<g id="edge21" class="edge">
<title>13&#45;&gt;17</title>
<path fill="none" stroke="#c0c0c0" stroke-width="2" d="M302.3183,-431.8863C307.0048,-404.6615 315.0031,-351.5285 315.0031,-306 315.0031,-306 315.0031,-306 315.0031,-162 315.0031,-102.7225 253.2752,-58.5015 212.0901,-35.594"/>
<polygon fill="#c0c0c0" stroke="#c0c0c0" stroke-width="2" points="213.5968,-32.4301 203.1336,-30.7649 210.2747,-38.5915 213.5968,-32.4301"/>
</g>
<!-- 14&#45;&gt;8 -->
<g id="edge6" class="edge">
<title>14&#45;&gt;8</title>
<path fill="none" stroke="#c0c0c0" stroke-width="2" d="M145.2648,-287.8314C145.7995,-280.131 146.4354,-270.9743 147.0297,-262.4166"/>
<polygon fill="#c0c0c0" stroke="#c0c0c0" stroke-width="2" points="150.5231,-262.6317 147.7244,-252.4133 143.5399,-262.1467 150.5231,-262.6317"/>
</g>
<!-- 14&#45;&gt;11 -->
<g id="edge12" class="edge">
<title>14&#45;&gt;11</title>
<path fill="none" stroke="#c0c0c0" stroke-width="2" d="M125.1986,-287.701C116.36,-277.9564 106.5642,-265.2623 101.0031,-252 92.8106,-232.4626 90.1919,-208.5929 89.5507,-190.346"/>
<polygon fill="#c0c0c0" stroke="#c0c0c0" stroke-width="2" points="93.0499,-190.2644 89.3744,-180.3276 86.0509,-190.3876 93.0499,-190.2644"/>
</g>
<!-- 14&#45;&gt;18 -->
<g id="edge24" class="edge">
<title>14&#45;&gt;18</title>
<path fill="none" stroke="#c0c0c0" stroke-width="2" d="M168.9849,-287.8314C181.2959,-278.8779 196.3138,-267.9558 209.5968,-258.2955"/>
<polygon fill="#c0c0c0" stroke="#c0c0c0" stroke-width="2" points="212.0004,-260.8752 218.0292,-252.1628 207.8832,-255.214 212.0004,-260.8752"/>
</g>
<!-- 15 -->
<g id="node16" class="node">
<title>15</title>
<path fill="none" stroke="#70d856" stroke-width="2" d="M242.0031,-468C242.0031,-468 212.0031,-468 212.0031,-468 206.0031,-468 200.0031,-462 200.0031,-456 200.0031,-456 200.0031,-444 200.0031,-444 200.0031,-438 206.0031,-432 212.0031,-432 212.0031,-432 242.0031,-432 242.0031,-432 248.0031,-432 254.0031,-438 254.0031,-444 254.0031,-444 254.0031,-456 254.0031,-456 254.0031,-462 248.0031,-468 242.0031,-468"/>
<text text-anchor="middle" x="227.0031" y="-447.5" font-family="sans" font-size="10.00" fill="#000000">load_sn</text>
</g>
<!-- 16 -->
<g id="node17" class="node">
<title>16</title>
<path fill="none" stroke="#56d88a" stroke-width="2" d="M275.0031,-396C275.0031,-396 195.0031,-396 195.0031,-396 189.0031,-396 183.0031,-390 183.0031,-384 183.0031,-384 183.0031,-372 183.0031,-372 183.0031,-366 189.0031,-360 195.0031,-360 195.0031,-360 275.0031,-360 275.0031,-360 281.0031,-360 287.0031,-366 287.0031,-372 287.0031,-372 287.0031,-384 287.0031,-384 287.0031,-390 281.0031,-396 275.0031,-396"/>
<text text-anchor="middle" x="235.0031" y="-375.5" font-family="sans" font-size="10.00" fill="#000000">ambient_doublets</text>
</g>
<!-- 15&#45;&gt;16 -->
<g id="edge16" class="edge">
<title>15&#45;&gt;16</title>
<path fill="none" stroke="#c0c0c0" stroke-width="2" d="M229.0218,-431.8314C229.8774,-424.131 230.8948,-414.9743 231.8457,-406.4166"/>
<polygon fill="#c0c0c0" stroke="#c0c0c0" stroke-width="2" points="235.3313,-406.7386 232.9571,-396.4133 228.3741,-405.9656 235.3313,-406.7386"/>
</g>
<!-- 16&#45;&gt;0 -->
<g id="edge1" class="edge">
<title>16&#45;&gt;0</title>
<path fill="none" stroke="#c0c0c0" stroke-width="2" d="M236.0124,-359.8314C236.4402,-352.131 236.9489,-342.9743 237.4244,-334.4166"/>
<polygon fill="#c0c0c0" stroke="#c0c0c0" stroke-width="2" points="240.9199,-334.592 237.9801,-324.4133 233.9307,-334.2037 240.9199,-334.592"/>
</g>
<!-- 18&#45;&gt;17 -->
<g id="edge22" class="edge">
<title>18&#45;&gt;17</title>
<path fill="none" stroke="#c0c0c0" stroke-width="2" d="M247.9938,-215.7315C252.2037,-197.3038 256.583,-168.1968 250.0031,-144 239.7608,-106.3358 215.1,-68.4316 197.0517,-44.1809"/>
<polygon fill="#c0c0c0" stroke="#c0c0c0" stroke-width="2" points="199.8177,-42.0359 190.9781,-36.1953 194.2461,-46.2736 199.8177,-42.0359"/>
</g>
</g>
</svg>
