<?xml version="1.0" encoding="UTF-8" standalone="no"?>
<!DOCTYPE svg PUBLIC "-//W3C//DTD SVG 1.1//EN"
 "http://www.w3.org/Graphics/SVG/1.1/DTD/svg11.dtd">
<!-- Generated by graphviz version 2.40.1 (0)
 -->
<!-- Title: snakemake_dag Pages: 1 -->
<svg width="601pt" height="908pt"
 viewBox="0.00 0.00 601.00 908.00" xmlns="http://www.w3.org/2000/svg" xmlns:xlink="http://www.w3.org/1999/xlink">
<g id="graph0" class="graph" transform="scale(1 1) rotate(0) translate(4 904)">
<title>snakemake_dag</title>
<polygon fill="#ffffff" stroke="transparent" points="-4,4 -4,-904 597,-904 597,4 -4,4"/>
<!-- 0 -->
<g id="node1" class="node">
<title>0</title>
<path fill="none" stroke="#d89556" stroke-width="2" d="M307,-36C307,-36 277,-36 277,-36 271,-36 265,-30 265,-24 265,-24 265,-12 265,-12 265,-6 271,0 277,0 277,0 307,0 307,0 313,0 319,-6 319,-12 319,-12 319,-24 319,-24 319,-30 313,-36 307,-36"/>
<text text-anchor="middle" x="292" y="-15.5" font-family="sans" font-size="10.00" fill="#000000">all</text>
</g>
<!-- 1 -->
<g id="node2" class="node">
<title>1</title>
<path fill="none" stroke="#8fd856" stroke-width="2" d="M521,-540C521,-540 491,-540 491,-540 485,-540 479,-534 479,-528 479,-528 479,-516 479,-516 479,-510 485,-504 491,-504 491,-504 521,-504 521,-504 527,-504 533,-510 533,-516 533,-516 533,-528 533,-528 533,-534 527,-540 521,-540"/>
<text text-anchor="middle" x="506" y="-519.5" font-family="sans" font-size="10.00" fill="#000000">multiqc</text>
</g>
<!-- 1&#45;&gt;0 -->
<g id="edge5" class="edge">
<title>1&#45;&gt;0</title>
<path fill="none" stroke="#c0c0c0" stroke-width="2" d="M513.6347,-503.7257C524.2021,-476.7325 542,-424.3849 542,-378 542,-378 542,-378 542,-162 542,-65.0481 399.0754,-32.3837 329.3589,-22.2176"/>
<polygon fill="#c0c0c0" stroke="#c0c0c0" stroke-width="2" points="329.614,-18.7198 319.2303,-20.8242 328.6599,-25.6545 329.614,-18.7198"/>
</g>
<!-- 2 -->
<g id="node3" class="node">
<title>2</title>
<path fill="none" stroke="#56d8b9" stroke-width="2" d="M522,-612C522,-612 460,-612 460,-612 454,-612 448,-606 448,-600 448,-600 448,-588 448,-588 448,-582 454,-576 460,-576 460,-576 522,-576 522,-576 528,-576 534,-582 534,-588 534,-588 534,-600 534,-600 534,-606 528,-612 522,-612"/>
<text text-anchor="middle" x="491" y="-591.5" font-family="sans" font-size="10.00" fill="#000000">salmon_quant</text>
</g>
<!-- 2&#45;&gt;1 -->
<g id="edge10" class="edge">
<title>2&#45;&gt;1</title>
<path fill="none" stroke="#c0c0c0" stroke-width="2" d="M494.7851,-575.8314C496.3894,-568.131 498.297,-558.9743 500.0799,-550.4166"/>
<polygon fill="#c0c0c0" stroke="#c0c0c0" stroke-width="2" points="503.5507,-550.9169 502.1639,-540.4133 496.6979,-549.4892 503.5507,-550.9169"/>
</g>
<!-- 18 -->
<g id="node19" class="node">
<title>18</title>
<path fill="none" stroke="#68d856" stroke-width="2" d="M376.5,-540C376.5,-540 341.5,-540 341.5,-540 335.5,-540 329.5,-534 329.5,-528 329.5,-528 329.5,-516 329.5,-516 329.5,-510 335.5,-504 341.5,-504 341.5,-504 376.5,-504 376.5,-504 382.5,-504 388.5,-510 388.5,-516 388.5,-516 388.5,-528 388.5,-528 388.5,-534 382.5,-540 376.5,-540"/>
<text text-anchor="middle" x="359" y="-519.5" font-family="sans" font-size="10.00" fill="#000000">tximport</text>
</g>
<!-- 2&#45;&gt;18 -->
<g id="edge28" class="edge">
<title>2&#45;&gt;18</title>
<path fill="none" stroke="#c0c0c0" stroke-width="2" d="M457.6908,-575.8314C439.4444,-565.8788 416.7382,-553.4936 397.7071,-543.1129"/>
<polygon fill="#c0c0c0" stroke="#c0c0c0" stroke-width="2" points="399.1503,-539.9134 388.6953,-538.1975 395.7983,-546.0587 399.1503,-539.9134"/>
</g>
<!-- 3 -->
<g id="node4" class="node">
<title>3</title>
<path fill="none" stroke="#ced856" stroke-width="2" d="M521.5,-684C521.5,-684 460.5,-684 460.5,-684 454.5,-684 448.5,-678 448.5,-672 448.5,-672 448.5,-660 448.5,-660 448.5,-654 454.5,-648 460.5,-648 460.5,-648 521.5,-648 521.5,-648 527.5,-648 533.5,-654 533.5,-660 533.5,-660 533.5,-672 533.5,-672 533.5,-678 527.5,-684 521.5,-684"/>
<text text-anchor="middle" x="491" y="-663.5" font-family="sans" font-size="10.00" fill="#000000">salmon_index</text>
</g>
<!-- 3&#45;&gt;2 -->
<g id="edge12" class="edge">
<title>3&#45;&gt;2</title>
<path fill="none" stroke="#c0c0c0" stroke-width="2" d="M491,-647.8314C491,-640.131 491,-630.9743 491,-622.4166"/>
<polygon fill="#c0c0c0" stroke="#c0c0c0" stroke-width="2" points="494.5001,-622.4132 491,-612.4133 487.5001,-622.4133 494.5001,-622.4132"/>
</g>
<!-- 4 -->
<g id="node5" class="node">
<title>4</title>
<path fill="none" stroke="#d85656" stroke-width="2" d="M472.5,-828C472.5,-828 399.5,-828 399.5,-828 393.5,-828 387.5,-822 387.5,-816 387.5,-816 387.5,-804 387.5,-804 387.5,-798 393.5,-792 399.5,-792 399.5,-792 472.5,-792 472.5,-792 478.5,-792 484.5,-798 484.5,-804 484.5,-804 484.5,-816 484.5,-816 484.5,-822 478.5,-828 472.5,-828"/>
<text text-anchor="middle" x="436" y="-807.5" font-family="sans" font-size="10.00" fill="#000000">make_gentrome</text>
</g>
<!-- 4&#45;&gt;3 -->
<g id="edge13" class="edge">
<title>4&#45;&gt;3</title>
<path fill="none" stroke="#c0c0c0" stroke-width="2" d="M442.9658,-791.7623C452.4295,-766.9846 469.4311,-722.4714 480.4607,-693.5939"/>
<polygon fill="#c0c0c0" stroke="#c0c0c0" stroke-width="2" points="483.7923,-694.6803 484.0908,-684.0896 477.253,-692.1826 483.7923,-694.6803"/>
</g>
<!-- 5 -->
<g id="node6" class="node">
<title>5</title>
<path fill="none" stroke="#56a9d8" stroke-width="2" d="M573.5,-900C573.5,-900 514.5,-900 514.5,-900 508.5,-900 502.5,-894 502.5,-888 502.5,-888 502.5,-876 502.5,-876 502.5,-870 508.5,-864 514.5,-864 514.5,-864 573.5,-864 573.5,-864 579.5,-864 585.5,-870 585.5,-876 585.5,-876 585.5,-888 585.5,-888 585.5,-894 579.5,-900 573.5,-900"/>
<text text-anchor="middle" x="544" y="-879.5" font-family="sans" font-size="10.00" fill="#000000">load_toplevel</text>
</g>
<!-- 5&#45;&gt;4 -->
<g id="edge15" class="edge">
<title>5&#45;&gt;4</title>
<path fill="none" stroke="#c0c0c0" stroke-width="2" d="M516.747,-863.8314C503.0611,-854.7074 486.3085,-843.539 471.6173,-833.7449"/>
<polygon fill="#c0c0c0" stroke="#c0c0c0" stroke-width="2" points="473.5062,-830.7977 463.2442,-828.1628 469.6233,-836.6221 473.5062,-830.7977"/>
</g>
<!-- 8 -->
<g id="node9" class="node">
<title>8</title>
<path fill="none" stroke="#d8cb56" stroke-width="2" d="M581,-828C581,-828 515,-828 515,-828 509,-828 503,-822 503,-816 503,-816 503,-804 503,-804 503,-798 509,-792 515,-792 515,-792 581,-792 581,-792 587,-792 593,-798 593,-804 593,-804 593,-816 593,-816 593,-822 587,-828 581,-828"/>
<text text-anchor="middle" x="548" y="-807.5" font-family="sans" font-size="10.00" fill="#000000">make_decoy_1</text>
</g>
<!-- 5&#45;&gt;8 -->
<g id="edge18" class="edge">
<title>5&#45;&gt;8</title>
<path fill="none" stroke="#c0c0c0" stroke-width="2" d="M545.0094,-863.8314C545.4372,-856.131 545.9459,-846.9743 546.4213,-838.4166"/>
<polygon fill="#c0c0c0" stroke="#c0c0c0" stroke-width="2" points="549.9169,-838.592 546.977,-828.4133 542.9276,-838.2037 549.9169,-838.592"/>
</g>
<!-- 6 -->
<g id="node7" class="node">
<title>6</title>
<path fill="none" stroke="#d8bc56" stroke-width="2" d="M468.5,-900C468.5,-900 403.5,-900 403.5,-900 397.5,-900 391.5,-894 391.5,-888 391.5,-888 391.5,-876 391.5,-876 391.5,-870 397.5,-864 403.5,-864 403.5,-864 468.5,-864 468.5,-864 474.5,-864 480.5,-870 480.5,-876 480.5,-876 480.5,-888 480.5,-888 480.5,-894 474.5,-900 468.5,-900"/>
<text text-anchor="middle" x="436" y="-879.5" font-family="sans" font-size="10.00" fill="#000000">load_transcript</text>
</g>
<!-- 6&#45;&gt;4 -->
<g id="edge16" class="edge">
<title>6&#45;&gt;4</title>
<path fill="none" stroke="#c0c0c0" stroke-width="2" d="M436,-863.8314C436,-856.131 436,-846.9743 436,-838.4166"/>
<polygon fill="#c0c0c0" stroke="#c0c0c0" stroke-width="2" points="439.5001,-838.4132 436,-828.4133 432.5001,-838.4133 439.5001,-838.4132"/>
</g>
<!-- 7 -->
<g id="node8" class="node">
<title>7</title>
<path fill="none" stroke="#5692d8" stroke-width="2" d="M571,-756C571,-756 505,-756 505,-756 499,-756 493,-750 493,-744 493,-744 493,-732 493,-732 493,-726 499,-720 505,-720 505,-720 571,-720 571,-720 577,-720 583,-726 583,-732 583,-732 583,-744 583,-744 583,-750 577,-756 571,-756"/>
<text text-anchor="middle" x="538" y="-735.5" font-family="sans" font-size="10.00" fill="#000000">make_decoy_2</text>
</g>
<!-- 7&#45;&gt;3 -->
<g id="edge14" class="edge">
<title>7&#45;&gt;3</title>
<path fill="none" stroke="#c0c0c0" stroke-width="2" d="M526.1399,-719.8314C520.8371,-711.7079 514.4763,-701.9637 508.6327,-693.0118"/>
<polygon fill="#c0c0c0" stroke="#c0c0c0" stroke-width="2" points="511.4169,-690.8739 503.0198,-684.4133 505.5552,-694.7003 511.4169,-690.8739"/>
</g>
<!-- 8&#45;&gt;7 -->
<g id="edge17" class="edge">
<title>8&#45;&gt;7</title>
<path fill="none" stroke="#c0c0c0" stroke-width="2" d="M545.4766,-791.8314C544.4071,-784.131 543.1353,-774.9743 541.9468,-766.4166"/>
<polygon fill="#c0c0c0" stroke="#c0c0c0" stroke-width="2" points="545.3999,-765.8367 540.5574,-756.4133 538.4664,-766.7997 545.3999,-765.8367"/>
</g>
<!-- 9 -->
<g id="node10" class="node">
<title>9</title>
<path fill="none" stroke="#56d87b" stroke-width="2" d="M403,-612C403,-612 373,-612 373,-612 367,-612 361,-606 361,-600 361,-600 361,-588 361,-588 361,-582 367,-576 373,-576 373,-576 403,-576 403,-576 409,-576 415,-582 415,-588 415,-588 415,-600 415,-600 415,-606 409,-612 403,-612"/>
<text text-anchor="middle" x="388" y="-591.5" font-family="sans" font-size="10.00" fill="#000000">fastqc</text>
</g>
<!-- 9&#45;&gt;1 -->
<g id="edge11" class="edge">
<title>9&#45;&gt;1</title>
<path fill="none" stroke="#c0c0c0" stroke-width="2" d="M415.0716,-577.4817C431.2954,-567.5825 452.1285,-554.8707 469.7593,-544.113"/>
<polygon fill="#c0c0c0" stroke="#c0c0c0" stroke-width="2" points="471.9324,-546.8872 478.6458,-538.6907 468.2863,-540.9117 471.9324,-546.8872"/>
</g>
<!-- 9&#45;&gt;18 -->
<g id="edge29" class="edge">
<title>9&#45;&gt;18</title>
<path fill="none" stroke="#c0c0c0" stroke-width="2" d="M380.6821,-575.8314C377.5124,-567.9617 373.73,-558.5712 370.2187,-549.8533"/>
<polygon fill="#c0c0c0" stroke="#c0c0c0" stroke-width="2" points="373.3992,-548.3815 366.4165,-540.4133 366.9061,-550.9968 373.3992,-548.3815"/>
</g>
<!-- 10 -->
<g id="node11" class="node">
<title>10</title>
<path fill="none" stroke="#56d8d0" stroke-width="2" d="M251.5,-108C251.5,-108 202.5,-108 202.5,-108 196.5,-108 190.5,-102 190.5,-96 190.5,-96 190.5,-84 190.5,-84 190.5,-78 196.5,-72 202.5,-72 202.5,-72 251.5,-72 251.5,-72 257.5,-72 263.5,-78 263.5,-84 263.5,-84 263.5,-96 263.5,-96 263.5,-102 257.5,-108 251.5,-108"/>
<text text-anchor="middle" x="227" y="-87.5" font-family="sans" font-size="10.00" fill="#000000">plot_comps</text>
</g>
<!-- 10&#45;&gt;0 -->
<g id="edge8" class="edge">
<title>10&#45;&gt;0</title>
<path fill="none" stroke="#c0c0c0" stroke-width="2" d="M243.4022,-71.8314C251.0415,-63.3694 260.2683,-53.1489 268.6207,-43.8971"/>
<polygon fill="#c0c0c0" stroke="#c0c0c0" stroke-width="2" points="271.2738,-46.1813 275.3769,-36.4133 266.0779,-41.4906 271.2738,-46.1813"/>
</g>
<!-- 11 -->
<g id="node12" class="node">
<title>11</title>
<path fill="none" stroke="#56d0d8" stroke-width="2" d="M217.5,-252C217.5,-252 164.5,-252 164.5,-252 158.5,-252 152.5,-246 152.5,-240 152.5,-240 152.5,-228 152.5,-228 152.5,-222 158.5,-216 164.5,-216 164.5,-216 217.5,-216 217.5,-216 223.5,-216 229.5,-222 229.5,-228 229.5,-228 229.5,-240 229.5,-240 229.5,-246 223.5,-252 217.5,-252"/>
<text text-anchor="middle" x="191" y="-231.5" font-family="sans" font-size="10.00" fill="#000000">deconvolute</text>
</g>
<!-- 11&#45;&gt;10 -->
<g id="edge19" class="edge">
<title>11&#45;&gt;10</title>
<path fill="none" stroke="#c0c0c0" stroke-width="2" d="M200.5619,-215.9907C205.6161,-205.7153 211.485,-192.4395 215,-180 220.7062,-159.8059 223.7228,-136.2766 225.304,-118.3417"/>
<polygon fill="#c0c0c0" stroke="#c0c0c0" stroke-width="2" points="228.8038,-118.4803 226.0964,-108.2373 221.8252,-117.933 228.8038,-118.4803"/>
</g>
<!-- 19 -->
<g id="node20" class="node">
<title>19</title>
<path fill="none" stroke="#80d856" stroke-width="2" d="M194,-180C194,-180 162,-180 162,-180 156,-180 150,-174 150,-168 150,-168 150,-156 150,-156 150,-150 156,-144 162,-144 162,-144 194,-144 194,-144 200,-144 206,-150 206,-156 206,-156 206,-168 206,-168 206,-174 200,-180 194,-180"/>
<text text-anchor="middle" x="178" y="-159.5" font-family="sans" font-size="10.00" fill="#000000">dirichlet</text>
</g>
<!-- 11&#45;&gt;19 -->
<g id="edge30" class="edge">
<title>11&#45;&gt;19</title>
<path fill="none" stroke="#c0c0c0" stroke-width="2" d="M187.7196,-215.8314C186.3292,-208.131 184.6759,-198.9743 183.1308,-190.4166"/>
<polygon fill="#c0c0c0" stroke="#c0c0c0" stroke-width="2" points="186.5458,-189.6322 181.3246,-180.4133 179.6572,-190.8761 186.5458,-189.6322"/>
</g>
<!-- 21 -->
<g id="node22" class="node">
<title>21</title>
<path fill="none" stroke="#d87d56" stroke-width="2" d="M119.5,-180C119.5,-180 24.5,-180 24.5,-180 18.5,-180 12.5,-174 12.5,-168 12.5,-168 12.5,-156 12.5,-156 12.5,-150 18.5,-144 24.5,-144 24.5,-144 119.5,-144 119.5,-144 125.5,-144 131.5,-150 131.5,-156 131.5,-156 131.5,-168 131.5,-168 131.5,-174 125.5,-180 119.5,-180"/>
<text text-anchor="middle" x="72" y="-159.5" font-family="sans" font-size="10.00" fill="#000000">diffential_expression</text>
</g>
<!-- 11&#45;&gt;21 -->
<g id="edge32" class="edge">
<title>11&#45;&gt;21</title>
<path fill="none" stroke="#c0c0c0" stroke-width="2" d="M160.9713,-215.8314C145.7504,-206.6221 127.0872,-195.3301 110.7917,-185.4706"/>
<polygon fill="#c0c0c0" stroke="#c0c0c0" stroke-width="2" points="112.3868,-182.345 102.0191,-180.1628 108.7631,-188.3341 112.3868,-182.345"/>
</g>
<!-- 12 -->
<g id="node13" class="node">
<title>12</title>
<path fill="none" stroke="#b6d856" stroke-width="2" d="M315,-324C315,-324 265,-324 265,-324 259,-324 253,-318 253,-312 253,-312 253,-300 253,-300 253,-294 259,-288 265,-288 265,-288 315,-288 315,-288 321,-288 327,-294 327,-300 327,-300 327,-312 327,-312 327,-318 321,-324 315,-324"/>
<text text-anchor="middle" x="290" y="-303.5" font-family="sans" font-size="10.00" fill="#000000">findMarkers</text>
</g>
<!-- 12&#45;&gt;0 -->
<g id="edge2" class="edge">
<title>12&#45;&gt;0</title>
<path fill="none" stroke="#c0c0c0" stroke-width="2" d="M284.4554,-287.7012C281.6035,-277.3353 278.4319,-264.0653 277,-252 268.2247,-178.0559 279.6479,-90.3142 286.8851,-46.244"/>
<polygon fill="#c0c0c0" stroke="#c0c0c0" stroke-width="2" points="290.356,-46.7101 288.5763,-36.2658 283.4544,-45.5403 290.356,-46.7101"/>
</g>
<!-- 12&#45;&gt;11 -->
<g id="edge21" class="edge">
<title>12&#45;&gt;11</title>
<path fill="none" stroke="#c0c0c0" stroke-width="2" d="M265.0181,-287.8314C252.7072,-278.8779 237.6893,-267.9558 224.4063,-258.2955"/>
<polygon fill="#c0c0c0" stroke="#c0c0c0" stroke-width="2" points="226.1199,-255.214 215.9739,-252.1628 222.0027,-260.8752 226.1199,-255.214"/>
</g>
<!-- 22 -->
<g id="node23" class="node">
<title>22</title>
<path fill="none" stroke="#56d86b" stroke-width="2" d="M348,-252C348,-252 298,-252 298,-252 292,-252 286,-246 286,-240 286,-240 286,-228 286,-228 286,-222 292,-216 298,-216 298,-216 348,-216 348,-216 354,-216 360,-222 360,-228 360,-228 360,-240 360,-240 360,-246 354,-252 348,-252"/>
<text text-anchor="middle" x="323" y="-231.5" font-family="sans" font-size="10.00" fill="#000000">plotMarkers</text>
</g>
<!-- 12&#45;&gt;22 -->
<g id="edge34" class="edge">
<title>12&#45;&gt;22</title>
<path fill="none" stroke="#c0c0c0" stroke-width="2" d="M298.3273,-287.8314C301.973,-279.8771 306.3309,-270.369 310.3627,-261.5723"/>
<polygon fill="#c0c0c0" stroke="#c0c0c0" stroke-width="2" points="313.5757,-262.9622 314.5606,-252.4133 307.2123,-260.0456 313.5757,-262.9622"/>
</g>
<!-- 25 -->
<g id="node26" class="node">
<title>25</title>
<path fill="none" stroke="#d86e56" stroke-width="2" d="M464,-252C464,-252 390,-252 390,-252 384,-252 378,-246 378,-240 378,-240 378,-228 378,-228 378,-222 384,-216 390,-216 390,-216 464,-216 464,-216 470,-216 476,-222 476,-228 476,-228 476,-240 476,-240 476,-246 470,-252 464,-252"/>
<text text-anchor="middle" x="427" y="-231.5" font-family="sans" font-size="10.00" fill="#000000">make_sim_input</text>
</g>
<!-- 12&#45;&gt;25 -->
<g id="edge37" class="edge">
<title>12&#45;&gt;25</title>
<path fill="none" stroke="#c0c0c0" stroke-width="2" d="M324.5709,-287.8314C342.4185,-278.4516 364.3774,-266.9112 383.38,-256.9244"/>
<polygon fill="#c0c0c0" stroke="#c0c0c0" stroke-width="2" points="385.2164,-259.9132 392.4402,-252.1628 381.9599,-253.7168 385.2164,-259.9132"/>
</g>
<!-- 13 -->
<g id="node14" class="node">
<title>13</title>
<path fill="none" stroke="#567bd8" stroke-width="2" d="M337.5,-396C337.5,-396 296.5,-396 296.5,-396 290.5,-396 284.5,-390 284.5,-384 284.5,-384 284.5,-372 284.5,-372 284.5,-366 290.5,-360 296.5,-360 296.5,-360 337.5,-360 337.5,-360 343.5,-360 349.5,-366 349.5,-372 349.5,-372 349.5,-384 349.5,-384 349.5,-390 343.5,-396 337.5,-396"/>
<text text-anchor="middle" x="317" y="-375.5" font-family="sans" font-size="10.00" fill="#000000">merge_sn</text>
</g>
<!-- 13&#45;&gt;12 -->
<g id="edge22" class="edge">
<title>13&#45;&gt;12</title>
<path fill="none" stroke="#c0c0c0" stroke-width="2" d="M310.1868,-359.8314C307.2356,-351.9617 303.7142,-342.5712 300.445,-333.8533"/>
<polygon fill="#c0c0c0" stroke="#c0c0c0" stroke-width="2" points="303.6934,-332.5476 296.905,-324.4133 297.1391,-335.0055 303.6934,-332.5476"/>
</g>
<!-- 14 -->
<g id="node15" class="node">
<title>14</title>
<path fill="none" stroke="#59d856" stroke-width="2" d="M438,-468C438,-468 358,-468 358,-468 352,-468 346,-462 346,-456 346,-456 346,-444 346,-444 346,-438 352,-432 358,-432 358,-432 438,-432 438,-432 444,-432 450,-438 450,-444 450,-444 450,-456 450,-456 450,-462 444,-468 438,-468"/>
<text text-anchor="middle" x="398" y="-447.5" font-family="sans" font-size="10.00" fill="#000000">ambient_doublets</text>
</g>
<!-- 14&#45;&gt;13 -->
<g id="edge24" class="edge">
<title>14&#45;&gt;13</title>
<path fill="none" stroke="#c0c0c0" stroke-width="2" d="M377.5603,-431.8314C367.6795,-423.0485 355.6676,-412.3712 344.955,-402.8489"/>
<polygon fill="#c0c0c0" stroke="#c0c0c0" stroke-width="2" points="347.2326,-400.1906 337.4332,-396.1628 342.582,-405.4224 347.2326,-400.1906"/>
</g>
<!-- 15 -->
<g id="node16" class="node">
<title>15</title>
<path fill="none" stroke="#566bd8" stroke-width="2" d="M449,-540C449,-540 419,-540 419,-540 413,-540 407,-534 407,-528 407,-528 407,-516 407,-516 407,-510 413,-504 419,-504 419,-504 449,-504 449,-504 455,-504 461,-510 461,-516 461,-516 461,-528 461,-528 461,-534 455,-540 449,-540"/>
<text text-anchor="middle" x="434" y="-519.5" font-family="sans" font-size="10.00" fill="#000000">load_sn</text>
</g>
<!-- 15&#45;&gt;0 -->
<g id="edge7" class="edge">
<title>15&#45;&gt;0</title>
<path fill="none" stroke="#c0c0c0" stroke-width="2" d="M449.5353,-503.8219C470.1578,-477.7696 504,-427.4792 504,-378 504,-378 504,-378 504,-162 504,-78.5109 390.0989,-40.0478 329.2727,-25.4599"/>
<polygon fill="#c0c0c0" stroke="#c0c0c0" stroke-width="2" points="329.8112,-21.9925 319.2813,-23.1638 328.2433,-28.8147 329.8112,-21.9925"/>
</g>
<!-- 15&#45;&gt;14 -->
<g id="edge25" class="edge">
<title>15&#45;&gt;14</title>
<path fill="none" stroke="#c0c0c0" stroke-width="2" d="M424.9157,-503.8314C420.9385,-495.8771 416.1845,-486.369 411.7861,-477.5723"/>
<polygon fill="#c0c0c0" stroke="#c0c0c0" stroke-width="2" points="414.8093,-475.7923 407.2066,-468.4133 408.5483,-478.9228 414.8093,-475.7923"/>
</g>
<!-- 16 -->
<g id="node17" class="node">
<title>16</title>
<path fill="none" stroke="#56d892" stroke-width="2" d="M242.5,-396C242.5,-396 197.5,-396 197.5,-396 191.5,-396 185.5,-390 185.5,-384 185.5,-384 185.5,-372 185.5,-372 185.5,-366 191.5,-360 197.5,-360 197.5,-360 242.5,-360 242.5,-360 248.5,-360 254.5,-366 254.5,-372 254.5,-372 254.5,-384 254.5,-384 254.5,-390 248.5,-396 242.5,-396"/>
<text text-anchor="middle" x="220" y="-375.5" font-family="sans" font-size="10.00" fill="#000000">clean_bulk</text>
</g>
<!-- 16&#45;&gt;11 -->
<g id="edge20" class="edge">
<title>16&#45;&gt;11</title>
<path fill="none" stroke="#c0c0c0" stroke-width="2" d="M216.3271,-359.7623C211.359,-335.0928 202.4509,-290.8598 196.6335,-261.9731"/>
<polygon fill="#c0c0c0" stroke="#c0c0c0" stroke-width="2" points="200.0485,-261.2018 194.643,-252.0896 193.1863,-262.5838 200.0485,-261.2018"/>
</g>
<!-- 16&#45;&gt;12 -->
<g id="edge23" class="edge">
<title>16&#45;&gt;12</title>
<path fill="none" stroke="#c0c0c0" stroke-width="2" d="M237.664,-359.8314C245.9732,-351.2848 256.0264,-340.9443 265.0918,-331.6198"/>
<polygon fill="#c0c0c0" stroke="#c0c0c0" stroke-width="2" points="267.6369,-334.023 272.0982,-324.4133 262.6179,-329.1435 267.6369,-334.023"/>
</g>
<!-- 16&#45;&gt;21 -->
<g id="edge33" class="edge">
<title>16&#45;&gt;21</title>
<path fill="none" stroke="#c0c0c0" stroke-width="2" d="M207.6362,-359.9555C181.5186,-321.8379 120.6296,-232.973 90.112,-188.4337"/>
<polygon fill="#c0c0c0" stroke="#c0c0c0" stroke-width="2" points="92.9724,-186.4161 84.4327,-180.1451 87.1978,-190.3727 92.9724,-186.4161"/>
</g>
<!-- 17 -->
<g id="node18" class="node">
<title>17</title>
<path fill="none" stroke="#a7d856" stroke-width="2" d="M264,-468C264,-468 218,-468 218,-468 212,-468 206,-462 206,-456 206,-456 206,-444 206,-444 206,-438 212,-432 218,-432 218,-432 264,-432 264,-432 270,-432 276,-438 276,-444 276,-444 276,-456 276,-456 276,-462 270,-468 264,-468"/>
<text text-anchor="middle" x="241" y="-447.5" font-family="sans" font-size="10.00" fill="#000000">ensb2gene</text>
</g>
<!-- 17&#45;&gt;16 -->
<g id="edge26" class="edge">
<title>17&#45;&gt;16</title>
<path fill="none" stroke="#c0c0c0" stroke-width="2" d="M235.7008,-431.8314C233.4302,-424.0463 230.7254,-414.7729 228.206,-406.1347"/>
<polygon fill="#c0c0c0" stroke="#c0c0c0" stroke-width="2" points="231.5306,-405.0332 225.3705,-396.4133 224.8106,-406.9933 231.5306,-405.0332"/>
</g>
<!-- 18&#45;&gt;17 -->
<g id="edge27" class="edge">
<title>18&#45;&gt;17</title>
<path fill="none" stroke="#c0c0c0" stroke-width="2" d="M329.2236,-503.8314C314.1307,-494.6221 295.6243,-483.3301 279.4657,-473.4706"/>
<polygon fill="#c0c0c0" stroke="#c0c0c0" stroke-width="2" points="281.1263,-470.3838 270.7669,-468.1628 277.4802,-476.3593 281.1263,-470.3838"/>
</g>
<!-- 19&#45;&gt;0 -->
<g id="edge1" class="edge">
<title>19&#45;&gt;0</title>
<path fill="none" stroke="#c0c0c0" stroke-width="2" d="M173.4759,-143.8167C169.7366,-124.3941 167.0421,-93.5069 181,-72 197.479,-46.6085 229.5656,-32.7973 255.0198,-25.5175"/>
<polygon fill="#c0c0c0" stroke="#c0c0c0" stroke-width="2" points="255.9761,-28.8851 264.7538,-22.9519 254.192,-22.1162 255.9761,-28.8851"/>
</g>
<!-- 20 -->
<g id="node21" class="node">
<title>20</title>
<path fill="none" stroke="#56b9d8" stroke-width="2" d="M42,-108C42,-108 12,-108 12,-108 6,-108 0,-102 0,-96 0,-96 0,-84 0,-84 0,-78 6,-72 12,-72 12,-72 42,-72 42,-72 48,-72 54,-78 54,-84 54,-84 54,-96 54,-96 54,-102 48,-108 42,-108"/>
<text text-anchor="middle" x="27" y="-87.5" font-family="sans" font-size="10.00" fill="#000000">plot_de</text>
</g>
<!-- 20&#45;&gt;0 -->
<g id="edge4" class="edge">
<title>20&#45;&gt;0</title>
<path fill="none" stroke="#c0c0c0" stroke-width="2" d="M54.2279,-75.5673C57.1488,-74.2664 60.1093,-73.0474 63,-72 128.7353,-48.1824 208.942,-32.0738 254.8811,-24.0131"/>
<polygon fill="#c0c0c0" stroke="#c0c0c0" stroke-width="2" points="255.7084,-27.4223 264.9695,-22.2761 254.5206,-20.5238 255.7084,-27.4223"/>
</g>
<!-- 21&#45;&gt;20 -->
<g id="edge31" class="edge">
<title>21&#45;&gt;20</title>
<path fill="none" stroke="#c0c0c0" stroke-width="2" d="M60.6446,-143.8314C55.5674,-135.7079 49.4773,-125.9637 43.8824,-117.0118"/>
<polygon fill="#c0c0c0" stroke="#c0c0c0" stroke-width="2" points="46.7763,-115.0383 38.5083,-108.4133 40.8403,-118.7483 46.7763,-115.0383"/>
</g>
<!-- 23 -->
<g id="node24" class="node">
<title>23</title>
<path fill="none" stroke="#d8a456" stroke-width="2" d="M122,-108C122,-108 84,-108 84,-108 78,-108 72,-102 72,-96 72,-96 72,-84 72,-84 72,-78 78,-72 84,-72 84,-72 122,-72 122,-72 128,-72 134,-78 134,-84 134,-84 134,-96 134,-96 134,-102 128,-108 122,-108"/>
<text text-anchor="middle" x="103" y="-87.5" font-family="sans" font-size="10.00" fill="#000000">gene_ont</text>
</g>
<!-- 21&#45;&gt;23 -->
<g id="edge35" class="edge">
<title>21&#45;&gt;23</title>
<path fill="none" stroke="#c0c0c0" stroke-width="2" d="M79.8226,-143.8314C83.2109,-135.9617 87.2541,-126.5712 91.0076,-117.8533"/>
<polygon fill="#c0c0c0" stroke="#c0c0c0" stroke-width="2" points="94.3321,-118.9822 95.0721,-108.4133 87.9027,-116.214 94.3321,-118.9822"/>
</g>
<!-- 22&#45;&gt;0 -->
<g id="edge3" class="edge">
<title>22&#45;&gt;0</title>
<path fill="none" stroke="#c0c0c0" stroke-width="2" d="M321.9839,-215.8963C320.099,-185.824 315.3711,-123.7582 306,-72 304.4714,-63.557 302.324,-54.4905 300.1694,-46.2432"/>
<polygon fill="#c0c0c0" stroke="#c0c0c0" stroke-width="2" points="303.4796,-45.0772 297.4821,-36.3433 296.724,-46.9109 303.4796,-45.0772"/>
</g>
<!-- 23&#45;&gt;0 -->
<g id="edge9" class="edge">
<title>23&#45;&gt;0</title>
<path fill="none" stroke="#c0c0c0" stroke-width="2" d="M134.4369,-77.3243C138.9814,-75.5213 143.6062,-73.7024 148,-72 184.3014,-57.9351 225.965,-42.3741 255.1062,-31.584"/>
<polygon fill="#c0c0c0" stroke="#c0c0c0" stroke-width="2" points="256.6968,-34.7276 264.8623,-27.9767 254.2691,-28.162 256.6968,-34.7276"/>
</g>
<!-- 24 -->
<g id="node25" class="node">
<title>24</title>
<path fill="none" stroke="#56d8a9" stroke-width="2" d="M451,-180C451,-180 381,-180 381,-180 375,-180 369,-174 369,-168 369,-168 369,-156 369,-156 369,-150 375,-144 381,-144 381,-144 451,-144 451,-144 457,-144 463,-150 463,-156 463,-156 463,-168 463,-168 463,-174 457,-180 451,-180"/>
<text text-anchor="middle" x="416" y="-159.5" font-family="sans" font-size="10.00" fill="#000000">simulate_deseq</text>
</g>
<!-- 24&#45;&gt;0 -->
<g id="edge6" class="edge">
<title>24&#45;&gt;0</title>
<path fill="none" stroke="#c0c0c0" stroke-width="2" d="M402.1313,-143.6721C387.9694,-125.1983 365.1259,-96.0561 344,-72 335.546,-62.3735 325.905,-52.1659 317.2397,-43.2475"/>
<polygon fill="#c0c0c0" stroke="#c0c0c0" stroke-width="2" points="319.7362,-40.7943 310.2379,-36.1003 314.7358,-45.693 319.7362,-40.7943"/>
</g>
<!-- 25&#45;&gt;24 -->
<g id="edge36" class="edge">
<title>25&#45;&gt;24</title>
<path fill="none" stroke="#c0c0c0" stroke-width="2" d="M424.2242,-215.8314C423.0478,-208.131 421.6489,-198.9743 420.3414,-190.4166"/>
<polygon fill="#c0c0c0" stroke="#c0c0c0" stroke-width="2" points="423.7833,-189.7699 418.8131,-180.4133 416.8636,-190.8272 423.7833,-189.7699"/>
</g>
</g>
</svg>
