<?xml version="1.0" encoding="UTF-8" standalone="no"?>
<!DOCTYPE svg PUBLIC "-//W3C//DTD SVG 1.1//EN"
 "http://www.w3.org/Graphics/SVG/1.1/DTD/svg11.dtd">
<!-- Generated by graphviz version 2.40.1 (0)
 -->
<!-- Title: snakemake_dag Pages: 1 -->
<svg width="14579pt" height="548pt"
 viewBox="0.00 0.00 14579.00 548.00" xmlns="http://www.w3.org/2000/svg" xmlns:xlink="http://www.w3.org/1999/xlink">
<g id="graph0" class="graph" transform="scale(1 1) rotate(0) translate(4 544)">
<title>snakemake_dag</title>
<polygon fill="#ffffff" stroke="transparent" points="-4,4 -4,-544 14575,-544 14575,4 -4,4"/>
<!-- 0 -->
<g id="node1" class="node">
<title>0</title>
<path fill="none" stroke="#d87d56" stroke-width="2" stroke-dasharray="5,2" d="M405,-108C405,-108 12,-108 12,-108 6,-108 0,-102 0,-96 0,-96 0,-84 0,-84 0,-78 6,-72 12,-72 12,-72 405,-72 405,-72 411,-72 417,-78 417,-84 417,-84 417,-96 417,-96 417,-102 411,-108 405,-108"/>
<text text-anchor="middle" x="208.5" y="-93" font-family="sans" font-size="10.00" fill="#000000">fastqc</text>
<text text-anchor="middle" x="208.5" y="-82" font-family="sans" font-size="10.00" fill="#000000">sample_path: data/raw/fastq/B6_F_CM_RNA_2/B6_F_CM_RNA_2_S33_L002_R1_001</text>
</g>
<!-- 21 -->
<g id="node22" class="node">
<title>21</title>
<path fill="none" stroke="#567bd8" stroke-width="2" stroke-dasharray="5,2" d="M6323.5,-36C6323.5,-36 6293.5,-36 6293.5,-36 6287.5,-36 6281.5,-30 6281.5,-24 6281.5,-24 6281.5,-12 6281.5,-12 6281.5,-6 6287.5,0 6293.5,0 6293.5,0 6323.5,0 6323.5,0 6329.5,0 6335.5,-6 6335.5,-12 6335.5,-12 6335.5,-24 6335.5,-24 6335.5,-30 6329.5,-36 6323.5,-36"/>
<text text-anchor="middle" x="6308.5" y="-15.5" font-family="sans" font-size="10.00" fill="#000000">all</text>
</g>
<!-- 0&#45;&gt;21 -->
<g id="edge10" class="edge">
<title>0&#45;&gt;21</title>
<path fill="none" stroke="#c0c0c0" stroke-width="2" d="M417.0416,-72.4577C420.2158,-72.2962 423.3703,-72.1434 426.5,-72 1046.9369,-43.5758 5799.8423,-20.4097 6270.9266,-18.1764"/>
<polygon fill="#c0c0c0" stroke="#c0c0c0" stroke-width="2" points="6271.2708,-21.6749 6281.2541,-18.1275 6271.2376,-14.675 6271.2708,-21.6749"/>
</g>
<!-- 1 -->
<g id="node2" class="node">
<title>1</title>
<path fill="none" stroke="#9fd856" stroke-width="2" stroke-dasharray="5,2" d="M3155.5,-324C3155.5,-324 3105.5,-324 3105.5,-324 3099.5,-324 3093.5,-318 3093.5,-312 3093.5,-312 3093.5,-300 3093.5,-300 3093.5,-294 3099.5,-288 3105.5,-288 3105.5,-288 3155.5,-288 3155.5,-288 3161.5,-288 3167.5,-294 3167.5,-300 3167.5,-300 3167.5,-312 3167.5,-312 3167.5,-318 3161.5,-324 3155.5,-324"/>
<text text-anchor="middle" x="3130.5" y="-303.5" font-family="sans" font-size="10.00" fill="#000000">findMarkers</text>
</g>
<!-- 30 -->
<g id="node31" class="node">
<title>30</title>
<path fill="none" stroke="#78d856" stroke-width="2" stroke-dasharray="5,2" d="M3157,-252C3157,-252 3104,-252 3104,-252 3098,-252 3092,-246 3092,-240 3092,-240 3092,-228 3092,-228 3092,-222 3098,-216 3104,-216 3104,-216 3157,-216 3157,-216 3163,-216 3169,-222 3169,-228 3169,-228 3169,-240 3169,-240 3169,-246 3163,-252 3157,-252"/>
<text text-anchor="middle" x="3130.5" y="-231.5" font-family="sans" font-size="10.00" fill="#000000">deconvolute</text>
</g>
<!-- 1&#45;&gt;30 -->
<g id="edge47" class="edge">
<title>1&#45;&gt;30</title>
<path fill="none" stroke="#c0c0c0" stroke-width="2" d="M3130.5,-287.8314C3130.5,-280.131 3130.5,-270.9743 3130.5,-262.4166"/>
<polygon fill="#c0c0c0" stroke="#c0c0c0" stroke-width="2" points="3134.0001,-262.4132 3130.5,-252.4133 3127.0001,-262.4133 3134.0001,-262.4132"/>
</g>
<!-- 2 -->
<g id="node3" class="node">
<title>2</title>
<path fill="none" stroke="#d87d56" stroke-width="2" stroke-dasharray="5,2" d="M831.5,-108C831.5,-108 447.5,-108 447.5,-108 441.5,-108 435.5,-102 435.5,-96 435.5,-96 435.5,-84 435.5,-84 435.5,-78 441.5,-72 447.5,-72 447.5,-72 831.5,-72 831.5,-72 837.5,-72 843.5,-78 843.5,-84 843.5,-84 843.5,-96 843.5,-96 843.5,-102 837.5,-108 831.5,-108"/>
<text text-anchor="middle" x="639.5" y="-93" font-family="sans" font-size="10.00" fill="#000000">fastqc</text>
<text text-anchor="middle" x="639.5" y="-82" font-family="sans" font-size="10.00" fill="#000000">sample_path: data/raw/fastq/B6_F_Fib_RNA_5/B6_F_Fib_RNA_5_S8_L002_R2_001</text>
</g>
<!-- 2&#45;&gt;21 -->
<g id="edge11" class="edge">
<title>2&#45;&gt;21</title>
<path fill="none" stroke="#c0c0c0" stroke-width="2" d="M843.5396,-72.4452C846.5462,-72.2884 849.5344,-72.1398 852.5,-72 1426.9493,-44.9223 5821.0384,-20.6252 6271.2831,-18.1988"/>
<polygon fill="#c0c0c0" stroke="#c0c0c0" stroke-width="2" points="6271.4882,-21.6978 6281.4692,-18.144 6271.4505,-14.6979 6271.4882,-21.6978"/>
</g>
<!-- 3 -->
<g id="node4" class="node">
<title>3</title>
<path fill="none" stroke="#d87d56" stroke-width="2" stroke-dasharray="5,2" d="M1269.5,-108C1269.5,-108 873.5,-108 873.5,-108 867.5,-108 861.5,-102 861.5,-96 861.5,-96 861.5,-84 861.5,-84 861.5,-78 867.5,-72 873.5,-72 873.5,-72 1269.5,-72 1269.5,-72 1275.5,-72 1281.5,-78 1281.5,-84 1281.5,-84 1281.5,-96 1281.5,-96 1281.5,-102 1275.5,-108 1269.5,-108"/>
<text text-anchor="middle" x="1071.5" y="-93" font-family="sans" font-size="10.00" fill="#000000">fastqc</text>
<text text-anchor="middle" x="1071.5" y="-82" font-family="sans" font-size="10.00" fill="#000000">sample_path: data/raw/fastq/B6_M_Fib_RNA_1/B6_M_Fib_RNA_1_S20_L002_R2_001</text>
</g>
<!-- 3&#45;&gt;21 -->
<g id="edge13" class="edge">
<title>3&#45;&gt;21</title>
<path fill="none" stroke="#c0c0c0" stroke-width="2" d="M1281.5782,-72.4352C1284.5714,-72.2824 1287.5466,-72.1371 1290.5,-72 2340.5114,-23.2612 5869.359,-18.4262 6271.1516,-18.0316"/>
<polygon fill="#c0c0c0" stroke="#c0c0c0" stroke-width="2" points="6271.3589,-21.5315 6281.3555,-18.0219 6271.3522,-14.5315 6271.3589,-21.5315"/>
</g>
<!-- 4 -->
<g id="node5" class="node">
<title>4</title>
<path fill="none" stroke="#d87d56" stroke-width="2" stroke-dasharray="5,2" d="M1701.5,-108C1701.5,-108 1311.5,-108 1311.5,-108 1305.5,-108 1299.5,-102 1299.5,-96 1299.5,-96 1299.5,-84 1299.5,-84 1299.5,-78 1305.5,-72 1311.5,-72 1311.5,-72 1701.5,-72 1701.5,-72 1707.5,-72 1713.5,-78 1713.5,-84 1713.5,-84 1713.5,-96 1713.5,-96 1713.5,-102 1707.5,-108 1701.5,-108"/>
<text text-anchor="middle" x="1506.5" y="-93" font-family="sans" font-size="10.00" fill="#000000">fastqc</text>
<text text-anchor="middle" x="1506.5" y="-82" font-family="sans" font-size="10.00" fill="#000000">sample_path: data/raw/fastq/B6_F_Fib_RNA_2/B6_F_Fib_RNA_2_S24_L002_R2_001</text>
</g>
<!-- 4&#45;&gt;21 -->
<g id="edge41" class="edge">
<title>4&#45;&gt;21</title>
<path fill="none" stroke="#c0c0c0" stroke-width="2" d="M1713.7001,-72.4388C1716.6523,-72.2848 1719.587,-72.1384 1722.5,-72 2679.3901,-26.554 5889.107,-18.8327 6271.213,-18.0692"/>
<polygon fill="#c0c0c0" stroke="#c0c0c0" stroke-width="2" points="6271.4511,-21.5688 6281.4442,-18.0491 6271.4373,-14.5688 6271.4511,-21.5688"/>
</g>
<!-- 5 -->
<g id="node6" class="node">
<title>5</title>
<path fill="none" stroke="#d87d56" stroke-width="2" stroke-dasharray="5,2" d="M2133.5,-108C2133.5,-108 1743.5,-108 1743.5,-108 1737.5,-108 1731.5,-102 1731.5,-96 1731.5,-96 1731.5,-84 1731.5,-84 1731.5,-78 1737.5,-72 1743.5,-72 1743.5,-72 2133.5,-72 2133.5,-72 2139.5,-72 2145.5,-78 2145.5,-84 2145.5,-84 2145.5,-96 2145.5,-96 2145.5,-102 2139.5,-108 2133.5,-108"/>
<text text-anchor="middle" x="1938.5" y="-93" font-family="sans" font-size="10.00" fill="#000000">fastqc</text>
<text text-anchor="middle" x="1938.5" y="-82" font-family="sans" font-size="10.00" fill="#000000">sample_path: data/raw/fastq/B6_F_Fib_RNA_2/B6_F_Fib_RNA_2_S24_L002_R1_001</text>
</g>
<!-- 5&#45;&gt;21 -->
<g id="edge29" class="edge">
<title>5&#45;&gt;21</title>
<path fill="none" stroke="#c0c0c0" stroke-width="2" d="M2145.7003,-72.4438C2148.6525,-72.2883 2151.587,-72.1401 2154.5,-72 3018.3601,-30.4422 5909.3209,-19.3567 6271.1918,-18.1218"/>
<polygon fill="#c0c0c0" stroke="#c0c0c0" stroke-width="2" points="6271.4,-21.6212 6281.3881,-18.0873 6271.3763,-14.6212 6271.4,-21.6212"/>
</g>
<!-- 6 -->
<g id="node7" class="node">
<title>6</title>
<path fill="none" stroke="#d87d56" stroke-width="2" stroke-dasharray="5,2" d="M2571.5,-108C2571.5,-108 2175.5,-108 2175.5,-108 2169.5,-108 2163.5,-102 2163.5,-96 2163.5,-96 2163.5,-84 2163.5,-84 2163.5,-78 2169.5,-72 2175.5,-72 2175.5,-72 2571.5,-72 2571.5,-72 2577.5,-72 2583.5,-78 2583.5,-84 2583.5,-84 2583.5,-96 2583.5,-96 2583.5,-102 2577.5,-108 2571.5,-108"/>
<text text-anchor="middle" x="2373.5" y="-93" font-family="sans" font-size="10.00" fill="#000000">fastqc</text>
<text text-anchor="middle" x="2373.5" y="-82" font-family="sans" font-size="10.00" fill="#000000">sample_path: data/raw/fastq/B6_M_Fib_RNA_1/B6_M_Fib_RNA_1_S20_L002_R1_001</text>
</g>
<!-- 6&#45;&gt;21 -->
<g id="edge19" class="edge">
<title>6&#45;&gt;21</title>
<path fill="none" stroke="#c0c0c0" stroke-width="2" d="M2583.579,-72.4509C2586.5719,-72.2932 2589.5469,-72.1427 2592.5,-72 3362.1121,-34.8226 5930.2183,-20.0125 6271.0268,-18.1942"/>
<polygon fill="#c0c0c0" stroke="#c0c0c0" stroke-width="2" points="6271.1359,-21.6938 6281.1172,-18.1407 6271.0987,-14.6939 6271.1359,-21.6938"/>
</g>
<!-- 7 -->
<g id="node8" class="node">
<title>7</title>
<path fill="none" stroke="#d85656" stroke-width="2" stroke-dasharray="5,2" d="M3057,-540C3057,-540 2994,-540 2994,-540 2988,-540 2982,-534 2982,-528 2982,-528 2982,-516 2982,-516 2982,-510 2988,-504 2994,-504 2994,-504 3057,-504 3057,-504 3063,-504 3069,-510 3069,-516 3069,-516 3069,-528 3069,-528 3069,-534 3063,-540 3057,-540"/>
<text text-anchor="middle" x="3025.5" y="-525" font-family="sans" font-size="10.00" fill="#000000">load_sn</text>
<text text-anchor="middle" x="3025.5" y="-514" font-family="sans" font-size="10.00" fill="#000000">samples: b6_1</text>
</g>
<!-- 12 -->
<g id="node13" class="node">
<title>12</title>
<path fill="none" stroke="#56d8a2" stroke-width="2" stroke-dasharray="5,2" d="M3065.5,-468C3065.5,-468 2985.5,-468 2985.5,-468 2979.5,-468 2973.5,-462 2973.5,-456 2973.5,-456 2973.5,-444 2973.5,-444 2973.5,-438 2979.5,-432 2985.5,-432 2985.5,-432 3065.5,-432 3065.5,-432 3071.5,-432 3077.5,-438 3077.5,-444 3077.5,-444 3077.5,-456 3077.5,-456 3077.5,-462 3071.5,-468 3065.5,-468"/>
<text text-anchor="middle" x="3025.5" y="-447.5" font-family="sans" font-size="10.00" fill="#000000">ambient_doublets</text>
</g>
<!-- 7&#45;&gt;12 -->
<g id="edge4" class="edge">
<title>7&#45;&gt;12</title>
<path fill="none" stroke="#c0c0c0" stroke-width="2" d="M3025.5,-503.8314C3025.5,-496.131 3025.5,-486.9743 3025.5,-478.4166"/>
<polygon fill="#c0c0c0" stroke="#c0c0c0" stroke-width="2" points="3029.0001,-478.4132 3025.5,-468.4133 3022.0001,-478.4133 3029.0001,-478.4132"/>
</g>
<!-- 8 -->
<g id="node9" class="node">
<title>8</title>
<path fill="none" stroke="#d85656" stroke-width="2" stroke-dasharray="5,2" d="M3213,-540C3213,-540 3150,-540 3150,-540 3144,-540 3138,-534 3138,-528 3138,-528 3138,-516 3138,-516 3138,-510 3144,-504 3150,-504 3150,-504 3213,-504 3213,-504 3219,-504 3225,-510 3225,-516 3225,-516 3225,-528 3225,-528 3225,-534 3219,-540 3213,-540"/>
<text text-anchor="middle" x="3181.5" y="-525" font-family="sans" font-size="10.00" fill="#000000">load_sn</text>
<text text-anchor="middle" x="3181.5" y="-514" font-family="sans" font-size="10.00" fill="#000000">samples: b6_2</text>
</g>
<!-- 10 -->
<g id="node11" class="node">
<title>10</title>
<path fill="none" stroke="#56d8a2" stroke-width="2" stroke-dasharray="5,2" d="M3221.5,-468C3221.5,-468 3141.5,-468 3141.5,-468 3135.5,-468 3129.5,-462 3129.5,-456 3129.5,-456 3129.5,-444 3129.5,-444 3129.5,-438 3135.5,-432 3141.5,-432 3141.5,-432 3221.5,-432 3221.5,-432 3227.5,-432 3233.5,-438 3233.5,-444 3233.5,-444 3233.5,-456 3233.5,-456 3233.5,-462 3227.5,-468 3221.5,-468"/>
<text text-anchor="middle" x="3181.5" y="-447.5" font-family="sans" font-size="10.00" fill="#000000">ambient_doublets</text>
</g>
<!-- 8&#45;&gt;10 -->
<g id="edge3" class="edge">
<title>8&#45;&gt;10</title>
<path fill="none" stroke="#c0c0c0" stroke-width="2" d="M3181.5,-503.8314C3181.5,-496.131 3181.5,-486.9743 3181.5,-478.4166"/>
<polygon fill="#c0c0c0" stroke="#c0c0c0" stroke-width="2" points="3185.0001,-478.4132 3181.5,-468.4133 3178.0001,-478.4133 3185.0001,-478.4132"/>
</g>
<!-- 9 -->
<g id="node10" class="node">
<title>9</title>
<path fill="none" stroke="#d87d56" stroke-width="2" stroke-dasharray="5,2" d="M3013,-108C3013,-108 2614,-108 2614,-108 2608,-108 2602,-102 2602,-96 2602,-96 2602,-84 2602,-84 2602,-78 2608,-72 2614,-72 2614,-72 3013,-72 3013,-72 3019,-72 3025,-78 3025,-84 3025,-84 3025,-96 3025,-96 3025,-102 3019,-108 3013,-108"/>
<text text-anchor="middle" x="2813.5" y="-93" font-family="sans" font-size="10.00" fill="#000000">fastqc</text>
<text text-anchor="middle" x="2813.5" y="-82" font-family="sans" font-size="10.00" fill="#000000">sample_path: data/raw/fastq/B6_M_CM_RNA_3/B6_M_CM_RNA_3_S10_L002_R1_001</text>
</g>
<!-- 9&#45;&gt;21 -->
<g id="edge24" class="edge">
<title>9&#45;&gt;21</title>
<path fill="none" stroke="#c0c0c0" stroke-width="2" d="M3025.1992,-72.7326C3030.0101,-72.4715 3034.7822,-72.2266 3039.5,-72 3713.2781,-39.6353 5953.8303,-20.8198 6271.0307,-18.2928"/>
<polygon fill="#c0c0c0" stroke="#c0c0c0" stroke-width="2" points="6271.5255,-21.789 6281.4974,-18.2097 6271.4699,-14.7893 6271.5255,-21.789"/>
</g>
<!-- 20 -->
<g id="node21" class="node">
<title>20</title>
<path fill="none" stroke="#d8a456" stroke-width="2" stroke-dasharray="5,2" d="M3141,-396C3141,-396 3100,-396 3100,-396 3094,-396 3088,-390 3088,-384 3088,-384 3088,-372 3088,-372 3088,-366 3094,-360 3100,-360 3100,-360 3141,-360 3141,-360 3147,-360 3153,-366 3153,-372 3153,-372 3153,-384 3153,-384 3153,-390 3147,-396 3141,-396"/>
<text text-anchor="middle" x="3120.5" y="-375.5" font-family="sans" font-size="10.00" fill="#000000">merge_sn</text>
</g>
<!-- 10&#45;&gt;20 -->
<g id="edge5" class="edge">
<title>10&#45;&gt;20</title>
<path fill="none" stroke="#c0c0c0" stroke-width="2" d="M3166.1071,-431.8314C3159.0096,-423.454 3150.452,-413.3531 3142.676,-404.1749"/>
<polygon fill="#c0c0c0" stroke="#c0c0c0" stroke-width="2" points="3145.2348,-401.7807 3136.1001,-396.4133 3139.8939,-406.3056 3145.2348,-401.7807"/>
</g>
<!-- 10&#45;&gt;21 -->
<g id="edge28" class="edge">
<title>10&#45;&gt;21</title>
<path fill="none" stroke="#c0c0c0" stroke-width="2" d="M3222.8852,-431.9494C3267.2843,-409.454 3331.5,-366.4665 3331.5,-306 3331.5,-306 3331.5,-306 3331.5,-234 3331.5,-193.0242 3334.5148,-177.9018 3311.5,-144 3295.5061,-120.4403 3271.8277,-133.1642 3258.5,-108 3251.0114,-93.8607 3247.2869,-83.4134 3258.5,-72 3286.245,-43.7594 5925.231,-21.1463 6271.2292,-18.3019"/>
<polygon fill="#c0c0c0" stroke="#c0c0c0" stroke-width="2" points="6271.4906,-21.7999 6281.4616,-18.218 6271.4332,-14.8002 6271.4906,-21.7999"/>
</g>
<!-- 11 -->
<g id="node12" class="node">
<title>11</title>
<path fill="none" stroke="#d87d56" stroke-width="2" stroke-dasharray="5,2" d="M3669.5,-108C3669.5,-108 3279.5,-108 3279.5,-108 3273.5,-108 3267.5,-102 3267.5,-96 3267.5,-96 3267.5,-84 3267.5,-84 3267.5,-78 3273.5,-72 3279.5,-72 3279.5,-72 3669.5,-72 3669.5,-72 3675.5,-72 3681.5,-78 3681.5,-84 3681.5,-84 3681.5,-96 3681.5,-96 3681.5,-102 3675.5,-108 3669.5,-108"/>
<text text-anchor="middle" x="3474.5" y="-93" font-family="sans" font-size="10.00" fill="#000000">fastqc</text>
<text text-anchor="middle" x="3474.5" y="-82" font-family="sans" font-size="10.00" fill="#000000">sample_path: data/raw/fastq/B6_M_Fib_RNA_3/B6_M_Fib_RNA_3_S3_L002_R1_001</text>
</g>
<!-- 11&#45;&gt;21 -->
<g id="edge15" class="edge">
<title>11&#45;&gt;21</title>
<path fill="none" stroke="#c0c0c0" stroke-width="2" d="M3681.7019,-72.4751C3684.6536,-72.3098 3687.5876,-72.1512 3690.5,-72 4225.0361,-44.2421 5991.3017,-21.8601 6271.0344,-18.4502"/>
<polygon fill="#c0c0c0" stroke="#c0c0c0" stroke-width="2" points="6271.4867,-21.9451 6281.4434,-18.3238 6271.4016,-14.9456 6271.4867,-21.9451"/>
</g>
<!-- 12&#45;&gt;20 -->
<g id="edge6" class="edge">
<title>12&#45;&gt;20</title>
<path fill="none" stroke="#c0c0c0" stroke-width="2" d="M3049.4725,-431.8314C3061.2861,-422.8779 3075.6972,-411.9558 3088.4435,-402.2955"/>
<polygon fill="#c0c0c0" stroke="#c0c0c0" stroke-width="2" points="3090.6795,-404.9925 3096.5352,-396.1628 3086.4514,-399.4137 3090.6795,-404.9925"/>
</g>
<!-- 12&#45;&gt;21 -->
<g id="edge30" class="edge">
<title>12&#45;&gt;21</title>
<path fill="none" stroke="#c0c0c0" stroke-width="2" d="M3018.0774,-431.7059C3007.8035,-404.6881 2990.5,-352.3101 2990.5,-306 2990.5,-306 2990.5,-306 2990.5,-234 2990.5,-193.1184 2990.2714,-180.0773 3009.5,-144 3019.996,-124.3071 3059.0173,-80.8562 3079.5,-72 3156.5388,-38.6903 5916.0332,-20.4403 6271.0299,-18.2285"/>
<polygon fill="#c0c0c0" stroke="#c0c0c0" stroke-width="2" points="6271.3054,-21.7269 6281.2835,-18.1649 6271.2619,-14.727 6271.3054,-21.7269"/>
</g>
<!-- 13 -->
<g id="node14" class="node">
<title>13</title>
<path fill="none" stroke="#d8c356" stroke-width="2" stroke-dasharray="5,2" d="M3228,-396C3228,-396 3183,-396 3183,-396 3177,-396 3171,-390 3171,-384 3171,-384 3171,-372 3171,-372 3171,-366 3177,-360 3183,-360 3183,-360 3228,-360 3228,-360 3234,-360 3240,-366 3240,-372 3240,-372 3240,-384 3240,-384 3240,-390 3234,-396 3228,-396"/>
<text text-anchor="middle" x="3205.5" y="-375.5" font-family="sans" font-size="10.00" fill="#000000">clean_bulk</text>
</g>
<!-- 13&#45;&gt;1 -->
<g id="edge2" class="edge">
<title>13&#45;&gt;1</title>
<path fill="none" stroke="#c0c0c0" stroke-width="2" d="M3186.5743,-359.8314C3177.5143,-351.1337 3166.5191,-340.5783 3156.6735,-331.1265"/>
<polygon fill="#c0c0c0" stroke="#c0c0c0" stroke-width="2" points="3159.0574,-328.5633 3149.4196,-324.1628 3154.2096,-333.613 3159.0574,-328.5633"/>
</g>
<!-- 22 -->
<g id="node23" class="node">
<title>22</title>
<path fill="none" stroke="#56d8c9" stroke-width="2" stroke-dasharray="5,2" d="M3291,-180C3291,-180 3196,-180 3196,-180 3190,-180 3184,-174 3184,-168 3184,-168 3184,-156 3184,-156 3184,-150 3190,-144 3196,-144 3196,-144 3291,-144 3291,-144 3297,-144 3303,-150 3303,-156 3303,-156 3303,-168 3303,-168 3303,-174 3297,-180 3291,-180"/>
<text text-anchor="middle" x="3243.5" y="-159.5" font-family="sans" font-size="10.00" fill="#000000">diffential_expression</text>
</g>
<!-- 13&#45;&gt;22 -->
<g id="edge46" class="edge">
<title>13&#45;&gt;22</title>
<path fill="none" stroke="#c0c0c0" stroke-width="2" d="M3208.6745,-359.9555C3215.2965,-322.3144 3230.6246,-235.1867 3238.5522,-190.1246"/>
<polygon fill="#c0c0c0" stroke="#c0c0c0" stroke-width="2" points="3242.0221,-190.6003 3240.3078,-180.1451 3235.128,-189.3874 3242.0221,-190.6003"/>
</g>
<!-- 13&#45;&gt;30 -->
<g id="edge48" class="edge">
<title>13&#45;&gt;30</title>
<path fill="none" stroke="#c0c0c0" stroke-width="2" d="M3201.8799,-359.903C3197.6241,-341.0983 3189.4511,-311.2275 3176.5,-288 3170.898,-277.9529 3163.26,-268.0486 3155.8176,-259.5204"/>
<polygon fill="#c0c0c0" stroke="#c0c0c0" stroke-width="2" points="3158.4107,-257.1697 3149.1018,-252.1107 3153.2241,-261.8707 3158.4107,-257.1697"/>
</g>
<!-- 14 -->
<g id="node15" class="node">
<title>14</title>
<path fill="none" stroke="#d87d56" stroke-width="2" stroke-dasharray="5,2" d="M4111,-108C4111,-108 3712,-108 3712,-108 3706,-108 3700,-102 3700,-96 3700,-96 3700,-84 3700,-84 3700,-78 3706,-72 3712,-72 3712,-72 4111,-72 4111,-72 4117,-72 4123,-78 4123,-84 4123,-84 4123,-96 4123,-96 4123,-102 4117,-108 4111,-108"/>
<text text-anchor="middle" x="3911.5" y="-93" font-family="sans" font-size="10.00" fill="#000000">fastqc</text>
<text text-anchor="middle" x="3911.5" y="-82" font-family="sans" font-size="10.00" fill="#000000">sample_path: data/raw/fastq/B6_M_CM_RNA_5/B6_M_CM_RNA_5_S31_L002_R1_001</text>
</g>
<!-- 14&#45;&gt;21 -->
<g id="edge33" class="edge">
<title>14&#45;&gt;21</title>
<path fill="none" stroke="#c0c0c0" stroke-width="2" d="M4123.1222,-72.4611C4125.9319,-72.3016 4128.7256,-72.1478 4131.5,-72 4997.9728,-25.8445 6060.5883,-19.0452 6271.2258,-18.1323"/>
<polygon fill="#c0c0c0" stroke="#c0c0c0" stroke-width="2" points="6271.4494,-21.6315 6281.4347,-18.0899 6271.4202,-14.6316 6271.4494,-21.6315"/>
</g>
<!-- 15 -->
<g id="node16" class="node">
<title>15</title>
<path fill="none" stroke="#d87d56" stroke-width="2" stroke-dasharray="5,2" d="M4546,-108C4546,-108 4153,-108 4153,-108 4147,-108 4141,-102 4141,-96 4141,-96 4141,-84 4141,-84 4141,-78 4147,-72 4153,-72 4153,-72 4546,-72 4546,-72 4552,-72 4558,-78 4558,-84 4558,-84 4558,-96 4558,-96 4558,-102 4552,-108 4546,-108"/>
<text text-anchor="middle" x="4349.5" y="-93" font-family="sans" font-size="10.00" fill="#000000">fastqc</text>
<text text-anchor="middle" x="4349.5" y="-82" font-family="sans" font-size="10.00" fill="#000000">sample_path: data/raw/fastq/B6_F_CM_RNA_2/B6_F_CM_RNA_2_S33_L002_R2_001</text>
</g>
<!-- 15&#45;&gt;21 -->
<g id="edge44" class="edge">
<title>15&#45;&gt;21</title>
<path fill="none" stroke="#c0c0c0" stroke-width="2" d="M4558.0465,-72.5537C4561.2192,-72.3623 4564.372,-72.1775 4567.5,-72 5250.9055,-33.2132 6086.9115,-20.7992 6271.3626,-18.4443"/>
<polygon fill="#c0c0c0" stroke="#c0c0c0" stroke-width="2" points="6271.407,-21.9441 6281.3621,-18.3184 6271.3188,-14.9447 6271.407,-21.9441"/>
</g>
<!-- 16 -->
<g id="node17" class="node">
<title>16</title>
<path fill="none" stroke="#d87d56" stroke-width="2" stroke-dasharray="5,2" d="M4972.5,-108C4972.5,-108 4588.5,-108 4588.5,-108 4582.5,-108 4576.5,-102 4576.5,-96 4576.5,-96 4576.5,-84 4576.5,-84 4576.5,-78 4582.5,-72 4588.5,-72 4588.5,-72 4972.5,-72 4972.5,-72 4978.5,-72 4984.5,-78 4984.5,-84 4984.5,-84 4984.5,-96 4984.5,-96 4984.5,-102 4978.5,-108 4972.5,-108"/>
<text text-anchor="middle" x="4780.5" y="-93" font-family="sans" font-size="10.00" fill="#000000">fastqc</text>
<text text-anchor="middle" x="4780.5" y="-82" font-family="sans" font-size="10.00" fill="#000000">sample_path: data/raw/fastq/B6_F_Fib_RNA_4/B6_F_Fib_RNA_4_S7_L002_R1_001</text>
</g>
<!-- 16&#45;&gt;21 -->
<g id="edge36" class="edge">
<title>16&#45;&gt;21</title>
<path fill="none" stroke="#c0c0c0" stroke-width="2" d="M4984.5467,-72.5752C4987.5511,-72.3779 4990.537,-72.186 4993.5,-72 5498.9719,-40.2784 6114.9656,-23.0056 6271.1428,-18.9421"/>
<polygon fill="#c0c0c0" stroke="#c0c0c0" stroke-width="2" points="6271.2668,-22.4401 6281.173,-18.6829 6271.0859,-15.4425 6271.2668,-22.4401"/>
</g>
<!-- 17 -->
<g id="node18" class="node">
<title>17</title>
<path fill="none" stroke="#d87d56" stroke-width="2" stroke-dasharray="5,2" d="M5408,-108C5408,-108 5015,-108 5015,-108 5009,-108 5003,-102 5003,-96 5003,-96 5003,-84 5003,-84 5003,-78 5009,-72 5015,-72 5015,-72 5408,-72 5408,-72 5414,-72 5420,-78 5420,-84 5420,-84 5420,-96 5420,-96 5420,-102 5414,-108 5408,-108"/>
<text text-anchor="middle" x="5211.5" y="-93" font-family="sans" font-size="10.00" fill="#000000">fastqc</text>
<text text-anchor="middle" x="5211.5" y="-82" font-family="sans" font-size="10.00" fill="#000000">sample_path: data/raw/fastq/B6_F_CM_RNA_1/B6_F_CM_RNA_1_S32_L002_R2_001</text>
</g>
<!-- 17&#45;&gt;21 -->
<g id="edge37" class="edge">
<title>17&#45;&gt;21</title>
<path fill="none" stroke="#c0c0c0" stroke-width="2" d="M5420.2448,-72.6011C5423.0136,-72.3977 5425.7664,-72.1972 5428.5,-72 5754.9008,-48.4508 6149.8895,-26.5723 6271.2499,-19.9988"/>
<polygon fill="#c0c0c0" stroke="#c0c0c0" stroke-width="2" points="6271.6846,-23.4805 6281.4811,-19.4458 6271.3068,-16.4907 6271.6846,-23.4805"/>
</g>
<!-- 18 -->
<g id="node19" class="node">
<title>18</title>
<path fill="none" stroke="#d87d56" stroke-width="2" stroke-dasharray="5,2" d="M5849,-108C5849,-108 5450,-108 5450,-108 5444,-108 5438,-102 5438,-96 5438,-96 5438,-84 5438,-84 5438,-78 5444,-72 5450,-72 5450,-72 5849,-72 5849,-72 5855,-72 5861,-78 5861,-84 5861,-84 5861,-96 5861,-96 5861,-102 5855,-108 5849,-108"/>
<text text-anchor="middle" x="5649.5" y="-93" font-family="sans" font-size="10.00" fill="#000000">fastqc</text>
<text text-anchor="middle" x="5649.5" y="-82" font-family="sans" font-size="10.00" fill="#000000">sample_path: data/raw/fastq/B6_M_CM_RNA_5/B6_M_CM_RNA_5_S31_L002_R2_001</text>
</g>
<!-- 18&#45;&gt;21 -->
<g id="edge39" class="edge">
<title>18&#45;&gt;21</title>
<path fill="none" stroke="#c0c0c0" stroke-width="2" d="M5814.5181,-71.9707C5967.866,-55.2165 6185.1399,-31.4779 6271.2605,-22.0687"/>
<polygon fill="#c0c0c0" stroke="#c0c0c0" stroke-width="2" points="6271.7773,-25.5331 6281.3379,-20.9676 6271.0169,-18.5745 6271.7773,-25.5331"/>
</g>
<!-- 19 -->
<g id="node20" class="node">
<title>19</title>
<path fill="none" stroke="#d87d56" stroke-width="2" stroke-dasharray="5,2" d="M6290,-108C6290,-108 5891,-108 5891,-108 5885,-108 5879,-102 5879,-96 5879,-96 5879,-84 5879,-84 5879,-78 5885,-72 5891,-72 5891,-72 6290,-72 6290,-72 6296,-72 6302,-78 6302,-84 6302,-84 6302,-96 6302,-96 6302,-102 6296,-108 6290,-108"/>
<text text-anchor="middle" x="6090.5" y="-93" font-family="sans" font-size="10.00" fill="#000000">fastqc</text>
<text text-anchor="middle" x="6090.5" y="-82" font-family="sans" font-size="10.00" fill="#000000">sample_path: data/raw/fastq/B6_M_CM_RNA_4/B6_M_CM_RNA_4_S11_L002_R1_001</text>
</g>
<!-- 19&#45;&gt;21 -->
<g id="edge40" class="edge">
<title>19&#45;&gt;21</title>
<path fill="none" stroke="#c0c0c0" stroke-width="2" d="M6145.2292,-71.9243C6184.7181,-58.8821 6236.9656,-41.626 6271.601,-30.1868"/>
<polygon fill="#c0c0c0" stroke="#c0c0c0" stroke-width="2" points="6272.9159,-33.4386 6281.3138,-26.9789 6270.7206,-26.7917 6272.9159,-33.4386"/>
</g>
<!-- 20&#45;&gt;1 -->
<g id="edge1" class="edge">
<title>20&#45;&gt;1</title>
<path fill="none" stroke="#c0c0c0" stroke-width="2" d="M3123.0234,-359.8314C3124.0929,-352.131 3125.3647,-342.9743 3126.5532,-334.4166"/>
<polygon fill="#c0c0c0" stroke="#c0c0c0" stroke-width="2" points="3130.0336,-334.7997 3127.9426,-324.4133 3123.1001,-333.8367 3130.0336,-334.7997"/>
</g>
<!-- 32 -->
<g id="node33" class="node">
<title>32</title>
<path fill="none" stroke="#56d87b" stroke-width="2" stroke-dasharray="5,2" d="M3199.5,-108C3199.5,-108 3169.5,-108 3169.5,-108 3163.5,-108 3157.5,-102 3157.5,-96 3157.5,-96 3157.5,-84 3157.5,-84 3157.5,-78 3163.5,-72 3169.5,-72 3169.5,-72 3199.5,-72 3199.5,-72 3205.5,-72 3211.5,-78 3211.5,-84 3211.5,-84 3211.5,-96 3211.5,-96 3211.5,-102 3205.5,-108 3199.5,-108"/>
<text text-anchor="middle" x="3184.5" y="-87.5" font-family="sans" font-size="10.00" fill="#000000">plot_de</text>
</g>
<!-- 22&#45;&gt;32 -->
<g id="edge49" class="edge">
<title>22&#45;&gt;32</title>
<path fill="none" stroke="#c0c0c0" stroke-width="2" d="M3228.6118,-143.8314C3221.747,-135.454 3213.4699,-125.3531 3205.9489,-116.1749"/>
<polygon fill="#c0c0c0" stroke="#c0c0c0" stroke-width="2" points="3208.6341,-113.9297 3199.5886,-108.4133 3203.2197,-118.3665 3208.6341,-113.9297"/>
</g>
<!-- 23 -->
<g id="node24" class="node">
<title>23</title>
<path fill="none" stroke="#d87d56" stroke-width="2" stroke-dasharray="5,2" d="M6722.5,-108C6722.5,-108 6332.5,-108 6332.5,-108 6326.5,-108 6320.5,-102 6320.5,-96 6320.5,-96 6320.5,-84 6320.5,-84 6320.5,-78 6326.5,-72 6332.5,-72 6332.5,-72 6722.5,-72 6722.5,-72 6728.5,-72 6734.5,-78 6734.5,-84 6734.5,-84 6734.5,-96 6734.5,-96 6734.5,-102 6728.5,-108 6722.5,-108"/>
<text text-anchor="middle" x="6527.5" y="-93" font-family="sans" font-size="10.00" fill="#000000">fastqc</text>
<text text-anchor="middle" x="6527.5" y="-82" font-family="sans" font-size="10.00" fill="#000000">sample_path: data/raw/fastq/B6_F_Fib_RNA_3/B6_F_Fib_RNA_3_S25_L002_R2_001</text>
</g>
<!-- 23&#45;&gt;21 -->
<g id="edge42" class="edge">
<title>23&#45;&gt;21</title>
<path fill="none" stroke="#c0c0c0" stroke-width="2" d="M6472.5197,-71.9243C6432.7344,-58.8442 6380.0573,-41.5257 6345.2653,-30.0872"/>
<polygon fill="#c0c0c0" stroke="#c0c0c0" stroke-width="2" points="6346.1074,-26.6798 6335.5145,-26.8815 6343.9211,-33.3297 6346.1074,-26.6798"/>
</g>
<!-- 24 -->
<g id="node25" class="node">
<title>24</title>
<path fill="none" stroke="#d87d56" stroke-width="2" stroke-dasharray="5,2" d="M7158,-108C7158,-108 6765,-108 6765,-108 6759,-108 6753,-102 6753,-96 6753,-96 6753,-84 6753,-84 6753,-78 6759,-72 6765,-72 6765,-72 7158,-72 7158,-72 7164,-72 7170,-78 7170,-84 7170,-84 7170,-96 7170,-96 7170,-102 7164,-108 7158,-108"/>
<text text-anchor="middle" x="6961.5" y="-93" font-family="sans" font-size="10.00" fill="#000000">fastqc</text>
<text text-anchor="middle" x="6961.5" y="-82" font-family="sans" font-size="10.00" fill="#000000">sample_path: data/raw/fastq/B6_F_CM_RNA_5/B6_F_CM_RNA_5_S36_L002_R2_001</text>
</g>
<!-- 24&#45;&gt;21 -->
<g id="edge7" class="edge">
<title>24&#45;&gt;21</title>
<path fill="none" stroke="#c0c0c0" stroke-width="2" d="M6797.9843,-71.9707C6646.214,-55.2365 6431.2507,-31.5345 6345.7065,-22.1024"/>
<polygon fill="#c0c0c0" stroke="#c0c0c0" stroke-width="2" points="6346.0153,-18.6153 6335.692,-20.9982 6345.2481,-25.5732 6346.0153,-18.6153"/>
</g>
<!-- 25 -->
<g id="node26" class="node">
<title>25</title>
<path fill="none" stroke="#d87d56" stroke-width="2" stroke-dasharray="5,2" d="M7593,-108C7593,-108 7200,-108 7200,-108 7194,-108 7188,-102 7188,-96 7188,-96 7188,-84 7188,-84 7188,-78 7194,-72 7200,-72 7200,-72 7593,-72 7593,-72 7599,-72 7605,-78 7605,-84 7605,-84 7605,-96 7605,-96 7605,-102 7599,-108 7593,-108"/>
<text text-anchor="middle" x="7396.5" y="-93" font-family="sans" font-size="10.00" fill="#000000">fastqc</text>
<text text-anchor="middle" x="7396.5" y="-82" font-family="sans" font-size="10.00" fill="#000000">sample_path: data/raw/fastq/B6_F_CM_RNA_4/B6_F_CM_RNA_4_S35_L002_R2_001</text>
</g>
<!-- 25&#45;&gt;21 -->
<g id="edge8" class="edge">
<title>25&#45;&gt;21</title>
<path fill="none" stroke="#c0c0c0" stroke-width="2" d="M7187.9447,-72.6898C7184.7747,-72.4561 7181.6249,-72.226 7178.5,-72 6856.1643,-48.6915 6466.1911,-26.6929 6345.7355,-20.0389"/>
<polygon fill="#c0c0c0" stroke="#c0c0c0" stroke-width="2" points="6345.7524,-16.5346 6335.5749,-19.4787 6345.367,-23.524 6345.7524,-16.5346"/>
</g>
<!-- 26 -->
<g id="node27" class="node">
<title>26</title>
<path fill="none" stroke="#d87d56" stroke-width="2" stroke-dasharray="5,2" d="M8034,-108C8034,-108 7635,-108 7635,-108 7629,-108 7623,-102 7623,-96 7623,-96 7623,-84 7623,-84 7623,-78 7629,-72 7635,-72 7635,-72 8034,-72 8034,-72 8040,-72 8046,-78 8046,-84 8046,-84 8046,-96 8046,-96 8046,-102 8040,-108 8034,-108"/>
<text text-anchor="middle" x="7834.5" y="-93" font-family="sans" font-size="10.00" fill="#000000">fastqc</text>
<text text-anchor="middle" x="7834.5" y="-82" font-family="sans" font-size="10.00" fill="#000000">sample_path: data/raw/fastq/B6_M_CM_RNA_3/B6_M_CM_RNA_3_S10_L002_R2_001</text>
</g>
<!-- 26&#45;&gt;21 -->
<g id="edge9" class="edge">
<title>26&#45;&gt;21</title>
<path fill="none" stroke="#c0c0c0" stroke-width="2" d="M7622.7881,-72.5829C7619.6714,-72.3832 7616.5738,-72.1887 7613.5,-72 7112.3242,-41.2333 6501.7708,-23.2894 6346.0364,-19.0048"/>
<polygon fill="#c0c0c0" stroke="#c0c0c0" stroke-width="2" points="6345.7092,-15.4946 6335.6172,-18.7199 6345.5178,-22.492 6345.7092,-15.4946"/>
</g>
<!-- 27 -->
<g id="node28" class="node">
<title>27</title>
<path fill="none" stroke="#d87d56" stroke-width="2" stroke-dasharray="5,2" d="M8460.5,-108C8460.5,-108 8076.5,-108 8076.5,-108 8070.5,-108 8064.5,-102 8064.5,-96 8064.5,-96 8064.5,-84 8064.5,-84 8064.5,-78 8070.5,-72 8076.5,-72 8076.5,-72 8460.5,-72 8460.5,-72 8466.5,-72 8472.5,-78 8472.5,-84 8472.5,-84 8472.5,-96 8472.5,-96 8472.5,-102 8466.5,-108 8460.5,-108"/>
<text text-anchor="middle" x="8268.5" y="-93" font-family="sans" font-size="10.00" fill="#000000">fastqc</text>
<text text-anchor="middle" x="8268.5" y="-82" font-family="sans" font-size="10.00" fill="#000000">sample_path: data/raw/fastq/B6_F_Fib_RNA_5/B6_F_Fib_RNA_5_S8_L002_R1_001</text>
</g>
<!-- 27&#45;&gt;21 -->
<g id="edge27" class="edge">
<title>27&#45;&gt;21</title>
<path fill="none" stroke="#c0c0c0" stroke-width="2" d="M8064.3473,-72.5855C8061.0413,-72.3826 8057.757,-72.1872 8054.5,-72 7369.162,-32.6071 6530.7318,-20.6588 6345.7453,-18.4199"/>
<polygon fill="#c0c0c0" stroke="#c0c0c0" stroke-width="2" points="6345.7578,-14.9199 6335.7167,-18.3004 6345.6743,-21.9194 6345.7578,-14.9199"/>
</g>
<!-- 28 -->
<g id="node29" class="node">
<title>28</title>
<path fill="none" stroke="#d87d56" stroke-width="2" stroke-dasharray="5,2" d="M8896,-108C8896,-108 8503,-108 8503,-108 8497,-108 8491,-102 8491,-96 8491,-96 8491,-84 8491,-84 8491,-78 8497,-72 8503,-72 8503,-72 8896,-72 8896,-72 8902,-72 8908,-78 8908,-84 8908,-84 8908,-96 8908,-96 8908,-102 8902,-108 8896,-108"/>
<text text-anchor="middle" x="8699.5" y="-93" font-family="sans" font-size="10.00" fill="#000000">fastqc</text>
<text text-anchor="middle" x="8699.5" y="-82" font-family="sans" font-size="10.00" fill="#000000">sample_path: data/raw/fastq/B6_F_CM_RNA_4/B6_F_CM_RNA_4_S35_L002_R1_001</text>
</g>
<!-- 28&#45;&gt;21 -->
<g id="edge12" class="edge">
<title>28&#45;&gt;21</title>
<path fill="none" stroke="#c0c0c0" stroke-width="2" d="M8490.955,-72.5266C8487.7818,-72.3437 8484.6285,-72.1679 8481.5,-72 7616.6366,-25.5871 6555.9598,-18.992 6345.7063,-18.1241"/>
<polygon fill="#c0c0c0" stroke="#c0c0c0" stroke-width="2" points="6345.5298,-14.6234 6335.516,-18.0838 6345.5021,-21.6234 6345.5298,-14.6234"/>
</g>
<!-- 29 -->
<g id="node30" class="node">
<title>29</title>
<path fill="none" stroke="#d87d56" stroke-width="2" stroke-dasharray="5,2" d="M9328.5,-108C9328.5,-108 8938.5,-108 8938.5,-108 8932.5,-108 8926.5,-102 8926.5,-96 8926.5,-96 8926.5,-84 8926.5,-84 8926.5,-78 8932.5,-72 8938.5,-72 8938.5,-72 9328.5,-72 9328.5,-72 9334.5,-72 9340.5,-78 9340.5,-84 9340.5,-84 9340.5,-96 9340.5,-96 9340.5,-102 9334.5,-108 9328.5,-108"/>
<text text-anchor="middle" x="9133.5" y="-93" font-family="sans" font-size="10.00" fill="#000000">fastqc</text>
<text text-anchor="middle" x="9133.5" y="-82" font-family="sans" font-size="10.00" fill="#000000">sample_path: data/raw/fastq/B6_F_Fib_RNA_1/B6_F_Fib_RNA_1_S23_L002_R1_001</text>
</g>
<!-- 29&#45;&gt;21 -->
<g id="edge14" class="edge">
<title>29&#45;&gt;21</title>
<path fill="none" stroke="#c0c0c0" stroke-width="2" d="M8926.4873,-72.5403C8923.1344,-72.3514 8919.8033,-72.171 8916.5,-72 8384.0162,-44.4294 6624.5889,-21.8914 6345.8469,-18.4541"/>
<polygon fill="#c0c0c0" stroke="#c0c0c0" stroke-width="2" points="6345.8768,-14.9543 6335.8345,-18.331 6345.7907,-21.9538 6345.8768,-14.9543"/>
</g>
<!-- 30&#45;&gt;22 -->
<g id="edge45" class="edge">
<title>30&#45;&gt;22</title>
<path fill="none" stroke="#c0c0c0" stroke-width="2" d="M3159.0147,-215.8314C3173.3342,-206.7074 3190.8624,-195.539 3206.2338,-185.7449"/>
<polygon fill="#c0c0c0" stroke="#c0c0c0" stroke-width="2" points="3208.4417,-188.4882 3214.9945,-180.1628 3204.6801,-182.5847 3208.4417,-188.4882"/>
</g>
<!-- 35 -->
<g id="node36" class="node">
<title>35</title>
<path fill="none" stroke="#56c9d8" stroke-width="2" stroke-dasharray="5,2" d="M3062.5,-180C3062.5,-180 3030.5,-180 3030.5,-180 3024.5,-180 3018.5,-174 3018.5,-168 3018.5,-168 3018.5,-156 3018.5,-156 3018.5,-150 3024.5,-144 3030.5,-144 3030.5,-144 3062.5,-144 3062.5,-144 3068.5,-144 3074.5,-150 3074.5,-156 3074.5,-156 3074.5,-168 3074.5,-168 3074.5,-174 3068.5,-180 3062.5,-180"/>
<text text-anchor="middle" x="3046.5" y="-159.5" font-family="sans" font-size="10.00" fill="#000000">dirichlet</text>
</g>
<!-- 30&#45;&gt;35 -->
<g id="edge50" class="edge">
<title>30&#45;&gt;35</title>
<path fill="none" stroke="#c0c0c0" stroke-width="2" d="M3109.3033,-215.8314C3099.0566,-207.0485 3086.5997,-196.3712 3075.4903,-186.8489"/>
<polygon fill="#c0c0c0" stroke="#c0c0c0" stroke-width="2" points="3077.5603,-184.0134 3067.69,-180.1628 3073.0048,-189.3282 3077.5603,-184.0134"/>
</g>
<!-- 42 -->
<g id="node43" class="node">
<title>42</title>
<path fill="none" stroke="#59d856" stroke-width="2" stroke-dasharray="5,2" d="M3154,-180C3154,-180 3105,-180 3105,-180 3099,-180 3093,-174 3093,-168 3093,-168 3093,-156 3093,-156 3093,-150 3099,-144 3105,-144 3105,-144 3154,-144 3154,-144 3160,-144 3166,-150 3166,-156 3166,-156 3166,-168 3166,-168 3166,-174 3160,-180 3154,-180"/>
<text text-anchor="middle" x="3129.5" y="-159.5" font-family="sans" font-size="10.00" fill="#000000">plot_comps</text>
</g>
<!-- 30&#45;&gt;42 -->
<g id="edge51" class="edge">
<title>30&#45;&gt;42</title>
<path fill="none" stroke="#c0c0c0" stroke-width="2" d="M3130.2477,-215.8314C3130.1407,-208.131 3130.0135,-198.9743 3129.8947,-190.4166"/>
<polygon fill="#c0c0c0" stroke="#c0c0c0" stroke-width="2" points="3133.3944,-190.3637 3129.7557,-180.4133 3126.3951,-190.4609 3133.3944,-190.3637"/>
</g>
<!-- 31 -->
<g id="node32" class="node">
<title>31</title>
<path fill="none" stroke="#d87d56" stroke-width="2" stroke-dasharray="5,2" d="M9764,-108C9764,-108 9371,-108 9371,-108 9365,-108 9359,-102 9359,-96 9359,-96 9359,-84 9359,-84 9359,-78 9365,-72 9371,-72 9371,-72 9764,-72 9764,-72 9770,-72 9776,-78 9776,-84 9776,-84 9776,-96 9776,-96 9776,-102 9770,-108 9764,-108"/>
<text text-anchor="middle" x="9567.5" y="-93" font-family="sans" font-size="10.00" fill="#000000">fastqc</text>
<text text-anchor="middle" x="9567.5" y="-82" font-family="sans" font-size="10.00" fill="#000000">sample_path: data/raw/fastq/B6_F_CM_RNA_3/B6_F_CM_RNA_3_S34_L002_R1_001</text>
</g>
<!-- 31&#45;&gt;21 -->
<g id="edge17" class="edge">
<title>31&#45;&gt;21</title>
<path fill="none" stroke="#c0c0c0" stroke-width="2" d="M9358.9566,-72.4954C9355.7829,-72.3222 9352.6291,-72.1568 9349.5,-72 8724.3944,-40.6756 6649.2635,-21.0591 6345.6935,-18.3285"/>
<polygon fill="#c0c0c0" stroke="#c0c0c0" stroke-width="2" points="6345.6782,-14.8283 6335.6472,-18.2385 6345.6154,-21.828 6345.6782,-14.8283"/>
</g>
<!-- 32&#45;&gt;21 -->
<g id="edge18" class="edge">
<title>32&#45;&gt;21</title>
<path fill="none" stroke="#c0c0c0" stroke-width="2" d="M3211.7867,-76.2576C3216.271,-74.5167 3220.9437,-72.9979 3225.5,-72 3381.7027,-37.7908 5932.6299,-20.3948 6271.4363,-18.2311"/>
<polygon fill="#c0c0c0" stroke="#c0c0c0" stroke-width="2" points="6271.49,-21.7309 6281.4675,-18.1674 6271.4454,-14.7311 6271.49,-21.7309"/>
</g>
<!-- 33 -->
<g id="node34" class="node">
<title>33</title>
<path fill="none" stroke="#d87d56" stroke-width="2" stroke-dasharray="5,2" d="M10196.5,-108C10196.5,-108 9806.5,-108 9806.5,-108 9800.5,-108 9794.5,-102 9794.5,-96 9794.5,-96 9794.5,-84 9794.5,-84 9794.5,-78 9800.5,-72 9806.5,-72 9806.5,-72 10196.5,-72 10196.5,-72 10202.5,-72 10208.5,-78 10208.5,-84 10208.5,-84 10208.5,-96 10208.5,-96 10208.5,-102 10202.5,-108 10196.5,-108"/>
<text text-anchor="middle" x="10001.5" y="-93" font-family="sans" font-size="10.00" fill="#000000">fastqc</text>
<text text-anchor="middle" x="10001.5" y="-82" font-family="sans" font-size="10.00" fill="#000000">sample_path: data/raw/fastq/B6_F_Fib_RNA_3/B6_F_Fib_RNA_3_S25_L002_R1_001</text>
</g>
<!-- 33&#45;&gt;21 -->
<g id="edge20" class="edge">
<title>33&#45;&gt;21</title>
<path fill="none" stroke="#c0c0c0" stroke-width="2" d="M9794.2991,-72.4542C9791.3472,-72.2954 9788.4128,-72.1438 9785.5,-72 9067.4369,-36.5454 6675.9474,-20.3214 6346.3011,-18.2334"/>
<polygon fill="#c0c0c0" stroke="#c0c0c0" stroke-width="2" points="6345.894,-14.7309 6335.8722,-18.1677 6345.8499,-21.7307 6345.894,-14.7309"/>
</g>
<!-- 34 -->
<g id="node35" class="node">
<title>34</title>
<path fill="none" stroke="#d87d56" stroke-width="2" stroke-dasharray="5,2" d="M10634.5,-108C10634.5,-108 10238.5,-108 10238.5,-108 10232.5,-108 10226.5,-102 10226.5,-96 10226.5,-96 10226.5,-84 10226.5,-84 10226.5,-78 10232.5,-72 10238.5,-72 10238.5,-72 10634.5,-72 10634.5,-72 10640.5,-72 10646.5,-78 10646.5,-84 10646.5,-84 10646.5,-96 10646.5,-96 10646.5,-102 10640.5,-108 10634.5,-108"/>
<text text-anchor="middle" x="10436.5" y="-93" font-family="sans" font-size="10.00" fill="#000000">fastqc</text>
<text text-anchor="middle" x="10436.5" y="-82" font-family="sans" font-size="10.00" fill="#000000">sample_path: data/raw/fastq/B6_M_Fib_RNA_2/B6_M_Fib_RNA_2_S21_L002_R2_001</text>
</g>
<!-- 34&#45;&gt;21 -->
<g id="edge16" class="edge">
<title>34&#45;&gt;21</title>
<path fill="none" stroke="#c0c0c0" stroke-width="2" d="M10226.4212,-72.4479C10223.4282,-72.2911 10220.4532,-72.1416 10217.5,-72 9406.4525,-33.1126 6696.6926,-19.7445 6346.0055,-18.1635"/>
<polygon fill="#c0c0c0" stroke="#c0c0c0" stroke-width="2" points="6345.886,-14.663 6335.8704,-18.1181 6345.8546,-21.6629 6345.886,-14.663"/>
</g>
<!-- 35&#45;&gt;21 -->
<g id="edge21" class="edge">
<title>35&#45;&gt;21</title>
<path fill="none" stroke="#c0c0c0" stroke-width="2" d="M3056.1747,-143.7637C3068.8284,-122.0771 3093.2393,-86.9394 3125.5,-72 3200.5382,-37.2512 5918.7028,-20.2702 6271.0087,-18.2135"/>
<polygon fill="#c0c0c0" stroke="#c0c0c0" stroke-width="2" points="6271.2116,-21.7125 6281.1911,-18.1544 6271.1709,-14.7126 6271.2116,-21.7125"/>
</g>
<!-- 36 -->
<g id="node37" class="node">
<title>36</title>
<path fill="none" stroke="#d87d56" stroke-width="2" stroke-dasharray="5,2" d="M11060.5,-108C11060.5,-108 10676.5,-108 10676.5,-108 10670.5,-108 10664.5,-102 10664.5,-96 10664.5,-96 10664.5,-84 10664.5,-84 10664.5,-78 10670.5,-72 10676.5,-72 10676.5,-72 11060.5,-72 11060.5,-72 11066.5,-72 11072.5,-78 11072.5,-84 11072.5,-84 11072.5,-96 11072.5,-96 11072.5,-102 11066.5,-108 11060.5,-108"/>
<text text-anchor="middle" x="10868.5" y="-93" font-family="sans" font-size="10.00" fill="#000000">fastqc</text>
<text text-anchor="middle" x="10868.5" y="-82" font-family="sans" font-size="10.00" fill="#000000">sample_path: data/raw/fastq/B6_F_Fib_RNA_4/B6_F_Fib_RNA_4_S7_L002_R2_001</text>
</g>
<!-- 36&#45;&gt;21 -->
<g id="edge22" class="edge">
<title>36&#45;&gt;21</title>
<path fill="none" stroke="#c0c0c0" stroke-width="2" d="M10664.4599,-72.4557C10661.4535,-72.2957 10658.4654,-72.1435 10655.5,-72 9750.3672,-28.1898 6718.4866,-19.0558 6346.1019,-18.0917"/>
<polygon fill="#c0c0c0" stroke="#c0c0c0" stroke-width="2" points="6345.8741,-14.5912 6335.8652,-18.0656 6345.8562,-21.5912 6345.8741,-14.5912"/>
</g>
<!-- 37 -->
<g id="node38" class="node">
<title>37</title>
<path fill="none" stroke="#d87d56" stroke-width="2" stroke-dasharray="5,2" d="M11502,-108C11502,-108 11103,-108 11103,-108 11097,-108 11091,-102 11091,-96 11091,-96 11091,-84 11091,-84 11091,-78 11097,-72 11103,-72 11103,-72 11502,-72 11502,-72 11508,-72 11514,-78 11514,-84 11514,-84 11514,-96 11514,-96 11514,-102 11508,-108 11502,-108"/>
<text text-anchor="middle" x="11302.5" y="-93" font-family="sans" font-size="10.00" fill="#000000">fastqc</text>
<text text-anchor="middle" x="11302.5" y="-82" font-family="sans" font-size="10.00" fill="#000000">sample_path: data/raw/fastq/B6_M_CM_RNA_1/B6_M_CM_RNA_1_S28_L002_R2_001</text>
</g>
<!-- 37&#45;&gt;21 -->
<g id="edge25" class="edge">
<title>37&#45;&gt;21</title>
<path fill="none" stroke="#c0c0c0" stroke-width="2" d="M11090.7951,-72.4529C11087.6762,-72.2937 11084.5763,-72.1425 11081.5,-72 10084.2717,-25.8044 6736.4607,-18.7317 6345.7991,-18.0591"/>
<polygon fill="#c0c0c0" stroke="#c0c0c0" stroke-width="2" points="6345.6126,-14.5589 6335.6067,-18.0419 6345.6007,-21.5589 6345.6126,-14.5589"/>
</g>
<!-- 38 -->
<g id="node39" class="node">
<title>38</title>
<path fill="none" stroke="#d87d56" stroke-width="2" stroke-dasharray="5,2" d="M11934.5,-108C11934.5,-108 11544.5,-108 11544.5,-108 11538.5,-108 11532.5,-102 11532.5,-96 11532.5,-96 11532.5,-84 11532.5,-84 11532.5,-78 11538.5,-72 11544.5,-72 11544.5,-72 11934.5,-72 11934.5,-72 11940.5,-72 11946.5,-78 11946.5,-84 11946.5,-84 11946.5,-96 11946.5,-96 11946.5,-102 11940.5,-108 11934.5,-108"/>
<text text-anchor="middle" x="11739.5" y="-93" font-family="sans" font-size="10.00" fill="#000000">fastqc</text>
<text text-anchor="middle" x="11739.5" y="-82" font-family="sans" font-size="10.00" fill="#000000">sample_path: data/raw/fastq/B6_M_Fib_RNA_3/B6_M_Fib_RNA_3_S3_L002_R2_001</text>
</g>
<!-- 38&#45;&gt;21 -->
<g id="edge26" class="edge">
<title>38&#45;&gt;21</title>
<path fill="none" stroke="#c0c0c0" stroke-width="2" d="M11532.3002,-72.433C11529.3479,-72.2808 11526.4131,-72.1363 11523.5,-72 10975.2492,-46.3518 6787.2072,-20.8459 6346.0644,-18.2216"/>
<polygon fill="#c0c0c0" stroke="#c0c0c0" stroke-width="2" points="6345.7995,-14.7201 6335.7789,-18.1605 6345.7579,-21.72 6345.7995,-14.7201"/>
</g>
<!-- 39 -->
<g id="node40" class="node">
<title>39</title>
<path fill="none" stroke="#d87d56" stroke-width="2" stroke-dasharray="5,2" d="M12370,-108C12370,-108 11977,-108 11977,-108 11971,-108 11965,-102 11965,-96 11965,-96 11965,-84 11965,-84 11965,-78 11971,-72 11977,-72 11977,-72 12370,-72 12370,-72 12376,-72 12382,-78 12382,-84 12382,-84 12382,-96 12382,-96 12382,-102 12376,-108 12370,-108"/>
<text text-anchor="middle" x="12173.5" y="-93" font-family="sans" font-size="10.00" fill="#000000">fastqc</text>
<text text-anchor="middle" x="12173.5" y="-82" font-family="sans" font-size="10.00" fill="#000000">sample_path: data/raw/fastq/B6_F_CM_RNA_5/B6_F_CM_RNA_5_S36_L002_R1_001</text>
</g>
<!-- 39&#45;&gt;21 -->
<g id="edge23" class="edge">
<title>39&#45;&gt;21</title>
<path fill="none" stroke="#c0c0c0" stroke-width="2" d="M11964.9583,-72.4594C11961.7841,-72.2974 11958.6297,-72.144 11955.5,-72 11360.3096,-44.6185 6803.8125,-20.5482 6345.617,-18.1893"/>
<polygon fill="#c0c0c0" stroke="#c0c0c0" stroke-width="2" points="6345.5776,-14.6892 6335.5597,-18.1377 6345.5416,-21.6891 6345.5776,-14.6892"/>
</g>
<!-- 40 -->
<g id="node41" class="node">
<title>40</title>
<path fill="none" stroke="#d87d56" stroke-width="2" stroke-dasharray="5,2" d="M12811,-108C12811,-108 12412,-108 12412,-108 12406,-108 12400,-102 12400,-96 12400,-96 12400,-84 12400,-84 12400,-78 12406,-72 12412,-72 12412,-72 12811,-72 12811,-72 12817,-72 12823,-78 12823,-84 12823,-84 12823,-96 12823,-96 12823,-102 12817,-108 12811,-108"/>
<text text-anchor="middle" x="12611.5" y="-93" font-family="sans" font-size="10.00" fill="#000000">fastqc</text>
<text text-anchor="middle" x="12611.5" y="-82" font-family="sans" font-size="10.00" fill="#000000">sample_path: data/raw/fastq/B6_M_CM_RNA_4/B6_M_CM_RNA_4_S11_L002_R2_001</text>
</g>
<!-- 40&#45;&gt;21 -->
<g id="edge32" class="edge">
<title>40&#45;&gt;21</title>
<path fill="none" stroke="#c0c0c0" stroke-width="2" d="M12399.8809,-72.3985C12397.0703,-72.2587 12394.2755,-72.1257 12391.5,-72 11749.1992,-42.9118 6824.5954,-20.3009 6345.8932,-18.1652"/>
<polygon fill="#c0c0c0" stroke="#c0c0c0" stroke-width="2" points="6345.7364,-14.6645 6335.7209,-18.1199 6345.7052,-21.6644 6345.7364,-14.6645"/>
</g>
<!-- 41 -->
<g id="node42" class="node">
<title>41</title>
<path fill="none" stroke="#d87d56" stroke-width="2" stroke-dasharray="5,2" d="M13249.5,-108C13249.5,-108 12853.5,-108 12853.5,-108 12847.5,-108 12841.5,-102 12841.5,-96 12841.5,-96 12841.5,-84 12841.5,-84 12841.5,-78 12847.5,-72 12853.5,-72 12853.5,-72 13249.5,-72 13249.5,-72 13255.5,-72 13261.5,-78 13261.5,-84 13261.5,-84 13261.5,-96 13261.5,-96 13261.5,-102 13255.5,-108 13249.5,-108"/>
<text text-anchor="middle" x="13051.5" y="-93" font-family="sans" font-size="10.00" fill="#000000">fastqc</text>
<text text-anchor="middle" x="13051.5" y="-82" font-family="sans" font-size="10.00" fill="#000000">sample_path: data/raw/fastq/B6_M_Fib_RNA_2/B6_M_Fib_RNA_2_S21_L002_R1_001</text>
</g>
<!-- 41&#45;&gt;21 -->
<g id="edge34" class="edge">
<title>41&#45;&gt;21</title>
<path fill="none" stroke="#c0c0c0" stroke-width="2" d="M12841.4222,-72.4249C12838.429,-72.2753 12835.4535,-72.1334 12832.5,-72 12142.4117,-40.8267 6843.2503,-20.0293 6345.9159,-18.1405"/>
<polygon fill="#c0c0c0" stroke="#c0c0c0" stroke-width="2" points="6345.7087,-14.6397 6335.6955,-18.1017 6345.6821,-21.6397 6345.7087,-14.6397"/>
</g>
<!-- 42&#45;&gt;21 -->
<g id="edge35" class="edge">
<title>42&#45;&gt;21</title>
<path fill="none" stroke="#c0c0c0" stroke-width="2" d="M3127.3793,-143.8332C3126.0713,-122.8977 3127.6839,-89.1772 3148.5,-72 3180.1768,-45.8606 5918.7908,-21.3635 6271.287,-18.3176"/>
<polygon fill="#c0c0c0" stroke="#c0c0c0" stroke-width="2" points="6271.4993,-21.816 6281.4688,-18.2299 6271.4389,-14.8163 6271.4993,-21.816"/>
</g>
<!-- 43 -->
<g id="node44" class="node">
<title>43</title>
<path fill="none" stroke="#d87d56" stroke-width="2" stroke-dasharray="5,2" d="M13691,-108C13691,-108 13292,-108 13292,-108 13286,-108 13280,-102 13280,-96 13280,-96 13280,-84 13280,-84 13280,-78 13286,-72 13292,-72 13292,-72 13691,-72 13691,-72 13697,-72 13703,-78 13703,-84 13703,-84 13703,-96 13703,-96 13703,-102 13697,-108 13691,-108"/>
<text text-anchor="middle" x="13491.5" y="-93" font-family="sans" font-size="10.00" fill="#000000">fastqc</text>
<text text-anchor="middle" x="13491.5" y="-82" font-family="sans" font-size="10.00" fill="#000000">sample_path: data/raw/fastq/B6_M_CM_RNA_1/B6_M_CM_RNA_1_S28_L002_R1_001</text>
</g>
<!-- 43&#45;&gt;21 -->
<g id="edge38" class="edge">
<title>43&#45;&gt;21</title>
<path fill="none" stroke="#c0c0c0" stroke-width="2" d="M13279.7958,-72.4374C13276.6767,-72.2831 13273.5766,-72.137 13270.5,-72 12532.9459,-39.148 6861.9718,-19.8173 6346.0465,-18.1218"/>
<polygon fill="#c0c0c0" stroke="#c0c0c0" stroke-width="2" points="6345.8114,-14.6211 6335.8,-18.0882 6345.7884,-21.6211 6345.8114,-14.6211"/>
</g>
<!-- 44 -->
<g id="node45" class="node">
<title>44</title>
<path fill="none" stroke="#d87d56" stroke-width="2" stroke-dasharray="5,2" d="M14123.5,-108C14123.5,-108 13733.5,-108 13733.5,-108 13727.5,-108 13721.5,-102 13721.5,-96 13721.5,-96 13721.5,-84 13721.5,-84 13721.5,-78 13727.5,-72 13733.5,-72 13733.5,-72 14123.5,-72 14123.5,-72 14129.5,-72 14135.5,-78 14135.5,-84 14135.5,-84 14135.5,-96 14135.5,-96 14135.5,-102 14129.5,-108 14123.5,-108"/>
<text text-anchor="middle" x="13928.5" y="-93" font-family="sans" font-size="10.00" fill="#000000">fastqc</text>
<text text-anchor="middle" x="13928.5" y="-82" font-family="sans" font-size="10.00" fill="#000000">sample_path: data/raw/fastq/B6_F_Fib_RNA_1/B6_F_Fib_RNA_1_S23_L002_R2_001</text>
</g>
<!-- 44&#45;&gt;21 -->
<g id="edge43" class="edge">
<title>44&#45;&gt;21</title>
<path fill="none" stroke="#c0c0c0" stroke-width="2" d="M13721.3008,-72.4204C13718.3483,-72.2722 13715.4133,-72.1318 13712.5,-72 12926.9588,-36.4558 6878.8123,-19.5252 6345.9725,-18.0987"/>
<polygon fill="#c0c0c0" stroke="#c0c0c0" stroke-width="2" points="6345.7666,-14.5983 6335.7573,-18.0715 6345.7479,-21.5983 6345.7666,-14.5983"/>
</g>
<!-- 45 -->
<g id="node46" class="node">
<title>45</title>
<path fill="none" stroke="#d87d56" stroke-width="2" stroke-dasharray="5,2" d="M14559,-108C14559,-108 14166,-108 14166,-108 14160,-108 14154,-102 14154,-96 14154,-96 14154,-84 14154,-84 14154,-78 14160,-72 14166,-72 14166,-72 14559,-72 14559,-72 14565,-72 14571,-78 14571,-84 14571,-84 14571,-96 14571,-96 14571,-102 14565,-108 14559,-108"/>
<text text-anchor="middle" x="14362.5" y="-93" font-family="sans" font-size="10.00" fill="#000000">fastqc</text>
<text text-anchor="middle" x="14362.5" y="-82" font-family="sans" font-size="10.00" fill="#000000">sample_path: data/raw/fastq/B6_F_CM_RNA_3/B6_F_CM_RNA_3_S34_L002_R2_001</text>
</g>
<!-- 45&#45;&gt;21 -->
<g id="edge31" class="edge">
<title>45&#45;&gt;21</title>
<path fill="none" stroke="#c0c0c0" stroke-width="2" d="M14153.9589,-72.4477C14150.7845,-72.2893 14147.6299,-72.1398 14144.5,-72 13311.8464,-34.8085 6892.6847,-19.3378 6345.6368,-18.0836"/>
<polygon fill="#c0c0c0" stroke="#c0c0c0" stroke-width="2" points="6345.5339,-14.5835 6335.5259,-18.0605 6345.5178,-21.5835 6345.5339,-14.5835"/>
</g>
</g>
</svg>
