<?xml version="1.0" encoding="UTF-8" standalone="no"?>
<!DOCTYPE svg PUBLIC "-//W3C//DTD SVG 1.1//EN"
 "http://www.w3.org/Graphics/SVG/1.1/DTD/svg11.dtd">
<!-- Generated by graphviz version 2.40.1 (0)
 -->
<!-- Title: snakemake_dag Pages: 1 -->
<svg width="323pt" height="764pt"
 viewBox="0.00 0.00 323.00 764.00" xmlns="http://www.w3.org/2000/svg" xmlns:xlink="http://www.w3.org/1999/xlink">
<g id="graph0" class="graph" transform="scale(1 1) rotate(0) translate(4 760)">
<title>snakemake_dag</title>
<polygon fill="#ffffff" stroke="transparent" points="-4,4 -4,-760 319,-760 319,4 -4,4"/>
<!-- 0 -->
<g id="node1" class="node">
<title>0</title>
<path fill="none" stroke="#d85656" stroke-width="2" d="M303,-612C303,-612 241,-612 241,-612 235,-612 229,-606 229,-600 229,-600 229,-588 229,-588 229,-582 235,-576 241,-576 241,-576 303,-576 303,-576 309,-576 315,-582 315,-588 315,-588 315,-600 315,-600 315,-606 309,-612 303,-612"/>
<text text-anchor="middle" x="272" y="-591.5" font-family="sans" font-size="10.00" fill="#000000">salmon_quant</text>
</g>
<!-- 5 -->
<g id="node6" class="node">
<title>5</title>
<path fill="none" stroke="#ced856" stroke-width="2" d="M202.5,-540C202.5,-540 167.5,-540 167.5,-540 161.5,-540 155.5,-534 155.5,-528 155.5,-528 155.5,-516 155.5,-516 155.5,-510 161.5,-504 167.5,-504 167.5,-504 202.5,-504 202.5,-504 208.5,-504 214.5,-510 214.5,-516 214.5,-516 214.5,-528 214.5,-528 214.5,-534 208.5,-540 202.5,-540"/>
<text text-anchor="middle" x="185" y="-519.5" font-family="sans" font-size="10.00" fill="#000000">tximport</text>
</g>
<!-- 0&#45;&gt;5 -->
<g id="edge6" class="edge">
<title>0&#45;&gt;5</title>
<path fill="none" stroke="#c0c0c0" stroke-width="2" d="M250.0462,-575.8314C239.3305,-566.9632 226.2811,-556.1637 214.691,-546.5718"/>
<polygon fill="#c0c0c0" stroke="#c0c0c0" stroke-width="2" points="216.8822,-543.8422 206.9467,-540.1628 212.4192,-549.2349 216.8822,-543.8422"/>
</g>
<!-- 11 -->
<g id="node12" class="node">
<title>11</title>
<path fill="none" stroke="#56d8b9" stroke-width="2" d="M287,-540C287,-540 257,-540 257,-540 251,-540 245,-534 245,-528 245,-528 245,-516 245,-516 245,-510 251,-504 257,-504 257,-504 287,-504 287,-504 293,-504 299,-510 299,-516 299,-516 299,-528 299,-528 299,-534 293,-540 287,-540"/>
<text text-anchor="middle" x="272" y="-519.5" font-family="sans" font-size="10.00" fill="#000000">multiqc</text>
</g>
<!-- 0&#45;&gt;11 -->
<g id="edge14" class="edge">
<title>0&#45;&gt;11</title>
<path fill="none" stroke="#c0c0c0" stroke-width="2" d="M272,-575.8314C272,-568.131 272,-558.9743 272,-550.4166"/>
<polygon fill="#c0c0c0" stroke="#c0c0c0" stroke-width="2" points="275.5001,-550.4132 272,-540.4133 268.5001,-550.4133 275.5001,-550.4132"/>
</g>
<!-- 1 -->
<g id="node2" class="node">
<title>1</title>
<path fill="none" stroke="#d87556" stroke-width="2" d="M105,-324C105,-324 55,-324 55,-324 49,-324 43,-318 43,-312 43,-312 43,-300 43,-300 43,-294 49,-288 55,-288 55,-288 105,-288 105,-288 111,-288 117,-294 117,-300 117,-300 117,-312 117,-312 117,-318 111,-324 105,-324"/>
<text text-anchor="middle" x="80" y="-303.5" font-family="sans" font-size="10.00" fill="#000000">findMarkers</text>
</g>
<!-- 10 -->
<g id="node11" class="node">
<title>10</title>
<path fill="none" stroke="#56a9d8" stroke-width="2" d="M137.5,-252C137.5,-252 84.5,-252 84.5,-252 78.5,-252 72.5,-246 72.5,-240 72.5,-240 72.5,-228 72.5,-228 72.5,-222 78.5,-216 84.5,-216 84.5,-216 137.5,-216 137.5,-216 143.5,-216 149.5,-222 149.5,-228 149.5,-228 149.5,-240 149.5,-240 149.5,-246 143.5,-252 137.5,-252"/>
<text text-anchor="middle" x="111" y="-231.5" font-family="sans" font-size="10.00" fill="#000000">deconvolute</text>
</g>
<!-- 1&#45;&gt;10 -->
<g id="edge12" class="edge">
<title>1&#45;&gt;10</title>
<path fill="none" stroke="#c0c0c0" stroke-width="2" d="M87.8226,-287.8314C91.2109,-279.9617 95.2541,-270.5712 99.0076,-261.8533"/>
<polygon fill="#c0c0c0" stroke="#c0c0c0" stroke-width="2" points="102.3321,-262.9822 103.0721,-252.4133 95.9027,-260.214 102.3321,-262.9822"/>
</g>
<!-- 16 -->
<g id="node17" class="node">
<title>16</title>
<path fill="none" stroke="#5673d8" stroke-width="2" d="M118,-36C118,-36 88,-36 88,-36 82,-36 76,-30 76,-24 76,-24 76,-12 76,-12 76,-6 82,0 88,0 88,0 118,0 118,0 124,0 130,-6 130,-12 130,-12 130,-24 130,-24 130,-30 124,-36 118,-36"/>
<text text-anchor="middle" x="103" y="-15.5" font-family="sans" font-size="10.00" fill="#000000">all</text>
</g>
<!-- 1&#45;&gt;16 -->
<g id="edge20" class="edge">
<title>1&#45;&gt;16</title>
<path fill="none" stroke="#c0c0c0" stroke-width="2" d="M72.9127,-287.7013C58.3994,-247.344 28.9329,-148.2305 57,-72 60.805,-61.6656 67.5644,-51.9621 74.75,-43.7098"/>
<polygon fill="#c0c0c0" stroke="#c0c0c0" stroke-width="2" points="77.4279,-45.9701 81.6873,-36.2692 72.308,-41.1965 77.4279,-45.9701"/>
</g>
<!-- 2 -->
<g id="node3" class="node">
<title>2</title>
<path fill="none" stroke="#d88d56" stroke-width="2" d="M72,-612C72,-612 40,-612 40,-612 34,-612 28,-606 28,-600 28,-600 28,-588 28,-588 28,-582 34,-576 40,-576 40,-576 72,-576 72,-576 78,-576 84,-582 84,-588 84,-588 84,-600 84,-600 84,-606 78,-612 72,-612"/>
<text text-anchor="middle" x="56" y="-591.5" font-family="sans" font-size="10.00" fill="#000000">load_gtf</text>
</g>
<!-- 2&#45;&gt;5 -->
<g id="edge7" class="edge">
<title>2&#45;&gt;5</title>
<path fill="none" stroke="#c0c0c0" stroke-width="2" d="M84.3096,-578.1993C102.5754,-568.0044 126.5664,-554.6141 146.5485,-543.4613"/>
<polygon fill="#c0c0c0" stroke="#c0c0c0" stroke-width="2" points="148.3862,-546.4439 155.4124,-538.514 144.9746,-540.3315 148.3862,-546.4439"/>
</g>
<!-- 2&#45;&gt;16 -->
<g id="edge21" class="edge">
<title>2&#45;&gt;16</title>
<path fill="none" stroke="#c0c0c0" stroke-width="2" d="M43.8488,-575.7857C27.3788,-549.2865 0,-498.0148 0,-450 0,-450 0,-450 0,-162 0,-112.7637 40.3277,-68.7636 70.5151,-42.7245"/>
<polygon fill="#c0c0c0" stroke="#c0c0c0" stroke-width="2" points="72.9078,-45.286 78.3289,-36.1831 68.4144,-39.9185 72.9078,-45.286"/>
</g>
<!-- 3 -->
<g id="node4" class="node">
<title>3</title>
<path fill="none" stroke="#d8ac56" stroke-width="2" d="M302.5,-684C302.5,-684 241.5,-684 241.5,-684 235.5,-684 229.5,-678 229.5,-672 229.5,-672 229.5,-660 229.5,-660 229.5,-654 235.5,-648 241.5,-648 241.5,-648 302.5,-648 302.5,-648 308.5,-648 314.5,-654 314.5,-660 314.5,-660 314.5,-672 314.5,-672 314.5,-678 308.5,-684 302.5,-684"/>
<text text-anchor="middle" x="272" y="-663.5" font-family="sans" font-size="10.00" fill="#000000">salmon_index</text>
</g>
<!-- 3&#45;&gt;0 -->
<g id="edge1" class="edge">
<title>3&#45;&gt;0</title>
<path fill="none" stroke="#c0c0c0" stroke-width="2" d="M272,-647.8314C272,-640.131 272,-630.9743 272,-622.4166"/>
<polygon fill="#c0c0c0" stroke="#c0c0c0" stroke-width="2" points="275.5001,-622.4132 272,-612.4133 268.5001,-622.4133 275.5001,-622.4132"/>
</g>
<!-- 4 -->
<g id="node5" class="node">
<title>4</title>
<path fill="none" stroke="#56d89a" stroke-width="2" d="M197.5,-396C197.5,-396 152.5,-396 152.5,-396 146.5,-396 140.5,-390 140.5,-384 140.5,-384 140.5,-372 140.5,-372 140.5,-366 146.5,-360 152.5,-360 152.5,-360 197.5,-360 197.5,-360 203.5,-360 209.5,-366 209.5,-372 209.5,-372 209.5,-384 209.5,-384 209.5,-390 203.5,-396 197.5,-396"/>
<text text-anchor="middle" x="175" y="-375.5" font-family="sans" font-size="10.00" fill="#000000">clean_bulk</text>
</g>
<!-- 4&#45;&gt;1 -->
<g id="edge3" class="edge">
<title>4&#45;&gt;1</title>
<path fill="none" stroke="#c0c0c0" stroke-width="2" d="M151.0275,-359.8314C139.2139,-350.8779 124.8028,-339.9558 112.0565,-330.2955"/>
<polygon fill="#c0c0c0" stroke="#c0c0c0" stroke-width="2" points="114.0486,-327.4137 103.9648,-324.1628 109.8205,-332.9925 114.0486,-327.4137"/>
</g>
<!-- 4&#45;&gt;10 -->
<g id="edge13" class="edge">
<title>4&#45;&gt;10</title>
<path fill="none" stroke="#c0c0c0" stroke-width="2" d="M166.8944,-359.7623C155.8821,-334.9846 136.0984,-290.4714 123.2639,-261.5939"/>
<polygon fill="#c0c0c0" stroke="#c0c0c0" stroke-width="2" points="126.2996,-259.8062 119.0398,-252.0896 119.9029,-262.6492 126.2996,-259.8062"/>
</g>
<!-- 14 -->
<g id="node15" class="node">
<title>14</title>
<path fill="none" stroke="#97d856" stroke-width="2" d="M231.5,-180C231.5,-180 136.5,-180 136.5,-180 130.5,-180 124.5,-174 124.5,-168 124.5,-168 124.5,-156 124.5,-156 124.5,-150 130.5,-144 136.5,-144 136.5,-144 231.5,-144 231.5,-144 237.5,-144 243.5,-150 243.5,-156 243.5,-156 243.5,-168 243.5,-168 243.5,-174 237.5,-180 231.5,-180"/>
<text text-anchor="middle" x="184" y="-159.5" font-family="sans" font-size="10.00" fill="#000000">diffential_expression</text>
</g>
<!-- 4&#45;&gt;14 -->
<g id="edge16" class="edge">
<title>4&#45;&gt;14</title>
<path fill="none" stroke="#c0c0c0" stroke-width="2" d="M175.7519,-359.9555C177.3169,-322.3938 180.9352,-235.5541 182.8162,-190.4103"/>
<polygon fill="#c0c0c0" stroke="#c0c0c0" stroke-width="2" points="186.3245,-190.2821 183.244,-180.1451 179.3306,-189.9907 186.3245,-190.2821"/>
</g>
<!-- 7 -->
<g id="node8" class="node">
<title>7</title>
<path fill="none" stroke="#61d856" stroke-width="2" d="M208,-468C208,-468 162,-468 162,-468 156,-468 150,-462 150,-456 150,-456 150,-444 150,-444 150,-438 156,-432 162,-432 162,-432 208,-432 208,-432 214,-432 220,-438 220,-444 220,-444 220,-456 220,-456 220,-462 214,-468 208,-468"/>
<text text-anchor="middle" x="185" y="-447.5" font-family="sans" font-size="10.00" fill="#000000">ensb2gene</text>
</g>
<!-- 5&#45;&gt;7 -->
<g id="edge10" class="edge">
<title>5&#45;&gt;7</title>
<path fill="none" stroke="#c0c0c0" stroke-width="2" d="M185,-503.8314C185,-496.131 185,-486.9743 185,-478.4166"/>
<polygon fill="#c0c0c0" stroke="#c0c0c0" stroke-width="2" points="188.5001,-478.4132 185,-468.4133 181.5001,-478.4133 188.5001,-478.4132"/>
</g>
<!-- 6 -->
<g id="node7" class="node">
<title>6</title>
<path fill="none" stroke="#80d856" stroke-width="2" d="M200,-108C200,-108 170,-108 170,-108 164,-108 158,-102 158,-96 158,-96 158,-84 158,-84 158,-78 164,-72 170,-72 170,-72 200,-72 200,-72 206,-72 212,-78 212,-84 212,-84 212,-96 212,-96 212,-102 206,-108 200,-108"/>
<text text-anchor="middle" x="185" y="-87.5" font-family="sans" font-size="10.00" fill="#000000">plot_de</text>
</g>
<!-- 6&#45;&gt;16 -->
<g id="edge23" class="edge">
<title>6&#45;&gt;16</title>
<path fill="none" stroke="#c0c0c0" stroke-width="2" d="M164.3079,-71.8314C154.3052,-63.0485 142.145,-52.3712 131.3001,-42.8489"/>
<polygon fill="#c0c0c0" stroke="#c0c0c0" stroke-width="2" points="133.5092,-40.1308 123.6854,-36.1628 128.8906,-45.3909 133.5092,-40.1308"/>
</g>
<!-- 7&#45;&gt;4 -->
<g id="edge5" class="edge">
<title>7&#45;&gt;4</title>
<path fill="none" stroke="#c0c0c0" stroke-width="2" d="M182.4766,-431.8314C181.4071,-424.131 180.1353,-414.9743 178.9468,-406.4166"/>
<polygon fill="#c0c0c0" stroke="#c0c0c0" stroke-width="2" points="182.3999,-405.8367 177.5574,-396.4133 175.4664,-406.7997 182.3999,-405.8367"/>
</g>
<!-- 8 -->
<g id="node9" class="node">
<title>8</title>
<path fill="none" stroke="#56d863" stroke-width="2" d="M120,-468C120,-468 40,-468 40,-468 34,-468 28,-462 28,-456 28,-456 28,-444 28,-444 28,-438 34,-432 40,-432 40,-432 120,-432 120,-432 126,-432 132,-438 132,-444 132,-444 132,-456 132,-456 132,-462 126,-468 120,-468"/>
<text text-anchor="middle" x="80" y="-447.5" font-family="sans" font-size="10.00" fill="#000000">ambient_doublets</text>
</g>
<!-- 17 -->
<g id="node18" class="node">
<title>17</title>
<path fill="none" stroke="#d8c356" stroke-width="2" d="M100.5,-396C100.5,-396 59.5,-396 59.5,-396 53.5,-396 47.5,-390 47.5,-384 47.5,-384 47.5,-372 47.5,-372 47.5,-366 53.5,-360 59.5,-360 59.5,-360 100.5,-360 100.5,-360 106.5,-360 112.5,-366 112.5,-372 112.5,-372 112.5,-384 112.5,-384 112.5,-390 106.5,-396 100.5,-396"/>
<text text-anchor="middle" x="80" y="-375.5" font-family="sans" font-size="10.00" fill="#000000">merge_sn</text>
</g>
<!-- 8&#45;&gt;17 -->
<g id="edge24" class="edge">
<title>8&#45;&gt;17</title>
<path fill="none" stroke="#c0c0c0" stroke-width="2" d="M80,-431.8314C80,-424.131 80,-414.9743 80,-406.4166"/>
<polygon fill="#c0c0c0" stroke="#c0c0c0" stroke-width="2" points="83.5001,-406.4132 80,-396.4133 76.5001,-406.4133 83.5001,-406.4132"/>
</g>
<!-- 9 -->
<g id="node10" class="node">
<title>9</title>
<path fill="none" stroke="#56d882" stroke-width="2" d="M199,-612C199,-612 169,-612 169,-612 163,-612 157,-606 157,-600 157,-600 157,-588 157,-588 157,-582 163,-576 169,-576 169,-576 199,-576 199,-576 205,-576 211,-582 211,-588 211,-588 211,-600 211,-600 211,-606 205,-612 199,-612"/>
<text text-anchor="middle" x="184" y="-591.5" font-family="sans" font-size="10.00" fill="#000000">fastqc</text>
</g>
<!-- 9&#45;&gt;5 -->
<g id="edge8" class="edge">
<title>9&#45;&gt;5</title>
<path fill="none" stroke="#c0c0c0" stroke-width="2" d="M184.2523,-575.8314C184.3593,-568.131 184.4865,-558.9743 184.6053,-550.4166"/>
<polygon fill="#c0c0c0" stroke="#c0c0c0" stroke-width="2" points="188.1049,-550.4609 184.7443,-540.4133 181.1056,-550.3637 188.1049,-550.4609"/>
</g>
<!-- 9&#45;&gt;11 -->
<g id="edge15" class="edge">
<title>9&#45;&gt;11</title>
<path fill="none" stroke="#c0c0c0" stroke-width="2" d="M206.2061,-575.8314C217.045,-566.9632 230.2444,-556.1637 241.9678,-546.5718"/>
<polygon fill="#c0c0c0" stroke="#c0c0c0" stroke-width="2" points="244.2777,-549.2041 249.801,-540.1628 239.845,-543.7864 244.2777,-549.2041"/>
</g>
<!-- 10&#45;&gt;14 -->
<g id="edge17" class="edge">
<title>10&#45;&gt;14</title>
<path fill="none" stroke="#c0c0c0" stroke-width="2" d="M129.421,-215.8314C138.1529,-207.219 148.7317,-196.7851 158.2423,-187.4048"/>
<polygon fill="#c0c0c0" stroke="#c0c0c0" stroke-width="2" points="160.923,-189.6769 165.5849,-180.1628 156.0075,-184.6931 160.923,-189.6769"/>
</g>
<!-- 15 -->
<g id="node16" class="node">
<title>15</title>
<path fill="none" stroke="#568ad8" stroke-width="2" d="M127.5,-108C127.5,-108 78.5,-108 78.5,-108 72.5,-108 66.5,-102 66.5,-96 66.5,-96 66.5,-84 66.5,-84 66.5,-78 72.5,-72 78.5,-72 78.5,-72 127.5,-72 127.5,-72 133.5,-72 139.5,-78 139.5,-84 139.5,-84 139.5,-96 139.5,-96 139.5,-102 133.5,-108 127.5,-108"/>
<text text-anchor="middle" x="103" y="-87.5" font-family="sans" font-size="10.00" fill="#000000">plot_comps</text>
</g>
<!-- 10&#45;&gt;15 -->
<g id="edge18" class="edge">
<title>10&#45;&gt;15</title>
<path fill="none" stroke="#c0c0c0" stroke-width="2" d="M109.9868,-215.7623C108.6223,-191.201 106.1804,-147.2474 104.5752,-118.3541"/>
<polygon fill="#c0c0c0" stroke="#c0c0c0" stroke-width="2" points="108.0544,-117.88 104.005,-108.0896 101.0652,-118.2684 108.0544,-117.88"/>
</g>
<!-- 11&#45;&gt;16 -->
<g id="edge19" class="edge">
<title>11&#45;&gt;16</title>
<path fill="none" stroke="#c0c0c0" stroke-width="2" d="M272,-503.8146C272,-476.4983 272,-423.25 272,-378 272,-378 272,-378 272,-162 272,-116.0242 254.883,-103.076 221,-72 197.8406,-50.7593 164.8875,-36.6339 139.6884,-28.1759"/>
<polygon fill="#c0c0c0" stroke="#c0c0c0" stroke-width="2" points="140.6955,-24.8233 130.1044,-25.1038 138.5588,-31.4892 140.6955,-24.8233"/>
</g>
<!-- 12 -->
<g id="node13" class="node">
<title>12</title>
<path fill="none" stroke="#56d8d0" stroke-width="2" d="M295,-756C295,-756 249,-756 249,-756 243,-756 237,-750 237,-744 237,-744 237,-732 237,-732 237,-726 243,-720 249,-720 249,-720 295,-720 295,-720 301,-720 307,-726 307,-732 307,-732 307,-744 307,-744 307,-750 301,-756 295,-756"/>
<text text-anchor="middle" x="272" y="-735.5" font-family="sans" font-size="10.00" fill="#000000">load_index</text>
</g>
<!-- 12&#45;&gt;3 -->
<g id="edge4" class="edge">
<title>12&#45;&gt;3</title>
<path fill="none" stroke="#c0c0c0" stroke-width="2" d="M272,-719.8314C272,-712.131 272,-702.9743 272,-694.4166"/>
<polygon fill="#c0c0c0" stroke="#c0c0c0" stroke-width="2" points="275.5001,-694.4132 272,-684.4133 268.5001,-694.4133 275.5001,-694.4132"/>
</g>
<!-- 13 -->
<g id="node14" class="node">
<title>13</title>
<path fill="none" stroke="#56c1d8" stroke-width="2" d="M95,-540C95,-540 65,-540 65,-540 59,-540 53,-534 53,-528 53,-528 53,-516 53,-516 53,-510 59,-504 65,-504 65,-504 95,-504 95,-504 101,-504 107,-510 107,-516 107,-516 107,-528 107,-528 107,-534 101,-540 95,-540"/>
<text text-anchor="middle" x="80" y="-519.5" font-family="sans" font-size="10.00" fill="#000000">load_sn</text>
</g>
<!-- 13&#45;&gt;8 -->
<g id="edge11" class="edge">
<title>13&#45;&gt;8</title>
<path fill="none" stroke="#c0c0c0" stroke-width="2" d="M80,-503.8314C80,-496.131 80,-486.9743 80,-478.4166"/>
<polygon fill="#c0c0c0" stroke="#c0c0c0" stroke-width="2" points="83.5001,-478.4132 80,-468.4133 76.5001,-478.4133 83.5001,-478.4132"/>
</g>
<!-- 14&#45;&gt;6 -->
<g id="edge9" class="edge">
<title>14&#45;&gt;6</title>
<path fill="none" stroke="#c0c0c0" stroke-width="2" d="M184.2523,-143.8314C184.3593,-136.131 184.4865,-126.9743 184.6053,-118.4166"/>
<polygon fill="#c0c0c0" stroke="#c0c0c0" stroke-width="2" points="188.1049,-118.4609 184.7443,-108.4133 181.1056,-118.3637 188.1049,-118.4609"/>
</g>
<!-- 15&#45;&gt;16 -->
<g id="edge22" class="edge">
<title>15&#45;&gt;16</title>
<path fill="none" stroke="#c0c0c0" stroke-width="2" d="M103,-71.8314C103,-64.131 103,-54.9743 103,-46.4166"/>
<polygon fill="#c0c0c0" stroke="#c0c0c0" stroke-width="2" points="106.5001,-46.4132 103,-36.4133 99.5001,-46.4133 106.5001,-46.4132"/>
</g>
<!-- 17&#45;&gt;1 -->
<g id="edge2" class="edge">
<title>17&#45;&gt;1</title>
<path fill="none" stroke="#c0c0c0" stroke-width="2" d="M80,-359.8314C80,-352.131 80,-342.9743 80,-334.4166"/>
<polygon fill="#c0c0c0" stroke="#c0c0c0" stroke-width="2" points="83.5001,-334.4132 80,-324.4133 76.5001,-334.4133 83.5001,-334.4132"/>
</g>
</g>
</svg>
