<?xml version="1.0" encoding="UTF-8" standalone="no"?>
<!DOCTYPE svg PUBLIC "-//W3C//DTD SVG 1.1//EN"
 "http://www.w3.org/Graphics/SVG/1.1/DTD/svg11.dtd">
<!-- Generated by graphviz version 2.40.1 (0)
 -->
<!-- Title: snakemake_dag Pages: 1 -->
<svg width="498pt" height="908pt"
 viewBox="0.00 0.00 497.50 908.00" xmlns="http://www.w3.org/2000/svg" xmlns:xlink="http://www.w3.org/1999/xlink">
<g id="graph0" class="graph" transform="scale(1 1) rotate(0) translate(4 904)">
<title>snakemake_dag</title>
<polygon fill="#ffffff" stroke="transparent" points="-4,4 -4,-904 493.5,-904 493.5,4 -4,4"/>
<!-- 0 -->
<g id="node1" class="node">
<title>0</title>
<path fill="none" stroke="#56d88a" stroke-width="2" d="M218.5,-36C218.5,-36 188.5,-36 188.5,-36 182.5,-36 176.5,-30 176.5,-24 176.5,-24 176.5,-12 176.5,-12 176.5,-6 182.5,0 188.5,0 188.5,0 218.5,0 218.5,0 224.5,0 230.5,-6 230.5,-12 230.5,-12 230.5,-24 230.5,-24 230.5,-30 224.5,-36 218.5,-36"/>
<text text-anchor="middle" x="203.5" y="-15.5" font-family="sans" font-size="10.00" fill="#000000">all</text>
</g>
<!-- 1 -->
<g id="node2" class="node">
<title>1</title>
<path fill="none" stroke="#d8d356" stroke-width="2" d="M89.5,-540C89.5,-540 59.5,-540 59.5,-540 53.5,-540 47.5,-534 47.5,-528 47.5,-528 47.5,-516 47.5,-516 47.5,-510 53.5,-504 59.5,-504 59.5,-504 89.5,-504 89.5,-504 95.5,-504 101.5,-510 101.5,-516 101.5,-516 101.5,-528 101.5,-528 101.5,-534 95.5,-540 89.5,-540"/>
<text text-anchor="middle" x="74.5" y="-519.5" font-family="sans" font-size="10.00" fill="#000000">multiqc</text>
</g>
<!-- 1&#45;&gt;0 -->
<g id="edge1" class="edge">
<title>1&#45;&gt;0</title>
<path fill="none" stroke="#c0c0c0" stroke-width="2" d="M69.7344,-503.9623C62.9975,-476.8344 51.5,-423.8236 51.5,-378 51.5,-378 51.5,-378 51.5,-162 51.5,-116.0242 69.5933,-104.1081 102.5,-72 120.8057,-54.1385 146.2145,-40.5933 166.9669,-31.5362"/>
<polygon fill="#c0c0c0" stroke="#c0c0c0" stroke-width="2" points="168.559,-34.664 176.4296,-27.5715 165.8538,-28.2078 168.559,-34.664"/>
</g>
<!-- 2 -->
<g id="node3" class="node">
<title>2</title>
<path fill="none" stroke="#56d873" stroke-width="2" d="M134.5,-612C134.5,-612 72.5,-612 72.5,-612 66.5,-612 60.5,-606 60.5,-600 60.5,-600 60.5,-588 60.5,-588 60.5,-582 66.5,-576 72.5,-576 72.5,-576 134.5,-576 134.5,-576 140.5,-576 146.5,-582 146.5,-588 146.5,-588 146.5,-600 146.5,-600 146.5,-606 140.5,-612 134.5,-612"/>
<text text-anchor="middle" x="103.5" y="-591.5" font-family="sans" font-size="10.00" fill="#000000">salmon_quant</text>
</g>
<!-- 2&#45;&gt;1 -->
<g id="edge11" class="edge">
<title>2&#45;&gt;1</title>
<path fill="none" stroke="#c0c0c0" stroke-width="2" d="M96.1821,-575.8314C93.0124,-567.9617 89.23,-558.5712 85.7187,-549.8533"/>
<polygon fill="#c0c0c0" stroke="#c0c0c0" stroke-width="2" points="88.8992,-548.3815 81.9165,-540.4133 82.4061,-550.9968 88.8992,-548.3815"/>
</g>
<!-- 18 -->
<g id="node19" class="node">
<title>18</title>
<path fill="none" stroke="#d87d56" stroke-width="2" d="M239,-540C239,-540 204,-540 204,-540 198,-540 192,-534 192,-528 192,-528 192,-516 192,-516 192,-510 198,-504 204,-504 204,-504 239,-504 239,-504 245,-504 251,-510 251,-516 251,-516 251,-528 251,-528 251,-534 245,-540 239,-540"/>
<text text-anchor="middle" x="221.5" y="-519.5" font-family="sans" font-size="10.00" fill="#000000">tximport</text>
</g>
<!-- 2&#45;&gt;18 -->
<g id="edge29" class="edge">
<title>2&#45;&gt;18</title>
<path fill="none" stroke="#c0c0c0" stroke-width="2" d="M133.2764,-575.8314C148.3693,-566.6221 166.8757,-555.3301 183.0343,-545.4706"/>
<polygon fill="#c0c0c0" stroke="#c0c0c0" stroke-width="2" points="185.0198,-548.3593 191.7331,-540.1628 181.3737,-542.3838 185.0198,-548.3593"/>
</g>
<!-- 3 -->
<g id="node4" class="node">
<title>3</title>
<path fill="none" stroke="#56d8a2" stroke-width="2" d="M134,-684C134,-684 73,-684 73,-684 67,-684 61,-678 61,-672 61,-672 61,-660 61,-660 61,-654 67,-648 73,-648 73,-648 134,-648 134,-648 140,-648 146,-654 146,-660 146,-660 146,-672 146,-672 146,-678 140,-684 134,-684"/>
<text text-anchor="middle" x="103.5" y="-663.5" font-family="sans" font-size="10.00" fill="#000000">salmon_index</text>
</g>
<!-- 3&#45;&gt;2 -->
<g id="edge12" class="edge">
<title>3&#45;&gt;2</title>
<path fill="none" stroke="#c0c0c0" stroke-width="2" d="M103.5,-647.8314C103.5,-640.131 103.5,-630.9743 103.5,-622.4166"/>
<polygon fill="#c0c0c0" stroke="#c0c0c0" stroke-width="2" points="107.0001,-622.4132 103.5,-612.4133 100.0001,-622.4133 107.0001,-622.4132"/>
</g>
<!-- 4 -->
<g id="node5" class="node">
<title>4</title>
<path fill="none" stroke="#61d856" stroke-width="2" d="M85,-828C85,-828 12,-828 12,-828 6,-828 0,-822 0,-816 0,-816 0,-804 0,-804 0,-798 6,-792 12,-792 12,-792 85,-792 85,-792 91,-792 97,-798 97,-804 97,-804 97,-816 97,-816 97,-822 91,-828 85,-828"/>
<text text-anchor="middle" x="48.5" y="-807.5" font-family="sans" font-size="10.00" fill="#000000">make_gentrome</text>
</g>
<!-- 4&#45;&gt;3 -->
<g id="edge14" class="edge">
<title>4&#45;&gt;3</title>
<path fill="none" stroke="#c0c0c0" stroke-width="2" d="M55.4658,-791.7623C64.9295,-766.9846 81.9311,-722.4714 92.9607,-693.5939"/>
<polygon fill="#c0c0c0" stroke="#c0c0c0" stroke-width="2" points="96.2923,-694.6803 96.5908,-684.0896 89.753,-692.1826 96.2923,-694.6803"/>
</g>
<!-- 5 -->
<g id="node6" class="node">
<title>5</title>
<path fill="none" stroke="#88d856" stroke-width="2" d="M186,-900C186,-900 127,-900 127,-900 121,-900 115,-894 115,-888 115,-888 115,-876 115,-876 115,-870 121,-864 127,-864 127,-864 186,-864 186,-864 192,-864 198,-870 198,-876 198,-876 198,-888 198,-888 198,-894 192,-900 186,-900"/>
<text text-anchor="middle" x="156.5" y="-879.5" font-family="sans" font-size="10.00" fill="#000000">load_toplevel</text>
</g>
<!-- 5&#45;&gt;4 -->
<g id="edge16" class="edge">
<title>5&#45;&gt;4</title>
<path fill="none" stroke="#c0c0c0" stroke-width="2" d="M129.247,-863.8314C115.5611,-854.7074 98.8085,-843.539 84.1173,-833.7449"/>
<polygon fill="#c0c0c0" stroke="#c0c0c0" stroke-width="2" points="86.0062,-830.7977 75.7442,-828.1628 82.1233,-836.6221 86.0062,-830.7977"/>
</g>
<!-- 8 -->
<g id="node9" class="node">
<title>8</title>
<path fill="none" stroke="#c6d856" stroke-width="2" d="M193.5,-828C193.5,-828 127.5,-828 127.5,-828 121.5,-828 115.5,-822 115.5,-816 115.5,-816 115.5,-804 115.5,-804 115.5,-798 121.5,-792 127.5,-792 127.5,-792 193.5,-792 193.5,-792 199.5,-792 205.5,-798 205.5,-804 205.5,-804 205.5,-816 205.5,-816 205.5,-822 199.5,-828 193.5,-828"/>
<text text-anchor="middle" x="160.5" y="-807.5" font-family="sans" font-size="10.00" fill="#000000">make_decoy_1</text>
</g>
<!-- 5&#45;&gt;8 -->
<g id="edge18" class="edge">
<title>5&#45;&gt;8</title>
<path fill="none" stroke="#c0c0c0" stroke-width="2" d="M157.5094,-863.8314C157.9372,-856.131 158.4459,-846.9743 158.9213,-838.4166"/>
<polygon fill="#c0c0c0" stroke="#c0c0c0" stroke-width="2" points="162.4169,-838.592 159.477,-828.4133 155.4276,-838.2037 162.4169,-838.592"/>
</g>
<!-- 6 -->
<g id="node7" class="node">
<title>6</title>
<path fill="none" stroke="#56d0d8" stroke-width="2" d="M81,-900C81,-900 16,-900 16,-900 10,-900 4,-894 4,-888 4,-888 4,-876 4,-876 4,-870 10,-864 16,-864 16,-864 81,-864 81,-864 87,-864 93,-870 93,-876 93,-876 93,-888 93,-888 93,-894 87,-900 81,-900"/>
<text text-anchor="middle" x="48.5" y="-879.5" font-family="sans" font-size="10.00" fill="#000000">load_transcript</text>
</g>
<!-- 6&#45;&gt;4 -->
<g id="edge15" class="edge">
<title>6&#45;&gt;4</title>
<path fill="none" stroke="#c0c0c0" stroke-width="2" d="M48.5,-863.8314C48.5,-856.131 48.5,-846.9743 48.5,-838.4166"/>
<polygon fill="#c0c0c0" stroke="#c0c0c0" stroke-width="2" points="52.0001,-838.4132 48.5,-828.4133 45.0001,-838.4133 52.0001,-838.4132"/>
</g>
<!-- 7 -->
<g id="node8" class="node">
<title>7</title>
<path fill="none" stroke="#d85656" stroke-width="2" d="M183.5,-756C183.5,-756 117.5,-756 117.5,-756 111.5,-756 105.5,-750 105.5,-744 105.5,-744 105.5,-732 105.5,-732 105.5,-726 111.5,-720 117.5,-720 117.5,-720 183.5,-720 183.5,-720 189.5,-720 195.5,-726 195.5,-732 195.5,-732 195.5,-744 195.5,-744 195.5,-750 189.5,-756 183.5,-756"/>
<text text-anchor="middle" x="150.5" y="-735.5" font-family="sans" font-size="10.00" fill="#000000">make_decoy_2</text>
</g>
<!-- 7&#45;&gt;3 -->
<g id="edge13" class="edge">
<title>7&#45;&gt;3</title>
<path fill="none" stroke="#c0c0c0" stroke-width="2" d="M138.6399,-719.8314C133.3371,-711.7079 126.9763,-701.9637 121.1327,-693.0118"/>
<polygon fill="#c0c0c0" stroke="#c0c0c0" stroke-width="2" points="123.9169,-690.8739 115.5198,-684.4133 118.0552,-694.7003 123.9169,-690.8739"/>
</g>
<!-- 8&#45;&gt;7 -->
<g id="edge17" class="edge">
<title>8&#45;&gt;7</title>
<path fill="none" stroke="#c0c0c0" stroke-width="2" d="M157.9766,-791.8314C156.9071,-784.131 155.6353,-774.9743 154.4468,-766.4166"/>
<polygon fill="#c0c0c0" stroke="#c0c0c0" stroke-width="2" points="157.8999,-765.8367 153.0574,-756.4133 150.9664,-766.7997 157.8999,-765.8367"/>
</g>
<!-- 9 -->
<g id="node10" class="node">
<title>9</title>
<path fill="none" stroke="#d89556" stroke-width="2" d="M221.5,-612C221.5,-612 191.5,-612 191.5,-612 185.5,-612 179.5,-606 179.5,-600 179.5,-600 179.5,-588 179.5,-588 179.5,-582 185.5,-576 191.5,-576 191.5,-576 221.5,-576 221.5,-576 227.5,-576 233.5,-582 233.5,-588 233.5,-588 233.5,-600 233.5,-600 233.5,-606 227.5,-612 221.5,-612"/>
<text text-anchor="middle" x="206.5" y="-591.5" font-family="sans" font-size="10.00" fill="#000000">fastqc</text>
</g>
<!-- 9&#45;&gt;1 -->
<g id="edge10" class="edge">
<title>9&#45;&gt;1</title>
<path fill="none" stroke="#c0c0c0" stroke-width="2" d="M179.4693,-579.256C159.6699,-568.4563 132.5807,-553.6804 110.8811,-541.8442"/>
<polygon fill="#c0c0c0" stroke="#c0c0c0" stroke-width="2" points="112.4031,-538.6877 101.9482,-536.9717 109.0511,-544.8329 112.4031,-538.6877"/>
</g>
<!-- 9&#45;&gt;18 -->
<g id="edge28" class="edge">
<title>9&#45;&gt;18</title>
<path fill="none" stroke="#c0c0c0" stroke-width="2" d="M210.2851,-575.8314C211.8894,-568.131 213.797,-558.9743 215.5799,-550.4166"/>
<polygon fill="#c0c0c0" stroke="#c0c0c0" stroke-width="2" points="219.0507,-550.9169 217.6639,-540.4133 212.1979,-549.4892 219.0507,-550.9169"/>
</g>
<!-- 10 -->
<g id="node11" class="node">
<title>10</title>
<path fill="none" stroke="#5692d8" stroke-width="2" d="M255,-180C255,-180 206,-180 206,-180 200,-180 194,-174 194,-168 194,-168 194,-156 194,-156 194,-150 200,-144 206,-144 206,-144 255,-144 255,-144 261,-144 267,-150 267,-156 267,-156 267,-168 267,-168 267,-174 261,-180 255,-180"/>
<text text-anchor="middle" x="230.5" y="-159.5" font-family="sans" font-size="10.00" fill="#000000">plot_comps</text>
</g>
<!-- 10&#45;&gt;0 -->
<g id="edge6" class="edge">
<title>10&#45;&gt;0</title>
<path fill="none" stroke="#c0c0c0" stroke-width="2" d="M227.0804,-143.7623C222.4549,-119.0928 214.1612,-74.8598 208.745,-45.9731"/>
<polygon fill="#c0c0c0" stroke="#c0c0c0" stroke-width="2" points="212.1748,-45.2733 206.8918,-36.0896 205.2947,-46.5634 212.1748,-45.2733"/>
</g>
<!-- 11 -->
<g id="node12" class="node">
<title>11</title>
<path fill="none" stroke="#56d8b1" stroke-width="2" d="M313,-252C313,-252 260,-252 260,-252 254,-252 248,-246 248,-240 248,-240 248,-228 248,-228 248,-222 254,-216 260,-216 260,-216 313,-216 313,-216 319,-216 325,-222 325,-228 325,-228 325,-240 325,-240 325,-246 319,-252 313,-252"/>
<text text-anchor="middle" x="286.5" y="-231.5" font-family="sans" font-size="10.00" fill="#000000">deconvolute</text>
</g>
<!-- 11&#45;&gt;10 -->
<g id="edge19" class="edge">
<title>11&#45;&gt;10</title>
<path fill="none" stroke="#c0c0c0" stroke-width="2" d="M272.3688,-215.8314C265.9189,-207.5386 258.1555,-197.557 251.0748,-188.4533"/>
<polygon fill="#c0c0c0" stroke="#c0c0c0" stroke-width="2" points="253.7236,-186.158 244.8214,-180.4133 248.1981,-190.4556 253.7236,-186.158"/>
</g>
<!-- 19 -->
<g id="node20" class="node">
<title>19</title>
<path fill="none" stroke="#5682d8" stroke-width="2" d="M329.5,-180C329.5,-180 297.5,-180 297.5,-180 291.5,-180 285.5,-174 285.5,-168 285.5,-168 285.5,-156 285.5,-156 285.5,-150 291.5,-144 297.5,-144 297.5,-144 329.5,-144 329.5,-144 335.5,-144 341.5,-150 341.5,-156 341.5,-156 341.5,-168 341.5,-168 341.5,-174 335.5,-180 329.5,-180"/>
<text text-anchor="middle" x="313.5" y="-159.5" font-family="sans" font-size="10.00" fill="#000000">dirichlet</text>
</g>
<!-- 11&#45;&gt;19 -->
<g id="edge30" class="edge">
<title>11&#45;&gt;19</title>
<path fill="none" stroke="#c0c0c0" stroke-width="2" d="M293.3132,-215.8314C296.2644,-207.9617 299.7858,-198.5712 303.055,-189.8533"/>
<polygon fill="#c0c0c0" stroke="#c0c0c0" stroke-width="2" points="306.3609,-191.0055 306.595,-180.4133 299.8066,-188.5476 306.3609,-191.0055"/>
</g>
<!-- 21 -->
<g id="node22" class="node">
<title>21</title>
<path fill="none" stroke="#d86e56" stroke-width="2" d="M467,-180C467,-180 372,-180 372,-180 366,-180 360,-174 360,-168 360,-168 360,-156 360,-156 360,-150 366,-144 372,-144 372,-144 467,-144 467,-144 473,-144 479,-150 479,-156 479,-156 479,-168 479,-168 479,-174 473,-180 467,-180"/>
<text text-anchor="middle" x="419.5" y="-159.5" font-family="sans" font-size="10.00" fill="#000000">diffential_expression</text>
</g>
<!-- 11&#45;&gt;21 -->
<g id="edge33" class="edge">
<title>11&#45;&gt;21</title>
<path fill="none" stroke="#c0c0c0" stroke-width="2" d="M320.0615,-215.8314C337.3881,-206.4516 358.7058,-194.9112 377.1536,-184.9244"/>
<polygon fill="#c0c0c0" stroke="#c0c0c0" stroke-width="2" points="378.8214,-188.0015 385.9492,-180.1628 375.4889,-181.8457 378.8214,-188.0015"/>
</g>
<!-- 12 -->
<g id="node13" class="node">
<title>12</title>
<path fill="none" stroke="#78d856" stroke-width="2" d="M217.5,-324C217.5,-324 167.5,-324 167.5,-324 161.5,-324 155.5,-318 155.5,-312 155.5,-312 155.5,-300 155.5,-300 155.5,-294 161.5,-288 167.5,-288 167.5,-288 217.5,-288 217.5,-288 223.5,-288 229.5,-294 229.5,-300 229.5,-300 229.5,-312 229.5,-312 229.5,-318 223.5,-324 217.5,-324"/>
<text text-anchor="middle" x="192.5" y="-303.5" font-family="sans" font-size="10.00" fill="#000000">findMarkers</text>
</g>
<!-- 12&#45;&gt;0 -->
<g id="edge7" class="edge">
<title>12&#45;&gt;0</title>
<path fill="none" stroke="#c0c0c0" stroke-width="2" d="M171.1873,-287.7308C161.6866,-278.1756 151.521,-265.6372 146.5,-252 140.9718,-236.9854 144.4933,-231.8737 146.5,-216 154.3737,-153.7175 178.2404,-83.7752 192.4717,-45.9466"/>
<polygon fill="#c0c0c0" stroke="#c0c0c0" stroke-width="2" points="195.9105,-46.7522 196.2089,-36.1616 189.3712,-44.2547 195.9105,-46.7522"/>
</g>
<!-- 12&#45;&gt;11 -->
<g id="edge20" class="edge">
<title>12&#45;&gt;11</title>
<path fill="none" stroke="#c0c0c0" stroke-width="2" d="M216.2202,-287.8314C227.9094,-278.8779 242.1688,-267.9558 254.7809,-258.2955"/>
<polygon fill="#c0c0c0" stroke="#c0c0c0" stroke-width="2" points="256.9769,-261.0222 262.7874,-252.1628 252.7203,-255.4651 256.9769,-261.0222"/>
</g>
<!-- 23 -->
<g id="node24" class="node">
<title>23</title>
<path fill="none" stroke="#56d863" stroke-width="2" d="M217.5,-252C217.5,-252 167.5,-252 167.5,-252 161.5,-252 155.5,-246 155.5,-240 155.5,-240 155.5,-228 155.5,-228 155.5,-222 161.5,-216 167.5,-216 167.5,-216 217.5,-216 217.5,-216 223.5,-216 229.5,-222 229.5,-228 229.5,-228 229.5,-240 229.5,-240 229.5,-246 223.5,-252 217.5,-252"/>
<text text-anchor="middle" x="192.5" y="-231.5" font-family="sans" font-size="10.00" fill="#000000">plotMarkers</text>
</g>
<!-- 12&#45;&gt;23 -->
<g id="edge35" class="edge">
<title>12&#45;&gt;23</title>
<path fill="none" stroke="#c0c0c0" stroke-width="2" d="M192.5,-287.8314C192.5,-280.131 192.5,-270.9743 192.5,-262.4166"/>
<polygon fill="#c0c0c0" stroke="#c0c0c0" stroke-width="2" points="196.0001,-262.4132 192.5,-252.4133 189.0001,-262.4133 196.0001,-262.4132"/>
</g>
<!-- 13 -->
<g id="node14" class="node">
<title>13</title>
<path fill="none" stroke="#56a9d8" stroke-width="2" d="M204,-396C204,-396 163,-396 163,-396 157,-396 151,-390 151,-384 151,-384 151,-372 151,-372 151,-366 157,-360 163,-360 163,-360 204,-360 204,-360 210,-360 216,-366 216,-372 216,-372 216,-384 216,-384 216,-390 210,-396 204,-396"/>
<text text-anchor="middle" x="183.5" y="-375.5" font-family="sans" font-size="10.00" fill="#000000">merge_sn</text>
</g>
<!-- 13&#45;&gt;12 -->
<g id="edge22" class="edge">
<title>13&#45;&gt;12</title>
<path fill="none" stroke="#c0c0c0" stroke-width="2" d="M185.7711,-359.8314C186.7336,-352.131 187.8782,-342.9743 188.9479,-334.4166"/>
<polygon fill="#c0c0c0" stroke="#c0c0c0" stroke-width="2" points="192.4309,-334.7702 190.1983,-324.4133 185.4849,-333.9019 192.4309,-334.7702"/>
</g>
<!-- 14 -->
<g id="node15" class="node">
<title>14</title>
<path fill="none" stroke="#9fd856" stroke-width="2" d="M215.5,-468C215.5,-468 135.5,-468 135.5,-468 129.5,-468 123.5,-462 123.5,-456 123.5,-456 123.5,-444 123.5,-444 123.5,-438 129.5,-432 135.5,-432 135.5,-432 215.5,-432 215.5,-432 221.5,-432 227.5,-438 227.5,-444 227.5,-444 227.5,-456 227.5,-456 227.5,-462 221.5,-468 215.5,-468"/>
<text text-anchor="middle" x="175.5" y="-447.5" font-family="sans" font-size="10.00" fill="#000000">ambient_doublets</text>
</g>
<!-- 14&#45;&gt;13 -->
<g id="edge24" class="edge">
<title>14&#45;&gt;13</title>
<path fill="none" stroke="#c0c0c0" stroke-width="2" d="M177.5187,-431.8314C178.3743,-424.131 179.3917,-414.9743 180.3426,-406.4166"/>
<polygon fill="#c0c0c0" stroke="#c0c0c0" stroke-width="2" points="183.8283,-406.7386 181.4541,-396.4133 176.8711,-405.9656 183.8283,-406.7386"/>
</g>
<!-- 15 -->
<g id="node16" class="node">
<title>15</title>
<path fill="none" stroke="#d8bc56" stroke-width="2" d="M161.5,-540C161.5,-540 131.5,-540 131.5,-540 125.5,-540 119.5,-534 119.5,-528 119.5,-528 119.5,-516 119.5,-516 119.5,-510 125.5,-504 131.5,-504 131.5,-504 161.5,-504 161.5,-504 167.5,-504 173.5,-510 173.5,-516 173.5,-516 173.5,-528 173.5,-528 173.5,-534 167.5,-540 161.5,-540"/>
<text text-anchor="middle" x="146.5" y="-519.5" font-family="sans" font-size="10.00" fill="#000000">load_sn</text>
</g>
<!-- 15&#45;&gt;0 -->
<g id="edge4" class="edge">
<title>15&#45;&gt;0</title>
<path fill="none" stroke="#c0c0c0" stroke-width="2" d="M134.1318,-503.8166C117.3677,-477.3548 89.5,-426.1283 89.5,-378 89.5,-378 89.5,-378 89.5,-162 89.5,-110.5591 134.7736,-66.7654 168.2591,-41.4096"/>
<polygon fill="#c0c0c0" stroke="#c0c0c0" stroke-width="2" points="170.4971,-44.1084 176.4836,-35.367 166.3525,-38.4672 170.4971,-44.1084"/>
</g>
<!-- 15&#45;&gt;14 -->
<g id="edge25" class="edge">
<title>15&#45;&gt;14</title>
<path fill="none" stroke="#c0c0c0" stroke-width="2" d="M153.8179,-503.8314C156.9876,-495.9617 160.77,-486.5712 164.2813,-477.8533"/>
<polygon fill="#c0c0c0" stroke="#c0c0c0" stroke-width="2" points="167.5939,-478.9968 168.0835,-468.4133 161.1008,-476.3815 167.5939,-478.9968"/>
</g>
<!-- 16 -->
<g id="node17" class="node">
<title>16</title>
<path fill="none" stroke="#566bd8" stroke-width="2" d="M307,-396C307,-396 262,-396 262,-396 256,-396 250,-390 250,-384 250,-384 250,-372 250,-372 250,-366 256,-360 262,-360 262,-360 307,-360 307,-360 313,-360 319,-366 319,-372 319,-372 319,-384 319,-384 319,-390 313,-396 307,-396"/>
<text text-anchor="middle" x="284.5" y="-375.5" font-family="sans" font-size="10.00" fill="#000000">clean_bulk</text>
</g>
<!-- 16&#45;&gt;11 -->
<g id="edge21" class="edge">
<title>16&#45;&gt;11</title>
<path fill="none" stroke="#c0c0c0" stroke-width="2" d="M284.7533,-359.7623C285.0944,-335.201 285.7049,-291.2474 286.1062,-262.3541"/>
<polygon fill="#c0c0c0" stroke="#c0c0c0" stroke-width="2" points="289.6094,-262.1373 286.2488,-252.0896 282.6101,-262.04 289.6094,-262.1373"/>
</g>
<!-- 16&#45;&gt;12 -->
<g id="edge23" class="edge">
<title>16&#45;&gt;12</title>
<path fill="none" stroke="#c0c0c0" stroke-width="2" d="M261.2845,-359.8314C249.953,-350.9632 236.1536,-340.1637 223.8973,-330.5718"/>
<polygon fill="#c0c0c0" stroke="#c0c0c0" stroke-width="2" points="225.7402,-327.5697 215.7081,-324.1628 221.426,-333.0822 225.7402,-327.5697"/>
</g>
<!-- 16&#45;&gt;21 -->
<g id="edge32" class="edge">
<title>16&#45;&gt;21</title>
<path fill="none" stroke="#c0c0c0" stroke-width="2" d="M295.7778,-359.9555C319.5517,-321.9173 374.9106,-233.3431 402.8046,-188.7127"/>
<polygon fill="#c0c0c0" stroke="#c0c0c0" stroke-width="2" points="405.8273,-190.4801 408.1593,-180.1451 399.8913,-186.7701 405.8273,-190.4801"/>
</g>
<!-- 17 -->
<g id="node18" class="node">
<title>17</title>
<path fill="none" stroke="#56c1d8" stroke-width="2" d="M306.5,-468C306.5,-468 260.5,-468 260.5,-468 254.5,-468 248.5,-462 248.5,-456 248.5,-456 248.5,-444 248.5,-444 248.5,-438 254.5,-432 260.5,-432 260.5,-432 306.5,-432 306.5,-432 312.5,-432 318.5,-438 318.5,-444 318.5,-444 318.5,-456 318.5,-456 318.5,-462 312.5,-468 306.5,-468"/>
<text text-anchor="middle" x="283.5" y="-447.5" font-family="sans" font-size="10.00" fill="#000000">ensb2gene</text>
</g>
<!-- 17&#45;&gt;16 -->
<g id="edge26" class="edge">
<title>17&#45;&gt;16</title>
<path fill="none" stroke="#c0c0c0" stroke-width="2" d="M283.7523,-431.8314C283.8593,-424.131 283.9865,-414.9743 284.1053,-406.4166"/>
<polygon fill="#c0c0c0" stroke="#c0c0c0" stroke-width="2" points="287.6049,-406.4609 284.2443,-396.4133 280.6056,-406.3637 287.6049,-406.4609"/>
</g>
<!-- 18&#45;&gt;17 -->
<g id="edge27" class="edge">
<title>18&#45;&gt;17</title>
<path fill="none" stroke="#c0c0c0" stroke-width="2" d="M237.1452,-503.8314C244.3591,-495.454 253.057,-485.3531 260.9605,-476.1749"/>
<polygon fill="#c0c0c0" stroke="#c0c0c0" stroke-width="2" points="263.7711,-478.2748 267.6441,-468.4133 258.4667,-473.7071 263.7711,-478.2748"/>
</g>
<!-- 19&#45;&gt;0 -->
<g id="edge9" class="edge">
<title>19&#45;&gt;0</title>
<path fill="none" stroke="#c0c0c0" stroke-width="2" d="M293.8292,-143.9157C283.3701,-133.8326 270.619,-120.7643 260.5,-108 244.6752,-88.0383 229.3793,-63.5049 218.6237,-45.097"/>
<polygon fill="#c0c0c0" stroke="#c0c0c0" stroke-width="2" points="221.6052,-43.2608 213.5804,-36.3431 215.5398,-46.7552 221.6052,-43.2608"/>
</g>
<!-- 20 -->
<g id="node21" class="node">
<title>20</title>
<path fill="none" stroke="#d8ac56" stroke-width="2" d="M477.5,-108C477.5,-108 447.5,-108 447.5,-108 441.5,-108 435.5,-102 435.5,-96 435.5,-96 435.5,-84 435.5,-84 435.5,-78 441.5,-72 447.5,-72 447.5,-72 477.5,-72 477.5,-72 483.5,-72 489.5,-78 489.5,-84 489.5,-84 489.5,-96 489.5,-96 489.5,-102 483.5,-108 477.5,-108"/>
<text text-anchor="middle" x="462.5" y="-87.5" font-family="sans" font-size="10.00" fill="#000000">plot_de</text>
</g>
<!-- 20&#45;&gt;0 -->
<g id="edge8" class="edge">
<title>20&#45;&gt;0</title>
<path fill="none" stroke="#c0c0c0" stroke-width="2" d="M435.2656,-75.5851C432.346,-74.2808 429.3875,-73.056 426.5,-72 362.8122,-48.7078 285.2135,-32.5142 240.3694,-24.2783"/>
<polygon fill="#c0c0c0" stroke="#c0c0c0" stroke-width="2" points="240.9709,-20.8304 230.5083,-22.499 239.7279,-27.7192 240.9709,-20.8304"/>
</g>
<!-- 21&#45;&gt;20 -->
<g id="edge31" class="edge">
<title>21&#45;&gt;20</title>
<path fill="none" stroke="#c0c0c0" stroke-width="2" d="M430.3507,-143.8314C435.2023,-135.7079 441.0217,-125.9637 446.368,-117.0118"/>
<polygon fill="#c0c0c0" stroke="#c0c0c0" stroke-width="2" points="449.3806,-118.7933 451.5032,-108.4133 443.3708,-115.2041 449.3806,-118.7933"/>
</g>
<!-- 22 -->
<g id="node23" class="node">
<title>22</title>
<path fill="none" stroke="#b6d856" stroke-width="2" d="M325.5,-108C325.5,-108 281.5,-108 281.5,-108 275.5,-108 269.5,-102 269.5,-96 269.5,-96 269.5,-84 269.5,-84 269.5,-78 275.5,-72 281.5,-72 281.5,-72 325.5,-72 325.5,-72 331.5,-72 337.5,-78 337.5,-84 337.5,-84 337.5,-96 337.5,-96 337.5,-102 331.5,-108 325.5,-108"/>
<text text-anchor="middle" x="303.5" y="-87.5" font-family="sans" font-size="10.00" fill="#000000">plot_upset</text>
</g>
<!-- 21&#45;&gt;22 -->
<g id="edge34" class="edge">
<title>21&#45;&gt;22</title>
<path fill="none" stroke="#c0c0c0" stroke-width="2" d="M390.2283,-143.8314C375.3912,-134.6221 357.1985,-123.3301 341.3138,-113.4706"/>
<polygon fill="#c0c0c0" stroke="#c0c0c0" stroke-width="2" points="343.1045,-110.4628 332.7623,-108.1628 339.413,-116.4102 343.1045,-110.4628"/>
</g>
<!-- 24 -->
<g id="node25" class="node">
<title>24</title>
<path fill="none" stroke="#56d8c9" stroke-width="2" d="M405.5,-108C405.5,-108 367.5,-108 367.5,-108 361.5,-108 355.5,-102 355.5,-96 355.5,-96 355.5,-84 355.5,-84 355.5,-78 361.5,-72 367.5,-72 367.5,-72 405.5,-72 405.5,-72 411.5,-72 417.5,-78 417.5,-84 417.5,-84 417.5,-96 417.5,-96 417.5,-102 411.5,-108 405.5,-108"/>
<text text-anchor="middle" x="386.5" y="-87.5" font-family="sans" font-size="10.00" fill="#000000">gene_ont</text>
</g>
<!-- 21&#45;&gt;24 -->
<g id="edge36" class="edge">
<title>21&#45;&gt;24</title>
<path fill="none" stroke="#c0c0c0" stroke-width="2" d="M411.1727,-143.8314C407.527,-135.8771 403.1691,-126.369 399.1373,-117.5723"/>
<polygon fill="#c0c0c0" stroke="#c0c0c0" stroke-width="2" points="402.2877,-116.0456 394.9394,-108.4133 395.9243,-118.9622 402.2877,-116.0456"/>
</g>
<!-- 22&#45;&gt;0 -->
<g id="edge5" class="edge">
<title>22&#45;&gt;0</title>
<path fill="none" stroke="#c0c0c0" stroke-width="2" d="M278.2658,-71.8314C265.712,-62.7927 250.3717,-51.7476 236.8609,-42.0198"/>
<polygon fill="#c0c0c0" stroke="#c0c0c0" stroke-width="2" points="238.8866,-39.1655 228.7261,-36.1628 234.7964,-44.8463 238.8866,-39.1655"/>
</g>
<!-- 23&#45;&gt;0 -->
<g id="edge3" class="edge">
<title>23&#45;&gt;0</title>
<path fill="none" stroke="#c0c0c0" stroke-width="2" d="M189.5115,-215.563C187.9749,-205.1537 186.2672,-191.8866 185.5,-180 182.4705,-133.0632 190.9626,-78.7853 197.2923,-46.4847"/>
<polygon fill="#c0c0c0" stroke="#c0c0c0" stroke-width="2" points="200.7769,-46.9119 199.3362,-36.4155 193.9168,-45.5194 200.7769,-46.9119"/>
</g>
<!-- 24&#45;&gt;0 -->
<g id="edge2" class="edge">
<title>24&#45;&gt;0</title>
<path fill="none" stroke="#c0c0c0" stroke-width="2" d="M355.1368,-75.6662C352.227,-74.403 349.3151,-73.1636 346.5,-72 310.7405,-57.2188 269.3259,-41.7575 240.2987,-31.1859"/>
<polygon fill="#c0c0c0" stroke="#c0c0c0" stroke-width="2" points="241.1717,-27.7795 230.5775,-27.6596 238.7847,-34.3599 241.1717,-27.7795"/>
</g>
</g>
</svg>
