<?xml version="1.0" encoding="UTF-8" standalone="no"?>
<!DOCTYPE svg PUBLIC "-//W3C//DTD SVG 1.1//EN"
 "http://www.w3.org/Graphics/SVG/1.1/DTD/svg11.dtd">
<!-- Generated by graphviz version 2.40.1 (0)
 -->
<!-- Title: snakemake_dag Pages: 1 -->
<svg width="311pt" height="764pt"
 viewBox="0.00 0.00 311.00 764.00" xmlns="http://www.w3.org/2000/svg" xmlns:xlink="http://www.w3.org/1999/xlink">
<g id="graph0" class="graph" transform="scale(1 1) rotate(0) translate(4 760)">
<title>snakemake_dag</title>
<polygon fill="#ffffff" stroke="transparent" points="-4,4 -4,-760 307,-760 307,4 -4,4"/>
<!-- 0 -->
<g id="node1" class="node">
<title>0</title>
<path fill="none" stroke="#d87556" stroke-width="2" d="M168,-612C168,-612 138,-612 138,-612 132,-612 126,-606 126,-600 126,-600 126,-588 126,-588 126,-582 132,-576 138,-576 138,-576 168,-576 168,-576 174,-576 180,-582 180,-588 180,-588 180,-600 180,-600 180,-606 174,-612 168,-612"/>
<text text-anchor="middle" x="153" y="-591.5" font-family="sans" font-size="10.00" fill="#000000">fastqc</text>
</g>
<!-- 3 -->
<g id="node4" class="node">
<title>3</title>
<path fill="none" stroke="#97d856" stroke-width="2" d="M52,-540C52,-540 22,-540 22,-540 16,-540 10,-534 10,-528 10,-528 10,-516 10,-516 10,-510 16,-504 22,-504 22,-504 52,-504 52,-504 58,-504 64,-510 64,-516 64,-516 64,-528 64,-528 64,-534 58,-540 52,-540"/>
<text text-anchor="middle" x="37" y="-519.5" font-family="sans" font-size="10.00" fill="#000000">multiqc</text>
</g>
<!-- 0&#45;&gt;3 -->
<g id="edge3" class="edge">
<title>0&#45;&gt;3</title>
<path fill="none" stroke="#c0c0c0" stroke-width="2" d="M125.8032,-577.1192C109.9502,-567.2794 89.7722,-554.7551 72.6578,-544.1324"/>
<polygon fill="#c0c0c0" stroke="#c0c0c0" stroke-width="2" points="74.3687,-541.075 64.0265,-538.775 70.6771,-547.0225 74.3687,-541.075"/>
</g>
<!-- 10 -->
<g id="node11" class="node">
<title>10</title>
<path fill="none" stroke="#56a9d8" stroke-width="2" d="M218.5,-540C218.5,-540 183.5,-540 183.5,-540 177.5,-540 171.5,-534 171.5,-528 171.5,-528 171.5,-516 171.5,-516 171.5,-510 177.5,-504 183.5,-504 183.5,-504 218.5,-504 218.5,-504 224.5,-504 230.5,-510 230.5,-516 230.5,-516 230.5,-528 230.5,-528 230.5,-534 224.5,-540 218.5,-540"/>
<text text-anchor="middle" x="201" y="-519.5" font-family="sans" font-size="10.00" fill="#000000">tximport</text>
</g>
<!-- 0&#45;&gt;10 -->
<g id="edge10" class="edge">
<title>0&#45;&gt;10</title>
<path fill="none" stroke="#c0c0c0" stroke-width="2" d="M165.1124,-575.8314C170.5281,-567.7079 177.0242,-557.9637 182.9921,-549.0118"/>
<polygon fill="#c0c0c0" stroke="#c0c0c0" stroke-width="2" points="186.0896,-550.6753 188.7245,-540.4133 180.2653,-546.7923 186.0896,-550.6753"/>
</g>
<!-- 1 -->
<g id="node2" class="node">
<title>1</title>
<path fill="none" stroke="#d88d56" stroke-width="2" d="M74,-612C74,-612 12,-612 12,-612 6,-612 0,-606 0,-600 0,-600 0,-588 0,-588 0,-582 6,-576 12,-576 12,-576 74,-576 74,-576 80,-576 86,-582 86,-588 86,-588 86,-600 86,-600 86,-606 80,-612 74,-612"/>
<text text-anchor="middle" x="43" y="-591.5" font-family="sans" font-size="10.00" fill="#000000">salmon_quant</text>
</g>
<!-- 1&#45;&gt;3 -->
<g id="edge4" class="edge">
<title>1&#45;&gt;3</title>
<path fill="none" stroke="#c0c0c0" stroke-width="2" d="M41.4859,-575.8314C40.8442,-568.131 40.0812,-558.9743 39.3681,-550.4166"/>
<polygon fill="#c0c0c0" stroke="#c0c0c0" stroke-width="2" points="42.8529,-550.088 38.5344,-540.4133 35.8771,-550.6694 42.8529,-550.088"/>
</g>
<!-- 1&#45;&gt;10 -->
<g id="edge11" class="edge">
<title>1&#45;&gt;10</title>
<path fill="none" stroke="#c0c0c0" stroke-width="2" d="M82.8701,-575.8314C107.0817,-564.7982 137.8534,-550.7757 161.9202,-539.8085"/>
<polygon fill="#c0c0c0" stroke="#c0c0c0" stroke-width="2" points="163.4705,-542.9484 171.1189,-535.6167 160.5678,-536.5786 163.4705,-542.9484"/>
</g>
<!-- 2 -->
<g id="node3" class="node">
<title>2</title>
<path fill="none" stroke="#d8c356" stroke-width="2" d="M144,-468C144,-468 64,-468 64,-468 58,-468 52,-462 52,-456 52,-456 52,-444 52,-444 52,-438 58,-432 64,-432 64,-432 144,-432 144,-432 150,-432 156,-438 156,-444 156,-444 156,-456 156,-456 156,-462 150,-468 144,-468"/>
<text text-anchor="middle" x="104" y="-447.5" font-family="sans" font-size="10.00" fill="#000000">ambient_doublets</text>
</g>
<!-- 13 -->
<g id="node14" class="node">
<title>13</title>
<path fill="none" stroke="#ced856" stroke-width="2" d="M129.5,-396C129.5,-396 88.5,-396 88.5,-396 82.5,-396 76.5,-390 76.5,-384 76.5,-384 76.5,-372 76.5,-372 76.5,-366 82.5,-360 88.5,-360 88.5,-360 129.5,-360 129.5,-360 135.5,-360 141.5,-366 141.5,-372 141.5,-372 141.5,-384 141.5,-384 141.5,-390 135.5,-396 129.5,-396"/>
<text text-anchor="middle" x="109" y="-375.5" font-family="sans" font-size="10.00" fill="#000000">merge_sn</text>
</g>
<!-- 2&#45;&gt;13 -->
<g id="edge15" class="edge">
<title>2&#45;&gt;13</title>
<path fill="none" stroke="#c0c0c0" stroke-width="2" d="M105.2617,-431.8314C105.7965,-424.131 106.4323,-414.9743 107.0266,-406.4166"/>
<polygon fill="#c0c0c0" stroke="#c0c0c0" stroke-width="2" points="110.52,-406.6317 107.7213,-396.4133 103.5368,-406.1467 110.52,-406.6317"/>
</g>
<!-- 18 -->
<g id="node19" class="node">
<title>18</title>
<path fill="none" stroke="#5673d8" stroke-width="2" d="M160,-36C160,-36 130,-36 130,-36 124,-36 118,-30 118,-24 118,-24 118,-12 118,-12 118,-6 124,0 130,0 130,0 160,0 160,0 166,0 172,-6 172,-12 172,-12 172,-24 172,-24 172,-30 166,-36 160,-36"/>
<text text-anchor="middle" x="145" y="-15.5" font-family="sans" font-size="10.00" fill="#000000">all</text>
</g>
<!-- 3&#45;&gt;18 -->
<g id="edge25" class="edge">
<title>3&#45;&gt;18</title>
<path fill="none" stroke="#c0c0c0" stroke-width="2" d="M32.4416,-503.9498C25.9977,-476.8059 15,-423.775 15,-378 15,-378 15,-378 15,-162 15,-121.1184 8.8368,-104.2199 34,-72 52.3174,-48.5457 83.4242,-34.6473 108.0553,-26.8392"/>
<polygon fill="#c0c0c0" stroke="#c0c0c0" stroke-width="2" points="109.2217,-30.1441 117.817,-23.9496 107.2348,-23.432 109.2217,-30.1441"/>
</g>
<!-- 4 -->
<g id="node5" class="node">
<title>4</title>
<path fill="none" stroke="#80d856" stroke-width="2" d="M226.5,-396C226.5,-396 181.5,-396 181.5,-396 175.5,-396 169.5,-390 169.5,-384 169.5,-384 169.5,-372 169.5,-372 169.5,-366 175.5,-360 181.5,-360 181.5,-360 226.5,-360 226.5,-360 232.5,-360 238.5,-366 238.5,-372 238.5,-372 238.5,-384 238.5,-384 238.5,-390 232.5,-396 226.5,-396"/>
<text text-anchor="middle" x="204" y="-375.5" font-family="sans" font-size="10.00" fill="#000000">clean_bulk</text>
</g>
<!-- 7 -->
<g id="node8" class="node">
<title>7</title>
<path fill="none" stroke="#56d882" stroke-width="2" d="M136.5,-252C136.5,-252 83.5,-252 83.5,-252 77.5,-252 71.5,-246 71.5,-240 71.5,-240 71.5,-228 71.5,-228 71.5,-222 77.5,-216 83.5,-216 83.5,-216 136.5,-216 136.5,-216 142.5,-216 148.5,-222 148.5,-228 148.5,-228 148.5,-240 148.5,-240 148.5,-246 142.5,-252 136.5,-252"/>
<text text-anchor="middle" x="110" y="-231.5" font-family="sans" font-size="10.00" fill="#000000">deconvolute</text>
</g>
<!-- 4&#45;&gt;7 -->
<g id="edge8" class="edge">
<title>4&#45;&gt;7</title>
<path fill="none" stroke="#c0c0c0" stroke-width="2" d="M195.7045,-359.7529C186.8939,-341.0879 172.0455,-311.5666 156,-288 149.4199,-278.3355 141.3938,-268.4126 133.8993,-259.752"/>
<polygon fill="#c0c0c0" stroke="#c0c0c0" stroke-width="2" points="136.4674,-257.3726 127.2228,-252.197 131.2221,-262.008 136.4674,-257.3726"/>
</g>
<!-- 12 -->
<g id="node13" class="node">
<title>12</title>
<path fill="none" stroke="#56d8d0" stroke-width="2" d="M135,-324C135,-324 85,-324 85,-324 79,-324 73,-318 73,-312 73,-312 73,-300 73,-300 73,-294 79,-288 85,-288 85,-288 135,-288 135,-288 141,-288 147,-294 147,-300 147,-300 147,-312 147,-312 147,-318 141,-324 135,-324"/>
<text text-anchor="middle" x="110" y="-303.5" font-family="sans" font-size="10.00" fill="#000000">findMarkers</text>
</g>
<!-- 4&#45;&gt;12 -->
<g id="edge13" class="edge">
<title>4&#45;&gt;12</title>
<path fill="none" stroke="#c0c0c0" stroke-width="2" d="M180.2798,-359.8314C168.5906,-350.8779 154.3312,-339.9558 141.7191,-330.2955"/>
<polygon fill="#c0c0c0" stroke="#c0c0c0" stroke-width="2" points="143.7797,-327.4651 133.7126,-324.1628 139.5231,-333.0222 143.7797,-327.4651"/>
</g>
<!-- 16 -->
<g id="node17" class="node">
<title>16</title>
<path fill="none" stroke="#d8ac56" stroke-width="2" d="M262.5,-180C262.5,-180 167.5,-180 167.5,-180 161.5,-180 155.5,-174 155.5,-168 155.5,-168 155.5,-156 155.5,-156 155.5,-150 161.5,-144 167.5,-144 167.5,-144 262.5,-144 262.5,-144 268.5,-144 274.5,-150 274.5,-156 274.5,-156 274.5,-168 274.5,-168 274.5,-174 268.5,-180 262.5,-180"/>
<text text-anchor="middle" x="215" y="-159.5" font-family="sans" font-size="10.00" fill="#000000">diffential_expression</text>
</g>
<!-- 4&#45;&gt;16 -->
<g id="edge18" class="edge">
<title>4&#45;&gt;16</title>
<path fill="none" stroke="#c0c0c0" stroke-width="2" d="M204.9189,-359.9555C206.8318,-322.3938 211.2542,-235.5541 213.5532,-190.4103"/>
<polygon fill="#c0c0c0" stroke="#c0c0c0" stroke-width="2" points="217.0627,-190.3102 214.0759,-180.1451 210.0718,-189.9541 217.0627,-190.3102"/>
</g>
<!-- 5 -->
<g id="node6" class="node">
<title>5</title>
<path fill="none" stroke="#61d856" stroke-width="2" d="M73.5,-684C73.5,-684 12.5,-684 12.5,-684 6.5,-684 .5,-678 .5,-672 .5,-672 .5,-660 .5,-660 .5,-654 6.5,-648 12.5,-648 12.5,-648 73.5,-648 73.5,-648 79.5,-648 85.5,-654 85.5,-660 85.5,-660 85.5,-672 85.5,-672 85.5,-678 79.5,-684 73.5,-684"/>
<text text-anchor="middle" x="43" y="-663.5" font-family="sans" font-size="10.00" fill="#000000">salmon_index</text>
</g>
<!-- 5&#45;&gt;1 -->
<g id="edge1" class="edge">
<title>5&#45;&gt;1</title>
<path fill="none" stroke="#c0c0c0" stroke-width="2" d="M43,-647.8314C43,-640.131 43,-630.9743 43,-622.4166"/>
<polygon fill="#c0c0c0" stroke="#c0c0c0" stroke-width="2" points="46.5001,-622.4132 43,-612.4133 39.5001,-622.4133 46.5001,-622.4132"/>
</g>
<!-- 6 -->
<g id="node7" class="node">
<title>6</title>
<path fill="none" stroke="#56d863" stroke-width="2" d="M232,-468C232,-468 186,-468 186,-468 180,-468 174,-462 174,-456 174,-456 174,-444 174,-444 174,-438 180,-432 186,-432 186,-432 232,-432 232,-432 238,-432 244,-438 244,-444 244,-444 244,-456 244,-456 244,-462 238,-468 232,-468"/>
<text text-anchor="middle" x="209" y="-447.5" font-family="sans" font-size="10.00" fill="#000000">ensb2gene</text>
</g>
<!-- 6&#45;&gt;4 -->
<g id="edge5" class="edge">
<title>6&#45;&gt;4</title>
<path fill="none" stroke="#c0c0c0" stroke-width="2" d="M207.7383,-431.8314C207.2035,-424.131 206.5677,-414.9743 205.9734,-406.4166"/>
<polygon fill="#c0c0c0" stroke="#c0c0c0" stroke-width="2" points="209.4632,-406.1467 205.2787,-396.4133 202.48,-406.6317 209.4632,-406.1467"/>
</g>
<!-- 15 -->
<g id="node16" class="node">
<title>15</title>
<path fill="none" stroke="#d85656" stroke-width="2" d="M104.5,-108C104.5,-108 55.5,-108 55.5,-108 49.5,-108 43.5,-102 43.5,-96 43.5,-96 43.5,-84 43.5,-84 43.5,-78 49.5,-72 55.5,-72 55.5,-72 104.5,-72 104.5,-72 110.5,-72 116.5,-78 116.5,-84 116.5,-84 116.5,-96 116.5,-96 116.5,-102 110.5,-108 104.5,-108"/>
<text text-anchor="middle" x="80" y="-87.5" font-family="sans" font-size="10.00" fill="#000000">plot_comps</text>
</g>
<!-- 7&#45;&gt;15 -->
<g id="edge17" class="edge">
<title>7&#45;&gt;15</title>
<path fill="none" stroke="#c0c0c0" stroke-width="2" d="M92.7365,-215.5761C84.7611,-205.7997 76.152,-193.1148 72,-180 65.6279,-159.8726 68.1669,-136.0333 72.0085,-117.9479"/>
<polygon fill="#c0c0c0" stroke="#c0c0c0" stroke-width="2" points="75.4571,-118.5742 74.3634,-108.036 68.6467,-116.9561 75.4571,-118.5742"/>
</g>
<!-- 7&#45;&gt;16 -->
<g id="edge19" class="edge">
<title>7&#45;&gt;16</title>
<path fill="none" stroke="#c0c0c0" stroke-width="2" d="M136.4959,-215.8314C149.6774,-206.7927 165.7847,-195.7476 179.9711,-186.0198"/>
<polygon fill="#c0c0c0" stroke="#c0c0c0" stroke-width="2" points="182.2446,-188.7047 188.5125,-180.1628 178.2859,-182.9316 182.2446,-188.7047"/>
</g>
<!-- 17 -->
<g id="node18" class="node">
<title>17</title>
<path fill="none" stroke="#568ad8" stroke-width="2" d="M125,-180C125,-180 93,-180 93,-180 87,-180 81,-174 81,-168 81,-168 81,-156 81,-156 81,-150 87,-144 93,-144 93,-144 125,-144 125,-144 131,-144 137,-150 137,-156 137,-156 137,-168 137,-168 137,-174 131,-180 125,-180"/>
<text text-anchor="middle" x="109" y="-159.5" font-family="sans" font-size="10.00" fill="#000000">dirichlet</text>
</g>
<!-- 7&#45;&gt;17 -->
<g id="edge20" class="edge">
<title>7&#45;&gt;17</title>
<path fill="none" stroke="#c0c0c0" stroke-width="2" d="M109.7477,-215.8314C109.6407,-208.131 109.5135,-198.9743 109.3947,-190.4166"/>
<polygon fill="#c0c0c0" stroke="#c0c0c0" stroke-width="2" points="112.8944,-190.3637 109.2557,-180.4133 105.8951,-190.4609 112.8944,-190.3637"/>
</g>
<!-- 8 -->
<g id="node9" class="node">
<title>8</title>
<path fill="none" stroke="#56d89a" stroke-width="2" d="M124,-540C124,-540 94,-540 94,-540 88,-540 82,-534 82,-528 82,-528 82,-516 82,-516 82,-510 88,-504 94,-504 94,-504 124,-504 124,-504 130,-504 136,-510 136,-516 136,-516 136,-528 136,-528 136,-534 130,-540 124,-540"/>
<text text-anchor="middle" x="109" y="-519.5" font-family="sans" font-size="10.00" fill="#000000">load_sn</text>
</g>
<!-- 8&#45;&gt;2 -->
<g id="edge2" class="edge">
<title>8&#45;&gt;2</title>
<path fill="none" stroke="#c0c0c0" stroke-width="2" d="M107.7383,-503.8314C107.2035,-496.131 106.5677,-486.9743 105.9734,-478.4166"/>
<polygon fill="#c0c0c0" stroke="#c0c0c0" stroke-width="2" points="109.4632,-478.1467 105.2787,-468.4133 102.48,-478.6317 109.4632,-478.1467"/>
</g>
<!-- 9 -->
<g id="node10" class="node">
<title>9</title>
<path fill="none" stroke="#56c1d8" stroke-width="2" d="M66,-756C66,-756 20,-756 20,-756 14,-756 8,-750 8,-744 8,-744 8,-732 8,-732 8,-726 14,-720 20,-720 20,-720 66,-720 66,-720 72,-720 78,-726 78,-732 78,-732 78,-744 78,-744 78,-750 72,-756 66,-756"/>
<text text-anchor="middle" x="43" y="-735.5" font-family="sans" font-size="10.00" fill="#000000">load_index</text>
</g>
<!-- 9&#45;&gt;5 -->
<g id="edge6" class="edge">
<title>9&#45;&gt;5</title>
<path fill="none" stroke="#c0c0c0" stroke-width="2" d="M43,-719.8314C43,-712.131 43,-702.9743 43,-694.4166"/>
<polygon fill="#c0c0c0" stroke="#c0c0c0" stroke-width="2" points="46.5001,-694.4132 43,-684.4133 39.5001,-694.4133 46.5001,-694.4132"/>
</g>
<!-- 10&#45;&gt;6 -->
<g id="edge7" class="edge">
<title>10&#45;&gt;6</title>
<path fill="none" stroke="#c0c0c0" stroke-width="2" d="M203.0187,-503.8314C203.8743,-496.131 204.8917,-486.9743 205.8426,-478.4166"/>
<polygon fill="#c0c0c0" stroke="#c0c0c0" stroke-width="2" points="209.3283,-478.7386 206.9541,-468.4133 202.3711,-477.9656 209.3283,-478.7386"/>
</g>
<!-- 11 -->
<g id="node12" class="node">
<title>11</title>
<path fill="none" stroke="#56d8b9" stroke-width="2" d="M253,-612C253,-612 221,-612 221,-612 215,-612 209,-606 209,-600 209,-600 209,-588 209,-588 209,-582 215,-576 221,-576 221,-576 253,-576 253,-576 259,-576 265,-582 265,-588 265,-588 265,-600 265,-600 265,-606 259,-612 253,-612"/>
<text text-anchor="middle" x="237" y="-591.5" font-family="sans" font-size="10.00" fill="#000000">load_gtf</text>
</g>
<!-- 11&#45;&gt;10 -->
<g id="edge12" class="edge">
<title>11&#45;&gt;10</title>
<path fill="none" stroke="#c0c0c0" stroke-width="2" d="M227.9157,-575.8314C223.9385,-567.8771 219.1845,-558.369 214.7861,-549.5723"/>
<polygon fill="#c0c0c0" stroke="#c0c0c0" stroke-width="2" points="217.8093,-547.7923 210.2066,-540.4133 211.5483,-550.9228 217.8093,-547.7923"/>
</g>
<!-- 11&#45;&gt;18 -->
<g id="edge23" class="edge">
<title>11&#45;&gt;18</title>
<path fill="none" stroke="#c0c0c0" stroke-width="2" d="M251.6475,-575.6749C271.0917,-549.4479 303,-498.9514 303,-450 303,-450 303,-450 303,-162 303,-96.5496 228.0225,-52.9388 181.3669,-32.1373"/>
<polygon fill="#c0c0c0" stroke="#c0c0c0" stroke-width="2" points="182.7294,-28.9133 172.1612,-28.1631 179.9549,-35.34 182.7294,-28.9133"/>
</g>
<!-- 12&#45;&gt;7 -->
<g id="edge9" class="edge">
<title>12&#45;&gt;7</title>
<path fill="none" stroke="#c0c0c0" stroke-width="2" d="M110,-287.8314C110,-280.131 110,-270.9743 110,-262.4166"/>
<polygon fill="#c0c0c0" stroke="#c0c0c0" stroke-width="2" points="113.5001,-262.4132 110,-252.4133 106.5001,-262.4133 113.5001,-262.4132"/>
</g>
<!-- 13&#45;&gt;12 -->
<g id="edge14" class="edge">
<title>13&#45;&gt;12</title>
<path fill="none" stroke="#c0c0c0" stroke-width="2" d="M109.2523,-359.8314C109.3593,-352.131 109.4865,-342.9743 109.6053,-334.4166"/>
<polygon fill="#c0c0c0" stroke="#c0c0c0" stroke-width="2" points="113.1049,-334.4609 109.7443,-324.4133 106.1056,-334.3637 113.1049,-334.4609"/>
</g>
<!-- 14 -->
<g id="node15" class="node">
<title>14</title>
<path fill="none" stroke="#b6d856" stroke-width="2" d="M223,-108C223,-108 193,-108 193,-108 187,-108 181,-102 181,-96 181,-96 181,-84 181,-84 181,-78 187,-72 193,-72 193,-72 223,-72 223,-72 229,-72 235,-78 235,-84 235,-84 235,-96 235,-96 235,-102 229,-108 223,-108"/>
<text text-anchor="middle" x="208" y="-87.5" font-family="sans" font-size="10.00" fill="#000000">plot_de</text>
</g>
<!-- 14&#45;&gt;18 -->
<g id="edge22" class="edge">
<title>14&#45;&gt;18</title>
<path fill="none" stroke="#c0c0c0" stroke-width="2" d="M192.1024,-71.8314C184.7722,-63.454 175.934,-53.3531 167.9031,-44.1749"/>
<polygon fill="#c0c0c0" stroke="#c0c0c0" stroke-width="2" points="170.3307,-41.6343 161.1116,-36.4133 165.0627,-46.2438 170.3307,-41.6343"/>
</g>
<!-- 15&#45;&gt;18 -->
<g id="edge21" class="edge">
<title>15&#45;&gt;18</title>
<path fill="none" stroke="#c0c0c0" stroke-width="2" d="M96.4022,-71.8314C104.0415,-63.3694 113.2683,-53.1489 121.6207,-43.8971"/>
<polygon fill="#c0c0c0" stroke="#c0c0c0" stroke-width="2" points="124.2738,-46.1813 128.3769,-36.4133 119.0779,-41.4906 124.2738,-46.1813"/>
</g>
<!-- 16&#45;&gt;14 -->
<g id="edge16" class="edge">
<title>16&#45;&gt;14</title>
<path fill="none" stroke="#c0c0c0" stroke-width="2" d="M213.2336,-143.8314C212.485,-136.131 211.5947,-126.9743 210.7627,-118.4166"/>
<polygon fill="#c0c0c0" stroke="#c0c0c0" stroke-width="2" points="214.2415,-118.0276 209.7902,-108.4133 207.2744,-118.7051 214.2415,-118.0276"/>
</g>
<!-- 17&#45;&gt;18 -->
<g id="edge24" class="edge">
<title>17&#45;&gt;18</title>
<path fill="none" stroke="#c0c0c0" stroke-width="2" d="M115.2684,-143.6343C118.6906,-133.2474 122.8579,-119.9788 126,-108 131.3939,-87.4364 136.3159,-63.9219 139.7982,-46.0864"/>
<polygon fill="#c0c0c0" stroke="#c0c0c0" stroke-width="2" points="143.2768,-46.5303 141.7232,-36.0499 136.4021,-45.2116 143.2768,-46.5303"/>
</g>
</g>
</svg>
