<?xml version="1.0" encoding="UTF-8" standalone="no"?>
<!DOCTYPE svg PUBLIC "-//W3C//DTD SVG 1.1//EN"
 "http://www.w3.org/Graphics/SVG/1.1/DTD/svg11.dtd">
<!-- Generated by graphviz version 2.40.1 (0)
 -->
<!-- Title: snakemake_dag Pages: 1 -->
<svg width="389pt" height="764pt"
 viewBox="0.00 0.00 389.00 764.00" xmlns="http://www.w3.org/2000/svg" xmlns:xlink="http://www.w3.org/1999/xlink">
<g id="graph0" class="graph" transform="scale(1 1) rotate(0) translate(4 760)">
<title>snakemake_dag</title>
<polygon fill="#ffffff" stroke="transparent" points="-4,4 -4,-760 385,-760 385,4 -4,4"/>
<!-- 0 -->
<g id="node1" class="node">
<title>0</title>
<path fill="none" stroke="#d86e56" stroke-width="2" d="M251.5,-396C251.5,-396 206.5,-396 206.5,-396 200.5,-396 194.5,-390 194.5,-384 194.5,-384 194.5,-372 194.5,-372 194.5,-366 200.5,-360 206.5,-360 206.5,-360 251.5,-360 251.5,-360 257.5,-360 263.5,-366 263.5,-372 263.5,-372 263.5,-384 263.5,-384 263.5,-390 257.5,-396 251.5,-396"/>
<text text-anchor="middle" x="229" y="-375.5" font-family="sans" font-size="10.00" fill="#000000">clean_bulk</text>
</g>
<!-- 2 -->
<g id="node3" class="node">
<title>2</title>
<path fill="none" stroke="#d8a456" stroke-width="2" d="M114,-324C114,-324 64,-324 64,-324 58,-324 52,-318 52,-312 52,-312 52,-300 52,-300 52,-294 58,-288 64,-288 64,-288 114,-288 114,-288 120,-288 126,-294 126,-300 126,-300 126,-312 126,-312 126,-318 120,-324 114,-324"/>
<text text-anchor="middle" x="89" y="-303.5" font-family="sans" font-size="10.00" fill="#000000">findMarkers</text>
</g>
<!-- 0&#45;&gt;2 -->
<g id="edge2" class="edge">
<title>0&#45;&gt;2</title>
<path fill="none" stroke="#c0c0c0" stroke-width="2" d="M194.3932,-360.2022C175.9391,-350.7115 153.0313,-338.9304 133.2912,-328.7783"/>
<polygon fill="#c0c0c0" stroke="#c0c0c0" stroke-width="2" points="134.6747,-325.5541 124.1811,-324.0931 131.4732,-331.7792 134.6747,-325.5541"/>
</g>
<!-- 5 -->
<g id="node6" class="node">
<title>5</title>
<path fill="none" stroke="#d6d856" stroke-width="2" d="M187.5,-252C187.5,-252 134.5,-252 134.5,-252 128.5,-252 122.5,-246 122.5,-240 122.5,-240 122.5,-228 122.5,-228 122.5,-222 128.5,-216 134.5,-216 134.5,-216 187.5,-216 187.5,-216 193.5,-216 199.5,-222 199.5,-228 199.5,-228 199.5,-240 199.5,-240 199.5,-246 193.5,-252 187.5,-252"/>
<text text-anchor="middle" x="161" y="-231.5" font-family="sans" font-size="10.00" fill="#000000">deconvolute</text>
</g>
<!-- 0&#45;&gt;5 -->
<g id="edge5" class="edge">
<title>0&#45;&gt;5</title>
<path fill="none" stroke="#c0c0c0" stroke-width="2" d="M220.3878,-359.7623C208.6361,-334.8764 187.4833,-290.0822 173.8522,-261.2165"/>
<polygon fill="#c0c0c0" stroke="#c0c0c0" stroke-width="2" points="176.9773,-259.6376 169.5423,-252.0896 170.6476,-262.6267 176.9773,-259.6376"/>
</g>
<!-- 10 -->
<g id="node11" class="node">
<title>10</title>
<path fill="none" stroke="#56d873" stroke-width="2" d="M183,-36C183,-36 153,-36 153,-36 147,-36 141,-30 141,-24 141,-24 141,-12 141,-12 141,-6 147,0 153,0 153,0 183,0 183,0 189,0 195,-6 195,-12 195,-12 195,-24 195,-24 195,-30 189,-36 183,-36"/>
<text text-anchor="middle" x="168" y="-15.5" font-family="sans" font-size="10.00" fill="#000000">all</text>
</g>
<!-- 0&#45;&gt;10 -->
<g id="edge12" class="edge">
<title>0&#45;&gt;10</title>
<path fill="none" stroke="#c0c0c0" stroke-width="2" d="M257.1798,-359.8002C290.9384,-335.5315 343,-289.1626 343,-234 343,-234 343,-234 343,-162 343,-91.0307 256.1218,-48.5815 204.7924,-29.695"/>
<polygon fill="#c0c0c0" stroke="#c0c0c0" stroke-width="2" points="205.9385,-26.3879 195.3438,-26.3356 203.5934,-32.9834 205.9385,-26.3879"/>
</g>
<!-- 16 -->
<g id="node17" class="node">
<title>16</title>
<path fill="none" stroke="#568ad8" stroke-width="2" d="M302.5,-180C302.5,-180 207.5,-180 207.5,-180 201.5,-180 195.5,-174 195.5,-168 195.5,-168 195.5,-156 195.5,-156 195.5,-150 201.5,-144 207.5,-144 207.5,-144 302.5,-144 302.5,-144 308.5,-144 314.5,-150 314.5,-156 314.5,-156 314.5,-168 314.5,-168 314.5,-174 308.5,-180 302.5,-180"/>
<text text-anchor="middle" x="255" y="-159.5" font-family="sans" font-size="10.00" fill="#000000">diffential_expression</text>
</g>
<!-- 0&#45;&gt;16 -->
<g id="edge23" class="edge">
<title>0&#45;&gt;16</title>
<path fill="none" stroke="#c0c0c0" stroke-width="2" d="M231.172,-359.9555C235.7029,-322.3144 246.1905,-235.1867 251.6146,-190.1246"/>
<polygon fill="#c0c0c0" stroke="#c0c0c0" stroke-width="2" points="255.0956,-190.4917 252.8159,-180.1451 248.1458,-189.6551 255.0956,-190.4917"/>
</g>
<!-- 1 -->
<g id="node2" class="node">
<title>1</title>
<path fill="none" stroke="#d88d56" stroke-width="2" d="M252,-756C252,-756 206,-756 206,-756 200,-756 194,-750 194,-744 194,-744 194,-732 194,-732 194,-726 200,-720 206,-720 206,-720 252,-720 252,-720 258,-720 264,-726 264,-732 264,-732 264,-744 264,-744 264,-750 258,-756 252,-756"/>
<text text-anchor="middle" x="229" y="-735.5" font-family="sans" font-size="10.00" fill="#000000">load_index</text>
</g>
<!-- 13 -->
<g id="node14" class="node">
<title>13</title>
<path fill="none" stroke="#56d8d8" stroke-width="2" d="M259.5,-684C259.5,-684 198.5,-684 198.5,-684 192.5,-684 186.5,-678 186.5,-672 186.5,-672 186.5,-660 186.5,-660 186.5,-654 192.5,-648 198.5,-648 198.5,-648 259.5,-648 259.5,-648 265.5,-648 271.5,-654 271.5,-660 271.5,-660 271.5,-672 271.5,-672 271.5,-678 265.5,-684 259.5,-684"/>
<text text-anchor="middle" x="229" y="-663.5" font-family="sans" font-size="10.00" fill="#000000">salmon_index</text>
</g>
<!-- 1&#45;&gt;13 -->
<g id="edge21" class="edge">
<title>1&#45;&gt;13</title>
<path fill="none" stroke="#c0c0c0" stroke-width="2" d="M229,-719.8314C229,-712.131 229,-702.9743 229,-694.4166"/>
<polygon fill="#c0c0c0" stroke="#c0c0c0" stroke-width="2" points="232.5001,-694.4132 229,-684.4133 225.5001,-694.4133 232.5001,-694.4132"/>
</g>
<!-- 3 -->
<g id="node4" class="node">
<title>3</title>
<path fill="none" stroke="#56d8a2" stroke-width="2" d="M128,-108C128,-108 78,-108 78,-108 72,-108 66,-102 66,-96 66,-96 66,-84 66,-84 66,-78 72,-72 78,-72 78,-72 128,-72 128,-72 134,-72 140,-78 140,-84 140,-84 140,-96 140,-96 140,-102 134,-108 128,-108"/>
<text text-anchor="middle" x="103" y="-87.5" font-family="sans" font-size="10.00" fill="#000000">plotMarkers</text>
</g>
<!-- 2&#45;&gt;3 -->
<g id="edge4" class="edge">
<title>2&#45;&gt;3</title>
<path fill="none" stroke="#c0c0c0" stroke-width="2" d="M89.2745,-287.9881C89.8438,-258.0478 91.5,-196.1676 96,-144 96.7198,-135.6558 97.7797,-126.6197 98.8582,-118.3699"/>
<polygon fill="#c0c0c0" stroke="#c0c0c0" stroke-width="2" points="102.3273,-118.8331 100.2099,-108.452 95.3914,-117.8877 102.3273,-118.8331"/>
</g>
<!-- 2&#45;&gt;5 -->
<g id="edge6" class="edge">
<title>2&#45;&gt;5</title>
<path fill="none" stroke="#c0c0c0" stroke-width="2" d="M107.1686,-287.8314C115.7152,-279.2848 126.0557,-268.9443 135.3802,-259.6198"/>
<polygon fill="#c0c0c0" stroke="#c0c0c0" stroke-width="2" points="137.9905,-261.9592 142.5867,-252.4133 133.0408,-257.0095 137.9905,-261.9592"/>
</g>
<!-- 2&#45;&gt;10 -->
<g id="edge13" class="edge">
<title>2&#45;&gt;10</title>
<path fill="none" stroke="#c0c0c0" stroke-width="2" d="M79.151,-287.9135C57.9458,-246.2767 13.2909,-141.8709 57,-72 73.0537,-46.3375 105.1844,-32.5544 130.7635,-25.3542"/>
<polygon fill="#c0c0c0" stroke="#c0c0c0" stroke-width="2" points="131.7458,-28.7153 140.5506,-22.8224 129.9927,-21.9384 131.7458,-28.7153"/>
</g>
<!-- 3&#45;&gt;10 -->
<g id="edge16" class="edge">
<title>3&#45;&gt;10</title>
<path fill="none" stroke="#c0c0c0" stroke-width="2" d="M119.4022,-71.8314C127.0415,-63.3694 136.2683,-53.1489 144.6207,-43.8971"/>
<polygon fill="#c0c0c0" stroke="#c0c0c0" stroke-width="2" points="147.2738,-46.1813 151.3769,-36.4133 142.0779,-41.4906 147.2738,-46.1813"/>
</g>
<!-- 4 -->
<g id="node5" class="node">
<title>4</title>
<path fill="none" stroke="#d8bc56" stroke-width="2" d="M332,-612C332,-612 302,-612 302,-612 296,-612 290,-606 290,-600 290,-600 290,-588 290,-588 290,-582 296,-576 302,-576 302,-576 332,-576 332,-576 338,-576 344,-582 344,-588 344,-588 344,-600 344,-600 344,-606 338,-612 332,-612"/>
<text text-anchor="middle" x="317" y="-591.5" font-family="sans" font-size="10.00" fill="#000000">fastqc</text>
</g>
<!-- 6 -->
<g id="node7" class="node">
<title>6</title>
<path fill="none" stroke="#bed856" stroke-width="2" d="M246.5,-540C246.5,-540 211.5,-540 211.5,-540 205.5,-540 199.5,-534 199.5,-528 199.5,-528 199.5,-516 199.5,-516 199.5,-510 205.5,-504 211.5,-504 211.5,-504 246.5,-504 246.5,-504 252.5,-504 258.5,-510 258.5,-516 258.5,-516 258.5,-528 258.5,-528 258.5,-534 252.5,-540 246.5,-540"/>
<text text-anchor="middle" x="229" y="-519.5" font-family="sans" font-size="10.00" fill="#000000">tximport</text>
</g>
<!-- 4&#45;&gt;6 -->
<g id="edge7" class="edge">
<title>4&#45;&gt;6</title>
<path fill="none" stroke="#c0c0c0" stroke-width="2" d="M294.7939,-575.8314C283.955,-566.9632 270.7556,-556.1637 259.0322,-546.5718"/>
<polygon fill="#c0c0c0" stroke="#c0c0c0" stroke-width="2" points="261.155,-543.7864 251.199,-540.1628 256.7223,-549.2041 261.155,-543.7864"/>
</g>
<!-- 17 -->
<g id="node18" class="node">
<title>17</title>
<path fill="none" stroke="#5673d8" stroke-width="2" d="M332,-540C332,-540 302,-540 302,-540 296,-540 290,-534 290,-528 290,-528 290,-516 290,-516 290,-510 296,-504 302,-504 302,-504 332,-504 332,-504 338,-504 344,-510 344,-516 344,-516 344,-528 344,-528 344,-534 338,-540 332,-540"/>
<text text-anchor="middle" x="317" y="-519.5" font-family="sans" font-size="10.00" fill="#000000">multiqc</text>
</g>
<!-- 4&#45;&gt;17 -->
<g id="edge25" class="edge">
<title>4&#45;&gt;17</title>
<path fill="none" stroke="#c0c0c0" stroke-width="2" d="M317,-575.8314C317,-568.131 317,-558.9743 317,-550.4166"/>
<polygon fill="#c0c0c0" stroke="#c0c0c0" stroke-width="2" points="320.5001,-550.4132 317,-540.4133 313.5001,-550.4133 320.5001,-550.4132"/>
</g>
<!-- 11 -->
<g id="node12" class="node">
<title>11</title>
<path fill="none" stroke="#56d8c1" stroke-width="2" d="M165.5,-180C165.5,-180 116.5,-180 116.5,-180 110.5,-180 104.5,-174 104.5,-168 104.5,-168 104.5,-156 104.5,-156 104.5,-150 110.5,-144 116.5,-144 116.5,-144 165.5,-144 165.5,-144 171.5,-144 177.5,-150 177.5,-156 177.5,-156 177.5,-168 177.5,-168 177.5,-174 171.5,-180 165.5,-180"/>
<text text-anchor="middle" x="141" y="-159.5" font-family="sans" font-size="10.00" fill="#000000">plot_comps</text>
</g>
<!-- 5&#45;&gt;11 -->
<g id="edge19" class="edge">
<title>5&#45;&gt;11</title>
<path fill="none" stroke="#c0c0c0" stroke-width="2" d="M155.9532,-215.8314C153.7906,-208.0463 151.2147,-198.7729 148.8152,-190.1347"/>
<polygon fill="#c0c0c0" stroke="#c0c0c0" stroke-width="2" points="152.1636,-189.1117 146.1148,-180.4133 145.419,-190.9852 152.1636,-189.1117"/>
</g>
<!-- 5&#45;&gt;16 -->
<g id="edge24" class="edge">
<title>5&#45;&gt;16</title>
<path fill="none" stroke="#c0c0c0" stroke-width="2" d="M184.7202,-215.8314C196.4094,-206.8779 210.6688,-195.9558 223.2809,-186.2955"/>
<polygon fill="#c0c0c0" stroke="#c0c0c0" stroke-width="2" points="225.4769,-189.0222 231.2874,-180.1628 221.2203,-183.4651 225.4769,-189.0222"/>
</g>
<!-- 12 -->
<g id="node13" class="node">
<title>12</title>
<path fill="none" stroke="#59d856" stroke-width="2" d="M252,-468C252,-468 206,-468 206,-468 200,-468 194,-462 194,-456 194,-456 194,-444 194,-444 194,-438 200,-432 206,-432 206,-432 252,-432 252,-432 258,-432 264,-438 264,-444 264,-444 264,-456 264,-456 264,-462 258,-468 252,-468"/>
<text text-anchor="middle" x="229" y="-447.5" font-family="sans" font-size="10.00" fill="#000000">ensb2gene</text>
</g>
<!-- 6&#45;&gt;12 -->
<g id="edge20" class="edge">
<title>6&#45;&gt;12</title>
<path fill="none" stroke="#c0c0c0" stroke-width="2" d="M229,-503.8314C229,-496.131 229,-486.9743 229,-478.4166"/>
<polygon fill="#c0c0c0" stroke="#c0c0c0" stroke-width="2" points="232.5001,-478.4132 229,-468.4133 225.5001,-478.4133 232.5001,-478.4132"/>
</g>
<!-- 7 -->
<g id="node8" class="node">
<title>7</title>
<path fill="none" stroke="#a7d856" stroke-width="2" d="M129,-468C129,-468 49,-468 49,-468 43,-468 37,-462 37,-456 37,-456 37,-444 37,-444 37,-438 43,-432 49,-432 49,-432 129,-432 129,-432 135,-432 141,-438 141,-444 141,-444 141,-456 141,-456 141,-462 135,-468 129,-468"/>
<text text-anchor="middle" x="89" y="-447.5" font-family="sans" font-size="10.00" fill="#000000">ambient_doublets</text>
</g>
<!-- 18 -->
<g id="node19" class="node">
<title>18</title>
<path fill="none" stroke="#56d88a" stroke-width="2" d="M109.5,-396C109.5,-396 68.5,-396 68.5,-396 62.5,-396 56.5,-390 56.5,-384 56.5,-384 56.5,-372 56.5,-372 56.5,-366 62.5,-360 68.5,-360 68.5,-360 109.5,-360 109.5,-360 115.5,-360 121.5,-366 121.5,-372 121.5,-372 121.5,-384 121.5,-384 121.5,-390 115.5,-396 109.5,-396"/>
<text text-anchor="middle" x="89" y="-375.5" font-family="sans" font-size="10.00" fill="#000000">merge_sn</text>
</g>
<!-- 7&#45;&gt;18 -->
<g id="edge27" class="edge">
<title>7&#45;&gt;18</title>
<path fill="none" stroke="#c0c0c0" stroke-width="2" d="M89,-431.8314C89,-424.131 89,-414.9743 89,-406.4166"/>
<polygon fill="#c0c0c0" stroke="#c0c0c0" stroke-width="2" points="92.5001,-406.4132 89,-396.4133 85.5001,-406.4133 92.5001,-406.4132"/>
</g>
<!-- 8 -->
<g id="node9" class="node">
<title>8</title>
<path fill="none" stroke="#88d856" stroke-width="2" d="M104,-540C104,-540 74,-540 74,-540 68,-540 62,-534 62,-528 62,-528 62,-516 62,-516 62,-510 68,-504 74,-504 74,-504 104,-504 104,-504 110,-504 116,-510 116,-516 116,-516 116,-528 116,-528 116,-534 110,-540 104,-540"/>
<text text-anchor="middle" x="89" y="-519.5" font-family="sans" font-size="10.00" fill="#000000">load_sn</text>
</g>
<!-- 8&#45;&gt;7 -->
<g id="edge10" class="edge">
<title>8&#45;&gt;7</title>
<path fill="none" stroke="#c0c0c0" stroke-width="2" d="M89,-503.8314C89,-496.131 89,-486.9743 89,-478.4166"/>
<polygon fill="#c0c0c0" stroke="#c0c0c0" stroke-width="2" points="92.5001,-478.4132 89,-468.4133 85.5001,-478.4133 92.5001,-478.4132"/>
</g>
<!-- 9 -->
<g id="node10" class="node">
<title>9</title>
<path fill="none" stroke="#70d856" stroke-width="2" d="M260,-612C260,-612 198,-612 198,-612 192,-612 186,-606 186,-600 186,-600 186,-588 186,-588 186,-582 192,-576 198,-576 198,-576 260,-576 260,-576 266,-576 272,-582 272,-588 272,-588 272,-600 272,-600 272,-606 266,-612 260,-612"/>
<text text-anchor="middle" x="229" y="-591.5" font-family="sans" font-size="10.00" fill="#000000">salmon_quant</text>
</g>
<!-- 9&#45;&gt;6 -->
<g id="edge9" class="edge">
<title>9&#45;&gt;6</title>
<path fill="none" stroke="#c0c0c0" stroke-width="2" d="M229,-575.8314C229,-568.131 229,-558.9743 229,-550.4166"/>
<polygon fill="#c0c0c0" stroke="#c0c0c0" stroke-width="2" points="232.5001,-550.4132 229,-540.4133 225.5001,-550.4133 232.5001,-550.4132"/>
</g>
<!-- 9&#45;&gt;17 -->
<g id="edge26" class="edge">
<title>9&#45;&gt;17</title>
<path fill="none" stroke="#c0c0c0" stroke-width="2" d="M251.2061,-575.8314C262.045,-566.9632 275.2444,-556.1637 286.9678,-546.5718"/>
<polygon fill="#c0c0c0" stroke="#c0c0c0" stroke-width="2" points="289.2777,-549.2041 294.801,-540.1628 284.845,-543.7864 289.2777,-549.2041"/>
</g>
<!-- 11&#45;&gt;10 -->
<g id="edge15" class="edge">
<title>11&#45;&gt;10</title>
<path fill="none" stroke="#c0c0c0" stroke-width="2" d="M144.4196,-143.7623C149.0451,-119.0928 157.3388,-74.8598 162.755,-45.9731"/>
<polygon fill="#c0c0c0" stroke="#c0c0c0" stroke-width="2" points="166.2053,-46.5634 164.6082,-36.0896 159.3252,-45.2733 166.2053,-46.5634"/>
</g>
<!-- 12&#45;&gt;0 -->
<g id="edge1" class="edge">
<title>12&#45;&gt;0</title>
<path fill="none" stroke="#c0c0c0" stroke-width="2" d="M229,-431.8314C229,-424.131 229,-414.9743 229,-406.4166"/>
<polygon fill="#c0c0c0" stroke="#c0c0c0" stroke-width="2" points="232.5001,-406.4132 229,-396.4133 225.5001,-406.4133 232.5001,-406.4132"/>
</g>
<!-- 13&#45;&gt;9 -->
<g id="edge11" class="edge">
<title>13&#45;&gt;9</title>
<path fill="none" stroke="#c0c0c0" stroke-width="2" d="M229,-647.8314C229,-640.131 229,-630.9743 229,-622.4166"/>
<polygon fill="#c0c0c0" stroke="#c0c0c0" stroke-width="2" points="232.5001,-622.4132 229,-612.4133 225.5001,-622.4133 232.5001,-622.4132"/>
</g>
<!-- 14 -->
<g id="node15" class="node">
<title>14</title>
<path fill="none" stroke="#56c1d8" stroke-width="2" d="M73,-612C73,-612 41,-612 41,-612 35,-612 29,-606 29,-600 29,-600 29,-588 29,-588 29,-582 35,-576 41,-576 41,-576 73,-576 73,-576 79,-576 85,-582 85,-588 85,-588 85,-600 85,-600 85,-606 79,-612 73,-612"/>
<text text-anchor="middle" x="57" y="-591.5" font-family="sans" font-size="10.00" fill="#000000">load_gtf</text>
</g>
<!-- 14&#45;&gt;6 -->
<g id="edge8" class="edge">
<title>14&#45;&gt;6</title>
<path fill="none" stroke="#c0c0c0" stroke-width="2" d="M85.0176,-582.2717C113.4859,-570.3547 157.8211,-551.7958 189.7745,-538.42"/>
<polygon fill="#c0c0c0" stroke="#c0c0c0" stroke-width="2" points="191.3894,-541.5383 199.2623,-534.4483 188.6864,-535.0812 191.3894,-541.5383"/>
</g>
<!-- 14&#45;&gt;10 -->
<g id="edge14" class="edge">
<title>14&#45;&gt;10</title>
<path fill="none" stroke="#c0c0c0" stroke-width="2" d="M44.6318,-575.8166C27.8677,-549.3548 0,-498.1283 0,-450 0,-450 0,-450 0,-162 0,-118.4059 7.9828,-102.6329 39,-72 64.2315,-47.0811 102.665,-33.0186 131.0218,-25.5361"/>
<polygon fill="#c0c0c0" stroke="#c0c0c0" stroke-width="2" points="132.1064,-28.8732 140.97,-23.0692 130.4215,-22.079 132.1064,-28.8732"/>
</g>
<!-- 15 -->
<g id="node16" class="node">
<title>15</title>
<path fill="none" stroke="#56a2d8" stroke-width="2" d="M254,-108C254,-108 224,-108 224,-108 218,-108 212,-102 212,-96 212,-96 212,-84 212,-84 212,-78 218,-72 224,-72 224,-72 254,-72 254,-72 260,-72 266,-78 266,-84 266,-84 266,-96 266,-96 266,-102 260,-108 254,-108"/>
<text text-anchor="middle" x="239" y="-87.5" font-family="sans" font-size="10.00" fill="#000000">plot_de</text>
</g>
<!-- 15&#45;&gt;10 -->
<g id="edge17" class="edge">
<title>15&#45;&gt;10</title>
<path fill="none" stroke="#c0c0c0" stroke-width="2" d="M221.0837,-71.8314C212.6558,-63.2848 202.459,-52.9443 193.264,-43.6198"/>
<polygon fill="#c0c0c0" stroke="#c0c0c0" stroke-width="2" points="195.6711,-41.0761 186.1575,-36.4133 190.6869,-45.9912 195.6711,-41.0761"/>
</g>
<!-- 16&#45;&gt;15 -->
<g id="edge22" class="edge">
<title>16&#45;&gt;15</title>
<path fill="none" stroke="#c0c0c0" stroke-width="2" d="M250.9625,-143.8314C249.2513,-136.131 247.2165,-126.9743 245.3148,-118.4166"/>
<polygon fill="#c0c0c0" stroke="#c0c0c0" stroke-width="2" points="248.6779,-117.4159 243.0918,-108.4133 241.8446,-118.9344 248.6779,-117.4159"/>
</g>
<!-- 17&#45;&gt;10 -->
<g id="edge18" class="edge">
<title>17&#45;&gt;10</title>
<path fill="none" stroke="#c0c0c0" stroke-width="2" d="M331.2037,-503.6041C350.0586,-477.293 381,-426.6971 381,-378 381,-378 381,-378 381,-162 381,-78.2412 266.5617,-39.9038 205.4485,-25.4022"/>
<polygon fill="#c0c0c0" stroke="#c0c0c0" stroke-width="2" points="205.937,-21.9241 195.41,-23.1206 204.3855,-28.75 205.937,-21.9241"/>
</g>
<!-- 18&#45;&gt;2 -->
<g id="edge3" class="edge">
<title>18&#45;&gt;2</title>
<path fill="none" stroke="#c0c0c0" stroke-width="2" d="M89,-359.8314C89,-352.131 89,-342.9743 89,-334.4166"/>
<polygon fill="#c0c0c0" stroke="#c0c0c0" stroke-width="2" points="92.5001,-334.4132 89,-324.4133 85.5001,-334.4133 92.5001,-334.4132"/>
</g>
</g>
</svg>
