<?xml version="1.0" encoding="UTF-8" standalone="no"?>
<!DOCTYPE svg PUBLIC "-//W3C//DTD SVG 1.1//EN"
 "http://www.w3.org/Graphics/SVG/1.1/DTD/svg11.dtd">
<!-- Generated by graphviz version 2.40.1 (0)
 -->
<!-- Title: snakemake_dag Pages: 1 -->
<svg width="324pt" height="764pt"
 viewBox="0.00 0.00 324.00 764.00" xmlns="http://www.w3.org/2000/svg" xmlns:xlink="http://www.w3.org/1999/xlink">
<g id="graph0" class="graph" transform="scale(1 1) rotate(0) translate(4 760)">
<title>snakemake_dag</title>
<polygon fill="#ffffff" stroke="transparent" points="-4,4 -4,-760 320,-760 320,4 -4,4"/>
<!-- 0 -->
<g id="node1" class="node">
<title>0</title>
<path fill="none" stroke="#d85656" stroke-width="2" d="M231.5,-684C231.5,-684 170.5,-684 170.5,-684 164.5,-684 158.5,-678 158.5,-672 158.5,-672 158.5,-660 158.5,-660 158.5,-654 164.5,-648 170.5,-648 170.5,-648 231.5,-648 231.5,-648 237.5,-648 243.5,-654 243.5,-660 243.5,-660 243.5,-672 243.5,-672 243.5,-678 237.5,-684 231.5,-684"/>
<text text-anchor="middle" x="201" y="-663.5" font-family="sans" font-size="10.00" fill="#000000">salmon_index</text>
</g>
<!-- 14 -->
<g id="node15" class="node">
<title>14</title>
<path fill="none" stroke="#56d89a" stroke-width="2" d="M232,-612C232,-612 170,-612 170,-612 164,-612 158,-606 158,-600 158,-600 158,-588 158,-588 158,-582 164,-576 170,-576 170,-576 232,-576 232,-576 238,-576 244,-582 244,-588 244,-588 244,-600 244,-600 244,-606 238,-612 232,-612"/>
<text text-anchor="middle" x="201" y="-591.5" font-family="sans" font-size="10.00" fill="#000000">salmon_quant</text>
</g>
<!-- 0&#45;&gt;14 -->
<g id="edge18" class="edge">
<title>0&#45;&gt;14</title>
<path fill="none" stroke="#c0c0c0" stroke-width="2" d="M201,-647.8314C201,-640.131 201,-630.9743 201,-622.4166"/>
<polygon fill="#c0c0c0" stroke="#c0c0c0" stroke-width="2" points="204.5001,-622.4132 201,-612.4133 197.5001,-622.4133 204.5001,-622.4132"/>
</g>
<!-- 1 -->
<g id="node2" class="node">
<title>1</title>
<path fill="none" stroke="#56d8d0" stroke-width="2" d="M226,-108C226,-108 196,-108 196,-108 190,-108 184,-102 184,-96 184,-96 184,-84 184,-84 184,-78 190,-72 196,-72 196,-72 226,-72 226,-72 232,-72 238,-78 238,-84 238,-84 238,-96 238,-96 238,-102 232,-108 226,-108"/>
<text text-anchor="middle" x="211" y="-87.5" font-family="sans" font-size="10.00" fill="#000000">plot_de</text>
</g>
<!-- 3 -->
<g id="node4" class="node">
<title>3</title>
<path fill="none" stroke="#d88d56" stroke-width="2" d="M145,-36C145,-36 115,-36 115,-36 109,-36 103,-30 103,-24 103,-24 103,-12 103,-12 103,-6 109,0 115,0 115,0 145,0 145,0 151,0 157,-6 157,-12 157,-12 157,-24 157,-24 157,-30 151,-36 145,-36"/>
<text text-anchor="middle" x="130" y="-15.5" font-family="sans" font-size="10.00" fill="#000000">all</text>
</g>
<!-- 1&#45;&gt;3 -->
<g id="edge4" class="edge">
<title>1&#45;&gt;3</title>
<path fill="none" stroke="#c0c0c0" stroke-width="2" d="M190.5603,-71.8314C180.6795,-63.0485 168.6676,-52.3712 157.955,-42.8489"/>
<polygon fill="#c0c0c0" stroke="#c0c0c0" stroke-width="2" points="160.2326,-40.1906 150.4332,-36.1628 155.582,-45.4224 160.2326,-40.1906"/>
</g>
<!-- 2 -->
<g id="node3" class="node">
<title>2</title>
<path fill="none" stroke="#56c1d8" stroke-width="2" d="M121.5,-396C121.5,-396 80.5,-396 80.5,-396 74.5,-396 68.5,-390 68.5,-384 68.5,-384 68.5,-372 68.5,-372 68.5,-366 74.5,-360 80.5,-360 80.5,-360 121.5,-360 121.5,-360 127.5,-360 133.5,-366 133.5,-372 133.5,-372 133.5,-384 133.5,-384 133.5,-390 127.5,-396 121.5,-396"/>
<text text-anchor="middle" x="101" y="-375.5" font-family="sans" font-size="10.00" fill="#000000">merge_sn</text>
</g>
<!-- 15 -->
<g id="node16" class="node">
<title>15</title>
<path fill="none" stroke="#56d863" stroke-width="2" d="M140,-324C140,-324 90,-324 90,-324 84,-324 78,-318 78,-312 78,-312 78,-300 78,-300 78,-294 84,-288 90,-288 90,-288 140,-288 140,-288 146,-288 152,-294 152,-300 152,-300 152,-312 152,-312 152,-318 146,-324 140,-324"/>
<text text-anchor="middle" x="115" y="-303.5" font-family="sans" font-size="10.00" fill="#000000">findMarkers</text>
</g>
<!-- 2&#45;&gt;15 -->
<g id="edge19" class="edge">
<title>2&#45;&gt;15</title>
<path fill="none" stroke="#c0c0c0" stroke-width="2" d="M104.5328,-359.8314C106.0301,-352.131 107.8105,-342.9743 109.4745,-334.4166"/>
<polygon fill="#c0c0c0" stroke="#c0c0c0" stroke-width="2" points="112.9465,-334.8975 111.4196,-324.4133 106.0752,-333.5614 112.9465,-334.8975"/>
</g>
<!-- 4 -->
<g id="node5" class="node">
<title>4</title>
<path fill="none" stroke="#d8ac56" stroke-width="2" d="M213.5,-396C213.5,-396 168.5,-396 168.5,-396 162.5,-396 156.5,-390 156.5,-384 156.5,-384 156.5,-372 156.5,-372 156.5,-366 162.5,-360 168.5,-360 168.5,-360 213.5,-360 213.5,-360 219.5,-360 225.5,-366 225.5,-372 225.5,-372 225.5,-384 225.5,-384 225.5,-390 219.5,-396 213.5,-396"/>
<text text-anchor="middle" x="191" y="-375.5" font-family="sans" font-size="10.00" fill="#000000">clean_bulk</text>
</g>
<!-- 5 -->
<g id="node6" class="node">
<title>5</title>
<path fill="none" stroke="#ced856" stroke-width="2" d="M156.5,-252C156.5,-252 103.5,-252 103.5,-252 97.5,-252 91.5,-246 91.5,-240 91.5,-240 91.5,-228 91.5,-228 91.5,-222 97.5,-216 103.5,-216 103.5,-216 156.5,-216 156.5,-216 162.5,-216 168.5,-222 168.5,-228 168.5,-228 168.5,-240 168.5,-240 168.5,-246 162.5,-252 156.5,-252"/>
<text text-anchor="middle" x="130" y="-231.5" font-family="sans" font-size="10.00" fill="#000000">deconvolute</text>
</g>
<!-- 4&#45;&gt;5 -->
<g id="edge11" class="edge">
<title>4&#45;&gt;5</title>
<path fill="none" stroke="#c0c0c0" stroke-width="2" d="M186.0557,-359.668C180.8039,-341.1911 171.7802,-312.0465 161,-288 156.9081,-278.8726 151.7243,-269.2885 146.7724,-260.7703"/>
<polygon fill="#c0c0c0" stroke="#c0c0c0" stroke-width="2" points="149.6807,-258.8137 141.5527,-252.0176 143.6685,-262.399 149.6807,-258.8137"/>
</g>
<!-- 4&#45;&gt;15 -->
<g id="edge20" class="edge">
<title>4&#45;&gt;15</title>
<path fill="none" stroke="#c0c0c0" stroke-width="2" d="M171.822,-359.8314C162.6412,-351.1337 151.4994,-340.5783 141.5224,-331.1265"/>
<polygon fill="#c0c0c0" stroke="#c0c0c0" stroke-width="2" points="143.8385,-328.4995 134.1719,-324.1628 139.0243,-333.5811 143.8385,-328.4995"/>
</g>
<!-- 17 -->
<g id="node18" class="node">
<title>17</title>
<path fill="none" stroke="#97d856" stroke-width="2" d="M265.5,-180C265.5,-180 170.5,-180 170.5,-180 164.5,-180 158.5,-174 158.5,-168 158.5,-168 158.5,-156 158.5,-156 158.5,-150 164.5,-144 170.5,-144 170.5,-144 265.5,-144 265.5,-144 271.5,-144 277.5,-150 277.5,-156 277.5,-156 277.5,-168 277.5,-168 277.5,-174 271.5,-180 265.5,-180"/>
<text text-anchor="middle" x="218" y="-159.5" font-family="sans" font-size="10.00" fill="#000000">diffential_expression</text>
</g>
<!-- 4&#45;&gt;17 -->
<g id="edge23" class="edge">
<title>4&#45;&gt;17</title>
<path fill="none" stroke="#c0c0c0" stroke-width="2" d="M193.2556,-359.9555C197.9607,-322.3144 208.8517,-235.1867 214.4844,-190.1246"/>
<polygon fill="#c0c0c0" stroke="#c0c0c0" stroke-width="2" points="217.9644,-190.502 215.7319,-180.1451 211.0185,-189.6337 217.9644,-190.502"/>
</g>
<!-- 13 -->
<g id="node14" class="node">
<title>13</title>
<path fill="none" stroke="#56d8b9" stroke-width="2" d="M146,-108C146,-108 114,-108 114,-108 108,-108 102,-102 102,-96 102,-96 102,-84 102,-84 102,-78 108,-72 114,-72 114,-72 146,-72 146,-72 152,-72 158,-78 158,-84 158,-84 158,-96 158,-96 158,-102 152,-108 146,-108"/>
<text text-anchor="middle" x="130" y="-87.5" font-family="sans" font-size="10.00" fill="#000000">dirichlet</text>
</g>
<!-- 5&#45;&gt;13 -->
<g id="edge17" class="edge">
<title>5&#45;&gt;13</title>
<path fill="none" stroke="#c0c0c0" stroke-width="2" d="M130,-215.7623C130,-191.201 130,-147.2474 130,-118.3541"/>
<polygon fill="#c0c0c0" stroke="#c0c0c0" stroke-width="2" points="133.5001,-118.0896 130,-108.0896 126.5001,-118.0897 133.5001,-118.0896"/>
</g>
<!-- 5&#45;&gt;17 -->
<g id="edge24" class="edge">
<title>5&#45;&gt;17</title>
<path fill="none" stroke="#c0c0c0" stroke-width="2" d="M152.2061,-215.8314C163.045,-206.9632 176.2444,-196.1637 187.9678,-186.5718"/>
<polygon fill="#c0c0c0" stroke="#c0c0c0" stroke-width="2" points="190.2777,-189.2041 195.801,-180.1628 185.845,-183.7864 190.2777,-189.2041"/>
</g>
<!-- 18 -->
<g id="node19" class="node">
<title>18</title>
<path fill="none" stroke="#5673d8" stroke-width="2" d="M89.5,-180C89.5,-180 40.5,-180 40.5,-180 34.5,-180 28.5,-174 28.5,-168 28.5,-168 28.5,-156 28.5,-156 28.5,-150 34.5,-144 40.5,-144 40.5,-144 89.5,-144 89.5,-144 95.5,-144 101.5,-150 101.5,-156 101.5,-156 101.5,-168 101.5,-168 101.5,-174 95.5,-180 89.5,-180"/>
<text text-anchor="middle" x="65" y="-159.5" font-family="sans" font-size="10.00" fill="#000000">plot_comps</text>
</g>
<!-- 5&#45;&gt;18 -->
<g id="edge25" class="edge">
<title>5&#45;&gt;18</title>
<path fill="none" stroke="#c0c0c0" stroke-width="2" d="M113.5978,-215.8314C105.9585,-207.3694 96.7317,-197.1489 88.3793,-187.8971"/>
<polygon fill="#c0c0c0" stroke="#c0c0c0" stroke-width="2" points="90.9221,-185.4906 81.6231,-180.4133 85.7262,-190.1813 90.9221,-185.4906"/>
</g>
<!-- 6 -->
<g id="node7" class="node">
<title>6</title>
<path fill="none" stroke="#d8c356" stroke-width="2" d="M224,-468C224,-468 178,-468 178,-468 172,-468 166,-462 166,-456 166,-456 166,-444 166,-444 166,-438 172,-432 178,-432 178,-432 224,-432 224,-432 230,-432 236,-438 236,-444 236,-444 236,-456 236,-456 236,-462 230,-468 224,-468"/>
<text text-anchor="middle" x="201" y="-447.5" font-family="sans" font-size="10.00" fill="#000000">ensb2gene</text>
</g>
<!-- 6&#45;&gt;4 -->
<g id="edge9" class="edge">
<title>6&#45;&gt;4</title>
<path fill="none" stroke="#c0c0c0" stroke-width="2" d="M198.4766,-431.8314C197.4071,-424.131 196.1353,-414.9743 194.9468,-406.4166"/>
<polygon fill="#c0c0c0" stroke="#c0c0c0" stroke-width="2" points="198.3999,-405.8367 193.5574,-396.4133 191.4664,-406.7997 198.3999,-405.8367"/>
</g>
<!-- 7 -->
<g id="node8" class="node">
<title>7</title>
<path fill="none" stroke="#b6d856" stroke-width="2" d="M136,-468C136,-468 56,-468 56,-468 50,-468 44,-462 44,-456 44,-456 44,-444 44,-444 44,-438 50,-432 56,-432 56,-432 136,-432 136,-432 142,-432 148,-438 148,-444 148,-444 148,-456 148,-456 148,-462 142,-468 136,-468"/>
<text text-anchor="middle" x="96" y="-447.5" font-family="sans" font-size="10.00" fill="#000000">ambient_doublets</text>
</g>
<!-- 7&#45;&gt;2 -->
<g id="edge3" class="edge">
<title>7&#45;&gt;2</title>
<path fill="none" stroke="#c0c0c0" stroke-width="2" d="M97.2617,-431.8314C97.7965,-424.131 98.4323,-414.9743 99.0266,-406.4166"/>
<polygon fill="#c0c0c0" stroke="#c0c0c0" stroke-width="2" points="102.52,-406.6317 99.7213,-396.4133 95.5368,-406.1467 102.52,-406.6317"/>
</g>
<!-- 8 -->
<g id="node9" class="node">
<title>8</title>
<path fill="none" stroke="#56d882" stroke-width="2" d="M224,-756C224,-756 178,-756 178,-756 172,-756 166,-750 166,-744 166,-744 166,-732 166,-732 166,-726 172,-720 178,-720 178,-720 224,-720 224,-720 230,-720 236,-726 236,-732 236,-732 236,-744 236,-744 236,-750 230,-756 224,-756"/>
<text text-anchor="middle" x="201" y="-735.5" font-family="sans" font-size="10.00" fill="#000000">load_index</text>
</g>
<!-- 8&#45;&gt;0 -->
<g id="edge1" class="edge">
<title>8&#45;&gt;0</title>
<path fill="none" stroke="#c0c0c0" stroke-width="2" d="M201,-719.8314C201,-712.131 201,-702.9743 201,-694.4166"/>
<polygon fill="#c0c0c0" stroke="#c0c0c0" stroke-width="2" points="204.5001,-694.4132 201,-684.4133 197.5001,-694.4133 204.5001,-694.4132"/>
</g>
<!-- 9 -->
<g id="node10" class="node">
<title>9</title>
<path fill="none" stroke="#80d856" stroke-width="2" d="M218.5,-540C218.5,-540 183.5,-540 183.5,-540 177.5,-540 171.5,-534 171.5,-528 171.5,-528 171.5,-516 171.5,-516 171.5,-510 177.5,-504 183.5,-504 183.5,-504 218.5,-504 218.5,-504 224.5,-504 230.5,-510 230.5,-516 230.5,-516 230.5,-528 230.5,-528 230.5,-534 224.5,-540 218.5,-540"/>
<text text-anchor="middle" x="201" y="-519.5" font-family="sans" font-size="10.00" fill="#000000">tximport</text>
</g>
<!-- 9&#45;&gt;6 -->
<g id="edge12" class="edge">
<title>9&#45;&gt;6</title>
<path fill="none" stroke="#c0c0c0" stroke-width="2" d="M201,-503.8314C201,-496.131 201,-486.9743 201,-478.4166"/>
<polygon fill="#c0c0c0" stroke="#c0c0c0" stroke-width="2" points="204.5001,-478.4132 201,-468.4133 197.5001,-478.4133 204.5001,-478.4132"/>
</g>
<!-- 10 -->
<g id="node11" class="node">
<title>10</title>
<path fill="none" stroke="#61d856" stroke-width="2" d="M111,-540C111,-540 81,-540 81,-540 75,-540 69,-534 69,-528 69,-528 69,-516 69,-516 69,-510 75,-504 81,-504 81,-504 111,-504 111,-504 117,-504 123,-510 123,-516 123,-516 123,-528 123,-528 123,-534 117,-540 111,-540"/>
<text text-anchor="middle" x="96" y="-519.5" font-family="sans" font-size="10.00" fill="#000000">load_sn</text>
</g>
<!-- 10&#45;&gt;7 -->
<g id="edge13" class="edge">
<title>10&#45;&gt;7</title>
<path fill="none" stroke="#c0c0c0" stroke-width="2" d="M96,-503.8314C96,-496.131 96,-486.9743 96,-478.4166"/>
<polygon fill="#c0c0c0" stroke="#c0c0c0" stroke-width="2" points="99.5001,-478.4132 96,-468.4133 92.5001,-478.4133 99.5001,-478.4132"/>
</g>
<!-- 11 -->
<g id="node12" class="node">
<title>11</title>
<path fill="none" stroke="#568ad8" stroke-width="2" d="M80,-612C80,-612 48,-612 48,-612 42,-612 36,-606 36,-600 36,-600 36,-588 36,-588 36,-582 42,-576 48,-576 48,-576 80,-576 80,-576 86,-576 92,-582 92,-588 92,-588 92,-600 92,-600 92,-606 86,-612 80,-612"/>
<text text-anchor="middle" x="64" y="-591.5" font-family="sans" font-size="10.00" fill="#000000">load_gtf</text>
</g>
<!-- 11&#45;&gt;3 -->
<g id="edge6" class="edge">
<title>11&#45;&gt;3</title>
<path fill="none" stroke="#c0c0c0" stroke-width="2" d="M49.7963,-575.6041C30.9414,-549.293 0,-498.6971 0,-450 0,-450 0,-450 0,-162 0,-105.7186 55.3904,-61.5568 93.8593,-37.6729"/>
<polygon fill="#c0c0c0" stroke="#c0c0c0" stroke-width="2" points="95.9843,-40.479 102.7477,-32.3239 92.3749,-34.4813 95.9843,-40.479"/>
</g>
<!-- 11&#45;&gt;9 -->
<g id="edge15" class="edge">
<title>11&#45;&gt;9</title>
<path fill="none" stroke="#c0c0c0" stroke-width="2" d="M92.0546,-579.256C112.2829,-568.625 139.8425,-554.1412 162.1811,-542.4012"/>
<polygon fill="#c0c0c0" stroke="#c0c0c0" stroke-width="2" points="163.8605,-545.4725 171.0842,-537.7222 160.604,-539.2761 163.8605,-545.4725"/>
</g>
<!-- 12 -->
<g id="node13" class="node">
<title>12</title>
<path fill="none" stroke="#d87556" stroke-width="2" d="M304,-612C304,-612 274,-612 274,-612 268,-612 262,-606 262,-600 262,-600 262,-588 262,-588 262,-582 268,-576 274,-576 274,-576 304,-576 304,-576 310,-576 316,-582 316,-588 316,-588 316,-600 316,-600 316,-606 310,-612 304,-612"/>
<text text-anchor="middle" x="289" y="-591.5" font-family="sans" font-size="10.00" fill="#000000">fastqc</text>
</g>
<!-- 12&#45;&gt;9 -->
<g id="edge14" class="edge">
<title>12&#45;&gt;9</title>
<path fill="none" stroke="#c0c0c0" stroke-width="2" d="M266.7939,-575.8314C255.955,-566.9632 242.7556,-556.1637 231.0322,-546.5718"/>
<polygon fill="#c0c0c0" stroke="#c0c0c0" stroke-width="2" points="233.155,-543.7864 223.199,-540.1628 228.7223,-549.2041 233.155,-543.7864"/>
</g>
<!-- 16 -->
<g id="node17" class="node">
<title>16</title>
<path fill="none" stroke="#56a9d8" stroke-width="2" d="M304,-540C304,-540 274,-540 274,-540 268,-540 262,-534 262,-528 262,-528 262,-516 262,-516 262,-510 268,-504 274,-504 274,-504 304,-504 304,-504 310,-504 316,-510 316,-516 316,-516 316,-528 316,-528 316,-534 310,-540 304,-540"/>
<text text-anchor="middle" x="289" y="-519.5" font-family="sans" font-size="10.00" fill="#000000">multiqc</text>
</g>
<!-- 12&#45;&gt;16 -->
<g id="edge21" class="edge">
<title>12&#45;&gt;16</title>
<path fill="none" stroke="#c0c0c0" stroke-width="2" d="M289,-575.8314C289,-568.131 289,-558.9743 289,-550.4166"/>
<polygon fill="#c0c0c0" stroke="#c0c0c0" stroke-width="2" points="292.5001,-550.4132 289,-540.4133 285.5001,-550.4133 292.5001,-550.4132"/>
</g>
<!-- 13&#45;&gt;3 -->
<g id="edge7" class="edge">
<title>13&#45;&gt;3</title>
<path fill="none" stroke="#c0c0c0" stroke-width="2" d="M130,-71.8314C130,-64.131 130,-54.9743 130,-46.4166"/>
<polygon fill="#c0c0c0" stroke="#c0c0c0" stroke-width="2" points="133.5001,-46.4132 130,-36.4133 126.5001,-46.4133 133.5001,-46.4132"/>
</g>
<!-- 14&#45;&gt;9 -->
<g id="edge16" class="edge">
<title>14&#45;&gt;9</title>
<path fill="none" stroke="#c0c0c0" stroke-width="2" d="M201,-575.8314C201,-568.131 201,-558.9743 201,-550.4166"/>
<polygon fill="#c0c0c0" stroke="#c0c0c0" stroke-width="2" points="204.5001,-550.4132 201,-540.4133 197.5001,-550.4133 204.5001,-550.4132"/>
</g>
<!-- 14&#45;&gt;16 -->
<g id="edge22" class="edge">
<title>14&#45;&gt;16</title>
<path fill="none" stroke="#c0c0c0" stroke-width="2" d="M223.2061,-575.8314C234.045,-566.9632 247.2444,-556.1637 258.9678,-546.5718"/>
<polygon fill="#c0c0c0" stroke="#c0c0c0" stroke-width="2" points="261.2777,-549.2041 266.801,-540.1628 256.845,-543.7864 261.2777,-549.2041"/>
</g>
<!-- 15&#45;&gt;5 -->
<g id="edge10" class="edge">
<title>15&#45;&gt;5</title>
<path fill="none" stroke="#c0c0c0" stroke-width="2" d="M118.7851,-287.8314C120.3894,-280.131 122.297,-270.9743 124.0799,-262.4166"/>
<polygon fill="#c0c0c0" stroke="#c0c0c0" stroke-width="2" points="127.5507,-262.9169 126.1639,-252.4133 120.6979,-261.4892 127.5507,-262.9169"/>
</g>
<!-- 16&#45;&gt;3 -->
<g id="edge5" class="edge">
<title>16&#45;&gt;3</title>
<path fill="none" stroke="#c0c0c0" stroke-width="2" d="M292.5224,-503.8955C297.5018,-476.6824 306,-423.5642 306,-378 306,-378 306,-378 306,-162 306,-90.6032 218.1697,-48.2181 166.6001,-29.4852"/>
<polygon fill="#c0c0c0" stroke="#c0c0c0" stroke-width="2" points="167.7091,-26.1652 157.1143,-26.1565 165.3913,-32.7703 167.7091,-26.1652"/>
</g>
<!-- 17&#45;&gt;1 -->
<g id="edge2" class="edge">
<title>17&#45;&gt;1</title>
<path fill="none" stroke="#c0c0c0" stroke-width="2" d="M216.2336,-143.8314C215.485,-136.131 214.5947,-126.9743 213.7627,-118.4166"/>
<polygon fill="#c0c0c0" stroke="#c0c0c0" stroke-width="2" points="217.2415,-118.0276 212.7902,-108.4133 210.2744,-118.7051 217.2415,-118.0276"/>
</g>
<!-- 18&#45;&gt;3 -->
<g id="edge8" class="edge">
<title>18&#45;&gt;3</title>
<path fill="none" stroke="#c0c0c0" stroke-width="2" d="M68.9602,-143.8119C73.3998,-125.1939 81.5129,-95.7094 93,-72 97.5603,-62.5876 103.6235,-52.9638 109.5198,-44.497"/>
<polygon fill="#c0c0c0" stroke="#c0c0c0" stroke-width="2" points="112.5278,-46.3094 115.5339,-36.15 106.8484,-42.2174 112.5278,-46.3094"/>
</g>
</g>
</svg>
