<?xml version="1.0" encoding="UTF-8" standalone="no"?>
<!DOCTYPE svg PUBLIC "-//W3C//DTD SVG 1.1//EN"
 "http://www.w3.org/Graphics/SVG/1.1/DTD/svg11.dtd">
<!-- Generated by graphviz version 2.40.1 (0)
 -->
<!-- Title: snakemake_dag Pages: 1 -->
<svg width="314pt" height="548pt"
 viewBox="0.00 0.00 314.00 548.00" xmlns="http://www.w3.org/2000/svg" xmlns:xlink="http://www.w3.org/1999/xlink">
<g id="graph0" class="graph" transform="scale(1 1) rotate(0) translate(4 544)">
<title>snakemake_dag</title>
<polygon fill="#ffffff" stroke="transparent" points="-4,4 -4,-544 310,-544 310,4 -4,4"/>
<!-- 0 -->
<g id="node1" class="node">
<title>0</title>
<path fill="none" stroke="#ced856" stroke-width="2" stroke-dasharray="5,2" d="M88.5,-540C88.5,-540 25.5,-540 25.5,-540 19.5,-540 13.5,-534 13.5,-528 13.5,-528 13.5,-516 13.5,-516 13.5,-510 19.5,-504 25.5,-504 25.5,-504 88.5,-504 88.5,-504 94.5,-504 100.5,-510 100.5,-516 100.5,-516 100.5,-528 100.5,-528 100.5,-534 94.5,-540 88.5,-540"/>
<text text-anchor="middle" x="57" y="-525" font-family="sans" font-size="10.00" fill="#000000">load_sn</text>
<text text-anchor="middle" x="57" y="-514" font-family="sans" font-size="10.00" fill="#000000">samples: b6_1</text>
</g>
<!-- 2 -->
<g id="node3" class="node">
<title>2</title>
<path fill="none" stroke="#9fd856" stroke-width="2" stroke-dasharray="5,2" d="M97,-468C97,-468 17,-468 17,-468 11,-468 5,-462 5,-456 5,-456 5,-444 5,-444 5,-438 11,-432 17,-432 17,-432 97,-432 97,-432 103,-432 109,-438 109,-444 109,-444 109,-456 109,-456 109,-462 103,-468 97,-468"/>
<text text-anchor="middle" x="57" y="-447.5" font-family="sans" font-size="10.00" fill="#000000">ambient_doublets</text>
</g>
<!-- 0&#45;&gt;2 -->
<g id="edge2" class="edge">
<title>0&#45;&gt;2</title>
<path fill="none" stroke="#c0c0c0" stroke-width="2" d="M57,-503.8314C57,-496.131 57,-486.9743 57,-478.4166"/>
<polygon fill="#c0c0c0" stroke="#c0c0c0" stroke-width="2" points="60.5001,-478.4132 57,-468.4133 53.5001,-478.4133 60.5001,-478.4132"/>
</g>
<!-- 1 -->
<g id="node2" class="node">
<title>1</title>
<path fill="none" stroke="#56d86b" stroke-width="2" stroke-dasharray="5,2" d="M146,-108C146,-108 114,-108 114,-108 108,-108 102,-102 102,-96 102,-96 102,-84 102,-84 102,-78 108,-72 114,-72 114,-72 146,-72 146,-72 152,-72 158,-78 158,-84 158,-84 158,-96 158,-96 158,-102 152,-108 146,-108"/>
<text text-anchor="middle" x="130" y="-87.5" font-family="sans" font-size="10.00" fill="#000000">dirichlet</text>
</g>
<!-- 7 -->
<g id="node8" class="node">
<title>7</title>
<path fill="none" stroke="#d88556" stroke-width="2" stroke-dasharray="5,2" d="M145,-36C145,-36 115,-36 115,-36 109,-36 103,-30 103,-24 103,-24 103,-12 103,-12 103,-6 109,0 115,0 115,0 145,0 145,0 151,0 157,-6 157,-12 157,-12 157,-24 157,-24 157,-30 151,-36 145,-36"/>
<text text-anchor="middle" x="130" y="-15.5" font-family="sans" font-size="10.00" fill="#000000">all</text>
</g>
<!-- 1&#45;&gt;7 -->
<g id="edge10" class="edge">
<title>1&#45;&gt;7</title>
<path fill="none" stroke="#c0c0c0" stroke-width="2" d="M130,-71.8314C130,-64.131 130,-54.9743 130,-46.4166"/>
<polygon fill="#c0c0c0" stroke="#c0c0c0" stroke-width="2" points="133.5001,-46.4132 130,-36.4133 126.5001,-46.4133 133.5001,-46.4132"/>
</g>
<!-- 6 -->
<g id="node7" class="node">
<title>6</title>
<path fill="none" stroke="#56d8c9" stroke-width="2" stroke-dasharray="5,2" d="M125.5,-396C125.5,-396 84.5,-396 84.5,-396 78.5,-396 72.5,-390 72.5,-384 72.5,-384 72.5,-372 72.5,-372 72.5,-366 78.5,-360 84.5,-360 84.5,-360 125.5,-360 125.5,-360 131.5,-360 137.5,-366 137.5,-372 137.5,-372 137.5,-384 137.5,-384 137.5,-390 131.5,-396 125.5,-396"/>
<text text-anchor="middle" x="105" y="-375.5" font-family="sans" font-size="10.00" fill="#000000">merge_sn</text>
</g>
<!-- 2&#45;&gt;6 -->
<g id="edge7" class="edge">
<title>2&#45;&gt;6</title>
<path fill="none" stroke="#c0c0c0" stroke-width="2" d="M69.1124,-431.8314C74.5281,-423.7079 81.0242,-413.9637 86.9921,-405.0118"/>
<polygon fill="#c0c0c0" stroke="#c0c0c0" stroke-width="2" points="90.0896,-406.6753 92.7245,-396.4133 84.2653,-402.7923 90.0896,-406.6753"/>
</g>
<!-- 2&#45;&gt;7 -->
<g id="edge11" class="edge">
<title>2&#45;&gt;7</title>
<path fill="none" stroke="#c0c0c0" stroke-width="2" d="M44.6318,-431.8166C27.8677,-405.3548 0,-354.1283 0,-306 0,-306 0,-306 0,-162 0,-105.7186 55.3904,-61.5568 93.8593,-37.6729"/>
<polygon fill="#c0c0c0" stroke="#c0c0c0" stroke-width="2" points="95.9843,-40.479 102.7477,-32.3239 92.3749,-34.4813 95.9843,-40.479"/>
</g>
<!-- 3 -->
<g id="node4" class="node">
<title>3</title>
<path fill="none" stroke="#d8b456" stroke-width="2" stroke-dasharray="5,2" d="M140,-324C140,-324 90,-324 90,-324 84,-324 78,-318 78,-312 78,-312 78,-300 78,-300 78,-294 84,-288 90,-288 90,-288 140,-288 140,-288 146,-288 152,-294 152,-300 152,-300 152,-312 152,-312 152,-318 146,-324 140,-324"/>
<text text-anchor="middle" x="115" y="-303.5" font-family="sans" font-size="10.00" fill="#000000">findMarkers</text>
</g>
<!-- 12 -->
<g id="node13" class="node">
<title>12</title>
<path fill="none" stroke="#5682d8" stroke-width="2" stroke-dasharray="5,2" d="M156.5,-252C156.5,-252 103.5,-252 103.5,-252 97.5,-252 91.5,-246 91.5,-240 91.5,-240 91.5,-228 91.5,-228 91.5,-222 97.5,-216 103.5,-216 103.5,-216 156.5,-216 156.5,-216 162.5,-216 168.5,-222 168.5,-228 168.5,-228 168.5,-240 168.5,-240 168.5,-246 162.5,-252 156.5,-252"/>
<text text-anchor="middle" x="130" y="-231.5" font-family="sans" font-size="10.00" fill="#000000">deconvolute</text>
</g>
<!-- 3&#45;&gt;12 -->
<g id="edge18" class="edge">
<title>3&#45;&gt;12</title>
<path fill="none" stroke="#c0c0c0" stroke-width="2" d="M118.7851,-287.8314C120.3894,-280.131 122.297,-270.9743 124.0799,-262.4166"/>
<polygon fill="#c0c0c0" stroke="#c0c0c0" stroke-width="2" points="127.5507,-262.9169 126.1639,-252.4133 120.6979,-261.4892 127.5507,-262.9169"/>
</g>
<!-- 4 -->
<g id="node5" class="node">
<title>4</title>
<path fill="none" stroke="#70d856" stroke-width="2" stroke-dasharray="5,2" d="M89.5,-180C89.5,-180 40.5,-180 40.5,-180 34.5,-180 28.5,-174 28.5,-168 28.5,-168 28.5,-156 28.5,-156 28.5,-150 34.5,-144 40.5,-144 40.5,-144 89.5,-144 89.5,-144 95.5,-144 101.5,-150 101.5,-156 101.5,-156 101.5,-168 101.5,-168 101.5,-174 95.5,-180 89.5,-180"/>
<text text-anchor="middle" x="65" y="-159.5" font-family="sans" font-size="10.00" fill="#000000">plot_comps</text>
</g>
<!-- 4&#45;&gt;7 -->
<g id="edge12" class="edge">
<title>4&#45;&gt;7</title>
<path fill="none" stroke="#c0c0c0" stroke-width="2" d="M68.9602,-143.8119C73.3998,-125.1939 81.5129,-95.7094 93,-72 97.5603,-62.5876 103.6235,-52.9638 109.5198,-44.497"/>
<polygon fill="#c0c0c0" stroke="#c0c0c0" stroke-width="2" points="112.5278,-46.3094 115.5339,-36.15 106.8484,-42.2174 112.5278,-46.3094"/>
</g>
<!-- 5 -->
<g id="node6" class="node">
<title>5</title>
<path fill="none" stroke="#56d89a" stroke-width="2" stroke-dasharray="5,2" d="M226,-108C226,-108 196,-108 196,-108 190,-108 184,-102 184,-96 184,-96 184,-84 184,-84 184,-78 190,-72 196,-72 196,-72 226,-72 226,-72 232,-72 238,-78 238,-84 238,-84 238,-96 238,-96 238,-102 232,-108 226,-108"/>
<text text-anchor="middle" x="211" y="-87.5" font-family="sans" font-size="10.00" fill="#000000">plot_de</text>
</g>
<!-- 5&#45;&gt;7 -->
<g id="edge9" class="edge">
<title>5&#45;&gt;7</title>
<path fill="none" stroke="#c0c0c0" stroke-width="2" d="M190.5603,-71.8314C180.6795,-63.0485 168.6676,-52.3712 157.955,-42.8489"/>
<polygon fill="#c0c0c0" stroke="#c0c0c0" stroke-width="2" points="160.2326,-40.1906 150.4332,-36.1628 155.582,-45.4224 160.2326,-40.1906"/>
</g>
<!-- 6&#45;&gt;3 -->
<g id="edge3" class="edge">
<title>6&#45;&gt;3</title>
<path fill="none" stroke="#c0c0c0" stroke-width="2" d="M107.5234,-359.8314C108.5929,-352.131 109.8647,-342.9743 111.0532,-334.4166"/>
<polygon fill="#c0c0c0" stroke="#c0c0c0" stroke-width="2" points="114.5336,-334.7997 112.4426,-324.4133 107.6001,-333.8367 114.5336,-334.7997"/>
</g>
<!-- 8 -->
<g id="node9" class="node">
<title>8</title>
<path fill="none" stroke="#d85656" stroke-width="2" stroke-dasharray="5,2" d="M212.5,-396C212.5,-396 167.5,-396 167.5,-396 161.5,-396 155.5,-390 155.5,-384 155.5,-384 155.5,-372 155.5,-372 155.5,-366 161.5,-360 167.5,-360 167.5,-360 212.5,-360 212.5,-360 218.5,-360 224.5,-366 224.5,-372 224.5,-372 224.5,-384 224.5,-384 224.5,-390 218.5,-396 212.5,-396"/>
<text text-anchor="middle" x="190" y="-375.5" font-family="sans" font-size="10.00" fill="#000000">clean_bulk</text>
</g>
<!-- 8&#45;&gt;3 -->
<g id="edge4" class="edge">
<title>8&#45;&gt;3</title>
<path fill="none" stroke="#c0c0c0" stroke-width="2" d="M171.0743,-359.8314C162.0143,-351.1337 151.0191,-340.5783 141.1735,-331.1265"/>
<polygon fill="#c0c0c0" stroke="#c0c0c0" stroke-width="2" points="143.5574,-328.5633 133.9196,-324.1628 138.7096,-333.613 143.5574,-328.5633"/>
</g>
<!-- 9 -->
<g id="node10" class="node">
<title>9</title>
<path fill="none" stroke="#56b1d8" stroke-width="2" stroke-dasharray="5,2" d="M265.5,-180C265.5,-180 170.5,-180 170.5,-180 164.5,-180 158.5,-174 158.5,-168 158.5,-168 158.5,-156 158.5,-156 158.5,-150 164.5,-144 170.5,-144 170.5,-144 265.5,-144 265.5,-144 271.5,-144 277.5,-150 277.5,-156 277.5,-156 277.5,-168 277.5,-168 277.5,-174 271.5,-180 265.5,-180"/>
<text text-anchor="middle" x="218" y="-159.5" font-family="sans" font-size="10.00" fill="#000000">diffential_expression</text>
</g>
<!-- 8&#45;&gt;9 -->
<g id="edge14" class="edge">
<title>8&#45;&gt;9</title>
<path fill="none" stroke="#c0c0c0" stroke-width="2" d="M192.3391,-359.9555C197.2185,-322.3144 208.5128,-235.1867 214.3542,-190.1246"/>
<polygon fill="#c0c0c0" stroke="#c0c0c0" stroke-width="2" points="217.8332,-190.5121 215.6479,-180.1451 210.8913,-189.6121 217.8332,-190.5121"/>
</g>
<!-- 8&#45;&gt;12 -->
<g id="edge17" class="edge">
<title>8&#45;&gt;12</title>
<path fill="none" stroke="#c0c0c0" stroke-width="2" d="M185.3064,-359.6573C180.2964,-341.1721 171.6244,-312.0211 161,-288 157.0182,-278.9974 151.9467,-269.5668 147.0645,-261.1518"/>
<polygon fill="#c0c0c0" stroke="#c0c0c0" stroke-width="2" points="150.0273,-259.2864 141.9017,-252.4875 144.0139,-262.8696 150.0273,-259.2864"/>
</g>
<!-- 9&#45;&gt;5 -->
<g id="edge6" class="edge">
<title>9&#45;&gt;5</title>
<path fill="none" stroke="#c0c0c0" stroke-width="2" d="M216.2336,-143.8314C215.485,-136.131 214.5947,-126.9743 213.7627,-118.4166"/>
<polygon fill="#c0c0c0" stroke="#c0c0c0" stroke-width="2" points="217.2415,-118.0276 212.7902,-108.4133 210.2744,-118.7051 217.2415,-118.0276"/>
</g>
<!-- 10 -->
<g id="node11" class="node">
<title>10</title>
<path fill="none" stroke="#9fd856" stroke-width="2" stroke-dasharray="5,2" d="M282,-468C282,-468 202,-468 202,-468 196,-468 190,-462 190,-456 190,-456 190,-444 190,-444 190,-438 196,-432 202,-432 202,-432 282,-432 282,-432 288,-432 294,-438 294,-444 294,-444 294,-456 294,-456 294,-462 288,-468 282,-468"/>
<text text-anchor="middle" x="242" y="-447.5" font-family="sans" font-size="10.00" fill="#000000">ambient_doublets</text>
</g>
<!-- 10&#45;&gt;6 -->
<g id="edge8" class="edge">
<title>10&#45;&gt;6</title>
<path fill="none" stroke="#c0c0c0" stroke-width="2" d="M207.4291,-431.8314C188.9529,-422.1212 166.0708,-410.0956 146.6235,-399.8751"/>
<polygon fill="#c0c0c0" stroke="#c0c0c0" stroke-width="2" points="148.1537,-396.7255 137.6735,-395.1715 144.8972,-402.9218 148.1537,-396.7255"/>
</g>
<!-- 10&#45;&gt;7 -->
<g id="edge13" class="edge">
<title>10&#45;&gt;7</title>
<path fill="none" stroke="#c0c0c0" stroke-width="2" d="M256.2037,-431.6041C275.0586,-405.293 306,-354.6971 306,-306 306,-306 306,-306 306,-162 306,-90.6032 218.1697,-48.2181 166.6001,-29.4852"/>
<polygon fill="#c0c0c0" stroke="#c0c0c0" stroke-width="2" points="167.7091,-26.1652 157.1143,-26.1565 165.3913,-32.7703 167.7091,-26.1652"/>
</g>
<!-- 11 -->
<g id="node12" class="node">
<title>11</title>
<path fill="none" stroke="#ced856" stroke-width="2" stroke-dasharray="5,2" d="M273.5,-540C273.5,-540 210.5,-540 210.5,-540 204.5,-540 198.5,-534 198.5,-528 198.5,-528 198.5,-516 198.5,-516 198.5,-510 204.5,-504 210.5,-504 210.5,-504 273.5,-504 273.5,-504 279.5,-504 285.5,-510 285.5,-516 285.5,-516 285.5,-528 285.5,-528 285.5,-534 279.5,-540 273.5,-540"/>
<text text-anchor="middle" x="242" y="-525" font-family="sans" font-size="10.00" fill="#000000">load_sn</text>
<text text-anchor="middle" x="242" y="-514" font-family="sans" font-size="10.00" fill="#000000">samples: b6_2</text>
</g>
<!-- 11&#45;&gt;10 -->
<g id="edge16" class="edge">
<title>11&#45;&gt;10</title>
<path fill="none" stroke="#c0c0c0" stroke-width="2" d="M242,-503.8314C242,-496.131 242,-486.9743 242,-478.4166"/>
<polygon fill="#c0c0c0" stroke="#c0c0c0" stroke-width="2" points="245.5001,-478.4132 242,-468.4133 238.5001,-478.4133 245.5001,-478.4132"/>
</g>
<!-- 12&#45;&gt;1 -->
<g id="edge1" class="edge">
<title>12&#45;&gt;1</title>
<path fill="none" stroke="#c0c0c0" stroke-width="2" d="M130,-215.7623C130,-191.201 130,-147.2474 130,-118.3541"/>
<polygon fill="#c0c0c0" stroke="#c0c0c0" stroke-width="2" points="133.5001,-118.0896 130,-108.0896 126.5001,-118.0897 133.5001,-118.0896"/>
</g>
<!-- 12&#45;&gt;4 -->
<g id="edge5" class="edge">
<title>12&#45;&gt;4</title>
<path fill="none" stroke="#c0c0c0" stroke-width="2" d="M113.5978,-215.8314C105.9585,-207.3694 96.7317,-197.1489 88.3793,-187.8971"/>
<polygon fill="#c0c0c0" stroke="#c0c0c0" stroke-width="2" points="90.9221,-185.4906 81.6231,-180.4133 85.7262,-190.1813 90.9221,-185.4906"/>
</g>
<!-- 12&#45;&gt;9 -->
<g id="edge15" class="edge">
<title>12&#45;&gt;9</title>
<path fill="none" stroke="#c0c0c0" stroke-width="2" d="M152.2061,-215.8314C163.045,-206.9632 176.2444,-196.1637 187.9678,-186.5718"/>
<polygon fill="#c0c0c0" stroke="#c0c0c0" stroke-width="2" points="190.2777,-189.2041 195.801,-180.1628 185.845,-183.7864 190.2777,-189.2041"/>
</g>
</g>
</svg>
