<?xml version="1.0" encoding="UTF-8" standalone="no"?>
<!DOCTYPE svg PUBLIC "-//W3C//DTD SVG 1.1//EN"
 "http://www.w3.org/Graphics/SVG/1.1/DTD/svg11.dtd">
<!-- Generated by graphviz version 2.40.1 (0)
 -->
<!-- Title: snakemake_dag Pages: 1 -->
<svg width="545pt" height="548pt"
 viewBox="0.00 0.00 545.00 548.00" xmlns="http://www.w3.org/2000/svg" xmlns:xlink="http://www.w3.org/1999/xlink">
<g id="graph0" class="graph" transform="scale(1 1) rotate(0) translate(4 544)">
<title>snakemake_dag</title>
<polygon fill="#ffffff" stroke="transparent" points="-4,4 -4,-544 541,-544 541,4 -4,4"/>
<!-- 0 -->
<g id="node1" class="node">
<title>0</title>
<path fill="none" stroke="#d85656" stroke-width="2" d="M525,-180C525,-180 463,-180 463,-180 457,-180 451,-174 451,-168 451,-168 451,-156 451,-156 451,-150 457,-144 463,-144 463,-144 525,-144 525,-144 531,-144 537,-150 537,-156 537,-156 537,-168 537,-168 537,-174 531,-180 525,-180"/>
<text text-anchor="middle" x="494" y="-159.5" font-family="sans" font-size="10.00" fill="#000000">salmon_quant</text>
</g>
<!-- 13 -->
<g id="node14" class="node">
<title>13</title>
<path fill="none" stroke="#56c9d8" stroke-width="2" d="M456.5,-108C456.5,-108 421.5,-108 421.5,-108 415.5,-108 409.5,-102 409.5,-96 409.5,-96 409.5,-84 409.5,-84 409.5,-78 415.5,-72 421.5,-72 421.5,-72 456.5,-72 456.5,-72 462.5,-72 468.5,-78 468.5,-84 468.5,-84 468.5,-96 468.5,-96 468.5,-102 462.5,-108 456.5,-108"/>
<text text-anchor="middle" x="439" y="-87.5" font-family="sans" font-size="10.00" fill="#000000">tximport</text>
</g>
<!-- 0&#45;&gt;13 -->
<g id="edge13" class="edge">
<title>0&#45;&gt;13</title>
<path fill="none" stroke="#c0c0c0" stroke-width="2" d="M480.1212,-143.8314C473.7864,-135.5386 466.1616,-125.557 459.2074,-116.4533"/>
<polygon fill="#c0c0c0" stroke="#c0c0c0" stroke-width="2" points="461.9175,-114.2353 453.0657,-108.4133 456.3548,-118.4847 461.9175,-114.2353"/>
</g>
<!-- 16 -->
<g id="node17" class="node">
<title>16</title>
<path fill="none" stroke="#5692d8" stroke-width="2" d="M379,-108C379,-108 349,-108 349,-108 343,-108 337,-102 337,-96 337,-96 337,-84 337,-84 337,-78 343,-72 349,-72 349,-72 379,-72 379,-72 385,-72 391,-78 391,-84 391,-84 391,-96 391,-96 391,-102 385,-108 379,-108"/>
<text text-anchor="middle" x="364" y="-87.5" font-family="sans" font-size="10.00" fill="#000000">multiqc</text>
</g>
<!-- 0&#45;&gt;16 -->
<g id="edge16" class="edge">
<title>0&#45;&gt;16</title>
<path fill="none" stroke="#c0c0c0" stroke-width="2" d="M461.1955,-143.8314C442.4945,-133.4739 419.0368,-120.4819 399.8517,-109.8563"/>
<polygon fill="#c0c0c0" stroke="#c0c0c0" stroke-width="2" points="401.5377,-106.7892 391.094,-105.0059 398.1462,-112.9127 401.5377,-106.7892"/>
</g>
<!-- 1 -->
<g id="node2" class="node">
<title>1</title>
<path fill="none" stroke="#d87556" stroke-width="2" d="M421,-180C421,-180 391,-180 391,-180 385,-180 379,-174 379,-168 379,-168 379,-156 379,-156 379,-150 385,-144 391,-144 391,-144 421,-144 421,-144 427,-144 433,-150 433,-156 433,-156 433,-168 433,-168 433,-174 427,-180 421,-180"/>
<text text-anchor="middle" x="406" y="-159.5" font-family="sans" font-size="10.00" fill="#000000">fastqc</text>
</g>
<!-- 1&#45;&gt;13 -->
<g id="edge14" class="edge">
<title>1&#45;&gt;13</title>
<path fill="none" stroke="#c0c0c0" stroke-width="2" d="M414.3273,-143.8314C417.973,-135.8771 422.3309,-126.369 426.3627,-117.5723"/>
<polygon fill="#c0c0c0" stroke="#c0c0c0" stroke-width="2" points="429.5757,-118.9622 430.5606,-108.4133 423.2123,-116.0456 429.5757,-118.9622"/>
</g>
<!-- 1&#45;&gt;16 -->
<g id="edge17" class="edge">
<title>1&#45;&gt;16</title>
<path fill="none" stroke="#c0c0c0" stroke-width="2" d="M395.4016,-143.8314C390.7123,-135.7925 385.0972,-126.1666 379.9202,-117.2918"/>
<polygon fill="#c0c0c0" stroke="#c0c0c0" stroke-width="2" points="382.8031,-115.2875 374.7411,-108.4133 376.7566,-118.8146 382.8031,-115.2875"/>
</g>
<!-- 2 -->
<g id="node3" class="node">
<title>2</title>
<path fill="none" stroke="#56a9d8" stroke-width="2" d="M44,-108C44,-108 12,-108 12,-108 6,-108 0,-102 0,-96 0,-96 0,-84 0,-84 0,-78 6,-72 12,-72 12,-72 44,-72 44,-72 50,-72 56,-78 56,-84 56,-84 56,-96 56,-96 56,-102 50,-108 44,-108"/>
<text text-anchor="middle" x="28" y="-87.5" font-family="sans" font-size="10.00" fill="#000000">load_gtf</text>
</g>
<!-- 17 -->
<g id="node18" class="node">
<title>17</title>
<path fill="none" stroke="#5673d8" stroke-width="2" d="M211,-36C211,-36 181,-36 181,-36 175,-36 169,-30 169,-24 169,-24 169,-12 169,-12 169,-6 175,0 181,0 181,0 211,0 211,0 217,0 223,-6 223,-12 223,-12 223,-24 223,-24 223,-30 217,-36 211,-36"/>
<text text-anchor="middle" x="196" y="-15.5" font-family="sans" font-size="10.00" fill="#000000">all</text>
</g>
<!-- 2&#45;&gt;17 -->
<g id="edge23" class="edge">
<title>2&#45;&gt;17</title>
<path fill="none" stroke="#c0c0c0" stroke-width="2" d="M56.1194,-77.9488C84.4399,-65.8115 128.2698,-47.0272 159.3102,-33.7242"/>
<polygon fill="#c0c0c0" stroke="#c0c0c0" stroke-width="2" points="161.0902,-36.7693 168.9029,-29.613 158.3327,-30.3353 161.0902,-36.7693"/>
</g>
<!-- 3 -->
<g id="node4" class="node">
<title>3</title>
<path fill="none" stroke="#d8ac56" stroke-width="2" d="M156,-108C156,-108 124,-108 124,-108 118,-108 112,-102 112,-96 112,-96 112,-84 112,-84 112,-78 118,-72 124,-72 124,-72 156,-72 156,-72 162,-72 168,-78 168,-84 168,-84 168,-96 168,-96 168,-102 162,-108 156,-108"/>
<text text-anchor="middle" x="140" y="-87.5" font-family="sans" font-size="10.00" fill="#000000">dirichlet</text>
</g>
<!-- 3&#45;&gt;17 -->
<g id="edge18" class="edge">
<title>3&#45;&gt;17</title>
<path fill="none" stroke="#c0c0c0" stroke-width="2" d="M154.1312,-71.8314C160.5811,-63.5386 168.3445,-53.557 175.4252,-44.4533"/>
<polygon fill="#c0c0c0" stroke="#c0c0c0" stroke-width="2" points="178.3019,-46.4556 181.6786,-36.4133 172.7764,-42.158 178.3019,-46.4556"/>
</g>
<!-- 4 -->
<g id="node5" class="node">
<title>4</title>
<path fill="none" stroke="#d8cb56" stroke-width="2" d="M211.5,-180C211.5,-180 162.5,-180 162.5,-180 156.5,-180 150.5,-174 150.5,-168 150.5,-168 150.5,-156 150.5,-156 150.5,-150 156.5,-144 162.5,-144 162.5,-144 211.5,-144 211.5,-144 217.5,-144 223.5,-150 223.5,-156 223.5,-156 223.5,-168 223.5,-168 223.5,-174 217.5,-180 211.5,-180"/>
<text text-anchor="middle" x="187" y="-159.5" font-family="sans" font-size="10.00" fill="#000000">plot_comps</text>
</g>
<!-- 4&#45;&gt;17 -->
<g id="edge19" class="edge">
<title>4&#45;&gt;17</title>
<path fill="none" stroke="#c0c0c0" stroke-width="2" d="M188.1399,-143.7623C189.6749,-119.201 192.422,-75.2474 194.2279,-46.3541"/>
<polygon fill="#c0c0c0" stroke="#c0c0c0" stroke-width="2" points="197.7387,-46.2885 194.8694,-36.0896 190.7523,-45.8518 197.7387,-46.2885"/>
</g>
<!-- 5 -->
<g id="node6" class="node">
<title>5</title>
<path fill="none" stroke="#afd856" stroke-width="2" d="M348.5,-180C348.5,-180 253.5,-180 253.5,-180 247.5,-180 241.5,-174 241.5,-168 241.5,-168 241.5,-156 241.5,-156 241.5,-150 247.5,-144 253.5,-144 253.5,-144 348.5,-144 348.5,-144 354.5,-144 360.5,-150 360.5,-156 360.5,-156 360.5,-168 360.5,-168 360.5,-174 354.5,-180 348.5,-180"/>
<text text-anchor="middle" x="301" y="-159.5" font-family="sans" font-size="10.00" fill="#000000">diffential_expression</text>
</g>
<!-- 14 -->
<g id="node15" class="node">
<title>14</title>
<path fill="none" stroke="#56d8a9" stroke-width="2" d="M291,-108C291,-108 261,-108 261,-108 255,-108 249,-102 249,-96 249,-96 249,-84 249,-84 249,-78 255,-72 261,-72 261,-72 291,-72 291,-72 297,-72 303,-78 303,-84 303,-84 303,-96 303,-96 303,-102 297,-108 291,-108"/>
<text text-anchor="middle" x="276" y="-87.5" font-family="sans" font-size="10.00" fill="#000000">plot_de</text>
</g>
<!-- 5&#45;&gt;14 -->
<g id="edge15" class="edge">
<title>5&#45;&gt;14</title>
<path fill="none" stroke="#c0c0c0" stroke-width="2" d="M294.6914,-143.8314C291.9883,-136.0463 288.7684,-126.7729 285.769,-118.1347"/>
<polygon fill="#c0c0c0" stroke="#c0c0c0" stroke-width="2" points="288.98,-116.7119 282.3935,-108.4133 282.3673,-119.0081 288.98,-116.7119"/>
</g>
<!-- 6 -->
<g id="node7" class="node">
<title>6</title>
<path fill="none" stroke="#56d873" stroke-width="2" d="M202,-324C202,-324 152,-324 152,-324 146,-324 140,-318 140,-312 140,-312 140,-300 140,-300 140,-294 146,-288 152,-288 152,-288 202,-288 202,-288 208,-288 214,-294 214,-300 214,-300 214,-312 214,-312 214,-318 208,-324 202,-324"/>
<text text-anchor="middle" x="177" y="-303.5" font-family="sans" font-size="10.00" fill="#000000">findMarkers</text>
</g>
<!-- 12 -->
<g id="node13" class="node">
<title>12</title>
<path fill="none" stroke="#56d8c9" stroke-width="2" d="M213.5,-252C213.5,-252 160.5,-252 160.5,-252 154.5,-252 148.5,-246 148.5,-240 148.5,-240 148.5,-228 148.5,-228 148.5,-222 154.5,-216 160.5,-216 160.5,-216 213.5,-216 213.5,-216 219.5,-216 225.5,-222 225.5,-228 225.5,-228 225.5,-240 225.5,-240 225.5,-246 219.5,-252 213.5,-252"/>
<text text-anchor="middle" x="187" y="-231.5" font-family="sans" font-size="10.00" fill="#000000">deconvolute</text>
</g>
<!-- 6&#45;&gt;12 -->
<g id="edge11" class="edge">
<title>6&#45;&gt;12</title>
<path fill="none" stroke="#c0c0c0" stroke-width="2" d="M179.5234,-287.8314C180.5929,-280.131 181.8647,-270.9743 183.0532,-262.4166"/>
<polygon fill="#c0c0c0" stroke="#c0c0c0" stroke-width="2" points="186.5336,-262.7997 184.4426,-252.4133 179.6001,-261.8367 186.5336,-262.7997"/>
</g>
<!-- 7 -->
<g id="node8" class="node">
<title>7</title>
<path fill="none" stroke="#8fd856" stroke-width="2" d="M264.5,-396C264.5,-396 219.5,-396 219.5,-396 213.5,-396 207.5,-390 207.5,-384 207.5,-384 207.5,-372 207.5,-372 207.5,-366 213.5,-360 219.5,-360 219.5,-360 264.5,-360 264.5,-360 270.5,-360 276.5,-366 276.5,-372 276.5,-372 276.5,-384 276.5,-384 276.5,-390 270.5,-396 264.5,-396"/>
<text text-anchor="middle" x="242" y="-375.5" font-family="sans" font-size="10.00" fill="#000000">clean_bulk</text>
</g>
<!-- 7&#45;&gt;5 -->
<g id="edge4" class="edge">
<title>7&#45;&gt;5</title>
<path fill="none" stroke="#c0c0c0" stroke-width="2" d="M246.9288,-359.9555C257.2321,-322.235 281.1097,-234.8188 293.3956,-189.8399"/>
<polygon fill="#c0c0c0" stroke="#c0c0c0" stroke-width="2" points="296.785,-190.7139 296.0437,-180.1451 290.0324,-188.8694 296.785,-190.7139"/>
</g>
<!-- 7&#45;&gt;6 -->
<g id="edge7" class="edge">
<title>7&#45;&gt;6</title>
<path fill="none" stroke="#c0c0c0" stroke-width="2" d="M225.5978,-359.8314C217.9585,-351.3694 208.7317,-341.1489 200.3793,-331.8971"/>
<polygon fill="#c0c0c0" stroke="#c0c0c0" stroke-width="2" points="202.9221,-329.4906 193.6231,-324.4133 197.7262,-334.1813 202.9221,-329.4906"/>
</g>
<!-- 7&#45;&gt;12 -->
<g id="edge12" class="edge">
<title>7&#45;&gt;12</title>
<path fill="none" stroke="#c0c0c0" stroke-width="2" d="M240.2095,-359.8083C237.9112,-341.1875 232.9655,-311.7008 223,-288 219.0456,-278.5953 213.3848,-269.0879 207.7195,-260.727"/>
<polygon fill="#c0c0c0" stroke="#c0c0c0" stroke-width="2" points="210.5184,-258.6231 201.8853,-252.4815 204.8041,-262.6664 210.5184,-258.6231"/>
</g>
<!-- 8 -->
<g id="node9" class="node">
<title>8</title>
<path fill="none" stroke="#70d856" stroke-width="2" d="M524.5,-252C524.5,-252 463.5,-252 463.5,-252 457.5,-252 451.5,-246 451.5,-240 451.5,-240 451.5,-228 451.5,-228 451.5,-222 457.5,-216 463.5,-216 463.5,-216 524.5,-216 524.5,-216 530.5,-216 536.5,-222 536.5,-228 536.5,-228 536.5,-240 536.5,-240 536.5,-246 530.5,-252 524.5,-252"/>
<text text-anchor="middle" x="494" y="-231.5" font-family="sans" font-size="10.00" fill="#000000">salmon_index</text>
</g>
<!-- 8&#45;&gt;0 -->
<g id="edge1" class="edge">
<title>8&#45;&gt;0</title>
<path fill="none" stroke="#c0c0c0" stroke-width="2" d="M494,-215.8314C494,-208.131 494,-198.9743 494,-190.4166"/>
<polygon fill="#c0c0c0" stroke="#c0c0c0" stroke-width="2" points="497.5001,-190.4132 494,-180.4133 490.5001,-190.4133 497.5001,-190.4132"/>
</g>
<!-- 9 -->
<g id="node10" class="node">
<title>9</title>
<path fill="none" stroke="#d88d56" stroke-width="2" d="M173.5,-396C173.5,-396 132.5,-396 132.5,-396 126.5,-396 120.5,-390 120.5,-384 120.5,-384 120.5,-372 120.5,-372 120.5,-366 126.5,-360 132.5,-360 132.5,-360 173.5,-360 173.5,-360 179.5,-360 185.5,-366 185.5,-372 185.5,-372 185.5,-384 185.5,-384 185.5,-390 179.5,-396 173.5,-396"/>
<text text-anchor="middle" x="153" y="-375.5" font-family="sans" font-size="10.00" fill="#000000">merge_sn</text>
</g>
<!-- 9&#45;&gt;6 -->
<g id="edge6" class="edge">
<title>9&#45;&gt;6</title>
<path fill="none" stroke="#c0c0c0" stroke-width="2" d="M159.0562,-359.8314C161.6512,-352.0463 164.7424,-342.7729 167.6218,-334.1347"/>
<polygon fill="#c0c0c0" stroke="#c0c0c0" stroke-width="2" points="171.0203,-335.0069 170.8622,-324.4133 164.3795,-332.7933 171.0203,-335.0069"/>
</g>
<!-- 10 -->
<g id="node11" class="node">
<title>10</title>
<path fill="none" stroke="#56d892" stroke-width="2" d="M154,-468C154,-468 74,-468 74,-468 68,-468 62,-462 62,-456 62,-456 62,-444 62,-444 62,-438 68,-432 74,-432 74,-432 154,-432 154,-432 160,-432 166,-438 166,-444 166,-444 166,-456 166,-456 166,-462 160,-468 154,-468"/>
<text text-anchor="middle" x="114" y="-447.5" font-family="sans" font-size="10.00" fill="#000000">ambient_doublets</text>
</g>
<!-- 10&#45;&gt;9 -->
<g id="edge9" class="edge">
<title>10&#45;&gt;9</title>
<path fill="none" stroke="#c0c0c0" stroke-width="2" d="M123.8413,-431.8314C128.1957,-423.7925 133.4098,-414.1666 138.2169,-405.2918"/>
<polygon fill="#c0c0c0" stroke="#c0c0c0" stroke-width="2" points="141.3408,-406.8732 143.0261,-396.4133 135.1857,-403.5392 141.3408,-406.8732"/>
</g>
<!-- 10&#45;&gt;17 -->
<g id="edge21" class="edge">
<title>10&#45;&gt;17</title>
<path fill="none" stroke="#c0c0c0" stroke-width="2" d="M107.6378,-431.615C98.8315,-404.4838 84,-351.9662 84,-306 84,-306 84,-306 84,-162 84,-121.1184 79.0341,-105.1202 103,-72 116.9207,-52.7621 139.9648,-39.3108 159.6307,-30.6449"/>
<polygon fill="#c0c0c0" stroke="#c0c0c0" stroke-width="2" points="161.0661,-33.8387 168.9588,-26.7707 158.3811,-27.374 161.0661,-33.8387"/>
</g>
<!-- 11 -->
<g id="node12" class="node">
<title>11</title>
<path fill="none" stroke="#c6d856" stroke-width="2" d="M517,-324C517,-324 471,-324 471,-324 465,-324 459,-318 459,-312 459,-312 459,-300 459,-300 459,-294 465,-288 471,-288 471,-288 517,-288 517,-288 523,-288 529,-294 529,-300 529,-300 529,-312 529,-312 529,-318 523,-324 517,-324"/>
<text text-anchor="middle" x="494" y="-303.5" font-family="sans" font-size="10.00" fill="#000000">load_index</text>
</g>
<!-- 11&#45;&gt;8 -->
<g id="edge8" class="edge">
<title>11&#45;&gt;8</title>
<path fill="none" stroke="#c0c0c0" stroke-width="2" d="M494,-287.8314C494,-280.131 494,-270.9743 494,-262.4166"/>
<polygon fill="#c0c0c0" stroke="#c0c0c0" stroke-width="2" points="497.5001,-262.4132 494,-252.4133 490.5001,-262.4133 497.5001,-262.4132"/>
</g>
<!-- 12&#45;&gt;3 -->
<g id="edge2" class="edge">
<title>12&#45;&gt;3</title>
<path fill="none" stroke="#c0c0c0" stroke-width="2" d="M165.7533,-215.7063C156.2682,-206.1453 146.0967,-193.6091 141,-180 133.6242,-160.3055 133.7274,-136.4439 135.4842,-118.24"/>
<polygon fill="#c0c0c0" stroke="#c0c0c0" stroke-width="2" points="138.9669,-118.5918 136.6657,-108.2499 132.0154,-117.7696 138.9669,-118.5918"/>
</g>
<!-- 12&#45;&gt;4 -->
<g id="edge3" class="edge">
<title>12&#45;&gt;4</title>
<path fill="none" stroke="#c0c0c0" stroke-width="2" d="M187,-215.8314C187,-208.131 187,-198.9743 187,-190.4166"/>
<polygon fill="#c0c0c0" stroke="#c0c0c0" stroke-width="2" points="190.5001,-190.4132 187,-180.4133 183.5001,-190.4133 190.5001,-190.4132"/>
</g>
<!-- 12&#45;&gt;5 -->
<g id="edge5" class="edge">
<title>12&#45;&gt;5</title>
<path fill="none" stroke="#c0c0c0" stroke-width="2" d="M215.767,-215.8314C230.2133,-206.7074 247.8965,-195.539 263.404,-185.7449"/>
<polygon fill="#c0c0c0" stroke="#c0c0c0" stroke-width="2" points="265.6563,-188.462 272.2422,-180.1628 261.9183,-182.5436 265.6563,-188.462"/>
</g>
<!-- 13&#45;&gt;17 -->
<g id="edge22" class="edge">
<title>13&#45;&gt;17</title>
<path fill="none" stroke="#c0c0c0" stroke-width="2" d="M409.4117,-75.6992C406.2652,-74.3727 403.0872,-73.1115 400,-72 342.9596,-51.4633 274.4242,-34.9137 233.0872,-25.7774"/>
<polygon fill="#c0c0c0" stroke="#c0c0c0" stroke-width="2" points="233.7037,-22.3296 223.1873,-23.6164 232.2108,-29.1686 233.7037,-22.3296"/>
</g>
<!-- 14&#45;&gt;17 -->
<g id="edge20" class="edge">
<title>14&#45;&gt;17</title>
<path fill="none" stroke="#c0c0c0" stroke-width="2" d="M255.8126,-71.8314C246.1486,-63.1337 234.4204,-52.5783 223.9184,-43.1265"/>
<polygon fill="#c0c0c0" stroke="#c0c0c0" stroke-width="2" points="225.9553,-40.251 216.1809,-36.1628 221.2725,-45.454 225.9553,-40.251"/>
</g>
<!-- 15 -->
<g id="node16" class="node">
<title>15</title>
<path fill="none" stroke="#59d856" stroke-width="2" d="M129,-540C129,-540 99,-540 99,-540 93,-540 87,-534 87,-528 87,-528 87,-516 87,-516 87,-510 93,-504 99,-504 99,-504 129,-504 129,-504 135,-504 141,-510 141,-516 141,-516 141,-528 141,-528 141,-534 135,-540 129,-540"/>
<text text-anchor="middle" x="114" y="-519.5" font-family="sans" font-size="10.00" fill="#000000">load_sn</text>
</g>
<!-- 15&#45;&gt;10 -->
<g id="edge10" class="edge">
<title>15&#45;&gt;10</title>
<path fill="none" stroke="#c0c0c0" stroke-width="2" d="M114,-503.8314C114,-496.131 114,-486.9743 114,-478.4166"/>
<polygon fill="#c0c0c0" stroke="#c0c0c0" stroke-width="2" points="117.5001,-478.4132 114,-468.4133 110.5001,-478.4133 117.5001,-478.4132"/>
</g>
<!-- 16&#45;&gt;17 -->
<g id="edge24" class="edge">
<title>16&#45;&gt;17</title>
<path fill="none" stroke="#c0c0c0" stroke-width="2" d="M336.634,-78.2717C308.2379,-66.102 263.6794,-47.0055 232.3437,-33.5759"/>
<polygon fill="#c0c0c0" stroke="#c0c0c0" stroke-width="2" points="233.6461,-30.3262 223.0759,-29.604 230.8886,-36.7602 233.6461,-30.3262"/>
</g>
</g>
</svg>
