<?xml version="1.0" encoding="UTF-8" standalone="no"?>
<!DOCTYPE svg PUBLIC "-//W3C//DTD SVG 1.1//EN"
 "http://www.w3.org/Graphics/SVG/1.1/DTD/svg11.dtd">
<!-- Generated by graphviz version 2.40.1 (0)
 -->
<!-- Title: snakemake_dag Pages: 1 -->
<svg width="9290pt" height="553pt"
 viewBox="0.00 0.00 9290.00 553.00" xmlns="http://www.w3.org/2000/svg" xmlns:xlink="http://www.w3.org/1999/xlink">
<g id="graph0" class="graph" transform="scale(1 1) rotate(0) translate(4 549)">
<title>snakemake_dag</title>
<polygon fill="#ffffff" stroke="transparent" points="-4,4 -4,-549 9286,-549 9286,4 -4,4"/>
<!-- 0 -->
<g id="node1" class="node">
<title>0</title>
<path fill="none" stroke="#d6d856" stroke-width="2" stroke-dasharray="5,2" d="M390,-185C390,-185 254,-185 254,-185 248,-185 242,-179 242,-173 242,-173 242,-156 242,-156 242,-150 248,-144 254,-144 254,-144 390,-144 390,-144 396,-144 402,-150 402,-156 402,-156 402,-173 402,-173 402,-179 396,-185 390,-185"/>
<text text-anchor="middle" x="322" y="-173" font-family="sans" font-size="10.00" fill="#000000">fastqc</text>
<text text-anchor="middle" x="322" y="-162" font-family="sans" font-size="10.00" fill="#000000">F_SAMPLES: B6_M_Fib_RNA_1</text>
<text text-anchor="middle" x="322" y="-151" font-family="sans" font-size="10.00" fill="#000000">READS: _2</text>
</g>
<!-- 48 -->
<g id="node49" class="node">
<title>48</title>
<path fill="none" stroke="#d85656" stroke-width="2" d="M4673,-108C4673,-108 4643,-108 4643,-108 4637,-108 4631,-102 4631,-96 4631,-96 4631,-84 4631,-84 4631,-78 4637,-72 4643,-72 4643,-72 4673,-72 4673,-72 4679,-72 4685,-78 4685,-84 4685,-84 4685,-96 4685,-96 4685,-102 4679,-108 4673,-108"/>
<text text-anchor="middle" x="4658" y="-87.5" font-family="sans" font-size="10.00" fill="#000000">multiqc</text>
</g>
<!-- 0&#45;&gt;48 -->
<g id="edge22" class="edge">
<title>0&#45;&gt;48</title>
<path fill="none" stroke="#c0c0c0" stroke-width="2" d="M402.3942,-145.1724C405.2911,-144.7343 408.1663,-144.3404 411,-144 631.9947,-117.4532 4215.074,-92.9398 4620.7136,-90.2451"/>
<polygon fill="#c0c0c0" stroke="#c0c0c0" stroke-width="2" points="4620.7735,-93.7449 4630.75,-90.1786 4620.727,-86.7451 4620.7735,-93.7449"/>
</g>
<!-- 1 -->
<g id="node2" class="node">
<title>1</title>
<path fill="none" stroke="#d6d856" stroke-width="2" stroke-dasharray="5,2" d="M566,-185C566,-185 432,-185 432,-185 426,-185 420,-179 420,-173 420,-173 420,-156 420,-156 420,-150 426,-144 432,-144 432,-144 566,-144 566,-144 572,-144 578,-150 578,-156 578,-156 578,-173 578,-173 578,-179 572,-185 566,-185"/>
<text text-anchor="middle" x="499" y="-173" font-family="sans" font-size="10.00" fill="#000000">fastqc</text>
<text text-anchor="middle" x="499" y="-162" font-family="sans" font-size="10.00" fill="#000000">F_SAMPLES: B6_F_CM_RNA_1</text>
<text text-anchor="middle" x="499" y="-151" font-family="sans" font-size="10.00" fill="#000000">READS: _1</text>
</g>
<!-- 1&#45;&gt;48 -->
<g id="edge23" class="edge">
<title>1&#45;&gt;48</title>
<path fill="none" stroke="#c0c0c0" stroke-width="2" d="M578.0103,-145.2475C581.0371,-144.7794 584.0413,-144.36 587,-144 798.5297,-118.2646 4224.6911,-93.0922 4620.7596,-90.2633"/>
<polygon fill="#c0c0c0" stroke="#c0c0c0" stroke-width="2" points="4620.8559,-93.7628 4630.8307,-90.1916 4620.806,-86.763 4620.8559,-93.7628"/>
</g>
<!-- 2 -->
<g id="node3" class="node">
<title>2</title>
<path fill="none" stroke="#567bd8" stroke-width="2" stroke-dasharray="5,2" d="M7648,-182.5C7648,-182.5 7514,-182.5 7514,-182.5 7508,-182.5 7502,-176.5 7502,-170.5 7502,-170.5 7502,-158.5 7502,-158.5 7502,-152.5 7508,-146.5 7514,-146.5 7514,-146.5 7648,-146.5 7648,-146.5 7654,-146.5 7660,-152.5 7660,-158.5 7660,-158.5 7660,-170.5 7660,-170.5 7660,-176.5 7654,-182.5 7648,-182.5"/>
<text text-anchor="middle" x="7581" y="-167.5" font-family="sans" font-size="10.00" fill="#000000">salmon_quant</text>
<text text-anchor="middle" x="7581" y="-156.5" font-family="sans" font-size="10.00" fill="#000000">F_SAMPLES: B6_F_CM_RNA_3</text>
</g>
<!-- 2&#45;&gt;48 -->
<g id="edge24" class="edge">
<title>2&#45;&gt;48</title>
<path fill="none" stroke="#c0c0c0" stroke-width="2" d="M7509.1848,-146.4765C7503.7316,-145.5053 7498.2926,-144.6594 7493,-144 7202.8825,-107.852 5009.9474,-92.2918 4695.5008,-90.2376"/>
<polygon fill="#c0c0c0" stroke="#c0c0c0" stroke-width="2" points="4695.1362,-86.7352 4685.1136,-90.1702 4695.0907,-93.7351 4695.1362,-86.7352"/>
</g>
<!-- 3 -->
<g id="node4" class="node">
<title>3</title>
<path fill="none" stroke="#d6d856" stroke-width="2" stroke-dasharray="5,2" d="M744,-185C744,-185 608,-185 608,-185 602,-185 596,-179 596,-173 596,-173 596,-156 596,-156 596,-150 602,-144 608,-144 608,-144 744,-144 744,-144 750,-144 756,-150 756,-156 756,-156 756,-173 756,-173 756,-179 750,-185 744,-185"/>
<text text-anchor="middle" x="676" y="-173" font-family="sans" font-size="10.00" fill="#000000">fastqc</text>
<text text-anchor="middle" x="676" y="-162" font-family="sans" font-size="10.00" fill="#000000">F_SAMPLES: B6_M_Fib_RNA_1</text>
<text text-anchor="middle" x="676" y="-151" font-family="sans" font-size="10.00" fill="#000000">READS: _1</text>
</g>
<!-- 3&#45;&gt;48 -->
<g id="edge25" class="edge">
<title>3&#45;&gt;48</title>
<path fill="none" stroke="#c0c0c0" stroke-width="2" d="M756.3947,-145.1767C759.2914,-144.7373 762.1665,-144.342 765,-144 1168.2691,-95.3212 4246.5546,-90.4484 4620.7777,-90.0349"/>
<polygon fill="#c0c0c0" stroke="#c0c0c0" stroke-width="2" points="4620.8193,-93.535 4630.8155,-90.0242 4620.8118,-86.535 4620.8193,-93.535"/>
</g>
<!-- 4 -->
<g id="node5" class="node">
<title>4</title>
<path fill="none" stroke="#d6d856" stroke-width="2" stroke-dasharray="5,2" d="M920,-185C920,-185 786,-185 786,-185 780,-185 774,-179 774,-173 774,-173 774,-156 774,-156 774,-150 780,-144 786,-144 786,-144 920,-144 920,-144 926,-144 932,-150 932,-156 932,-156 932,-173 932,-173 932,-179 926,-185 920,-185"/>
<text text-anchor="middle" x="853" y="-173" font-family="sans" font-size="10.00" fill="#000000">fastqc</text>
<text text-anchor="middle" x="853" y="-162" font-family="sans" font-size="10.00" fill="#000000">F_SAMPLES: B6_F_CM_RNA_1</text>
<text text-anchor="middle" x="853" y="-151" font-family="sans" font-size="10.00" fill="#000000">READS: _2</text>
</g>
<!-- 4&#45;&gt;48 -->
<g id="edge26" class="edge">
<title>4&#45;&gt;48</title>
<path fill="none" stroke="#c0c0c0" stroke-width="2" d="M932.0109,-145.2524C935.0375,-144.7829 938.0415,-144.3618 941,-144 1325.3772,-96.9891 4256.1368,-90.6625 4620.7973,-90.0555"/>
<polygon fill="#c0c0c0" stroke="#c0c0c0" stroke-width="2" points="4620.8382,-93.5555 4630.8325,-90.0392 4620.8268,-86.5555 4620.8382,-93.5555"/>
</g>
<!-- 5 -->
<g id="node6" class="node">
<title>5</title>
<path fill="none" stroke="#567bd8" stroke-width="2" stroke-dasharray="5,2" d="M8177,-182.5C8177,-182.5 8041,-182.5 8041,-182.5 8035,-182.5 8029,-176.5 8029,-170.5 8029,-170.5 8029,-158.5 8029,-158.5 8029,-152.5 8035,-146.5 8041,-146.5 8041,-146.5 8177,-146.5 8177,-146.5 8183,-146.5 8189,-152.5 8189,-158.5 8189,-158.5 8189,-170.5 8189,-170.5 8189,-176.5 8183,-182.5 8177,-182.5"/>
<text text-anchor="middle" x="8109" y="-167.5" font-family="sans" font-size="10.00" fill="#000000">salmon_quant</text>
<text text-anchor="middle" x="8109" y="-156.5" font-family="sans" font-size="10.00" fill="#000000">F_SAMPLES: B6_M_Fib_RNA_2</text>
</g>
<!-- 5&#45;&gt;48 -->
<g id="edge27" class="edge">
<title>5&#45;&gt;48</title>
<path fill="none" stroke="#c0c0c0" stroke-width="2" d="M8036.3658,-146.4595C8030.8513,-145.4923 8025.3515,-144.6519 8020,-144 7673.6375,-101.8055 5041.7595,-91.3241 4695.5426,-90.1234"/>
<polygon fill="#c0c0c0" stroke="#c0c0c0" stroke-width="2" points="4695.3124,-86.6227 4685.3004,-90.0883 4695.2883,-93.6227 4695.3124,-86.6227"/>
</g>
<!-- 6 -->
<g id="node7" class="node">
<title>6</title>
<path fill="none" stroke="#567bd8" stroke-width="2" stroke-dasharray="5,2" d="M8352.5,-182.5C8352.5,-182.5 8219.5,-182.5 8219.5,-182.5 8213.5,-182.5 8207.5,-176.5 8207.5,-170.5 8207.5,-170.5 8207.5,-158.5 8207.5,-158.5 8207.5,-152.5 8213.5,-146.5 8219.5,-146.5 8219.5,-146.5 8352.5,-146.5 8352.5,-146.5 8358.5,-146.5 8364.5,-152.5 8364.5,-158.5 8364.5,-158.5 8364.5,-170.5 8364.5,-170.5 8364.5,-176.5 8358.5,-182.5 8352.5,-182.5"/>
<text text-anchor="middle" x="8286" y="-167.5" font-family="sans" font-size="10.00" fill="#000000">salmon_quant</text>
<text text-anchor="middle" x="8286" y="-156.5" font-family="sans" font-size="10.00" fill="#000000">F_SAMPLES: B6_F_Fib_RNA_2</text>
</g>
<!-- 6&#45;&gt;48 -->
<g id="edge28" class="edge">
<title>6&#45;&gt;48</title>
<path fill="none" stroke="#c0c0c0" stroke-width="2" d="M8214.1876,-146.4539C8208.7338,-145.4879 8203.2938,-144.6494 8198,-144 7832.5953,-99.1748 5050.7318,-90.9549 4695.3233,-90.0848"/>
<polygon fill="#c0c0c0" stroke="#c0c0c0" stroke-width="2" points="4695.3003,-86.5848 4685.2919,-90.0606 4695.2834,-93.5848 4695.3003,-86.5848"/>
</g>
<!-- 7 -->
<g id="node8" class="node">
<title>7</title>
<path fill="none" stroke="#567bd8" stroke-width="2" stroke-dasharray="5,2" d="M8706.5,-182.5C8706.5,-182.5 8573.5,-182.5 8573.5,-182.5 8567.5,-182.5 8561.5,-176.5 8561.5,-170.5 8561.5,-170.5 8561.5,-158.5 8561.5,-158.5 8561.5,-152.5 8567.5,-146.5 8573.5,-146.5 8573.5,-146.5 8706.5,-146.5 8706.5,-146.5 8712.5,-146.5 8718.5,-152.5 8718.5,-158.5 8718.5,-158.5 8718.5,-170.5 8718.5,-170.5 8718.5,-176.5 8712.5,-182.5 8706.5,-182.5"/>
<text text-anchor="middle" x="8640" y="-167.5" font-family="sans" font-size="10.00" fill="#000000">salmon_quant</text>
<text text-anchor="middle" x="8640" y="-156.5" font-family="sans" font-size="10.00" fill="#000000">F_SAMPLES: B6_F_Fib_RNA_3</text>
</g>
<!-- 7&#45;&gt;48 -->
<g id="edge29" class="edge">
<title>7&#45;&gt;48</title>
<path fill="none" stroke="#c0c0c0" stroke-width="2" d="M8569.0098,-146.4449C8563.6165,-145.481 8558.2364,-144.6454 8553,-144 8149.6472,-94.2845 5069.6718,-90.3218 4695.2428,-90.0233"/>
<polygon fill="#c0c0c0" stroke="#c0c0c0" stroke-width="2" points="4695.2021,-86.5234 4685.1995,-90.0157 4695.1968,-93.5234 4695.2021,-86.5234"/>
</g>
<!-- 8 -->
<g id="node9" class="node">
<title>8</title>
<path fill="none" stroke="#d6d856" stroke-width="2" stroke-dasharray="5,2" d="M1630,-185C1630,-185 1496,-185 1496,-185 1490,-185 1484,-179 1484,-173 1484,-173 1484,-156 1484,-156 1484,-150 1490,-144 1496,-144 1496,-144 1630,-144 1630,-144 1636,-144 1642,-150 1642,-156 1642,-156 1642,-173 1642,-173 1642,-179 1636,-185 1630,-185"/>
<text text-anchor="middle" x="1563" y="-173" font-family="sans" font-size="10.00" fill="#000000">fastqc</text>
<text text-anchor="middle" x="1563" y="-162" font-family="sans" font-size="10.00" fill="#000000">F_SAMPLES: B6_F_CM_RNA_2</text>
<text text-anchor="middle" x="1563" y="-151" font-family="sans" font-size="10.00" fill="#000000">READS: _2</text>
</g>
<!-- 8&#45;&gt;48 -->
<g id="edge30" class="edge">
<title>8&#45;&gt;48</title>
<path fill="none" stroke="#c0c0c0" stroke-width="2" d="M1642.0125,-145.2654C1645.0386,-144.7923 1648.0422,-144.3669 1651,-144 1959.366,-105.7488 4294.2698,-91.9434 4620.2551,-90.1951"/>
<polygon fill="#c0c0c0" stroke="#c0c0c0" stroke-width="2" points="4620.5981,-93.6934 4630.5793,-90.1402 4620.5608,-86.6935 4620.5981,-93.6934"/>
</g>
<!-- 9 -->
<g id="node10" class="node">
<title>9</title>
<path fill="none" stroke="#567bd8" stroke-width="2" stroke-dasharray="5,2" d="M9241.5,-182.5C9241.5,-182.5 9104.5,-182.5 9104.5,-182.5 9098.5,-182.5 9092.5,-176.5 9092.5,-170.5 9092.5,-170.5 9092.5,-158.5 9092.5,-158.5 9092.5,-152.5 9098.5,-146.5 9104.5,-146.5 9104.5,-146.5 9241.5,-146.5 9241.5,-146.5 9247.5,-146.5 9253.5,-152.5 9253.5,-158.5 9253.5,-158.5 9253.5,-170.5 9253.5,-170.5 9253.5,-176.5 9247.5,-182.5 9241.5,-182.5"/>
<text text-anchor="middle" x="9173" y="-167.5" font-family="sans" font-size="10.00" fill="#000000">salmon_quant</text>
<text text-anchor="middle" x="9173" y="-156.5" font-family="sans" font-size="10.00" fill="#000000">F_SAMPLES: B6_M_CM_RNA_4</text>
</g>
<!-- 9&#45;&gt;48 -->
<g id="edge31" class="edge">
<title>9&#45;&gt;48</title>
<path fill="none" stroke="#c0c0c0" stroke-width="2" d="M9100.3686,-146.4362C9094.8535,-145.4744 9089.3527,-144.6416 9084,-144 8853.3899,-116.3583 5110.0082,-92.7592 4695.2475,-90.2251"/>
<polygon fill="#c0c0c0" stroke="#c0c0c0" stroke-width="2" points="4695.0255,-86.7237 4685.0043,-90.1626 4694.9828,-93.7236 4695.0255,-86.7237"/>
</g>
<!-- 10 -->
<g id="node11" class="node">
<title>10</title>
<path fill="none" stroke="#d6d856" stroke-width="2" stroke-dasharray="5,2" d="M1984.5,-185C1984.5,-185 1847.5,-185 1847.5,-185 1841.5,-185 1835.5,-179 1835.5,-173 1835.5,-173 1835.5,-156 1835.5,-156 1835.5,-150 1841.5,-144 1847.5,-144 1847.5,-144 1984.5,-144 1984.5,-144 1990.5,-144 1996.5,-150 1996.5,-156 1996.5,-156 1996.5,-173 1996.5,-173 1996.5,-179 1990.5,-185 1984.5,-185"/>
<text text-anchor="middle" x="1916" y="-173" font-family="sans" font-size="10.00" fill="#000000">fastqc</text>
<text text-anchor="middle" x="1916" y="-162" font-family="sans" font-size="10.00" fill="#000000">F_SAMPLES: B6_M_CM_RNA_1</text>
<text text-anchor="middle" x="1916" y="-151" font-family="sans" font-size="10.00" fill="#000000">READS: _1</text>
</g>
<!-- 10&#45;&gt;48 -->
<g id="edge32" class="edge">
<title>10&#45;&gt;48</title>
<path fill="none" stroke="#c0c0c0" stroke-width="2" d="M1996.8801,-145.1265C1999.6127,-144.7098 2002.325,-144.3317 2005,-144 2275.8136,-110.4192 4317.9912,-92.7412 4620.5762,-90.295"/>
<polygon fill="#c0c0c0" stroke="#c0c0c0" stroke-width="2" points="4620.629,-93.7948 4630.6005,-90.2144 4620.5726,-86.795 4620.629,-93.7948"/>
</g>
<!-- 11 -->
<g id="node12" class="node">
<title>11</title>
<path fill="none" stroke="#d6d856" stroke-width="2" stroke-dasharray="5,2" d="M2159.5,-185C2159.5,-185 2026.5,-185 2026.5,-185 2020.5,-185 2014.5,-179 2014.5,-173 2014.5,-173 2014.5,-156 2014.5,-156 2014.5,-150 2020.5,-144 2026.5,-144 2026.5,-144 2159.5,-144 2159.5,-144 2165.5,-144 2171.5,-150 2171.5,-156 2171.5,-156 2171.5,-173 2171.5,-173 2171.5,-179 2165.5,-185 2159.5,-185"/>
<text text-anchor="middle" x="2093" y="-173" font-family="sans" font-size="10.00" fill="#000000">fastqc</text>
<text text-anchor="middle" x="2093" y="-162" font-family="sans" font-size="10.00" fill="#000000">F_SAMPLES: B6_F_Fib_RNA_5</text>
<text text-anchor="middle" x="2093" y="-151" font-family="sans" font-size="10.00" fill="#000000">READS: _2</text>
</g>
<!-- 11&#45;&gt;48 -->
<g id="edge61" class="edge">
<title>11&#45;&gt;48</title>
<path fill="none" stroke="#c0c0c0" stroke-width="2" d="M2171.5364,-145.3557C2174.7237,-144.8482 2177.8872,-144.3922 2181,-144 2433.1416,-112.2313 4330.717,-93.0976 4620.8402,-90.3448"/>
<polygon fill="#c0c0c0" stroke="#c0c0c0" stroke-width="2" points="4620.887,-93.8446 4630.8535,-90.2502 4620.8209,-86.8449 4620.887,-93.8446"/>
</g>
<!-- 12 -->
<g id="node13" class="node">
<title>12</title>
<path fill="none" stroke="#d6d856" stroke-width="2" stroke-dasharray="5,2" d="M2338,-185C2338,-185 2202,-185 2202,-185 2196,-185 2190,-179 2190,-173 2190,-173 2190,-156 2190,-156 2190,-150 2196,-144 2202,-144 2202,-144 2338,-144 2338,-144 2344,-144 2350,-150 2350,-156 2350,-156 2350,-173 2350,-173 2350,-179 2344,-185 2338,-185"/>
<text text-anchor="middle" x="2270" y="-173" font-family="sans" font-size="10.00" fill="#000000">fastqc</text>
<text text-anchor="middle" x="2270" y="-162" font-family="sans" font-size="10.00" fill="#000000">F_SAMPLES: B6_M_Fib_RNA_3</text>
<text text-anchor="middle" x="2270" y="-151" font-family="sans" font-size="10.00" fill="#000000">READS: _1</text>
</g>
<!-- 12&#45;&gt;48 -->
<g id="edge33" class="edge">
<title>12&#45;&gt;48</title>
<path fill="none" stroke="#c0c0c0" stroke-width="2" d="M2350.3991,-145.212C2353.2946,-144.7626 2356.1682,-144.3557 2359,-144 2592.2009,-114.7122 4341.584,-93.6149 4620.5463,-90.4207"/>
<polygon fill="#c0c0c0" stroke="#c0c0c0" stroke-width="2" points="4620.973,-93.9162 4630.9324,-90.3023 4620.8931,-86.9167 4620.973,-93.9162"/>
</g>
<!-- 13 -->
<g id="node14" class="node">
<title>13</title>
<path fill="none" stroke="#d6d856" stroke-width="2" stroke-dasharray="5,2" d="M2513.5,-185C2513.5,-185 2380.5,-185 2380.5,-185 2374.5,-185 2368.5,-179 2368.5,-173 2368.5,-173 2368.5,-156 2368.5,-156 2368.5,-150 2374.5,-144 2380.5,-144 2380.5,-144 2513.5,-144 2513.5,-144 2519.5,-144 2525.5,-150 2525.5,-156 2525.5,-156 2525.5,-173 2525.5,-173 2525.5,-179 2519.5,-185 2513.5,-185"/>
<text text-anchor="middle" x="2447" y="-173" font-family="sans" font-size="10.00" fill="#000000">fastqc</text>
<text text-anchor="middle" x="2447" y="-162" font-family="sans" font-size="10.00" fill="#000000">F_SAMPLES: B6_F_Fib_RNA_4</text>
<text text-anchor="middle" x="2447" y="-151" font-family="sans" font-size="10.00" fill="#000000">READS: _1</text>
</g>
<!-- 13&#45;&gt;48 -->
<g id="edge55" class="edge">
<title>13&#45;&gt;48</title>
<path fill="none" stroke="#c0c0c0" stroke-width="2" d="M2525.5871,-145.2173C2528.419,-144.7665 2531.2298,-144.3577 2534,-144 2748.5813,-116.2922 4353.9199,-94.0145 4620.5302,-90.4871"/>
<polygon fill="#c0c0c0" stroke="#c0c0c0" stroke-width="2" points="4620.8851,-93.9828 4630.8381,-90.3513 4620.7928,-86.9835 4620.8851,-93.9828"/>
</g>
<!-- 14 -->
<g id="node15" class="node">
<title>14</title>
<path fill="none" stroke="#d6d856" stroke-width="2" stroke-dasharray="5,2" d="M2688.5,-185C2688.5,-185 2555.5,-185 2555.5,-185 2549.5,-185 2543.5,-179 2543.5,-173 2543.5,-173 2543.5,-156 2543.5,-156 2543.5,-150 2549.5,-144 2555.5,-144 2555.5,-144 2688.5,-144 2688.5,-144 2694.5,-144 2700.5,-150 2700.5,-156 2700.5,-156 2700.5,-173 2700.5,-173 2700.5,-179 2694.5,-185 2688.5,-185"/>
<text text-anchor="middle" x="2622" y="-173" font-family="sans" font-size="10.00" fill="#000000">fastqc</text>
<text text-anchor="middle" x="2622" y="-162" font-family="sans" font-size="10.00" fill="#000000">F_SAMPLES: B6_F_Fib_RNA_1</text>
<text text-anchor="middle" x="2622" y="-151" font-family="sans" font-size="10.00" fill="#000000">READS: _2</text>
</g>
<!-- 14&#45;&gt;48 -->
<g id="edge35" class="edge">
<title>14&#45;&gt;48</title>
<path fill="none" stroke="#c0c0c0" stroke-width="2" d="M2700.5394,-145.3792C2703.7259,-144.8652 2706.8884,-144.4014 2710,-144 2905.9946,-118.7164 4366.8577,-94.6037 4620.5114,-90.5851"/>
<polygon fill="#c0c0c0" stroke="#c0c0c0" stroke-width="2" points="4620.7435,-94.0819 4630.687,-90.4244 4620.6329,-87.0828 4620.7435,-94.0819"/>
</g>
<!-- 15 -->
<g id="node16" class="node">
<title>15</title>
<path fill="none" stroke="#56d89a" stroke-width="2" stroke-dasharray="5,2" d="M160,-473C160,-473 80,-473 80,-473 74,-473 68,-467 68,-461 68,-461 68,-449 68,-449 68,-443 74,-437 80,-437 80,-437 160,-437 160,-437 166,-437 172,-443 172,-449 172,-449 172,-461 172,-461 172,-467 166,-473 160,-473"/>
<text text-anchor="middle" x="120" y="-452.5" font-family="sans" font-size="10.00" fill="#000000">ambient_doublets</text>
</g>
<!-- 32 -->
<g id="node33" class="node">
<title>32</title>
<path fill="none" stroke="#59d856" stroke-width="2" stroke-dasharray="5,2" d="M221.5,-401C221.5,-401 180.5,-401 180.5,-401 174.5,-401 168.5,-395 168.5,-389 168.5,-389 168.5,-377 168.5,-377 168.5,-371 174.5,-365 180.5,-365 180.5,-365 221.5,-365 221.5,-365 227.5,-365 233.5,-371 233.5,-377 233.5,-377 233.5,-389 233.5,-389 233.5,-395 227.5,-401 221.5,-401"/>
<text text-anchor="middle" x="201" y="-380.5" font-family="sans" font-size="10.00" fill="#000000">merge_sn</text>
</g>
<!-- 15&#45;&gt;32 -->
<g id="edge14" class="edge">
<title>15&#45;&gt;32</title>
<path fill="none" stroke="#c0c0c0" stroke-width="2" d="M140.4397,-436.8314C150.3205,-428.0485 162.3324,-417.3712 173.045,-407.8489"/>
<polygon fill="#c0c0c0" stroke="#c0c0c0" stroke-width="2" points="175.418,-410.4224 180.5668,-401.1628 170.7674,-405.1906 175.418,-410.4224"/>
</g>
<!-- 64 -->
<g id="node65" class="node">
<title>64</title>
<path fill="none" stroke="#56d8b9" stroke-width="2" d="M230,-36C230,-36 200,-36 200,-36 194,-36 188,-30 188,-24 188,-24 188,-12 188,-12 188,-6 194,0 200,0 200,0 230,0 230,0 236,0 242,-6 242,-12 242,-12 242,-24 242,-24 242,-30 236,-36 230,-36"/>
<text text-anchor="middle" x="215" y="-15.5" font-family="sans" font-size="10.00" fill="#000000">all</text>
</g>
<!-- 15&#45;&gt;64 -->
<g id="edge85" class="edge">
<title>15&#45;&gt;64</title>
<path fill="none" stroke="#c0c0c0" stroke-width="2" d="M90.0285,-436.9508C54.4853,-413.0025 0,-367.1362 0,-311 0,-311 0,-311 0,-164.5 0,-117.1187 16.3406,-102.0179 53,-72 89.2214,-42.3408 142.3974,-28.725 177.8291,-22.6452"/>
<polygon fill="#c0c0c0" stroke="#c0c0c0" stroke-width="2" points="178.4472,-26.091 187.7697,-21.0569 177.3427,-19.1786 178.4472,-26.091"/>
</g>
<!-- 16 -->
<g id="node17" class="node">
<title>16</title>
<path fill="none" stroke="#569ad8" stroke-width="2" stroke-dasharray="5,2" d="M104,-108C104,-108 74,-108 74,-108 68,-108 62,-102 62,-96 62,-96 62,-84 62,-84 62,-78 68,-72 74,-72 74,-72 104,-72 104,-72 110,-72 116,-78 116,-84 116,-84 116,-96 116,-96 116,-102 110,-108 104,-108"/>
<text text-anchor="middle" x="89" y="-87.5" font-family="sans" font-size="10.00" fill="#000000">plot_de</text>
</g>
<!-- 16&#45;&gt;64 -->
<g id="edge88" class="edge">
<title>16&#45;&gt;64</title>
<path fill="none" stroke="#c0c0c0" stroke-width="2" d="M116.0302,-74.5542C134.3405,-64.0911 158.7472,-50.1444 178.7415,-38.7192"/>
<polygon fill="#c0c0c0" stroke="#c0c0c0" stroke-width="2" points="180.6338,-41.669 187.5798,-33.6687 177.1608,-35.5913 180.6338,-41.669"/>
</g>
<!-- 17 -->
<g id="node18" class="node">
<title>17</title>
<path fill="none" stroke="#d6d856" stroke-width="2" stroke-dasharray="5,2" d="M2865,-185C2865,-185 2731,-185 2731,-185 2725,-185 2719,-179 2719,-173 2719,-173 2719,-156 2719,-156 2719,-150 2725,-144 2731,-144 2731,-144 2865,-144 2865,-144 2871,-144 2877,-150 2877,-156 2877,-156 2877,-173 2877,-173 2877,-179 2871,-185 2865,-185"/>
<text text-anchor="middle" x="2798" y="-173" font-family="sans" font-size="10.00" fill="#000000">fastqc</text>
<text text-anchor="middle" x="2798" y="-162" font-family="sans" font-size="10.00" fill="#000000">F_SAMPLES: B6_F_CM_RNA_2</text>
<text text-anchor="middle" x="2798" y="-151" font-family="sans" font-size="10.00" fill="#000000">READS: _1</text>
</g>
<!-- 17&#45;&gt;48 -->
<g id="edge37" class="edge">
<title>17&#45;&gt;48</title>
<path fill="none" stroke="#c0c0c0" stroke-width="2" d="M2877.0186,-145.3129C2880.043,-144.8265 2883.0445,-144.3854 2886,-144 3238.4537,-98.0399 4397.3266,-91.056 4620.594,-90.1296"/>
<polygon fill="#c0c0c0" stroke="#c0c0c0" stroke-width="2" points="4620.8171,-93.6289 4630.803,-90.0889 4620.7891,-86.6289 4620.8171,-93.6289"/>
</g>
<!-- 18 -->
<g id="node19" class="node">
<title>18</title>
<path fill="none" stroke="#d87556" stroke-width="2" stroke-dasharray="5,2" d="M273,-108C273,-108 241,-108 241,-108 235,-108 229,-102 229,-96 229,-96 229,-84 229,-84 229,-78 235,-72 241,-72 241,-72 273,-72 273,-72 279,-72 285,-78 285,-84 285,-84 285,-96 285,-96 285,-102 279,-108 273,-108"/>
<text text-anchor="middle" x="257" y="-87.5" font-family="sans" font-size="10.00" fill="#000000">dirichlet</text>
</g>
<!-- 18&#45;&gt;64 -->
<g id="edge84" class="edge">
<title>18&#45;&gt;64</title>
<path fill="none" stroke="#c0c0c0" stroke-width="2" d="M246.4016,-71.8314C241.7123,-63.7925 236.0972,-54.1666 230.9202,-45.2918"/>
<polygon fill="#c0c0c0" stroke="#c0c0c0" stroke-width="2" points="233.8031,-43.2875 225.7411,-36.4133 227.7566,-46.8146 233.8031,-43.2875"/>
</g>
<!-- 19 -->
<g id="node20" class="node">
<title>19</title>
<path fill="none" stroke="#d6d856" stroke-width="2" stroke-dasharray="5,2" d="M3044.5,-185C3044.5,-185 2907.5,-185 2907.5,-185 2901.5,-185 2895.5,-179 2895.5,-173 2895.5,-173 2895.5,-156 2895.5,-156 2895.5,-150 2901.5,-144 2907.5,-144 2907.5,-144 3044.5,-144 3044.5,-144 3050.5,-144 3056.5,-150 3056.5,-156 3056.5,-156 3056.5,-173 3056.5,-173 3056.5,-179 3050.5,-185 3044.5,-185"/>
<text text-anchor="middle" x="2976" y="-173" font-family="sans" font-size="10.00" fill="#000000">fastqc</text>
<text text-anchor="middle" x="2976" y="-162" font-family="sans" font-size="10.00" fill="#000000">F_SAMPLES: B6_M_CM_RNA_3</text>
<text text-anchor="middle" x="2976" y="-151" font-family="sans" font-size="10.00" fill="#000000">READS: _1</text>
</g>
<!-- 19&#45;&gt;48 -->
<g id="edge38" class="edge">
<title>19&#45;&gt;48</title>
<path fill="none" stroke="#c0c0c0" stroke-width="2" d="M3056.8225,-145.3286C3059.9134,-144.8378 3062.9805,-144.3915 3066,-144 3380.8862,-103.1747 4411.8074,-92.1411 4620.8336,-90.3013"/>
<polygon fill="#c0c0c0" stroke="#c0c0c0" stroke-width="2" points="4621.0138,-93.8 4630.9831,-90.2136 4620.9532,-86.8002 4621.0138,-93.8"/>
</g>
<!-- 20 -->
<g id="node21" class="node">
<title>20</title>
<path fill="none" stroke="#567bd8" stroke-width="2" stroke-dasharray="5,2" d="M1096,-182.5C1096,-182.5 962,-182.5 962,-182.5 956,-182.5 950,-176.5 950,-170.5 950,-170.5 950,-158.5 950,-158.5 950,-152.5 956,-146.5 962,-146.5 962,-146.5 1096,-146.5 1096,-146.5 1102,-146.5 1108,-152.5 1108,-158.5 1108,-158.5 1108,-170.5 1108,-170.5 1108,-176.5 1102,-182.5 1096,-182.5"/>
<text text-anchor="middle" x="1029" y="-167.5" font-family="sans" font-size="10.00" fill="#000000">salmon_quant</text>
<text text-anchor="middle" x="1029" y="-156.5" font-family="sans" font-size="10.00" fill="#000000">F_SAMPLES: B6_F_CM_RNA_2</text>
</g>
<!-- 20&#45;&gt;48 -->
<g id="edge39" class="edge">
<title>20&#45;&gt;48</title>
<path fill="none" stroke="#c0c0c0" stroke-width="2" d="M1100.8124,-146.4538C1106.2662,-145.4879 1111.7062,-144.6494 1117,-144 1482.508,-99.1629 4265.1572,-90.9534 4620.6662,-90.0846"/>
<polygon fill="#c0c0c0" stroke="#c0c0c0" stroke-width="2" points="4620.7089,-93.5846 4630.7004,-90.0605 4620.692,-86.5846 4620.7089,-93.5846"/>
</g>
<!-- 21 -->
<g id="node22" class="node">
<title>21</title>
<path fill="none" stroke="#d6d856" stroke-width="2" stroke-dasharray="5,2" d="M3398.5,-185C3398.5,-185 3265.5,-185 3265.5,-185 3259.5,-185 3253.5,-179 3253.5,-173 3253.5,-173 3253.5,-156 3253.5,-156 3253.5,-150 3259.5,-144 3265.5,-144 3265.5,-144 3398.5,-144 3398.5,-144 3404.5,-144 3410.5,-150 3410.5,-156 3410.5,-156 3410.5,-173 3410.5,-173 3410.5,-179 3404.5,-185 3398.5,-185"/>
<text text-anchor="middle" x="3332" y="-173" font-family="sans" font-size="10.00" fill="#000000">fastqc</text>
<text text-anchor="middle" x="3332" y="-162" font-family="sans" font-size="10.00" fill="#000000">F_SAMPLES: B6_F_Fib_RNA_3</text>
<text text-anchor="middle" x="3332" y="-151" font-family="sans" font-size="10.00" fill="#000000">READS: _2</text>
</g>
<!-- 21&#45;&gt;48 -->
<g id="edge40" class="edge">
<title>21&#45;&gt;48</title>
<path fill="none" stroke="#c0c0c0" stroke-width="2" d="M3410.5478,-145.4422C3413.732,-144.9107 3416.8917,-144.4261 3420,-144 3660.848,-110.9843 4441.2808,-94.1768 4620.8987,-90.6908"/>
<polygon fill="#c0c0c0" stroke="#c0c0c0" stroke-width="2" points="4620.9778,-94.19 4630.9086,-90.4983 4620.8431,-87.1913 4620.9778,-94.19"/>
</g>
<!-- 22 -->
<g id="node23" class="node">
<title>22</title>
<path fill="none" stroke="#567bd8" stroke-width="2" stroke-dasharray="5,2" d="M1274,-182.5C1274,-182.5 1138,-182.5 1138,-182.5 1132,-182.5 1126,-176.5 1126,-170.5 1126,-170.5 1126,-158.5 1126,-158.5 1126,-152.5 1132,-146.5 1138,-146.5 1138,-146.5 1274,-146.5 1274,-146.5 1280,-146.5 1286,-152.5 1286,-158.5 1286,-158.5 1286,-170.5 1286,-170.5 1286,-176.5 1280,-182.5 1274,-182.5"/>
<text text-anchor="middle" x="1206" y="-167.5" font-family="sans" font-size="10.00" fill="#000000">salmon_quant</text>
<text text-anchor="middle" x="1206" y="-156.5" font-family="sans" font-size="10.00" fill="#000000">F_SAMPLES: B6_M_Fib_RNA_3</text>
</g>
<!-- 22&#45;&gt;48 -->
<g id="edge41" class="edge">
<title>22&#45;&gt;48</title>
<path fill="none" stroke="#c0c0c0" stroke-width="2" d="M1278.6342,-146.4595C1284.1487,-145.4923 1289.6485,-144.6519 1295,-144 1641.4656,-101.7938 4274.1263,-91.3226 4620.4462,-90.1233"/>
<polygon fill="#c0c0c0" stroke="#c0c0c0" stroke-width="2" points="4620.7035,-93.6225 4630.6915,-90.0882 4620.6795,-86.6225 4620.7035,-93.6225"/>
</g>
<!-- 23 -->
<g id="node24" class="node">
<title>23</title>
<path fill="none" stroke="#d6d856" stroke-width="2" stroke-dasharray="5,2" d="M3754.5,-185C3754.5,-185 3617.5,-185 3617.5,-185 3611.5,-185 3605.5,-179 3605.5,-173 3605.5,-173 3605.5,-156 3605.5,-156 3605.5,-150 3611.5,-144 3617.5,-144 3617.5,-144 3754.5,-144 3754.5,-144 3760.5,-144 3766.5,-150 3766.5,-156 3766.5,-156 3766.5,-173 3766.5,-173 3766.5,-179 3760.5,-185 3754.5,-185"/>
<text text-anchor="middle" x="3686" y="-173" font-family="sans" font-size="10.00" fill="#000000">fastqc</text>
<text text-anchor="middle" x="3686" y="-162" font-family="sans" font-size="10.00" fill="#000000">F_SAMPLES: B6_M_CM_RNA_1</text>
<text text-anchor="middle" x="3686" y="-151" font-family="sans" font-size="10.00" fill="#000000">READS: _2</text>
</g>
<!-- 23&#45;&gt;48 -->
<g id="edge36" class="edge">
<title>23&#45;&gt;48</title>
<path fill="none" stroke="#c0c0c0" stroke-width="2" d="M3766.8992,-145.2688C3769.6264,-144.8113 3772.3323,-144.3861 3775,-144 3942.1973,-119.8012 4474.1173,-97.3147 4620.4348,-91.468"/>
<polygon fill="#c0c0c0" stroke="#c0c0c0" stroke-width="2" points="4620.8303,-94.9552 4630.6834,-91.0606 4620.5522,-87.9607 4620.8303,-94.9552"/>
</g>
<!-- 24 -->
<g id="node25" class="node">
<title>24</title>
<path fill="none" stroke="#567bd8" stroke-width="2" stroke-dasharray="5,2" d="M1453.5,-182.5C1453.5,-182.5 1316.5,-182.5 1316.5,-182.5 1310.5,-182.5 1304.5,-176.5 1304.5,-170.5 1304.5,-170.5 1304.5,-158.5 1304.5,-158.5 1304.5,-152.5 1310.5,-146.5 1316.5,-146.5 1316.5,-146.5 1453.5,-146.5 1453.5,-146.5 1459.5,-146.5 1465.5,-152.5 1465.5,-158.5 1465.5,-158.5 1465.5,-170.5 1465.5,-170.5 1465.5,-176.5 1459.5,-182.5 1453.5,-182.5"/>
<text text-anchor="middle" x="1385" y="-167.5" font-family="sans" font-size="10.00" fill="#000000">salmon_quant</text>
<text text-anchor="middle" x="1385" y="-156.5" font-family="sans" font-size="10.00" fill="#000000">F_SAMPLES: B6_M_CM_RNA_1</text>
</g>
<!-- 24&#45;&gt;48 -->
<g id="edge44" class="edge">
<title>24&#45;&gt;48</title>
<path fill="none" stroke="#c0c0c0" stroke-width="2" d="M1458.456,-146.4659C1464.0311,-145.4972 1469.5909,-144.6547 1475,-144 1802.367,-104.3735 4285.7224,-91.6995 4620.6673,-90.1643"/>
<polygon fill="#c0c0c0" stroke="#c0c0c0" stroke-width="2" points="4620.8292,-93.6637 4630.8132,-90.1182 4620.7973,-86.6638 4620.8292,-93.6637"/>
</g>
<!-- 25 -->
<g id="node26" class="node">
<title>25</title>
<path fill="none" stroke="#567bd8" stroke-width="2" stroke-dasharray="5,2" d="M1805.5,-182.5C1805.5,-182.5 1672.5,-182.5 1672.5,-182.5 1666.5,-182.5 1660.5,-176.5 1660.5,-170.5 1660.5,-170.5 1660.5,-158.5 1660.5,-158.5 1660.5,-152.5 1666.5,-146.5 1672.5,-146.5 1672.5,-146.5 1805.5,-146.5 1805.5,-146.5 1811.5,-146.5 1817.5,-152.5 1817.5,-158.5 1817.5,-158.5 1817.5,-170.5 1817.5,-170.5 1817.5,-176.5 1811.5,-182.5 1805.5,-182.5"/>
<text text-anchor="middle" x="1739" y="-167.5" font-family="sans" font-size="10.00" fill="#000000">salmon_quant</text>
<text text-anchor="middle" x="1739" y="-156.5" font-family="sans" font-size="10.00" fill="#000000">F_SAMPLES: B6_F_Fib_RNA_1</text>
</g>
<!-- 25&#45;&gt;48 -->
<g id="edge45" class="edge">
<title>25&#45;&gt;48</title>
<path fill="none" stroke="#c0c0c0" stroke-width="2" d="M1809.994,-146.4756C1815.3864,-145.5046 1820.7653,-144.659 1826,-144 2115.7642,-107.5195 4306.4184,-92.2439 4620.5382,-90.2324"/>
<polygon fill="#c0c0c0" stroke="#c0c0c0" stroke-width="2" points="4620.937,-93.73 4630.9145,-90.1664 4620.8925,-86.7302 4620.937,-93.73"/>
</g>
<!-- 26 -->
<g id="node27" class="node">
<title>26</title>
<path fill="none" stroke="#d6d856" stroke-width="2" stroke-dasharray="5,2" d="M4285.5,-185C4285.5,-185 4152.5,-185 4152.5,-185 4146.5,-185 4140.5,-179 4140.5,-173 4140.5,-173 4140.5,-156 4140.5,-156 4140.5,-150 4146.5,-144 4152.5,-144 4152.5,-144 4285.5,-144 4285.5,-144 4291.5,-144 4297.5,-150 4297.5,-156 4297.5,-156 4297.5,-173 4297.5,-173 4297.5,-179 4291.5,-185 4285.5,-185"/>
<text text-anchor="middle" x="4219" y="-173" font-family="sans" font-size="10.00" fill="#000000">fastqc</text>
<text text-anchor="middle" x="4219" y="-162" font-family="sans" font-size="10.00" fill="#000000">F_SAMPLES: B6_F_Fib_RNA_3</text>
<text text-anchor="middle" x="4219" y="-151" font-family="sans" font-size="10.00" fill="#000000">READS: _1</text>
</g>
<!-- 26&#45;&gt;48 -->
<g id="edge46" class="edge">
<title>26&#45;&gt;48</title>
<path fill="none" stroke="#c0c0c0" stroke-width="2" d="M4297.6603,-145.6706C4300.4715,-145.0915 4303.258,-144.5325 4306,-144 4420.1207,-121.8373 4556.4989,-103.0991 4620.8712,-94.7114"/>
<polygon fill="#c0c0c0" stroke="#c0c0c0" stroke-width="2" points="4621.4686,-98.1633 4630.9363,-93.408 4620.5695,-91.2213 4621.4686,-98.1633"/>
</g>
<!-- 27 -->
<g id="node28" class="node">
<title>27</title>
<path fill="none" stroke="#d6d856" stroke-width="2" stroke-dasharray="5,2" d="M4460.5,-185C4460.5,-185 4327.5,-185 4327.5,-185 4321.5,-185 4315.5,-179 4315.5,-173 4315.5,-173 4315.5,-156 4315.5,-156 4315.5,-150 4321.5,-144 4327.5,-144 4327.5,-144 4460.5,-144 4460.5,-144 4466.5,-144 4472.5,-150 4472.5,-156 4472.5,-156 4472.5,-173 4472.5,-173 4472.5,-179 4466.5,-185 4460.5,-185"/>
<text text-anchor="middle" x="4394" y="-173" font-family="sans" font-size="10.00" fill="#000000">fastqc</text>
<text text-anchor="middle" x="4394" y="-162" font-family="sans" font-size="10.00" fill="#000000">F_SAMPLES: B6_F_Fib_RNA_2</text>
<text text-anchor="middle" x="4394" y="-151" font-family="sans" font-size="10.00" fill="#000000">READS: _1</text>
</g>
<!-- 27&#45;&gt;48 -->
<g id="edge47" class="edge">
<title>27&#45;&gt;48</title>
<path fill="none" stroke="#c0c0c0" stroke-width="2" d="M4466.838,-143.9453C4516.8205,-129.8404 4581.0723,-111.7088 4620.8898,-100.4724"/>
<polygon fill="#c0c0c0" stroke="#c0c0c0" stroke-width="2" points="4622.0335,-103.7864 4630.707,-97.702 4620.1323,-97.0495 4622.0335,-103.7864"/>
</g>
<!-- 28 -->
<g id="node29" class="node">
<title>28</title>
<path fill="none" stroke="#d6d856" stroke-width="2" stroke-dasharray="5,2" d="M4637,-185C4637,-185 4503,-185 4503,-185 4497,-185 4491,-179 4491,-173 4491,-173 4491,-156 4491,-156 4491,-150 4497,-144 4503,-144 4503,-144 4637,-144 4637,-144 4643,-144 4649,-150 4649,-156 4649,-156 4649,-173 4649,-173 4649,-179 4643,-185 4637,-185"/>
<text text-anchor="middle" x="4570" y="-173" font-family="sans" font-size="10.00" fill="#000000">fastqc</text>
<text text-anchor="middle" x="4570" y="-162" font-family="sans" font-size="10.00" fill="#000000">F_SAMPLES: B6_F_CM_RNA_3</text>
<text text-anchor="middle" x="4570" y="-151" font-family="sans" font-size="10.00" fill="#000000">READS: _2</text>
</g>
<!-- 28&#45;&gt;48 -->
<g id="edge48" class="edge">
<title>28&#45;&gt;48</title>
<path fill="none" stroke="#c0c0c0" stroke-width="2" d="M4594.5129,-143.7476C4605.153,-134.7398 4617.6984,-124.119 4628.8152,-114.7076"/>
<polygon fill="#c0c0c0" stroke="#c0c0c0" stroke-width="2" points="4631.2391,-117.2414 4636.6099,-108.1087 4626.7162,-111.8988 4631.2391,-117.2414"/>
</g>
<!-- 29 -->
<g id="node30" class="node">
<title>29</title>
<path fill="none" stroke="#d6d856" stroke-width="2" stroke-dasharray="5,2" d="M4815,-185C4815,-185 4679,-185 4679,-185 4673,-185 4667,-179 4667,-173 4667,-173 4667,-156 4667,-156 4667,-150 4673,-144 4679,-144 4679,-144 4815,-144 4815,-144 4821,-144 4827,-150 4827,-156 4827,-156 4827,-173 4827,-173 4827,-179 4821,-185 4815,-185"/>
<text text-anchor="middle" x="4747" y="-173" font-family="sans" font-size="10.00" fill="#000000">fastqc</text>
<text text-anchor="middle" x="4747" y="-162" font-family="sans" font-size="10.00" fill="#000000">F_SAMPLES: B6_M_Fib_RNA_2</text>
<text text-anchor="middle" x="4747" y="-151" font-family="sans" font-size="10.00" fill="#000000">READS: _1</text>
</g>
<!-- 29&#45;&gt;48 -->
<g id="edge49" class="edge">
<title>29&#45;&gt;48</title>
<path fill="none" stroke="#c0c0c0" stroke-width="2" d="M4722.2085,-143.7476C4711.4475,-134.7398 4698.7596,-124.119 4687.5164,-114.7076"/>
<polygon fill="#c0c0c0" stroke="#c0c0c0" stroke-width="2" points="4689.5478,-111.8436 4679.6332,-108.1087 4685.0547,-117.2113 4689.5478,-111.8436"/>
</g>
<!-- 30 -->
<g id="node31" class="node">
<title>30</title>
<path fill="none" stroke="#d6d856" stroke-width="2" stroke-dasharray="5,2" d="M4994.5,-185C4994.5,-185 4857.5,-185 4857.5,-185 4851.5,-185 4845.5,-179 4845.5,-173 4845.5,-173 4845.5,-156 4845.5,-156 4845.5,-150 4851.5,-144 4857.5,-144 4857.5,-144 4994.5,-144 4994.5,-144 5000.5,-144 5006.5,-150 5006.5,-156 5006.5,-156 5006.5,-173 5006.5,-173 5006.5,-179 5000.5,-185 4994.5,-185"/>
<text text-anchor="middle" x="4926" y="-173" font-family="sans" font-size="10.00" fill="#000000">fastqc</text>
<text text-anchor="middle" x="4926" y="-162" font-family="sans" font-size="10.00" fill="#000000">F_SAMPLES: B6_M_CM_RNA_4</text>
<text text-anchor="middle" x="4926" y="-151" font-family="sans" font-size="10.00" fill="#000000">READS: _2</text>
</g>
<!-- 30&#45;&gt;48 -->
<g id="edge50" class="edge">
<title>30&#45;&gt;48</title>
<path fill="none" stroke="#c0c0c0" stroke-width="2" d="M4852.0584,-143.9453C4800.9252,-129.7311 4735.081,-111.4274 4694.7368,-100.2123"/>
<polygon fill="#c0c0c0" stroke="#c0c0c0" stroke-width="2" points="4695.6258,-96.8268 4685.0537,-97.5205 4693.751,-103.571 4695.6258,-96.8268"/>
</g>
<!-- 31 -->
<g id="node32" class="node">
<title>31</title>
<path fill="none" stroke="#567bd8" stroke-width="2" stroke-dasharray="5,2" d="M3223,-182.5C3223,-182.5 3087,-182.5 3087,-182.5 3081,-182.5 3075,-176.5 3075,-170.5 3075,-170.5 3075,-158.5 3075,-158.5 3075,-152.5 3081,-146.5 3087,-146.5 3087,-146.5 3223,-146.5 3223,-146.5 3229,-146.5 3235,-152.5 3235,-158.5 3235,-158.5 3235,-170.5 3235,-170.5 3235,-176.5 3229,-182.5 3223,-182.5"/>
<text text-anchor="middle" x="3155" y="-167.5" font-family="sans" font-size="10.00" fill="#000000">salmon_quant</text>
<text text-anchor="middle" x="3155" y="-156.5" font-family="sans" font-size="10.00" fill="#000000">F_SAMPLES: B6_M_Fib_RNA_1</text>
</g>
<!-- 31&#45;&gt;48 -->
<g id="edge51" class="edge">
<title>31&#45;&gt;48</title>
<path fill="none" stroke="#c0c0c0" stroke-width="2" d="M3228.6234,-146.418C3233.8076,-145.4914 3238.9704,-144.6692 3244,-144 3521.5279,-107.073 4425.7857,-93.0947 4620.7408,-90.4734"/>
<polygon fill="#c0c0c0" stroke="#c0c0c0" stroke-width="2" points="4620.8204,-93.9727 4630.773,-90.3402 4620.7273,-86.9734 4620.8204,-93.9727"/>
</g>
<!-- 53 -->
<g id="node54" class="node">
<title>53</title>
<path fill="none" stroke="#d8b456" stroke-width="2" stroke-dasharray="5,2" d="M216,-329C216,-329 166,-329 166,-329 160,-329 154,-323 154,-317 154,-317 154,-305 154,-305 154,-299 160,-293 166,-293 166,-293 216,-293 216,-293 222,-293 228,-299 228,-305 228,-305 228,-317 228,-317 228,-323 222,-329 216,-329"/>
<text text-anchor="middle" x="191" y="-308.5" font-family="sans" font-size="10.00" fill="#000000">findMarkers</text>
</g>
<!-- 32&#45;&gt;53 -->
<g id="edge76" class="edge">
<title>32&#45;&gt;53</title>
<path fill="none" stroke="#c0c0c0" stroke-width="2" d="M198.4766,-364.8314C197.4071,-357.131 196.1353,-347.9743 194.9468,-339.4166"/>
<polygon fill="#c0c0c0" stroke="#c0c0c0" stroke-width="2" points="198.3999,-338.8367 193.5574,-329.4133 191.4664,-339.7997 198.3999,-338.8367"/>
</g>
<!-- 33 -->
<g id="node34" class="node">
<title>33</title>
<path fill="none" stroke="#d6d856" stroke-width="2" stroke-dasharray="5,2" d="M5346,-185C5346,-185 5212,-185 5212,-185 5206,-185 5200,-179 5200,-173 5200,-173 5200,-156 5200,-156 5200,-150 5206,-144 5212,-144 5212,-144 5346,-144 5346,-144 5352,-144 5358,-150 5358,-156 5358,-156 5358,-173 5358,-173 5358,-179 5352,-185 5346,-185"/>
<text text-anchor="middle" x="5279" y="-173" font-family="sans" font-size="10.00" fill="#000000">fastqc</text>
<text text-anchor="middle" x="5279" y="-162" font-family="sans" font-size="10.00" fill="#000000">F_SAMPLES: B6_F_CM_RNA_3</text>
<text text-anchor="middle" x="5279" y="-151" font-family="sans" font-size="10.00" fill="#000000">READS: _1</text>
</g>
<!-- 33&#45;&gt;48 -->
<g id="edge52" class="edge">
<title>33&#45;&gt;48</title>
<path fill="none" stroke="#c0c0c0" stroke-width="2" d="M5199.9418,-145.5802C5196.9284,-145.0189 5193.9401,-144.4893 5191,-144 5006.2669,-113.2544 4782.4003,-97.4675 4695.2411,-92.1285"/>
<polygon fill="#c0c0c0" stroke="#c0c0c0" stroke-width="2" points="4695.2539,-88.623 4685.0613,-91.5146 4694.8325,-95.6103 4695.2539,-88.623"/>
</g>
<!-- 34 -->
<g id="node35" class="node">
<title>34</title>
<path fill="none" stroke="#d6d856" stroke-width="2" stroke-dasharray="5,2" d="M5524,-185C5524,-185 5388,-185 5388,-185 5382,-185 5376,-179 5376,-173 5376,-173 5376,-156 5376,-156 5376,-150 5382,-144 5388,-144 5388,-144 5524,-144 5524,-144 5530,-144 5536,-150 5536,-156 5536,-156 5536,-173 5536,-173 5536,-179 5530,-185 5524,-185"/>
<text text-anchor="middle" x="5456" y="-173" font-family="sans" font-size="10.00" fill="#000000">fastqc</text>
<text text-anchor="middle" x="5456" y="-162" font-family="sans" font-size="10.00" fill="#000000">F_SAMPLES: B6_M_Fib_RNA_2</text>
<text text-anchor="middle" x="5456" y="-151" font-family="sans" font-size="10.00" fill="#000000">READS: _2</text>
</g>
<!-- 34&#45;&gt;48 -->
<g id="edge53" class="edge">
<title>34&#45;&gt;48</title>
<path fill="none" stroke="#c0c0c0" stroke-width="2" d="M5375.5742,-145.4045C5372.6863,-144.9007 5369.8215,-144.4299 5367,-144 5112.1496,-105.1696 4801.2948,-93.757 4695.3884,-90.8695"/>
<polygon fill="#c0c0c0" stroke="#c0c0c0" stroke-width="2" points="4695.3014,-87.3661 4685.2126,-90.6014 4695.1169,-94.3636 4695.3014,-87.3661"/>
</g>
<!-- 35 -->
<g id="node36" class="node">
<title>35</title>
<path fill="none" stroke="#567bd8" stroke-width="2" stroke-dasharray="5,2" d="M3575,-182.5C3575,-182.5 3441,-182.5 3441,-182.5 3435,-182.5 3429,-176.5 3429,-170.5 3429,-170.5 3429,-158.5 3429,-158.5 3429,-152.5 3435,-146.5 3441,-146.5 3441,-146.5 3575,-146.5 3575,-146.5 3581,-146.5 3587,-152.5 3587,-158.5 3587,-158.5 3587,-170.5 3587,-170.5 3587,-176.5 3581,-182.5 3575,-182.5"/>
<text text-anchor="middle" x="3508" y="-167.5" font-family="sans" font-size="10.00" fill="#000000">salmon_quant</text>
<text text-anchor="middle" x="3508" y="-156.5" font-family="sans" font-size="10.00" fill="#000000">F_SAMPLES: B6_F_CM_RNA_1</text>
</g>
<!-- 35&#45;&gt;48 -->
<g id="edge54" class="edge">
<title>35&#45;&gt;48</title>
<path fill="none" stroke="#c0c0c0" stroke-width="2" d="M3580.8015,-146.4879C3585.9261,-145.5447 3591.0292,-144.6997 3596,-144 3800.1508,-115.2644 4456.4347,-95.5666 4620.5363,-91.009"/>
<polygon fill="#c0c0c0" stroke="#c0c0c0" stroke-width="2" points="4620.7239,-94.5053 4630.6236,-90.7308 4620.5309,-87.5079 4620.7239,-94.5053"/>
</g>
<!-- 36 -->
<g id="node37" class="node">
<title>36</title>
<path fill="none" stroke="#d89556" stroke-width="2" stroke-dasharray="5,2" d="M5126,-329C5126,-329 5080,-329 5080,-329 5074,-329 5068,-323 5068,-317 5068,-317 5068,-305 5068,-305 5068,-299 5074,-293 5080,-293 5080,-293 5126,-293 5126,-293 5132,-293 5138,-299 5138,-305 5138,-305 5138,-317 5138,-317 5138,-323 5132,-329 5126,-329"/>
<text text-anchor="middle" x="5103" y="-308.5" font-family="sans" font-size="10.00" fill="#000000">load_index</text>
</g>
<!-- 40 -->
<g id="node41" class="node">
<title>40</title>
<path fill="none" stroke="#b6d856" stroke-width="2" stroke-dasharray="5,2" d="M5133.5,-257C5133.5,-257 5072.5,-257 5072.5,-257 5066.5,-257 5060.5,-251 5060.5,-245 5060.5,-245 5060.5,-233 5060.5,-233 5060.5,-227 5066.5,-221 5072.5,-221 5072.5,-221 5133.5,-221 5133.5,-221 5139.5,-221 5145.5,-227 5145.5,-233 5145.5,-233 5145.5,-245 5145.5,-245 5145.5,-251 5139.5,-257 5133.5,-257"/>
<text text-anchor="middle" x="5103" y="-236.5" font-family="sans" font-size="10.00" fill="#000000">salmon_index</text>
</g>
<!-- 36&#45;&gt;40 -->
<g id="edge19" class="edge">
<title>36&#45;&gt;40</title>
<path fill="none" stroke="#c0c0c0" stroke-width="2" d="M5103,-292.8314C5103,-285.131 5103,-275.9743 5103,-267.4166"/>
<polygon fill="#c0c0c0" stroke="#c0c0c0" stroke-width="2" points="5106.5001,-267.4132 5103,-257.4133 5099.5001,-267.4133 5106.5001,-267.4132"/>
</g>
<!-- 37 -->
<g id="node38" class="node">
<title>37</title>
<path fill="none" stroke="#567bd8" stroke-width="2" stroke-dasharray="5,2" d="M3933.5,-182.5C3933.5,-182.5 3796.5,-182.5 3796.5,-182.5 3790.5,-182.5 3784.5,-176.5 3784.5,-170.5 3784.5,-170.5 3784.5,-158.5 3784.5,-158.5 3784.5,-152.5 3790.5,-146.5 3796.5,-146.5 3796.5,-146.5 3933.5,-146.5 3933.5,-146.5 3939.5,-146.5 3945.5,-152.5 3945.5,-158.5 3945.5,-158.5 3945.5,-170.5 3945.5,-170.5 3945.5,-176.5 3939.5,-182.5 3933.5,-182.5"/>
<text text-anchor="middle" x="3865" y="-167.5" font-family="sans" font-size="10.00" fill="#000000">salmon_quant</text>
<text text-anchor="middle" x="3865" y="-156.5" font-family="sans" font-size="10.00" fill="#000000">F_SAMPLES: B6_M_CM_RNA_5</text>
</g>
<!-- 37&#45;&gt;48 -->
<g id="edge34" class="edge">
<title>37&#45;&gt;48</title>
<path fill="none" stroke="#c0c0c0" stroke-width="2" d="M3940.4681,-146.4618C3945.3714,-145.5526 3950.2466,-144.7199 3955,-144 4207.4479,-105.7662 4515.2218,-93.9878 4620.5674,-90.9363"/>
<polygon fill="#c0c0c0" stroke="#c0c0c0" stroke-width="2" points="4620.7966,-94.4314 4630.6944,-90.6521 4620.6001,-87.4341 4620.7966,-94.4314"/>
</g>
<!-- 38 -->
<g id="node39" class="node">
<title>38</title>
<path fill="none" stroke="#d6d856" stroke-width="2" stroke-dasharray="5,2" d="M6053.5,-185C6053.5,-185 5920.5,-185 5920.5,-185 5914.5,-185 5908.5,-179 5908.5,-173 5908.5,-173 5908.5,-156 5908.5,-156 5908.5,-150 5914.5,-144 5920.5,-144 5920.5,-144 6053.5,-144 6053.5,-144 6059.5,-144 6065.5,-150 6065.5,-156 6065.5,-156 6065.5,-173 6065.5,-173 6065.5,-179 6059.5,-185 6053.5,-185"/>
<text text-anchor="middle" x="5987" y="-173" font-family="sans" font-size="10.00" fill="#000000">fastqc</text>
<text text-anchor="middle" x="5987" y="-162" font-family="sans" font-size="10.00" fill="#000000">F_SAMPLES: B6_F_Fib_RNA_4</text>
<text text-anchor="middle" x="5987" y="-151" font-family="sans" font-size="10.00" fill="#000000">READS: _2</text>
</g>
<!-- 38&#45;&gt;48 -->
<g id="edge56" class="edge">
<title>38&#45;&gt;48</title>
<path fill="none" stroke="#c0c0c0" stroke-width="2" d="M5908.4042,-145.282C5905.5748,-144.8129 5902.7669,-144.3827 5900,-144 5658.4152,-110.5882 4875.4291,-94.084 4695.2229,-90.6745"/>
<polygon fill="#c0c0c0" stroke="#c0c0c0" stroke-width="2" points="4695.244,-87.1744 4685.1802,-90.4863 4695.1128,-94.1731 4695.244,-87.1744"/>
</g>
<!-- 39 -->
<g id="node40" class="node">
<title>39</title>
<path fill="none" stroke="#567bd8" stroke-width="2" stroke-dasharray="5,2" d="M4110,-182.5C4110,-182.5 3976,-182.5 3976,-182.5 3970,-182.5 3964,-176.5 3964,-170.5 3964,-170.5 3964,-158.5 3964,-158.5 3964,-152.5 3970,-146.5 3976,-146.5 3976,-146.5 4110,-146.5 4110,-146.5 4116,-146.5 4122,-152.5 4122,-158.5 4122,-158.5 4122,-170.5 4122,-170.5 4122,-176.5 4116,-182.5 4110,-182.5"/>
<text text-anchor="middle" x="4043" y="-167.5" font-family="sans" font-size="10.00" fill="#000000">salmon_quant</text>
<text text-anchor="middle" x="4043" y="-156.5" font-family="sans" font-size="10.00" fill="#000000">F_SAMPLES: B6_F_CM_RNA_4</text>
</g>
<!-- 39&#45;&gt;48 -->
<g id="edge57" class="edge">
<title>39&#45;&gt;48</title>
<path fill="none" stroke="#c0c0c0" stroke-width="2" d="M4117.284,-146.4973C4121.9133,-145.5921 4126.513,-144.7494 4131,-144 4313.4397,-113.5291 4534.4741,-97.6072 4620.8699,-92.1804"/>
<polygon fill="#c0c0c0" stroke="#c0c0c0" stroke-width="2" points="4621.2004,-95.6668 4630.9652,-91.5559 4620.7681,-88.6801 4621.2004,-95.6668"/>
</g>
<!-- 40&#45;&gt;2 -->
<g id="edge1" class="edge">
<title>40&#45;&gt;2</title>
<path fill="none" stroke="#c0c0c0" stroke-width="2" d="M5145.6332,-238.567C5447.041,-235.4356 7251.6056,-215.5118 7493,-185 7495.067,-184.7387 7497.1563,-184.4494 7499.2602,-184.1356"/>
<polygon fill="#c0c0c0" stroke="#c0c0c0" stroke-width="2" points="7499.8834,-187.5802 7509.1821,-182.5023 7498.7464,-180.6732 7499.8834,-187.5802"/>
</g>
<!-- 40&#45;&gt;5 -->
<g id="edge2" class="edge">
<title>40&#45;&gt;5</title>
<path fill="none" stroke="#c0c0c0" stroke-width="2" d="M5145.754,-238.7461C5483.9976,-236.6673 7722.6895,-221.5885 8020,-185 8022.0901,-184.7428 8024.2029,-184.4571 8026.3304,-184.1465"/>
<polygon fill="#c0c0c0" stroke="#c0c0c0" stroke-width="2" points="8027.0502,-187.5757 8036.364,-182.5257 8025.9338,-180.6653 8027.0502,-187.5757"/>
</g>
<!-- 40&#45;&gt;6 -->
<g id="edge3" class="edge">
<title>40&#45;&gt;6</title>
<path fill="none" stroke="#c0c0c0" stroke-width="2" d="M5145.5613,-238.8022C5494.6862,-237.1087 7881.7475,-224.1475 8198,-185 8200.0676,-184.7441 8202.1576,-184.4595 8204.262,-184.15"/>
<polygon fill="#c0c0c0" stroke="#c0c0c0" stroke-width="2" points="8204.879,-187.5957 8214.1859,-182.5331 8203.7532,-180.6868 8204.879,-187.5957"/>
</g>
<!-- 40&#45;&gt;7 -->
<g id="edge4" class="edge">
<title>40&#45;&gt;7</title>
<path fill="none" stroke="#c0c0c0" stroke-width="2" d="M5145.6426,-238.8904C5517.1389,-237.8632 8199.0135,-228.9521 8553,-185 8554.9634,-184.7562 8556.9471,-184.4859 8558.9441,-184.1922"/>
<polygon fill="#c0c0c0" stroke="#c0c0c0" stroke-width="2" points="8559.7053,-187.6143 8569.0085,-182.5446 8558.5744,-180.7062 8559.7053,-187.6143"/>
</g>
<!-- 40&#45;&gt;9 -->
<g id="edge5" class="edge">
<title>40&#45;&gt;9</title>
<path fill="none" stroke="#c0c0c0" stroke-width="2" d="M5145.6759,-238.973C5548.3036,-238.6465 8673.2206,-234.5215 9084,-185 9086.0907,-184.748 9088.2041,-184.4669 9090.3321,-184.1605"/>
<polygon fill="#c0c0c0" stroke="#c0c0c0" stroke-width="2" points="9091.0458,-187.5909 9100.3676,-182.5555 9089.9404,-180.6787 9091.0458,-187.5909"/>
</g>
<!-- 40&#45;&gt;20 -->
<g id="edge9" class="edge">
<title>40&#45;&gt;20</title>
<path fill="none" stroke="#c0c0c0" stroke-width="2" d="M5060.2698,-238.9802C4657.1291,-238.7202 1528.2337,-235.091 1117,-185 1114.9319,-184.7481 1112.8415,-184.4671 1110.7367,-184.1608"/>
<polygon fill="#c0c0c0" stroke="#c0c0c0" stroke-width="2" points="1111.2416,-180.6971 1100.8112,-182.5563 1110.1245,-187.6074 1111.2416,-180.6971"/>
</g>
<!-- 40&#45;&gt;22 -->
<g id="edge10" class="edge">
<title>40&#45;&gt;22</title>
<path fill="none" stroke="#c0c0c0" stroke-width="2" d="M5060.3499,-238.9448C4667.6896,-238.3652 1687.3017,-232.4166 1295,-185 1292.9093,-184.7473 1290.7961,-184.4657 1288.6681,-184.1587"/>
<polygon fill="#c0c0c0" stroke="#c0c0c0" stroke-width="2" points="1289.0605,-180.677 1278.6328,-182.5518 1287.9536,-187.589 1289.0605,-180.677"/>
</g>
<!-- 40&#45;&gt;24 -->
<g id="edge11" class="edge">
<title>40&#45;&gt;24</title>
<path fill="none" stroke="#c0c0c0" stroke-width="2" d="M5060.2879,-238.9062C4677.8874,-237.9959 1848.1167,-229.7706 1475,-185 1472.8023,-184.7363 1470.5797,-184.4414 1468.3414,-184.1194"/>
<polygon fill="#c0c0c0" stroke="#c0c0c0" stroke-width="2" points="1468.8801,-180.6611 1458.4545,-182.5468 1467.7805,-187.5742 1468.8801,-180.6611"/>
</g>
<!-- 40&#45;&gt;25 -->
<g id="edge12" class="edge">
<title>40&#45;&gt;25</title>
<path fill="none" stroke="#c0c0c0" stroke-width="2" d="M5060.2443,-238.8522C4698.941,-237.5309 2161.5172,-226.7996 1826,-185 1824.0367,-184.7554 1822.0531,-184.4843 1820.0561,-184.19"/>
<polygon fill="#c0c0c0" stroke="#c0c0c0" stroke-width="2" points="1820.4267,-180.7041 1809.9921,-182.5397 1819.2939,-187.6118 1820.4267,-180.7041"/>
</g>
<!-- 40&#45;&gt;31 -->
<g id="edge13" class="edge">
<title>40&#45;&gt;31</title>
<path fill="none" stroke="#c0c0c0" stroke-width="2" d="M5060.3707,-238.9044C4818.0626,-238.1882 3612.0868,-232.2671 3244,-185 3242.0538,-184.7501 3240.0878,-184.4764 3238.1084,-184.1819"/>
<polygon fill="#c0c0c0" stroke="#c0c0c0" stroke-width="2" points="3238.5644,-180.71 3228.1303,-182.5488 3237.4337,-187.6181 3238.5644,-180.71"/>
</g>
<!-- 40&#45;&gt;35 -->
<g id="edge16" class="edge">
<title>40&#45;&gt;35</title>
<path fill="none" stroke="#c0c0c0" stroke-width="2" d="M5060.3518,-238.5839C4846.5879,-236.3289 3890.3822,-224.1891 3596,-185 3594.0757,-184.7438 3592.1319,-184.4645 3590.1748,-184.1649"/>
<polygon fill="#c0c0c0" stroke="#c0c0c0" stroke-width="2" points="3590.7501,-180.7126 3580.309,-182.5109 3589.5926,-187.6163 3590.7501,-180.7126"/>
</g>
<!-- 40&#45;&gt;37 -->
<g id="edge17" class="edge">
<title>40&#45;&gt;37</title>
<path fill="none" stroke="#c0c0c0" stroke-width="2" d="M5060.4682,-238.0081C4879.7675,-233.6385 4174.9386,-214.981 3955,-185 3953.2534,-184.7619 3951.4907,-184.5064 3949.7165,-184.2355"/>
<polygon fill="#c0c0c0" stroke="#c0c0c0" stroke-width="2" points="3949.9013,-180.7181 3939.4622,-182.5283 3948.7516,-187.6231 3949.9013,-180.7181"/>
</g>
<!-- 40&#45;&gt;39 -->
<g id="edge18" class="edge">
<title>40&#45;&gt;39</title>
<path fill="none" stroke="#c0c0c0" stroke-width="2" d="M5060.2763,-237.6135C4897.2827,-232.1708 4314.5123,-211.2701 4131,-185 4129.4957,-184.7847 4127.9792,-184.5562 4126.4536,-184.3161"/>
<polygon fill="#c0c0c0" stroke="#c0c0c0" stroke-width="2" points="4126.733,-180.813 4116.2856,-182.574 4125.5509,-187.7125 4126.733,-180.813"/>
</g>
<!-- 55 -->
<g id="node56" class="node">
<title>55</title>
<path fill="none" stroke="#567bd8" stroke-width="2" stroke-dasharray="5,2" d="M5169.5,-182.5C5169.5,-182.5 5036.5,-182.5 5036.5,-182.5 5030.5,-182.5 5024.5,-176.5 5024.5,-170.5 5024.5,-170.5 5024.5,-158.5 5024.5,-158.5 5024.5,-152.5 5030.5,-146.5 5036.5,-146.5 5036.5,-146.5 5169.5,-146.5 5169.5,-146.5 5175.5,-146.5 5181.5,-152.5 5181.5,-158.5 5181.5,-158.5 5181.5,-170.5 5181.5,-170.5 5181.5,-176.5 5175.5,-182.5 5169.5,-182.5"/>
<text text-anchor="middle" x="5103" y="-167.5" font-family="sans" font-size="10.00" fill="#000000">salmon_quant</text>
<text text-anchor="middle" x="5103" y="-156.5" font-family="sans" font-size="10.00" fill="#000000">F_SAMPLES: B6_F_Fib_RNA_4</text>
</g>
<!-- 40&#45;&gt;55 -->
<g id="edge77" class="edge">
<title>40&#45;&gt;55</title>
<path fill="none" stroke="#c0c0c0" stroke-width="2" d="M5103,-220.9656C5103,-212.5178 5103,-202.2542 5103,-192.8064"/>
<polygon fill="#c0c0c0" stroke="#c0c0c0" stroke-width="2" points="5106.5001,-192.6265 5103,-182.6265 5099.5001,-192.6265 5106.5001,-192.6265"/>
</g>
<!-- 58 -->
<g id="node59" class="node">
<title>58</title>
<path fill="none" stroke="#567bd8" stroke-width="2" stroke-dasharray="5,2" d="M5699.5,-182.5C5699.5,-182.5 5566.5,-182.5 5566.5,-182.5 5560.5,-182.5 5554.5,-176.5 5554.5,-170.5 5554.5,-170.5 5554.5,-158.5 5554.5,-158.5 5554.5,-152.5 5560.5,-146.5 5566.5,-146.5 5566.5,-146.5 5699.5,-146.5 5699.5,-146.5 5705.5,-146.5 5711.5,-152.5 5711.5,-158.5 5711.5,-158.5 5711.5,-170.5 5711.5,-170.5 5711.5,-176.5 5705.5,-182.5 5699.5,-182.5"/>
<text text-anchor="middle" x="5633" y="-167.5" font-family="sans" font-size="10.00" fill="#000000">salmon_quant</text>
<text text-anchor="middle" x="5633" y="-156.5" font-family="sans" font-size="10.00" fill="#000000">F_SAMPLES: B6_F_Fib_RNA_5</text>
</g>
<!-- 40&#45;&gt;58 -->
<g id="edge78" class="edge">
<title>40&#45;&gt;58</title>
<path fill="none" stroke="#c0c0c0" stroke-width="2" d="M5145.5842,-235.3304C5224.668,-228.1761 5399.4149,-210.7739 5545,-185 5545.9123,-184.8385 5546.8294,-184.6735 5547.7505,-184.5053"/>
<polygon fill="#c0c0c0" stroke="#c0c0c0" stroke-width="2" points="5548.5789,-187.9104 5557.7419,-182.5915 5547.262,-181.0353 5548.5789,-187.9104"/>
</g>
<!-- 60 -->
<g id="node61" class="node">
<title>60</title>
<path fill="none" stroke="#567bd8" stroke-width="2" stroke-dasharray="5,2" d="M5878.5,-182.5C5878.5,-182.5 5741.5,-182.5 5741.5,-182.5 5735.5,-182.5 5729.5,-176.5 5729.5,-170.5 5729.5,-170.5 5729.5,-158.5 5729.5,-158.5 5729.5,-152.5 5735.5,-146.5 5741.5,-146.5 5741.5,-146.5 5878.5,-146.5 5878.5,-146.5 5884.5,-146.5 5890.5,-152.5 5890.5,-158.5 5890.5,-158.5 5890.5,-170.5 5890.5,-170.5 5890.5,-176.5 5884.5,-182.5 5878.5,-182.5"/>
<text text-anchor="middle" x="5810" y="-167.5" font-family="sans" font-size="10.00" fill="#000000">salmon_quant</text>
<text text-anchor="middle" x="5810" y="-156.5" font-family="sans" font-size="10.00" fill="#000000">F_SAMPLES: B6_M_CM_RNA_3</text>
</g>
<!-- 40&#45;&gt;60 -->
<g id="edge79" class="edge">
<title>40&#45;&gt;60</title>
<path fill="none" stroke="#c0c0c0" stroke-width="2" d="M5145.5819,-237.3232C5246.2105,-232.9167 5506.379,-218.9251 5721,-185 5722.2774,-184.7981 5723.5637,-184.5882 5724.8572,-184.3711"/>
<polygon fill="#c0c0c0" stroke="#c0c0c0" stroke-width="2" points="5725.6541,-187.7842 5734.8809,-182.5769 5724.4206,-180.8937 5725.6541,-187.7842"/>
</g>
<!-- 63 -->
<g id="node64" class="node">
<title>63</title>
<path fill="none" stroke="#567bd8" stroke-width="2" stroke-dasharray="5,2" d="M6230,-182.5C6230,-182.5 6096,-182.5 6096,-182.5 6090,-182.5 6084,-176.5 6084,-170.5 6084,-170.5 6084,-158.5 6084,-158.5 6084,-152.5 6090,-146.5 6096,-146.5 6096,-146.5 6230,-146.5 6230,-146.5 6236,-146.5 6242,-152.5 6242,-158.5 6242,-158.5 6242,-170.5 6242,-170.5 6242,-176.5 6236,-182.5 6230,-182.5"/>
<text text-anchor="middle" x="6163" y="-167.5" font-family="sans" font-size="10.00" fill="#000000">salmon_quant</text>
<text text-anchor="middle" x="6163" y="-156.5" font-family="sans" font-size="10.00" fill="#000000">F_SAMPLES: B6_F_CM_RNA_5</text>
</g>
<!-- 40&#45;&gt;63 -->
<g id="edge82" class="edge">
<title>40&#45;&gt;63</title>
<path fill="none" stroke="#c0c0c0" stroke-width="2" d="M5145.7237,-237.6135C5308.7173,-232.1708 5891.4877,-211.2701 6075,-185 6076.5043,-184.7847 6078.0208,-184.5562 6079.5464,-184.3161"/>
<polygon fill="#c0c0c0" stroke="#c0c0c0" stroke-width="2" points="6080.4491,-187.7125 6089.7144,-182.574 6079.267,-180.813 6080.4491,-187.7125"/>
</g>
<!-- 41 -->
<g id="node42" class="node">
<title>41</title>
<path fill="none" stroke="#d6d856" stroke-width="2" stroke-dasharray="5,2" d="M6405.5,-185C6405.5,-185 6272.5,-185 6272.5,-185 6266.5,-185 6260.5,-179 6260.5,-173 6260.5,-173 6260.5,-156 6260.5,-156 6260.5,-150 6266.5,-144 6272.5,-144 6272.5,-144 6405.5,-144 6405.5,-144 6411.5,-144 6417.5,-150 6417.5,-156 6417.5,-156 6417.5,-173 6417.5,-173 6417.5,-179 6411.5,-185 6405.5,-185"/>
<text text-anchor="middle" x="6339" y="-173" font-family="sans" font-size="10.00" fill="#000000">fastqc</text>
<text text-anchor="middle" x="6339" y="-162" font-family="sans" font-size="10.00" fill="#000000">F_SAMPLES: B6_F_Fib_RNA_5</text>
<text text-anchor="middle" x="6339" y="-151" font-family="sans" font-size="10.00" fill="#000000">READS: _1</text>
</g>
<!-- 41&#45;&gt;48 -->
<g id="edge58" class="edge">
<title>41&#45;&gt;48</title>
<path fill="none" stroke="#c0c0c0" stroke-width="2" d="M6260.4574,-145.4037C6257.2718,-144.8829 6254.1103,-144.411 6251,-144 5936.0171,-102.3781 4904.368,-91.977 4695.193,-90.2759"/>
<polygon fill="#c0c0c0" stroke="#c0c0c0" stroke-width="2" points="4695.0638,-86.7749 4685.0362,-90.195 4695.008,-93.7747 4695.0638,-86.7749"/>
</g>
<!-- 42 -->
<g id="node43" class="node">
<title>42</title>
<path fill="none" stroke="#97d856" stroke-width="2" stroke-dasharray="5,2" d="M138.5,-401C138.5,-401 93.5,-401 93.5,-401 87.5,-401 81.5,-395 81.5,-389 81.5,-389 81.5,-377 81.5,-377 81.5,-371 87.5,-365 93.5,-365 93.5,-365 138.5,-365 138.5,-365 144.5,-365 150.5,-371 150.5,-377 150.5,-377 150.5,-389 150.5,-389 150.5,-395 144.5,-401 138.5,-401"/>
<text text-anchor="middle" x="116" y="-380.5" font-family="sans" font-size="10.00" fill="#000000">clean_bulk</text>
</g>
<!-- 46 -->
<g id="node47" class="node">
<title>46</title>
<path fill="none" stroke="#56d8d8" stroke-width="2" stroke-dasharray="5,2" d="M202.5,-257C202.5,-257 149.5,-257 149.5,-257 143.5,-257 137.5,-251 137.5,-245 137.5,-245 137.5,-233 137.5,-233 137.5,-227 143.5,-221 149.5,-221 149.5,-221 202.5,-221 202.5,-221 208.5,-221 214.5,-227 214.5,-233 214.5,-233 214.5,-245 214.5,-245 214.5,-251 208.5,-257 202.5,-257"/>
<text text-anchor="middle" x="176" y="-236.5" font-family="sans" font-size="10.00" fill="#000000">deconvolute</text>
</g>
<!-- 42&#45;&gt;46 -->
<g id="edge21" class="edge">
<title>42&#45;&gt;46</title>
<path fill="none" stroke="#c0c0c0" stroke-width="2" d="M120.6936,-364.6573C125.7036,-346.1721 134.3756,-317.0211 145,-293 148.9818,-283.9974 154.0533,-274.5668 158.9355,-266.1518"/>
<polygon fill="#c0c0c0" stroke="#c0c0c0" stroke-width="2" points="161.9861,-267.8696 164.0983,-257.4875 155.9727,-264.2864 161.9861,-267.8696"/>
</g>
<!-- 42&#45;&gt;53 -->
<g id="edge75" class="edge">
<title>42&#45;&gt;53</title>
<path fill="none" stroke="#c0c0c0" stroke-width="2" d="M134.9257,-364.8314C143.9857,-356.1337 154.9809,-345.5783 164.8265,-336.1265"/>
<polygon fill="#c0c0c0" stroke="#c0c0c0" stroke-width="2" points="167.2904,-338.613 172.0804,-329.1628 162.4426,-333.5633 167.2904,-338.613"/>
</g>
<!-- 62 -->
<g id="node63" class="node">
<title>62</title>
<path fill="none" stroke="#56d87b" stroke-width="2" stroke-dasharray="5,2" d="M135.5,-182.5C135.5,-182.5 40.5,-182.5 40.5,-182.5 34.5,-182.5 28.5,-176.5 28.5,-170.5 28.5,-170.5 28.5,-158.5 28.5,-158.5 28.5,-152.5 34.5,-146.5 40.5,-146.5 40.5,-146.5 135.5,-146.5 135.5,-146.5 141.5,-146.5 147.5,-152.5 147.5,-158.5 147.5,-158.5 147.5,-170.5 147.5,-170.5 147.5,-176.5 141.5,-182.5 135.5,-182.5"/>
<text text-anchor="middle" x="88" y="-162" font-family="sans" font-size="10.00" fill="#000000">diffential_expression</text>
</g>
<!-- 42&#45;&gt;62 -->
<g id="edge81" class="edge">
<title>42&#45;&gt;62</title>
<path fill="none" stroke="#c0c0c0" stroke-width="2" d="M113.6609,-364.7466C108.7693,-326.5749 97.4308,-238.0939 91.6022,-192.6098"/>
<polygon fill="#c0c0c0" stroke="#c0c0c0" stroke-width="2" points="95.0555,-192.0217 90.3128,-182.5477 88.1123,-192.9115 95.0555,-192.0217"/>
</g>
<!-- 43 -->
<g id="node44" class="node">
<title>43</title>
<path fill="none" stroke="#d6d856" stroke-width="2" stroke-dasharray="5,2" d="M6582,-185C6582,-185 6448,-185 6448,-185 6442,-185 6436,-179 6436,-173 6436,-173 6436,-156 6436,-156 6436,-150 6442,-144 6448,-144 6448,-144 6582,-144 6582,-144 6588,-144 6594,-150 6594,-156 6594,-156 6594,-173 6594,-173 6594,-179 6588,-185 6582,-185"/>
<text text-anchor="middle" x="6515" y="-173" font-family="sans" font-size="10.00" fill="#000000">fastqc</text>
<text text-anchor="middle" x="6515" y="-162" font-family="sans" font-size="10.00" fill="#000000">F_SAMPLES: B6_F_CM_RNA_5</text>
<text text-anchor="middle" x="6515" y="-151" font-family="sans" font-size="10.00" fill="#000000">READS: _1</text>
</g>
<!-- 43&#45;&gt;48 -->
<g id="edge59" class="edge">
<title>43&#45;&gt;48</title>
<path fill="none" stroke="#c0c0c0" stroke-width="2" d="M6435.9814,-145.3131C6432.957,-144.8266 6429.9555,-144.3855 6427,-144 6075.1436,-98.1086 4918.2322,-91.0694 4695.3427,-90.1316"/>
<polygon fill="#c0c0c0" stroke="#c0c0c0" stroke-width="2" points="4695.1651,-86.631 4685.151,-90.0903 4695.1366,-93.6309 4695.1651,-86.631"/>
</g>
<!-- 44 -->
<g id="node45" class="node">
<title>44</title>
<path fill="none" stroke="#d6d856" stroke-width="2" stroke-dasharray="5,2" d="M6761.5,-185C6761.5,-185 6624.5,-185 6624.5,-185 6618.5,-185 6612.5,-179 6612.5,-173 6612.5,-173 6612.5,-156 6612.5,-156 6612.5,-150 6618.5,-144 6624.5,-144 6624.5,-144 6761.5,-144 6761.5,-144 6767.5,-144 6773.5,-150 6773.5,-156 6773.5,-156 6773.5,-173 6773.5,-173 6773.5,-179 6767.5,-185 6761.5,-185"/>
<text text-anchor="middle" x="6693" y="-173" font-family="sans" font-size="10.00" fill="#000000">fastqc</text>
<text text-anchor="middle" x="6693" y="-162" font-family="sans" font-size="10.00" fill="#000000">F_SAMPLES: B6_M_CM_RNA_3</text>
<text text-anchor="middle" x="6693" y="-151" font-family="sans" font-size="10.00" fill="#000000">READS: _2</text>
</g>
<!-- 44&#45;&gt;48 -->
<g id="edge43" class="edge">
<title>44&#45;&gt;48</title>
<path fill="none" stroke="#c0c0c0" stroke-width="2" d="M6612.1806,-145.3047C6609.0888,-144.8206 6606.0207,-144.3822 6603,-144 6407.2461,-119.2322 4948.6833,-94.6938 4695.4295,-90.5969"/>
<polygon fill="#c0c0c0" stroke="#c0c0c0" stroke-width="2" points="4695.3251,-87.0948 4685.27,-90.433 4695.2122,-94.0939 4695.3251,-87.0948"/>
</g>
<!-- 45 -->
<g id="node46" class="node">
<title>45</title>
<path fill="none" stroke="#d6d856" stroke-width="2" stroke-dasharray="5,2" d="M6938,-185C6938,-185 6804,-185 6804,-185 6798,-185 6792,-179 6792,-173 6792,-173 6792,-156 6792,-156 6792,-150 6798,-144 6804,-144 6804,-144 6938,-144 6938,-144 6944,-144 6950,-150 6950,-156 6950,-156 6950,-173 6950,-173 6950,-179 6944,-185 6938,-185"/>
<text text-anchor="middle" x="6871" y="-173" font-family="sans" font-size="10.00" fill="#000000">fastqc</text>
<text text-anchor="middle" x="6871" y="-162" font-family="sans" font-size="10.00" fill="#000000">F_SAMPLES: B6_F_CM_RNA_4</text>
<text text-anchor="middle" x="6871" y="-151" font-family="sans" font-size="10.00" fill="#000000">READS: _1</text>
</g>
<!-- 45&#45;&gt;48 -->
<g id="edge69" class="edge">
<title>45&#45;&gt;48</title>
<path fill="none" stroke="#c0c0c0" stroke-width="2" d="M6791.9839,-145.2937C6788.9588,-144.8127 6785.9564,-144.3779 6783,-144 6568.2826,-116.5529 4962.2174,-94.058 4695.4867,-90.4926"/>
<polygon fill="#c0c0c0" stroke="#c0c0c0" stroke-width="2" points="4695.2199,-86.9888 4685.1742,-90.3553 4695.1267,-93.9882 4695.2199,-86.9888"/>
</g>
<!-- 46&#45;&gt;18 -->
<g id="edge8" class="edge">
<title>46&#45;&gt;18</title>
<path fill="none" stroke="#c0c0c0" stroke-width="2" d="M185.9322,-220.7297C199.9601,-194.9252 225.6854,-147.6035 242.0346,-117.529"/>
<polygon fill="#c0c0c0" stroke="#c0c0c0" stroke-width="2" points="245.2854,-118.8771 246.9866,-108.4198 239.1354,-115.5338 245.2854,-118.8771"/>
</g>
<!-- 50 -->
<g id="node51" class="node">
<title>50</title>
<path fill="none" stroke="#56b9d8" stroke-width="2" stroke-dasharray="5,2" d="M198.5,-108C198.5,-108 149.5,-108 149.5,-108 143.5,-108 137.5,-102 137.5,-96 137.5,-96 137.5,-84 137.5,-84 137.5,-78 143.5,-72 149.5,-72 149.5,-72 198.5,-72 198.5,-72 204.5,-72 210.5,-78 210.5,-84 210.5,-84 210.5,-96 210.5,-96 210.5,-102 204.5,-108 198.5,-108"/>
<text text-anchor="middle" x="174" y="-87.5" font-family="sans" font-size="10.00" fill="#000000">plot_comps</text>
</g>
<!-- 46&#45;&gt;50 -->
<g id="edge73" class="edge">
<title>46&#45;&gt;50</title>
<path fill="none" stroke="#c0c0c0" stroke-width="2" d="M175.7548,-220.7297C175.4129,-195.2604 174.7897,-148.829 174.3854,-118.7094"/>
<polygon fill="#c0c0c0" stroke="#c0c0c0" stroke-width="2" points="177.8812,-118.3719 174.2472,-108.4198 170.8819,-118.4659 177.8812,-118.3719"/>
</g>
<!-- 46&#45;&gt;62 -->
<g id="edge80" class="edge">
<title>46&#45;&gt;62</title>
<path fill="none" stroke="#c0c0c0" stroke-width="2" d="M154.6977,-220.9656C143.4314,-211.4277 129.4312,-199.5753 117.1707,-189.1956"/>
<polygon fill="#c0c0c0" stroke="#c0c0c0" stroke-width="2" points="119.3049,-186.4166 109.4112,-182.6265 114.7819,-191.7592 119.3049,-186.4166"/>
</g>
<!-- 47 -->
<g id="node48" class="node">
<title>47</title>
<path fill="none" stroke="#d6d856" stroke-width="2" stroke-dasharray="5,2" d="M7114,-185C7114,-185 6980,-185 6980,-185 6974,-185 6968,-179 6968,-173 6968,-173 6968,-156 6968,-156 6968,-150 6974,-144 6980,-144 6980,-144 7114,-144 7114,-144 7120,-144 7126,-150 7126,-156 7126,-156 7126,-173 7126,-173 7126,-179 7120,-185 7114,-185"/>
<text text-anchor="middle" x="7047" y="-173" font-family="sans" font-size="10.00" fill="#000000">fastqc</text>
<text text-anchor="middle" x="7047" y="-162" font-family="sans" font-size="10.00" fill="#000000">F_SAMPLES: B6_F_CM_RNA_5</text>
<text text-anchor="middle" x="7047" y="-151" font-family="sans" font-size="10.00" fill="#000000">READS: _2</text>
</g>
<!-- 47&#45;&gt;48 -->
<g id="edge62" class="edge">
<title>47&#45;&gt;48</title>
<path fill="none" stroke="#c0c0c0" stroke-width="2" d="M6967.9849,-145.2863C6964.9595,-144.8073 6961.9568,-144.375 6959,-144 6725.6326,-114.3992 4974.6971,-93.5647 4695.487,-90.4147"/>
<polygon fill="#c0c0c0" stroke="#c0c0c0" stroke-width="2" points="4695.1304,-86.9106 4685.0917,-90.298 4695.0517,-93.9101 4695.1304,-86.9106"/>
</g>
<!-- 48&#45;&gt;64 -->
<g id="edge83" class="edge">
<title>48&#45;&gt;64</title>
<path fill="none" stroke="#c0c0c0" stroke-width="2" d="M4630.7795,-89.5589C4280.4692,-83.882 660.0121,-25.2115 252.292,-18.6043"/>
<polygon fill="#c0c0c0" stroke="#c0c0c0" stroke-width="2" points="252.264,-15.1035 242.2086,-18.4409 252.1505,-22.1026 252.264,-15.1035"/>
</g>
<!-- 49 -->
<g id="node50" class="node">
<title>49</title>
<path fill="none" stroke="#d6d856" stroke-width="2" stroke-dasharray="5,2" d="M7292,-185C7292,-185 7156,-185 7156,-185 7150,-185 7144,-179 7144,-173 7144,-173 7144,-156 7144,-156 7144,-150 7150,-144 7156,-144 7156,-144 7292,-144 7292,-144 7298,-144 7304,-150 7304,-156 7304,-156 7304,-173 7304,-173 7304,-179 7298,-185 7292,-185"/>
<text text-anchor="middle" x="7224" y="-173" font-family="sans" font-size="10.00" fill="#000000">fastqc</text>
<text text-anchor="middle" x="7224" y="-162" font-family="sans" font-size="10.00" fill="#000000">F_SAMPLES: B6_M_Fib_RNA_3</text>
<text text-anchor="middle" x="7224" y="-151" font-family="sans" font-size="10.00" fill="#000000">READS: _2</text>
</g>
<!-- 49&#45;&gt;48 -->
<g id="edge63" class="edge">
<title>49&#45;&gt;48</title>
<path fill="none" stroke="#c0c0c0" stroke-width="2" d="M7143.6017,-145.2058C7140.706,-144.7582 7137.8321,-144.3533 7135,-144 6882.8191,-112.5445 4985.277,-93.1457 4695.1591,-90.3503"/>
<polygon fill="#c0c0c0" stroke="#c0c0c0" stroke-width="2" points="4695.1791,-86.8504 4685.146,-90.2543 4695.1119,-93.8501 4695.1791,-86.8504"/>
</g>
<!-- 50&#45;&gt;64 -->
<g id="edge87" class="edge">
<title>50&#45;&gt;64</title>
<path fill="none" stroke="#c0c0c0" stroke-width="2" d="M184.346,-71.8314C188.9237,-63.7925 194.4052,-54.1666 199.4588,-45.2918"/>
<polygon fill="#c0c0c0" stroke="#c0c0c0" stroke-width="2" points="202.6077,-46.8351 204.5147,-36.4133 196.5248,-43.3712 202.6077,-46.8351"/>
</g>
<!-- 51 -->
<g id="node52" class="node">
<title>51</title>
<path fill="none" stroke="#56d89a" stroke-width="2" stroke-dasharray="5,2" d="M321,-473C321,-473 241,-473 241,-473 235,-473 229,-467 229,-461 229,-461 229,-449 229,-449 229,-443 235,-437 241,-437 241,-437 321,-437 321,-437 327,-437 333,-443 333,-449 333,-449 333,-461 333,-461 333,-467 327,-473 321,-473"/>
<text text-anchor="middle" x="281" y="-452.5" font-family="sans" font-size="10.00" fill="#000000">ambient_doublets</text>
</g>
<!-- 51&#45;&gt;32 -->
<g id="edge15" class="edge">
<title>51&#45;&gt;32</title>
<path fill="none" stroke="#c0c0c0" stroke-width="2" d="M260.8126,-436.8314C251.1486,-428.1337 239.4204,-417.5783 228.9184,-408.1265"/>
<polygon fill="#c0c0c0" stroke="#c0c0c0" stroke-width="2" points="230.9553,-405.251 221.1809,-401.1628 226.2725,-410.454 230.9553,-405.251"/>
</g>
<!-- 51&#45;&gt;64 -->
<g id="edge86" class="edge">
<title>51&#45;&gt;64</title>
<path fill="none" stroke="#c0c0c0" stroke-width="2" d="M333.0142,-454.8793C1065.2222,-453.099 9282,-430.4591 9282,-311 9282,-311 9282,-311 9282,-164.5 9282,90.4407 4948.916,-75.5452 4694,-72 2845.87,-46.2976 568.6871,-21.7744 252.1541,-18.3954"/>
<polygon fill="#c0c0c0" stroke="#c0c0c0" stroke-width="2" points="252.1677,-14.8954 242.1309,-18.2884 252.0929,-21.895 252.1677,-14.8954"/>
</g>
<!-- 52 -->
<g id="node53" class="node">
<title>52</title>
<path fill="none" stroke="#78d856" stroke-width="2" stroke-dasharray="5,2" d="M151.5,-545C151.5,-545 88.5,-545 88.5,-545 82.5,-545 76.5,-539 76.5,-533 76.5,-533 76.5,-521 76.5,-521 76.5,-515 82.5,-509 88.5,-509 88.5,-509 151.5,-509 151.5,-509 157.5,-509 163.5,-515 163.5,-521 163.5,-521 163.5,-533 163.5,-533 163.5,-539 157.5,-545 151.5,-545"/>
<text text-anchor="middle" x="120" y="-530" font-family="sans" font-size="10.00" fill="#000000">load_sn</text>
<text text-anchor="middle" x="120" y="-519" font-family="sans" font-size="10.00" fill="#000000">samples: b6_2</text>
</g>
<!-- 52&#45;&gt;15 -->
<g id="edge6" class="edge">
<title>52&#45;&gt;15</title>
<path fill="none" stroke="#c0c0c0" stroke-width="2" d="M120,-508.8314C120,-501.131 120,-491.9743 120,-483.4166"/>
<polygon fill="#c0c0c0" stroke="#c0c0c0" stroke-width="2" points="123.5001,-483.4132 120,-473.4133 116.5001,-483.4133 123.5001,-483.4132"/>
</g>
<!-- 53&#45;&gt;46 -->
<g id="edge20" class="edge">
<title>53&#45;&gt;46</title>
<path fill="none" stroke="#c0c0c0" stroke-width="2" d="M187.2149,-292.8314C185.6106,-285.131 183.703,-275.9743 181.9201,-267.4166"/>
<polygon fill="#c0c0c0" stroke="#c0c0c0" stroke-width="2" points="185.3021,-266.4892 179.8361,-257.4133 178.4493,-267.9169 185.3021,-266.4892"/>
</g>
<!-- 54 -->
<g id="node55" class="node">
<title>54</title>
<path fill="none" stroke="#d6d856" stroke-width="2" stroke-dasharray="5,2" d="M7471.5,-185C7471.5,-185 7334.5,-185 7334.5,-185 7328.5,-185 7322.5,-179 7322.5,-173 7322.5,-173 7322.5,-156 7322.5,-156 7322.5,-150 7328.5,-144 7334.5,-144 7334.5,-144 7471.5,-144 7471.5,-144 7477.5,-144 7483.5,-150 7483.5,-156 7483.5,-156 7483.5,-173 7483.5,-173 7483.5,-179 7477.5,-185 7471.5,-185"/>
<text text-anchor="middle" x="7403" y="-173" font-family="sans" font-size="10.00" fill="#000000">fastqc</text>
<text text-anchor="middle" x="7403" y="-162" font-family="sans" font-size="10.00" fill="#000000">F_SAMPLES: B6_M_CM_RNA_4</text>
<text text-anchor="middle" x="7403" y="-151" font-family="sans" font-size="10.00" fill="#000000">READS: _1</text>
</g>
<!-- 54&#45;&gt;48 -->
<g id="edge60" class="edge">
<title>54&#45;&gt;48</title>
<path fill="none" stroke="#c0c0c0" stroke-width="2" d="M7322.1842,-145.2759C7319.0914,-144.7998 7316.0221,-144.371 7313,-144 7041.9341,-110.7246 4998.1485,-92.7858 4695.4268,-90.2999"/>
<polygon fill="#c0c0c0" stroke="#c0c0c0" stroke-width="2" points="4695.0363,-86.7967 4685.0081,-90.2148 4694.9791,-93.7964 4695.0363,-86.7967"/>
</g>
<!-- 55&#45;&gt;48 -->
<g id="edge72" class="edge">
<title>55&#45;&gt;48</title>
<path fill="none" stroke="#c0c0c0" stroke-width="2" d="M5028.1032,-146.442C5024.0159,-145.5846 5019.9616,-144.7642 5016,-144 4899.6578,-121.5575 4760.5408,-102.8866 4695.2717,-94.6015"/>
<polygon fill="#c0c0c0" stroke="#c0c0c0" stroke-width="2" points="4695.4338,-91.0943 4685.0744,-93.3155 4694.5579,-98.0393 4695.4338,-91.0943"/>
</g>
<!-- 56 -->
<g id="node57" class="node">
<title>56</title>
<path fill="none" stroke="#d6d856" stroke-width="2" stroke-dasharray="5,2" d="M7823.5,-185C7823.5,-185 7690.5,-185 7690.5,-185 7684.5,-185 7678.5,-179 7678.5,-173 7678.5,-173 7678.5,-156 7678.5,-156 7678.5,-150 7684.5,-144 7690.5,-144 7690.5,-144 7823.5,-144 7823.5,-144 7829.5,-144 7835.5,-150 7835.5,-156 7835.5,-156 7835.5,-173 7835.5,-173 7835.5,-179 7829.5,-185 7823.5,-185"/>
<text text-anchor="middle" x="7757" y="-173" font-family="sans" font-size="10.00" fill="#000000">fastqc</text>
<text text-anchor="middle" x="7757" y="-162" font-family="sans" font-size="10.00" fill="#000000">F_SAMPLES: B6_F_Fib_RNA_2</text>
<text text-anchor="middle" x="7757" y="-151" font-family="sans" font-size="10.00" fill="#000000">READS: _2</text>
</g>
<!-- 56&#45;&gt;48 -->
<g id="edge66" class="edge">
<title>56&#45;&gt;48</title>
<path fill="none" stroke="#c0c0c0" stroke-width="2" d="M7678.4655,-145.3404C7675.2776,-144.8371 7672.1135,-144.3862 7669,-144 7360.0631,-105.6817 5019.7856,-91.9225 4695.2883,-90.1917"/>
<polygon fill="#c0c0c0" stroke="#c0c0c0" stroke-width="2" points="4695.0359,-86.6904 4685.0175,-90.1374 4694.9988,-93.6903 4695.0359,-86.6904"/>
</g>
<!-- 57 -->
<g id="node58" class="node">
<title>57</title>
<path fill="none" stroke="#d6d856" stroke-width="2" stroke-dasharray="5,2" d="M7998.5,-185C7998.5,-185 7865.5,-185 7865.5,-185 7859.5,-185 7853.5,-179 7853.5,-173 7853.5,-173 7853.5,-156 7853.5,-156 7853.5,-150 7859.5,-144 7865.5,-144 7865.5,-144 7998.5,-144 7998.5,-144 8004.5,-144 8010.5,-150 8010.5,-156 8010.5,-156 8010.5,-173 8010.5,-173 8010.5,-179 8004.5,-185 7998.5,-185"/>
<text text-anchor="middle" x="7932" y="-173" font-family="sans" font-size="10.00" fill="#000000">fastqc</text>
<text text-anchor="middle" x="7932" y="-162" font-family="sans" font-size="10.00" fill="#000000">F_SAMPLES: B6_F_Fib_RNA_1</text>
<text text-anchor="middle" x="7932" y="-151" font-family="sans" font-size="10.00" fill="#000000">READS: _1</text>
</g>
<!-- 57&#45;&gt;48 -->
<g id="edge67" class="edge">
<title>57&#45;&gt;48</title>
<path fill="none" stroke="#c0c0c0" stroke-width="2" d="M7853.4168,-145.1869C7850.5837,-144.7446 7847.7717,-144.346 7845,-144 7517.3715,-103.1058 5030.7658,-91.5278 4695.3816,-90.1468"/>
<polygon fill="#c0c0c0" stroke="#c0c0c0" stroke-width="2" points="4695.2367,-86.6463 4685.2225,-90.1054 4695.2081,-93.6463 4695.2367,-86.6463"/>
</g>
<!-- 58&#45;&gt;48 -->
<g id="edge68" class="edge">
<title>58&#45;&gt;48</title>
<path fill="none" stroke="#c0c0c0" stroke-width="2" d="M5559.7102,-146.4556C5554.749,-145.5344 5549.812,-144.7019 5545,-144 5376.8889,-119.4793 4841.5388,-97.1824 4695.2497,-91.4314"/>
<polygon fill="#c0c0c0" stroke="#c0c0c0" stroke-width="2" points="4695.139,-87.9245 4685.0099,-91.0309 4694.8654,-94.9191 4695.139,-87.9245"/>
</g>
<!-- 59 -->
<g id="node60" class="node">
<title>59</title>
<path fill="none" stroke="#78d856" stroke-width="2" stroke-dasharray="5,2" d="M312.5,-545C312.5,-545 249.5,-545 249.5,-545 243.5,-545 237.5,-539 237.5,-533 237.5,-533 237.5,-521 237.5,-521 237.5,-515 243.5,-509 249.5,-509 249.5,-509 312.5,-509 312.5,-509 318.5,-509 324.5,-515 324.5,-521 324.5,-521 324.5,-533 324.5,-533 324.5,-539 318.5,-545 312.5,-545"/>
<text text-anchor="middle" x="281" y="-530" font-family="sans" font-size="10.00" fill="#000000">load_sn</text>
<text text-anchor="middle" x="281" y="-519" font-family="sans" font-size="10.00" fill="#000000">samples: b6_1</text>
</g>
<!-- 59&#45;&gt;51 -->
<g id="edge74" class="edge">
<title>59&#45;&gt;51</title>
<path fill="none" stroke="#c0c0c0" stroke-width="2" d="M281,-508.8314C281,-501.131 281,-491.9743 281,-483.4166"/>
<polygon fill="#c0c0c0" stroke="#c0c0c0" stroke-width="2" points="284.5001,-483.4132 281,-473.4133 277.5001,-483.4133 284.5001,-483.4132"/>
</g>
<!-- 60&#45;&gt;48 -->
<g id="edge42" class="edge">
<title>60&#45;&gt;48</title>
<path fill="none" stroke="#c0c0c0" stroke-width="2" d="M5736.3666,-146.4906C5731.1849,-145.5468 5726.0253,-144.7009 5721,-144 5516.6212,-115.4961 4859.746,-95.6257 4695.4972,-91.0203"/>
<polygon fill="#c0c0c0" stroke="#c0c0c0" stroke-width="2" points="4695.4945,-87.519 4685.4009,-90.7391 4695.2995,-94.5163 4695.4945,-87.519"/>
</g>
<!-- 61 -->
<g id="node62" class="node">
<title>61</title>
<path fill="none" stroke="#d6d856" stroke-width="2" stroke-dasharray="5,2" d="M8531.5,-185C8531.5,-185 8394.5,-185 8394.5,-185 8388.5,-185 8382.5,-179 8382.5,-173 8382.5,-173 8382.5,-156 8382.5,-156 8382.5,-150 8388.5,-144 8394.5,-144 8394.5,-144 8531.5,-144 8531.5,-144 8537.5,-144 8543.5,-150 8543.5,-156 8543.5,-156 8543.5,-173 8543.5,-173 8543.5,-179 8537.5,-185 8531.5,-185"/>
<text text-anchor="middle" x="8463" y="-173" font-family="sans" font-size="10.00" fill="#000000">fastqc</text>
<text text-anchor="middle" x="8463" y="-162" font-family="sans" font-size="10.00" fill="#000000">F_SAMPLES: B6_M_CM_RNA_5</text>
<text text-anchor="middle" x="8463" y="-151" font-family="sans" font-size="10.00" fill="#000000">READS: _2</text>
</g>
<!-- 61&#45;&gt;48 -->
<g id="edge70" class="edge">
<title>61&#45;&gt;48</title>
<path fill="none" stroke="#c0c0c0" stroke-width="2" d="M8382.1224,-145.1062C8379.389,-144.6952 8376.676,-144.3239 8374,-144 7989.6682,-97.4783 5059.7478,-90.7236 4695.192,-90.0612"/>
<polygon fill="#c0c0c0" stroke="#c0c0c0" stroke-width="2" points="4695.1659,-86.5613 4685.1597,-90.0434 4695.1534,-93.5613 4695.1659,-86.5613"/>
</g>
<!-- 62&#45;&gt;16 -->
<g id="edge7" class="edge">
<title>62&#45;&gt;16</title>
<path fill="none" stroke="#c0c0c0" stroke-width="2" d="M88.2421,-146.4656C88.3555,-138.0178 88.4932,-127.7542 88.62,-118.3064"/>
<polygon fill="#c0c0c0" stroke="#c0c0c0" stroke-width="2" points="92.1221,-118.1726 88.7567,-108.1265 85.1227,-118.0786 92.1221,-118.1726"/>
</g>
<!-- 63&#45;&gt;48 -->
<g id="edge65" class="edge">
<title>63&#45;&gt;48</title>
<path fill="none" stroke="#c0c0c0" stroke-width="2" d="M6090.2085,-146.4153C6085.0815,-145.4894 6079.9751,-144.6681 6075,-144 5796.7791,-106.6405 4889.7408,-92.9896 4695.0249,-90.4544"/>
<polygon fill="#c0c0c0" stroke="#c0c0c0" stroke-width="2" points="4695.0532,-86.9546 4685.009,-90.3257 4694.9632,-93.954 4695.0532,-86.9546"/>
</g>
<!-- 65 -->
<g id="node66" class="node">
<title>65</title>
<path fill="none" stroke="#d6d856" stroke-width="2" stroke-dasharray="5,2" d="M8883,-185C8883,-185 8749,-185 8749,-185 8743,-185 8737,-179 8737,-173 8737,-173 8737,-156 8737,-156 8737,-150 8743,-144 8749,-144 8749,-144 8883,-144 8883,-144 8889,-144 8895,-150 8895,-156 8895,-156 8895,-173 8895,-173 8895,-179 8889,-185 8883,-185"/>
<text text-anchor="middle" x="8816" y="-173" font-family="sans" font-size="10.00" fill="#000000">fastqc</text>
<text text-anchor="middle" x="8816" y="-162" font-family="sans" font-size="10.00" fill="#000000">F_SAMPLES: B6_F_CM_RNA_4</text>
<text text-anchor="middle" x="8816" y="-151" font-family="sans" font-size="10.00" fill="#000000">READS: _2</text>
</g>
<!-- 65&#45;&gt;48 -->
<g id="edge71" class="edge">
<title>65&#45;&gt;48</title>
<path fill="none" stroke="#c0c0c0" stroke-width="2" d="M8736.9897,-145.2476C8733.9629,-144.7794 8730.9587,-144.36 8728,-144 8516.5223,-118.2706 5091.2025,-93.0929 4695.2312,-90.2634"/>
<polygon fill="#c0c0c0" stroke="#c0c0c0" stroke-width="2" points="4695.1874,-86.7631 4685.1626,-90.1916 4695.1374,-93.7629 4695.1874,-86.7631"/>
</g>
<!-- 66 -->
<g id="node67" class="node">
<title>66</title>
<path fill="none" stroke="#d6d856" stroke-width="2" stroke-dasharray="5,2" d="M9062.5,-185C9062.5,-185 8925.5,-185 8925.5,-185 8919.5,-185 8913.5,-179 8913.5,-173 8913.5,-173 8913.5,-156 8913.5,-156 8913.5,-150 8919.5,-144 8925.5,-144 8925.5,-144 9062.5,-144 9062.5,-144 9068.5,-144 9074.5,-150 9074.5,-156 9074.5,-156 9074.5,-173 9074.5,-173 9074.5,-179 9068.5,-185 9062.5,-185"/>
<text text-anchor="middle" x="8994" y="-173" font-family="sans" font-size="10.00" fill="#000000">fastqc</text>
<text text-anchor="middle" x="8994" y="-162" font-family="sans" font-size="10.00" fill="#000000">F_SAMPLES: B6_M_CM_RNA_5</text>
<text text-anchor="middle" x="8994" y="-151" font-family="sans" font-size="10.00" fill="#000000">READS: _1</text>
</g>
<!-- 66&#45;&gt;48 -->
<g id="edge64" class="edge">
<title>66&#45;&gt;48</title>
<path fill="none" stroke="#c0c0c0" stroke-width="2" d="M8913.1877,-145.2463C8910.0939,-144.7785 8907.0235,-144.3595 8904,-144 8683.0253,-117.7278 5100.8181,-92.9709 4695.2773,-90.2478"/>
<polygon fill="#c0c0c0" stroke="#c0c0c0" stroke-width="2" points="4695.2666,-86.7477 4685.2433,-90.1805 4695.2196,-93.7476 4695.2666,-86.7477"/>
</g>
</g>
</svg>
