<?xml version="1.0" encoding="UTF-8" standalone="no"?>
<!DOCTYPE svg PUBLIC "-//W3C//DTD SVG 1.1//EN"
 "http://www.w3.org/Graphics/SVG/1.1/DTD/svg11.dtd">
<!-- Generated by graphviz version 2.40.1 (0)
 -->
<!-- Title: snakemake_dag Pages: 1 -->
<svg width="447pt" height="548pt"
 viewBox="0.00 0.00 447.15 548.00" xmlns="http://www.w3.org/2000/svg" xmlns:xlink="http://www.w3.org/1999/xlink">
<g id="graph0" class="graph" transform="scale(1 1) rotate(0) translate(4 544)">
<title>snakemake_dag</title>
<polygon fill="#ffffff" stroke="transparent" points="-4,4 -4,-544 443.1458,-544 443.1458,4 -4,4"/>
<!-- 0 -->
<g id="node1" class="node">
<title>0</title>
<path fill="none" stroke="#56d8b1" stroke-width="2" d="M212.1458,-36C212.1458,-36 182.1458,-36 182.1458,-36 176.1458,-36 170.1458,-30 170.1458,-24 170.1458,-24 170.1458,-12 170.1458,-12 170.1458,-6 176.1458,0 182.1458,0 182.1458,0 212.1458,0 212.1458,0 218.1458,0 224.1458,-6 224.1458,-12 224.1458,-12 224.1458,-24 224.1458,-24 224.1458,-30 218.1458,-36 212.1458,-36"/>
<text text-anchor="middle" x="197.1458" y="-15.5" font-family="sans" font-size="10.00" fill="#000000">all</text>
</g>
<!-- 1 -->
<g id="node2" class="node">
<title>1</title>
<path fill="none" stroke="#5682d8" stroke-width="2" d="M190.1458,-396C190.1458,-396 160.1458,-396 160.1458,-396 154.1458,-396 148.1458,-390 148.1458,-384 148.1458,-384 148.1458,-372 148.1458,-372 148.1458,-366 154.1458,-360 160.1458,-360 160.1458,-360 190.1458,-360 190.1458,-360 196.1458,-360 202.1458,-366 202.1458,-372 202.1458,-372 202.1458,-384 202.1458,-384 202.1458,-390 196.1458,-396 190.1458,-396"/>
<text text-anchor="middle" x="175.1458" y="-375.5" font-family="sans" font-size="10.00" fill="#000000">multiqc</text>
</g>
<!-- 1&#45;&gt;0 -->
<g id="edge4" class="edge">
<title>1&#45;&gt;0</title>
<path fill="none" stroke="#c0c0c0" stroke-width="2" d="M148.1146,-369.5681C99.4583,-352.5148 2.1458,-309.0296 2.1458,-234 2.1458,-234 2.1458,-234 2.1458,-162 2.1458,-121.1184 -6.4375,-102.1739 21.1458,-72 39.8912,-51.4941 114.3453,-33.9355 160.1985,-24.7782"/>
<polygon fill="#c0c0c0" stroke="#c0c0c0" stroke-width="2" points="160.9325,-28.2011 170.0749,-22.847 159.5891,-21.3312 160.9325,-28.2011"/>
</g>
<!-- 2 -->
<g id="node3" class="node">
<title>2</title>
<path fill="none" stroke="#ced856" stroke-width="2" d="M294.1458,-468C294.1458,-468 232.1458,-468 232.1458,-468 226.1458,-468 220.1458,-462 220.1458,-456 220.1458,-456 220.1458,-444 220.1458,-444 220.1458,-438 226.1458,-432 232.1458,-432 232.1458,-432 294.1458,-432 294.1458,-432 300.1458,-432 306.1458,-438 306.1458,-444 306.1458,-444 306.1458,-456 306.1458,-456 306.1458,-462 300.1458,-468 294.1458,-468"/>
<text text-anchor="middle" x="263.1458" y="-447.5" font-family="sans" font-size="10.00" fill="#000000">salmon_quant</text>
</g>
<!-- 2&#45;&gt;1 -->
<g id="edge8" class="edge">
<title>2&#45;&gt;1</title>
<path fill="none" stroke="#c0c0c0" stroke-width="2" d="M240.9397,-431.8314C230.1009,-422.9632 216.9015,-412.1637 205.1781,-402.5718"/>
<polygon fill="#c0c0c0" stroke="#c0c0c0" stroke-width="2" points="207.3008,-399.7864 197.3449,-396.1628 202.8681,-405.2041 207.3008,-399.7864"/>
</g>
<!-- 10 -->
<g id="node11" class="node">
<title>10</title>
<path fill="none" stroke="#56d8c9" stroke-width="2" d="M280.6458,-396C280.6458,-396 245.6458,-396 245.6458,-396 239.6458,-396 233.6458,-390 233.6458,-384 233.6458,-384 233.6458,-372 233.6458,-372 233.6458,-366 239.6458,-360 245.6458,-360 245.6458,-360 280.6458,-360 280.6458,-360 286.6458,-360 292.6458,-366 292.6458,-372 292.6458,-372 292.6458,-384 292.6458,-384 292.6458,-390 286.6458,-396 280.6458,-396"/>
<text text-anchor="middle" x="263.1458" y="-375.5" font-family="sans" font-size="10.00" fill="#000000">tximport</text>
</g>
<!-- 2&#45;&gt;10 -->
<g id="edge16" class="edge">
<title>2&#45;&gt;10</title>
<path fill="none" stroke="#c0c0c0" stroke-width="2" d="M263.1458,-431.8314C263.1458,-424.131 263.1458,-414.9743 263.1458,-406.4166"/>
<polygon fill="#c0c0c0" stroke="#c0c0c0" stroke-width="2" points="266.6459,-406.4132 263.1458,-396.4133 259.6459,-406.4133 266.6459,-406.4132"/>
</g>
<!-- 3 -->
<g id="node4" class="node">
<title>3</title>
<path fill="none" stroke="#d89c56" stroke-width="2" d="M293.6458,-540C293.6458,-540 232.6458,-540 232.6458,-540 226.6458,-540 220.6458,-534 220.6458,-528 220.6458,-528 220.6458,-516 220.6458,-516 220.6458,-510 226.6458,-504 232.6458,-504 232.6458,-504 293.6458,-504 293.6458,-504 299.6458,-504 305.6458,-510 305.6458,-516 305.6458,-516 305.6458,-528 305.6458,-528 305.6458,-534 299.6458,-540 293.6458,-540"/>
<text text-anchor="middle" x="263.1458" y="-519.5" font-family="sans" font-size="10.00" fill="#000000">salmon_index</text>
</g>
<!-- 3&#45;&gt;2 -->
<g id="edge10" class="edge">
<title>3&#45;&gt;2</title>
<path fill="none" stroke="#c0c0c0" stroke-width="2" d="M263.1458,-503.8314C263.1458,-496.131 263.1458,-486.9743 263.1458,-478.4166"/>
<polygon fill="#c0c0c0" stroke="#c0c0c0" stroke-width="2" points="266.6459,-478.4132 263.1458,-468.4133 259.6459,-478.4133 266.6459,-478.4132"/>
</g>
<!-- 4 -->
<g id="node5" class="node">
<title>4</title>
<path fill="none" stroke="#59d856" stroke-width="2" d="M190.1458,-468C190.1458,-468 160.1458,-468 160.1458,-468 154.1458,-468 148.1458,-462 148.1458,-456 148.1458,-456 148.1458,-444 148.1458,-444 148.1458,-438 154.1458,-432 160.1458,-432 160.1458,-432 190.1458,-432 190.1458,-432 196.1458,-432 202.1458,-438 202.1458,-444 202.1458,-444 202.1458,-456 202.1458,-456 202.1458,-462 196.1458,-468 190.1458,-468"/>
<text text-anchor="middle" x="175.1458" y="-447.5" font-family="sans" font-size="10.00" fill="#000000">fastqc</text>
</g>
<!-- 4&#45;&gt;1 -->
<g id="edge9" class="edge">
<title>4&#45;&gt;1</title>
<path fill="none" stroke="#c0c0c0" stroke-width="2" d="M175.1458,-431.8314C175.1458,-424.131 175.1458,-414.9743 175.1458,-406.4166"/>
<polygon fill="#c0c0c0" stroke="#c0c0c0" stroke-width="2" points="178.6459,-406.4132 175.1458,-396.4133 171.6459,-406.4133 178.6459,-406.4132"/>
</g>
<!-- 4&#45;&gt;10 -->
<g id="edge17" class="edge">
<title>4&#45;&gt;10</title>
<path fill="none" stroke="#c0c0c0" stroke-width="2" d="M197.352,-431.8314C208.1908,-422.9632 221.3902,-412.1637 233.1136,-402.5718"/>
<polygon fill="#c0c0c0" stroke="#c0c0c0" stroke-width="2" points="235.4236,-405.2041 240.9468,-396.1628 230.9909,-399.7864 235.4236,-405.2041"/>
</g>
<!-- 5 -->
<g id="node6" class="node">
<title>5</title>
<path fill="none" stroke="#56b1d8" stroke-width="2" d="M221.6458,-108C221.6458,-108 172.6458,-108 172.6458,-108 166.6458,-108 160.6458,-102 160.6458,-96 160.6458,-96 160.6458,-84 160.6458,-84 160.6458,-78 166.6458,-72 172.6458,-72 172.6458,-72 221.6458,-72 221.6458,-72 227.6458,-72 233.6458,-78 233.6458,-84 233.6458,-84 233.6458,-96 233.6458,-96 233.6458,-102 227.6458,-108 221.6458,-108"/>
<text text-anchor="middle" x="197.1458" y="-87.5" font-family="sans" font-size="10.00" fill="#000000">plot_comps</text>
</g>
<!-- 5&#45;&gt;0 -->
<g id="edge6" class="edge">
<title>5&#45;&gt;0</title>
<path fill="none" stroke="#c0c0c0" stroke-width="2" d="M197.1458,-71.8314C197.1458,-64.131 197.1458,-54.9743 197.1458,-46.4166"/>
<polygon fill="#c0c0c0" stroke="#c0c0c0" stroke-width="2" points="200.6459,-46.4132 197.1458,-36.4133 193.6459,-46.4133 200.6459,-46.4132"/>
</g>
<!-- 6 -->
<g id="node7" class="node">
<title>6</title>
<path fill="none" stroke="#566bd8" stroke-width="2" d="M154.1458,-252C154.1458,-252 104.1458,-252 104.1458,-252 98.1458,-252 92.1458,-246 92.1458,-240 92.1458,-240 92.1458,-228 92.1458,-228 92.1458,-222 98.1458,-216 104.1458,-216 104.1458,-216 154.1458,-216 154.1458,-216 160.1458,-216 166.1458,-222 166.1458,-228 166.1458,-228 166.1458,-240 166.1458,-240 166.1458,-246 160.1458,-252 154.1458,-252"/>
<text text-anchor="middle" x="129.1458" y="-231.5" font-family="sans" font-size="10.00" fill="#000000">findMarkers</text>
</g>
<!-- 6&#45;&gt;0 -->
<g id="edge5" class="edge">
<title>6&#45;&gt;0</title>
<path fill="none" stroke="#c0c0c0" stroke-width="2" d="M128.3644,-215.8468C127.724,-184.9053 129.4322,-120.5872 151.1458,-72 155.7153,-61.7753 162.8428,-52.0008 170.1345,-43.6468"/>
<polygon fill="#c0c0c0" stroke="#c0c0c0" stroke-width="2" points="172.8861,-45.826 177.0977,-36.1042 167.7427,-41.0777 172.8861,-45.826"/>
</g>
<!-- 7 -->
<g id="node8" class="node">
<title>7</title>
<path fill="none" stroke="#56d86b" stroke-width="2" d="M222.6458,-180C222.6458,-180 169.6458,-180 169.6458,-180 163.6458,-180 157.6458,-174 157.6458,-168 157.6458,-168 157.6458,-156 157.6458,-156 157.6458,-150 163.6458,-144 169.6458,-144 169.6458,-144 222.6458,-144 222.6458,-144 228.6458,-144 234.6458,-150 234.6458,-156 234.6458,-156 234.6458,-168 234.6458,-168 234.6458,-174 228.6458,-180 222.6458,-180"/>
<text text-anchor="middle" x="196.1458" y="-159.5" font-family="sans" font-size="10.00" fill="#000000">deconvolute</text>
</g>
<!-- 6&#45;&gt;7 -->
<g id="edge13" class="edge">
<title>6&#45;&gt;7</title>
<path fill="none" stroke="#c0c0c0" stroke-width="2" d="M146.0528,-215.8314C153.9271,-207.3694 163.4378,-197.1489 172.0472,-187.8971"/>
<polygon fill="#c0c0c0" stroke="#c0c0c0" stroke-width="2" points="174.7612,-190.1183 179.0113,-180.4133 169.6367,-185.3497 174.7612,-190.1183"/>
</g>
<!-- 14 -->
<g id="node15" class="node">
<title>14</title>
<path fill="none" stroke="#569ad8" stroke-width="2" d="M92.1458,-108C92.1458,-108 42.1458,-108 42.1458,-108 36.1458,-108 30.1458,-102 30.1458,-96 30.1458,-96 30.1458,-84 30.1458,-84 30.1458,-78 36.1458,-72 42.1458,-72 42.1458,-72 92.1458,-72 92.1458,-72 98.1458,-72 104.1458,-78 104.1458,-84 104.1458,-84 104.1458,-96 104.1458,-96 104.1458,-102 98.1458,-108 92.1458,-108"/>
<text text-anchor="middle" x="67.1458" y="-87.5" font-family="sans" font-size="10.00" fill="#000000">plotMarkers</text>
</g>
<!-- 6&#45;&gt;14 -->
<g id="edge21" class="edge">
<title>6&#45;&gt;14</title>
<path fill="none" stroke="#c0c0c0" stroke-width="2" d="M121.2935,-215.7623C110.6253,-190.9846 91.4599,-146.4714 79.0265,-117.5939"/>
<polygon fill="#c0c0c0" stroke="#c0c0c0" stroke-width="2" points="82.1038,-115.8903 74.9344,-108.0896 75.6744,-118.6586 82.1038,-115.8903"/>
</g>
<!-- 7&#45;&gt;5 -->
<g id="edge11" class="edge">
<title>7&#45;&gt;5</title>
<path fill="none" stroke="#c0c0c0" stroke-width="2" d="M196.3982,-143.8314C196.5051,-136.131 196.6323,-126.9743 196.7512,-118.4166"/>
<polygon fill="#c0c0c0" stroke="#c0c0c0" stroke-width="2" points="200.2508,-118.4609 196.8901,-108.4133 193.2515,-118.3637 200.2508,-118.4609"/>
</g>
<!-- 8 -->
<g id="node9" class="node">
<title>8</title>
<path fill="none" stroke="#9fd856" stroke-width="2" d="M285.6458,-252C285.6458,-252 240.6458,-252 240.6458,-252 234.6458,-252 228.6458,-246 228.6458,-240 228.6458,-240 228.6458,-228 228.6458,-228 228.6458,-222 234.6458,-216 240.6458,-216 240.6458,-216 285.6458,-216 285.6458,-216 291.6458,-216 297.6458,-222 297.6458,-228 297.6458,-228 297.6458,-240 297.6458,-240 297.6458,-246 291.6458,-252 285.6458,-252"/>
<text text-anchor="middle" x="263.1458" y="-231.5" font-family="sans" font-size="10.00" fill="#000000">clean_bulk</text>
</g>
<!-- 8&#45;&gt;0 -->
<g id="edge2" class="edge">
<title>8&#45;&gt;0</title>
<path fill="none" stroke="#c0c0c0" stroke-width="2" d="M264.2096,-215.8585C265.3188,-184.9344 264.5304,-120.6415 243.1458,-72 238.6386,-61.7477 231.529,-51.9652 224.2347,-43.6124"/>
<polygon fill="#c0c0c0" stroke="#c0c0c0" stroke-width="2" points="226.6225,-41.0393 217.2635,-36.0734 221.4829,-45.7918 226.6225,-41.0393"/>
</g>
<!-- 8&#45;&gt;7 -->
<g id="edge12" class="edge">
<title>8&#45;&gt;7</title>
<path fill="none" stroke="#c0c0c0" stroke-width="2" d="M246.2389,-215.8314C238.3646,-207.3694 228.8539,-197.1489 220.2445,-187.8971"/>
<polygon fill="#c0c0c0" stroke="#c0c0c0" stroke-width="2" points="222.655,-185.3497 213.2804,-180.4133 217.5305,-190.1183 222.655,-185.3497"/>
</g>
<!-- 13 -->
<g id="node14" class="node">
<title>13</title>
<path fill="none" stroke="#d85656" stroke-width="2" d="M398.6458,-180C398.6458,-180 303.6458,-180 303.6458,-180 297.6458,-180 291.6458,-174 291.6458,-168 291.6458,-168 291.6458,-156 291.6458,-156 291.6458,-150 297.6458,-144 303.6458,-144 303.6458,-144 398.6458,-144 398.6458,-144 404.6458,-144 410.6458,-150 410.6458,-156 410.6458,-156 410.6458,-168 410.6458,-168 410.6458,-174 404.6458,-180 398.6458,-180"/>
<text text-anchor="middle" x="351.1458" y="-159.5" font-family="sans" font-size="10.00" fill="#000000">diffential_expression</text>
</g>
<!-- 8&#45;&gt;13 -->
<g id="edge20" class="edge">
<title>8&#45;&gt;13</title>
<path fill="none" stroke="#c0c0c0" stroke-width="2" d="M285.352,-215.8314C296.1908,-206.9632 309.3902,-196.1637 321.1136,-186.5718"/>
<polygon fill="#c0c0c0" stroke="#c0c0c0" stroke-width="2" points="323.4236,-189.2041 328.9468,-180.1628 318.9909,-183.7864 323.4236,-189.2041"/>
</g>
<!-- 9 -->
<g id="node10" class="node">
<title>9</title>
<path fill="none" stroke="#d8cb56" stroke-width="2" d="M286.1458,-324C286.1458,-324 240.1458,-324 240.1458,-324 234.1458,-324 228.1458,-318 228.1458,-312 228.1458,-312 228.1458,-300 228.1458,-300 228.1458,-294 234.1458,-288 240.1458,-288 240.1458,-288 286.1458,-288 286.1458,-288 292.1458,-288 298.1458,-294 298.1458,-300 298.1458,-300 298.1458,-312 298.1458,-312 298.1458,-318 292.1458,-324 286.1458,-324"/>
<text text-anchor="middle" x="263.1458" y="-303.5" font-family="sans" font-size="10.00" fill="#000000">ensb2gene</text>
</g>
<!-- 9&#45;&gt;8 -->
<g id="edge14" class="edge">
<title>9&#45;&gt;8</title>
<path fill="none" stroke="#c0c0c0" stroke-width="2" d="M263.1458,-287.8314C263.1458,-280.131 263.1458,-270.9743 263.1458,-262.4166"/>
<polygon fill="#c0c0c0" stroke="#c0c0c0" stroke-width="2" points="266.6459,-262.4132 263.1458,-252.4133 259.6459,-262.4133 266.6459,-262.4132"/>
</g>
<!-- 10&#45;&gt;9 -->
<g id="edge15" class="edge">
<title>10&#45;&gt;9</title>
<path fill="none" stroke="#c0c0c0" stroke-width="2" d="M263.1458,-359.8314C263.1458,-352.131 263.1458,-342.9743 263.1458,-334.4166"/>
<polygon fill="#c0c0c0" stroke="#c0c0c0" stroke-width="2" points="266.6459,-334.4132 263.1458,-324.4133 259.6459,-334.4133 266.6459,-334.4132"/>
</g>
<!-- 11 -->
<g id="node12" class="node">
<title>11</title>
<path fill="none" stroke="#56d882" stroke-width="2" d="M412.1458,-468C412.1458,-468 380.1458,-468 380.1458,-468 374.1458,-468 368.1458,-462 368.1458,-456 368.1458,-456 368.1458,-444 368.1458,-444 368.1458,-438 374.1458,-432 380.1458,-432 380.1458,-432 412.1458,-432 412.1458,-432 418.1458,-432 424.1458,-438 424.1458,-444 424.1458,-444 424.1458,-456 424.1458,-456 424.1458,-462 418.1458,-468 412.1458,-468"/>
<text text-anchor="middle" x="396.1458" y="-447.5" font-family="sans" font-size="10.00" fill="#000000">load_gtf</text>
</g>
<!-- 11&#45;&gt;0 -->
<g id="edge7" class="edge">
<title>11&#45;&gt;0</title>
<path fill="none" stroke="#c0c0c0" stroke-width="2" d="M405.265,-431.8786C417.8873,-405.076 439.1458,-352.9635 439.1458,-306 439.1458,-306 439.1458,-306 439.1458,-162 439.1458,-68.0265 302.7133,-33.9894 234.728,-22.8621"/>
<polygon fill="#c0c0c0" stroke="#c0c0c0" stroke-width="2" points="234.8539,-19.3399 224.4359,-21.2673 233.782,-26.2574 234.8539,-19.3399"/>
</g>
<!-- 11&#45;&gt;10 -->
<g id="edge18" class="edge">
<title>11&#45;&gt;10</title>
<path fill="none" stroke="#c0c0c0" stroke-width="2" d="M367.94,-434.7307C348.6774,-424.3028 322.9122,-410.3547 301.7502,-398.8986"/>
<polygon fill="#c0c0c0" stroke="#c0c0c0" stroke-width="2" points="303.1542,-395.6787 292.6938,-393.9959 299.8216,-401.8346 303.1542,-395.6787"/>
</g>
<!-- 12 -->
<g id="node13" class="node">
<title>12</title>
<path fill="none" stroke="#88d856" stroke-width="2" d="M350.1458,-108C350.1458,-108 320.1458,-108 320.1458,-108 314.1458,-108 308.1458,-102 308.1458,-96 308.1458,-96 308.1458,-84 308.1458,-84 308.1458,-78 314.1458,-72 320.1458,-72 320.1458,-72 350.1458,-72 350.1458,-72 356.1458,-72 362.1458,-78 362.1458,-84 362.1458,-84 362.1458,-96 362.1458,-96 362.1458,-102 356.1458,-108 350.1458,-108"/>
<text text-anchor="middle" x="335.1458" y="-87.5" font-family="sans" font-size="10.00" fill="#000000">plot_de</text>
</g>
<!-- 12&#45;&gt;0 -->
<g id="edge3" class="edge">
<title>12&#45;&gt;0</title>
<path fill="none" stroke="#c0c0c0" stroke-width="2" d="M307.8815,-75.7751C286.5233,-64.6317 256.6194,-49.0297 233.2701,-36.8475"/>
<polygon fill="#c0c0c0" stroke="#c0c0c0" stroke-width="2" points="234.8384,-33.718 224.3536,-32.1953 231.6004,-39.9241 234.8384,-33.718"/>
</g>
<!-- 13&#45;&gt;12 -->
<g id="edge19" class="edge">
<title>13&#45;&gt;12</title>
<path fill="none" stroke="#c0c0c0" stroke-width="2" d="M347.1084,-143.8314C345.3972,-136.131 343.3624,-126.9743 341.4607,-118.4166"/>
<polygon fill="#c0c0c0" stroke="#c0c0c0" stroke-width="2" points="344.8237,-117.4159 339.2377,-108.4133 337.9904,-118.9344 344.8237,-117.4159"/>
</g>
<!-- 14&#45;&gt;0 -->
<g id="edge1" class="edge">
<title>14&#45;&gt;0</title>
<path fill="none" stroke="#c0c0c0" stroke-width="2" d="M99.9503,-71.8314C118.6513,-61.4739 142.1091,-48.4819 161.2941,-37.8563"/>
<polygon fill="#c0c0c0" stroke="#c0c0c0" stroke-width="2" points="162.9997,-40.9127 170.0518,-33.0059 159.6081,-34.7892 162.9997,-40.9127"/>
</g>
</g>
</svg>
